<svg xmlns="http://www.w3.org/2000/svg" viewBox="0 0 55.1 54.21"><title>Ресурс 2</title><g id="Слой_2" data-name="Слой 2"><g id="Слой_1-2" data-name="Слой 1"><path d="M54.93,18.37a24.6,24.6,0,0,1,0,2.73,4,4,0,0,1-3.43,3.42C43,25.73,34.41,26.93,25.89,28.2a6.07,6.07,0,0,1-4.29-.82c-6.88-4.07-13.85-8-20.77-12a2.3,2.3,0,0,1-.72-.91c.43-.45.82-.47,1.47-.08,3.19,1.93,6.46,3.73,9.68,5.6,3.82,2.22,7.62,4.49,11.46,6.67a3.65,3.65,0,0,0,2.13.4c5.92-.78,11.83-1.65,17.75-2.49,2.58-.36,5.16-.72,7.74-1.1a2.84,2.84,0,0,0,2.4-2.81c0-1.38,0-2.76,0-4.14s-.85-2.13-2.34-1.92Q37.47,16.4,24.49,18.2a3.08,3.08,0,0,1-1.83-.35C15.94,14,9.25,10.09,2.55,6.2c-.66-.38-1.34-.72-2-1.12A2.81,2.81,0,0,1,0,4.5C.24,4.32.46,4,.73,4c1.17-.22,2.36-.39,3.54-.55L25.45.4A19.59,19.59,0,0,1,28.57,0a5.17,5.17,0,0,1,2.34.65Q41.1,6.5,51.22,12.42a4.48,4.48,0,0,0,.47.28C54.39,13.72,55.57,15.6,54.93,18.37Z"/><path d="M55,31.65c.27,4.79-1.24,5.81-5.75,6.39-7,.9-14.06,2-21.09,3-1.15.16-2.29.4-3.44.47a3.73,3.73,0,0,1-2-.37Q11.74,34.83.8,28.44c-.31-.18-.45-.63-.67-1a1.12,1.12,0,0,1,1.42,0c2.86,1.77,5.82,3.39,8.73,5.08,4.17,2.41,8.32,4.86,12.5,7.25a3.12,3.12,0,0,0,1.8.4c6-.79,11.91-1.66,17.87-2.5,2.33-.33,4.66-.68,7-1s3.3-1.27,3.31-3.69c0-1.12,0-2.25,0-3.37a1.76,1.76,0,0,0-2.28-1.92C42,28.93,33.53,30.08,25.08,31.32a4.11,4.11,0,0,1-2.88-.53q-9.75-5.7-19.53-11.38C1.92,19,1.15,18.58.4,18.14.23,18,0,17.79,0,17.68a.86.86,0,0,1,.46-.51,3.25,3.25,0,0,1,2.7.17c6,3.54,12.07,6.93,18,10.54a7.33,7.33,0,0,0,5.33,1c7.56-1.14,15.14-2.1,22.69-3.29,2.15-.34,3.5.83,4.95,1.88a3.07,3.07,0,0,1,.77,1.83A14.65,14.65,0,0,1,55,31.65Z"/><path d="M52.75,44.36c0-.65,0-1.3,0-2,0-1.52-.78-2.18-2.28-2-4.31.59-8.61,1.22-12.91,1.84s-8.6,1.25-12.91,1.8a3.43,3.43,0,0,1-2-.4C15.25,39.48,7.92,35.22.59,31c-.24-.14-.39-.45-.58-.68.26-.17.53-.48.79-.48a3.37,3.37,0,0,1,1.62.33c6.63,3.8,13.26,7.6,19.83,11.5a4.61,4.61,0,0,0,3.31.46q12.57-1.82,25.16-3.6c1.59-.23,4.08,1.63,4.19,3.25a39.35,39.35,0,0,1,0,5.32,3.82,3.82,0,0,1-3.29,3.32c-6.31.91-12.62,1.78-18.93,2.67-2.72.38-5.45.79-8.18,1.13a2.84,2.84,0,0,1-1.63-.27Q11.75,47.56.66,41.1c-.26-.16-.39-.55-.58-.83.41-.1,1-.43,1.22-.28,3.14,1.8,6.22,3.69,9.33,5.52,4.06,2.38,8.14,4.75,12.23,7.06a3.09,3.09,0,0,0,1.82.33c5.85-.78,11.69-1.63,17.54-2.45,2.69-.38,5.38-.74,8.06-1.13a2.88,2.88,0,0,0,2.46-2.78c0-.72,0-1.45,0-2.18Z"/></g></g></svg>