<svg xmlns="http://www.w3.org/2000/svg" viewBox="0 0 42.79 55.63"><title>Ресурс 3</title><g id="Слой_2" data-name="Слой 2"><g id="Слой_1-2" data-name="Слой 1"><path d="M26,0c.34.09.69.15,1,.26a8.09,8.09,0,0,1,2.17,1.29A45.33,45.33,0,0,1,32.79,4.9c1.81,1.8,3.63,3.58,5.45,5.38a33.86,33.86,0,0,1,3.12,3.43,6.7,6.7,0,0,1,1.22,2.2,4.85,4.85,0,0,1,.19,1.25c0,10,0,19.94,0,29.91a8.29,8.29,0,0,1-4.63,7.59,8.1,8.1,0,0,1-4,1q-12.78,0-25.57,0a8.35,8.35,0,0,1-6.55-3A8.23,8.23,0,0,1,0,47.09Q0,27.78,0,8.48a8.26,8.26,0,0,1,2.7-6.16A8.44,8.44,0,0,1,7.35.08L8,0ZM21.39,51.34H34.1a4.71,4.71,0,0,0,1.06-.11A4.25,4.25,0,0,0,38.51,47V19.35a1.48,1.48,0,0,0,0-.21,1.76,1.76,0,0,0-1.32-1.75,6.69,6.69,0,0,0-2-.27c-2.42,0-4.84,0-7.27,0a2.15,2.15,0,0,1-2.2-2.21c0-2.11,0-4.21,0-6.32,0-.72,0-1.43-.07-2.15a3,3,0,0,0-.39-1.36,1.55,1.55,0,0,0-1.39-.81h-15l-.6,0A4.29,4.29,0,0,0,4.27,8.52v38.6a3.87,3.87,0,0,0,.35,1.64,4.18,4.18,0,0,0,4,2.58C12.88,51.36,17.14,51.34,21.39,51.34Z"/><path d="M15,31.93v-7a1.31,1.31,0,0,1,.71-1.26,1.45,1.45,0,0,1,1.49,0L28,30l1.23.72a1.43,1.43,0,0,1,0,2.41c-1.87,1.07-3.74,2.17-5.6,3.25q-3.25,1.89-6.5,3.79A1.46,1.46,0,0,1,15,38.9C15,36.58,15,34.25,15,31.93Z"/></g></g></svg>