<svg xmlns="http://www.w3.org/2000/svg" viewBox="0 0 45.48 40"><defs><style>.a{fill:#fff}.b{fill:#60b2e0}.c{fill:#0f190f}</style></defs><title>checked</title><path class="a" d="M37.18 16.37L22.1 31.44a3.15 3.15 0 0 1-4.44 0L7 20.75a4.74 4.74 0 0 1 6.7-6.7l6.21 6.21 12.6-12.6a17.64 17.64 0 0 0-1.93-1.7 17.67 17.67 0 0 0-2.37-1.5l-.37-.18-.7-.33c-.41-.18-.83-.34-1.25-.49h-.07l-.6-.18A17.82 17.82 0 0 0 23 2.74c-.56-.09-1.11-.16-1.67-.2h-1.54c-.35 0-.66 0-1 .05l-.78.07c-.3 0-.59.09-.89.14s-.57.1-.86.16L15.5 3l-.5.17-.52.15-.62.23c-.33.12-.66.25-1 .39l-.56.27c-.32.16-.64.31-1 .49l-.47.3c-.29.18-.57.35-.85.55s-.41.3-.61.45-.47.36-.7.55c-.23.19-.44.4-.66.6l-.32.3-.28.28c-.22.22-.42.46-.63.69-.17.2-.35.4-.52.61s-.32.42-.48.64-.36.51-.53.77-.24.38-.35.58-.35.6-.51.92-.18.36-.26.54c-.16.33-.31.67-.44 1l-.21.57c-.07.19-.24.68-.34 1s-.14.53-.14.75l-.1.2c-.06.25-.12.5-.17.75s-.09.53-.12.8-.08.62-.11.93 0 .61 0 .92v2.61c0 .18.07.5.11.75s.08.45.12.68 0 .22.06.33.12.46.18.69.09.32.14.48.09.35.15.52.15.42.23.62.25.66.39 1 .18.37.27.56.31.64.49.95.23.38.34.56.35.57.54.85.3.41.46.61.35.47.54.69c.19.23.4.44.6.66l.3.31.28.29c.22.22.46.43.69.63.2.18.4.35.61.52s.42.32.64.48.51.36.77.53l.58.35c.3.18.6.35.92.51l.54.26c.33.16.67.31 1 .44l.57.21c.34.12.68.24 1 .34l.68.17.25.06.75.17.8.12c.31 0 .62.08.93.11h3.53l.75-.11.68-.12.33-.06.78-.17.48-.14.52-.15.62-.23c.33-.12.66-.25 1-.39l.56-.27c.32-.16.64-.31 1-.49l.56-.34c.29-.18.57-.35.85-.55s.41-.3.61-.45.47-.36.7-.55c.23-.19.44-.4.66-.6l.31-.3.28-.28c.22-.22.42-.46.63-.69.17-.2.35-.4.51-.61s.32-.43.48-.64.36-.51.53-.77.24-.38.35-.58.35-.6.51-.91.18-.36.26-.54.31-.67.44-1l.21-.57c.07-.19.24-.68.34-1s.12-.45.17-.68l.02-.27c.06-.25.12-.5.17-.75s.09-.54.12-.81.08-.55.1-.83 0-.67.05-1 0-.52 0-.79v-.5a17.57 17.57 0 0 0-.36-2.95z"/><path class="b" d="M39.11 4.46L21.42 22.15a2.18 2.18 0 0 1-3.08 0L12 15.77A2.31 2.31 0 0 0 8.69 19l10.69 10.72a.71.71 0 0 0 1 0l22-22a2.31 2.31 0 0 0-3.27-3.27z"/><path class="c" d="M37.39 2.75L34.2 5.94a19.85 19.85 0 0 0-4.91-3.65l-.42-.2c-.32-.16-.64-.32-1-.46s-.83-.33-1.25-.48h-.19c-.35-.12-.71-.22-1.07-.32l-.42-.21-.76-.17c-.3-.06-.59-.13-.89-.18h-.35c-.43-.06-.87-.12-1.3-.16H19.1l-.91.07-.54.06h-.44l-.81.14-.67.13h-.25c-.21.05-.42.12-.63.18s-.7.19-1 .3l-.9.33c-.3.11-.61.23-.91.36s-.67.32-1 .48l-.71.37c-.36.2-.7.42-1 .64l-.58.38c-.34.24-.68.49-1 .75l-.53.43-.22.18c-.23.2-.44.42-.66.63L5.72 6l-.28.28c-.17.19-.33.38-.5.57s-.33.37-.49.56l-.31.38-.14.26-.25.36c-.14.19-.28.38-.41.58s-.42.68-.62 1-.26.43-.37.66-.33.67-.49 1-.25.53-.36.8-.23.62-.34.94-.22.64-.32 1-.15.58-.22.87-.17.7-.24 1.06c0 .11 0 .21-.07.32 0 .19 0 .38-.07.57 0 .32-.09.63-.12.95V20.54c0 .28 0 .56.06.84s0 .55.07.82v.31c0 .26.09.52.14.78s.1.63.17.94v.21c.05.21.12.42.18.63s.19.7.3 1l.33.9c.11.3.23.61.36.91s.32.67.48 1 .24.47.37.7.42.71.64 1c.12.19.25.39.38.57.24.35.49.68.75 1l.43.53.18.22c.2.23.42.44.63.67l.48.49.28.28c.19.17.38.33.58.5s.37.33.56.49l.38.31.24.17.35.25.58.41c.33.22.68.42 1 .62l.66.37c.33.17.66.33 1 .48s.53.25.8.36.62.23.93.34.64.23 1 .32l.87.22c.35.09.7.17 1.06.24l.32.07.56.07c.31 0 .63.09.95.12H20.57c.28 0 .56 0 .84-.06l.82-.07h.31c.26 0 .52-.09.78-.14s.63-.1.94-.17h.21c.21-.05.42-.12.63-.18s.7-.19 1-.3l.9-.33c.3-.11.61-.23.91-.36s.67-.32 1-.48l.71-.37c.36-.2.7-.42 1-.64l.58-.38c.34-.24.67-.49 1-.75l.53-.43.22-.18c.23-.2.44-.42.66-.63l.5-.48.28-.28c.17-.18.33-.38.5-.57s.33-.37.49-.56l.31-.38.17-.24.25-.35c.14-.19.28-.38.41-.58s.42-.68.62-1 .26-.44.38-.66.33-.66.48-1 .25-.53.36-.8.23-.62.34-.93.23-.65.32-1 .15-.58.22-.87.17-.7.24-1.06c0-.11 0-.21.07-.32.06-.35.1-.69.14-1v-.38-.09c0-.38 0-.77.06-1.15v-.63-.27-.57-.59a1.12 1.12 0 0 0 0-.12 20 20 0 0 0-.43-3c-.09-.38-.19-.75-.3-1.12l5.08-4.76a4.74 4.74 0 1 0-6.7-6.7zm.15 17.8c0 .34 0 .68-.05 1s-.07.56-.1.83-.07.54-.12.81-.11.5-.17.75l-.1.26c-.06.23-.11.45-.17.68s-.22.68-.34 1-.13.38-.21.57c-.14.34-.29.68-.44 1s-.17.36-.26.54-.33.61-.51.91-.23.39-.35.58-.35.52-.53.77-.31.43-.48.64-.34.41-.51.61c-.21.24-.41.47-.63.69l-.28.28-.31.3c-.22.2-.43.41-.66.6-.23.19-.46.37-.7.55s-.4.31-.61.45-.56.37-.85.55l-.56.34c-.31.17-.63.33-1 .49l-.56.27c-.32.14-.65.27-1 .39l-.62.23-.52.15-.4.21-.69.18-.33.06-.68.12-.75.11H18.52c-.31 0-.62-.07-.93-.11l-.8-.12-.75-.17-.24-.07-.68-.17c-.35-.1-.69-.22-1-.34l-.57-.21c-.34-.14-.68-.29-1-.44l-.55-.22c-.31-.16-.61-.33-.92-.51l-.58-.35c-.26-.17-.52-.35-.77-.53s-.43-.31-.64-.48-.41-.34-.61-.52c-.24-.21-.47-.41-.69-.63l-.28-.29L7.2 32c-.2-.22-.41-.43-.6-.66-.19-.22-.37-.46-.54-.69s-.31-.4-.46-.61-.37-.56-.54-.85-.23-.37-.34-.56-.33-.63-.49-.95-.19-.37-.27-.56-.27-.65-.39-1-.16-.41-.23-.62-.1-.35-.15-.52-.09-.32-.14-.48-.13-.46-.18-.69 0-.22-.06-.33-.08-.45-.12-.68-.08-.49-.11-.75 0-.36 0-.54v-.34-.9-.83-.92c0-.31.07-.62.11-.93s.07-.54.12-.8.11-.5.17-.75L3 15.8c.06-.23.11-.45.17-.68s.22-.69.34-1 .13-.38.21-.57c.14-.34.29-.68.44-1 .09-.18.17-.36.26-.54s.33-.61.51-.92.23-.39.35-.58.35-.52.53-.77.31-.43.48-.64.34-.41.52-.61c.21-.23.41-.47.63-.69l.28-.28.28-.33c.22-.2.43-.41.66-.6.23-.19.46-.37.7-.55s.4-.31.61-.45.56-.37.85-.55l.56-.34c.31-.17.63-.33 1-.49l.56-.27c.32-.14.65-.27 1-.39l.62-.23.44-.15.5-.17.69-.18c.28-.06.57-.11.86-.16s.59-.1.89-.14l.78-.07c.33 0 .66 0 1-.05s.7 0 1.05 0h.49c.55 0 1.11.1 1.67.2a17.82 17.82 0 0 1 2.22.54l.6.18h.07c.42.15.84.31 1.25.49l.7.33.37.18a17.67 17.67 0 0 1 2.37 1.5 17.64 17.64 0 0 1 1.93 1.7l-12.6 12.6L13.67 14A4.74 4.74 0 0 0 7 20.75l10.66 10.69a3.15 3.15 0 0 0 4.44 0l15.08-15.07a17.57 17.57 0 0 1 .37 2.89v.5c0 .16 0 .53-.01.79zm4.84-12.82l-22 22a.71.71 0 0 1-1 0L8.69 19A2.31 2.31 0 0 1 12 15.77l6.39 6.39a2.18 2.18 0 0 0 3.08 0l17.64-17.7a2.31 2.31 0 0 1 3.27 3.27z"/></svg>