<!DOCTYPE svg PUBLIC "-//W3C//DTD SVG 20010904//EN" "http://www.w3.org/TR/2001/REC-SVG-20010904/DTD/svg10.dtd">
<svg version="1.0" xmlns="http://www.w3.org/2000/svg" width="435px" height="205px" viewBox="0 0 4350 2050" preserveAspectRatio="xMidYMid meet">
<g id="layer101" fill="#fff" stroke="none">
 <path d="M795 1896 c-453 -87 -766 -482 -742 -936 22 -401 287 -726 679 -832 120 -33 336 -32 458 0 321 86 565 331 652 654 32 119 32 327 0 448 -86 319 -331 565 -648 650 -101 27 -299 35 -399 16z"/>
 <path d="M2190 1035 l0 -215 -85 0 -85 0 0 -35 0 -35 215 0 215 0 0 35 0 35 -90 0 -90 0 0 215 0 215 -40 0 -40 0 0 -215z"/>
 <path d="M2500 1000 l0 -250 138 0 c157 0 193 11 224 70 36 68 16 181 -39 217 l-23 15 50 96 c27 52 50 96 50 98 0 2 -20 4 -45 4 l-45 0 -45 -90 -45 -90 -70 0 -70 0 0 90 0 90 -40 0 -40 0 0 -250z m279 -36 c23 -30 26 -61 10 -97 -16 -35 -50 -47 -134 -47 l-75 0 0 85 0 85 89 0 c85 0 91 -1 110 -26z"/>
 <path d="M2930 1239 c0 -9 130 -379 166 -473 5 -14 18 -16 66 -14 l60 3 43 120 c24 66 64 177 89 248 l45 127 -42 0 -42 0 -21 -57 -20 -58 -114 0 -113 0 -20 58 c-20 56 -22 57 -59 57 -22 0 -38 -5 -38 -11z m276 -294 c-22 -63 -43 -115 -46 -115 -5 0 -80 208 -80 223 0 4 38 7 84 7 l83 0 -41 -115z"/>
 <path d="M3440 1001 l0 -251 111 0 c141 0 181 12 240 70 35 36 49 58 59 99 24 100 -2 214 -62 267 -53 49 -87 58 -220 62 l-128 4 0 -251z m261 151 c53 -32 74 -76 74 -152 0 -118 -67 -180 -193 -180 l-62 0 0 181 0 182 74 -5 c51 -3 84 -11 107 -26z"/>
 <path d="M3900 1000 l0 -250 180 0 180 0 0 35 0 35 -140 0 -140 0 0 70 0 70 120 0 120 0 0 40 0 40 -120 0 -120 0 0 70 0 70 145 0 145 0 0 35 0 35 -185 0 -185 0 0 -250z"/>
 </g>
<g id="layer102" fill="#2e72a9" stroke="none">
 <path d="M795 1896 c-453 -87 -766 -482 -742 -936 22 -401 287 -726 679 -832 120 -33 336 -32 458 0 321 86 565 331 652 654 32 119 32 327 0 448 -86 319 -331 565 -648 650 -101 27 -299 35 -399 16z"/>
 </g>
<g id="layer103" fill="#3586bb" stroke="none">
 <path d="M795 1896 c-453 -87 -766 -482 -742 -936 22 -401 287 -726 679 -832 120 -33 336 -32 458 0 321 86 565 331 652 654 32 119 32 327 0 448 -86 319 -331 565 -648 650 -101 27 -299 35 -399 16z m391 -441 c52 -39 194 -181 194 -193 0 -6 -20 -20 -45 -32 -58 -28 -102 -81 -121 -149 -37 -124 20 -248 140 -308 l39 -20 -84 -84 c-138 -138 -138 -138 -265 -146 -60 -3 -148 -2 -197 2 l-87 7 -87 76 c-47 43 -97 92 -111 110 l-25 32 42 17 c43 17 47 23 31 52 -8 17 -13 17 -62 5 -28 -8 -55 -11 -59 -6 -3 4 -9 39 -13 78 l-6 71 61 12 c45 9 70 21 97 46 34 30 37 38 36 84 -1 60 -22 94 -74 122 -19 10 -38 20 -44 22 -18 6 28 60 121 143 109 96 97 93 330 89 150 -2 154 -3 189 -30z m-629 -277 c12 -6 27 -24 34 -41 17 -41 -4 -78 -56 -95 -60 -20 -67 -13 -59 65 3 38 7 74 10 81 4 14 30 10 71 -10z m887 -81 c4 -52 4 -135 0 -185 -6 -81 -9 -92 -26 -92 -56 0 -119 65 -138 142 -22 85 25 187 100 217 54 21 57 18 64 -82z"/>
 <path d="M720 1005 l0 -247 133 4 c111 3 138 7 172 25 85 45 119 107 119 218 0 113 -34 174 -124 221 -27 15 -63 19 -167 22 l-133 4 0 -247z m253 171 c97 -40 136 -186 74 -277 -41 -61 -69 -74 -168 -77 l-89 -4 0 186 0 186 75 0 c42 0 90 -6 108 -14z"/>
 </g>
<g id="layer104" fill="#3f91c5" stroke="none">
 <path d="M795 1896 c-453 -87 -766 -482 -742 -936 22 -401 287 -726 679 -832 120 -33 336 -32 458 0 321 86 565 331 652 654 32 119 32 327 0 448 -86 319 -331 565 -648 650 -101 27 -299 35 -399 16z m260 -347 c54 -35 74 -53 65 -59 -8 -5 8 -10 41 -14 74 -10 158 -25 196 -37 35 -11 36 -13 56 -110 l14 -66 -55 -18 c-238 -75 -217 -429 29 -488 l27 -7 -14 -67 c-21 -99 -22 -101 -57 -112 -38 -12 -122 -27 -196 -37 -33 -4 -49 -9 -41 -14 15 -10 -131 -110 -160 -110 -27 0 -175 100 -161 109 6 4 -23 13 -66 19 -99 14 -174 30 -192 41 -8 5 -22 45 -31 90 l-18 81 27 6 c101 20 111 27 91 64 -8 15 -16 17 -33 11 -12 -4 -39 -11 -59 -15 l-37 -7 -51 76 c-28 41 -49 75 -48 76 2 0 26 3 53 5 28 3 74 9 103 15 173 34 173 226 1 269 l-47 12 18 80 c9 44 23 84 31 89 18 11 93 27 192 41 43 6 72 15 66 19 -14 9 134 109 161 109 10 0 53 -23 95 -51z m-493 -372 c24 -15 41 -61 33 -87 -12 -38 -51 -53 -141 -57 -66 -2 -84 0 -78 9 4 7 30 46 57 86 47 71 50 73 80 66 17 -3 39 -11 49 -17z m882 -19 c-3 -29 -2 -30 4 -8 8 24 9 23 41 -23 26 -38 30 -51 21 -62 -20 -25 -8 -59 23 -65 l29 -5 -53 -80 c-49 -75 -53 -78 -60 -55 -7 21 -8 20 -6 -10 2 -32 0 -35 -23 -31 -66 9 -121 65 -140 143 -27 106 49 224 146 227 17 1 20 -4 18 -31z"/>
 <path d="M918 1493 c23 -2 61 -2 85 0 23 2 4 4 -43 4 -47 0 -66 -2 -42 -4z"/>
 <path d="M709 1443 c-13 -16 -12 -17 4 -4 9 7 17 15 17 17 0 8 -8 3 -21 -13z"/>
 <path d="M1205 1440 c10 -11 20 -20 23 -20 3 0 -3 9 -13 20 -10 11 -20 20 -23 20 -3 0 3 -9 13 -20z"/>
 <path d="M605 1348 l-50 -53 53 50 c28 27 52 51 52 52 0 8 -9 -1 -55 -49z"/>
 <path d="M1305 1350 c21 -22 41 -40 44 -40 3 0 -13 18 -34 40 -21 22 -41 40 -44 40 -3 0 13 -18 34 -40z"/>
 <path d="M720 1005 l0 -247 133 4 c111 3 138 7 172 25 85 45 119 107 119 218 0 113 -34 174 -124 221 -27 15 -63 19 -167 22 l-133 4 0 -247z m253 171 c97 -40 136 -186 74 -277 -41 -61 -69 -74 -168 -77 l-89 -4 0 186 0 186 75 0 c42 0 90 -6 108 -14z"/>
 <path d="M472 855 c0 -16 2 -22 5 -12 2 9 2 23 0 30 -3 6 -5 -1 -5 -18z"/>
 <path d="M605 660 c27 -27 51 -50 54 -50 3 0 -17 23 -44 50 -27 28 -51 50 -54 50 -3 0 17 -22 44 -50z"/>
 <path d="M1310 665 c-24 -25 -42 -45 -39 -45 3 0 25 20 49 45 24 25 42 45 39 45 -3 0 -25 -20 -49 -45z"/>
 <path d="M1204 568 l-19 -23 23 19 c21 18 27 26 19 26 -2 0 -12 -10 -23 -22z"/>
 <path d="M700 576 c0 -2 8 -10 18 -17 15 -13 16 -12 3 4 -13 16 -21 21 -21 13z"/>
 <path d="M918 513 c23 -2 61 -2 85 0 23 2 4 4 -43 4 -47 0 -66 -2 -42 -4z"/>
 <path d="M472 1155 c0 -16 2 -22 5 -12 2 9 2 23 0 30 -3 6 -5 -1 -5 -18z"/>
 </g>
<g id="layer105" fill="#429acd" stroke="none">
 <path d="M795 1896 c-453 -87 -766 -482 -742 -936 22 -401 287 -726 679 -832 120 -33 336 -32 458 0 321 86 565 331 652 654 32 119 32 327 0 448 -86 319 -331 565 -648 650 -101 27 -299 35 -399 16z m268 -350 c89 -59 102 -65 204 -85 59 -12 112 -26 117 -31 8 -8 48 -162 43 -166 -1 -1 -26 -9 -56 -19 -177 -58 -227 -292 -89 -421 34 -33 88 -64 110 -64 35 -1 38 -14 19 -94 -10 -43 -23 -82 -27 -86 -5 -5 -58 -19 -117 -31 -102 -20 -115 -26 -204 -85 -53 -35 -99 -64 -103 -64 -4 0 -50 29 -103 64 -89 60 -102 65 -204 85 -66 13 -113 28 -120 38 -7 8 -17 41 -23 72 -6 31 -14 64 -16 73 -4 13 2 19 23 23 103 21 113 28 93 64 -8 17 -13 17 -62 5 -29 -8 -58 -12 -65 -10 -17 7 -103 138 -97 148 3 4 27 8 54 8 119 0 211 45 225 110 17 77 -35 147 -128 171 -36 9 -46 15 -43 28 3 9 10 41 16 72 6 31 16 64 23 72 7 10 54 25 120 38 102 20 115 25 204 85 53 35 99 64 103 64 4 0 50 -29 103 -64z m-501 -369 c24 -15 41 -61 33 -87 -12 -36 -50 -52 -144 -59 -59 -4 -87 -3 -83 4 16 28 87 132 100 148 17 19 58 16 94 -6z m926 -46 c34 -48 39 -60 26 -65 -10 -4 -14 -16 -12 -33 2 -22 9 -29 31 -31 15 -2 27 -6 27 -9 0 -8 -109 -171 -118 -177 -4 -2 -25 2 -47 9 -53 18 -100 74 -115 135 -21 88 25 189 100 219 51 20 65 13 108 -48z"/>
 <path d="M720 1005 l0 -247 133 4 c111 3 138 7 172 25 85 45 119 107 119 218 0 113 -34 174 -124 221 -27 15 -63 19 -167 22 l-133 4 0 -247z m253 171 c97 -40 136 -186 74 -277 -41 -61 -69 -74 -168 -77 l-89 -4 0 186 0 186 75 0 c42 0 90 -6 108 -14z"/>
 </g>
<g id="layer106" fill="#62b4e1" stroke="none">
 <path d="M795 1896 c-453 -87 -766 -482 -742 -936 22 -401 287 -726 679 -832 120 -33 336 -32 458 0 321 86 565 331 652 654 32 119 32 327 0 448 -86 319 -331 565 -648 650 -101 27 -299 35 -399 16z m-7 -212 c40 -13 95 -35 122 -49 l48 -24 74 34 c41 19 108 43 149 55 70 19 75 19 87 3 23 -30 78 -144 102 -210 22 -60 24 -63 74 -79 71 -24 144 -56 192 -87 35 -21 41 -30 37 -51 -5 -23 -10 -26 -44 -26 -28 0 -39 -4 -39 -15 0 -19 0 -19 -40 2 -127 63 -295 -13 -336 -153 -60 -206 127 -383 337 -320 30 9 62 22 72 30 18 14 18 16 2 40 l-17 25 -36 -18 c-127 -64 -261 -10 -292 118 -16 69 6 146 54 189 62 54 163 60 233 15 17 -12 23 -25 23 -54 0 -37 0 -38 -42 -41 -40 -3 -43 -5 -43 -33 0 -27 3 -30 30 -30 26 -1 34 -8 57 -50 28 -49 73 -177 79 -224 3 -20 -5 -30 -51 -57 -30 -18 -94 -47 -142 -65 l-86 -31 -22 -62 c-24 -65 -79 -179 -102 -209 -12 -16 -17 -16 -87 3 -41 12 -108 36 -148 55 l-73 34 -73 -34 c-40 -19 -107 -43 -148 -55 -70 -19 -75 -19 -87 -3 -23 30 -78 144 -102 211 -18 50 -28 64 -49 69 -44 10 -173 68 -218 96 -44 28 -44 29 -21 104 l9 32 37 -24 c69 -45 182 -55 280 -24 34 11 38 19 22 48 -9 17 -13 17 -66 4 -115 -30 -214 4 -214 73 0 45 44 74 112 74 82 0 148 19 187 55 33 30 36 38 35 84 0 35 -7 60 -20 78 -49 65 -165 88 -298 59 -42 -10 -80 -15 -85 -12 -5 3 -11 20 -13 37 -4 28 0 34 41 60 25 16 90 46 143 66 l97 38 22 60 c22 62 71 163 96 202 17 26 24 25 141 -13z m-231 -505 c35 -22 50 -66 32 -98 -18 -33 -62 -47 -165 -54 l-82 -5 -32 70 c-18 38 -30 71 -28 73 2 3 31 11 64 20 69 17 180 14 211 -6z"/>
 <path d="M720 1005 l0 -247 133 4 c111 3 138 7 172 25 85 45 119 107 119 218 0 113 -34 174 -124 221 -27 15 -63 19 -167 22 l-133 4 0 -247z m253 171 c97 -40 136 -186 74 -277 -41 -61 -69 -74 -168 -77 l-89 -4 0 186 0 186 75 0 c42 0 90 -6 108 -14z"/>
 </g>
<g id="layer107" fill="#78c6ee" stroke="none">
 <path d="M795 1895 c-449 -82 -766 -482 -742 -935 25 -467 385 -829 853 -857 233 -14 488 69 633 206 26 25 40 40 30 33 -46 -35 -125 -55 -219 -56 l-95 -1 -54 -57 c-148 -159 -332 -159 -483 0 l-55 57 -94 1 c-221 2 -330 110 -333 331 l-1 91 -62 61 c-34 34 -72 82 -84 109 -30 61 -37 155 -15 218 18 54 81 138 130 174 l34 25 -1 95 c0 117 24 186 84 248 60 60 131 85 248 86 l94 1 53 56 c30 31 78 69 107 85 46 26 62 29 137 29 75 0 91 -3 138 -29 29 -16 76 -54 105 -85 l52 -56 95 -1 c99 -1 153 -15 213 -55 20 -13 13 -3 -20 28 -176 165 -485 247 -748 198z"/>
 <path d="M1600 1645 c0 -3 11 -21 25 -39 42 -55 57 -112 57 -218 0 -54 3 -98 7 -98 22 0 117 -110 142 -164 57 -121 28 -247 -81 -354 -29 -29 -56 -52 -61 -52 -4 0 -7 -44 -7 -98 0 -106 -15 -163 -57 -218 -44 -57 -27 -47 29 16 245 282 284 705 96 1034 -37 64 -150 208 -150 191z"/>
 <path d="M333 1244 c-64 -16 -73 -27 -50 -57 11 -15 17 -15 77 -1 72 18 164 14 198 -7 12 -7 27 -27 33 -43 26 -61 -31 -104 -140 -105 -111 -2 -183 -45 -196 -119 -9 -54 22 -104 83 -134 37 -18 64 -23 127 -22 80 0 155 17 155 35 0 6 -4 18 -10 28 -9 17 -13 17 -66 4 -115 -30 -214 4 -214 73 0 45 44 74 112 74 82 0 148 19 187 55 33 30 36 38 35 84 -1 61 -22 95 -79 125 -50 26 -168 31 -252 10z"/>
 <path d="M1361 1243 c-66 -24 -126 -89 -147 -159 -59 -206 127 -383 337 -320 30 9 62 22 72 30 18 14 18 16 2 40 l-17 25 -36 -18 c-127 -64 -261 -10 -292 118 -16 69 6 146 54 189 62 54 163 60 233 15 17 -12 23 -25 23 -54 0 -37 0 -38 -42 -41 -40 -3 -43 -5 -43 -33 l0 -30 80 0 80 0 0 120 0 120 -37 3 c-29 2 -38 0 -38 -12 0 -20 0 -20 -41 1 -46 23 -134 26 -188 6z"/>
 <path d="M720 1005 l0 -247 133 4 c111 3 138 7 172 25 85 45 119 107 119 218 0 113 -34 174 -124 221 -27 15 -63 19 -167 22 l-133 4 0 -247z m253 171 c97 -40 136 -186 74 -277 -41 -61 -69 -74 -168 -77 l-89 -4 0 186 0 186 75 0 c42 0 90 -6 108 -14z"/>
 </g>
<g id="layer108" fill="#84d0f5" stroke="none">
 <path d="M795 1895 c-142 -26 -307 -100 -400 -180 l-40 -35 50 22 c40 18 72 23 155 25 l105 2 32 39 c44 53 96 91 162 119 64 26 45 28 -64 8z"/>
 <path d="M1061 1887 c66 -28 118 -66 162 -119 l32 -39 105 -2 c84 -2 115 -7 154 -25 64 -29 45 -6 -45 53 -121 81 -266 134 -409 150 l-55 6 56 -24z"/>
 <path d="M309 1643 c-13 -16 -12 -17 4 -4 9 7 17 15 17 17 0 8 -8 3 -21 -13z"/>
 <path d="M1659 1558 c22 -46 26 -67 28 -156 l1 -103 51 -45 c52 -47 93 -107 118 -172 l13 -37 -5 55 c-9 84 -42 202 -76 277 -34 74 -106 188 -137 216 -16 15 -15 9 7 -35z"/>
 <path d="M224 1538 c-88 -118 -152 -284 -168 -433 l-6 -60 16 45 c22 59 61 116 119 169 l47 43 2 101 c1 80 7 112 23 150 12 26 20 47 17 47 -2 0 -25 -28 -50 -62z"/>
 <path d="M333 1244 c-64 -16 -73 -27 -50 -57 11 -15 17 -15 77 -1 72 18 164 14 198 -7 12 -7 27 -27 33 -43 26 -61 -31 -104 -140 -105 -149 -2 -228 -82 -182 -186 27 -62 89 -90 196 -89 80 0 155 17 155 35 0 6 -4 18 -10 28 -9 17 -13 17 -66 4 -115 -30 -214 4 -214 73 0 45 44 74 112 74 82 0 148 19 187 55 33 30 36 38 35 84 -1 61 -22 95 -79 125 -50 26 -168 31 -252 10z"/>
 <path d="M1361 1243 c-66 -24 -126 -89 -147 -159 -59 -206 127 -383 337 -320 30 9 62 22 72 30 18 14 18 16 2 40 l-17 25 -36 -18 c-127 -64 -261 -10 -292 118 -16 69 6 146 54 189 62 54 163 60 233 15 17 -12 23 -25 23 -54 0 -37 0 -38 -42 -41 -40 -3 -43 -5 -43 -33 l0 -30 80 0 80 0 0 120 0 120 -37 3 c-29 2 -38 0 -38 -12 0 -20 0 -20 -41 1 -46 23 -134 26 -188 6z"/>
 <path d="M720 1005 l0 -247 133 4 c111 3 138 7 172 25 85 45 119 107 119 218 0 113 -34 174 -124 221 -27 15 -63 19 -167 22 l-133 4 0 -247z m253 171 c97 -40 136 -186 74 -277 -41 -61 -69 -74 -168 -77 l-89 -4 0 186 0 186 75 0 c42 0 90 -6 108 -14z"/>
 <path d="M56 905 c16 -145 75 -303 159 -420 57 -80 70 -89 42 -28 -17 38 -22 70 -23 150 l-2 101 -47 43 c-58 53 -97 110 -119 169 l-16 45 6 -60z"/>
 <path d="M1860 944 c0 -33 -65 -135 -117 -185 l-55 -52 -1 -101 c-2 -87 -6 -109 -28 -154 -22 -44 -23 -50 -7 -35 31 28 103 142 137 216 43 95 98 327 77 327 -3 0 -6 -7 -6 -16z"/>
 <path d="M300 376 c0 -2 8 -10 18 -17 15 -13 16 -12 3 4 -13 16 -21 21 -21 13z"/>
 <path d="M370 315 c21 -26 145 -104 213 -135 73 -33 194 -66 277 -75 l55 -6 -56 24 c-66 28 -118 66 -162 119 l-32 39 -105 2 c-84 2 -115 7 -154 25 -34 15 -45 17 -36 7z"/>
 <path d="M1510 307 c-36 -17 -67 -22 -150 -24 l-105 -2 -32 -39 c-44 -53 -96 -91 -162 -119 l-56 -24 55 6 c83 9 204 42 277 75 68 31 192 109 213 135 15 18 16 18 -40 -8z"/>
 </g>
<g id="layer109" fill="#fdfdfd" stroke="none">
 <path d="M333 1244 c-64 -16 -73 -27 -50 -57 11 -15 17 -15 77 -1 72 18 164 14 198 -7 12 -7 27 -27 33 -43 26 -61 -31 -104 -140 -105 -149 -2 -228 -82 -182 -186 27 -62 89 -90 196 -89 80 0 155 17 155 35 0 6 -4 18 -10 28 -9 17 -13 17 -66 4 -115 -30 -214 4 -214 73 0 45 44 74 112 74 82 0 148 19 187 55 33 30 36 38 35 84 -1 61 -22 95 -79 125 -50 26 -168 31 -252 10z"/>
 <path d="M1361 1243 c-66 -24 -126 -89 -147 -159 -59 -206 127 -383 337 -320 30 9 62 22 72 30 18 14 18 16 2 40 l-17 25 -36 -18 c-127 -64 -261 -10 -292 118 -16 69 6 146 54 189 62 54 163 60 233 15 17 -12 23 -25 23 -54 0 -37 0 -38 -42 -41 -40 -3 -43 -5 -43 -33 l0 -30 80 0 80 0 0 120 0 120 -37 3 c-29 2 -38 0 -38 -12 0 -20 0 -20 -41 1 -46 23 -134 26 -188 6z"/>
 <path d="M720 1005 l0 -247 133 4 c111 3 138 7 172 25 85 45 119 107 119 218 0 113 -34 174 -124 221 -27 15 -63 19 -167 22 l-133 4 0 -247z m253 171 c97 -40 136 -186 74 -277 -41 -61 -69 -74 -168 -77 l-89 -4 0 186 0 186 75 0 c42 0 90 -6 108 -14z"/>
 </g>

</svg>