<?xml version="1.0" standalone="no"?>
<!DOCTYPE svg PUBLIC "-//W3C//DTD SVG 1.1//EN" "http://www.w3.org/Graphics/SVG/1.1/DTD/svg11.dtd" >
<svg xmlns="http://www.w3.org/2000/svg" xmlns:xlink="http://www.w3.org/1999/xlink" version="1.1">
<metadata>
Created by FontForge 20161003 at Fri Nov 24 06:57:11 2017
 By www-data
Copyright (c) 2004-2008 by Village Type &#38; Design LLC. All rights reserved.
</metadata>
<defs>
<font id="GalaxiePolarisHeavyItalic" horiz-adv-x="700" >
  <font-face 
    font-family="GalaxiePolarisHeavyItalic"
    font-weight="900"
    font-style="italic"
    font-stretch="normal"
    units-per-em="1000"
    panose-1="2 0 0 0 0 0 0 0 0 0"
    ascent="800"
    descent="-200"
    x-height="530"
    cap-height="780"
    bbox="-271 -240 2091 1230"
    underline-thickness="30"
    underline-position="-130"
    unicode-range="U+0020-F778"
  />
<missing-glyph horiz-adv-x="960" 
d="M90 0v780h780v-780h-780zM480 345l-279 -279h558zM201 714l279 -279l279 279h-558zM435 390l-275 275v-550zM525 390l275 -275v550z" />
    <glyph glyph-name="interrobang" unicode="&#x21;&#x3f;" horiz-adv-x="624" 
d="M633 606q0 -62 -16 -105t-53 -70t-59.5 -37t-72.5 -26q-3 -2 -5.5 -2.5t-5.5 -1.5q-36 -12 -54 -28l-15 -86h-104l24 360q-33 -27 -40 -80l-173 59q52 207 319 207q122 0 188.5 -47t66.5 -143zM384 182l-22 -182h-184l22 182h184zM399 517q43 20 43 62q0 28 -24 41z" />
    <glyph glyph-name="interrobangdown" unicode="&#xa1;&#xbf;" horiz-adv-x="623" 
d="M233 348l23 182h184l-23 -182h-184zM392 50l172 -59q-52 -207 -319 -207q-121 0 -187.5 47t-66.5 140q0 141 111 199q27 14 97 37q40 12 56 20l10 54h104l-21 -313q34 25 44 82zM224 53q-43 -18 -43 -55q0 -30 26 -41z" />
    <glyph glyph-name=".notdef" horiz-adv-x="960" 
d="M90 0v780h780v-780h-780zM480 345l-279 -279h558zM201 714l279 -279l279 279h-558zM435 390l-275 275v-550zM525 390l275 -275v550z" />
    <glyph glyph-name=".null" horiz-adv-x="0" 
 />
    <glyph glyph-name="nonmarkingreturn" horiz-adv-x="333" 
 />
    <glyph glyph-name="space" unicode=" " horiz-adv-x="220" 
 />
    <glyph glyph-name="exclam" unicode="!" horiz-adv-x="280" 
d="M219 182l-22 -182h-184l22 182h184zM99 780h202l-94 -530h-144z" />
    <glyph glyph-name="quotedbl" unicode="&#x22;" horiz-adv-x="475" 
d="M82 780h203l-55 -250h-153zM311 780h202l-55 -250h-152z" />
    <glyph glyph-name="numbersign" unicode="#" horiz-adv-x="743" 
d="M135 608h99l62 156h185l-62 -156h106l62 156h185l-62 -156h52l-20 -164h-97l-49 -124h55l-20 -164h-100l-61 -156h-185l61 156h-106l-61 -156h-185l61 156h-51l20 164h96l49 124h-54zM354 444l-49 -124h106l49 124h-106z" />
    <glyph glyph-name="dollar" unicode="$" horiz-adv-x="570" 
d="M288 257q42 1 63 8t21 27q0 14 -17.5 19t-64.5 9q-12 1 -18 2q-36 4 -52 6t-47 7.5t-46 14t-33.5 22.5t-26 35t-7.5 49q0 56 25 98t66.5 64t86 33t92.5 12l41 101h157l-46 -113q68 -13 114 -37l-60 -156q-104 52 -214 52q-65 0 -65 -34q0 -4 2 -7t7 -5t9.5 -3t14 -2.5
t16.5 -2t19.5 -2t21.5 -2.5q102 -10 136 -23q76 -31 77 -114q0 -47 -16.5 -84t-43.5 -60.5t-64.5 -39.5t-75.5 -22.5t-80 -7.5l-41 -101h-158l45 113q-77 16 -124 45l66 156q112 -57 220 -57z" />
    <glyph glyph-name="percent" unicode="%" horiz-adv-x="1215" 
d="M308 643q-89 0 -89 -100q0 -64 69 -64q89 0 89 100q0 64 -69 64zM199 0l644 764h196l-644 -764h-196zM271 342q-204 0 -204 178q0 130 69.5 195t188.5 65q205 0 205 -176q0 -131 -69.5 -196.5t-189.5 -65.5zM950 285q-89 0 -89 -100q0 -64 69 -64q89 0 89 100
q0 64 -69 64zM913 -16q-204 0 -204 178q0 130 69.5 195t188.5 65q205 0 205 -176q0 -131 -69.5 -196.5t-189.5 -65.5z" />
    <glyph glyph-name="ampersand" unicode="&#x26;" horiz-adv-x="750" 
d="M367 633q-34 0 -51 -14t-17 -37q0 -22 9 -37.5t35 -43.5q23 -25 52 -51t49 -42.5t48.5 -39t37.5 -29.5q28 92 -7 207l181 -63q8 -43 8 -88q0 -46 -13.5 -92t-27.5 -71l44 -30l-26 -218l-130 98q-102 -98 -258 -98q-274 0 -274 221q0 73 40 132t111 96q-62 54 -62 143
q0 103 70 161.5t180 58.5q125 0 188 -44.5t63 -120.5l-185 -63q0 65 -65 65zM306 145q77 0 126 37q-87 66 -160 139q-62 -43 -62 -104q0 -41 30 -56.5t66 -15.5z" />
    <glyph glyph-name="quotesingle" unicode="'" horiz-adv-x="247" 
d="M82 780h203l-55 -250h-153z" />
    <glyph glyph-name="parenleft" unicode="(" horiz-adv-x="330" 
d="M394 830q-84 -135 -132 -295.5t-48 -328.5q0 -175 55 -336h-180q-61 130 -61 342q-5 161 43.5 339t128.5 279h194z" />
    <glyph glyph-name="parenright" unicode=")" horiz-adv-x="330" 
d="M-49 -130q84 135 132 295.5t48 328.5q0 175 -55 336h180q61 -130 61 -342q5 -161 -43.5 -339t-128.5 -279h-194z" />
    <glyph glyph-name="asterisk" unicode="*" horiz-adv-x="349" 
d="M271 698l83 35l20 -106l-73 -15l40 -52l-99 -65l-34 74l-51 -74l-83 65l54 52l-71 15l48 106l72 -35l2 82h111z" />
    <glyph glyph-name="plus" unicode="+" 
d="M268 120v188h-188v164h188v188h164v-188h188v-164h-188v-188h-164z" />
    <glyph glyph-name="comma" unicode="," horiz-adv-x="280" 
d="M35 182h191l-110 -289h-140z" />
    <glyph glyph-name="hyphen" unicode="-" horiz-adv-x="392" 
d="M339 253h-304l20 164h304z" />
    <glyph glyph-name="period" unicode="." horiz-adv-x="280" 
d="M219 182l-22 -182h-184l22 182h184z" />
    <glyph glyph-name="slash" unicode="/" horiz-adv-x="436" 
d="M496 870l-347 -960h-184l346 960h185z" />
    <glyph glyph-name="zero" unicode="0" 
d="M333 147q59 0 98.5 46.5t56 116.5t16.5 160q0 78 -27 112.5t-87 34.5q-86 0 -129 -91t-43 -230q0 -79 27.5 -114t87.5 -35zM410 780q146 0 213 -71.5t67 -217.5q0 -112 -21.5 -202t-65.5 -159.5t-118 -107.5t-172 -38q-145 0 -212.5 72.5t-67.5 218.5q0 89 13 164
t42 138.5t72.5 108t107 69.5t142.5 25z" />
    <glyph glyph-name="one" unicode="1" 
d="M615 0h-554l20 163h193l45 369q-89 -52 -214 -76l22 172q95 32 152.5 65.5t107.5 86.5h144l-75 -617h179z" />
    <glyph glyph-name="two" unicode="2" 
d="M409 615q-70 0 -104 -26.5t-44 -92.5l-178 61q26 107 113.5 165t232.5 58q120 0 197.5 -54.5t77.5 -156.5q0 -135 -117 -209q-45 -29 -161 -74q-26 -10 -69 -25.5t-60.5 -23t-40.5 -19.5t-32 -25t-12 -30h454l-20 -163h-653q12 114 40 188.5t84.5 119.5t95 62.5
t126.5 46.5q2 1 3.5 1.5t3.5 1t4 1.5q99 33 134.5 57.5t35.5 70.5q0 66 -111 66z" />
    <glyph glyph-name="three" unicode="3" 
d="M319 149q88 0 130 23t42 77q0 28 -16 41.5t-37 16.5t-61 3h-127l19 162h127q27 0 41 1.5t31 8.5t24 23.5t7 43.5q0 66 -110 66q-75 0 -108.5 -22t-42.5 -87l-179 61q55 213 345 213q125 0 202 -48.5t77 -154.5q0 -127 -90 -180q36 -17 59 -54t23 -86q0 -128 -99.5 -200.5
t-276.5 -72.5q-143 0 -216 56.5t-75 161.5l192 66q-7 -63 20.5 -91t98.5 -28z" />
    <glyph glyph-name="four" unicode="4" 
d="M658 160h-135l-19 -160h-181l19 160h-338l16 131l414 489h165l-56 -456h135zM362 324l20 159l-130 -159h110z" />
    <glyph glyph-name="five" unicode="5" 
d="M332 149q62 0 106 33t44 100q0 95 -124 95q-95 0 -141 -68l-147 50l92 405h519l-20 -165h-355l-24 -95q38 29 115 29q268 0 268 -226q0 -162 -99.5 -242.5t-253.5 -80.5q-286 0 -289 202l192 66q-7 -59 23 -81t94 -22z" />
    <glyph glyph-name="six" unicode="6" 
d="M512 548q5 40 -24 55.5t-78 15.5q-144 0 -177 -163q63 71 181 71q252 0 252 -216q0 -157 -95.5 -242t-248.5 -85q-147 0 -218 74t-71 223q0 240 109 369.5t300 129.5q120 0 187.5 -41.5t74.5 -124.5zM376 368q-67 0 -111 -34t-47 -103q7 -45 35 -65.5t87 -20.5t99 33.5
t40 99.5q0 88 -103 90z" />
    <glyph glyph-name="seven" unicode="7" 
d="M298 0h-208l361 545l35 55l-108 -1h-316l20 165h656l-13 -109z" />
    <glyph glyph-name="eight" unicode="8" 
d="M390 612q-129 0 -129 -83q0 -38 29.5 -50.5t81.5 -12.5q27 0 47 3t40 11t31 26t11 45q0 61 -111 61zM354 318q-151 0 -151 -95q0 -72 130 -72q150 0 150 95q0 72 -129 72zM313 -16q-296 0 -296 196q0 77 34.5 137t81.5 81q-24 18 -39 53t-15 76q0 55 18.5 99t49 72.5
t73.5 47t90 26.5t100 8q277 0 277 -191q0 -59 -27 -112.5t-67 -78.5q32 -15 52 -54.5t20 -92.5q0 -132 -89.5 -199.5t-262.5 -67.5z" />
    <glyph glyph-name="nine" unicode="9" 
d="M210 216q-5 -40 24 -55.5t78 -15.5q144 0 177 163q-63 -71 -181 -71q-252 0 -252 216q0 157 95.5 242t248.5 85q147 0 218 -74t71 -223q0 -240 -109 -369.5t-300 -129.5q-120 0 -187.5 41.5t-74.5 124.5zM346 396q67 0 111 34t47 103q-7 45 -35 65.5t-87 20.5t-99 -33.5
t-40 -99.5q0 -88 103 -90z" />
    <glyph glyph-name="colon" unicode=":" horiz-adv-x="280" 
d="M219 182l-22 -182h-184l22 182h184zM258 498l-23 -182h-184l23 182h184z" />
    <glyph glyph-name="semicolon" unicode=";" horiz-adv-x="280" 
d="M258 498l-23 -182h-184l23 182h184zM35 182h191l-110 -289h-140z" />
    <glyph glyph-name="less" unicode="&#x3c;" 
d="M245 390l105 -27l270 -79v-174l-540 185v190l540 185v-174l-270 -79z" />
    <glyph glyph-name="equal" unicode="=" 
d="M620 188h-540v164h540v-164zM620 428h-540v164h540v-164z" />
    <glyph glyph-name="greater" unicode="&#x3e;" 
d="M350 363l105 27l-105 27l-270 79v174l540 -185v-190l-540 -185v174z" />
    <glyph glyph-name="question" unicode="?" horiz-adv-x="624" 
d="M352 250h-147q-21 34 -21 78q0 21 4.5 38.5t10 30.5t18.5 25.5t20.5 19.5t27 17t27 13t30.5 12.5t29 11.5q3 1 16 6.5t17 7t14.5 7t14.5 9t11 9.5t10 12t5.5 14t2.5 17q0 54 -84 54q-54 0 -86 -22t-40 -80l-173 59q52 207 319 207q122 0 188.5 -47t66.5 -143
q0 -50 -13.5 -89t-30 -61t-49 -41.5t-51 -27t-56.5 -19.5q-8 -3 -12 -4q-25 -8 -41 -18t-22.5 -21.5t-8 -19.5t-1.5 -20q0 -11 4 -35zM369 182l-22 -182h-184l22 182h184z" />
    <glyph glyph-name="at" unicode="@" horiz-adv-x="1135" 
d="M752 60h-113l-6 31q-15 -16 -50 -31.5t-84 -15.5q-92 0 -150 51.5t-58 152.5q0 75 23 133.5t61.5 93.5t85.5 53t100 18q49 0 81 -15.5t43 -31.5l12 31h165l-29 -154l-19 -156q55 2 88 60t33 155q0 107 -76 158.5t-236 51.5q-194 0 -301.5 -106.5t-107.5 -317.5
q0 -146 84.5 -211t249.5 -65q114 0 176 23.5t67 52.5l175 -60q-63 -177 -460 -177q-233 0 -352 110t-119 309q0 275 163.5 439t443.5 164q233 0 351 -97.5t118 -260.5q0 -182 -92.5 -285t-266.5 -103zM638 258l9 74q-18 51 -79 51q-95 0 -95 -108q0 -68 73 -68q61 0 92 51z
" />
    <glyph glyph-name="A" unicode="A" horiz-adv-x="754" 
d="M528 0l-25 133h-286l-57 -133h-201l369 790h218l177 -790h-195zM384 520l-103 -237h193l-44 237l-13 79z" />
    <glyph glyph-name="B" unicode="B" horiz-adv-x="710" 
d="M375 0h-358l95 780h352q232 0 232 -177q0 -64 -24.5 -116t-64.5 -76q37 -12 55.5 -49.5t18.5 -88.5q0 -78 -25.5 -133.5t-70.5 -84.5t-96.5 -42t-113.5 -13zM222 165h165q105 0 105 88q0 38 -23 50.5t-60 12.5h-169zM434 615h-157l-16 -134h157q41 0 63.5 18.5t22.5 65.5
q0 29 -17.5 39.5t-52.5 10.5z" />
    <glyph glyph-name="C" unicode="C" horiz-adv-x="743" 
d="M46 298q0 105 23.5 193.5t71.5 157.5t128 108t186 39q143 0 218.5 -57t77.5 -161l-193 -66q5 66 -25 92.5t-91 26.5q-208 0 -208 -319q0 -77 31.5 -120t110.5 -43q71 0 106.5 27t45.5 92l179 -62q-27 -106 -116.5 -164t-234.5 -58q-310 0 -310 314z" />
    <glyph glyph-name="D" unicode="D" horiz-adv-x="763" 
d="M310 0h-293l95 780h293q169 0 252.5 -74t83.5 -229q0 -229 -109.5 -353t-321.5 -124zM222 165h108q118 0 170 78t52 207q0 81 -39 123t-128 42h-108z" />
    <glyph glyph-name="E" unicode="E" horiz-adv-x="668" 
d="M112 780h566l-20 -165h-381l-16 -134h327l-21 -165h-327l-18 -151h401l-20 -165h-586z" />
    <glyph glyph-name="F" unicode="F" horiz-adv-x="630" 
d="M240 316l-38 -316h-185l95 780h564l-20 -165h-379l-16 -134h325l-21 -165h-325z" />
    <glyph glyph-name="G" unicode="G" horiz-adv-x="805" 
d="M48 306q0 104 26 191.5t77 155t133 105.5t187 38q161 0 235 -54.5t75 -163.5l-192 -66q3 65 -30.5 92t-101.5 27q-61 0 -105.5 -25t-69 -69.5t-35.5 -95.5t-11 -112q0 -88 40 -134t137 -46q79 0 132 21l16 127h-160l18 150h344l-47 -383q-83 -47 -160 -63.5t-172 -16.5
q-336 0 -336 322z" />
    <glyph glyph-name="H" unicode="H" horiz-adv-x="748" 
d="M571 780h185l-95 -780h-185l38 316h-274l-38 -316h-185l95 780h185l-36 -299h274z" />
    <glyph glyph-name="I" unicode="I" horiz-adv-x="311" 
d="M308 780l-95 -780h-185l95 780h185z" />
    <glyph glyph-name="J" unicode="J" horiz-adv-x="555" 
d="M388 780h185l-69 -561q-28 -235 -283 -235q-122 0 -173 49t-52 135l188 65q-4 -44 7.5 -64.5t49.5 -20.5q39 0 56 17t22 53z" />
    <glyph glyph-name="K" unicode="K" horiz-adv-x="761" 
d="M297 780l-40 -326l113 128l182 198h260l-314 -308l230 -472h-231l-142 333l-128 -129l-25 -204h-185l95 780h185z" />
    <glyph glyph-name="L" unicode="L" horiz-adv-x="600" 
d="M297 780l-75 -615h355l-20 -165h-540l95 780h185z" />
    <glyph glyph-name="M" unicode="M" horiz-adv-x="906" 
d="M491 0h-152l-85 454l-55 -454h-182l95 780h245l88 -501l228 501h241l-95 -780h-182l55 454z" />
    <glyph glyph-name="N" unicode="N" horiz-adv-x="768" 
d="M290 780l247 -453l16 145l38 308h185l-95 -780h-178l-247 453l-17 -145l-37 -308h-185l95 780h178z" />
    <glyph glyph-name="O" unicode="O" horiz-adv-x="820" 
d="M452 631q-60 0 -104 -26.5t-67 -72t-33.5 -96.5t-10.5 -111q0 -176 156 -176q61 0 105 26.5t67 73t33 98t10 111.5q0 173 -156 173zM373 -16q-167 0 -245.5 84t-78.5 237q0 105 25.5 192.5t75.5 155t132.5 105.5t189.5 38q166 0 245 -83.5t79 -234.5q0 -105 -25 -193
t-75 -156.5t-132.5 -106.5t-190.5 -38z" />
    <glyph glyph-name="P" unicode="P" horiz-adv-x="680" 
d="M252 415h149q40 0 71 27t31 95q0 43 -22.5 60.5t-54.5 17.5h-149zM232 249l-30 -249h-185l95 780h320q260 0 260 -216q0 -85 -27.5 -148.5t-74.5 -98.5t-101.5 -51.5t-117.5 -16.5h-139z" />
    <glyph glyph-name="Q" unicode="Q" horiz-adv-x="820" 
d="M752 -216l-538 227q-165 67 -165 293q0 83 15.5 156t48.5 135t82 106.5t120 69.5t157 25q166 0 245 -83.5t79 -234.5q0 -163 -59 -283t-170 -172l208 -52zM452 631q-60 0 -104 -26.5t-67 -72t-33.5 -96.5t-10.5 -111q0 -176 156 -176q61 0 105 26.5t67 73t33 98t10 111.5
q0 173 -156 173z" />
    <glyph glyph-name="R" unicode="R" horiz-adv-x="725" 
d="M235 269l-33 -269h-185l95 780h345q266 0 266 -208q0 -116 -48.5 -184.5t-123.5 -95.5l143 -292h-212l-119 269h-128zM255 435h174q19 0 33.5 3t32.5 13t28 33.5t10 59.5q0 71 -82 71h-174z" />
    <glyph glyph-name="S" unicode="S" horiz-adv-x="722" 
d="M338 149q43 0 78 6.5t62.5 28t27.5 55.5q0 42 -31 59t-112 21q-52 2 -88 6.5t-77 17t-66 33t-41.5 56t-16.5 84.5q0 91 50.5 156.5t125.5 94.5t164 29q153 0 231 -56.5t80 -161.5l-193 -66q4 68 -27 93.5t-102 25.5q-54 0 -97.5 -20.5t-43.5 -66.5q0 -36 25.5 -48
t102.5 -17q65 -4 107 -10t82.5 -19.5t62.5 -36t35.5 -59t13.5 -87.5q0 -72 -30.5 -128t-82.5 -89t-115 -49.5t-133 -16.5q-166 0 -239 55.5t-73 162.5l193 66q-11 -58 26.5 -88.5t100.5 -30.5z" />
    <glyph glyph-name="T" unicode="T" horiz-adv-x="627" 
d="M446 615l-75 -615h-185l75 615h-214l20 165h613l-20 -165h-214z" />
    <glyph glyph-name="U" unicode="U" horiz-adv-x="746" 
d="M356 148q89 0 122 36.5t41 106.5l60 489h185l-60 -493q-9 -69 -31 -121t-63.5 -94.5t-110 -65t-163.5 -22.5t-158.5 22.5t-94.5 65t-40.5 94.5t-0.5 121l60 493h185l-60 -489q-5 -29 -2 -55t14 -45.5t40.5 -31t76.5 -11.5z" />
    <glyph glyph-name="V" unicode="V" horiz-adv-x="754" 
d="M264 780l92 -520l9 -65l25 65l220 520h207l-366 -790h-222l-172 790h207z" />
    <glyph glyph-name="W" unicode="W" horiz-adv-x="1020" 
d="M566 373l-15 233l-74 -233l-118 -381h-233l-50 788h203l7 -344v-178l55 182l109 340h244l26 -340l9 -182l44 178l91 344h200l-245 -788h-227z" />
    <glyph glyph-name="X" unicode="X" horiz-adv-x="788" 
d="M392 259l-101 -131l-97 -128h-229l335 400l-224 380h222l62 -119l63 -123l94 123l89 119h226l-316 -380l237 -400h-225l-67 128z" />
    <glyph glyph-name="Y" unicode="Y" horiz-adv-x="730" 
d="M382 472l217 308h221l-361 -485l-36 -295h-186l36 295l-243 485h215z" />
    <glyph glyph-name="Z" unicode="Z" horiz-adv-x="682" 
d="M-21 0l16 129l452 487l-128 -1h-247l20 165h629l-16 -129l-452 -487l128 1h265l-20 -165h-647z" />
    <glyph glyph-name="bracketleft" unicode="[" horiz-adv-x="330" 
d="M347 665h-54l-77 -630h54l-20 -165h-239l117 960h239z" />
    <glyph glyph-name="backslash" unicode="\" horiz-adv-x="436" 
d="M193 -90l-111 960h185l111 -960h-185z" />
    <glyph glyph-name="bracketright" unicode="]" horiz-adv-x="330" 
d="M-2 35h54l77 630h-54l20 165h239l-117 -960h-239z" />
    <glyph glyph-name="asciicircum" unicode="^" horiz-adv-x="609" 
d="M285 796h163l157 -396h-180l-75 196l-122 -196h-196z" />
    <glyph glyph-name="underscore" unicode="_" horiz-adv-x="348" 
d="M266 -200h-303l19 164h304z" />
    <glyph glyph-name="grave" unicode="`" horiz-adv-x="600" 
d="M167 800h196l68 -208h-179z" />
    <glyph glyph-name="a" unicode="a" horiz-adv-x="655" 
d="M606 376l-28 -222l-8 -154h-165l-6 57q-67 -73 -167 -73q-211 0 -211 217q0 158 72 251.5t208 93.5q106 0 150 -73l19 57h165zM404 197l16 136q-32 50 -99 50q-47 0 -80 -36t-33 -107q0 -47 23 -70t61 -23q67 0 112 50z" />
    <glyph glyph-name="b" unicode="b" horiz-adv-x="647" 
d="M410 546q104 0 157 -55t53 -161q0 -158 -72.5 -252t-208.5 -94q-52 0 -90.5 21t-57.5 52l-19 -57h-165l28 154l80 646h180l-37 -311q63 57 152 57zM237 333l-16 -136q32 -50 100 -50q47 0 80 36t33 107q0 47 -23 70t-61 23q-68 0 -113 -50z" />
    <glyph glyph-name="c" unicode="c" horiz-adv-x="576" 
d="M310 385q-52 0 -79 -42.5t-27 -114.5q0 -44 18.5 -63.5t57.5 -19.5q73 0 84 66l173 -60q-20 -78 -83.5 -122.5t-192.5 -44.5q-118 0 -179 57t-61 167q0 163 82.5 250.5t226.5 87.5q127 0 179.5 -43.5t54.5 -119.5l-186 -64q1 32 -13 49t-55 17z" />
    <glyph glyph-name="d" unicode="d" horiz-adv-x="647" 
d="M478 800h180l-80 -646l-8 -154h-165l-6 57q-67 -73 -167 -73q-211 0 -211 217q0 158 72 251.5t208 93.5q89 0 139 -56zM404 197l16 136q-32 50 -99 50q-47 0 -80 -36t-33 -107q0 -47 23 -70t61 -23q67 0 112 50z" />
    <glyph glyph-name="e" unicode="e" horiz-adv-x="615" 
d="M580 214h-376q-1 -43 23 -63t70 -20q80 0 90 40l169 -58q-23 -57 -90.5 -93t-179.5 -36q-127 0 -195.5 59.5t-68.5 172.5q0 157 89 243.5t233 86.5q120 0 183 -57.5t63 -168.5q0 -44 -10 -106zM326 399q-42 0 -71 -21.5t-35 -57.5h181q8 36 -13.5 57.5t-61.5 21.5z" />
    <glyph glyph-name="f" unicode="f" horiz-adv-x="464" 
d="M26 380l19 150h106l12 93q10 81 70 137t183 56q66 0 110 -20l-33 -162q-40 29 -91 24q-56 -7 -62 -60l-9 -68h150l-19 -150h-150l-70 -580h-180l70 580h-106z" />
    <glyph glyph-name="g" unicode="g" horiz-adv-x="644" 
d="M606 376l-47 -382q-9 -72 -57 -121t-111 -69t-138 -20q-134 0 -197.5 31t-66.5 104l186 64q-2 -29 17 -40.5t69 -11.5q111 0 119 71l8 67q-24 -25 -67.5 -42t-94.5 -17q-97 0 -150 52.5t-53 156.5q0 161 75 244t204 83q104 0 149 -73l18 57h165zM407 223l13 110
q-32 50 -99 50q-112 0 -112 -130q0 -80 86 -80q67 0 112 50z" />
    <glyph glyph-name="h" unicode="h" horiz-adv-x="639" 
d="M9 0l98 800h180l-39 -314q66 60 163 60q108 0 156.5 -52.5t33.5 -168.5l-39 -325h-180l37 302q5 44 -12.5 63t-55.5 18q-76 -1 -122 -50l-40 -333h-180z" />
    <glyph glyph-name="i" unicode="i" horiz-adv-x="290" 
d="M15 0l65 530h180l-65 -530h-180zM292 780l-22 -182h-184l22 182h184z" />
    <glyph glyph-name="j" unicode="j" horiz-adv-x="290" 
d="M292 780l-22 -182h-184l22 182h184zM15 2l65 528h180l-68 -553q-11 -81 -70.5 -137t-181.5 -56q-67 0 -111 20l33 162q43 -29 91 -24q56 7 62 60z" />
    <glyph glyph-name="k" unicode="k" horiz-adv-x="640" 
d="M189 0h-180l98 800h180l-55 -449l55 60l116 119h257l-239 -208l186 -322h-234l-98 202l-69 -59z" />
    <glyph glyph-name="l" unicode="l" horiz-adv-x="290" 
d="M15 0l98 800h180l-98 -800h-180z" />
    <glyph glyph-name="m" unicode="m" horiz-adv-x="978" 
d="M235 530l5 -57q62 73 172 73q115 0 158 -75q83 75 195 75q97 0 143.5 -51t33.5 -153l-41 -342h-180l39 322q7 61 -64 61q-60 0 -108 -50l-40 -333h-180l39 322q7 61 -64 61q-60 0 -108 -50l-40 -333h-180l46 376l9 154h165z" />
    <glyph glyph-name="n" unicode="n" horiz-adv-x="645" 
d="M235 530l5 -57q73 73 177 73q108 0 156.5 -52.5t33.5 -168.5l-39 -325h-180l37 302q5 44 -12.5 63t-55.5 18q-76 -1 -122 -50l-40 -333h-180l46 376l9 154h165z" />
    <glyph glyph-name="o" unicode="o" horiz-adv-x="620" 
d="M292 146q117 0 117 152q0 48 -22 67t-65 19q-117 0 -117 -151q0 -48 22.5 -67.5t64.5 -19.5zM273 -16q-120 0 -185.5 58.5t-65.5 170.5q0 161 88 247t232 86q120 0 185 -58t65 -170q0 -162 -87.5 -248t-231.5 -86z" />
    <glyph glyph-name="p" unicode="p" horiz-adv-x="647" 
d="M172 -200h-180l71 576l8 154h165l6 -57q67 73 167 73q211 0 211 -217q0 -158 -72 -251.5t-208 -93.5q-89 0 -139 56zM237 333l-16 -136q32 -50 99 -50q47 0 80 36t33 107q0 47 -23 70t-61 23q-67 0 -112 -50z" />
    <glyph glyph-name="q" unicode="q" horiz-adv-x="647" 
d="M232 -16q-104 0 -157 55t-53 161q0 158 72.5 252t208.5 94q52 0 90.5 -21t57.5 -52l19 57h165l-28 -154l-72 -576h-180l29 241q-63 -57 -152 -57zM405 197l16 136q-32 50 -100 50q-47 0 -80 -36t-33 -107q0 -47 23 -70t61 -23q68 0 113 50z" />
    <glyph glyph-name="r" unicode="r" horiz-adv-x="436" 
d="M384 546q45 0 72 -13l-34 -168q-26 8 -49 8q-93 0 -139 -50l-39 -323h-180l46 376l9 154h165l5 -57q25 33 64.5 53t79.5 20z" />
    <glyph glyph-name="s" unicode="s" horiz-adv-x="570" 
d="M259 125q42 0 65 12.5t23 35.5q0 9 -5 14.5t-17.5 8.5t-25.5 4.5t-38 3.5q-38 3 -53.5 4t-46 5.5t-43.5 9.5t-32.5 14.5t-28 22.5t-15 32t-6.5 44q0 56 26 99t68.5 66t88.5 34t95 11q224 0 235 -129l-185 -63q3 25 -11 38t-55 13q-30 0 -47.5 -11.5t-17.5 -31.5
q0 -16 17.5 -22.5t62.5 -9.5q113 -7 149 -19q76 -27 76 -118q0 -57 -26 -99t-69.5 -65t-93.5 -34t-106 -11q-120 0 -179 32.5t-63 102.5l185 64q-2 -29 15 -43.5t58 -14.5z" />
    <glyph glyph-name="t" unicode="t" horiz-adv-x="480" 
d="M26 380l19 150h97l19 160h180l-19 -160h160l-19 -150h-160l-22 -178q-4 -30 8.5 -43.5t39.5 -16.5q24 -3 52 5.5t45 18.5l-7 -162q-49 -20 -115 -20q-64 0 -108.5 17t-66 45.5t-28.5 61t-3 69.5l25 203h-97z" />
    <glyph glyph-name="u" unicode="u" horiz-adv-x="645" 
d="M400 0l-6 57q-73 -73 -176 -73q-108 0 -157 53t-34 168l40 325h180l-38 -302q-5 -44 12.5 -63t56.5 -18q75 1 121 50l41 333h180l-47 -376l-8 -154h-165z" />
    <glyph glyph-name="v" unicode="v" horiz-adv-x="612" 
d="M651 530l-286 -530h-188l-156 530h196l37 -173l37 -174l80 174l80 173h200z" />
    <glyph glyph-name="w" unicode="w" horiz-adv-x="850" 
d="M432 193l-3 183l-47 -183l-56 -193h-251l-31 530h184l-2 -200l-6 -164l51 176l60 188h233l12 -188l9 -176l34 164l48 200h189l-161 -530h-253z" />
    <glyph glyph-name="x" unicode="x" horiz-adv-x="638" 
d="M392 0l-88 150l-122 -150h-226l249 275l-169 255h217l76 -136l110 136h223l-233 -255l183 -275h-220z" />
    <glyph glyph-name="y" unicode="y" horiz-adv-x="626" 
d="M665 530l-289 -497l-127 -233h-208l143 242l-163 488h198l39 -163l39 -171l83 171l81 163h204z" />
    <glyph glyph-name="z" unicode="z" horiz-adv-x="566" 
d="M-22 0l14 121l295 250h-246l20 159h511l-15 -121l-295 -250h275l-19 -159h-540z" />
    <glyph glyph-name="braceleft" unicode="{" horiz-adv-x="359" 
d="M293 35h24l-20 -165h-42q-218 0 -194 203l19 148q3 25 -10 36.5t-39 11.5h-24l20 163h24q55 0 60 48l18 147q26 203 243 203h42l-20 -165h-24q-54 0 -61 -48l-19 -155q-10 -83 -85 -112q68 -29 58 -111l-19 -156q-4 -25 9.5 -36.5t39.5 -11.5z" />
    <glyph glyph-name="bar" unicode="|" horiz-adv-x="331" 
d="M324 830l-117 -960h-185l117 960h185z" />
    <glyph glyph-name="braceright" unicode="}" horiz-adv-x="359" 
d="M81 665h-24l20 165h42q219 0 193 -203l-18 -148q-3 -25 10 -36.5t39 -11.5h24l-20 -163h-24q-55 0 -60 -48l-19 -147q-24 -203 -242 -203h-41l19 165h24q54 0 61 48l19 155q10 83 84 112q-67 29 -57 111l19 156q4 25 -9.5 36.5t-39.5 11.5z" />
    <glyph glyph-name="asciitilde" unicode="~" horiz-adv-x="533" 
d="M516 362l-76 -97l-2 3l-5 5l-7 7t-9.5 7.5t-11.5 6.5t-14 5t-16 2q-17 0 -37.5 -13.5t-39 -29.5t-52.5 -29.5t-75 -13.5q-48 0 -83.5 23.5t-47.5 46.5l-12 23l76 96q2 -3 8.5 -10t22.5 -16t34 -9q17 0 37.5 13.5t39 29.5t53 29.5t75.5 13.5q30 0 55.5 -9.5t41 -23.5
t26.5 -27.5t15 -22.5z" />
    <glyph glyph-name="nbspace" unicode="&#xa0;" horiz-adv-x="220" 
 />
    <glyph glyph-name="exclamdown" unicode="&#xa1;" horiz-adv-x="280" 
d="M261 530l-22 -182h-184l22 182h184zM178 -200h-196l85 481h144z" />
    <glyph glyph-name="cent" unicode="&#xa2;" horiz-adv-x="596" 
d="M543 764l-48 -122q97 -33 104 -131l-185 -63q1 27 -16 39.5t-64 12.5q-52 0 -83.5 -36.5t-31.5 -112.5q0 -91 85 -91q47 0 67.5 13t25.5 39l171 -59q-42 -151 -273 -154l-39 -99h-157l49 126q-112 52 -112 201q0 158 84.5 245t225.5 89l40 103h157z" />
    <glyph glyph-name="sterling" unicode="&#xa3;" horiz-adv-x="784" 
d="M717 0h-716l20 164h108l17 143h-108l20 164h108l5 36q18 145 103 209t248 64q267 0 273 -184l-188 -64q3 41 -21.5 67t-82.5 25q-78 -1 -112 -29.5t-42 -93.5l-4 -30h238l-20 -164h-238l-17 -143h429z" />
    <glyph glyph-name="currency" unicode="&#xa4;" horiz-adv-x="800" 
d="M400 247q63 0 95 32t32 103t-32 103t-95 32t-95 -32t-32 -103t32 -103t95 -32zM19 125l104 104q-34 66 -34 153t34 153l-104 104l116 116l107 -107q69 32 158 32t158 -32l107 107l116 -116l-104 -104q34 -65 34 -153t-34 -153l104 -104l-116 -116l-107 107
q-69 -32 -158 -32t-158 32l-107 -107z" />
    <glyph glyph-name="yen" unicode="&#xa5;" horiz-adv-x="810" 
d="M671 143h-191l-17 -143h-186l17 143h-191l14 114h191l4 30h-191l14 114h135l-205 363h203l155 -291l223 291h215l-293 -363h135l-14 -114h-191l-4 -30h191z" />
    <glyph glyph-name="brokenbar" unicode="&#xa6;" horiz-adv-x="331" 
d="M259 295l-52 -425h-185l52 425h185zM324 830l-52 -425h-185l52 425h185z" />
    <glyph glyph-name="section" unicode="&#xa7;" horiz-adv-x="710" 
d="M298 -55q37 0 72.5 16.5t35.5 52.5q0 22 -23.5 34t-78.5 17q-53 5 -90 11t-75.5 18.5t-61.5 31.5t-38 49.5t-15 71.5q0 71 33 125.5t88 85.5q-30 32 -30 91q0 63 28 112t74.5 77.5t101 43t113.5 14.5q279 0 286 -188l-193 -66q7 50 -22 71.5t-91 21.5q-38 0 -72.5 -16
t-34.5 -52q0 -22 23.5 -34.5t77.5 -17.5q53 -5 90 -11t76 -18.5t62 -31t38 -49.5t15 -72q0 -71 -33.5 -125.5t-88.5 -85.5q31 -31 31 -90q0 -63 -28 -112t-74.5 -78t-101.5 -43.5t-114 -14.5q-278 0 -285 188l192 66q-7 -50 22 -71.5t91 -21.5zM356 208q58 0 104 24t46 72
q0 35 -35.5 51.5t-115.5 16.5q-58 0 -104 -24t-46 -72q0 -35 35.5 -51.5t115.5 -16.5z" />
    <glyph glyph-name="dieresis" unicode="&#xa8;" horiz-adv-x="600" 
d="M332 780l-22 -182h-184l22 182h184zM572 780l-22 -182h-184l22 182h184z" />
    <glyph glyph-name="copyright" unicode="&#xa9;" horiz-adv-x="900" 
d="M53 341q0 119 64.5 225t170.5 168t224 62q154 0 256.5 -102t102.5 -253q0 -121 -64 -227t-169.5 -168t-224.5 -62q-155 0 -257.5 103t-102.5 254zM547 458l184 63q-6 69 -62.5 109.5t-171.5 40.5q-130 0 -219 -88.5t-89 -239.5q0 -111 65 -172.5t174 -61.5q226 0 273 154
l-171 59q-5 -28 -20.5 -40t-61.5 -12q-39 0 -57.5 20t-18.5 65q0 155 105 155q46 0 58.5 -11.5t11.5 -40.5z" />
    <glyph glyph-name="ordfeminine" unicode="&#xaa;" horiz-adv-x="497" 
d="M531 780l-21 -116l-19 -158l-8 -116h-134l-4 36q-48 -52 -130 -52q-81 0 -122 55t-29 156t67 156t136 55q82 0 117 -52l13 36h134zM348 525l15 120q-25 30 -72 30q-30 0 -52.5 -22t-28.5 -68t11.5 -68t47.5 -22q47 0 79 30z" />
    <glyph glyph-name="guillemotleft" unicode="&#xab;" horiz-adv-x="520" 
d="M244 255l-15 -136l-190 143l13 106l225 143l-19 -147l-66 -53zM464 255l-15 -136l-190 143l13 106l225 143l-19 -147l-66 -53z" />
    <glyph glyph-name="logicalnot" unicode="&#xac;" 
d="M456 208v200h-376v164h540v-364h-164z" />
    <glyph glyph-name="uni00AD" unicode="&#xad;" horiz-adv-x="392" 
d="M339 253h-304l20 164h304z" />
    <glyph glyph-name="registered" unicode="&#xae;" horiz-adv-x="900" 
d="M53 341q0 119 64.5 225t170.5 168t224 62q154 0 256.5 -102t102.5 -253q0 -121 -64 -227t-169.5 -168t-224.5 -62q-155 0 -257.5 103t-102.5 254zM446 314l65 -189h164l-82 210q100 46 100 183t-165 137h-243l-65 -530h144l23 189h59zM505 456h-101l8 58h101q31 0 31 -24
q0 -34 -39 -34z" />
    <glyph glyph-name="macron" unicode="&#xaf;" horiz-adv-x="600" 
d="M506 616h-332l20 164h332z" />
    <glyph glyph-name="degree" unicode="&#xb0;" horiz-adv-x="472" 
d="M266 536q69 0 69 71q0 46 -54 46q-30 0 -49.5 -17t-19.5 -51q0 -49 54 -49zM251 408q-80 0 -128 40t-48 116q0 104 63.5 160t157.5 56q80 0 127.5 -39.5t47.5 -114.5q0 -106 -62.5 -162t-157.5 -56z" />
    <glyph glyph-name="plusminus" unicode="&#xb1;" 
d="M268 300v123h-188v164h188v123h164v-123h188v-164h-188v-123h-164zM620 70h-540v164h540v-164z" />
    <glyph glyph-name="twosuperior" unicode="&#xb2;" horiz-adv-x="460" 
d="M280 653q-23 0 -36.5 -6t-16.5 -26l-142 48q20 62 72 86.5t132 24.5q83 0 130.5 -31.5t47.5 -88.5q0 -71 -42.5 -98.5t-142.5 -42.5q-54 -8 -59 -30l65 2h167l-17 -137h-399q4 48 11 82.5t21 59.5t28.5 41t41 28t50 18.5t63.5 14.5q18 4 25.5 6t18 6t14 9t3.5 13
q0 20 -35 21z" />
    <glyph glyph-name="threesuperior" unicode="&#xb3;" horiz-adv-x="466" 
d="M256 479q54 2 58 26q0 12 -8.5 16.5t-31.5 4.5h-86l10 83h91q25 0 28 20q0 24 -33 24q-25 0 -38.5 -6t-16.5 -26l-142 49q19 61 69.5 85.5t138.5 24.5q176 0 176 -113q0 -69 -47 -100q37 -19 37 -68q0 -157 -227 -157q-173 0 -184 116l153 53q0 -32 53 -32z" />
    <glyph glyph-name="acute" unicode="&#xb4;" horiz-adv-x="600" 
d="M363 800h196l-137 -208h-179z" />
    <glyph glyph-name="mu" unicode="&#xb5;" horiz-adv-x="645" 
d="M405 0l-7 47q-29 -28 -77.5 -45.5t-97.5 -17.5q-21 0 -38 6l-23 -190h-180l90 730h180l-38 -302q-5 -44 12.5 -63t56.5 -18q75 1 121 50l41 333h180l-47 -376l-8 -154h-165z" />
    <glyph glyph-name="paragraph" unicode="&#xb6;" horiz-adv-x="681" 
d="M414 615l-75 -615h-70l30 249q-255 0 -255 214q0 75 20 132.5t51.5 91.5t75.5 55.5t86.5 29.5t90.5 8h321l-95 -780h-185l75 615h-70z" />
    <glyph glyph-name="periodcentered" unicode="&#xb7;" horiz-adv-x="300" 
d="M254 427l-22 -182h-184l22 182h184z" />
    <glyph glyph-name="cedilla" unicode="&#xb8;" horiz-adv-x="600" 
d="M404 -115q0 -51 -43 -76t-103 -25q-77 0 -126 23l34 76q0 -1 9.5 -5.5t25.5 -9t29 -4.5q35 0 35 22q0 31 -74 39l41 87h94l-18 -46q96 -22 96 -81z" />
    <glyph glyph-name="onesuperior" unicode="&#xb9;" horiz-adv-x="420" 
d="M354 780l-35 -289h96l-17 -137h-351l17 137h106l12 101q-52 -29 -119 -29l17 139q98 15 156 78h118z" />
    <glyph glyph-name="ordmasculine" unicode="&#xba;" horiz-adv-x="493" 
d="M275 506q86 0 86 97q0 61 -67 61q-86 0 -86 -97q0 -61 67 -61zM258 374q-93 0 -144.5 46t-51.5 130q0 115 68.5 180.5t179.5 65.5q93 0 144.5 -46t51.5 -130q0 -115 -68.5 -180.5t-179.5 -65.5z" />
    <glyph glyph-name="guillemotright" unicode="&#xbb;" horiz-adv-x="520" 
d="M283 375l15 136l190 -143l-13 -106l-225 -143l19 147l66 53zM63 375l15 136l190 -143l-13 -106l-225 -143l19 147l66 53z" />
    <glyph glyph-name="onequarter" unicode="&#xbc;" horiz-adv-x="1082" 
d="M155 0l644 764h196l-644 -764h-196zM1028 53h-70l-6 -53h-149l6 53h-207l16 126l235 247h151l-29 -235h70zM826 191l10 74l-68 -74h58zM354 780l-35 -289h96l-17 -137h-351l17 137h106l12 101q-52 -29 -119 -29l17 139q98 15 156 78h118z" />
    <glyph glyph-name="onehalf" unicode="&#xbd;" horiz-adv-x="1152" 
d="M929 299q-23 0 -36.5 -6t-16.5 -26l-142 48q20 62 72 86.5t132 24.5q83 0 130.5 -31.5t47.5 -88.5q0 -71 -42.5 -98.5t-142.5 -42.5q-54 -8 -59 -30l65 2h167l-17 -137h-399q4 48 11 82.5t21 59.5t28.5 41t41 28t50 18.5t63.5 14.5q18 4 25.5 6t18 6t14 9t3.5 13
q0 20 -35 21zM155 0l644 764h196l-644 -764h-196zM354 780l-35 -289h96l-17 -137h-351l17 137h106l12 101q-52 -29 -119 -29l17 139q98 15 156 78h118z" />
    <glyph glyph-name="threequarters" unicode="&#xbe;" horiz-adv-x="1096" 
d="M169 0l644 764h196l-644 -764h-196zM256 479q54 2 58 26q0 12 -8.5 16.5t-31.5 4.5h-86l10 83h91q25 0 28 20q0 24 -33 24q-25 0 -38.5 -6t-16.5 -26l-142 49q19 61 69.5 85.5t138.5 24.5q176 0 176 -113q0 -69 -47 -100q37 -19 37 -68q0 -157 -227 -157q-173 0 -184 116
l153 53q0 -32 53 -32zM1042 53h-70l-6 -53h-149l6 53h-207l16 126l235 247h151l-29 -235h70zM840 191l10 74l-68 -74h58z" />
    <glyph glyph-name="questiondown" unicode="&#xbf;" horiz-adv-x="623" 
d="M265 -52q54 0 86 22t41 80l172 -59q-52 -207 -319 -207q-121 0 -187.5 47t-66.5 140q0 141 111 199q27 14 97 37q59 19 68 30q4 5 4 11q0 7 -6 33h147q21 -28 21 -73q0 -29 -10.5 -51.5t-22.5 -35t-39.5 -24.5t-41.5 -16t-49 -13q-89 -23 -89 -70q0 -50 84 -50zM248 348
l23 182h184l-23 -182h-184z" />
    <glyph glyph-name="Agrave" unicode="&#xc0;" horiz-adv-x="754" 
d="M264 1030h196l68 -208h-179zM525 0l-25 133h-286l-57 -133h-198l369 790h218l177 -790h-198zM381 520l-103 -237h193l-44 237l-13 79z" />
    <glyph glyph-name="Aacute" unicode="&#xc1;" horiz-adv-x="754" 
d="M474 1030h196l-137 -208h-179zM525 0l-25 133h-286l-57 -133h-198l369 790h218l177 -790h-198zM381 520l-103 -237h193l-44 237l-13 79z" />
    <glyph glyph-name="Acircumflex" unicode="&#xc2;" horiz-adv-x="754" 
d="M388 822h-183l184 208h156l132 -208h-183l-45 59zM525 0l-25 133h-286l-57 -133h-198l369 790h218l177 -790h-198zM381 520l-103 -237h193l-44 237l-13 79z" />
    <glyph glyph-name="Atilde" unicode="&#xc3;" horiz-adv-x="754" 
d="M525 0l-25 133h-286l-57 -133h-198l369 790h218l177 -790h-198zM381 520l-103 -237h193l-44 237l-13 79zM530 806q-36 0 -66 12t-45.5 26t-32.5 26t-32 12q-16 0 -26.5 -12t-13.5 -24l-3 -11l-122 15q17 94 61 145t128 51q36 0 66 -12t45.5 -26t32.5 -26t32 -12
q16 0 26.5 12t13.5 24l3 11l122 -15q-17 -94 -61 -145t-128 -51z" />
    <glyph glyph-name="Adieresis" unicode="&#xc4;" horiz-adv-x="754" 
d="M437 1010l-23 -182h-184l23 182h184zM677 1010l-23 -182h-184l23 182h184zM525 0l-25 133h-286l-57 -133h-198l369 790h218l177 -790h-198zM381 520l-103 -237h193l-44 237l-13 79z" />
    <glyph glyph-name="Aring" unicode="&#xc5;" horiz-adv-x="754" 
d="M334 926q7 54 43 87t92 33t84 -33t21 -87q-6 -53 -42.5 -86.5t-92.5 -33.5t-83.5 33t-21.5 87zM525 0l-25 133h-286l-57 -133h-198l369 790h218l177 -790h-198zM381 520l-103 -237h193l-44 237l-13 79zM482 926q4 28 -24 28t-32 -28q-3 -28 25 -28t31 28z" />
    <glyph glyph-name="AE" unicode="&#xc6;" horiz-adv-x="1060" 
d="M501 0l-4 166h-253l-101 -166h-204l513 780h613l-20 -165h-381l6 -134h305l-21 -165h-278l7 -151h327l-20 -165h-489zM490 570l-155 -254h159l-3 210z" />
    <glyph glyph-name="Ccedilla" unicode="&#xc7;" horiz-adv-x="743" 
d="M46 298q0 105 23.5 193.5t71.5 157.5t128 108t186 39q143 0 218.5 -57t77.5 -161l-193 -66q5 66 -25 92.5t-91 26.5q-208 0 -208 -319q0 -77 31.5 -120t110.5 -43q71 0 106.5 27t45.5 92l179 -62q-24 -97 -101 -153.5t-201 -66.5l-7 -19q112 -24 93 -99
q-10 -42 -49.5 -63t-93.5 -21q-77 0 -126 23l34 76q23 -13 48 -17q47 -7 51 21q2 14 -18 24t-56 14l28 61q-263 22 -263 312z" />
    <glyph glyph-name="Egrave" unicode="&#xc8;" horiz-adv-x="668" 
d="M112 780h566l-20 -165h-381l-16 -134h327l-21 -165h-327l-18 -151h401l-20 -165h-586zM235 1030h196l68 -208h-179z" />
    <glyph glyph-name="Eacute" unicode="&#xc9;" horiz-adv-x="668" 
d="M112 780h566l-20 -165h-381l-16 -134h327l-21 -165h-327l-18 -151h401l-20 -165h-586zM431 1030h196l-137 -208h-179z" />
    <glyph glyph-name="Ecircumflex" unicode="&#xca;" horiz-adv-x="668" 
d="M112 780h566l-20 -165h-381l-16 -134h327l-21 -165h-327l-18 -151h401l-20 -165h-586zM631 822h-180l-43 59l-62 -59h-187l184 208h156z" />
    <glyph glyph-name="Edieresis" unicode="&#xcb;" horiz-adv-x="668" 
d="M112 780h566l-20 -165h-381l-16 -134h327l-21 -165h-327l-18 -151h401l-20 -165h-586zM391 1010l-23 -182h-184l23 182h184zM631 1010l-23 -182h-184l23 182h184z" />
    <glyph glyph-name="Igrave" unicode="&#xcc;" horiz-adv-x="311" 
d="M308 780l-95 -780h-185l95 780h185zM47 1030h196l68 -208h-179z" />
    <glyph glyph-name="Iacute" unicode="&#xcd;" horiz-adv-x="311" 
d="M308 780l-95 -780h-185l95 780h185zM254 1030h196l-137 -208h-179z" />
    <glyph glyph-name="Icircumflex" unicode="&#xce;" horiz-adv-x="311" 
d="M308 780l-95 -780h-185l95 780h185zM456 822h-180l-43 59l-62 -59h-187l184 208h156z" />
    <glyph glyph-name="Idieresis" unicode="&#xcf;" horiz-adv-x="311" 
d="M308 780l-95 -780h-185l95 780h185zM215 1010l-22 -182h-184l22 182h184zM455 1010l-22 -182h-184l22 182h184z" />
    <glyph glyph-name="Eth" unicode="&#xd0;" horiz-adv-x="833" 
d="M380 0h-293l41 338h-100l15 124h100l39 318h293q169 0 252.5 -74t83.5 -229q0 -229 -109.5 -353t-321.5 -124zM292 165h108q118 0 170 78t52 207q0 81 -39 123t-128 42h-108l-19 -153h158l-15 -124h-158z" />
    <glyph glyph-name="Ntilde" unicode="&#xd1;" horiz-adv-x="768" 
d="M290 780l247 -453l16 145l38 308h185l-95 -780h-178l-247 453l-17 -145l-37 -308h-185l95 780h178zM524 806q-36 0 -66 12t-45.5 26t-32.5 26t-32 12q-16 0 -26.5 -12t-13.5 -24l-3 -11l-122 15q17 94 61 145t128 51q36 0 66 -12t45.5 -26t32.5 -26t32 -12q16 0 26.5 12
t13.5 24l3 11l122 -15q-17 -94 -61 -145t-128 -51z" />
    <glyph glyph-name="Ograve" unicode="&#xd2;" horiz-adv-x="820" 
d="M305 1030h196l68 -208h-179zM452 631q-60 0 -104 -26.5t-67 -72t-33.5 -96.5t-10.5 -111q0 -176 156 -176q61 0 105 26.5t67 73t33 98t10 111.5q0 173 -156 173zM373 -16q-167 0 -245.5 84t-78.5 237q0 105 25.5 192.5t75.5 155t132.5 105.5t189.5 38q166 0 245 -83.5
t79 -234.5q0 -105 -25 -193t-75 -156.5t-132.5 -106.5t-190.5 -38z" />
    <glyph glyph-name="Oacute" unicode="&#xd3;" horiz-adv-x="820" 
d="M501 1030h196l-137 -208h-179zM452 631q-60 0 -104 -26.5t-67 -72t-33.5 -96.5t-10.5 -111q0 -176 156 -176q61 0 105 26.5t67 73t33 98t10 111.5q0 173 -156 173zM373 -16q-167 0 -245.5 84t-78.5 237q0 105 25.5 192.5t75.5 155t132.5 105.5t189.5 38q166 0 245 -83.5
t79 -234.5q0 -105 -25 -193t-75 -156.5t-132.5 -106.5t-190.5 -38z" />
    <glyph glyph-name="Ocircumflex" unicode="&#xd4;" horiz-adv-x="820" 
d="M452 631q-60 0 -104 -26.5t-67 -72t-33.5 -96.5t-10.5 -111q0 -176 156 -176q61 0 105 26.5t67 73t33 98t10 111.5q0 173 -156 173zM373 -16q-167 0 -245.5 84t-78.5 237q0 105 25.5 192.5t75.5 155t132.5 105.5t189.5 38q166 0 245 -83.5t79 -234.5q0 -105 -25 -193
t-75 -156.5t-132.5 -106.5t-190.5 -38zM711 822h-180l-43 59l-62 -59h-187l184 208h156z" />
    <glyph glyph-name="Otilde" unicode="&#xd5;" horiz-adv-x="820" 
d="M452 631q-60 0 -104 -26.5t-67 -72t-33.5 -96.5t-10.5 -111q0 -176 156 -176q61 0 105 26.5t67 73t33 98t10 111.5q0 173 -156 173zM373 -16q-167 0 -245.5 84t-78.5 237q0 105 25.5 192.5t75.5 155t132.5 105.5t189.5 38q166 0 245 -83.5t79 -234.5q0 -105 -25 -193
t-75 -156.5t-132.5 -106.5t-190.5 -38zM559 806q-36 0 -66 12t-45.5 26t-32.5 26t-32 12q-16 0 -26.5 -12t-13.5 -24l-3 -11l-122 15q17 94 61 145t128 51q36 0 66 -12t45.5 -26t32.5 -26t32 -12q16 0 26.5 12t13.5 24l3 11l122 -15q-17 -94 -61 -145t-128 -51z" />
    <glyph glyph-name="Odieresis" unicode="&#xd6;" horiz-adv-x="820" 
d="M471 1010l-23 -182h-184l23 182h184zM711 1010l-23 -182h-184l23 182h184zM452 631q-60 0 -104 -26.5t-67 -72t-33.5 -96.5t-10.5 -111q0 -176 156 -176q61 0 105 26.5t67 73t33 98t10 111.5q0 173 -156 173zM373 -16q-167 0 -245.5 84t-78.5 237q0 105 25.5 192.5
t75.5 155t132.5 105.5t189.5 38q166 0 245 -83.5t79 -234.5q0 -105 -25 -193t-75 -156.5t-132.5 -106.5t-190.5 -38z" />
    <glyph glyph-name="multiply" unicode="&#xd7;" 
d="M85 241l149 149l-149 149l116 116l149 -149l149 149l116 -116l-149 -149l149 -149l-116 -116l-149 149l-149 -149z" />
    <glyph glyph-name="Oslash" unicode="&#xd8;" horiz-adv-x="820" 
d="M789 780l-63 -78q70 -80 70 -224q0 -105 -25 -193t-75 -156.5t-132.5 -106.5t-190.5 -38q-115 0 -190 42l-21 -26h-106l63 78q-70 80 -70 227q0 105 25.5 192.5t75.5 155t132.5 105.5t189.5 38q114 0 190 -42l21 26h106zM452 631q-60 0 -104 -26.5t-67 -72t-33.5 -96.5
t-10.5 -111q0 -51 12 -86l296 369q-38 23 -93 23zM393 149q60 0 104 26.5t67 72t33.5 96.5t10.5 111q0 51 -12 86l-296 -369q38 -23 93 -23z" />
    <glyph glyph-name="Ugrave" unicode="&#xd9;" horiz-adv-x="746" 
d="M356 148q89 0 122 36.5t41 106.5l60 489h185l-60 -493q-9 -69 -31 -121t-63.5 -94.5t-110 -65t-163.5 -22.5t-158.5 22.5t-94.5 65t-40.5 94.5t-0.5 121l60 493h185l-60 -489q-5 -29 -2 -55t14 -45.5t40.5 -31t76.5 -11.5zM268 1030h196l68 -208h-179z" />
    <glyph glyph-name="Uacute" unicode="&#xda;" horiz-adv-x="746" 
d="M356 148q89 0 122 36.5t41 106.5l60 489h185l-60 -493q-9 -69 -31 -121t-63.5 -94.5t-110 -65t-163.5 -22.5t-158.5 22.5t-94.5 65t-40.5 94.5t-0.5 121l60 493h185l-60 -489q-5 -29 -2 -55t14 -45.5t40.5 -31t76.5 -11.5zM464 1030h196l-137 -208h-179z" />
    <glyph glyph-name="Ucircumflex" unicode="&#xdb;" horiz-adv-x="746" 
d="M356 148q89 0 122 36.5t41 106.5l60 489h185l-60 -493q-9 -69 -31 -121t-63.5 -94.5t-110 -65t-163.5 -22.5t-158.5 22.5t-94.5 65t-40.5 94.5t-0.5 121l60 493h185l-60 -489q-5 -29 -2 -55t14 -45.5t40.5 -31t76.5 -11.5zM674 822h-180l-43 59l-62 -59h-187l184 208h156
z" />
    <glyph glyph-name="Udieresis" unicode="&#xdc;" horiz-adv-x="746" 
d="M356 148q89 0 122 36.5t41 106.5l60 489h185l-60 -493q-9 -69 -31 -121t-63.5 -94.5t-110 -65t-163.5 -22.5t-158.5 22.5t-94.5 65t-40.5 94.5t-0.5 121l60 493h185l-60 -489q-5 -29 -2 -55t14 -45.5t40.5 -31t76.5 -11.5zM433 1010l-22 -182h-184l22 182h184zM673 1010
l-22 -182h-184l22 182h184z" />
    <glyph glyph-name="Yacute" unicode="&#xdd;" horiz-adv-x="730" 
d="M380 477l217 303h223l-361 -485l-36 -295h-186l36 295l-243 485h213zM456 1030h196l-137 -208h-179z" />
    <glyph glyph-name="Thorn" unicode="&#xde;" horiz-adv-x="690" 
d="M297 780l-14 -115h135q260 0 260 -216q0 -88 -27 -151.5t-74.5 -98t-101.5 -50t-118 -15.5h-139l-16 -134h-185l95 780h185zM238 300h149q39 0 70.5 27t31.5 95q0 43 -22.5 60.5t-54.5 17.5h-149z" />
    <glyph glyph-name="germandbls" unicode="&#xdf;" horiz-adv-x="732" 
d="M431 796q116 0 192.5 -51t76.5 -138q0 -27 -5 -49.5t-12 -38.5t-19.5 -29.5t-22 -21.5t-25.5 -16t-24 -11t-23.5 -7.5t-17.5 -5.5q-8 -3 -26.5 -7.5t-28.5 -8t-18.5 -11.5t-8.5 -19q0 -9 6.5 -15.5t20 -10t25.5 -6t31 -5.5t29 -5q25 -5 41.5 -11t38 -21t32.5 -44.5
t11 -72.5q0 -101 -70.5 -154t-178.5 -53q-115 0 -166.5 36.5t-54.5 108.5l187 64q-3 -53 51 -53q50 0 50 38q0 15 -17.5 24t-43 12.5t-56 12t-56 21t-43 41t-17.5 69.5q0 29 6 53.5t18.5 42t24 30t30 22t30 14.5t29.5 11t23 8q7 3 18 7t15.5 5.5t11.5 5t9.5 6t6 6.5t4.5 9
t1 11q0 51 -104 51q-83 0 -118.5 -37.5t-44.5 -105.5l-85 -697h-179l85 703q18 151 104 222t257 71z" />
    <glyph glyph-name="agrave" unicode="&#xe0;" horiz-adv-x="655" 
d="M180 800h196l68 -208h-179zM606 376l-28 -222l-8 -154h-165l-6 57q-67 -73 -167 -73q-211 0 -211 217q0 158 72 251.5t208 93.5q106 0 150 -73l19 57h165zM404 197l16 136q-32 50 -99 50q-47 0 -80 -36t-33 -107q0 -47 23 -70t61 -23q67 0 112 50z" />
    <glyph glyph-name="aacute" unicode="&#xe1;" horiz-adv-x="655" 
d="M376 800h196l-137 -208h-179zM606 376l-28 -222l-8 -154h-165l-6 57q-67 -73 -167 -73q-211 0 -211 217q0 158 72 251.5t208 93.5q106 0 150 -73l19 57h165zM404 197l16 136q-32 50 -99 50q-47 0 -80 -36t-33 -107q0 -47 23 -70t61 -23q67 0 112 50z" />
    <glyph glyph-name="acircumflex" unicode="&#xe2;" horiz-adv-x="655" 
d="M586 592h-180l-43 59l-62 -59h-187l184 208h156zM606 376l-28 -222l-8 -154h-165l-6 57q-67 -73 -167 -73q-211 0 -211 217q0 158 72 251.5t208 93.5q106 0 150 -73l19 57h165zM404 197l16 136q-32 50 -99 50q-47 0 -80 -36t-33 -107q0 -47 23 -70t61 -23q67 0 112 50z
" />
    <glyph glyph-name="atilde" unicode="&#xe3;" horiz-adv-x="655" 
d="M434 576q-36 0 -66 12t-45.5 26t-32.5 26t-32 12q-16 0 -26.5 -12t-13.5 -24l-3 -11l-122 15q17 94 61 145t128 51q36 0 66 -12t45.5 -26t32.5 -26t32 -12q16 0 26.5 12t13.5 24l3 11l122 -15q-17 -94 -61 -145t-128 -51zM606 376l-28 -222l-8 -154h-165l-6 57
q-67 -73 -167 -73q-211 0 -211 217q0 158 72 251.5t208 93.5q106 0 150 -73l19 57h165zM404 197l16 136q-32 50 -99 50q-47 0 -80 -36t-33 -107q0 -47 23 -70t61 -23q67 0 112 50z" />
    <glyph glyph-name="adieresis" unicode="&#xe4;" horiz-adv-x="655" 
d="M345 780l-22 -182h-184l22 182h184zM585 780l-22 -182h-184l22 182h184zM606 376l-28 -222l-8 -154h-165l-6 57q-67 -73 -167 -73q-211 0 -211 217q0 158 72 251.5t208 93.5q106 0 150 -73l19 57h165zM404 197l16 136q-32 50 -99 50q-47 0 -80 -36t-33 -107q0 -47 23 -70
t61 -23q67 0 112 50z" />
    <glyph glyph-name="aring" unicode="&#xe5;" horiz-adv-x="655" 
d="M360 675q24 0 24 25q0 17 -18 17q-24 0 -24 -25q0 -17 18 -17zM348 576q-51 0 -78.5 27.5t-27.5 72.5q0 60 37 100t99 40q51 0 78.5 -27.5t27.5 -72.5q0 -60 -37 -100t-99 -40zM606 376l-28 -222l-8 -154h-165l-6 57q-67 -73 -167 -73q-211 0 -211 217q0 158 72 251.5
t208 93.5q106 0 150 -73l19 57h165zM404 197l16 136q-32 50 -99 50q-47 0 -80 -36t-33 -107q0 -47 23 -70t61 -23q67 0 112 50z" />
    <glyph glyph-name="ae" unicode="&#xe6;" horiz-adv-x="966" 
d="M637 -16q-135 0 -193 70q-96 -70 -235 -70q-113 0 -164 47t-42 122q21 167 232 167h155l4 33q3 21 -12 34.5t-60 13.5t-64 -12.5t-23 -37.5l-172 59q45 136 270 136q131 0 183 -58q71 58 179 58q134 0 196.5 -72t45.5 -209l-6 -51h-376q-5 -39 19.5 -61t73.5 -22
q80 0 90 40l169 -58q-23 -57 -90.5 -93t-179.5 -36zM190 167q-2 -19 11 -31t39 -12q84 0 130 37l7 53h-118q-63 0 -69 -47zM677 399q-42 0 -71 -21.5t-35 -57.5h181q7 38 -14 58.5t-61 20.5z" />
    <glyph glyph-name="ccedilla" unicode="&#xe7;" horiz-adv-x="576" 
d="M391 -115q0 -51 -43 -76t-103 -25q-77 0 -126 23l34 76q0 -1 9.5 -5.5t25.5 -9t29 -4.5q35 0 35 22q0 31 -74 39l29 63q-186 23 -186 220q0 163 82.5 250.5t226.5 87.5q127 0 179.5 -43.5t54.5 -119.5l-186 -64q1 32 -13 49t-55 17q-52 0 -79 -42.5t-27 -114.5
q0 -44 18.5 -63.5t57.5 -19.5q73 0 84 66l173 -60q-39 -152 -235 -166l-7 -19q96 -22 96 -81z" />
    <glyph glyph-name="egrave" unicode="&#xe8;" horiz-adv-x="615" 
d="M180 800h196l68 -208h-179zM580 214h-376q-1 -43 23 -63t70 -20q80 0 90 40l169 -58q-23 -57 -90.5 -93t-179.5 -36q-127 0 -195.5 59.5t-68.5 172.5q0 157 89 243.5t233 86.5q120 0 183 -57.5t63 -168.5q0 -44 -10 -106zM326 399q-42 0 -71 -21.5t-35 -57.5h181
q8 36 -13.5 57.5t-61.5 21.5z" />
    <glyph glyph-name="eacute" unicode="&#xe9;" horiz-adv-x="615" 
d="M376 800h196l-137 -208h-179zM580 214h-376q-1 -43 23 -63t70 -20q80 0 90 40l169 -58q-23 -57 -90.5 -93t-179.5 -36q-127 0 -195.5 59.5t-68.5 172.5q0 157 89 243.5t233 86.5q120 0 183 -57.5t63 -168.5q0 -44 -10 -106zM326 399q-42 0 -71 -21.5t-35 -57.5h181
q8 36 -13.5 57.5t-61.5 21.5z" />
    <glyph glyph-name="ecircumflex" unicode="&#xea;" horiz-adv-x="615" 
d="M580 214h-376q-1 -43 23 -63t70 -20q80 0 90 40l169 -58q-23 -57 -90.5 -93t-179.5 -36q-127 0 -195.5 59.5t-68.5 172.5q0 157 89 243.5t233 86.5q120 0 183 -57.5t63 -168.5q0 -44 -10 -106zM326 399q-42 0 -71 -21.5t-35 -57.5h181q8 36 -13.5 57.5t-61.5 21.5z
M586 592h-180l-43 59l-62 -59h-187l184 208h156z" />
    <glyph glyph-name="edieresis" unicode="&#xeb;" horiz-adv-x="615" 
d="M345 780l-22 -182h-184l22 182h184zM585 780l-22 -182h-184l22 182h184zM580 214h-376q-1 -43 23 -63t70 -20q80 0 90 40l169 -58q-23 -57 -90.5 -93t-179.5 -36q-127 0 -195.5 59.5t-68.5 172.5q0 157 89 243.5t233 86.5q120 0 183 -57.5t63 -168.5q0 -44 -10 -106z
M326 399q-42 0 -71 -21.5t-35 -57.5h181q8 36 -13.5 57.5t-61.5 21.5z" />
    <glyph glyph-name="igrave" unicode="&#xec;" horiz-adv-x="290" 
d="M15 0l65 530h180l-65 -530h-180zM2 800h196l68 -208h-179z" />
    <glyph glyph-name="iacute" unicode="&#xed;" horiz-adv-x="290" 
d="M15 0l65 530h180l-65 -530h-180zM208 800h196l-137 -208h-179z" />
    <glyph glyph-name="icircumflex" unicode="&#xee;" horiz-adv-x="290" 
d="M15 0l65 530h180l-65 -530h-180zM413 592h-180l-43 59l-62 -59h-187l184 208h156z" />
    <glyph glyph-name="idieresis" unicode="&#xef;" horiz-adv-x="290" 
d="M15 0l65 530h180l-65 -530h-180zM172 780l-22 -182h-184l22 182h184zM412 780l-22 -182h-184l22 182h184z" />
    <glyph glyph-name="eth" unicode="&#xf0;" horiz-adv-x="620" 
d="M273 -16q-120 0 -185.5 58.5t-65.5 170.5q0 162 86 247.5t229 85.5q37 0 53 -7q-12 35 -38 71l-217 -73l14 112l129 43q-13 11 -26.5 21t-30 20t-26.5 16t-29.5 15.5t-24.5 12.5t-26.5 13t-22.5 10h278q36 -20 76 -51l145 49l-13 -112l-58 -19q77 -115 77 -286
q0 -397 -324 -397zM292 146q117 0 117 152q0 48 -22 67t-65 19q-117 0 -117 -151q0 -48 22.5 -67.5t64.5 -19.5z" />
    <glyph glyph-name="ntilde" unicode="&#xf1;" horiz-adv-x="645" 
d="M440 576q-36 0 -66 12t-45.5 26t-32.5 26t-32 12q-16 0 -26.5 -12t-13.5 -24l-3 -11l-122 15q17 94 61 145t128 51q36 0 66 -12t45.5 -26t32.5 -26t32 -12q16 0 26.5 12t13.5 24l3 11l122 -15q-17 -94 -61 -145t-128 -51zM235 530l5 -57q73 73 177 73q108 0 156.5 -52.5
t33.5 -168.5l-39 -325h-180l37 302q5 44 -12.5 63t-55.5 18q-76 -1 -122 -50l-40 -333h-180l46 376l9 154h165z" />
    <glyph glyph-name="ograve" unicode="&#xf2;" horiz-adv-x="620" 
d="M177 800h196l68 -208h-179zM292 146q117 0 117 152q0 48 -22 67t-65 19q-117 0 -117 -151q0 -48 22.5 -67.5t64.5 -19.5zM273 -16q-120 0 -185.5 58.5t-65.5 170.5q0 161 88 247t232 86q120 0 185 -58t65 -170q0 -162 -87.5 -248t-231.5 -86z" />
    <glyph glyph-name="oacute" unicode="&#xf3;" horiz-adv-x="620" 
d="M292 146q117 0 117 152q0 48 -22 67t-65 19q-117 0 -117 -151q0 -48 22.5 -67.5t64.5 -19.5zM273 -16q-120 0 -185.5 58.5t-65.5 170.5q0 161 88 247t232 86q120 0 185 -58t65 -170q0 -162 -87.5 -248t-231.5 -86zM373 800h196l-137 -208h-179z" />
    <glyph glyph-name="ocircumflex" unicode="&#xf4;" horiz-adv-x="620" 
d="M292 146q117 0 117 152q0 48 -22 67t-65 19q-117 0 -117 -151q0 -48 22.5 -67.5t64.5 -19.5zM273 -16q-120 0 -185.5 58.5t-65.5 170.5q0 161 88 247t232 86q120 0 185 -58t65 -170q0 -162 -87.5 -248t-231.5 -86zM583 592h-180l-43 59l-62 -59h-187l184 208h156z" />
    <glyph glyph-name="otilde" unicode="&#xf5;" horiz-adv-x="620" 
d="M292 146q117 0 117 152q0 48 -22 67t-65 19q-117 0 -117 -151q0 -48 22.5 -67.5t64.5 -19.5zM273 -16q-120 0 -185.5 58.5t-65.5 170.5q0 161 88 247t232 86q120 0 185 -58t65 -170q0 -162 -87.5 -248t-231.5 -86zM431 576q-36 0 -66 12t-45.5 26t-32.5 26t-32 12
q-16 0 -26.5 -12t-13.5 -24l-3 -11l-122 15q17 94 61 145t128 51q36 0 66 -12t45.5 -26t32.5 -26t32 -12q16 0 26.5 12t13.5 24l3 11l122 -15q-17 -94 -61 -145t-128 -51z" />
    <glyph glyph-name="odieresis" unicode="&#xf6;" horiz-adv-x="620" 
d="M342 780l-22 -182h-184l22 182h184zM582 780l-22 -182h-184l22 182h184zM292 146q117 0 117 152q0 48 -22 67t-65 19q-117 0 -117 -151q0 -48 22.5 -67.5t64.5 -19.5zM273 -16q-120 0 -185.5 58.5t-65.5 170.5q0 161 88 247t232 86q120 0 185 -58t65 -170
q0 -162 -87.5 -248t-231.5 -86z" />
    <glyph glyph-name="divide" unicode="&#xf7;" 
d="M620 308h-540v164h540v-164zM441 273v-183h-182v183h182zM441 690v-183h-182v183h182z" />
    <glyph glyph-name="oslash" unicode="&#xf8;" horiz-adv-x="620" 
d="M209 200l150 180q-16 4 -37 4q-117 0 -117 -148q0 -16 4 -36zM41 0l40 48q-59 59 -59 165q0 155 86.5 244t233.5 89q77 0 135 -26l9 10h88l-40 -48q59 -59 59 -165q0 -155 -86.5 -244t-233.5 -89q-77 0 -135 26l-9 -10h-88zM406 330l-150 -180q16 -4 37 -4q117 0 117 148
q0 16 -4 36z" />
    <glyph glyph-name="ugrave" unicode="&#xf9;" horiz-adv-x="645" 
d="M184 800h196l68 -208h-179zM400 0l-6 57q-73 -73 -176 -73q-108 0 -157 53t-34 168l40 325h180l-38 -302q-5 -44 12.5 -63t56.5 -18q75 1 121 50l41 333h180l-47 -376l-8 -154h-165z" />
    <glyph glyph-name="uacute" unicode="&#xfa;" horiz-adv-x="645" 
d="M380 800h196l-137 -208h-179zM400 0l-6 57q-73 -73 -176 -73q-108 0 -157 53t-34 168l40 325h180l-38 -302q-5 -44 12.5 -63t56.5 -18q75 1 121 50l41 333h180l-47 -376l-8 -154h-165z" />
    <glyph glyph-name="ucircumflex" unicode="&#xfb;" horiz-adv-x="645" 
d="M590 592h-180l-43 59l-62 -59h-187l184 208h156zM400 0l-6 57q-73 -73 -176 -73q-108 0 -157 53t-34 168l40 325h180l-38 -302q-5 -44 12.5 -63t56.5 -18q75 1 121 50l41 333h180l-47 -376l-8 -154h-165z" />
    <glyph glyph-name="udieresis" unicode="&#xfc;" horiz-adv-x="645" 
d="M349 780l-22 -182h-184l22 182h184zM589 780l-22 -182h-184l22 182h184zM400 0l-6 57q-73 -73 -176 -73q-108 0 -157 53t-34 168l40 325h180l-38 -302q-5 -44 12.5 -63t56.5 -18q75 1 121 50l41 333h180l-47 -376l-8 -154h-165z" />
    <glyph glyph-name="yacute" unicode="&#xfd;" horiz-adv-x="626" 
d="M376 800h196l-137 -208h-179zM665 530l-289 -497l-127 -233h-208l143 242l-163 488h198l39 -163l39 -171l83 171l81 163h204z" />
    <glyph glyph-name="thorn" unicode="&#xfe;" horiz-adv-x="647" 
d="M237 333l-16 -136q32 -50 100 -50q47 0 80 36t33 107q0 47 -23 70t-61 23q-68 0 -113 -50zM201 40l-29 -240h-180l123 1000h180l-37 -311q63 57 152 57q104 0 157 -55t53 -161q0 -158 -72 -252t-208 -94q-89 0 -139 56z" />
    <glyph glyph-name="ydieresis" unicode="&#xff;" horiz-adv-x="626" 
d="M345 780l-22 -182h-184l22 182h184zM585 780l-22 -182h-184l22 182h184zM665 530l-289 -497l-127 -233h-208l143 242l-163 488h198l39 -163l39 -171l83 171l81 163h204z" />
    <glyph glyph-name="Amacron" unicode="&#x100;" horiz-adv-x="754" 
d="M610 846h-332l21 164h332zM525 0l-25 133h-286l-57 -133h-198l369 790h218l177 -790h-198zM381 520l-103 -237h193l-44 237l-13 79z" />
    <glyph glyph-name="amacron" unicode="&#x101;" horiz-adv-x="655" 
d="M519 616h-332l20 164h332zM606 376l-28 -222l-8 -154h-165l-6 57q-67 -73 -167 -73q-211 0 -211 217q0 158 72 251.5t208 93.5q106 0 150 -73l19 57h165zM404 197l16 136q-32 50 -99 50q-47 0 -80 -36t-33 -107q0 -47 23 -70t61 -23q67 0 112 50z" />
    <glyph glyph-name="Abreve" unicode="&#x102;" horiz-adv-x="754" 
d="M439 806q-115 0 -158 56.5t-27 167.5h140q-5 -33 10.5 -47.5t54.5 -14.5t58 14.5t23 47.5h140q-12 -111 -69 -167.5t-172 -56.5zM525 0l-25 133h-286l-57 -133h-198l369 790h218l177 -790h-198zM381 520l-103 -237h193l-44 237l-13 79z" />
    <glyph glyph-name="abreve" unicode="&#x103;" horiz-adv-x="655" 
d="M350 576q-113 0 -156.5 56.5t-30.5 167.5h137q-6 -62 68 -62t78 62h143q-9 -112 -65 -168t-174 -56zM606 376l-28 -222l-8 -154h-165l-6 57q-67 -73 -167 -73q-211 0 -211 217q0 158 72 251.5t208 93.5q106 0 150 -73l19 57h165zM404 197l16 136q-32 50 -99 50
q-47 0 -80 -36t-33 -107q0 -47 23 -70t61 -23q67 0 112 50z" />
    <glyph glyph-name="Aogonek" unicode="&#x104;" horiz-adv-x="754" 
d="M546 790l177 -790q-47 -4 -80 -27t-31 -46q0 -28 40 -20q9 2 18.5 6t14.5 7l5 3l20 -114q-44 -25 -108 -25q-111 0 -122 91q-8 64 46 118l-26 140h-286l-57 -133h-198l369 790h218zM381 520l-103 -237h193l-44 237l-13 79z" />
    <glyph glyph-name="aogonek" unicode="&#x105;" horiz-adv-x="655" 
d="M606 376l-28 -222l-8 -154q-47 -4 -79 -27t-32 -47q0 -21 25 -21q12 0 25 4.5t20.5 8.5t7.5 5l20 -114q-44 -25 -108 -25q-123 0 -123 107q0 71 77 127l-4 39q-67 -73 -167 -73q-211 0 -211 217q0 158 72 251.5t208 93.5q106 0 150 -73l19 57h165zM404 197l16 136
q-32 50 -99 50q-47 0 -80 -36t-33 -107q0 -47 23 -70t61 -23q67 0 112 50z" />
    <glyph glyph-name="Cacute" unicode="&#x106;" horiz-adv-x="743" 
d="M481 1030h196l-137 -208h-179zM46 298q0 105 23.5 193.5t71.5 157.5t128 108t186 39q143 0 218.5 -57t77.5 -161l-193 -66q5 66 -25 92.5t-91 26.5q-208 0 -208 -319q0 -77 31.5 -120t110.5 -43q71 0 106.5 27t45.5 92l179 -62q-27 -106 -116.5 -164t-234.5 -58
q-310 0 -310 314z" />
    <glyph glyph-name="cacute" unicode="&#x107;" horiz-adv-x="576" 
d="M357 800h196l-137 -208h-179zM310 385q-52 0 -79 -42.5t-27 -114.5q0 -44 18.5 -63.5t57.5 -19.5q73 0 84 66l173 -60q-20 -78 -83.5 -122.5t-192.5 -44.5q-118 0 -179 57t-61 167q0 163 82.5 250.5t226.5 87.5q127 0 179.5 -43.5t54.5 -119.5l-186 -64q1 32 -13 49
t-55 17z" />
    <glyph glyph-name="Ccircumflex" unicode="&#x108;" horiz-adv-x="743" 
d="M691 822h-180l-43 59l-62 -59h-187l184 208h156zM46 298q0 105 23.5 193.5t71.5 157.5t128 108t186 39q143 0 218.5 -57t77.5 -161l-193 -66q5 66 -25 92.5t-91 26.5q-208 0 -208 -319q0 -77 31.5 -120t110.5 -43q71 0 106.5 27t45.5 92l179 -62q-27 -106 -116.5 -164
t-234.5 -58q-310 0 -310 314z" />
    <glyph glyph-name="ccircumflex" unicode="&#x109;" horiz-adv-x="576" 
d="M567 592h-180l-43 59l-62 -59h-187l184 208h156zM310 385q-52 0 -79 -42.5t-27 -114.5q0 -44 18.5 -63.5t57.5 -19.5q73 0 84 66l173 -60q-20 -78 -83.5 -122.5t-192.5 -44.5q-118 0 -179 57t-61 167q0 163 82.5 250.5t226.5 87.5q127 0 179.5 -43.5t54.5 -119.5
l-186 -64q1 32 -13 49t-55 17z" />
    <glyph glyph-name="Cdotaccent" unicode="&#x10a;" horiz-adv-x="743" 
d="M571 1010l-23 -182h-184l23 182h184zM46 298q0 105 23.5 193.5t71.5 157.5t128 108t186 39q143 0 218.5 -57t77.5 -161l-193 -66q5 66 -25 92.5t-91 26.5q-208 0 -208 -319q0 -77 31.5 -120t110.5 -43q71 0 106.5 27t45.5 92l179 -62q-27 -106 -116.5 -164t-234.5 -58
q-310 0 -310 314z" />
    <glyph glyph-name="cdotaccent" unicode="&#x10b;" horiz-adv-x="576" 
d="M446 780l-22 -182h-184l22 182h184zM310 385q-52 0 -79 -42.5t-27 -114.5q0 -44 18.5 -63.5t57.5 -19.5q73 0 84 66l173 -60q-20 -78 -83.5 -122.5t-192.5 -44.5q-118 0 -179 57t-61 167q0 163 82.5 250.5t226.5 87.5q127 0 179.5 -43.5t54.5 -119.5l-186 -64
q1 32 -13 49t-55 17z" />
    <glyph glyph-name="Ccaron" unicode="&#x10c;" horiz-adv-x="743" 
d="M245 1030h180l43 -59l62 59h187l-184 -208h-156zM46 298q0 105 23.5 193.5t71.5 157.5t128 108t186 39q143 0 218.5 -57t77.5 -161l-193 -66q5 66 -25 92.5t-91 26.5q-208 0 -208 -319q0 -77 31.5 -120t110.5 -43q71 0 106.5 27t45.5 92l179 -62q-27 -106 -116.5 -164
t-234.5 -58q-310 0 -310 314z" />
    <glyph glyph-name="ccaron" unicode="&#x10d;" horiz-adv-x="576" 
d="M121 800h180l43 -59l62 59h187l-184 -208h-156zM310 385q-52 0 -79 -42.5t-27 -114.5q0 -44 18.5 -63.5t57.5 -19.5q73 0 84 66l173 -60q-20 -78 -83.5 -122.5t-192.5 -44.5q-118 0 -179 57t-61 167q0 163 82.5 250.5t226.5 87.5q127 0 179.5 -43.5t54.5 -119.5l-186 -64
q1 32 -13 49t-55 17z" />
    <glyph glyph-name="Dcaron" unicode="&#x10e;" horiz-adv-x="763" 
d="M310 0h-293l95 780h293q169 0 252.5 -74t83.5 -229q0 -229 -109.5 -353t-321.5 -124zM222 165h108q118 0 170 78t52 207q0 81 -39 123t-128 42h-108zM205 1030h180l43 -59l62 59h187l-184 -208h-156z" />
    <glyph glyph-name="dcaron" unicode="&#x10f;" horiz-adv-x="647" 
d="M478 800h180l-80 -646l-8 -154h-165l-6 57q-67 -73 -167 -73q-211 0 -211 217q0 158 72 251.5t208 93.5q89 0 139 -56zM404 197l16 136q-32 50 -99 50q-47 0 -80 -36t-33 -107q0 -47 23 -70t61 -23q67 0 112 50zM708 800h151l-79 -208h-115z" />
    <glyph glyph-name="Dcroat" unicode="&#x110;" horiz-adv-x="833" 
d="M380 0h-293l41 338h-100l15 124h100l39 318h293q169 0 252.5 -74t83.5 -229q0 -229 -109.5 -353t-321.5 -124zM292 165h108q118 0 170 78t52 207q0 81 -39 123t-128 42h-108l-19 -153h158l-15 -124h-158z" />
    <glyph glyph-name="dcroat" unicode="&#x111;" horiz-adv-x="662" 
d="M478 800h180l-10 -80h80l-15 -124h-81l-54 -442l-8 -154h-165l-6 57q-67 -73 -167 -73q-211 0 -211 217q0 158 72 251.5t208 93.5q89 0 139 -56l13 106h-121l15 124h121zM404 197l16 136q-32 50 -99 50q-47 0 -80 -36t-33 -107q0 -47 23 -70t61 -23q67 0 112 50z" />
    <glyph glyph-name="Emacron" unicode="&#x112;" horiz-adv-x="668" 
d="M112 780h566l-20 -165h-381l-16 -134h327l-21 -165h-327l-18 -151h401l-20 -165h-586zM564 846h-332l21 164h332z" />
    <glyph glyph-name="emacron" unicode="&#x113;" horiz-adv-x="615" 
d="M519 616h-332l20 164h332zM580 214h-376q-1 -43 23 -63t70 -20q80 0 90 40l169 -58q-23 -57 -90.5 -93t-179.5 -36q-127 0 -195.5 59.5t-68.5 172.5q0 157 89 243.5t233 86.5q120 0 183 -57.5t63 -168.5q0 -44 -10 -106zM326 399q-42 0 -71 -21.5t-35 -57.5h181
q8 36 -13.5 57.5t-61.5 21.5z" />
    <glyph glyph-name="Ebreve" unicode="&#x114;" horiz-adv-x="668" 
d="M112 780h566l-20 -165h-381l-16 -134h327l-21 -165h-327l-18 -151h401l-20 -165h-586zM395 806q-113 0 -156.5 56.5t-30.5 167.5h137q-6 -62 68 -62t78 62h143q-9 -112 -65 -168t-174 -56z" />
    <glyph glyph-name="ebreve" unicode="&#x115;" horiz-adv-x="615" 
d="M580 214h-376q-1 -43 23 -63t70 -20q80 0 90 40l169 -58q-23 -57 -90.5 -93t-179.5 -36q-127 0 -195.5 59.5t-68.5 172.5q0 157 89 243.5t233 86.5q120 0 183 -57.5t63 -168.5q0 -44 -10 -106zM326 399q-42 0 -71 -21.5t-35 -57.5h181q8 36 -13.5 57.5t-61.5 21.5z
M350 576q-113 0 -156.5 56.5t-30.5 167.5h137q-6 -62 68 -62t78 62h143q-9 -112 -65 -168t-174 -56z" />
    <glyph glyph-name="Edotaccent" unicode="&#x116;" horiz-adv-x="668" 
d="M112 780h566l-20 -165h-381l-16 -134h327l-21 -165h-327l-18 -151h401l-20 -165h-586zM511 1010l-23 -182h-184l23 182h184z" />
    <glyph glyph-name="edotaccent" unicode="&#x117;" horiz-adv-x="615" 
d="M465 780l-22 -182h-184l22 182h184zM580 214h-376q-1 -43 23 -63t70 -20q80 0 90 40l169 -58q-23 -57 -90.5 -93t-179.5 -36q-127 0 -195.5 59.5t-68.5 172.5q0 157 89 243.5t233 86.5q120 0 183 -57.5t63 -168.5q0 -44 -10 -106zM326 399q-42 0 -71 -21.5t-35 -57.5h181
q8 36 -13.5 57.5t-61.5 21.5z" />
    <glyph glyph-name="Eogonek" unicode="&#x118;" horiz-adv-x="668" 
d="M112 780h566l-20 -165h-381l-16 -134h327l-21 -165h-327l-18 -151h401l-20 -165q-47 -4 -79 -27t-32 -47q0 -21 25 -21q12 0 25 4.5t20.5 8.5t7.5 5l20 -114q-44 -25 -108 -25q-123 0 -123 107q0 60 54 109h-396z" />
    <glyph glyph-name="eogonek" unicode="&#x119;" horiz-adv-x="615" 
d="M279 -216q-123 0 -123 107q0 55 46 101q-180 36 -180 224q0 157 89 243.5t233 86.5q120 0 183 -57.5t63 -168.5q0 -44 -10 -106h-376q-1 -40 22 -61.5t71 -21.5q80 0 90 40l169 -58q-36 -88 -151 -116q-116 -27 -116 -69q0 -23 25 -23q7 0 15.5 2t15 4.5t12 5t7.5 4.5
l3 2l20 -114q-44 -25 -108 -25zM326 399q-42 0 -71 -21.5t-35 -57.5h181q8 36 -13.5 57.5t-61.5 21.5z" />
    <glyph glyph-name="Ecaron" unicode="&#x11a;" horiz-adv-x="668" 
d="M112 780h566l-20 -165h-381l-16 -134h327l-21 -165h-327l-18 -151h401l-20 -165h-586zM185 1030h180l43 -59l62 59h187l-184 -208h-156z" />
    <glyph glyph-name="ecaron" unicode="&#x11b;" horiz-adv-x="615" 
d="M580 214h-376q-1 -43 23 -63t70 -20q80 0 90 40l169 -58q-23 -57 -90.5 -93t-179.5 -36q-127 0 -195.5 59.5t-68.5 172.5q0 157 89 243.5t233 86.5q120 0 183 -57.5t63 -168.5q0 -44 -10 -106zM326 399q-42 0 -71 -21.5t-35 -57.5h181q8 36 -13.5 57.5t-61.5 21.5z
M140 800h180l43 -59l62 59h187l-184 -208h-156z" />
    <glyph glyph-name="Gcircumflex" unicode="&#x11c;" horiz-adv-x="805" 
d="M706 822h-180l-43 59l-62 -59h-187l184 208h156zM48 306q0 104 26 191.5t77 155t133 105.5t187 38q161 0 235 -54.5t75 -163.5l-192 -66q3 65 -30.5 92t-101.5 27q-61 0 -105.5 -25t-69 -69.5t-35.5 -95.5t-11 -112q0 -88 40 -134t137 -46q79 0 132 21l16 127h-160
l18 150h344l-47 -383q-83 -47 -160 -63.5t-172 -16.5q-336 0 -336 322z" />
    <glyph glyph-name="gcircumflex" unicode="&#x11d;" horiz-adv-x="644" 
d="M586 592h-180l-43 59l-62 -59h-187l184 208h156zM606 376l-47 -382q-9 -72 -57 -121t-111 -69t-138 -20q-134 0 -197.5 31t-66.5 104l186 64q-2 -29 17 -40.5t69 -11.5q111 0 119 71l8 67q-24 -25 -67.5 -42t-94.5 -17q-97 0 -150 52.5t-53 156.5q0 161 75 244t204 83
q104 0 149 -73l18 57h165zM407 223l13 110q-32 50 -99 50q-112 0 -112 -130q0 -80 86 -80q67 0 112 50z" />
    <glyph glyph-name="Gbreve" unicode="&#x11e;" horiz-adv-x="805" 
d="M470 806q-113 0 -156.5 56.5t-30.5 167.5h137q-6 -62 68 -62t78 62h143q-9 -112 -65 -168t-174 -56zM48 306q0 104 26 191.5t77 155t133 105.5t187 38q161 0 235 -54.5t75 -163.5l-192 -66q3 65 -30.5 92t-101.5 27q-61 0 -105.5 -25t-69 -69.5t-35.5 -95.5t-11 -112
q0 -88 40 -134t137 -46q79 0 132 21l16 127h-160l18 150h344l-47 -383q-83 -47 -160 -63.5t-172 -16.5q-336 0 -336 322z" />
    <glyph glyph-name="gbreve" unicode="&#x11f;" horiz-adv-x="644" 
d="M350 576q-113 0 -156.5 56.5t-30.5 167.5h137q-6 -62 68 -62t78 62h143q-9 -112 -65 -168t-174 -56zM606 376l-47 -382q-9 -72 -57 -121t-111 -69t-138 -20q-134 0 -197.5 31t-66.5 104l186 64q-2 -29 17 -40.5t69 -11.5q111 0 119 71l8 67q-24 -25 -67.5 -42t-94.5 -17
q-97 0 -150 52.5t-53 156.5q0 161 75 244t204 83q104 0 149 -73l18 57h165zM407 223l13 110q-32 50 -99 50q-112 0 -112 -130q0 -80 86 -80q67 0 112 50z" />
    <glyph glyph-name="Gdotaccent" unicode="&#x120;" horiz-adv-x="805" 
d="M586 1010l-23 -182h-184l23 182h184zM48 306q0 104 26 191.5t77 155t133 105.5t187 38q161 0 235 -54.5t75 -163.5l-192 -66q3 65 -30.5 92t-101.5 27q-61 0 -105.5 -25t-69 -69.5t-35.5 -95.5t-11 -112q0 -88 40 -134t137 -46q79 0 132 21l16 127h-160l18 150h344
l-47 -383q-83 -47 -160 -63.5t-172 -16.5q-336 0 -336 322z" />
    <glyph glyph-name="gdotaccent" unicode="&#x121;" horiz-adv-x="644" 
d="M465 780l-22 -182h-184l22 182h184zM606 376l-47 -382q-9 -72 -57 -121t-111 -69t-138 -20q-134 0 -197.5 31t-66.5 104l186 64q-2 -29 17 -40.5t69 -11.5q111 0 119 71l8 67q-24 -25 -67.5 -42t-94.5 -17q-97 0 -150 52.5t-53 156.5q0 161 75 244t204 83q104 0 149 -73
l18 57h165zM407 223l13 110q-32 50 -99 50q-112 0 -112 -130q0 -80 86 -80q67 0 112 50z" />
    <glyph glyph-name="Gcommaaccent" unicode="&#x122;" horiz-adv-x="805" 
d="M267 -62h191l-52 -138h-167zM48 306q0 104 26 191.5t77 155t133 105.5t187 38q161 0 235 -54.5t75 -163.5l-192 -66q3 65 -30.5 92t-101.5 27q-61 0 -105.5 -25t-69 -69.5t-35.5 -95.5t-11 -112q0 -88 40 -134t137 -46q79 0 132 21l16 127h-160l18 150h344l-47 -383
q-83 -47 -160 -63.5t-172 -16.5q-336 0 -336 322z" />
    <glyph glyph-name="gcommaaccent" unicode="&#x123;" horiz-adv-x="644" 
d="M442 592h-191l79 208h155zM606 376l-47 -382q-9 -72 -57 -121t-111 -69t-138 -20q-134 0 -197.5 31t-66.5 104l186 64q-2 -29 17 -40.5t69 -11.5q111 0 119 71l8 67q-24 -25 -67.5 -42t-94.5 -17q-97 0 -150 52.5t-53 156.5q0 161 75 244t204 83q104 0 149 -73l18 57h165
zM407 223l13 110q-32 50 -99 50q-112 0 -112 -130q0 -80 86 -80q67 0 112 50z" />
    <glyph glyph-name="Hcircumflex" unicode="&#x124;" horiz-adv-x="748" 
d="M571 780h185l-95 -780h-185l38 316h-274l-38 -316h-185l95 780h185l-36 -299h274zM675 822h-180l-43 59l-62 -59h-187l184 208h156z" />
    <glyph glyph-name="hcircumflex" unicode="&#x125;" horiz-adv-x="639" 
d="M436 822h-180l-43 59l-62 -59h-187l184 208h156zM9 0l98 800h180l-39 -314q66 60 163 60q108 0 156.5 -52.5t33.5 -168.5l-39 -325h-180l37 302q5 44 -12.5 63t-55.5 18q-76 -1 -122 -50l-40 -333h-180z" />
    <glyph glyph-name="Hbar" unicode="&#x126;" horiz-adv-x="748" 
d="M571 780h185l-95 -780h-185l38 316h-274l-38 -316h-185l95 780h185l-12 -103h274zM261 481h274l8 72h-274z" />
    <glyph glyph-name="hbar" unicode="&#x127;" horiz-adv-x="654" 
d="M24 0l73 596h-79l15 124h79l10 80h180l-10 -80h123l-15 -124h-124l-13 -110q66 60 163 60q108 0 156.5 -52.5t33.5 -168.5l-39 -325h-180l37 302q5 44 -12.5 63t-55.5 18q-76 -1 -122 -50l-40 -333h-180z" />
    <glyph glyph-name="Itilde" unicode="&#x128;" horiz-adv-x="311" 
d="M308 780l-95 -780h-185l95 780h185zM309 806q-36 0 -66 12t-45.5 26t-32.5 26t-32 12q-16 0 -26.5 -12t-13.5 -24l-3 -11l-122 15q17 94 61 145t128 51q36 0 66 -12t45.5 -26t32.5 -26t32 -12q16 0 26.5 12t13.5 24l3 11l122 -15q-17 -94 -61 -145t-128 -51z" />
    <glyph glyph-name="itilde" unicode="&#x129;" horiz-adv-x="290" 
d="M15 0l65 530h180l-65 -530h-180zM266 576q-36 0 -66 12t-45.5 26t-32.5 26t-32 12q-16 0 -26.5 -12t-13.5 -24l-3 -11l-122 15q17 94 61 145t128 51q36 0 66 -12t45.5 -26t32.5 -26t32 -12q16 0 26.5 12t13.5 24l3 11l122 -15q-17 -94 -61 -145t-128 -51z" />
    <glyph glyph-name="Imacron" unicode="&#x12a;" horiz-adv-x="311" 
d="M308 780l-95 -780h-185l95 780h185zM389 846h-332l20 164h332z" />
    <glyph glyph-name="imacron" unicode="&#x12b;" horiz-adv-x="290" 
d="M15 0l65 530h180l-65 -530h-180zM346 616h-332l20 164h332z" />
    <glyph glyph-name="Ibreve" unicode="&#x12c;" horiz-adv-x="311" 
d="M308 780l-95 -780h-185l95 780h185zM220 806q-113 0 -156.5 56.5t-30.5 167.5h137q-6 -62 68 -62t78 62h143q-9 -112 -65 -168t-174 -56z" />
    <glyph glyph-name="ibreve" unicode="&#x12d;" horiz-adv-x="290" 
d="M15 0l65 530h180l-65 -530h-180zM182 576q-113 0 -156.5 56.5t-30.5 167.5h137q-6 -62 68 -62t78 62h143q-9 -112 -65 -168t-174 -56z" />
    <glyph glyph-name="Iogonek" unicode="&#x12e;" horiz-adv-x="311" 
d="M308 780l-95 -780q-47 -4 -79 -26.5t-32 -44.5q0 -24 25 -24q16 0 44 12.5t45 29.5l21 -119q-67 -44 -145 -44q-123 0 -123 107q0 61 59 113l95 776h185z" />
    <glyph glyph-name="iogonek" unicode="&#x12f;" horiz-adv-x="290" 
d="M260 530l-65 -530q-47 -4 -79 -26.5t-32 -44.5q0 -24 25 -24q16 0 44 12.5t45 29.5l21 -119q-67 -44 -145 -44q-122 0 -122 111q0 81 67 141l61 494h180zM292 780l-22 -182h-184l22 182h184z" />
    <glyph glyph-name="Idotaccent" unicode="&#x130;" horiz-adv-x="311" 
d="M308 780l-95 -780h-185l95 780h185zM336 1010l-22 -182h-184l22 182h184z" />
    <glyph glyph-name="dotlessi" unicode="&#x131;" horiz-adv-x="290" 
d="M15 0l65 530h180l-65 -530h-180z" />
    <glyph glyph-name="IJ" unicode="&#x132;" horiz-adv-x="696" 
d="M308 780l-95 -780h-185l95 780h185zM458 206l70 574h186l-73 -597q-11 -84 -72.5 -141.5t-187.5 -57.5q-71 0 -115 21l34 167q34 -24 84 -24q67 0 74 58z" />
    <glyph glyph-name="ij" unicode="&#x133;" horiz-adv-x="530" 
d="M15 0l65 530h180l-65 -530h-180zM292 780l-22 -182h-184l22 182h184zM532 780l-22 -182h-184l22 182h184zM255 2l65 528h180l-68 -553q-11 -81 -70.5 -137t-182.5 -56q-67 0 -111 20l33 162q43 -29 91 -24q57 6 63 60z" />
    <glyph glyph-name="Jcircumflex" unicode="&#x134;" horiz-adv-x="555" 
d="M721 822h-180l-43 59l-62 -59h-187l184 208h156zM388 780h185l-69 -561q-28 -235 -283 -235q-122 0 -173 49t-52 135l188 65q-4 -44 7.5 -64.5t49.5 -20.5q39 0 56 17t22 53z" />
    <glyph glyph-name="jcircumflex" unicode="&#x135;" horiz-adv-x="290" 
d="M15 2l65 528h180l-68 -553q-11 -81 -70.5 -137t-181.5 -56q-67 0 -111 20l33 162q43 -29 91 -24q56 7 62 60zM413 592h-180l-43 59l-62 -59h-187l184 208h156z" />
    <glyph glyph-name="Kcommaaccent" unicode="&#x136;" horiz-adv-x="761" 
d="M224 -62h191l-52 -138h-167zM297 780l-40 -326l113 128l182 198h260l-314 -308l230 -472h-231l-142 333l-128 -129l-25 -204h-185l95 780h185z" />
    <glyph glyph-name="kcommaaccent" unicode="&#x137;" horiz-adv-x="640" 
d="M181 -62h191l-52 -138h-167zM189 0h-180l98 800h180l-55 -449l55 60l116 119h257l-239 -208l186 -322h-234l-98 202l-69 -59z" />
    <glyph glyph-name="kgreenlandic" unicode="&#x138;" horiz-adv-x="640" 
d="M74 530h180l-22 -179l55 60l116 119h257l-239 -208l186 -322h-234l-98 202l-69 -59l-17 -143h-180z" />
    <glyph glyph-name="Lacute" unicode="&#x139;" horiz-adv-x="600" 
d="M297 780l-75 -615h355l-20 -165h-540l95 780h185zM243 1030h196l-137 -208h-179z" />
    <glyph glyph-name="lacute" unicode="&#x13a;" horiz-adv-x="290" 
d="M241 1070h196l-137 -208h-179zM15 0l98 800h180l-98 -800h-180z" />
    <glyph glyph-name="Lcommaaccent" unicode="&#x13b;" horiz-adv-x="600" 
d="M297 780l-75 -615h355l-20 -165h-540l95 780h185zM184 -62h191l-52 -138h-167z" />
    <glyph glyph-name="lcommaaccent" unicode="&#x13c;" horiz-adv-x="290" 
d="M2 -62h191l-52 -138h-167zM15 0l98 800h180l-98 -800h-180z" />
    <glyph glyph-name="Lcaron" unicode="&#x13d;" horiz-adv-x="600" 
d="M297 780l-75 -615h355l-20 -165h-540l95 780h185zM403 800h151l-79 -208h-115z" />
    <glyph glyph-name="lcaron" unicode="&#x13e;" horiz-adv-x="290" 
d="M343 800h151l-79 -208h-115zM15 0l98 800h180l-98 -800h-180z" />
    <glyph glyph-name="Ldot" unicode="&#x13f;" horiz-adv-x="625" 
d="M297 780l-75 -615h355l-20 -165h-540l95 780h185zM567 490l-23 -182h-184l23 182h184z" />
    <glyph glyph-name="ldot" unicode="&#x140;" horiz-adv-x="444" 
d="M478 481l-23 -182h-184l23 182h184zM15 0l98 800h180l-98 -800h-180z" />
    <glyph glyph-name="Lslash" unicode="&#x141;" horiz-adv-x="625" 
d="M469 416l-230 -108l-17 -143h355l-20 -165h-540l26 216l-56 -26l16 134l56 26l53 430h185l-41 -338l229 108z" />
    <glyph glyph-name="lslash" unicode="&#x142;" horiz-adv-x="335" 
d="M34 0l31 257l-55 -33l16 134l56 32l50 410h180l-36 -296l78 46l-16 -134l-78 -46l-45 -370h-181z" />
    <glyph glyph-name="Nacute" unicode="&#x143;" horiz-adv-x="768" 
d="M475 1030h196l-137 -208h-179zM290 780l247 -453l16 145l38 308h185l-95 -780h-178l-247 453l-17 -145l-37 -308h-185l95 780h178z" />
    <glyph glyph-name="nacute" unicode="&#x144;" horiz-adv-x="645" 
d="M382 800h196l-137 -208h-179zM235 530l5 -57q73 73 177 73q108 0 156.5 -52.5t33.5 -168.5l-39 -325h-180l37 302q5 44 -12.5 63t-55.5 18q-76 -1 -122 -50l-40 -333h-180l46 376l9 154h165z" />
    <glyph glyph-name="Ncommaaccent" unicode="&#x145;" horiz-adv-x="768" 
d="M256 -62h191l-52 -138h-167zM290 780l247 -453l16 145l38 308h185l-95 -780h-178l-247 453l-17 -145l-37 -308h-185l95 780h178z" />
    <glyph glyph-name="ncommaaccent" unicode="&#x146;" horiz-adv-x="645" 
d="M184 -62h191l-52 -138h-167zM235 530l5 -57q73 73 177 73q108 0 156.5 -52.5t33.5 -168.5l-39 -325h-180l37 302q5 44 -12.5 63t-55.5 18q-76 -1 -122 -50l-40 -333h-180l46 376l9 154h165z" />
    <glyph glyph-name="Ncaron" unicode="&#x147;" horiz-adv-x="768" 
d="M290 780l247 -453l16 145l38 308h185l-95 -780h-178l-247 453l-17 -145l-37 -308h-185l95 780h178zM220 1030h180l43 -59l62 59h187l-184 -208h-156z" />
    <glyph glyph-name="ncaron" unicode="&#x148;" horiz-adv-x="645" 
d="M146 800h180l43 -59l62 59h187l-184 -208h-156zM235 530l5 -57q73 73 177 73q108 0 156.5 -52.5t33.5 -168.5l-39 -325h-180l37 302q5 44 -12.5 63t-55.5 18q-76 -1 -122 -50l-40 -333h-180l46 376l9 154h165z" />
    <glyph glyph-name="Eng" unicode="&#x14a;" horiz-adv-x="768" 
d="M496 2l1 9l-241 442l-54 -453h-185l95 780h178l247 -453l16 145l38 308h185l-98 -803q-4 -37 -19.5 -69.5t-44 -61t-77 -45.5t-111.5 -17q-67 0 -111 20l32 162q35 -25 78 -25q64 0 71 61z" />
    <glyph glyph-name="eng" unicode="&#x14b;" horiz-adv-x="645" 
d="M607 325l-42 -348q-11 -81 -70.5 -137t-182.5 -56q-67 0 -111 20l33 162q43 -29 91 -24q57 6 63 60l37 300q6 44 -12 63t-56 18q-76 -1 -122 -50l-40 -333h-180l46 376l9 154h165l5 -57q73 73 177 73q108 0 156 -52.5t34 -168.5z" />
    <glyph glyph-name="Omacron" unicode="&#x14c;" horiz-adv-x="820" 
d="M644 846h-332l21 164h332zM452 631q-60 0 -104 -26.5t-67 -72t-33.5 -96.5t-10.5 -111q0 -176 156 -176q61 0 105 26.5t67 73t33 98t10 111.5q0 173 -156 173zM373 -16q-167 0 -245.5 84t-78.5 237q0 105 25.5 192.5t75.5 155t132.5 105.5t189.5 38q166 0 245 -83.5
t79 -234.5q0 -105 -25 -193t-75 -156.5t-132.5 -106.5t-190.5 -38z" />
    <glyph glyph-name="omacron" unicode="&#x14d;" horiz-adv-x="620" 
d="M292 146q117 0 117 152q0 48 -22 67t-65 19q-117 0 -117 -151q0 -48 22.5 -67.5t64.5 -19.5zM273 -16q-120 0 -185.5 58.5t-65.5 170.5q0 161 88 247t232 86q120 0 185 -58t65 -170q0 -162 -87.5 -248t-231.5 -86zM516 616h-332l20 164h332z" />
    <glyph glyph-name="Obreve" unicode="&#x14e;" horiz-adv-x="820" 
d="M452 631q-60 0 -104 -26.5t-67 -72t-33.5 -96.5t-10.5 -111q0 -176 156 -176q61 0 105 26.5t67 73t33 98t10 111.5q0 173 -156 173zM373 -16q-167 0 -245.5 84t-78.5 237q0 105 25.5 192.5t75.5 155t132.5 105.5t189.5 38q166 0 245 -83.5t79 -234.5q0 -105 -25 -193
t-75 -156.5t-132.5 -106.5t-190.5 -38zM475 806q-113 0 -156.5 56.5t-30.5 167.5h137q-6 -62 68 -62t78 62h143q-9 -112 -65 -168t-174 -56z" />
    <glyph glyph-name="obreve" unicode="&#x14f;" horiz-adv-x="620" 
d="M292 146q117 0 117 152q0 48 -22 67t-65 19q-117 0 -117 -151q0 -48 22.5 -67.5t64.5 -19.5zM273 -16q-120 0 -185.5 58.5t-65.5 170.5q0 161 88 247t232 86q120 0 185 -58t65 -170q0 -162 -87.5 -248t-231.5 -86zM347 576q-113 0 -156.5 56.5t-30.5 167.5h137
q-6 -62 68 -62t78 62h143q-9 -112 -65 -168t-174 -56z" />
    <glyph glyph-name="Ohungarumlaut" unicode="&#x150;" horiz-adv-x="820" 
d="M452 631q-60 0 -104 -26.5t-67 -72t-33.5 -96.5t-10.5 -111q0 -176 156 -176q61 0 105 26.5t67 73t33 98t10 111.5q0 173 -156 173zM373 -16q-167 0 -245.5 84t-78.5 237q0 105 25.5 192.5t75.5 155t132.5 105.5t189.5 38q166 0 245 -83.5t79 -234.5q0 -105 -25 -193
t-75 -156.5t-132.5 -106.5t-190.5 -38zM399 1030h196l-137 -208h-179zM615 1030h196l-137 -208h-179z" />
    <glyph glyph-name="ohungarumlaut" unicode="&#x151;" horiz-adv-x="620" 
d="M292 146q117 0 117 152q0 48 -22 67t-65 19q-117 0 -117 -151q0 -48 22.5 -67.5t64.5 -19.5zM273 -16q-120 0 -185.5 58.5t-65.5 170.5q0 161 88 247t232 86q120 0 185 -58t65 -170q0 -162 -87.5 -248t-231.5 -86zM271 800h196l-137 -208h-179zM487 800h196l-137 -208
h-179z" />
    <glyph glyph-name="OE" unicode="&#x152;" horiz-adv-x="1102" 
d="M1037 0h-655q-169 0 -252.5 74t-83.5 229q0 229 109.5 353t321.5 124h635l-20 -165h-371l-16 -134h317l-21 -165h-317l-18 -151h391zM535 615h-78q-118 0 -170 -78t-52 -207q0 -81 39 -123t128 -42h78z" />
    <glyph glyph-name="oe" unicode="&#x153;" horiz-adv-x="997" 
d="M726 546q120 0 183 -57.5t63 -168.5q0 -44 -10 -106h-376q-1 -43 23 -63t70 -20q80 0 90 40l169 -58q-23 -57 -90.5 -93t-179.5 -36q-128 0 -195 58q-79 -58 -200 -58q-120 0 -185.5 58.5t-65.5 170.5q0 161 88 247t232 86q118 0 184 -58q81 58 200 58zM292 146
q117 0 117 152q0 48 -22 67t-65 19q-117 0 -117 -151q0 -48 22.5 -67.5t64.5 -19.5zM708 399q-42 0 -71 -21.5t-35 -57.5h181q8 36 -13.5 57.5t-61.5 21.5z" />
    <glyph glyph-name="Racute" unicode="&#x154;" horiz-adv-x="725" 
d="M235 269l-33 -269h-185l95 780h345q266 0 266 -208q0 -116 -48.5 -184.5t-123.5 -95.5l143 -292h-212l-119 269h-128zM255 435h174q19 0 33.5 3t32.5 13t28 33.5t10 59.5q0 71 -82 71h-174zM431 1030h196l-137 -208h-179z" />
    <glyph glyph-name="racute" unicode="&#x155;" horiz-adv-x="436" 
d="M280 800h196l-137 -208h-179zM384 546q45 0 72 -13l-34 -168q-26 8 -49 8q-93 0 -139 -50l-39 -323h-180l46 376l9 154h165l5 -57q25 33 64.5 53t79.5 20z" />
    <glyph glyph-name="Rcommaaccent" unicode="&#x156;" horiz-adv-x="725" 
d="M235 269l-33 -269h-185l95 780h345q266 0 266 -208q0 -116 -48.5 -184.5t-123.5 -95.5l143 -292h-212l-119 269h-128zM255 435h174q19 0 33.5 3t32.5 13t28 33.5t10 59.5q0 71 -82 71h-174zM218 -62h191l-52 -138h-167z" />
    <glyph glyph-name="rcommaaccent" unicode="&#x157;" horiz-adv-x="436" 
d="M4 -62h191l-52 -138h-167zM384 546q45 0 72 -13l-34 -168q-26 8 -49 8q-93 0 -139 -50l-39 -323h-180l46 376l9 154h165l5 -57q25 33 64.5 53t79.5 20z" />
    <glyph glyph-name="Rcaron" unicode="&#x158;" horiz-adv-x="725" 
d="M235 269l-33 -269h-185l95 780h345q266 0 266 -208q0 -116 -48.5 -184.5t-123.5 -95.5l143 -292h-212l-119 269h-128zM255 435h174q19 0 33.5 3t32.5 13t28 33.5t10 59.5q0 71 -82 71h-174zM195 1030h180l43 -59l62 59h187l-184 -208h-156z" />
    <glyph glyph-name="rcaron" unicode="&#x159;" horiz-adv-x="436" 
d="M49 800h180l43 -59l62 59h187l-184 -208h-156zM384 546q45 0 72 -13l-34 -168q-26 8 -49 8q-93 0 -139 -50l-39 -323h-180l46 376l9 154h165l5 -57q25 33 64.5 53t79.5 20z" />
    <glyph glyph-name="Sacute" unicode="&#x15a;" horiz-adv-x="722" 
d="M448 1030h196l-137 -208h-179zM338 149q43 0 78 6.5t62.5 28t27.5 55.5q0 42 -31 59t-112 21q-52 2 -88 6.5t-77 17t-66 33t-41.5 56t-16.5 84.5q0 91 50.5 156.5t125.5 94.5t164 29q153 0 231 -56.5t80 -161.5l-193 -66q4 68 -27 93.5t-102 25.5q-54 0 -97.5 -20.5
t-43.5 -66.5q0 -36 25.5 -48t102.5 -17q65 -4 107 -10t82.5 -19.5t62.5 -36t35.5 -59t13.5 -87.5q0 -72 -30.5 -128t-82.5 -89t-115 -49.5t-133 -16.5q-166 0 -239 55.5t-73 162.5l193 66q-11 -58 26.5 -88.5t100.5 -30.5z" />
    <glyph glyph-name="sacute" unicode="&#x15b;" horiz-adv-x="570" 
d="M343 800h196l-137 -208h-179zM259 125q42 0 65 12.5t23 35.5q0 9 -5 14.5t-17.5 8.5t-25.5 4.5t-38 3.5q-38 3 -53.5 4t-46 5.5t-43.5 9.5t-32.5 14.5t-28 22.5t-15 32t-6.5 44q0 56 26 99t68.5 66t88.5 34t95 11q224 0 235 -129l-185 -63q3 25 -11 38t-55 13
q-30 0 -47.5 -11.5t-17.5 -31.5q0 -16 17.5 -22.5t62.5 -9.5q113 -7 149 -19q76 -27 76 -118q0 -57 -26 -99t-69.5 -65t-93.5 -34t-106 -11q-120 0 -179 32.5t-63 102.5l185 64q-2 -29 15 -43.5t58 -14.5z" />
    <glyph glyph-name="Scircumflex" unicode="&#x15c;" horiz-adv-x="722" 
d="M658 822h-180l-43 59l-62 -59h-187l184 208h156zM338 149q43 0 78 6.5t62.5 28t27.5 55.5q0 42 -31 59t-112 21q-52 2 -88 6.5t-77 17t-66 33t-41.5 56t-16.5 84.5q0 91 50.5 156.5t125.5 94.5t164 29q153 0 231 -56.5t80 -161.5l-193 -66q4 68 -27 93.5t-102 25.5
q-54 0 -97.5 -20.5t-43.5 -66.5q0 -36 25.5 -48t102.5 -17q65 -4 107 -10t82.5 -19.5t62.5 -36t35.5 -59t13.5 -87.5q0 -72 -30.5 -128t-82.5 -89t-115 -49.5t-133 -16.5q-166 0 -239 55.5t-73 162.5l193 66q-11 -58 26.5 -88.5t100.5 -30.5z" />
    <glyph glyph-name="scircumflex" unicode="&#x15d;" horiz-adv-x="570" 
d="M553 592h-180l-43 59l-62 -59h-187l184 208h156zM259 125q42 0 65 12.5t23 35.5q0 9 -5 14.5t-17.5 8.5t-25.5 4.5t-38 3.5q-38 3 -53.5 4t-46 5.5t-43.5 9.5t-32.5 14.5t-28 22.5t-15 32t-6.5 44q0 56 26 99t68.5 66t88.5 34t95 11q224 0 235 -129l-185 -63q3 25 -11 38
t-55 13q-30 0 -47.5 -11.5t-17.5 -31.5q0 -16 17.5 -22.5t62.5 -9.5q113 -7 149 -19q76 -27 76 -118q0 -57 -26 -99t-69.5 -65t-93.5 -34t-106 -11q-120 0 -179 32.5t-63 102.5l185 64q-2 -29 15 -43.5t58 -14.5z" />
    <glyph glyph-name="Scedilla" unicode="&#x15e;" horiz-adv-x="722" 
d="M456 -115q0 -51 -43 -76t-103 -25q-77 0 -126 23l34 76q0 -1 9.5 -5.5t25.5 -9t29 -4.5q35 0 35 22q0 31 -74 39l29 61q-134 9 -194 63.5t-60 152.5l193 66q-11 -58 26.5 -88.5t100.5 -30.5q43 0 78 6.5t62.5 28t27.5 55.5q0 42 -31 59t-112 21q-52 2 -88 6.5t-77 17
t-66 33t-41.5 56t-16.5 84.5q0 91 50.5 156.5t125.5 94.5t164 29q153 0 231 -56.5t80 -161.5l-193 -66q4 68 -27 93.5t-102 25.5q-54 0 -97.5 -20.5t-43.5 -66.5q0 -36 25.5 -48t102.5 -17q65 -4 107 -10t82.5 -19.5t62.5 -36t35.5 -59t13.5 -87.5q0 -67 -26.5 -120
t-73 -86.5t-103 -52t-121.5 -22.5l-7 -20q96 -22 96 -81z" />
    <glyph glyph-name="scedilla" unicode="&#x15f;" horiz-adv-x="570" 
d="M383 -115q0 -51 -43 -76t-103 -25q-77 0 -126 23l34 76q0 -1 9.5 -5.5t25.5 -9t29 -4.5q35 0 35 22q0 31 -74 39l28 60q-97 6 -145 38.5t-52 95.5l185 64q-2 -29 15 -43.5t58 -14.5q42 0 65 12.5t23 35.5q0 9 -5 14.5t-17.5 8.5t-25.5 4.5t-38 3.5q-38 3 -53.5 4t-46 5.5
t-43.5 9.5t-32.5 14.5t-28 22.5t-15 32t-6.5 44q0 56 26 99t68.5 66t88.5 34t95 11q224 0 235 -129l-185 -63q3 25 -11 38t-55 13q-30 0 -47.5 -11.5t-17.5 -31.5q0 -16 17.5 -22.5t62.5 -9.5q113 -7 149 -19q76 -27 76 -118q0 -50 -20 -89t-55.5 -62.5t-77 -37t-90.5 -17.5
l-8 -21q96 -22 96 -81z" />
    <glyph glyph-name="Scaron" unicode="&#x160;" horiz-adv-x="722" 
d="M212 1030h180l43 -59l62 59h187l-184 -208h-156zM338 149q43 0 78 6.5t62.5 28t27.5 55.5q0 42 -31 59t-112 21q-52 2 -88 6.5t-77 17t-66 33t-41.5 56t-16.5 84.5q0 91 50.5 156.5t125.5 94.5t164 29q153 0 231 -56.5t80 -161.5l-193 -66q4 68 -27 93.5t-102 25.5
q-54 0 -97.5 -20.5t-43.5 -66.5q0 -36 25.5 -48t102.5 -17q65 -4 107 -10t82.5 -19.5t62.5 -36t35.5 -59t13.5 -87.5q0 -72 -30.5 -128t-82.5 -89t-115 -49.5t-133 -16.5q-166 0 -239 55.5t-73 162.5l193 66q-11 -58 26.5 -88.5t100.5 -30.5z" />
    <glyph glyph-name="scaron" unicode="&#x161;" horiz-adv-x="570" 
d="M107 800h180l43 -59l62 59h187l-184 -208h-156zM259 125q42 0 65 12.5t23 35.5q0 9 -5 14.5t-17.5 8.5t-25.5 4.5t-38 3.5q-38 3 -53.5 4t-46 5.5t-43.5 9.5t-32.5 14.5t-28 22.5t-15 32t-6.5 44q0 56 26 99t68.5 66t88.5 34t95 11q224 0 235 -129l-185 -63q3 25 -11 38
t-55 13q-30 0 -47.5 -11.5t-17.5 -31.5q0 -16 17.5 -22.5t62.5 -9.5q113 -7 149 -19q76 -27 76 -118q0 -57 -26 -99t-69.5 -65t-93.5 -34t-106 -11q-120 0 -179 32.5t-63 102.5l185 64q-2 -29 15 -43.5t58 -14.5z" />
    <glyph glyph-name="Tcommaaccent" unicode="&#x162;" horiz-adv-x="627" 
d="M446 615l-75 -615h-185l75 615h-214l20 165h613l-20 -165h-214zM175 -62h191l-52 -138h-167z" />
    <glyph glyph-name="tcommaaccent" unicode="&#x163;" horiz-adv-x="480" 
d="M26 380l19 150h97l19 160h180l-19 -160h160l-19 -150h-160l-22 -178q-4 -30 8.5 -43.5t39.5 -16.5q24 -3 52 5.5t45 18.5l-7 -162q-49 -20 -115 -20q-64 0 -108.5 17t-66 45.5t-28.5 61t-3 69.5l25 203h-97zM118 -62h191l-52 -138h-167z" />
    <glyph glyph-name="Tcaron" unicode="&#x164;" horiz-adv-x="627" 
d="M446 615l-75 -615h-185l75 615h-214l20 165h613l-20 -165h-214zM168 1030h180l43 -59l62 59h187l-184 -208h-156z" />
    <glyph glyph-name="tcaron" unicode="&#x165;" horiz-adv-x="480" 
d="M26 380l19 150h97l19 160h180l-19 -160h160l-19 -150h-160l-22 -178q-4 -30 8.5 -43.5t39.5 -16.5q24 -3 52 5.5t45 18.5l-7 -162q-49 -20 -115 -20q-64 0 -108.5 17t-66 45.5t-28.5 61t-3 69.5l25 203h-97zM426 800h151l-79 -208h-115z" />
    <glyph glyph-name="Tbar" unicode="&#x166;" horiz-adv-x="627" 
d="M446 615l-19 -153h100l-15 -124h-100l-41 -338h-185l41 338h-100l15 124h100l19 153h-214l20 165h613l-20 -165h-214z" />
    <glyph glyph-name="tbar" unicode="&#x167;" horiz-adv-x="480" 
d="M26 380l19 150h97l19 160h180l-19 -160h160l-19 -150h-159l-7 -49h139l-15 -124h-139l-1 -5q-4 -30 8.5 -43.5t39.5 -16.5q24 -3 52 5.5t45 18.5l-7 -162q-49 -20 -115 -20q-64 0 -108.5 17t-66 45.5t-28.5 61t-3 69.5l4 30h-86l15 124h87l6 49h-98z" />
    <glyph glyph-name="Utilde" unicode="&#x168;" horiz-adv-x="746" 
d="M356 148q89 0 122 36.5t41 106.5l60 489h185l-60 -493q-9 -69 -31 -121t-63.5 -94.5t-110 -65t-163.5 -22.5t-158.5 22.5t-94.5 65t-40.5 94.5t-0.5 121l60 493h185l-60 -489q-5 -29 -2 -55t14 -45.5t40.5 -31t76.5 -11.5zM522 806q-36 0 -66 12t-45.5 26t-32.5 26
t-32 12q-16 0 -26.5 -12t-13.5 -24l-3 -11l-122 15q17 94 61 145t128 51q36 0 66 -12t45.5 -26t32.5 -26t32 -12q16 0 26.5 12t13.5 24l3 11l122 -15q-17 -94 -61 -145t-128 -51z" />
    <glyph glyph-name="utilde" unicode="&#x169;" horiz-adv-x="645" 
d="M438 576q-36 0 -66 12t-45.5 26t-32.5 26t-32 12q-16 0 -26.5 -12t-13.5 -24l-3 -11l-122 15q17 94 61 145t128 51q36 0 66 -12t45.5 -26t32.5 -26t32 -12q16 0 26.5 12t13.5 24l3 11l122 -15q-17 -94 -61 -145t-128 -51zM400 0l-6 57q-73 -73 -176 -73q-108 0 -157 53
t-34 168l40 325h180l-38 -302q-5 -44 12.5 -63t56.5 -18q75 1 121 50l41 333h180l-47 -376l-8 -154h-165z" />
    <glyph glyph-name="Umacron" unicode="&#x16a;" horiz-adv-x="746" 
d="M356 148q89 0 122 36.5t41 106.5l60 489h185l-60 -493q-9 -69 -31 -121t-63.5 -94.5t-110 -65t-163.5 -22.5t-158.5 22.5t-94.5 65t-40.5 94.5t-0.5 121l60 493h185l-60 -489q-5 -29 -2 -55t14 -45.5t40.5 -31t76.5 -11.5zM607 846h-332l21 164h332z" />
    <glyph glyph-name="umacron" unicode="&#x16b;" horiz-adv-x="645" 
d="M523 616h-332l20 164h332zM400 0l-6 57q-73 -73 -176 -73q-108 0 -157 53t-34 168l40 325h180l-38 -302q-5 -44 12.5 -63t56.5 -18q75 1 121 50l41 333h180l-47 -376l-8 -154h-165z" />
    <glyph glyph-name="Ubreve" unicode="&#x16c;" horiz-adv-x="746" 
d="M356 148q89 0 122 36.5t41 106.5l60 489h185l-60 -493q-9 -69 -31 -121t-63.5 -94.5t-110 -65t-163.5 -22.5t-158.5 22.5t-94.5 65t-40.5 94.5t-0.5 121l60 493h185l-60 -489q-5 -29 -2 -55t14 -45.5t40.5 -31t76.5 -11.5zM438 806q-113 0 -156.5 56.5t-30.5 167.5h137
q-6 -62 68 -62t78 62h143q-9 -112 -65 -168t-174 -56z" />
    <glyph glyph-name="ubreve" unicode="&#x16d;" horiz-adv-x="645" 
d="M354 576q-113 0 -156.5 56.5t-30.5 167.5h137q-6 -62 68 -62t78 62h143q-9 -112 -65 -168t-174 -56zM400 0l-6 57q-73 -73 -176 -73q-108 0 -157 53t-34 168l40 325h180l-38 -302q-5 -44 12.5 -63t56.5 -18q75 1 121 50l41 333h180l-47 -376l-8 -154h-165z" />
    <glyph glyph-name="Uring" unicode="&#x16e;" horiz-adv-x="746" 
d="M356 148q89 0 122 36.5t41 106.5l60 489h185l-60 -493q-9 -69 -31 -121t-63.5 -94.5t-110 -65t-163.5 -22.5t-158.5 22.5t-94.5 65t-40.5 94.5t-0.5 121l60 493h185l-60 -489q-5 -29 -2 -55t14 -45.5t40.5 -31t76.5 -11.5zM448 905q24 0 24 25q0 17 -18 17q-24 0 -24 -25
q0 -17 18 -17zM436 806q-51 0 -78.5 27.5t-27.5 72.5q0 60 37 100t99 40q51 0 78.5 -27.5t27.5 -72.5q0 -60 -37 -100t-99 -40z" />
    <glyph glyph-name="uring" unicode="&#x16f;" horiz-adv-x="645" 
d="M364 675q24 0 24 25q0 17 -18 17q-24 0 -24 -25q0 -17 18 -17zM352 576q-51 0 -78.5 27.5t-27.5 72.5q0 60 37 100t99 40q51 0 78.5 -27.5t27.5 -72.5q0 -60 -37 -100t-99 -40zM400 0l-6 57q-73 -73 -176 -73q-108 0 -157 53t-34 168l40 325h180l-38 -302
q-5 -44 12.5 -63t56.5 -18q75 1 121 50l41 333h180l-47 -376l-8 -154h-165z" />
    <glyph glyph-name="Uhungarumlaut" unicode="&#x170;" horiz-adv-x="746" 
d="M356 148q89 0 122 36.5t41 106.5l60 489h185l-60 -493q-9 -69 -31 -121t-63.5 -94.5t-110 -65t-163.5 -22.5t-158.5 22.5t-94.5 65t-40.5 94.5t-0.5 121l60 493h185l-60 -489q-5 -29 -2 -55t14 -45.5t40.5 -31t76.5 -11.5zM362 1030h196l-137 -208h-179zM578 1030h196
l-137 -208h-179z" />
    <glyph glyph-name="uhungarumlaut" unicode="&#x171;" horiz-adv-x="645" 
d="M278 800h196l-137 -208h-179zM494 800h196l-137 -208h-179zM400 0l-6 57q-73 -73 -176 -73q-108 0 -157 53t-34 168l40 325h180l-38 -302q-5 -44 12.5 -63t56.5 -18q75 1 121 50l41 333h180l-47 -376l-8 -154h-165z" />
    <glyph glyph-name="Uogonek" unicode="&#x172;" horiz-adv-x="746" 
d="M467 -2q-38 -9 -65 -30t-27 -40q0 -23 25 -23q7 0 15.5 2t15 4.5t12 5t7.5 4.5l3 2l20 -114q-44 -25 -108 -25q-123 0 -123 112q0 48 26 92q-143 14 -192.5 92t-33.5 207l60 493h185l-60 -489q-5 -29 -2 -55t14 -45.5t40.5 -31t76.5 -11.5q89 0 122 36.5t41 106.5l60 489
h185l-60 -493q-14 -114 -68.5 -188t-168.5 -101z" />
    <glyph glyph-name="uogonek" unicode="&#x173;" horiz-adv-x="645" 
d="M573 154l-8 -154q-47 -4 -79 -27t-32 -47q0 -21 25 -21q12 0 25 4.5t20.5 8.5t7.5 5l20 -114q-44 -25 -108 -25q-123 0 -123 107q0 71 77 127l-4 39q-73 -73 -176 -73q-108 0 -157 53t-34 168l40 325h180l-38 -302q-5 -44 12.5 -63t56.5 -18q75 1 121 50l41 333h180z" />
    <glyph glyph-name="Wcircumflex" unicode="&#x174;" horiz-adv-x="1020" 
d="M522 822h-183l184 208h156l132 -208h-183l-45 59zM566 373l-15 233l-74 -233l-118 -381h-233l-50 788h203l7 -344v-178l55 182l109 340h244l26 -340l9 -182l44 178l91 344h200l-245 -788h-227z" />
    <glyph glyph-name="wcircumflex" unicode="&#x175;" horiz-adv-x="850" 
d="M438 193l-3 177l-47 -177l-56 -193h-252l-31 530h187l-2 -200l-6 -159l51 171l60 188h232l12 -188l9 -171l34 159l48 200h187l-161 -530h-252zM409 592h-183l184 208h156l132 -208h-183l-46 59z" />
    <glyph glyph-name="Ycircumflex" unicode="&#x176;" horiz-adv-x="730" 
d="M380 477l217 303h223l-361 -485l-36 -295h-186l36 295l-243 485h213zM666 822h-180l-43 59l-62 -59h-187l184 208h156z" />
    <glyph glyph-name="ycircumflex" unicode="&#x177;" horiz-adv-x="626" 
d="M297 592h-183l184 208h156l132 -208h-183l-46 59zM665 530l-289 -497l-127 -233h-208l143 242l-163 488h198l39 -163l39 -171l83 171l81 163h204z" />
    <glyph glyph-name="Ydieresis" unicode="&#x178;" horiz-adv-x="730" 
d="M426 1010l-23 -182h-184l23 182h184zM666 1010l-23 -182h-184l23 182h184zM380 477l217 303h223l-361 -485l-36 -295h-186l36 295l-243 485h213z" />
    <glyph glyph-name="Zacute" unicode="&#x179;" horiz-adv-x="682" 
d="M429 1030h196l-137 -208h-179zM-21 0l16 129l452 487l-128 -1h-247l20 165h629l-16 -129l-452 -487l128 1h265l-20 -165h-647z" />
    <glyph glyph-name="zacute" unicode="&#x17a;" horiz-adv-x="566" 
d="M345 800h196l-137 -208h-179zM-22 0l15 126l287 245h-239l20 159h511l-16 -126l-287 -245h268l-19 -159h-540z" />
    <glyph glyph-name="Zdotaccent" unicode="&#x17b;" horiz-adv-x="682" 
d="M519 1010l-23 -182h-184l23 182h184zM-21 0l16 129l452 487l-128 -1h-247l20 165h629l-16 -129l-452 -487l128 1h265l-20 -165h-647z" />
    <glyph glyph-name="zdotaccent" unicode="&#x17c;" horiz-adv-x="566" 
d="M434 780l-22 -182h-184l22 182h184zM-22 0l15 126l287 245h-239l20 159h511l-16 -126l-287 -245h268l-19 -159h-540z" />
    <glyph glyph-name="Zcaron" unicode="&#x17d;" horiz-adv-x="682" 
d="M-21 0l16 129l452 487l-128 -1h-247l20 165h629l-16 -129l-452 -487l128 1h265l-20 -165h-647zM193 1030h180l43 -59l62 59h187l-184 -208h-156z" />
    <glyph glyph-name="zcaron" unicode="&#x17e;" horiz-adv-x="566" 
d="M-22 0l15 126l287 245h-239l20 159h511l-16 -126l-287 -245h268l-19 -159h-540zM109 800h180l43 -59l62 59h187l-184 -208h-156z" />
    <glyph glyph-name="Schwa" unicode="&#x18f;" horiz-adv-x="743" 
d="M42 461h509q0 81 -30.5 125.5t-111.5 44.5q-78 0 -115.5 -26.5t-47.5 -92.5l-178 61q27 107 116.5 165t240.5 58q160 0 236.5 -83.5t76.5 -232.5q0 -151 -41.5 -260t-133.5 -172.5t-229 -63.5q-307 0 -307 313q0 54 15 164zM350 149q78 0 119.5 41.5t60.5 115.5h-317
q0 -75 29.5 -116t107.5 -41z" />
    <glyph glyph-name="florin" unicode="&#x192;" horiz-adv-x="464" 
d="M84 2l38 312h-107l18 150h107l16 123q10 81 69.5 137t182.5 56q67 0 111 -20l-33 -162q-43 29 -91 24q-56 -6 -62 -60l-13 -98h145l-18 -150h-145l-41 -337q-11 -81 -70.5 -137t-182.5 -56q-66 0 -110 20l33 162q43 -29 90 -24q57 6 63 60z" />
    <glyph glyph-name="Khook" unicode="&#x198;" horiz-adv-x="761" 
d="M297 780l-41 -344q44 15 78.5 43t56.5 60.5t42 68.5t43 69t51.5 60t74.5 43t107 16q70 0 93 -16l-39 -164q-18 12 -51 12q-37 0 -66 -26t-45 -59.5t-41 -75.5t-50 -63l218 -404h-246l-136 281q-15 -12 -44 -25.5t-51 -20.5l-22 -7l-27 -228h-185l95 780h185z" />
    <glyph glyph-name="khook" unicode="&#x199;" horiz-adv-x="640" 
d="M9 0l76 623q10 81 70 137t183 56q66 0 110 -20l-33 -162q-40 29 -91 24q-56 -7 -62 -60l-30 -247l55 60l116 119h257l-239 -208l186 -322h-234l-98 202l-69 -59l-17 -143h-180z" />
    <glyph glyph-name="Ezh" unicode="&#x1b7;" horiz-adv-x="750" 
d="M172 334l271 281h-341l20 165h599l-16 -129l-223 -235q99 -18 155 -81.5t56 -175.5q0 -99 -34 -174t-91 -117.5t-124 -63t-141 -20.5q-155 0 -232 60t-79 167l193 66q-7 -64 28.5 -96t109.5 -32q85 0 135.5 46t50.5 141q0 65 -35.5 98t-101.5 33q-70 0 -115 -47z" />
    <glyph glyph-name="Acaron" unicode="&#x1cd;" horiz-adv-x="754" 
d="M520 1030h183l-184 -208h-156l-132 208h183l46 -59zM525 0l-25 133h-286l-57 -133h-198l369 790h218l177 -790h-198zM381 520l-103 -237h193l-44 237l-13 79z" />
    <glyph glyph-name="acaron" unicode="&#x1ce;" horiz-adv-x="655" 
d="M140 800h180l43 -59l62 59h187l-184 -208h-156zM606 376l-28 -222l-8 -154h-165l-6 57q-67 -73 -167 -73q-211 0 -211 217q0 158 72 251.5t208 93.5q106 0 150 -73l19 57h165zM404 197l16 136q-32 50 -99 50q-47 0 -80 -36t-33 -107q0 -47 23 -70t61 -23q67 0 112 50z
" />
    <glyph glyph-name="Icaron" unicode="&#x1cf;" horiz-adv-x="311" 
d="M308 780l-95 -780h-185l95 780h185zM10 1030h180l43 -59l62 59h187l-184 -208h-156z" />
    <glyph glyph-name="icaron" unicode="&#x1d0;" horiz-adv-x="290" 
d="M15 0l65 530h180l-65 -530h-180zM-33 800h180l43 -59l62 59h187l-184 -208h-156z" />
    <glyph glyph-name="Ocaron" unicode="&#x1d1;" horiz-adv-x="820" 
d="M452 631q-60 0 -104 -26.5t-67 -72t-33.5 -96.5t-10.5 -111q0 -176 156 -176q61 0 105 26.5t67 73t33 98t10 111.5q0 173 -156 173zM373 -16q-167 0 -245.5 84t-78.5 237q0 105 25.5 192.5t75.5 155t132.5 105.5t189.5 38q166 0 245 -83.5t79 -234.5q0 -105 -25 -193
t-75 -156.5t-132.5 -106.5t-190.5 -38zM265 1030h180l43 -59l62 59h187l-184 -208h-156z" />
    <glyph glyph-name="ocaron" unicode="&#x1d2;" horiz-adv-x="620" 
d="M292 146q117 0 117 152q0 48 -22 67t-65 19q-117 0 -117 -151q0 -48 22.5 -67.5t64.5 -19.5zM273 -16q-120 0 -185.5 58.5t-65.5 170.5q0 161 88 247t232 86q120 0 185 -58t65 -170q0 -162 -87.5 -248t-231.5 -86zM137 800h180l43 -59l62 59h187l-184 -208h-156z" />
    <glyph glyph-name="Ucaron" unicode="&#x1d3;" horiz-adv-x="746" 
d="M356 148q89 0 122 36.5t41 106.5l60 489h185l-60 -493q-9 -69 -31 -121t-63.5 -94.5t-110 -65t-163.5 -22.5t-158.5 22.5t-94.5 65t-40.5 94.5t-0.5 121l60 493h185l-60 -489q-5 -29 -2 -55t14 -45.5t40.5 -31t76.5 -11.5zM228 1030h180l43 -59l62 59h187l-184 -208h-156
z" />
    <glyph glyph-name="ucaron" unicode="&#x1d4;" horiz-adv-x="645" 
d="M144 800h180l43 -59l62 59h187l-184 -208h-156zM400 0l-6 57q-73 -73 -176 -73q-108 0 -157 53t-34 168l40 325h180l-38 -302q-5 -44 12.5 -63t56.5 -18q75 1 121 50l41 333h180l-47 -376l-8 -154h-165z" />
    <glyph glyph-name="Adieresismacron" unicode="&#x1de;" horiz-adv-x="754" 
d="M525 0l-25 133h-286l-57 -133h-198l369 790h218l177 -790h-198zM381 520l-103 -237h193l-44 237l-13 79zM437 1010l-23 -182h-184l23 182h184zM677 1010l-23 -182h-184l23 182h184zM634 1036h-332l20 164h332z" />
    <glyph glyph-name="adieresismacron" unicode="&#x1df;" horiz-adv-x="655" 
d="M606 376l-36 -222v-154h-165l-6 57q-67 -73 -167 -73q-211 0 -211 217q0 158 72 251.5t208 93.5q106 0 150 -73l19 57h165zM404 197l16 136q-32 50 -99 50q-47 0 -80 -36t-33 -107q0 -47 23 -70t61 -23q67 0 112 50zM343 760l-23 -182h-184l23 182h184zM583 760l-23 -182
h-184l23 182h184zM540 786h-332l20 164h332z" />
    <glyph glyph-name="AEmacron" unicode="&#x1e2;" horiz-adv-x="1060" 
d="M759 846h-332l21 164h332zM501 0l-4 166h-253l-101 -166h-204l513 780h613l-20 -165h-381l6 -134h305l-21 -165h-278l7 -151h327l-20 -165h-489zM490 570l-155 -254h159l-3 210z" />
    <glyph glyph-name="aemacron" unicode="&#x1e3;" horiz-adv-x="966" 
d="M637 -16q-135 0 -193 70q-96 -70 -235 -70q-113 0 -164 47t-42 122q21 167 232 167h155l4 33q3 21 -12 34.5t-60 13.5t-64 -12.5t-23 -37.5l-172 59q45 136 270 136q131 0 183 -58q71 58 179 58q134 0 196.5 -72t45.5 -209l-6 -51h-376q-5 -39 19.5 -61t73.5 -22
q80 0 90 40l169 -58q-23 -57 -90.5 -93t-179.5 -36zM684 616h-332l20 164h332zM190 167q-2 -19 11 -31t39 -12q84 0 130 37l7 53h-118q-63 0 -69 -47zM677 399q-42 0 -71 -21.5t-35 -57.5h181q7 38 -14 58.5t-61 20.5z" />
    <glyph glyph-name="Gstroke" unicode="&#x1e4;" horiz-adv-x="866" 
d="M236 329q0 -88 40 -134t137 -46q79 0 132 21l3 22h-151l8 66h151l5 39h-160l18 150h344l-24 -189h101l-8 -66h-101l-15 -128q-83 -47 -160 -63.5t-172 -16.5q-336 0 -336 322q0 104 26 191.5t77 155t133 105.5t187 38q161 0 235 -54.5t75 -163.5l-192 -66q3 65 -30.5 92
t-101.5 27q-61 0 -105.5 -25t-69 -69.5t-35.5 -95.5t-11 -112z" />
    <glyph glyph-name="gstroke" unicode="&#x1e5;" horiz-adv-x="644" 
d="M381 10l7 59q-24 -25 -67.5 -42t-94.5 -17q-97 0 -150 52.5t-53 156.5q0 161 75 244t204 83q104 0 149 -73l18 57h165l-28 -154l-45 -366h55l-8 -62h-60q-28 -83 -110 -123.5t-185 -40.5q-134 0 -197.5 31t-66.5 104l186 64q-2 -29 17 -40.5t69 -11.5q54 0 83 17h-50
l8 62h79zM407 223l13 110q-32 50 -99 50q-112 0 -112 -130q0 -80 86 -80q67 0 112 50z" />
    <glyph glyph-name="Gcaron" unicode="&#x1e6;" horiz-adv-x="805" 
d="M260 1030h180l43 -59l62 59h187l-184 -208h-156zM48 306q0 104 26 191.5t77 155t133 105.5t187 38q161 0 235 -54.5t75 -163.5l-192 -66q3 65 -30.5 92t-101.5 27q-61 0 -105.5 -25t-69 -69.5t-35.5 -95.5t-11 -112q0 -88 40 -134t137 -46q79 0 132 21l16 127h-160
l18 150h344l-47 -383q-83 -47 -160 -63.5t-172 -16.5q-336 0 -336 322z" />
    <glyph glyph-name="gcaron" unicode="&#x1e7;" horiz-adv-x="644" 
d="M140 800h180l43 -59l62 59h187l-184 -208h-156zM606 376l-47 -382q-9 -72 -57 -121t-111 -69t-138 -20q-134 0 -197.5 31t-66.5 104l186 64q-2 -29 17 -40.5t69 -11.5q111 0 119 71l8 67q-24 -25 -67.5 -42t-94.5 -17q-97 0 -150 52.5t-53 156.5q0 161 75 244t204 83
q104 0 149 -73l18 57h165zM407 223l13 110q-32 50 -99 50q-112 0 -112 -130q0 -80 86 -80q67 0 112 50z" />
    <glyph glyph-name="Kcaron" unicode="&#x1e8;" horiz-adv-x="761" 
d="M217 1030h180l43 -59l62 59h187l-184 -208h-156zM297 780l-40 -326l113 128l182 198h260l-314 -308l230 -472h-231l-142 333l-128 -129l-25 -204h-185l95 780h185z" />
    <glyph glyph-name="kcaron" unicode="&#x1e9;" horiz-adv-x="640" 
d="M189 0h-180l98 800h180l-55 -449l55 60l116 119h257l-239 -208l186 -322h-234l-98 202l-69 -59zM-10 1030h180l43 -59l62 59h187l-184 -208h-156z" />
    <glyph glyph-name="Oogonek" unicode="&#x1ea;" horiz-adv-x="820" 
d="M481 -5q-89 -20 -89 -69q0 -21 25 -21q12 0 25 4.5t20.5 8.5t7.5 5l20 -114q-44 -25 -108 -25q-123 0 -123 107q0 52 44 98q-254 33 -254 316q0 105 25.5 192.5t75.5 155t132.5 105.5t189.5 38q166 0 245 -83.5t79 -234.5q0 -188 -78.5 -318t-236.5 -165zM452 631
q-60 0 -104 -26.5t-67 -72t-33.5 -96.5t-10.5 -111q0 -176 156 -176q61 0 105 26.5t67 73t33 98t10 111.5q0 173 -156 173z" />
    <glyph glyph-name="oogonek" unicode="&#x1eb;" horiz-adv-x="620" 
d="M160 -109q0 53 44 99q-88 15 -135 71.5t-47 151.5q0 161 88 247t232 86q120 0 185 -58t65 -170q0 -128 -57 -211t-160 -110q-36 -9 -59 -29t-23 -39q0 -24 25 -24q7 0 15.5 2t15 4.5t12 5t7.5 4.5l3 2l20 -114q-44 -25 -108 -25q-123 0 -123 107zM292 146q117 0 117 152
q0 48 -22 67t-65 19q-117 0 -117 -151q0 -48 22.5 -67.5t64.5 -19.5z" />
    <glyph glyph-name="uni004F02DB00AF" unicode="&#x1ec;" horiz-adv-x="820" 
d="M644 846h-332l21 164h332zM481 -5q-89 -20 -89 -69q0 -21 25 -21q12 0 25 4.5t20.5 8.5t7.5 5l20 -114q-44 -25 -108 -25q-123 0 -123 107q0 52 44 98q-254 33 -254 316q0 105 25.5 192.5t75.5 155t132.5 105.5t189.5 38q166 0 245 -83.5t79 -234.5q0 -188 -78.5 -318
t-236.5 -165zM452 631q-60 0 -104 -26.5t-67 -72t-33.5 -96.5t-10.5 -111q0 -176 156 -176q61 0 105 26.5t67 73t33 98t10 111.5q0 173 -156 173z" />
    <glyph glyph-name="oogonekmacron" unicode="&#x1ed;" horiz-adv-x="620" 
d="M160 -109q0 53 44 99q-88 15 -135 71.5t-47 151.5q0 161 88 247t232 86q120 0 185 -58t65 -170q0 -128 -57 -211t-160 -110q-36 -9 -59 -29t-23 -39q0 -24 25 -24q7 0 15.5 2t15 4.5t12 5t7.5 4.5l3 2l20 -114q-44 -25 -108 -25q-123 0 -123 107zM516 616h-332l20 164
h332zM292 146q117 0 117 152q0 48 -22 67t-65 19q-117 0 -117 -151q0 -48 22.5 -67.5t64.5 -19.5z" />
    <glyph glyph-name="Ezhcaron" unicode="&#x1ee;" horiz-adv-x="750" 
d="M172 334l271 281h-341l20 165h599l-16 -129l-223 -235q99 -18 155 -81.5t56 -175.5q0 -99 -34 -174t-91 -117.5t-124 -63t-141 -20.5q-155 0 -232 60t-79 167l193 66q-7 -64 28.5 -96t109.5 -32q85 0 135.5 46t50.5 141q0 65 -35.5 98t-101.5 33q-70 0 -115 -47z
M208 1030h180l43 -59l62 59h187l-184 -208h-156z" />
    <glyph glyph-name="ezhcaron" unicode="&#x1ef;" horiz-adv-x="645" 
d="M262 -58q78 0 115 26t37 85q0 38 -30.5 59t-87.5 21q-59 0 -113 -37l-65 98l219 177h-288l20 159h551l-16 -126l-168 -134q163 -30 163 -189q0 -149 -96 -223t-257 -74q-278 0 -289 175l194 66q-3 -40 24 -61.5t87 -21.5zM137 800h180l43 -59l62 59h187l-184 -208h-156z
" />
    <glyph glyph-name="jcaron" unicode="&#x1f0;" horiz-adv-x="290" 
d="M15 2l65 528h180l-68 -553q-11 -81 -70.5 -137t-181.5 -56q-67 0 -111 20l33 162q43 -29 91 -24q56 7 62 60zM-33 800h180l43 -59l62 59h187l-184 -208h-156z" />
    <glyph glyph-name="jcaron" unicode="&#xe10c;" horiz-adv-x="290" 
d="M15 2l65 528h180l-68 -553q-11 -81 -70.5 -137t-181.5 -56q-67 0 -111 20l33 162q43 -29 91 -24q56 7 62 60zM-33 800h180l43 -59l62 59h187l-184 -208h-156z" />
    <glyph glyph-name="Gacute" unicode="&#x1f4;" horiz-adv-x="805" 
d="M496 1030h196l-137 -208h-179zM48 306q0 104 26 191.5t77 155t133 105.5t187 38q161 0 235 -54.5t75 -163.5l-192 -66q3 65 -30.5 92t-101.5 27q-61 0 -105.5 -25t-69 -69.5t-35.5 -95.5t-11 -112q0 -88 40 -134t137 -46q79 0 132 21l16 127h-160l18 150h344l-47 -383
q-83 -47 -160 -63.5t-172 -16.5q-336 0 -336 322z" />
    <glyph glyph-name="gacute" unicode="&#x1f5;" horiz-adv-x="644" 
d="M376 800h196l-137 -208h-179zM606 376l-47 -382q-9 -72 -57 -121t-111 -69t-138 -20q-134 0 -197.5 31t-66.5 104l186 64q-2 -29 17 -40.5t69 -11.5q111 0 119 71l8 67q-24 -25 -67.5 -42t-94.5 -17q-97 0 -150 52.5t-53 156.5q0 161 75 244t204 83q104 0 149 -73l18 57
h165zM407 223l13 110q-32 50 -99 50q-112 0 -112 -130q0 -80 86 -80q67 0 112 50z" />
    <glyph glyph-name="Ngrave" unicode="&#x1f8;" horiz-adv-x="768" 
d="M290 780l247 -453l16 145l38 308h185l-95 -780h-178l-247 453l-17 -145l-37 -308h-185l95 780h178zM279 1030h196l68 -208h-179z" />
    <glyph glyph-name="ngrave" unicode="&#x1f9;" horiz-adv-x="645" 
d="M186 800h196l68 -208h-179zM235 530l5 -57q73 73 177 73q108 0 156.5 -52.5t33.5 -168.5l-39 -325h-180l37 302q5 44 -12.5 63t-55.5 18q-76 -1 -122 -50l-40 -333h-180l46 376l9 154h165z" />
    <glyph glyph-name="Aringacute" unicode="&#x1fa;" horiz-adv-x="754" 
d="M417 1134h148l-65 -92q41 -9 60 -40t14 -76q-6 -53 -42.5 -86.5t-92.5 -33.5t-83.5 33t-21.5 87q3 30 14 48zM525 0l-25 133h-286l-57 -133h-198l369 790h218l177 -790h-198zM381 520l-103 -237h193l-44 237l-13 79zM482 926q4 28 -24 28t-32 -28q-3 -28 25 -28t31 28z
" />
    <glyph glyph-name="aringacute" unicode="&#x1fb;" horiz-adv-x="655" 
d="M360 675q24 0 24 25q0 17 -18 17q-24 0 -24 -25q0 -17 18 -17zM325 904h148l-64 -92q36 -8 55.5 -34t19.5 -63q0 -61 -37.5 -100t-98.5 -39q-51 0 -78.5 27.5t-27.5 72.5q0 35 12 62zM606 376l-28 -222l-8 -154h-165l-6 57q-67 -73 -167 -73q-211 0 -211 217
q0 158 72 251.5t208 93.5q106 0 150 -73l19 57h165zM404 197l16 136q-32 50 -99 50q-47 0 -80 -36t-33 -107q0 -47 23 -70t61 -23q67 0 112 50z" />
    <glyph glyph-name="AEacute" unicode="&#x1fc;" horiz-adv-x="1060" 
d="M626 1030h196l-137 -208h-179zM501 0l-4 166h-253l-101 -166h-204l513 780h613l-20 -165h-381l6 -134h305l-21 -165h-278l7 -151h327l-20 -165h-489zM490 570l-155 -254h159l-3 210z" />
    <glyph glyph-name="aeacute" unicode="&#x1fd;" horiz-adv-x="966" 
d="M637 -16q-135 0 -193 70q-96 -70 -235 -70q-113 0 -164 47t-42 122q21 167 232 167h155l4 33q3 21 -12 34.5t-60 13.5t-64 -12.5t-23 -37.5l-172 59q45 136 270 136q131 0 183 -58q71 58 179 58q134 0 196.5 -72t45.5 -209l-6 -51h-376q-5 -39 19.5 -61t73.5 -22
q80 0 90 40l169 -58q-23 -57 -90.5 -93t-179.5 -36zM541 800h196l-137 -208h-179zM190 167q-2 -19 11 -31t39 -12q84 0 130 37l7 53h-118q-63 0 -69 -47zM677 399q-42 0 -71 -21.5t-35 -57.5h181q7 38 -14 58.5t-61 20.5z" />
    <glyph glyph-name="Oslashacute" unicode="&#x1fe;" horiz-adv-x="820" 
d="M501 1030h196l-137 -208h-179zM789 780l-63 -78q70 -80 70 -224q0 -105 -25 -193t-75 -156.5t-132.5 -106.5t-190.5 -38q-115 0 -190 42l-21 -26h-106l63 78q-70 80 -70 227q0 105 25.5 192.5t75.5 155t132.5 105.5t189.5 38q114 0 190 -42l21 26h106zM452 631
q-60 0 -104 -26.5t-67 -72t-33.5 -96.5t-10.5 -111q0 -51 12 -86l296 369q-38 23 -93 23zM393 149q60 0 104 26.5t67 72t33.5 96.5t10.5 111q0 51 -12 86l-296 -369q38 -23 93 -23z" />
    <glyph glyph-name="oslashacute" unicode="&#x1ff;" horiz-adv-x="600" 
d="M373 800h196l-137 -208h-179zM209 200l150 180q-16 4 -37 4q-117 0 -117 -148q0 -16 4 -36zM41 0l40 48q-59 59 -59 165q0 155 86.5 244t233.5 89q77 0 135 -26l9 10h88l-40 -48q59 -59 59 -165q0 -155 -86.5 -244t-233.5 -89q-77 0 -135 26l-9 -10h-88zM406 330
l-150 -180q16 -4 37 -4q117 0 117 148q0 16 -4 36z" />
    <glyph glyph-name="Adoublegrave" unicode="&#x200;" horiz-adv-x="754" 
d="M373 1030h196l68 -208h-179zM157 1030h196l68 -208h-179zM525 0l-25 133h-286l-57 -133h-198l369 790h218l177 -790h-198zM381 520l-103 -237h193l-44 237l-13 79z" />
    <glyph glyph-name="edoublegrave" unicode="&#x201;" horiz-adv-x="615" 
d="M580 214h-376q-1 -43 23 -63t70 -20q80 0 90 40l169 -58q-23 -57 -90.5 -93t-179.5 -36q-127 0 -195.5 59.5t-68.5 172.5q0 157 89 243.5t233 86.5q120 0 183 -57.5t63 -168.5q0 -44 -10 -106zM326 399q-42 0 -71 -21.5t-35 -57.5h181q8 36 -13.5 57.5t-61.5 21.5z
M277 800h196l68 -208h-179zM61 800h196l68 -208h-179z" />
    <glyph glyph-name="edoublegrave" unicode="&#x205;" horiz-adv-x="615" 
d="M580 214h-376q-1 -43 23 -63t70 -20q80 0 90 40l169 -58q-23 -57 -90.5 -93t-179.5 -36q-127 0 -195.5 59.5t-68.5 172.5q0 157 89 243.5t233 86.5q120 0 183 -57.5t63 -168.5q0 -44 -10 -106zM326 399q-42 0 -71 -21.5t-35 -57.5h181q8 36 -13.5 57.5t-61.5 21.5z
M277 800h196l68 -208h-179zM61 800h196l68 -208h-179z" />
    <glyph glyph-name="Ainvertedbreve" unicode="&#x202;" horiz-adv-x="754" 
d="M469 1046q115 0 158 -56.5t27 -167.5h-140q5 33 -10.5 47.5t-54.5 14.5t-58 -14.5t-23 -47.5h-140q12 111 69 167.5t172 56.5zM525 0l-25 133h-286l-57 -133h-198l369 790h218l177 -790h-198zM381 520l-103 -237h193l-44 237l-13 79z" />
    <glyph glyph-name="ainvertedbreve" unicode="&#x203;" horiz-adv-x="655" 
d="M371 816q113 0 156.5 -56.5t30.5 -167.5h-137q6 62 -68 62t-78 -62h-143q9 112 65 168t174 56zM606 376l-28 -222l-8 -154h-165l-6 57q-67 -73 -167 -73q-211 0 -211 217q0 158 72 251.5t208 93.5q106 0 150 -73l19 57h165zM404 197l16 136q-32 50 -99 50q-47 0 -80 -36
t-33 -107q0 -47 23 -70t61 -23q67 0 112 50z" />
    <glyph glyph-name="Edoublegrave" unicode="&#x204;" horiz-adv-x="668" 
d="M112 780h566l-20 -165h-381l-16 -134h327l-21 -165h-327l-18 -151h401l-20 -165h-586zM332 1030h196l68 -208h-179zM116 1030h196l68 -208h-179z" />
    <glyph glyph-name="Einvertedbreve" unicode="&#x206;" horiz-adv-x="668" 
d="M112 780h566l-20 -165h-381l-16 -134h327l-21 -165h-327l-18 -151h401l-20 -165h-586zM416 1046q113 0 156.5 -56.5t30.5 -167.5h-137q6 62 -68 62t-78 -62h-143q9 112 65 168t174 56z" />
    <glyph glyph-name="einvertedbreve" unicode="&#x207;" horiz-adv-x="615" 
d="M580 214h-376q-1 -43 23 -63t70 -20q80 0 90 40l169 -58q-23 -57 -90.5 -93t-179.5 -36q-127 0 -195.5 59.5t-68.5 172.5q0 157 89 243.5t233 86.5q120 0 183 -57.5t63 -168.5q0 -44 -10 -106zM326 399q-42 0 -71 -21.5t-35 -57.5h181q8 36 -13.5 57.5t-61.5 21.5z
M371 816q113 0 156.5 -56.5t30.5 -167.5h-137q6 62 -68 62t-78 -62h-143q9 112 65 168t174 56z" />
    <glyph glyph-name="Idoublegrave" unicode="&#x208;" horiz-adv-x="311" 
d="M308 780l-95 -780h-185l95 780h185zM147 1030h196l68 -208h-179zM-69 1030h196l68 -208h-179z" />
    <glyph glyph-name="idoublegrave" unicode="&#x209;" horiz-adv-x="290" 
d="M15 0l65 530h180l-65 -530h-180zM109 800h196l68 -208h-179zM-107 800h196l68 -208h-179z" />
    <glyph glyph-name="Iinvertedbreve" unicode="&#x20a;" horiz-adv-x="311" 
d="M308 780l-95 -780h-185l95 780h185zM241 1046q113 0 156.5 -56.5t30.5 -167.5h-137q6 62 -68 62t-78 -62h-143q9 112 65 168t174 56z" />
    <glyph glyph-name="iinvertedbreve" unicode="&#x20b;" horiz-adv-x="290" 
d="M15 0l65 530h180l-65 -530h-180zM203 816q113 0 156.5 -56.5t30.5 -167.5h-137q6 62 -68 62t-78 -62h-143q9 112 65 168t174 56z" />
    <glyph glyph-name="Odoublegrave" unicode="&#x20c;" horiz-adv-x="820" 
d="M452 631q-60 0 -104 -26.5t-67 -72t-33.5 -96.5t-10.5 -111q0 -176 156 -176q61 0 105 26.5t67 73t33 98t10 111.5q0 173 -156 173zM373 -16q-167 0 -245.5 84t-78.5 237q0 105 25.5 192.5t75.5 155t132.5 105.5t189.5 38q166 0 245 -83.5t79 -234.5q0 -105 -25 -193
t-75 -156.5t-132.5 -106.5t-190.5 -38zM402 1030h196l68 -208h-179zM186 1030h196l68 -208h-179z" />
    <glyph glyph-name="odoublegrave" unicode="&#x20d;" horiz-adv-x="620" 
d="M292 146q117 0 117 152q0 48 -22 67t-65 19q-117 0 -117 -151q0 -48 22.5 -67.5t64.5 -19.5zM273 -16q-120 0 -185.5 58.5t-65.5 170.5q0 161 88 247t232 86q120 0 185 -58t65 -170q0 -162 -87.5 -248t-231.5 -86zM274 800h196l68 -208h-179zM58 800h196l68 -208h-179z
" />
    <glyph glyph-name="Oinvertedbreve" unicode="&#x20e;" horiz-adv-x="820" 
d="M452 631q-60 0 -104 -26.5t-67 -72t-33.5 -96.5t-10.5 -111q0 -176 156 -176q61 0 105 26.5t67 73t33 98t10 111.5q0 173 -156 173zM373 -16q-167 0 -245.5 84t-78.5 237q0 105 25.5 192.5t75.5 155t132.5 105.5t189.5 38q166 0 245 -83.5t79 -234.5q0 -105 -25 -193
t-75 -156.5t-132.5 -106.5t-190.5 -38zM496 1046q113 0 156.5 -56.5t30.5 -167.5h-137q6 62 -68 62t-78 -62h-143q9 112 65 168t174 56z" />
    <glyph glyph-name="oinvertedbreve" unicode="&#x20f;" horiz-adv-x="620" 
d="M292 146q117 0 117 152q0 48 -22 67t-65 19q-117 0 -117 -151q0 -48 22.5 -67.5t64.5 -19.5zM273 -16q-120 0 -185.5 58.5t-65.5 170.5q0 161 88 247t232 86q120 0 185 -58t65 -170q0 -162 -87.5 -248t-231.5 -86zM368 816q113 0 156.5 -56.5t30.5 -167.5h-137
q6 62 -68 62t-78 -62h-143q9 112 65 168t174 56z" />
    <glyph glyph-name="Rinvertedbreve" unicode="&#x212;" horiz-adv-x="725" 
d="M235 269l-33 -269h-185l95 780h345q266 0 266 -208q0 -116 -48.5 -184.5t-123.5 -95.5l143 -292h-212l-119 269h-128zM255 435h174q19 0 33.5 3t32.5 13t28 33.5t10 59.5q0 71 -82 71h-174zM436 1046q113 0 156.5 -56.5t30.5 -167.5h-137q6 62 -68 62t-78 -62h-143
q9 112 65 168t174 56z" />
    <glyph glyph-name="rinvertedbreve" unicode="&#x213;" horiz-adv-x="436" 
d="M290 816q113 0 156.5 -56.5t30.5 -167.5h-137q6 62 -68 62t-78 -62h-143q9 112 65 168t174 56zM384 546q45 0 72 -13l-34 -168q-26 8 -49 8q-93 0 -139 -50l-39 -323h-180l46 376l9 154h165l5 -57q25 33 64.5 53t79.5 20z" />
    <glyph glyph-name="Udoublegrave" unicode="&#x214;" horiz-adv-x="746" 
d="M356 148q89 0 122 36.5t41 106.5l60 489h185l-60 -493q-9 -69 -31 -121t-63.5 -94.5t-110 -65t-163.5 -22.5t-158.5 22.5t-94.5 65t-40.5 94.5t-0.5 121l60 493h185l-60 -489q-5 -29 -2 -55t14 -45.5t40.5 -31t76.5 -11.5zM365 1030h196l68 -208h-179zM149 1030h196
l68 -208h-179z" />
    <glyph glyph-name="udoublegrave" unicode="&#x215;" horiz-adv-x="645" 
d="M281 800h196l68 -208h-179zM65 800h196l68 -208h-179zM400 0l-6 57q-73 -73 -176 -73q-108 0 -157 53t-34 168l40 325h180l-38 -302q-5 -44 12.5 -63t56.5 -18q75 1 121 50l41 333h180l-47 -376l-8 -154h-165z" />
    <glyph glyph-name="Uinvertedbreve" unicode="&#x216;" horiz-adv-x="746" 
d="M356 148q89 0 122 36.5t41 106.5l60 489h185l-60 -493q-9 -69 -31 -121t-63.5 -94.5t-110 -65t-163.5 -22.5t-158.5 22.5t-94.5 65t-40.5 94.5t-0.5 121l60 493h185l-60 -489q-5 -29 -2 -55t14 -45.5t40.5 -31t76.5 -11.5zM459 1046q113 0 156.5 -56.5t30.5 -167.5h-137
q6 62 -68 62t-78 -62h-143q9 112 65 168t174 56z" />
    <glyph glyph-name="uinvertedbreve" unicode="&#x217;" horiz-adv-x="645" 
d="M375 816q113 0 156.5 -56.5t30.5 -167.5h-137q6 62 -68 62t-78 -62h-143q9 112 65 168t174 56zM400 0l-6 57q-73 -73 -176 -73q-108 0 -157 53t-34 168l40 325h180l-38 -302q-5 -44 12.5 -63t56.5 -18q75 1 121 50l41 333h180l-47 -376l-8 -154h-165z" />
    <glyph glyph-name="Scommaaccent" unicode="&#x218;" horiz-adv-x="722" 
d="M219 -62h191l-52 -138h-167zM338 149q43 0 78 6.5t62.5 28t27.5 55.5q0 42 -31 59t-112 21q-52 2 -88 6.5t-77 17t-66 33t-41.5 56t-16.5 84.5q0 91 50.5 156.5t125.5 94.5t164 29q153 0 231 -56.5t80 -161.5l-193 -66q4 68 -27 93.5t-102 25.5q-54 0 -97.5 -20.5
t-43.5 -66.5q0 -36 25.5 -48t102.5 -17q65 -4 107 -10t82.5 -19.5t62.5 -36t35.5 -59t13.5 -87.5q0 -72 -30.5 -128t-82.5 -89t-115 -49.5t-133 -16.5q-166 0 -239 55.5t-73 162.5l193 66q-11 -58 26.5 -88.5t100.5 -30.5z" />
    <glyph glyph-name="scommaaccent" unicode="&#x219;" horiz-adv-x="570" 
d="M142 -62h191l-52 -138h-167zM259 125q42 0 65 12.5t23 35.5q0 9 -5 14.5t-17.5 8.5t-25.5 4.5t-38 3.5q-38 3 -53.5 4t-46 5.5t-43.5 9.5t-32.5 14.5t-28 22.5t-15 32t-6.5 44q0 56 26 99t68.5 66t88.5 34t95 11q224 0 235 -129l-185 -63q3 25 -11 38t-55 13
q-30 0 -47.5 -11.5t-17.5 -31.5q0 -16 17.5 -22.5t62.5 -9.5q113 -7 149 -19q76 -27 76 -118q0 -57 -26 -99t-69.5 -65t-93.5 -34t-106 -11q-120 0 -179 32.5t-63 102.5l185 64q-2 -29 15 -43.5t58 -14.5z" />
    <glyph glyph-name="Hcaron" unicode="&#x21e;" horiz-adv-x="748" 
d="M571 780h185l-95 -780h-185l38 316h-274l-38 -316h-185l95 780h185l-36 -299h274zM229 1030h180l43 -59l62 59h187l-184 -208h-156z" />
    <glyph glyph-name="hcaron" unicode="&#x21f;" horiz-adv-x="639" 
d="M-10 1030h180l43 -59l62 59h187l-184 -208h-156zM9 0l98 800h180l-39 -314q66 60 163 60q108 0 156.5 -52.5t33.5 -168.5l-39 -325h-180l37 302q5 44 -12.5 63t-55.5 18q-76 -1 -122 -50l-40 -333h-180z" />
    <glyph glyph-name="Adotabove" unicode="&#x226;" horiz-adv-x="754" 
d="M557 1010l-23 -182h-184l23 182h184zM525 0l-25 133h-286l-57 -133h-198l369 790h218l177 -790h-198zM381 520l-103 -237h193l-44 237l-13 79z" />
    <glyph glyph-name="adotabove" unicode="&#x227;" horiz-adv-x="655" 
d="M465 780l-22 -182h-184l22 182h184zM606 376l-28 -222l-8 -154h-165l-6 57q-67 -73 -167 -73q-211 0 -211 217q0 158 72 251.5t208 93.5q106 0 150 -73l19 57h165zM404 197l16 136q-32 50 -99 50q-47 0 -80 -36t-33 -107q0 -47 23 -70t61 -23q67 0 112 50z" />
    <glyph glyph-name="Otildemacron" unicode="&#x22c;" horiz-adv-x="820" 
d="M554 806q-36 0 -64 12t-42 26t-29.5 26t-30.5 12q-16 0 -26.5 -12t-13.5 -24l-3 -11l-122 15q19 83 68.5 139.5t130.5 56.5q36 0 64.5 -12t42 -26t29.5 -26t31 -12q16 0 26.5 12t12.5 24l3 11l123 -15q-19 -83 -68.5 -139.5t-131.5 -56.5zM671 1066h-332l21 164h332z
M452 631q-60 0 -104 -26.5t-67 -72t-33.5 -96.5t-10.5 -111q0 -176 156 -176q61 0 105 26.5t67 73t33 98t10 111.5q0 173 -156 173zM373 -16q-167 0 -245.5 84t-78.5 237q0 105 25.5 192.5t75.5 155t132.5 105.5t189.5 38q166 0 245 -83.5t79 -234.5q0 -105 -25 -193
t-75 -156.5t-132.5 -106.5t-190.5 -38z" />
    <glyph glyph-name="otildemacron" unicode="&#x22d;" horiz-adv-x="620" 
d="M424 556q-36 0 -64.5 12t-42 26t-29.5 26t-31 12q-16 0 -26.5 -12t-13.5 -24l-3 -11l-122 15q19 83 68.5 139.5t130.5 56.5q36 0 64.5 -12t42 -26t29.5 -26t31 -12q16 0 26.5 12t13.5 24l3 11l122 -15q-19 -83 -68.5 -139.5t-130.5 -56.5zM541 816h-332l20 164h332z
M292 146q117 0 117 152q0 48 -22 67t-65 19q-117 0 -117 -151q0 -48 22.5 -67.5t64.5 -19.5zM273 -16q-120 0 -185.5 58.5t-65.5 170.5q0 161 88 247t232 86q120 0 185 -58t65 -170q0 -162 -87.5 -248t-231.5 -86z" />
    <glyph glyph-name="Odotabove" unicode="&#x22e;" horiz-adv-x="820" 
d="M591 1010l-23 -182h-184l23 182h184zM452 631q-60 0 -104 -26.5t-67 -72t-33.5 -96.5t-10.5 -111q0 -176 156 -176q61 0 105 26.5t67 73t33 98t10 111.5q0 173 -156 173zM373 -16q-167 0 -245.5 84t-78.5 237q0 105 25.5 192.5t75.5 155t132.5 105.5t189.5 38
q166 0 245 -83.5t79 -234.5q0 -105 -25 -193t-75 -156.5t-132.5 -106.5t-190.5 -38z" />
    <glyph glyph-name="odotabove" unicode="&#x22f;" horiz-adv-x="620" 
d="M462 780l-22 -182h-184l22 182h184zM292 146q117 0 117 152q0 48 -22 67t-65 19q-117 0 -117 -151q0 -48 22.5 -67.5t64.5 -19.5zM273 -16q-120 0 -185.5 58.5t-65.5 170.5q0 161 88 247t232 86q120 0 185 -58t65 -170q0 -162 -87.5 -248t-231.5 -86z" />
    <glyph glyph-name="odotabovemacron" unicode="&#x231;" horiz-adv-x="620" 
d="M460 760l-23 -182h-184l23 182h184zM537 786h-332l20 164h332zM292 146q117 0 117 152q0 48 -22 67t-65 19q-117 0 -117 -151q0 -48 22.5 -67.5t64.5 -19.5zM273 -16q-120 0 -185.5 58.5t-65.5 170.5q0 161 88 247t232 86q120 0 185 -58t65 -170q0 -162 -87.5 -248
t-231.5 -86z" />
    <glyph glyph-name="odotabovemacron" unicode="&#xe11e;" horiz-adv-x="620" 
d="M460 760l-23 -182h-184l23 182h184zM537 786h-332l20 164h332zM292 146q117 0 117 152q0 48 -22 67t-65 19q-117 0 -117 -151q0 -48 22.5 -67.5t64.5 -19.5zM273 -16q-120 0 -185.5 58.5t-65.5 170.5q0 161 88 247t232 86q120 0 185 -58t65 -170q0 -162 -87.5 -248
t-231.5 -86z" />
    <glyph glyph-name="Ymacron" unicode="&#x232;" horiz-adv-x="730" 
d="M380 477l217 303h223l-361 -485l-36 -295h-186l36 295l-243 485h213zM599 846h-332l20 164h332z" />
    <glyph glyph-name="ymacron" unicode="&#x233;" horiz-adv-x="626" 
d="M519 616h-332l20 164h332zM665 530l-289 -497l-127 -233h-208l143 242l-163 488h198l39 -163l39 -171l83 171l81 163h204z" />
    <glyph glyph-name="dotlessj" unicode="&#x237;" horiz-adv-x="290" 
d="M15 2l65 528h180l-68 -553q-11 -81 -70.5 -137t-181.5 -56q-67 0 -111 20l33 162q43 -29 91 -24q56 7 62 60z" />
    <glyph glyph-name="schwa" unicode="&#x259;" horiz-adv-x="615" 
d="M30 316h376q1 43 -23 63t-70 20q-80 0 -90 -40l-169 58q23 57 90.5 93t179.5 36q127 0 195.5 -59.5t68.5 -172.5q0 -157 -89 -243.5t-233 -86.5q-120 0 -183 57.5t-63 168.5q0 44 10 106zM284 131q42 0 71 21.5t35 57.5h-181q-8 -36 13.5 -57.5t61.5 -21.5z" />
    <glyph glyph-name="ezh" unicode="&#x292;" horiz-adv-x="645" 
d="M262 -58q78 0 115 26t37 85q0 38 -30.5 59t-87.5 21q-59 0 -113 -37l-65 98l219 177h-288l20 159h551l-16 -126l-168 -134q163 -30 163 -189q0 -149 -96 -223t-257 -74q-278 0 -289 175l194 66q-3 -40 24 -61.5t87 -21.5z" />
    <glyph glyph-name="circumflex" unicode="&#x2c6;" horiz-adv-x="600" 
d="M573 592h-180l-43 59l-62 -59h-187l184 208h156z" />
    <glyph glyph-name="caron" unicode="&#x2c7;" horiz-adv-x="600" 
d="M127 800h180l43 -59l62 59h187l-184 -208h-156z" />
    <glyph glyph-name="breve" unicode="&#x2d8;" horiz-adv-x="600" 
d="M337 576q-113 0 -156.5 56.5t-30.5 167.5h137q-6 -62 68 -62t78 62h143q-9 -112 -65 -168t-174 -56z" />
    <glyph glyph-name="dotaccent" unicode="&#x2d9;" horiz-adv-x="600" 
d="M452 780l-22 -182h-184l22 182h184z" />
    <glyph glyph-name="ring" unicode="&#x2da;" horiz-adv-x="600" 
d="M347 675q24 0 24 25q0 17 -18 17q-24 0 -24 -25q0 -17 18 -17zM335 576q-51 0 -78.5 27.5t-27.5 72.5q0 60 37 100t99 40q51 0 78.5 -27.5t27.5 -72.5q0 -60 -37 -100t-99 -40z" />
    <glyph glyph-name="ogonek" unicode="&#x2db;" horiz-adv-x="600" 
d="M430 77l41 -77q-47 -4 -79 -27t-32 -47q0 -21 25 -21q12 0 25 4.5t20.5 8.5t7.5 5l20 -114q-44 -25 -108 -25q-123 0 -123 107q0 67 63.5 117t139.5 69z" />
    <glyph glyph-name="tilde" unicode="&#x2dc;" horiz-adv-x="600" 
d="M421 576q-36 0 -66 12t-45.5 26t-32.5 26t-32 12q-16 0 -26.5 -12t-13.5 -24l-3 -11l-122 15q17 94 61 145t128 51q36 0 66 -12t45.5 -26t32.5 -26t32 -12q16 0 26.5 12t13.5 24l3 11l122 -15q-17 -94 -61 -145t-128 -51z" />
    <glyph glyph-name="hungarumlaut" unicode="&#x2dd;" horiz-adv-x="600" 
d="M261 800h196l-137 -208h-179zM477 800h196l-137 -208h-179z" />
    <glyph glyph-name="uni0312" unicode="&#x312;" horiz-adv-x="600" 
d="M429 592h-191l79 208h155z" />
    <glyph glyph-name="uni0323" unicode="&#x323;" horiz-adv-x="600" 
d="M347 -40l-20 -160h-184l20 160h184z" />
    <glyph glyph-name="uni0329" unicode="&#x329;" horiz-adv-x="600" 
d="M285 -200h-100l20 160h100z" />
    <glyph glyph-name="pi" unicode="&#x3c0;" horiz-adv-x="786" 
d="M761 370h-149l-21 -168q-4 -30 8.5 -43.5t39.5 -16.5q24 -3 52 5.5t45 18.5l-7 -162q-49 -20 -115 -20q-64 0 -108.5 17t-66 45.5t-28.5 61t-3 69.5l24 193h-97l-33 -272l-37 -98h-165l28 154l27 216h-117l20 160h723z" />
    <glyph glyph-name="afii10023" unicode="&#x401;" horiz-adv-x="668" 
d="M112 780h566l-20 -165h-381l-16 -134h327l-21 -165h-327l-18 -151h401l-20 -165h-586zM391 1010l-23 -182h-184l23 182h184zM631 1010l-23 -182h-184l23 182h184z" />
    <glyph glyph-name="afii10051" unicode="&#x402;" horiz-adv-x="821" 
d="M491 147q44 0 74.5 28t30.5 74q0 85 -96 85q-34 0 -73 -16.5t-52 -39.5l-34 -278h-185l75 615h-174l20 165h533l-20 -165h-174l-21 -174q62 56 179 56q208 0 208 -228q0 -132 -71.5 -208.5t-199.5 -76.5q-71 0 -115 20l32 155q29 -12 63 -12z" />
    <glyph glyph-name="afii10052" unicode="&#x403;" horiz-adv-x="600" 
d="M277 615l-75 -615h-185l95 780h540l-20 -165h-355zM428 1030h196l-137 -208h-179z" />
    <glyph glyph-name="afii10053" unicode="&#x404;" horiz-adv-x="743" 
d="M46 298q0 105 23.5 193.5t71.5 157.5t128 108t186 39q143 0 218.5 -57t77.5 -161l-193 -66q5 66 -25 92.5t-91 26.5q-142 0 -187 -150h273l-21 -165h-273v-4q0 -77 31.5 -120t110.5 -43q71 0 106.5 27t45.5 92l179 -62q-27 -106 -116.5 -164t-234.5 -58q-310 0 -310 314z
" />
    <glyph glyph-name="afii10054" unicode="&#x405;" horiz-adv-x="722" 
d="M338 149q43 0 78 6.5t62.5 28t27.5 55.5q0 42 -31 59t-112 21q-52 2 -88 6.5t-77 17t-66 33t-41.5 56t-16.5 84.5q0 91 50.5 156.5t125.5 94.5t164 29q153 0 231 -56.5t80 -161.5l-193 -66q4 68 -27 93.5t-102 25.5q-54 0 -97.5 -20.5t-43.5 -66.5q0 -36 25.5 -48
t102.5 -17q65 -4 107 -10t82.5 -19.5t62.5 -36t35.5 -59t13.5 -87.5q0 -72 -30.5 -128t-82.5 -89t-115 -49.5t-133 -16.5q-166 0 -239 55.5t-73 162.5l193 66q-11 -58 26.5 -88.5t100.5 -30.5z" />
    <glyph glyph-name="afii10055" unicode="&#x406;" horiz-adv-x="311" 
d="M308 780l-95 -780h-185l95 780h185z" />
    <glyph glyph-name="afii10056" unicode="&#x407;" horiz-adv-x="311" 
d="M308 780l-95 -780h-185l95 780h185zM215 1010l-22 -182h-184l22 182h184zM455 1010l-22 -182h-184l22 182h184z" />
    <glyph glyph-name="afii10057" unicode="&#x408;" horiz-adv-x="555" 
d="M388 780h185l-69 -561q-28 -235 -283 -235q-122 0 -173 49t-52 135l188 65q-4 -44 7.5 -64.5t49.5 -20.5q39 0 56 17t22 53z" />
    <glyph glyph-name="afii10058" unicode="&#x409;" horiz-adv-x="1135" 
d="M452 0l75 615h-116l-60 -245q-59 -221 -127.5 -295.5t-218.5 -74.5h-22l20 165h12q32 0 54.5 16.5t47.5 72.5t51 161l89 365h475l-37 -304h178q52 0 91.5 -8t76 -29t56.5 -63.5t20 -104.5q0 -66 -18 -115.5t-46 -78.5t-69.5 -47t-81.5 -24t-88 -6h-362zM850 311h-175
l-18 -146h175q44 0 69.5 17.5t25.5 66.5q0 37 -19.5 49.5t-57.5 12.5z" />
    <glyph glyph-name="afii10059" unicode="&#x40a;" horiz-adv-x="1159" 
d="M476 0l38 311h-274l-38 -311h-185l95 780h185l-37 -304h274l37 304h185l-37 -304h178q52 0 91.5 -8t76 -29t56.5 -63.5t20 -104.5q0 -66 -18 -115.5t-46 -78.5t-69.5 -47t-81.5 -24t-88 -6h-362zM874 311h-175l-18 -146h175q44 0 69.5 17.5t25.5 66.5q0 37 -19.5 49.5
t-57.5 12.5z" />
    <glyph glyph-name="afii10060" unicode="&#x40b;" horiz-adv-x="771" 
d="M416 615l-24 -193q48 43 92.5 59t103.5 16q71 0 114 -39t33 -116l-41 -342h-185l33 269q6 61 -59 61q-41 0 -73.5 -21t-38.5 -59l-30 -250h-185l75 615h-174l20 165h533l-20 -165h-174z" />
    <glyph glyph-name="afii10061" unicode="&#x40c;" horiz-adv-x="761" 
d="M802 780l-224 -304q-38 -52 -82 -76q40 -24 68 -79l158 -321h-218l-122 277q-17 39 -63 39h-79l-38 -316h-185l95 780h185l-36 -299h74q45 0 71 39l178 260h218zM457 1030h196l-137 -208h-179z" />
    <glyph glyph-name="afii10062" unicode="&#x40e;" horiz-adv-x="791" 
d="M473 806q-115 0 -158 56.5t-27 167.5h140q-5 -33 10.5 -47.5t54.5 -14.5t58 14.5t23 47.5h140q-12 -111 -69 -167.5t-172 -56.5zM293 780l129 -413l220 413h199l-319 -561q-39 -69 -66 -107.5t-64 -70.5t-81.5 -44.5t-107.5 -12.5q-92 0 -149 34l40 166q53 -36 129 -36
q57 0 88 32l-211 600h193z" />
    <glyph glyph-name="afii10145" unicode="&#x40f;" horiz-adv-x="748" 
d="M297 780l-75 -615h274l75 615h185l-95 -780h-232l-20 -160h-180l20 160h-232l95 780h185z" />
    <glyph glyph-name="afii10017" unicode="&#x410;" horiz-adv-x="754" 
d="M528 0l-25 133h-286l-57 -133h-201l369 790h218l177 -790h-195zM384 520l-103 -237h193l-44 237l-13 79z" />
    <glyph glyph-name="afii10018" unicode="&#x411;" 
d="M277 615l-17 -139h178q52 0 91.5 -8t76 -29t56.5 -63.5t20 -104.5q0 -66 -18 -115.5t-46 -78.5t-69.5 -47t-81.5 -24t-88 -6h-362l95 780h540l-20 -165h-355zM415 311h-175l-18 -146h175q44 0 69.5 17.5t25.5 66.5q0 37 -19.5 49.5t-57.5 12.5z" />
    <glyph glyph-name="afii10019" unicode="&#x412;" horiz-adv-x="710" 
d="M375 0h-358l95 780h352q232 0 232 -177q0 -64 -24.5 -116t-64.5 -76q37 -12 55.5 -49.5t18.5 -88.5q0 -78 -25.5 -133.5t-70.5 -84.5t-96.5 -42t-113.5 -13zM222 165h165q105 0 105 88q0 38 -23 50.5t-60 12.5h-169zM434 615h-157l-16 -134h157q41 0 63.5 18.5t22.5 65.5
q0 29 -17.5 39.5t-52.5 10.5z" />
    <glyph glyph-name="afii10020" unicode="&#x413;" horiz-adv-x="600" 
d="M277 615l-75 -615h-185l95 780h540l-20 -165h-355z" />
    <glyph glyph-name="afii10021" unicode="&#x414;" horiz-adv-x="834" 
d="M-35 -160l40 325h36q47 0 80.5 51t68.5 199l89 365h475l-75 -615h130l-40 -325h-180l20 160h-444l-20 -160h-180zM433 615l-60 -245q-31 -130 -83 -205h204l55 450h-116z" />
    <glyph glyph-name="afii10022" unicode="&#x415;" horiz-adv-x="668" 
d="M112 780h566l-20 -165h-381l-16 -134h327l-21 -165h-327l-18 -151h401l-20 -165h-586z" />
    <glyph glyph-name="afii10024" unicode="&#x416;" horiz-adv-x="1073" 
d="M198 0h-219l196 321q35 56 80 79q-36 28 -54 76l-112 304h219l82 -260q8 -23 21.5 -31t36.5 -8h20l36 299h185l-36 -299h20q44 0 66 39l146 260h219l-186 -304q-29 -48 -72 -76q40 -23 60 -79l118 -321h-219l-88 277q-8 23 -21.5 31t-36.5 8h-27l-38 -316h-185l38 316
h-27q-44 0 -66 -39z" />
    <glyph glyph-name="afii10025" unicode="&#x417;" 
d="M200 268q-9 -62 23.5 -90.5t106.5 -28.5q161 0 161 91q0 45 -27 57.5t-87 12.5h-127l19 162h127q25 0 40 2t31 8.5t23.5 21.5t7.5 39q0 72 -109 72q-76 0 -109 -21.5t-42 -87.5l-179 62q26 104 110.5 158t222.5 54q134 0 212.5 -50t78.5 -153q0 -146 -110 -180
q101 -28 101 -155q0 -120 -86.5 -189t-260.5 -69q-157 0 -237 56.5t-82 160.5z" />
    <glyph glyph-name="afii10026" unicode="&#x418;" horiz-adv-x="768" 
d="M565 488l-348 -488h-200l95 780h183l-39 -318l-28 -170l348 488h200l-95 -780h-183l39 318z" />
    <glyph glyph-name="afii10027" unicode="&#x419;" horiz-adv-x="768" 
d="M548 1030h140q-12 -111 -69 -167.5t-172 -56.5t-158 56.5t-27 167.5h140q-5 -33 10.5 -47.5t54.5 -14.5t58 14.5t23 47.5zM565 488l-348 -488h-200l95 780h183l-39 -318l-28 -170l348 488h200l-95 -780h-183l39 318z" />
    <glyph glyph-name="afii10028" unicode="&#x41a;" horiz-adv-x="761" 
d="M802 780l-224 -304q-38 -52 -82 -76q40 -24 68 -79l158 -321h-218l-122 277q-17 39 -63 39h-79l-38 -316h-185l95 780h185l-36 -299h74q45 0 71 39l178 260h218z" />
    <glyph glyph-name="afii10029" unicode="&#x41b;" horiz-adv-x="724" 
d="M732 780l-95 -780h-185l75 615h-116l-60 -245q-28 -113 -56 -182t-69 -112.5t-92 -59.5t-129 -16h-22l20 165h12q33 0 55 16.5t47.5 73t50.5 160.5l89 365h475z" />
    <glyph glyph-name="afii10030" unicode="&#x41c;" horiz-adv-x="906" 
d="M491 0h-152l-85 454l-55 -454h-182l95 780h245l88 -501l228 501h241l-95 -780h-182l55 454z" />
    <glyph glyph-name="afii10031" unicode="&#x41d;" horiz-adv-x="748" 
d="M571 780h185l-95 -780h-185l38 316h-274l-38 -316h-185l95 780h185l-36 -299h274z" />
    <glyph glyph-name="afii10032" unicode="&#x41e;" horiz-adv-x="820" 
d="M452 631q-60 0 -104 -26.5t-67 -72t-33.5 -96.5t-10.5 -111q0 -176 156 -176q61 0 105 26.5t67 73t33 98t10 111.5q0 173 -156 173zM373 -16q-167 0 -245.5 84t-78.5 237q0 105 25.5 192.5t75.5 155t132.5 105.5t189.5 38q166 0 245 -83.5t79 -234.5q0 -105 -25 -193
t-75 -156.5t-132.5 -106.5t-190.5 -38z" />
    <glyph glyph-name="afii10033" unicode="&#x41f;" horiz-adv-x="748" 
d="M756 780l-95 -780h-185l75 615h-274l-75 -615h-185l95 780h644z" />
    <glyph glyph-name="afii10034" unicode="&#x420;" horiz-adv-x="680" 
d="M252 415h149q40 0 71 27t31 95q0 43 -22.5 60.5t-54.5 17.5h-149zM232 249l-30 -249h-185l95 780h320q260 0 260 -216q0 -85 -27.5 -148.5t-74.5 -98.5t-101.5 -51.5t-117.5 -16.5h-139z" />
    <glyph glyph-name="afii10035" unicode="&#x421;" horiz-adv-x="743" 
d="M46 298q0 105 23.5 193.5t71.5 157.5t128 108t186 39q143 0 218.5 -57t77.5 -161l-193 -66q5 66 -25 92.5t-91 26.5q-208 0 -208 -319q0 -77 31.5 -120t110.5 -43q71 0 106.5 27t45.5 92l179 -62q-27 -106 -116.5 -164t-234.5 -58q-310 0 -310 314z" />
    <glyph glyph-name="afii10036" unicode="&#x422;" horiz-adv-x="627" 
d="M446 615l-75 -615h-185l75 615h-214l20 165h613l-20 -165h-214z" />
    <glyph glyph-name="afii10037" unicode="&#x423;" horiz-adv-x="791" 
d="M293 780l129 -413l220 413h199l-319 -561q-39 -69 -66 -107.5t-64 -70.5t-81.5 -44.5t-107.5 -12.5q-92 0 -149 34l40 166q53 -36 129 -36q57 0 88 32l-211 600h193z" />
    <glyph glyph-name="afii10038" unicode="&#x424;" horiz-adv-x="847" 
d="M358 510q-68 0 -106 -35.5t-38 -97.5q0 -107 115 -107zM481 0h-185l13 109q-134 0 -209.5 68t-75.5 185q0 150 95 229.5t259 79.5l13 109h185l-13 -109q134 0 209.5 -68t75.5 -185q0 -150 -95 -229.5t-259 -79.5zM514 270q68 0 106 35.5t38 97.5q0 107 -115 107z" />
    <glyph glyph-name="afii10039" unicode="&#x425;" horiz-adv-x="788" 
d="M392 259l-101 -131l-97 -128h-229l335 400l-224 380h222l62 -119l63 -123l94 123l89 119h226l-316 -380l237 -400h-225l-67 128z" />
    <glyph glyph-name="afii10040" unicode="&#x426;" horiz-adv-x="836" 
d="M611 0h-594l95 780h185l-75 -615h274l75 615h185l-75 -615h130l-40 -325h-180z" />
    <glyph glyph-name="afii10041" unicode="&#x427;" horiz-adv-x="728" 
d="M736 780l-95 -780h-185l39 318q-73 -55 -197 -55q-111 0 -175.5 53.5t-50.5 168.5l36 295h185l-31 -254q-6 -45 20.5 -65.5t74.5 -20.5q104 0 160 59l34 281h185z" />
    <glyph glyph-name="afii10042" unicode="&#x428;" horiz-adv-x="997" 
d="M910 0h-893l95 780h185l-75 -615h169l75 615h185l-75 -615h169l75 615h185z" />
    <glyph glyph-name="afii10043" unicode="&#x429;" horiz-adv-x="1085" 
d="M860 0h-843l95 780h185l-75 -615h169l75 615h185l-75 -615h169l75 615h185l-75 -615h130l-40 -325h-180z" />
    <glyph glyph-name="afii10044" unicode="&#x42a;" horiz-adv-x="831" 
d="M148 0l75 615h-175l20 165h360l-37 -304h178q52 0 91.5 -8t76 -29t56.5 -63.5t20 -104.5q0 -66 -18 -115.5t-46 -78.5t-69.5 -47t-81.5 -24t-88 -6h-362zM546 311h-175l-18 -146h175q44 0 69.5 17.5t25.5 66.5q0 37 -19.5 49.5t-57.5 12.5z" />
    <glyph glyph-name="afii10045" unicode="&#x42b;" horiz-adv-x="980" 
d="M977 780l-95 -780h-185l95 780h185zM17 0l95 780h185l-37 -304h178q52 0 91.5 -8t76 -29t56.5 -63.5t20 -104.5q0 -66 -18 -115.5t-46 -78.5t-69.5 -47t-81.5 -24t-88 -6h-362zM415 311h-175l-18 -146h175q44 0 69.5 17.5t25.5 66.5q0 37 -19.5 49.5t-57.5 12.5z" />
    <glyph glyph-name="afii10046" unicode="&#x42c;" 
d="M112 780h185l-37 -304h178q52 0 91.5 -8t76 -29t56.5 -63.5t20 -104.5q0 -66 -18 -115.5t-46 -78.5t-69.5 -47t-81.5 -24t-88 -6h-362zM415 311h-175l-18 -146h175q44 0 69.5 17.5t25.5 66.5q0 37 -19.5 49.5t-57.5 12.5z" />
    <glyph glyph-name="afii10047" unicode="&#x42d;" horiz-adv-x="743" 
d="M721 482q0 -105 -23.5 -193.5t-71.5 -157.5t-128 -108t-186 -39q-143 0 -218.5 57t-77.5 161l193 66q-5 -66 25 -92.5t91 -26.5q149 0 191 167h-274l21 165h270q-5 150 -142 150q-71 0 -106.5 -27t-45.5 -92l-179 62q27 106 116.5 164t234.5 58q310 0 310 -314z" />
    <glyph glyph-name="afii10048" unicode="&#x42e;" horiz-adv-x="1120" 
d="M673 -16q-167 0 -245.5 84t-78.5 237v11h-109l-38 -316h-185l95 780h185l-36 -299h108q37 146 138 230.5t265 84.5q166 0 245 -83.5t79 -234.5q0 -105 -25 -193t-75 -156.5t-132.5 -106.5t-190.5 -38zM752 631q-60 0 -104 -26.5t-67 -72t-33.5 -96.5t-10.5 -111
q0 -176 156 -176q61 0 105 26.5t67 73t33 98t10 111.5q0 173 -156 173z" />
    <glyph glyph-name="afii10049" unicode="&#x42f;" horiz-adv-x="725" 
d="M-39 0l165 225q30 40 59 64q-125 49 -125 207q0 70 20.5 122.5t51.5 82.5t74.5 48.5t82 24.5t82.5 6h362l-95 -780h-185l33 270h-81q-38 -2 -64 -39l-158 -231h-222zM332 435h174l22 180h-181q-18 0 -32 -3t-30.5 -12.5t-25.5 -30.5t-9 -53q0 -43 24.5 -62t57.5 -19z" />
    <glyph glyph-name="afii10065" unicode="&#x430;" horiz-adv-x="655" 
d="M606 376l-28 -222l-8 -154h-165l-6 57q-67 -73 -167 -73q-211 0 -211 217q0 158 72 251.5t208 93.5q106 0 150 -73l19 57h165zM404 197l16 136q-32 50 -99 50q-47 0 -80 -36t-33 -107q0 -47 23 -70t61 -23q67 0 112 50z" />
    <glyph glyph-name="afii10066" unicode="&#x431;" horiz-adv-x="620" 
d="M278 -16q-254 0 -254 244q0 192 62 330q92 203 336 218q126 8 187 34l-21 -168q-55 -27 -149 -32q-95 -5 -131.5 -29t-54.5 -71q49 36 131 36q94 0 151 -60.5t57 -170.5q0 -163 -84.5 -247t-229.5 -84zM322 384q-117 0 -117 -152q0 -48 22 -67t65 -19q117 0 117 151
q0 48 -22.5 67.5t-64.5 19.5z" />
    <glyph glyph-name="afii10067" unicode="&#x432;" horiz-adv-x="594" 
d="M346 0h-327l65 530h322q159 0 159 -128q0 -88 -73 -121q32 -10 47 -34.5t15 -73.5q0 -92 -58 -132.5t-150 -40.5zM217 147h108q54 0 54 37q0 19 -10.5 25t-32.5 6h-111zM344 383h-98l-7 -56h100q42 0 42 33q0 14 -9 18.5t-28 4.5z" />
    <glyph glyph-name="afii10068" unicode="&#x433;" horiz-adv-x="570" 
d="M273 125q74 0 87 58l168 -64q-39 -135 -266 -135q-73 0 -128 14.5t-92.5 54t-37.5 100.5q0 26 5 47t11.5 37t21 29t25.5 21.5t33 15.5t36 11t42 7.5t43.5 5t47.5 3.5q50 4 69.5 12t19.5 28q0 35 -56 35q-41 0 -58 -13t-20 -38l-169 63q43 129 261 129q63 0 113.5 -14.5
t87 -53.5t36.5 -99q0 -32 -7.5 -57t-17.5 -42t-31 -30t-38.5 -20t-50 -12.5t-54.5 -8t-63 -5.5q-56 -4 -75.5 -11t-19.5 -30q0 -38 77 -38z" />
    <glyph glyph-name="afii10069" unicode="&#x434;" horiz-adv-x="620" 
d="M273 -16q-133 0 -199 71.5t-49 209.5q17 135 93 208t182 73q81 0 121 -36q-3 30 -9 50t-22.5 41t-51 31.5t-86.5 10.5q-56 0 -137 -26l21 168q75 25 167 25q83 0 143.5 -27.5t92 -75.5t49 -113t15.5 -140t-10 -156q-20 -166 -100 -240t-220 -74zM322 384q-49 0 -78 -26.5
t-37 -92.5t14 -92.5t71 -26.5t78 26.5t37 92.5t-14 92.5t-71 26.5z" />
    <glyph glyph-name="afii10070" unicode="&#x435;" horiz-adv-x="615" 
d="M580 214h-376q-1 -43 23 -63t70 -20q80 0 90 40l169 -58q-23 -57 -90.5 -93t-179.5 -36q-127 0 -195.5 59.5t-68.5 172.5q0 157 89 243.5t233 86.5q120 0 183 -57.5t63 -168.5q0 -44 -10 -106zM326 399q-42 0 -71 -21.5t-35 -57.5h181q8 36 -13.5 57.5t-61.5 21.5z" />
    <glyph glyph-name="afii10072" unicode="&#x436;" horiz-adv-x="908" 
d="M716 530h208l-121 -196q-29 -44 -62 -64q33 -21 50 -67l76 -203h-208l-51 160q-8 23 -23 30.5t-42 7.5h-10l-24 -198h-180l24 198h-10q-27 0 -44.5 -7.5t-30.5 -30.5l-89 -160h-208l124 203q27 45 67 67q-30 21 -45 64l-73 196h208l49 -153q8 -23 23 -30.5t42 -7.5h4
l24 191h180l-24 -191h4q27 0 44.5 7.5t30.5 30.5z" />
    <glyph glyph-name="afii10073" unicode="&#x437;" horiz-adv-x="584" 
d="M193 178q0 -44 81 -44q38 0 61 11.5t23 32.5t-14 28.5t-45 7.5h-110l13 106h103q63 0 63 39q0 21 -16.5 29t-51.5 8q-65 0 -74 -40l-172 59q23 74 87.5 102.5t168.5 28.5q243 0 243 -154q0 -53 -20.5 -80t-59.5 -39q68 -19 68 -108q0 -87 -72.5 -134t-208.5 -47
q-121 0 -183 29t-68 101z" />
    <glyph glyph-name="afii10074" unicode="&#x438;" horiz-adv-x="645" 
d="M400 0l-6 57q-73 -73 -176 -73q-108 0 -157 53t-34 168l40 325h180l-38 -302q-5 -44 12.5 -63t56.5 -18q75 1 121 50l41 333h180l-47 -376l-8 -154h-165z" />
    <glyph glyph-name="afii10075" unicode="&#x439;" horiz-adv-x="645" 
d="M354 576q-113 0 -156.5 56.5t-30.5 167.5h137q-6 -62 68 -62t78 62h143q-9 -112 -65 -168t-174 -56zM400 0l-6 57q-73 -73 -176 -73q-108 0 -157 53t-34 168l40 325h180l-38 -302q-5 -44 12.5 -63t56.5 -18q75 1 121 50l41 333h180l-47 -376l-8 -154h-165z" />
    <glyph glyph-name="afii10076" unicode="&#x43a;" horiz-adv-x="640" 
d="M446 530h209l-145 -196q-31 -42 -70 -64q36 -21 58 -67l101 -203h-209l-71 160q-10 23 -26.5 30.5t-43.5 7.5h-26l-24 -198h-180l65 530h180l-24 -191h21q54 0 80 38z" />
    <glyph glyph-name="afii10077" unicode="&#x43b;" horiz-adv-x="640" 
d="M616 530l-65 -530h-180l45 370h-105l-41 -130q-30 -97 -68.5 -150.5t-81.5 -71.5t-109 -18h-28l19 160h6q19 0 32 7.5t33.5 44.5t42.5 109l65 209h435z" />
    <glyph glyph-name="afii10078" unicode="&#x43c;" horiz-adv-x="804" 
d="M594 367l-132 -367h-194l-37 367l-9 -85l-34 -282h-169l65 530h277l16 -268l3 -86l25 86l90 268h285l-65 -530h-169l34 282z" />
    <glyph glyph-name="afii10079" unicode="&#x43d;" horiz-adv-x="640" 
d="M84 530h180l-23 -180h172l23 180h180l-65 -530h-180l23 190h-172l-23 -190h-180z" />
    <glyph glyph-name="afii10080" unicode="&#x43e;" horiz-adv-x="620" 
d="M292 146q117 0 117 152q0 48 -22 67t-65 19q-117 0 -117 -151q0 -48 22.5 -67.5t64.5 -19.5zM273 -16q-120 0 -185.5 58.5t-65.5 170.5q0 161 88 247t232 86q120 0 185 -58t65 -170q0 -162 -87.5 -248t-231.5 -86z" />
    <glyph glyph-name="afii10081" unicode="&#x43f;" horiz-adv-x="645" 
d="M235 530l5 -57q73 73 177 73q108 0 156.5 -52.5t33.5 -168.5l-39 -325h-180l37 302q5 44 -12.5 63t-55.5 18q-76 -1 -122 -50l-40 -333h-180l46 376l9 154h165z" />
    <glyph glyph-name="afii10082" unicode="&#x440;" horiz-adv-x="647" 
d="M172 -200h-180l71 576l8 154h165l6 -57q67 73 167 73q211 0 211 -217q0 -158 -72 -251.5t-208 -93.5q-89 0 -139 56zM237 333l-16 -136q32 -50 99 -50q47 0 80 36t33 107q0 47 -23 70t-61 23q-67 0 -112 -50z" />
    <glyph glyph-name="afii10083" unicode="&#x441;" horiz-adv-x="576" 
d="M310 385q-52 0 -79 -42.5t-27 -114.5q0 -44 18.5 -63.5t57.5 -19.5q73 0 84 66l173 -60q-20 -78 -83.5 -122.5t-192.5 -44.5q-118 0 -179 57t-61 167q0 163 82.5 250.5t226.5 87.5q127 0 179.5 -43.5t54.5 -119.5l-186 -64q1 32 -13 49t-55 17z" />
    <glyph glyph-name="afii10084" unicode="&#x442;" horiz-adv-x="978" 
d="M235 530l5 -57q62 73 172 73q115 0 158 -75q83 75 195 75q97 0 143.5 -51t33.5 -153l-41 -342h-180l39 322q7 61 -64 61q-60 0 -108 -50l-40 -333h-180l39 322q7 61 -64 61q-60 0 -108 -50l-40 -333h-180l46 376l9 154h165z" />
    <glyph glyph-name="afii10085" unicode="&#x443;" horiz-adv-x="626" 
d="M300 218l48 102l112 210h205l-297 -511q-40 -69 -66.5 -107t-62 -70.5t-76 -45t-96.5 -12.5q-68 0 -115 18l38 163q39 -17 79 -17q60 0 101 70l14 25l-163 487h197l60 -210z" />
    <glyph glyph-name="afii10086" unicode="&#x444;" horiz-adv-x="840" 
d="M312 146l30 238q-65 0 -101 -30.5t-36 -106.5q0 -57 26.5 -79t80.5 -22zM473 -16l-23 -184h-180l23 184q-272 0 -272 246q0 153 89 234.5t252 81.5l31 255h180l-31 -255q272 0 272 -246q0 -153 -89 -234.5t-252 -81.5zM523 384l-30 -238q65 0 101 30.5t36 106.5
q0 57 -26.5 79t-80.5 22z" />
    <glyph glyph-name="afii10087" unicode="&#x445;" horiz-adv-x="638" 
d="M392 0l-88 150l-122 -150h-226l249 275l-169 255h217l76 -136l110 136h223l-233 -255l183 -275h-220z" />
    <glyph glyph-name="afii10088" unicode="&#x446;" horiz-adv-x="705" 
d="M400 0l-6 57q-73 -73 -176 -73q-108 0 -157 53t-34 168l40 325h180l-38 -302q-5 -44 12.5 -63t56.5 -18q75 1 121 50l41 333h180l-46 -370h105l-39 -320h-175l20 160h-85z" />
    <glyph glyph-name="afii10089" unicode="&#x447;" horiz-adv-x="639" 
d="M627 530l-65 -530h-180l23 193q-65 -49 -161 -49q-218 0 -193 201l23 185h180l-20 -162q-4 -30 15.5 -45.5t61.5 -15.5q75 0 114 47l22 176h180z" />
    <glyph glyph-name="afii10090" unicode="&#x448;" horiz-adv-x="978" 
d="M733 0l-5 57q-62 -73 -172 -73q-115 0 -158 75q-83 -75 -195 -75q-97 0 -143.5 51t-33.5 153l41 342h180l-39 -322q-7 -61 64 -61q60 0 108 50l40 333h180l-39 -322q-7 -61 64 -61q60 0 108 50l40 333h180l-46 -376l-9 -154h-165z" />
    <glyph glyph-name="afii10091" unicode="&#x449;" horiz-adv-x="1038" 
d="M733 0l-5 57q-62 -73 -172 -73q-115 0 -158 75q-83 -75 -195 -75q-97 0 -143.5 51t-33.5 153l41 342h180l-39 -322q-7 -61 64 -61q60 0 108 50l40 333h180l-39 -322q-7 -61 64 -61q60 0 108 50l40 333h180l-46 -370h105l-39 -320h-175l20 160h-85z" />
    <glyph glyph-name="afii10092" unicode="&#x44a;" horiz-adv-x="705" 
d="M323 137h112q51 0 51 40q0 30 -40 30h-114zM127 0l45 370h-140l20 160h320l-23 -186h138q85 0 131.5 -30t46.5 -112q0 -61 -17.5 -102.5t-51 -62.5t-71.5 -29t-90 -8h-308z" />
    <glyph glyph-name="afii10093" unicode="&#x44b;" horiz-adv-x="850" 
d="M573 0l65 530h180l-65 -530h-180zM215 137h112q51 0 51 40q0 30 -40 30h-114zM19 0l65 530h180l-23 -186h138q85 0 131.5 -30t46.5 -112q0 -61 -17.5 -102.5t-51 -62.5t-71.5 -29t-90 -8h-308z" />
    <glyph glyph-name="afii10094" unicode="&#x44c;" horiz-adv-x="597" 
d="M215 137h112q51 0 51 40q0 30 -40 30h-114zM19 0l65 530h180l-23 -186h138q85 0 131.5 -30t46.5 -112q0 -61 -17.5 -102.5t-51 -62.5t-71.5 -29t-90 -8h-308z" />
    <glyph glyph-name="afii10095" unicode="&#x44d;" horiz-adv-x="576" 
d="M191 197q0 -29 17 -40.5t52 -11.5q70 0 93 69h-197l13 106h196q-8 65 -75 65q-43 0 -60.5 -12.5t-22.5 -39.5l-172 59q44 154 267 154q247 0 247 -240q0 -152 -80.5 -237t-217.5 -85q-239 0 -246 148z" />
    <glyph glyph-name="afii10096" unicode="&#x44e;" horiz-adv-x="900" 
d="M553 -16q-113 0 -178.5 52.5t-72.5 153.5h-80l-23 -190h-180l65 530h180l-23 -180h82q32 96 111 146t188 50q120 0 185 -58t65 -170q0 -162 -87.5 -248t-231.5 -86zM572 146q117 0 117 152q0 48 -22 67t-65 19q-117 0 -117 -151q0 -48 22.5 -67.5t64.5 -19.5z" />
    <glyph glyph-name="afii10097" unicode="&#x44f;" horiz-adv-x="620" 
d="M199 0h-208l92 150q26 41 58 51q-38 8 -61 41t-23 86q0 61 17.5 102.5t51 62.5t71.5 29t90 8h309l-65 -530h-180l22 186h-27q-25 0 -38.5 -7t-26.5 -31zM399 393h-112q-51 0 -51 -40q0 -30 40 -30h114z" />
    <glyph glyph-name="afii10071" unicode="&#x451;" horiz-adv-x="615" 
d="M345 780l-22 -182h-184l22 182h184zM585 780l-22 -182h-184l22 182h184zM580 214h-376q-1 -43 23 -63t70 -20q80 0 90 40l169 -58q-23 -57 -90.5 -93t-179.5 -36q-127 0 -195.5 59.5t-68.5 172.5q0 157 89 243.5t233 86.5q120 0 183 -57.5t63 -168.5q0 -44 -10 -106z
M326 399q-42 0 -71 -21.5t-35 -57.5h181q8 36 -13.5 57.5t-61.5 21.5z" />
    <glyph glyph-name="afii10099" unicode="&#x452;" horiz-adv-x="654" 
d="M334 -58q57 6 63 60l37 300q5 44 -12.5 63t-55.5 18q-76 -1 -122 -50l-40 -333h-180l73 596h-79l15 124h79l10 80h180l-10 -80h123l-15 -124h-123l-14 -110q66 60 163 60q108 0 156.5 -52.5t33.5 -168.5l-42 -348q-11 -81 -70.5 -137t-182.5 -56q-67 0 -111 20l33 162
q43 -29 91 -24z" />
    <glyph glyph-name="afii10100" unicode="&#x453;" horiz-adv-x="570" 
d="M343 800h196l-137 -208h-179zM273 125q74 0 87 58l168 -64q-39 -135 -266 -135q-73 0 -128 14.5t-92.5 54t-37.5 100.5q0 26 5 47t11.5 37t21 29t25.5 21.5t33 15.5t36 11t42 7.5t43.5 5t47.5 3.5q50 4 69.5 12t19.5 28q0 35 -56 35q-41 0 -58 -13t-20 -38l-169 63
q43 129 261 129q63 0 113.5 -14.5t87 -53.5t36.5 -99q0 -32 -7.5 -57t-17.5 -42t-31 -30t-38.5 -20t-50 -12.5t-54.5 -8t-63 -5.5q-56 -4 -75.5 -11t-19.5 -30q0 -38 77 -38z" />
    <glyph glyph-name="afii10101" unicode="&#x454;" horiz-adv-x="576" 
d="M280 145q43 0 60.5 12.5t22.5 39.5l172 -59q-44 -154 -267 -154q-247 0 -247 240q0 152 80.5 237t217.5 85q239 0 246 -148l-186 -65q0 29 -17 40.5t-52 11.5q-70 0 -91 -65h196l-13 -106h-197q3 -36 21 -52.5t54 -16.5z" />
    <glyph glyph-name="afii10102" unicode="&#x455;" horiz-adv-x="570" 
d="M259 125q42 0 65 12.5t23 35.5q0 9 -5 14.5t-17.5 8.5t-25.5 4.5t-38 3.5q-38 3 -53.5 4t-46 5.5t-43.5 9.5t-32.5 14.5t-28 22.5t-15 32t-6.5 44q0 56 26 99t68.5 66t88.5 34t95 11q224 0 235 -129l-185 -63q3 25 -11 38t-55 13q-30 0 -47.5 -11.5t-17.5 -31.5
q0 -16 17.5 -22.5t62.5 -9.5q113 -7 149 -19q76 -27 76 -118q0 -57 -26 -99t-69.5 -65t-93.5 -34t-106 -11q-120 0 -179 32.5t-63 102.5l185 64q-2 -29 15 -43.5t58 -14.5z" />
    <glyph glyph-name="afii10103" unicode="&#x456;" horiz-adv-x="290" 
d="M15 0l65 530h180l-65 -530h-180zM292 780l-22 -182h-184l22 182h184z" />
    <glyph glyph-name="afii10104" unicode="&#x457;" horiz-adv-x="290" 
d="M15 0l65 530h180l-65 -530h-180zM172 780l-22 -182h-184l22 182h184zM412 780l-22 -182h-184l22 182h184z" />
    <glyph glyph-name="afii10105" unicode="&#x458;" horiz-adv-x="290" 
d="M292 780l-22 -182h-184l22 182h184zM15 2l65 528h180l-68 -553q-11 -81 -70.5 -137t-181.5 -56q-67 0 -111 20l33 162q43 -29 91 -24q56 7 62 60z" />
    <glyph glyph-name="afii10106" unicode="&#x459;" horiz-adv-x="949" 
d="M567 137h112q51 0 51 40q0 30 -40 30h-114zM371 0l45 370h-105l-41 -130q-30 -97 -68.5 -150.5t-81.5 -71.5t-109 -18h-28l19 160h6q19 0 32 7.5t33.5 44.5t42.5 109l65 209h435l-23 -186h138q85 0 131.5 -30t46.5 -112q0 -61 -17.5 -102.5t-51 -62.5t-71.5 -29t-90 -8
h-308z" />
    <glyph glyph-name="afii10107" unicode="&#x45a;" horiz-adv-x="949" 
d="M567 137h112q51 0 51 40q0 30 -40 30h-114zM371 0l25 207h-172l-25 -207h-180l65 530h180l-23 -180h172l23 180h180l-23 -180h138q84 0 131 -31.5t47 -113.5q0 -61 -17.5 -103t-51 -63.5t-72 -30t-89.5 -8.5h-308z" />
    <glyph glyph-name="afii10108" unicode="&#x45b;" horiz-adv-x="654" 
d="M24 0l73 596h-79l15 124h79l10 80h180l-10 -80h123l-15 -124h-124l-13 -110q66 60 163 60q108 0 156.5 -52.5t33.5 -168.5l-39 -325h-180l37 302q5 44 -12.5 63t-55.5 18q-76 -1 -122 -50l-40 -333h-180z" />
    <glyph glyph-name="afii10109" unicode="&#x45c;" horiz-adv-x="640" 
d="M383 800h196l-137 -208h-179zM446 530h209l-145 -196q-31 -42 -70 -64q36 -21 58 -67l101 -203h-209l-71 160q-10 23 -26.5 30.5t-43.5 7.5h-26l-24 -198h-180l65 530h180l-24 -191h21q54 0 80 38z" />
    <glyph glyph-name="afii10110" unicode="&#x45e;" horiz-adv-x="626" 
d="M348 576q-115 0 -158 56.5t-27 167.5h140q-5 -33 10.5 -47.5t54.5 -14.5t58 14.5t23 47.5h140q-12 -111 -69 -167.5t-172 -56.5zM300 218l48 102l112 210h205l-297 -511q-40 -69 -66.5 -107t-62 -70.5t-76 -45t-96.5 -12.5q-68 0 -115 18l38 163q39 -17 79 -17
q60 0 101 70l14 25l-163 487h197l60 -210z" />
    <glyph glyph-name="afii10193" unicode="&#x45f;" horiz-adv-x="645" 
d="M400 0l-6 57q-73 -73 -176 -73q-108 0 -157 53t-34 168l40 325h180l-38 -302q-5 -44 12.5 -63t56.5 -18q75 1 121 50l41 333h180l-47 -376l-8 -154h-165zM337 -200h-166l20 160h166z" />
    <glyph glyph-name="afii10050" unicode="&#x490;" horiz-adv-x="600" 
d="M672 940l-40 -325h-355l-75 -615h-185l95 780h360l20 160h180z" />
    <glyph glyph-name="afii10098" unicode="&#x491;" horiz-adv-x="500" 
d="M244 370l-45 -370h-180l65 530h237l19 160h175l-39 -320h-232z" />
    <glyph glyph-name="uni0E3F" unicode="&#xe3f;" horiz-adv-x="613" 
d="M367 100h-88l-40 -100h-158l40 100h-90l69 564h230l41 100h157l-42 -104q114 -18 114 -136q0 -40 -20 -75.5t-57 -50.5q66 -17 66 -113q0 -185 -222 -185zM226 261h130q18 0 28.5 2t19.5 10.5t9 23.5q0 20 -11 26t-35 6h-133zM376 503h-121l-7 -56h122q46 0 46 31
q0 15 -9 20t-31 5z" />
    <glyph glyph-name="Ddotbelow" unicode="&#x1e0c;" horiz-adv-x="763" 
d="M310 0h-293l95 780h293q169 0 252.5 -74t83.5 -229q0 -229 -109.5 -353t-321.5 -124zM222 165h108q118 0 170 78t52 207q0 81 -39 123t-128 42h-108zM397 -40l-20 -160h-184l20 160h184z" />
    <glyph glyph-name="ddotbelow" unicode="&#x1e0d;" horiz-adv-x="647" 
d="M370 -40l-20 -160h-184l20 160h184zM478 800h180l-80 -646l-8 -154h-165l-6 57q-67 -73 -167 -73q-211 0 -211 217q0 158 72 251.5t208 93.5q89 0 139 -56zM404 197l16 136q-32 50 -99 50q-47 0 -80 -36t-33 -107q0 -47 23 -70t61 -23q67 0 112 50z" />
    <glyph glyph-name="Dcedilla" unicode="&#x1e10;" horiz-adv-x="763" 
d="M163 -193l34 76q0 -1 9.5 -5.5t25.5 -9t29 -4.5q35 0 35 22q0 31 -74 39l26 54q187 -12 187 -94q0 -51 -43 -76t-103 -25q-77 0 -126 23zM310 0h-293l95 780h293q169 0 252.5 -74t83.5 -229q0 -229 -109.5 -353t-321.5 -124zM222 165h108q118 0 170 78t52 207
q0 81 -39 123t-128 42h-108z" />
    <glyph glyph-name="dcedilla" unicode="&#x1e11;" horiz-adv-x="647" 
d="M478 800h180l-80 -646l-8 -154h-165l-6 57q-67 -73 -167 -73q-211 0 -211 217q0 158 72 251.5t208 93.5q89 0 139 -56zM404 197l16 136q-32 50 -99 50q-47 0 -80 -36t-33 -107q0 -47 23 -70t61 -23q67 0 112 50zM127 -193l34 76q0 -1 9.5 -5.5t25.5 -9t29 -4.5
q35 0 35 22q0 31 -74 39l26 54q187 -12 187 -94q0 -51 -43 -76t-103 -25q-77 0 -126 23z" />
    <glyph glyph-name="Hdotbelow" unicode="&#x1e24;" horiz-adv-x="748" 
d="M571 780h185l-95 -780h-185l38 316h-274l-38 -316h-185l95 780h185l-36 -299h274zM431 -40l-20 -160h-184l20 160h184z" />
    <glyph glyph-name="hdotbelow" unicode="&#x1e25;" horiz-adv-x="639" 
d="M373 -40l-20 -160h-184l20 160h184zM9 0l98 800h180l-39 -314q66 60 163 60q108 0 156.5 -52.5t33.5 -168.5l-39 -325h-180l37 302q5 44 -12.5 63t-55.5 18q-76 -1 -122 -50l-40 -333h-180z" />
    <glyph glyph-name="Ldotbelow" unicode="&#x1e36;" horiz-adv-x="600" 
d="M297 780l-75 -615h355l-20 -165h-540l95 780h185zM369 -40l-20 -160h-184l20 160h184z" />
    <glyph glyph-name="ldotbelow" unicode="&#x1e37;" horiz-adv-x="290" 
d="M192 -40l-20 -160h-184l20 160h184zM15 0l98 800h180l-98 -800h-180z" />
    <glyph glyph-name="uni004C032300AF" unicode="&#x1e38;" horiz-adv-x="600" 
d="M297 780l-75 -615h355l-20 -165h-540l95 780h185zM369 -40l-20 -160h-184l20 160h184zM378 846h-332l20 164h332z" />
    <glyph glyph-name="ldotbelowmacron" unicode="&#x1e39;" horiz-adv-x="290" 
d="M192 -40l-20 -160h-184l20 160h184zM379 846h-332l20 164h332zM15 0l98 800h180l-98 -800h-180z" />
    <glyph glyph-name="Mdotbelow" unicode="&#x1e42;" horiz-adv-x="906" 
d="M505 -40l-20 -160h-184l20 160h184zM491 0h-152l-85 454l-55 -454h-182l95 780h245l88 -501l228 501h241l-95 -780h-182l55 454z" />
    <glyph glyph-name="mdotbelow" unicode="&#x1e43;" horiz-adv-x="978" 
d="M545 -40l-20 -160h-184l20 160h184zM235 530l5 -57q62 73 172 73q115 0 158 -75q83 75 195 75q97 0 143.5 -51t33.5 -153l-41 -342h-180l39 322q7 61 -64 61q-60 0 -108 -50l-40 -333h-180l39 322q7 61 -64 61q-60 0 -108 -50l-40 -333h-180l46 376l9 154h165z" />
    <glyph glyph-name="Ndotaccent" unicode="&#x1e44;" horiz-adv-x="768" 
d="M290 780l247 -453l16 145l38 308h185l-95 -780h-178l-247 453l-17 -145l-37 -308h-185l95 780h178zM554 1010l-22 -182h-184l22 182h184z" />
    <glyph glyph-name="ndotaccent" unicode="&#x1e45;" horiz-adv-x="645" 
d="M471 780l-22 -182h-184l22 182h184zM235 530l5 -57q73 73 177 73q108 0 156.5 -52.5t33.5 -168.5l-39 -325h-180l37 302q5 44 -12.5 63t-55.5 18q-76 -1 -122 -50l-40 -333h-180l46 376l9 154h165z" />
    <glyph glyph-name="Ndotbelow" unicode="&#x1e46;" horiz-adv-x="768" 
d="M290 780l247 -453l16 145l38 308h185l-95 -780h-178l-247 453l-17 -145l-37 -308h-185l95 780h178zM441 -40l-20 -160h-184l20 160h184z" />
    <glyph glyph-name="ndotbelow" unicode="&#x1e47;" horiz-adv-x="645" 
d="M374 -40l-20 -160h-184l20 160h184zM235 530l5 -57q73 73 177 73q108 0 156.5 -52.5t33.5 -168.5l-39 -325h-180l37 302q5 44 -12.5 63t-55.5 18q-76 -1 -122 -50l-40 -333h-180l46 376l9 154h165z" />
    <glyph glyph-name="Rdotbelow" unicode="&#x1e5a;" horiz-adv-x="725" 
d="M235 269l-33 -269h-185l95 780h345q266 0 266 -208q0 -116 -48.5 -184.5t-123.5 -95.5l143 -292h-212l-119 269h-128zM255 435h174q19 0 33.5 3t32.5 13t28 33.5t10 59.5q0 71 -82 71h-174zM413 -40l-20 -160h-184l20 160h184z" />
    <glyph glyph-name="rdotbelow" unicode="&#x1e5b;" horiz-adv-x="436" 
d="M194 -40l-20 -160h-184l20 160h184zM384 546q45 0 72 -13l-34 -168q-26 8 -49 8q-93 0 -139 -50l-39 -323h-180l46 376l9 154h165l5 -57q25 33 64.5 53t79.5 20z" />
    <glyph glyph-name="Rdotbelowmacron" unicode="&#x1e5c;" horiz-adv-x="725" 
d="M235 269l-33 -269h-185l95 780h345q266 0 266 -208q0 -116 -48.5 -184.5t-123.5 -95.5l143 -292h-212l-119 269h-128zM255 435h174q19 0 33.5 3t32.5 13t28 33.5t10 59.5q0 71 -82 71h-174zM413 -40l-20 -160h-184l20 160h184zM574 846h-332l20 164h332z" />
    <glyph glyph-name="rdotbelowmacron" unicode="&#x1e5d;" horiz-adv-x="436" 
d="M194 -40l-20 -160h-184l20 160h184zM428 616h-332l20 164h332zM384 546q45 0 72 -13l-34 -168q-26 8 -49 8q-93 0 -139 -50l-39 -323h-180l46 376l9 154h165l5 -57q25 33 64.5 53t79.5 20z" />
    <glyph glyph-name="Sdotbelow" unicode="&#x1e62;" horiz-adv-x="722" 
d="M404 -40l-20 -160h-184l20 160h184zM338 149q43 0 78 6.5t62.5 28t27.5 55.5q0 42 -31 59t-112 21q-52 2 -88 6.5t-77 17t-66 33t-41.5 56t-16.5 84.5q0 91 50.5 156.5t125.5 94.5t164 29q153 0 231 -56.5t80 -161.5l-193 -66q4 68 -27 93.5t-102 25.5q-54 0 -97.5 -20.5
t-43.5 -66.5q0 -36 25.5 -48t102.5 -17q65 -4 107 -10t82.5 -19.5t62.5 -36t35.5 -59t13.5 -87.5q0 -72 -30.5 -128t-82.5 -89t-115 -49.5t-133 -16.5q-166 0 -239 55.5t-73 162.5l193 66q-11 -58 26.5 -88.5t100.5 -30.5z" />
    <glyph glyph-name="sdotbelow" unicode="&#x1e63;" horiz-adv-x="570" 
d="M327 -40l-20 -160h-184l20 160h184zM259 125q42 0 65 12.5t23 35.5q0 9 -5 14.5t-17.5 8.5t-25.5 4.5t-38 3.5q-38 3 -53.5 4t-46 5.5t-43.5 9.5t-32.5 14.5t-28 22.5t-15 32t-6.5 44q0 56 26 99t68.5 66t88.5 34t95 11q224 0 235 -129l-185 -63q3 25 -11 38t-55 13
q-30 0 -47.5 -11.5t-17.5 -31.5q0 -16 17.5 -22.5t62.5 -9.5q113 -7 149 -19q76 -27 76 -118q0 -57 -26 -99t-69.5 -65t-93.5 -34t-106 -11q-120 0 -179 32.5t-63 102.5l185 64q-2 -29 15 -43.5t58 -14.5z" />
    <glyph glyph-name="Tdotbelow" unicode="&#x1e6c;" horiz-adv-x="627" 
d="M446 615l-75 -615h-185l75 615h-214l20 165h613l-20 -165h-214zM365 -40l-20 -160h-184l20 160h184z" />
    <glyph glyph-name="tdotbelow" unicode="&#x1e6d;" horiz-adv-x="480" 
d="M26 380l19 150h97l19 160h180l-19 -160h160l-19 -150h-160l-22 -178q-4 -30 8.5 -43.5t39.5 -16.5q24 -3 52 5.5t45 18.5l-7 -162q-49 -20 -115 -20q-64 0 -108.5 17t-66 45.5t-28.5 61t-3 69.5l25 203h-97zM313 -40l-20 -160h-184l20 160h184z" />
    <glyph glyph-name="Wgrave" unicode="&#x1e80;" horiz-adv-x="1020" 
d="M388 1030h196l68 -208h-179zM566 373l-15 233l-74 -233l-118 -381h-233l-50 788h203l7 -344v-178l55 182l109 340h244l26 -340l9 -182l44 178l91 344h200l-245 -788h-227z" />
    <glyph glyph-name="wgrave" unicode="&#x1e81;" horiz-adv-x="850" 
d="M438 193l-3 177l-47 -177l-56 -193h-252l-31 530h187l-2 -200l-6 -159l51 171l60 188h232l12 -188l9 -171l34 159l48 200h187l-161 -530h-252zM285 800h196l68 -208h-179z" />
    <glyph glyph-name="Wacute" unicode="&#x1e82;" horiz-adv-x="1020" 
d="M618 1030h196l-137 -208h-179zM566 373l-15 233l-74 -233l-118 -381h-233l-50 788h203l7 -344v-178l55 182l109 340h244l26 -340l9 -182l44 178l91 344h200l-245 -788h-227z" />
    <glyph glyph-name="wacute" unicode="&#x1e83;" horiz-adv-x="850" 
d="M438 193l-3 177l-47 -177l-56 -193h-252l-31 530h187l-2 -200l-6 -159l51 171l60 188h232l12 -188l9 -171l34 159l48 200h187l-161 -530h-252zM495 800h196l-137 -208h-179z" />
    <glyph glyph-name="Wdieresis" unicode="&#x1e84;" horiz-adv-x="1020" 
d="M571 1010l-23 -182h-184l23 182h184zM811 1010l-23 -182h-184l23 182h184zM566 373l-15 233l-74 -233l-118 -381h-233l-50 788h203l7 -344v-178l55 182l109 340h244l26 -340l9 -182l44 178l91 344h200l-245 -788h-227z" />
    <glyph glyph-name="wdieresis" unicode="&#x1e85;" horiz-adv-x="850" 
d="M438 193l-3 177l-47 -177l-56 -193h-252l-31 530h187l-2 -200l-6 -159l51 171l60 188h232l12 -188l9 -171l34 159l48 200h187l-161 -530h-252zM457 780l-22 -182h-184l22 182h184zM697 780l-22 -182h-184l22 182h184z" />
    <glyph glyph-name="Idotbelow" unicode="&#x1eca;" horiz-adv-x="311" 
d="M308 780l-95 -780h-185l95 780h185zM208 -40l-20 -160h-184l20 160h184z" />
    <glyph glyph-name="idotbelow" unicode="&#x1ecb;" horiz-adv-x="290" 
d="M20 0l65 530h180l-65 -530h-180zM297 780l-22 -182h-184l22 182h184zM197 -40l-20 -160h-184l20 160h184z" />
    <glyph glyph-name="Odotbelow" unicode="&#x1ecc;" horiz-adv-x="820" 
d="M462 -40l-20 -160h-184l20 160h184zM452 631q-60 0 -104 -26.5t-67 -72t-33.5 -96.5t-10.5 -111q0 -176 156 -176q61 0 105 26.5t67 73t33 98t10 111.5q0 173 -156 173zM373 -16q-167 0 -245.5 84t-78.5 237q0 105 25.5 192.5t75.5 155t132.5 105.5t189.5 38
q166 0 245 -83.5t79 -234.5q0 -105 -25 -193t-75 -156.5t-132.5 -106.5t-190.5 -38z" />
    <glyph glyph-name="odotbelow" unicode="&#x1ecd;" horiz-adv-x="620" 
d="M362 -40l-20 -160h-184l20 160h184zM292 146q117 0 117 152q0 48 -22 67t-65 19q-117 0 -117 -151q0 -48 22.5 -67.5t64.5 -19.5zM273 -16q-120 0 -185.5 58.5t-65.5 170.5q0 161 88 247t232 86q120 0 185 -58t65 -170q0 -162 -87.5 -248t-231.5 -86z" />
    <glyph glyph-name="Udotbelow" unicode="&#x1ee4;" horiz-adv-x="746" 
d="M356 148q89 0 122 36.5t41 106.5l60 489h185l-60 -493q-9 -69 -31 -121t-63.5 -94.5t-110 -65t-163.5 -22.5t-158.5 22.5t-94.5 65t-40.5 94.5t-0.5 121l60 493h185l-60 -489q-5 -29 -2 -55t14 -45.5t40.5 -31t76.5 -11.5zM425 -40l-20 -160h-184l20 160h184z" />
    <glyph glyph-name="udotbelow" unicode="&#x1ee5;" horiz-adv-x="645" 
d="M374 -40l-20 -160h-184l20 160h184zM405 0l-6 57q-73 -73 -176 -73q-108 0 -157 53t-34 168l40 325h180l-38 -302q-5 -44 12.5 -63t56.5 -18q75 1 121 50l41 333h180l-47 -376l-8 -154h-165z" />
    <glyph glyph-name="Ygrave" unicode="&#x1ef2;" horiz-adv-x="730" 
d="M380 477l217 303h223l-361 -485l-36 -295h-186l36 295l-243 485h213zM260 1030h196l68 -208h-179z" />
    <glyph glyph-name="ygrave" unicode="&#x1ef3;" horiz-adv-x="626" 
d="M180 800h196l68 -208h-179zM665 530l-289 -497l-127 -233h-208l143 242l-163 488h198l39 -163l39 -171l83 171l81 163h204z" />
    <glyph glyph-name="Ytilde" unicode="&#x1ef8;" horiz-adv-x="730" 
d="M509 806q-36 0 -64 12t-42 26t-29.5 26t-30.5 12q-16 0 -26.5 -12t-13.5 -24l-3 -11l-122 15q19 83 68.5 139.5t130.5 56.5q36 0 64.5 -12t42 -26t29.5 -26t31 -12q16 0 26.5 12t13.5 24l2 11l123 -15q-19 -83 -68.5 -139.5t-131.5 -56.5zM382 472l217 308h221l-361 -485
l-36 -295h-186l36 295l-243 485h215z" />
    <glyph glyph-name="ytilde" unicode="&#x1ef9;" horiz-adv-x="626" 
d="M429 576q-36 0 -64 12t-42 26t-29.5 26t-30.5 12q-16 0 -26.5 -12t-13.5 -24l-3 -11l-122 15q18 82 67.5 139t131.5 57q36 0 64 -12t42 -26t29.5 -26t30.5 -12q16 0 26.5 12t13.5 24l3 11l122 -15q-18 -82 -67.5 -139t-131.5 -57zM665 530l-289 -497l-127 -233h-208
l143 242l-163 488h198l39 -163l39 -171l83 171l81 163h204z" />
    <glyph glyph-name="enspace" unicode="&#x2002;" horiz-adv-x="500" 
 />
    <glyph glyph-name="emspace" unicode="&#x2003;" horiz-adv-x="1000" 
 />
    <glyph glyph-name="threeperemspace" unicode="&#x2004;" horiz-adv-x="333" 
 />
    <glyph glyph-name="fourperemspace" unicode="&#x2005;" horiz-adv-x="250" 
 />
    <glyph glyph-name="sixperemspace" unicode="&#x2006;" horiz-adv-x="167" 
 />
    <glyph glyph-name="figurespace" unicode="&#x2007;" 
 />
    <glyph glyph-name="punctuationspace" unicode="&#x2008;" horiz-adv-x="260" 
 />
    <glyph glyph-name="thinspace" unicode="&#x2009;" horiz-adv-x="200" 
 />
    <glyph glyph-name="hairspace" unicode="&#x200a;" horiz-adv-x="100" 
 />
    <glyph glyph-name="zerowidthspace" unicode="&#x200b;" horiz-adv-x="0" 
 />
    <glyph glyph-name="figuredash" unicode="&#x2012;" 
d="M647 253h-612l20 164h612z" />
    <glyph glyph-name="endash" unicode="&#x2013;" horiz-adv-x="500" 
d="M447 253h-412l20 164h412z" />
    <glyph glyph-name="emdash" unicode="&#x2014;" horiz-adv-x="1000" 
d="M947 253h-912l20 164h912z" />
    <glyph glyph-name="uni2015" unicode="&#x2015;" horiz-adv-x="1400" 
d="M1347 253h-1312l20 164h1312z" />
    <glyph glyph-name="doublebar" unicode="&#x2016;" horiz-adv-x="586" 
d="M324 830l-117 -960h-185l117 960h185zM579 830l-117 -960h-185l117 960h185z" />
    <glyph glyph-name="underscoredbl" unicode="&#x2017;" horiz-adv-x="300" 
d="M220 -200h-259l7 64h260zM232 -100h-260l8 64h260z" />
    <glyph glyph-name="quoteleft" unicode="&#x2018;" horiz-adv-x="220" 
d="M212 530h-191l94 250h147z" />
    <glyph glyph-name="quoteright" unicode="&#x2019;" horiz-adv-x="220" 
d="M98 780h191l-94 -250h-147z" />
    <glyph glyph-name="quotesinglbase" unicode="&#x201a;" horiz-adv-x="220" 
d="M3 86h191l-95 -250h-146z" />
    <glyph glyph-name="reversequoteleft" unicode="&#x201b;" horiz-adv-x="220" 
d="M36 780h191l-10 -250h-147z" />
    <glyph glyph-name="quotedblleft" unicode="&#x201c;" horiz-adv-x="427" 
d="M212 530h-191l94 250h147zM427 530h-191l94 250h147z" />
    <glyph glyph-name="quotedblright" unicode="&#x201d;" horiz-adv-x="435" 
d="M313 780h191l-94 -250h-147zM98 780h191l-94 -250h-147z" />
    <glyph glyph-name="quotedblbase" unicode="&#x201e;" horiz-adv-x="435" 
d="M218 86h191l-95 -250h-147zM3 86h191l-95 -250h-146z" />
    <glyph glyph-name="reversequotedblleft" unicode="&#x201f;" horiz-adv-x="435" 
d="M36 780h191l-10 -250h-147zM251 780h191l-10 -250h-147z" />
    <glyph glyph-name="dagger" unicode="&#x2020;" horiz-adv-x="331" 
d="M169 780h113l-22 -102l107 10l-14 -112l-105 10l-4 -196h-133l44 196l-107 -10l14 112l105 -10z" />
    <glyph glyph-name="daggerdbl" unicode="&#x2021;" horiz-adv-x="331" 
d="M169 780h113l-22 -102l107 10l-14 -112l-106 10v-34l-8 -35l108 10l-14 -112l-104 10l-4 -196h-133l44 196l-108 -10l14 112l105 -10v35l8 34l-107 -10l14 112l105 -10z" />
    <glyph glyph-name="bullet" unicode="&#x2022;" horiz-adv-x="450" 
d="M420 504l-41 -338h-338l41 338h338z" />
    <glyph glyph-name="ellipsis" unicode="&#x2026;" horiz-adv-x="1020" 
d="M259 182l-22 -182h-184l22 182h184zM589 182l-22 -182h-184l22 182h184zM919 182l-22 -182h-184l22 182h184z" />
    <glyph glyph-name="perthousand" unicode="&#x2030;" horiz-adv-x="1713" 
d="M308 643q-89 0 -89 -100q0 -64 69 -64q89 0 89 100q0 64 -69 64zM199 0l644 764h196l-644 -764h-196zM271 342q-204 0 -204 178q0 130 69.5 195t188.5 65q205 0 205 -176q0 -131 -69.5 -196.5t-189.5 -65.5zM950 285q-89 0 -89 -100q0 -64 69 -64q89 0 89 100
q0 64 -69 64zM913 -16q-204 0 -204 178q0 130 69.5 195t188.5 65q205 0 205 -176q0 -131 -69.5 -196.5t-189.5 -65.5zM1448 285q-89 0 -89 -100q0 -64 69 -64q89 0 89 100q0 64 -69 64zM1411 -16q-204 0 -204 178q0 130 69.5 195t188.5 65q205 0 205 -176
q0 -131 -69.5 -196.5t-189.5 -65.5z" />
    <glyph glyph-name="minute" unicode="&#x2032;" horiz-adv-x="247" 
d="M100 764h197l-90 -341h-149z" />
    <glyph glyph-name="second" unicode="&#x2033;" horiz-adv-x="475" 
d="M100 764h197l-90 -341h-149zM328 764h197l-90 -341h-149z" />
    <glyph glyph-name="tripleprime" unicode="&#x2034;" horiz-adv-x="704" 
d="M82 780h203l-55 -250h-153zM311 780h202l-55 -250h-152zM540 780h202l-55 -250h-152z" />
    <glyph glyph-name="guilsinglleft" unicode="&#x2039;" horiz-adv-x="300" 
d="M244 255l-15 -136l-190 143l13 106l225 143l-19 -147l-66 -53z" />
    <glyph glyph-name="guilsinglright" unicode="&#x203a;" horiz-adv-x="300" 
d="M63 375l15 136l190 -143l-13 -106l-225 -143l19 147l66 53z" />
    <glyph glyph-name="exclamdbl" unicode="&#x203c;" horiz-adv-x="560" 
d="M109 780h202l-94 -530h-144zM229 182l-22 -182h-184l22 182h184zM369 780h202l-94 -530h-144zM489 182l-22 -182h-184l22 182h184z" />
    <glyph glyph-name="fraction" unicode="&#x2044;" horiz-adv-x="275" 
d="M-271 0l644 764h196l-644 -764h-196z" />
    <glyph glyph-name="uni2070" unicode="&#x2070;" horiz-adv-x="538" 
d="M312 643q-89 0 -89 -100q0 -64 69 -64q89 0 89 100q0 64 -69 64zM275 342q-204 0 -204 178q0 130 69.5 195t188.5 65q205 0 205 -176q0 -131 -69.5 -196.5t-189.5 -65.5z" />
    <glyph glyph-name="uni2074" unicode="&#x2074;" horiz-adv-x="476" 
d="M465 407h-70l-6 -53h-149l6 53h-207l16 126l235 247h151l-29 -235h70zM263 545l10 74l-68 -74h58z" />
    <glyph glyph-name="uni2075" unicode="&#x2075;" horiz-adv-x="451" 
d="M232 342q-84 0 -128 25t-50 81l153 53q0 -32 42 -32q19 0 32 10t13 24q0 17 -8 25t-29 8q-36 0 -52 -21l-122 42l51 211h328l-17 -137h-200l-13 -41q38 25 103 25q112 0 112 -116q0 -79 -60.5 -118t-154.5 -39z" />
    <glyph glyph-name="uni2076" unicode="&#x2076;" horiz-adv-x="453" 
d="M282 651q-54 -2 -65 -54q27 23 93 23q71 0 103.5 -23.5t32.5 -75.5q0 -92 -56 -135.5t-150 -43.5q-90 0 -133 39.5t-43 124.5q0 139 63 206.5t176 67.5q149 0 163 -97l-152 -52q-1 20 -32 20zM265 523q-42 0 -49 -30q2 -10 12.5 -16.5t23.5 -6.5q18 0 29.5 8.5t11.5 23.5
q0 21 -28 21z" />
    <glyph glyph-name="uni2077" unicode="&#x2077;" horiz-adv-x="439" 
d="M246 354h-176l188 277h-186l17 137h379l-11 -88z" />
    <glyph glyph-name="uni2078" unicode="&#x2078;" horiz-adv-x="470" 
d="M274 609q53 0 53 25q0 21 -47 21q-53 0 -53 -26q0 -20 47 -20zM257 467q56 0 56 29q0 24 -50 24q-56 0 -56 -30q0 -23 50 -23zM295 780q177 0 177 -115q0 -30 -12.5 -58.5t-33.5 -43.5q38 -21 38 -69q0 -80 -56.5 -116t-166.5 -36q-95 0 -142.5 26t-47.5 84q0 83 61 111
q-26 21 -26 68q0 42 18.5 72.5t50 46.5t66 23t74.5 7z" />
    <glyph glyph-name="uni2079" unicode="&#x2079;" horiz-adv-x="453" 
d="M237 471q54 2 65 54q-27 -23 -93 -23q-71 0 -103.5 23.5t-32.5 75.5q0 92 56 135.5t150 43.5q90 0 133 -39.5t43 -124.5q0 -139 -63 -206.5t-176 -67.5q-149 0 -163 97l152 52q1 -20 32 -20zM254 599q42 0 49 30q-2 10 -12.5 16.5t-23.5 6.5q-18 0 -29.5 -8.5
t-11.5 -23.5q0 -21 28 -21z" />
    <glyph glyph-name="uni207A" unicode="&#x207a;" horiz-adv-x="400" 
d="M128 415l11 83h-83l20 164h83l10 83h164l-10 -83h83l-20 -164h-83l-11 -83h-164z" />
    <glyph glyph-name="uni207B" unicode="&#x207b;" horiz-adv-x="400" 
d="M46 498l20 164h340l-20 -164h-340z" />
    <glyph glyph-name="uni207C" unicode="&#x207c;" horiz-adv-x="400" 
d="M68 600l18 145h330l-18 -145h-330zM45 415l18 145h330l-18 -145h-330z" />
    <glyph glyph-name="uni207D" unicode="&#x207d;" horiz-adv-x="310" 
d="M334 820q-40 -72 -66.5 -161.5t-26.5 -168.5q0 -85 27 -176h-163q-31 89 -31 179q0 183 87 327h173z" />
    <glyph glyph-name="uni207E" unicode="&#x207e;" horiz-adv-x="310" 
d="M34 314q40 72 66.5 161.5t26.5 168.5q0 85 -27 176h163q31 -89 31 -179q0 -183 -87 -327h-173z" />
    <glyph glyph-name="n.superior" unicode="&#x207f;" horiz-adv-x="457" 
d="M205 738l4 -24q47 35 107 35q144 0 126 -147l-26 -212h-127l25 198q3 24 -7 35t-31 10q-41 0 -70 -29l-27 -214h-127l30 245l8 103h115z" />
    <glyph glyph-name="uni2080" unicode="&#x2080;" horiz-adv-x="538" 
d="M269 289q-89 0 -89 -100q0 -64 69 -64q89 0 89 100q0 64 -69 64zM232 -12q-204 0 -204 178q0 130 69.5 195t188.5 65q205 0 205 -176q0 -131 -69.5 -196.5t-189.5 -65.5z" />
    <glyph glyph-name="uni2081" unicode="&#x2081;" horiz-adv-x="420" 
d="M311 426l-36 -289h96l-16 -137h-351l16 137h106l13 101q-52 -29 -120 -29l17 139q99 15 157 78h118z" />
    <glyph glyph-name="uni2082" unicode="&#x2082;" horiz-adv-x="460" 
d="M237 299q-23 0 -36.5 -6t-16.5 -26l-142 48q20 62 72 86.5t132 24.5q83 0 130.5 -31.5t47.5 -88.5q0 -71 -42.5 -98.5t-142.5 -42.5q-54 -8 -59 -30l65 2h167l-17 -137h-399q4 48 11 82.5t21 59.5t28.5 41t41 28t50 18.5t63.5 14.5q18 4 25.5 6t18 6t14 9t3.5 13
q0 20 -35 21z" />
    <glyph glyph-name="uni2083" unicode="&#x2083;" horiz-adv-x="466" 
d="M213 125q54 2 58 26q0 12 -8.5 16.5t-31.5 4.5h-86l10 83h91q25 0 28 20q0 24 -33 24q-25 0 -38.5 -6t-16.5 -26l-142 49q19 61 69.5 85.5t138.5 24.5q176 0 176 -113q0 -69 -47 -100q37 -19 37 -68q0 -157 -227 -157q-173 0 -184 116l153 53q0 -32 53 -32z" />
    <glyph glyph-name="uni2084" unicode="&#x2084;" horiz-adv-x="476" 
d="M422 53h-70l-6 -53h-149l6 53h-207l16 126l235 247h151l-29 -235h70zM220 191l10 74l-68 -74h58z" />
    <glyph glyph-name="uni2085" unicode="&#x2085;" horiz-adv-x="451" 
d="M189 -12q-84 0 -128 25t-50 81l153 53q0 -32 42 -32q19 0 32 10t13 24q0 17 -8 25t-29 8q-36 0 -52 -21l-122 42l51 211h328l-17 -137h-200l-13 -41q38 25 103 25q112 0 112 -116q0 -79 -60.5 -118t-154.5 -39z" />
    <glyph glyph-name="uni2086" unicode="&#x2086;" horiz-adv-x="453" 
d="M239 297q-54 -2 -65 -54q27 23 93 23q71 0 103.5 -23.5t32.5 -75.5q0 -92 -56 -135.5t-150 -43.5q-90 0 -133 39.5t-43 124.5q0 139 63 206.5t176 67.5q149 0 163 -97l-152 -52q-1 20 -32 20zM222 169q-42 0 -49 -30q2 -10 12.5 -16.5t23.5 -6.5q18 0 29.5 8.5t11.5 23.5
q0 21 -28 21z" />
    <glyph glyph-name="uni2087" unicode="&#x2087;" horiz-adv-x="439" 
d="M203 0h-176l188 277h-186l17 137h379l-11 -88z" />
    <glyph glyph-name="uni2088" unicode="&#x2088;" horiz-adv-x="470" 
d="M231 255q53 0 53 25q0 21 -47 21q-53 0 -53 -26q0 -20 47 -20zM214 113q56 0 56 29q0 24 -50 24q-56 0 -56 -30q0 -23 50 -23zM252 426q177 0 177 -115q0 -30 -12.5 -58.5t-33.5 -43.5q38 -21 38 -69q0 -80 -56.5 -116t-166.5 -36q-95 0 -142.5 26t-47.5 84q0 83 61 111
q-26 21 -26 68q0 42 18.5 72.5t50 46.5t66 23t74.5 7z" />
    <glyph glyph-name="uni2089" unicode="&#x2089;" horiz-adv-x="453" 
d="M194 117q54 2 65 54q-27 -23 -93 -23q-71 0 -103.5 23.5t-32.5 75.5q0 92 56 135.5t150 43.5q90 0 133 -39.5t43 -124.5q0 -139 -63 -206.5t-176 -67.5q-149 0 -163 97l152 52q1 -20 32 -20zM211 245q42 0 49 30q-2 10 -12.5 16.5t-23.5 6.5q-18 0 -29.5 -8.5
t-11.5 -23.5q0 -21 28 -21z" />
    <glyph glyph-name="uni208A" unicode="&#x208a;" horiz-adv-x="400" 
d="M85 61l11 83h-83l20 164h83l10 83h164l-10 -83h83l-20 -164h-83l-11 -83h-164z" />
    <glyph glyph-name="uni208B" unicode="&#x208b;" horiz-adv-x="400" 
d="M3 144l20 164h340l-20 -164h-340z" />
    <glyph glyph-name="uni208C" unicode="&#x208c;" horiz-adv-x="400" 
d="M25 246l18 145h330l-18 -145h-330zM2 61l18 145h330l-18 -145h-330z" />
    <glyph glyph-name="uni208D" unicode="&#x208d;" horiz-adv-x="310" 
d="M291 466q-40 -72 -66.5 -161.5t-26.5 -168.5q0 -85 27 -176h-163q-31 89 -31 179q0 183 87 327h173z" />
    <glyph glyph-name="uni208E" unicode="&#x208e;" horiz-adv-x="310" 
d="M-9 -40q40 72 66.5 161.5t26.5 168.5q0 85 -27 176h163q31 -89 31 -179q0 -183 -87 -327h-173z" />
    <glyph glyph-name="uni20A1" unicode="&#x20a1;" horiz-adv-x="743" 
d="M685 810l-39 -77q43 -25 66.5 -68t25.5 -95l-192 -66q3 15 -1 35l-202 -389q7 -1 22 -1q68 0 106 30t45 81l178 -62q-27 -102 -117 -158t-232 -56q-43 0 -83 8l-20 -38h-93l33 64q-18 10 -26 16l-41 -80h-93l73 142q-53 80 -53 205q0 132 42 238t134.5 173.5t223.5 67.5
h7l16 30h93l-20 -38q20 -4 30 -7l24 45h93zM249 213q6 -16 19 -29l218 421q-10 4 -30 8zM232 360l126 244q-107 -41 -126 -244z" />
    <glyph glyph-name="uni20A2" unicode="&#x20a2;" horiz-adv-x="743" 
d="M442 780q141 0 216.5 -55t79.5 -155l-192 -66q5 51 -25.5 81t-98.5 30t-112.5 -43.5t-62 -108.5t-17.5 -150q0 -95 43 -134l17 132l9 154h165l6 -47q63 63 143 63q68 0 103 -16l-36 -176q-23 19 -78 19q-93 0 -139 -50l-11 -91q54 28 64 93l178 -62q-27 -102 -117 -158
t-232 -56q-154 0 -228.5 84.5t-74.5 231.5q0 98 24.5 183.5t72.5 152.5t126 105.5t177 38.5z" />
    <glyph glyph-name="franc" unicode="&#x20a3;" horiz-adv-x="632" 
d="M345 511h238l-14 -114h-238l-3 -30h238l-14 -114h-238l-31 -253h-185l31 253h-102l14 114h101l4 30h-102l14 114h102l31 253h486l-20 -165h-301z" />
    <glyph glyph-name="lira" unicode="&#x20a4;" horiz-adv-x="784" 
d="M522 780q267 0 273 -184l-188 -64q3 41 -21.5 67t-82.5 25q-78 -1 -112 -29.5t-42 -93.5l-1 -8h238l-14 -114h-238l-4 -30h238l-14 -114h-238l-8 -71h429l-20 -164h-716l20 164h108l8 71h-108l14 114h108l4 30h-108l14 114h108l2 14q18 145 103 209t248 64z" />
    <glyph glyph-name="uni20A6" unicode="&#x20a6;" horiz-adv-x="828" 
d="M58 511h72l31 253h176l122 -253h98l31 253h185l-31 -253h72l-14 -114h-72l-3 -30h72l-14 -114h-72l-31 -253h-176l-122 253h-98l-31 -253h-185l31 253h-72l14 114h72l3 30h-72zM538 347l5 50h-29zM303 417l-6 -50h30z" />
    <glyph glyph-name="peseta" unicode="&#x20a7;" horiz-adv-x="1628" 
d="M245 399h149q40 0 71 27t31 95q0 43 -22.5 60.5t-54.5 17.5h-149zM1351 405q-30 0 -47.5 -11.5t-17.5 -31.5q0 -16 17.5 -22.5t62.5 -9.5q115 -7 151 -19q74 -26 74 -109q0 -60 -26 -104t-70.5 -68t-94.5 -35t-106 -11q-134 0 -189 37q-81 -37 -196 -37q-64 0 -108.5 17
t-66 45.5t-28.5 61t-3 69.5l25 203h-80q-73 -147 -284 -147h-139l-28 -233h-185l93 764h320q43 0 80.5 -6.5t73 -23.5t60 -42.5t37.5 -67t9 -94.5h62l19 160h180l-19 -160h160l-19 -150h-160l-22 -178q-4 -30 8.5 -43.5t39.5 -16.5q51 -6 305 37q-2 -28 15 -41t58 -13
q42 0 65 12.5t23 35.5q0 9 -5 14.5t-17.5 8.5t-25.5 4.5t-38 3.5q-31 2 -42 3t-37 3.5t-36 5t-30.5 7.5t-28.5 11t-20.5 15t-17.5 20.5t-9 26.5t-4 33q0 59 26 103t69 68t89.5 35t95.5 11q222 0 233 -129l-185 -63q3 25 -11 38t-55 13z" />
    <glyph glyph-name="uni20A8" unicode="&#x20a8;" horiz-adv-x="1250" 
d="M991 546q222 0 233 -129l-185 -63q3 25 -11 38t-55 13q-30 0 -47.5 -11.5t-17.5 -31.5q0 -16 17.5 -22.5t62.5 -9.5q115 -7 151 -19q74 -26 74 -109q0 -218 -347 -218q-111 0 -198 17.5t-139 42.5t-92 64.5t-58 71t-35 73.5h-116l-31 -253h-185l93 764h345
q266 0 266 -208q0 -116 -48.5 -184t-124.5 -95q11 -27 33 -51t60.5 -48.5t102.5 -38.5t145 -14q78 0 108 12t30 36q0 9 -5 14.5t-17.5 8.5t-25.5 4.5t-38 3.5q-31 2 -42 3t-37 3.5t-36 5t-30.5 7.5t-28.5 11t-20.5 15t-17.5 20.5t-9 26.5t-4 33q0 59 26 103t69 68t89.5 35
t95.5 11zM248 419h174q19 0 33.5 3t32.5 13t28 33.5t10 59.5q0 71 -82 71h-174z" />
    <glyph glyph-name="uni20A9" unicode="&#x20a9;" horiz-adv-x="960" 
d="M931 253h-109l-87 -269h-191l-29 269h-88l-95 -269h-191l-22 269h-108l14 114h85l-3 30h-79l14 114h56l-20 253h190l10 -253h77l91 253h174l29 -253h77l72 253h190l-83 -253h57l-14 -114h-80l-9 -30h86zM494 445l-27 -78h36zM662 397l10 -79l22 79h-32zM282 397l4 -79
l28 79h-32z" />
    <glyph glyph-name="uni20AA" unicode="&#x20aa;" horiz-adv-x="780" 
d="M105 764h258q210 0 186 -200l-46 -371h-114l44 356q6 52 -46 52h-122l-73 -601h-180zM480 0h-258l70 571h114l-50 -408h122q52 0 58 52l67 549h180l-69 -564q-25 -200 -234 -200z" />
    <glyph glyph-name="Euro" unicode="&#x20ac;" horiz-adv-x="807" 
d="M121 253h-103l14 114h90l3 30h-90l14 114h103q42 127 135 198t231 71q141 0 216.5 -55t79.5 -155l-192 -66q5 51 -25.5 81t-98.5 30q-115 0 -154 -104h255l-53 -114h-234l-3 -30h224l-53 -114h-167q5 -48 37.5 -76t90.5 -28q68 0 106 30t45 81l178 -62
q-27 -102 -117 -158t-232 -56q-138 0 -214.5 71t-85.5 198z" />
    <glyph glyph-name="uni20AE" unicode="&#x20ae;" horiz-adv-x="567" 
d="M396 489l117 56l-11 -93l-118 -56l-4 -34l118 56l-12 -93l-117 -56l-33 -269h-185l21 176l-106 -50l11 93l107 50l4 34l-106 -50l11 93l106 50l25 203h-174l20 165h533l-20 -165h-174z" />
    <glyph glyph-name="uni20B1" unicode="&#x20b1;" horiz-adv-x="752" 
d="M267 116l-14 -116h-185l38 311h-72l14 114h72l3 30h-72l14 114h72l24 195h260q228 0 259 -195h65l-14 -114h-50q0 -15 -3 -30h50l-14 -114h-65q-79 -195 -307 -195h-75zM494 455h-186l-3 -30h186zM326 599l-4 -30h157q-19 30 -64 30h-89zM287 281h89q45 0 72 30h-157z
" />
    <glyph glyph-name="afii61248" unicode="&#x2105;" horiz-adv-x="1151" 
d="M1019 780l-658 -780h-196l658 780h196zM62 544q0 119 64.5 185.5t181.5 66.5q191 0 200 -124l-152 -52q0 44 -64 44q-84 0 -84 -98q0 -60 65 -60t74 44l140 -48q-39 -128 -231 -128q-194 0 -194 170zM884 116q86 0 86 97q0 61 -67 61q-86 0 -86 -97q0 -61 67 -61z
M867 -16q-93 0 -144.5 46t-51.5 130q0 115 68.5 180.5t179.5 65.5q93 0 144.5 -46t51.5 -130q0 -115 -68.5 -180.5t-179.5 -65.5z" />
    <glyph glyph-name="afii61289" unicode="&#x2113;" horiz-adv-x="441" 
d="M239 566v-88q39 62 39 128q0 24 -17 24q-22 0 -22 -64zM289 -16q-109 0 -159.5 41.5t-63.5 115.5q-32 -20 -52 -31v144l46 35v209q0 282 197 282q156 0 156 -176q0 -57 -14.5 -109t-43 -96t-54 -74.5t-62.5 -67.5v-62q0 -29 13 -39.5t42 -13.5q49 -5 94 24l13 -162
q-47 -20 -112 -20z" />
    <glyph glyph-name="afii61352" unicode="&#x2116;" horiz-adv-x="1360" 
d="M1114 182l-22 -182h-184l22 182h184zM734 764l-93 -764h-201l-185 430l-51 -430h-192l93 764h201l185 -430l51 430h192zM1045 380q117 0 117 152q0 48 -22 67t-65 19q-117 0 -117 -151q0 -48 22.5 -67.5t64.5 -19.5zM1026 218q-120 0 -185.5 58.5t-65.5 170.5
q0 161 88 247t232 86q120 0 185 -58t65 -170q0 -162 -87.5 -248t-231.5 -86z" />
    <glyph glyph-name="published" unicode="&#x2117;" horiz-adv-x="900" 
d="M53 341q0 119 64.5 225t170.5 168t224 62q154 0 256.5 -102t102.5 -253q0 -121 -64 -227t-169.5 -168t-224.5 -62q-155 0 -257.5 103t-102.5 254zM400 274l99 1q88 1 149 58t61 166q0 77 -45 116.5t-118 39.5h-243l-65 -530h144zM430 514h91q40 0 40 -39q0 -30 -15 -44.5
t-37 -14.5h-91z" />
    <glyph glyph-name="servicemark" unicode="&#x2120;" horiz-adv-x="598" 
d="M537 649l-54 -139h-76l-20 139l-17 -139h-81l33 270h114l21 -149l57 149h120l-33 -270h-81zM156 504q-53 0 -80 16.5t-28 59.5l83 29q0 -18 8 -24t27 -6q12 0 22.5 5t11.5 13q0 9 -6 12t-26 5q-48 4 -73.5 18t-25.5 50q0 52 34.5 78t85.5 26q50 0 75 -15t27 -52l-83 -28
q0 20 -28 20q-26 0 -28 -15q0 -12 29 -14q54 -3 78 -16.5t24 -53.5q0 -52 -37.5 -80t-89.5 -28z" />
    <glyph glyph-name="trademark" unicode="&#x2122;" horiz-adv-x="598" 
d="M217 703l-24 -193h-84l24 193h-74l9 77h232l-9 -77h-74zM537 649l-54 -139h-76l-20 139l-17 -139h-81l33 270h114l21 -149l57 149h120l-33 -270h-81z" />
    <glyph glyph-name="ohm" unicode="&#x2126;" 
d="M385 617q-86 0 -129.5 -60.5t-43.5 -161.5q0 -135 96 -246l-18 -149h-312l20 163h141q-94 125 -94 267q0 150 99.5 250t260.5 100q135 0 210.5 -72t75.5 -188q0 -183 -170 -357h141l-20 -163h-312l18 149q168 153 168 334q0 62 -33.5 98t-97.5 36z" />
    <glyph glyph-name="estimated" unicode="&#x212e;" horiz-adv-x="810" 
d="M795 325h-607q9 -110 58 -170t160 -60q198 0 237 162h137q-20 -139 -118 -206t-257 -67q-174 0 -282 108.5t-108 289.5t108 289.5t282 108.5t282 -108.5t108 -289.5v-57zM406 670q-111 0 -160 -60.5t-57 -170.5h433q-8 110 -57.5 170.5t-158.5 60.5z" />
    <glyph glyph-name="uni2153" unicode="&#x2153;" horiz-adv-x="1167" 
d="M155 0l644 764h196l-644 -764h-196zM914 125q54 2 58 26q0 12 -8.5 16.5t-31.5 4.5h-86l10 83h91q25 0 28 20q0 24 -33 24q-25 0 -38.5 -6t-16.5 -26l-142 49q19 61 69.5 85.5t138.5 24.5q176 0 176 -113q0 -69 -47 -100q37 -19 37 -68q0 -157 -227 -157q-173 0 -184 116
l153 53q0 -32 53 -32zM354 780l-35 -289h96l-17 -137h-351l17 137h106l12 101q-52 -29 -119 -29l17 139q98 15 156 78h118z" />
    <glyph glyph-name="uni2154" unicode="&#x2154;" horiz-adv-x="1201" 
d="M280 653q-23 0 -36.5 -6t-16.5 -26l-142 48q20 62 72 86.5t132 24.5q83 0 130.5 -31.5t47.5 -88.5q0 -71 -42.5 -98.5t-142.5 -42.5q-54 -8 -59 -30l65 2h167l-17 -137h-399q4 48 11 82.5t21 59.5t28.5 41t41 28t50 18.5t63.5 14.5q18 4 25.5 6t18 6t14 9t3.5 13
q0 20 -35 21zM189 0l644 764h196l-644 -764h-196zM948 125q54 2 58 26q0 12 -8.5 16.5t-31.5 4.5h-86l10 83h91q25 0 28 20q0 24 -33 24q-25 0 -38.5 -6t-16.5 -26l-142 49q19 61 69.5 85.5t138.5 24.5q176 0 176 -113q0 -69 -47 -100q37 -19 37 -68q0 -157 -227 -157
q-173 0 -184 116l153 53q0 -32 53 -32z" />
    <glyph glyph-name="uni2155" unicode="&#x2155;" horiz-adv-x="1152" 
d="M155 0l644 764h196l-644 -764h-196zM890 -12q-84 0 -128 25t-50 81l153 53q0 -32 42 -32q19 0 32 10t13 24q0 17 -8 25t-29 8q-36 0 -52 -21l-122 42l51 211h328l-17 -137h-200l-13 -41q38 25 103 25q112 0 112 -116q0 -79 -60.5 -118t-154.5 -39zM354 780l-35 -289h96
l-17 -137h-351l17 137h106l12 101q-52 -29 -119 -29l17 139q98 15 156 78h118z" />
    <glyph glyph-name="uni2156" unicode="&#x2156;" horiz-adv-x="1186" 
d="M280 653q-23 0 -36.5 -6t-16.5 -26l-142 48q20 62 72 86.5t132 24.5q83 0 130.5 -31.5t47.5 -88.5q0 -71 -42.5 -98.5t-142.5 -42.5q-54 -8 -59 -30l65 2h167l-17 -137h-399q4 48 11 82.5t21 59.5t28.5 41t41 28t50 18.5t63.5 14.5q18 4 25.5 6t18 6t14 9t3.5 13
q0 20 -35 21zM189 0l644 764h196l-644 -764h-196zM924 -12q-84 0 -128 25t-50 81l153 53q0 -32 42 -32q19 0 32 10t13 24q0 17 -8 25t-29 8q-36 0 -52 -21l-122 42l51 211h328l-17 -137h-200l-13 -41q38 25 103 25q112 0 112 -116q0 -79 -60.5 -118t-154.5 -39z" />
    <glyph glyph-name="uni2157" unicode="&#x2157;" horiz-adv-x="1192" 
d="M256 479q54 2 58 26q0 12 -8.5 16.5t-31.5 4.5h-86l10 83h91q25 0 28 20q0 24 -33 24q-25 0 -38.5 -6t-16.5 -26l-142 49q19 61 69.5 85.5t138.5 24.5q176 0 176 -113q0 -69 -47 -100q37 -19 37 -68q0 -157 -227 -157q-173 0 -184 116l153 53q0 -32 53 -32zM195 0
l644 764h196l-644 -764h-196zM930 -12q-84 0 -128 25t-50 81l153 53q0 -32 42 -32q19 0 32 10t13 24q0 17 -8 25t-29 8q-36 0 -52 -21l-122 42l51 211h328l-17 -137h-200l-13 -41q38 25 103 25q112 0 112 -116q0 -79 -60.5 -118t-154.5 -39z" />
    <glyph glyph-name="uni2158" unicode="&#x2158;" horiz-adv-x="1202" 
d="M465 407h-70l-6 -53h-149l6 53h-207l16 126l235 247h151l-29 -235h70zM263 545l10 74l-68 -74h58zM205 0l644 764h196l-644 -764h-196zM940 -12q-84 0 -128 25t-50 81l153 53q0 -32 42 -32q19 0 32 10t13 24q0 17 -8 25t-29 8q-36 0 -52 -21l-122 42l51 211h328l-17 -137
h-200l-13 -41q38 25 103 25q112 0 112 -116q0 -79 -60.5 -118t-154.5 -39z" />
    <glyph glyph-name="uni2159" unicode="&#x2159;" horiz-adv-x="1154" 
d="M155 0l644 764h196l-644 -764h-196zM940 297q-54 -2 -65 -54q27 23 93 23q71 0 103.5 -23.5t32.5 -75.5q0 -92 -56 -135.5t-150 -43.5q-90 0 -133 39.5t-43 124.5q0 139 63 206.5t176 67.5q149 0 163 -97l-152 -52q-1 20 -32 20zM923 169q-42 0 -49 -30q2 -10 12.5 -16.5
t23.5 -6.5q18 0 29.5 8.5t11.5 23.5q0 21 -28 21zM354 780l-35 -289h96l-17 -137h-351l17 137h106l12 101q-52 -29 -119 -29l17 139q98 15 156 78h118z" />
    <glyph glyph-name="uni215A" unicode="&#x215a;" horiz-adv-x="1179" 
d="M232 342q-84 0 -128 25t-50 81l153 53q0 -32 42 -32q19 0 32 10t13 24q0 17 -8 25t-29 8q-36 0 -52 -21l-122 42l51 211h328l-17 -137h-200l-13 -41q38 25 103 25q112 0 112 -116q0 -79 -60.5 -118t-154.5 -39zM180 0l644 764h196l-644 -764h-196zM965 297
q-54 -2 -65 -54q27 23 93 23q71 0 103.5 -23.5t32.5 -75.5q0 -92 -56 -135.5t-150 -43.5q-90 0 -133 39.5t-43 124.5q0 139 63 206.5t176 67.5q149 0 163 -97l-152 -52q-1 20 -32 20zM948 169q-42 0 -49 -30q2 -10 12.5 -16.5t23.5 -6.5q18 0 29.5 8.5t11.5 23.5
q0 21 -28 21z" />
    <glyph glyph-name="uni215B" unicode="&#x215b;" horiz-adv-x="1171" 
d="M155 0l644 764h196l-644 -764h-196zM932 255q53 0 53 25q0 21 -47 21q-53 0 -53 -26q0 -20 47 -20zM915 113q56 0 56 29q0 24 -50 24q-56 0 -56 -30q0 -23 50 -23zM953 426q177 0 177 -115q0 -30 -12.5 -58.5t-33.5 -43.5q38 -21 38 -69q0 -80 -56.5 -116t-166.5 -36
q-95 0 -142.5 26t-47.5 84q0 83 61 111q-26 21 -26 68q0 42 18.5 72.5t50 46.5t66 23t74.5 7zM354 780l-35 -289h96l-17 -137h-351l17 137h106l12 101q-52 -29 -119 -29l17 139q98 15 156 78h118z" />
    <glyph glyph-name="uni215C" unicode="&#x215c;" horiz-adv-x="1211" 
d="M256 479q54 2 58 26q0 12 -8.5 16.5t-31.5 4.5h-86l10 83h91q25 0 28 20q0 24 -33 24q-25 0 -38.5 -6t-16.5 -26l-142 49q19 61 69.5 85.5t138.5 24.5q176 0 176 -113q0 -69 -47 -100q37 -19 37 -68q0 -157 -227 -157q-173 0 -184 116l153 53q0 -32 53 -32zM195 0
l644 764h196l-644 -764h-196zM972 255q53 0 53 25q0 21 -47 21q-53 0 -53 -26q0 -20 47 -20zM955 113q56 0 56 29q0 24 -50 24q-56 0 -56 -30q0 -23 50 -23zM993 426q177 0 177 -115q0 -30 -12.5 -58.5t-33.5 -43.5q38 -21 38 -69q0 -80 -56.5 -116t-166.5 -36
q-95 0 -142.5 26t-47.5 84q0 83 61 111q-26 21 -26 68q0 42 18.5 72.5t50 46.5t66 23t74.5 7z" />
    <glyph glyph-name="uni215D" unicode="&#x215d;" horiz-adv-x="1196" 
d="M232 342q-84 0 -128 25t-50 81l153 53q0 -32 42 -32q19 0 32 10t13 24q0 17 -8 25t-29 8q-36 0 -52 -21l-122 42l51 211h328l-17 -137h-200l-13 -41q38 25 103 25q112 0 112 -116q0 -79 -60.5 -118t-154.5 -39zM180 0l644 764h196l-644 -764h-196zM957 255q53 0 53 25
q0 21 -47 21q-53 0 -53 -26q0 -20 47 -20zM940 113q56 0 56 29q0 24 -50 24q-56 0 -56 -30q0 -23 50 -23zM978 426q177 0 177 -115q0 -30 -12.5 -58.5t-33.5 -43.5q38 -21 38 -69q0 -80 -56.5 -116t-166.5 -36q-95 0 -142.5 26t-47.5 84q0 83 61 111q-26 21 -26 68
q0 42 18.5 72.5t50 46.5t66 23t74.5 7z" />
    <glyph glyph-name="uni215E" unicode="&#x215e;" horiz-adv-x="1144" 
d="M246 354h-176l188 277h-186l17 137h379l-11 -88zM128 0l644 764h196l-644 -764h-196zM905 255q53 0 53 25q0 21 -47 21q-53 0 -53 -26q0 -20 47 -20zM888 113q56 0 56 29q0 24 -50 24q-56 0 -56 -30q0 -23 50 -23zM926 426q177 0 177 -115q0 -30 -12.5 -58.5t-33.5 -43.5
q38 -21 38 -69q0 -80 -56.5 -116t-166.5 -36q-95 0 -142.5 26t-47.5 84q0 83 61 111q-26 21 -26 68q0 42 18.5 72.5t50 46.5t66 23t74.5 7z" />
    <glyph glyph-name="uni215F" unicode="&#x215f;" horiz-adv-x="715" 
d="M354 780l-35 -289h96l-17 -137h-351l17 137h106l12 101q-52 -29 -119 -29l17 139q98 15 156 78h118zM155 0l644 764h196l-644 -764h-196z" />
    <glyph glyph-name="arrowleft" unicode="&#x2190;" horiz-adv-x="860" 
d="M24 331v118l456 281v-199l-118 -60l165 4h293v-170h-293l-165 4l118 -60v-199z" />
    <glyph glyph-name="arrowup" unicode="&#x2191;" horiz-adv-x="860" 
d="M371 796h118l281 -456h-199l-60 118l4 -165v-293h-170v293l4 165l-60 -118h-199z" />
    <glyph glyph-name="arrowright" unicode="&#x2192;" horiz-adv-x="860" 
d="M836 449v-118l-456 -281v199l118 60l-165 -4h-293v170h293l165 -4l-118 60v199z" />
    <glyph glyph-name="arrowdown" unicode="&#x2193;" horiz-adv-x="860" 
d="M489 -16h-118l-281 456h199l60 -118l-4 165v293h170v-293l-4 -165l60 118h199z" />
    <glyph glyph-name="uni2196" unicode="&#x2196;" horiz-adv-x="860" 
d="M16 713l83 83l521 -124l-140 -140l-126 41l119 -114l208 -207l-121 -121l-207 208l-114 119l41 -126l-140 -140z" />
    <glyph glyph-name="uni2197" unicode="&#x2197;" horiz-adv-x="860" 
d="M761 796l83 -83l-124 -521l-140 140l41 126l-114 -119l-207 -208l-121 121l208 207l119 114l-126 -41l-140 140z" />
    <glyph glyph-name="uni2198" unicode="&#x2198;" horiz-adv-x="860" 
d="M844 77l-83 -83l-521 124l140 140l126 -41l-119 114l-208 207l121 121l207 -208l114 -119l-41 126l140 140z" />
    <glyph glyph-name="uni2199" unicode="&#x2199;" horiz-adv-x="860" 
d="M99 -6l-83 83l124 521l140 -140l-41 -126l114 119l207 208l121 -121l-208 -207l-119 -114l126 41l140 -140z" />
    <glyph glyph-name="partialdiff" unicode="&#x2202;" horiz-adv-x="717" 
d="M369 635q-106 0 -198 -63l-60 142q120 82 277 82q151 0 230 -85.5t79 -243.5q0 -234 -97.5 -358.5t-287.5 -124.5q-127 0 -202 59t-75 171q0 150 83 231.5t234 81.5q47 0 96.5 -18t70.5 -54q21 80 -23 130t-127 50zM352 368q-57 -1 -93.5 -33t-36.5 -98q0 -45 30.5 -68.5
t79.5 -23.5q65 0 106.5 31t41.5 90q0 51 -35 76.5t-93 25.5z" />
    <glyph glyph-name="increment" unicode="&#x2206;" horiz-adv-x="860" 
d="M10 0l9 78l420 696h92l248 -696l-9 -78h-760zM452 507l-201 -344h318z" />
    <glyph glyph-name="product" unicode="&#x220f;" horiz-adv-x="800" 
d="M533 599h-200l-73 -599h-186l73 599h-84l20 165h740l-20 -165h-84l-73 -599h-186z" />
    <glyph glyph-name="summation" unicode="&#x2211;" horiz-adv-x="670" 
d="M78 613l18 151h582l-20 -165h-167l-128 1l193 -145l-17 -129l-227 -162l128 1h180l-20 -165h-607l19 155l339 237z" />
    <glyph glyph-name="minus" unicode="&#x2212;" 
d="M620 308h-540v164h540v-164z" />
    <glyph glyph-name="radical" unicode="&#x221a;" horiz-adv-x="868" 
d="M709 764h203l-534 -764h-200l-41 340l-119 -24l22 173l250 57l34 -345z" />
    <glyph glyph-name="infinity" unicode="&#x221e;" horiz-adv-x="800" 
d="M325 390q-16 18 -23.5 26t-26 19t-37.5 12q-26 1 -42.5 -14t-16.5 -43t16 -42.5t43 -14.5q19 1 37.5 12t26 19t23.5 26zM400 287q-70 -81 -161 -81q-88 0 -139 47.5t-51 136.5t51 136.5t139 47.5q91 0 161 -81q70 81 161 81q88 0 139 -47.5t51 -136.5t-51 -136.5
t-139 -47.5q-91 0 -161 81zM475 390q16 -18 23.5 -26t26 -19t37.5 -12q26 -1 42.5 14t16.5 43t-16 42.5t-43 14.5q-19 -1 -37.5 -12t-26 -19t-23.5 -26z" />
    <glyph glyph-name="integral" unicode="&#x222b;" horiz-adv-x="280" 
d="M263 598l-76 -621q-11 -81 -70.5 -137t-181.5 -56q-67 0 -111 20l33 162q43 -29 91 -24q56 7 62 60l76 621q10 81 70 137t183 56q66 0 110 -20l-33 -162q-40 29 -91 24q-56 -7 -62 -60z" />
    <glyph glyph-name="approxequal" unicode="&#x2248;" 
d="M475 373q-45 0 -132 33t-121 33q-25 0 -48 -7t-34 -14l-10 -7l-60 119q2 3 6 7.5t18 16t30.5 20.5t43.5 16t57 7q45 0 131.5 -33.5t121.5 -32.5q25 0 48 7t34 14l10 7l60 -119q-2 -3 -6 -7.5t-18 -16t-30.5 -20.5t-43.5 -16t-57 -7zM475 183q-45 0 -132 33t-121 33
q-25 0 -48 -7t-34 -14l-10 -7l-60 119q2 3 6 7.5t18 16t30.5 20.5t43.5 16t57 7q45 0 131.5 -33.5t121.5 -32.5q25 0 48 7t34 14l10 7l60 -119q-2 -3 -6 -7.5t-18 -16t-30.5 -20.5t-43.5 -16t-57 -7z" />
    <glyph glyph-name="notequal" unicode="&#x2260;" 
d="M620 428h-168l-51 -76h219v-164h-328l-53 -81h-155l54 81h-58v164h167l51 76h-218v164h328l53 81h155l-54 -81h58v-164z" />
    <glyph glyph-name="equivalence" unicode="&#x2261;" 
d="M620 120h-540v164h540v-164zM620 496h-540v164h540v-164zM620 308h-540v164h540v-164z" />
    <glyph glyph-name="lessequal" unicode="&#x2264;" 
d="M295 440l150 -27l175 -29v-174l-540 138v184l540 138v-174l-175 -29zM620 111l-540 138v69l540 -138v-69z" />
    <glyph glyph-name="greaterequal" unicode="&#x2265;" 
d="M255 413l150 27l-150 27l-175 29v174l540 -138v-184l-540 -138v174zM620 249l-540 -138v69l540 138v-69z" />
    <glyph glyph-name="squaremultiply" unicode="&#x22a0;" horiz-adv-x="960" 
d="M90 0v780h780v-780h-780zM700 614h-440v-448h440v448zM277 303l87 87l-87 87l116 116l87 -87l87 87l116 -116l-87 -87l87 -87l-116 -116l-87 87l-87 -87z" />
    <glyph glyph-name="house" unicode="&#x2302;" horiz-adv-x="850" 
d="M780 0h-710v450l355 340l355 -340v-450z" />
    <glyph glyph-name="blacksquare" unicode="&#x25a0;" horiz-adv-x="960" 
d="M870 780v-780h-780v780h780z" />
    <glyph glyph-name="whitesquare" unicode="&#x25a1;" horiz-adv-x="960" 
d="M90 0v780h780v-780h-780zM700 614h-440v-448h440v448z" />
    <glyph glyph-name="blacksmallsquare" unicode="&#x25aa;" horiz-adv-x="710" 
d="M620 530v-530h-530v530h530z" />
    <glyph glyph-name="whitesmallsquare" unicode="&#x25ab;" horiz-adv-x="710" 
d="M90 0v530h530v-530h-530zM450 364h-190v-198h190v198z" />
    <glyph glyph-name="triagup" unicode="&#x25b2;" horiz-adv-x="800" 
d="M790 0h-780l390 676z" />
    <glyph glyph-name="triagrt" unicode="&#x25ba;" horiz-adv-x="800" 
d="M34 0v780l676 -390z" />
    <glyph glyph-name="triagdn" unicode="&#x25bc;" horiz-adv-x="800" 
d="M10 780h780l-390 -676z" />
    <glyph glyph-name="triaglf" unicode="&#x25c4;" horiz-adv-x="800" 
d="M710 780v-780l-676 390z" />
    <glyph glyph-name="lozenge" unicode="&#x25ca;" horiz-adv-x="900" 
d="M408 -10l-319 400l417 400l319 -400zM318 388l118 -154l160 158l-118 154z" />
    <glyph glyph-name="whitecircle" unicode="&#x25cb;" horiz-adv-x="960" 
d="M80 390q0 166 117 283t283 117t283 -117t117 -283t-117 -283t-283 -117t-283 117t-117 283zM696 390q0 93 -63 157t-153 64t-152.5 -64t-62.5 -157t63 -157t153 -64t152.5 64t62.5 157z" />
    <glyph glyph-name="whitecircle" unicode="&#x25ef;" horiz-adv-x="960" 
d="M80 390q0 166 117 283t283 117t283 -117t117 -283t-117 -283t-283 -117t-283 117t-117 283zM696 390q0 93 -63 157t-153 64t-152.5 -64t-62.5 -157t63 -157t153 -64t152.5 64t62.5 157z" />
    <glyph glyph-name="bullseye" unicode="&#x25ce;" horiz-adv-x="960" 
d="M80 390q0 166 117 283t283 117t283 -117t117 -283t-117 -283t-283 -117t-283 117t-117 283zM330 390q0 62 44 106t106 44t106 -44t44 -106t-44 -106t-106 -44t-106 44t-44 106zM157 339q0 -113 79.5 -192.5t192.5 -79.5t193 79.5t80 192.5t-80 193t-193 80t-192.5 -80
t-79.5 -193z" />
    <glyph glyph-name="blackcircle" unicode="&#x25cf;" horiz-adv-x="960" 
d="M80 390q0 166 117 283t283 117t283 -117t117 -283t-117 -283t-283 -117t-283 117t-117 283z" />
    <glyph glyph-name="uni25E2" unicode="&#x25e2;" horiz-adv-x="800" 
d="M26 202l552 552l202 -754z" />
    <glyph glyph-name="uni25E3" unicode="&#x25e3;" horiz-adv-x="800" 
d="M222 754l552 -552l-754 -202z" />
    <glyph glyph-name="uni25E4" unicode="&#x25e4;" horiz-adv-x="800" 
d="M774 578l-552 -552l-202 754z" />
    <glyph glyph-name="uni25E5" unicode="&#x25e5;" horiz-adv-x="800" 
d="M578 26l-552 552l754 202z" />
    <glyph glyph-name="uni2600" unicode="&#x2600;" horiz-adv-x="985" 
d="M493 565q112 0 191 -79t79 -191t-79 -190.5t-191 -78.5t-190.5 78.5t-78.5 190.5t78.5 191t190.5 79zM493 205q38 0 64.5 26.5t26.5 63.5t-27 64t-64 27t-63.5 -26.5t-26.5 -64.5q0 -37 26.5 -63.5t63.5 -26.5zM270 720l104 -125l-155 -131l-105 125zM49 477l160 -29
l-35 -200l-160 29zM36 149l141 81l102 -176l-141 -81zM237 -111l56 153l191 -69l-56 -153zM392 601v163h203v-163h-203zM613 595l104 125l156 -131l-105 -125zM778 448l160 29l35 -200l-160 -29zM810 230l141 -81l-102 -176l-141 81zM694 42l56 -153l-191 -69l-56 153z" />
    <glyph glyph-name="uni2601" unicode="&#x2601;" horiz-adv-x="1350" 
d="M257 637q54 90 146.5 143.5t200.5 53.5q133 0 238.5 -77.5t145.5 -200.5q1 1 3 1q34 8 65 8q112 0 190.5 -79t78.5 -191t-78.5 -190.5t-190.5 -78.5h-721q-129 0 -219.5 91t-90.5 219q0 107 65.5 190.5t166.5 110.5zM985 295h-189q33 65 33 136q0 93 -66 158.5t-159 65.5
q-76 0 -122 -41q168 -67 168 -278q0 -21 -2 -41h-186q4 17 4 41q0 55 -38.5 93t-92.5 38q-55 0 -93 -38t-38 -93t38 -93t93 -38h721q38 0 64 26.5t26 63.5q0 38 -26.5 64.5t-64.5 26.5q-29 0 -52 -15q-6 -38 -18 -76z" />
    <glyph glyph-name="uni2602" unicode="&#x2602;" horiz-adv-x="1350" 
d="M747 -10l-59 -163h-177l59 163h177zM1019 -10l-59 -163h-177l59 163h177zM475 -10l-59 -163h-177l59 163h177zM257 637q54 90 146.5 143.5t200.5 53.5q133 0 238.5 -77.5t145.5 -200.5q1 1 3 1q34 8 65 8q112 0 190.5 -79t78.5 -191t-78.5 -190.5t-190.5 -78.5h-721
q-129 0 -219.5 91t-90.5 219q0 107 65.5 190.5t166.5 110.5zM985 295h-189q33 65 33 136q0 93 -66 158.5t-159 65.5q-76 0 -122 -41q168 -67 168 -278q0 -21 -2 -41h-186q4 17 4 41q0 55 -38.5 93t-92.5 38q-55 0 -93 -38t-38 -93t38 -93t93 -38h721q38 0 64 26.5t26 63.5
q0 38 -26.5 64.5t-64.5 26.5q-29 0 -52 -15q-6 -38 -18 -76z" />
    <glyph glyph-name="uni2603" unicode="&#x2603;" horiz-adv-x="894" 
d="M794 189l100 -57l-26 -44h1l-19 -31l-38 -67l-97 56v-59h-63v95l-123 71v-139l87 -50l-31 -55l-56 33v-116h-164v113l-51 -30l-31 55l82 47v142l-120 -69v-102h-63v66l-100 -58l-41 71l-16 27l-25 44l96 56l-50 29l32 55l81 -48l124 71l-120 70l-88 -51l-32 55l57 32
l-100 58l25 43l32 55l25 44l97 -56v58h63v-95l123 -71v138l-88 51l32 55l56 -32v115h164v-112l50 29l32 -54l-82 -48v-141l120 69v101h63v-65l100 58l57 -99l25 -43l-98 -57l51 -29l-31 -54l-83 47l-122 -71l121 -70l87 51l31 -54z" />
    <glyph glyph-name="uni2605" unicode="&#x2605;" horiz-adv-x="880" 
d="M440 180l-260 -190l99 307l-260 189h322l99 306l99 -306h322l-260 -189l99 -307z" />
    <glyph glyph-name="uni2607" unicode="&#x2607;" horiz-adv-x="1351" 
d="M670 262h177l-113 -168l75 -68l-225 -225h-6l96 207l-91 81zM870 262h177l-113 -168l75 -68l-225 -225h-6l96 207l-91 81zM647 262l-113 -168l75 -68l-225 -225h-6l96 207l-91 81l87 173h177zM340 89l69 -63h-74q-129 0 -219.5 91t-90.5 219q0 107 65.5 190.5
t166.5 110.5q54 90 146.5 143.5t200.5 53.5q133 0 238.5 -77.5t145.5 -200.5q1 1 3 1q34 8 65 8q112 0 190.5 -79t78.5 -191t-78.5 -190.5t-190.5 -78.5l-71 63l58 116h13q38 0 64 26.5t26 63.5q0 38 -26.5 64.5t-64.5 26.5q-29 0 -52 -15q-6 -38 -18 -76h-189q33 65 33 136
q0 93 -66 158.5t-159 65.5q-76 0 -122 -41q168 -67 168 -278q0 -21 -2 -41h-186q4 17 4 41q0 55 -38.5 93t-92.5 38q-55 0 -93 -38t-38 -93t38 -93t93 -38h74z" />
    <glyph glyph-name="ballotboxwithx" unicode="&#x2612;" horiz-adv-x="710" 
d="M90 0v530h530v-530h-530zM239 265l-87 -87l116 -116l87 87l87 -87l116 116l-87 87l87 87l-116 116l-87 -87l-87 87l-116 -116z" />
    <glyph glyph-name="uni2614" unicode="&#x2614;" horiz-adv-x="1350" 
d="M1079 205l-138 -379h-147l138 379h147zM892 205l-138 -379h-147l138 379h147zM710 205l-138 -379h-147l138 379h147zM523 205l-138 -379h-147l138 379h147zM1054 27l85 233q7 18 7 35q0 38 -26.5 64.5t-64.5 26.5q-29 0 -52 -15q-6 -38 -18 -76h-189q33 65 33 136
q0 93 -66 158.5t-159 65.5q-76 0 -122 -41q168 -67 168 -278q0 -21 -2 -41h-186q4 17 4 41q0 55 -38.5 93t-92.5 38q-55 0 -93 -38t-38 -93t38 -93t93 -38h1l-63 -173q-107 22 -177.5 107t-70.5 197q0 107 65.5 190.5t166.5 110.5q54 90 146.5 143.5t200.5 53.5
q133 0 238.5 -77.5t145.5 -200.5q1 1 3 1q34 8 65 8q112 0 190.5 -79t78.5 -191t-78.5 -190.5t-190.5 -78.5z" />
    <glyph glyph-name="uni263C" unicode="&#x263c;" horiz-adv-x="960" 
d="M880 390l-169 -30l155 -73l-171 15l132 -112l-162 59l98 -141l-141 98l58 -162l-111 130l15 -170l-74 155l-30 -169l-30 169l-74 -155l15 170l-111 -130l58 162l-141 -98l98 141l-162 -59l132 112l-171 -15l155 73l-169 30l169 30l-155 73l171 -15l-132 112l162 -59
l-98 141l141 -98l-58 162l111 -130l-15 170l74 -155l30 169l30 -169l74 155l-15 -170l111 130l-58 -162l141 98l-98 -141l162 59l-132 -112l171 15l-155 -73z" />
    <glyph glyph-name="uni263E" unicode="&#x263e;" horiz-adv-x="960" 
d="M624 728q-134 0 -229 -99t-95 -239t95 -239t229 -99q50 0 96 15q-107 -77 -240 -77q-166 0 -283 117t-117 283t117 283t283 117q131 0 240 -77q-52 15 -96 15z" />
    <glyph glyph-name="spade" unicode="&#x2660;" horiz-adv-x="900" 
d="M451 790q32 -48 97 -116t136 -114q78 -51 121 -103t43 -123q0 -73 -51 -123.5t-125 -50.5q-69 0 -120.5 46t-79.5 115l-3 -1q8 -102 26.5 -174t55.5 -146h-202q37 74 55.5 146t26.5 174l-3 1q-28 -69 -79.5 -115t-120.5 -46q-74 0 -125 50.5t-51 123.5q0 71 43 123
t121 103q71 46 136 114t97 116h2z" />
    <glyph glyph-name="club" unicode="&#x2663;" horiz-adv-x="900" 
d="M349 0q37 74 55.5 146t26.5 174l-3 1q-28 -69 -79.5 -115t-120.5 -46q-74 0 -125 50.5t-51 123.5q0 79 48.5 129.5t125.5 50.5q40 0 84 -23l2 2q-38 57 -38 117q0 75 50.5 127.5t125.5 52.5t125.5 -52.5t50.5 -127.5q0 -60 -38 -117l2 -2q44 23 84 23q77 0 125.5 -50.5
t48.5 -129.5q0 -73 -51 -123.5t-125 -50.5q-69 0 -120.5 46t-79.5 115l-3 -1q8 -102 26.5 -174t55.5 -146h-202z" />
    <glyph glyph-name="heart" unicode="&#x2665;" horiz-adv-x="900" 
d="M451 -10h-2q-28 43 -94 126.5t-139 166.5q-164 185 -164 301q0 90 52 148t139 58q85 0 132.5 -42.5t72.5 -114.5h4q25 72 72.5 114.5t132.5 42.5q87 0 139 -58t52 -148q0 -116 -164 -301q-73 -83 -139 -166.5t-94 -126.5z" />
    <glyph glyph-name="diamond" unicode="&#x2666;" horiz-adv-x="900" 
d="M817 390q-106 -83 -202.5 -188.5t-163.5 -211.5h-2q-67 106 -163.5 211.5t-202.5 188.5q106 83 202.5 188.5t163.5 211.5h2q67 -106 163.5 -211.5t202.5 -188.5z" />
    <glyph glyph-name="musicflatsign" unicode="&#x266d;" horiz-adv-x="500" 
d="M50 -78v900h105v-326q18 20 54 33.5t71 13.5q104 0 150 -50.5t46 -152.5q0 -126 -127 -242.5t-299 -175.5zM155 333v-236q32 16 64.5 39t64.5 54.5t52 71.5t20 80q0 84 -87 84q-38 0 -70 -28t-44 -65z" />
    <glyph glyph-name="musicsharpsign" unicode="&#x266f;" horiz-adv-x="466" 
d="M376 880v-161l70 56v-159l-70 -56v-110l70 56v-159l-70 -56v-291h-105v206l-76 -61v-245h-105v161l-70 -56v159l70 56v110l-70 -56v159l70 56v291h105v-207l76 61v246h105zM195 414v-110l76 61v110z" />
    <glyph glyph-name="uni267B" unicode="&#x267b;" horiz-adv-x="960" 
d="M863 266l1 -2l-96 -167q-15 -22 -21.5 -30t-24 -17t-42.5 -9h-57v-49l-113 136l113 135v-49h145q26 0 50 13t34 26zM186 122h-2l-96 168q-11 21 -15 32t-3 30.5t14 40.5l28 49l-42 24l174 31l59 -166l-41 24q-70 -120 -72 -125q-13 -23 -14 -50t4 -42zM404 779v1h193
q24 -1 36 -2.5t28 -12.5t28 -32l28 -49l43 24l-61 -166l-173 31l41 24l-72 125q-13 23 -36 37.5t-39 16.5zM200 598l67 119q10 17 34 31q46 24 97 10t68 -45l-116 -201zM446 41h-135q-22 0 -44 13q-43 25 -57.5 79.5t4.5 80.5h232v-173zM806 527l69 -117q10 -18 10 -44
q1 -48 -38 -87t-74 -39l-116 201z" />
    <glyph glyph-name="uni267C" unicode="&#x267c;" horiz-adv-x="960" 
d="M880 389q0 -166 -116.5 -282.5t-282.5 -116.5q-167 0 -284 116.5t-117 282.5q0 167 117 284t284 117q166 0 282.5 -117t116.5 -284zM313 645l-52 -92l116 -67l90 156q-13 24 -52.5 34.5t-75.5 -7.5q-18 -11 -26 -24zM415 694v-1q48 -5 71 -44l56 -97l-32 -19l134 -24
l47 129l-33 -19l-22 38q-14 24 -29.5 30.5t-41.5 6.5h-150zM343 121h105v134h-180q-15 -20 -3.5 -62.5t44.5 -61.5q17 -10 34 -10zM249 184h1q-20 44 3 84l56 97l32 -19l-46 129l-135 -24l33 -19l-22 -38q-10 -16 -11 -31.5t2 -23.5t12 -25zM784 407l-53 91l-116 -67
l90 -156q27 0 57.5 30t29.5 68q0 20 -8 34zM776 294l-1 1q-3 -4 -9 -11t-25.5 -18t-39.5 -11h-112v38l-88 -105l88 -105v38h44q28 0 41.5 10.5t26.5 32.5z" />
    <glyph glyph-name="uni267D" unicode="&#x267d;" horiz-adv-x="960" 
d="M880 389q0 -166 -116.5 -282.5t-282.5 -116.5q-167 0 -284 116.5t-117 282.5q0 167 117 284t284 117q166 0 282.5 -117t116.5 -284zM860 389q0 158 -111 269.5t-268 111.5q-158 0 -269.5 -111.5t-111.5 -269.5q0 -157 111.5 -268t269.5 -111q157 0 268 111t111 268z
M261 553l52 92q8 13 26 24q36 18 75.5 7.5t52.5 -34.5l-90 -156zM415 693v1h150q26 0 41.5 -6.5t29.5 -30.5l22 -38l33 19l-47 -129l-134 24l32 19l-56 97q-10 17 -28 28t-30 13zM448 121h-105q-17 0 -34 10q-33 19 -44.5 61.5t3.5 62.5h180v-134zM250 184h-1l-75 130
q-9 17 -12 25t-2 23.5t11 31.5l22 38l-33 19l135 24l46 -129l-32 19l-56 -97q-10 -18 -11 -39t4 -33zM731 498l53 -91q8 -14 8 -34q1 -38 -29.5 -68t-57.5 -30l-90 156zM775 295l1 -1l-75 -130q-9 -15 -15 -22.5t-20 -14t-33 -6.5h-44v-38l-88 105l88 105v-38h112
q20 0 38.5 10t26.5 20z" />
    <glyph glyph-name="mediumwhitecircle" unicode="&#x26aa;" horiz-adv-x="710" 
d="M80 265q0 114 80.5 194.5t194.5 80.5t194.5 -80.5t80.5 -194.5t-80.5 -194.5t-194.5 -80.5t-194.5 80.5t-80.5 194.5zM452 265q0 40 -28 68t-68 28t-68 -28t-28 -68t28 -68t68 -28t68 28t28 68z" />
    <glyph glyph-name="mediumblackcircle" unicode="&#x26ab;" horiz-adv-x="710" 
d="M80 265q0 114 80.5 194.5t194.5 80.5t194.5 -80.5t80.5 -194.5t-80.5 -194.5t-194.5 -80.5t-194.5 80.5t-80.5 194.5z" />
    <glyph glyph-name="anglebracketleft" unicode="&#x3008;" horiz-adv-x="330" 
d="M200 338l68 -468h-182l-64 480l181 480h181z" />
    <glyph glyph-name="anglebracketright" unicode="&#x3009;" horiz-adv-x="330" 
d="M135 362l-68 468h182l64 -480l-181 -480h-181z" />
    <glyph glyph-name="lcedilla" unicode="&#xe100;" horiz-adv-x="290" 
d="M1 -75l32 67q208 -15 208 -101q0 -52 -49 -79.5t-124 -27.5q-77 0 -126 23l34 76q0 -1 9.5 -5.5t26 -9t29.5 -4.5q34 0 34 23q0 31 -74 38zM15 0l98 800h180l-98 -800h-180z" />
    <glyph glyph-name="uni004500600323" unicode="&#xe101;" horiz-adv-x="668" 
d="M112 780h566l-20 -165h-381l-16 -134h327l-21 -165h-327l-18 -151h401l-20 -165h-586zM386 -40l-20 -160h-184l20 160h184zM235 1030h196l68 -208h-179z" />
    <glyph glyph-name="uni006500600323" unicode="&#xe102;" horiz-adv-x="615" 
d="M359 -40l-20 -160h-184l20 160h184zM180 800h196l68 -208h-179zM580 214h-376q-1 -43 23 -63t70 -20q80 0 90 40l169 -58q-23 -57 -90.5 -93t-179.5 -36q-127 0 -195.5 59.5t-68.5 172.5q0 157 89 243.5t233 86.5q120 0 183 -57.5t63 -168.5q0 -44 -10 -106zM326 399
q-42 0 -71 -21.5t-35 -57.5h181q8 36 -13.5 57.5t-61.5 21.5z" />
    <glyph glyph-name="uni004500B40323" unicode="&#xe103;" horiz-adv-x="668" 
d="M112 780h566l-20 -165h-381l-16 -134h327l-21 -165h-327l-18 -151h401l-20 -165h-586zM386 -40l-20 -160h-184l20 160h184zM431 1030h196l-137 -208h-179z" />
    <glyph glyph-name="uni006500B40323" unicode="&#xe104;" horiz-adv-x="615" 
d="M359 -40l-20 -160h-184l20 160h184zM376 800h196l-137 -208h-179zM580 214h-376q-1 -43 23 -63t70 -20q80 0 90 40l169 -58q-23 -57 -90.5 -93t-179.5 -36q-127 0 -195.5 59.5t-68.5 172.5q0 157 89 243.5t233 86.5q120 0 183 -57.5t63 -168.5q0 -44 -10 -106zM326 399
q-42 0 -71 -21.5t-35 -57.5h181q8 36 -13.5 57.5t-61.5 21.5z" />
    <glyph glyph-name="Gtilde" unicode="&#xe105;" horiz-adv-x="805" 
d="M554 806q-36 0 -66 12t-45.5 26t-32.5 26t-32 12q-16 0 -26.5 -12t-13.5 -24l-3 -11l-122 15q17 94 61 145t128 51q36 0 66 -12t45.5 -26t32.5 -26t32 -12q16 0 26.5 12t13.5 24l3 11l122 -15q-17 -94 -61 -145t-128 -51zM48 306q0 104 26 191.5t77 155t133 105.5t187 38
q161 0 235 -54.5t75 -163.5l-192 -66q3 65 -30.5 92t-101.5 27q-61 0 -105.5 -25t-69 -69.5t-35.5 -95.5t-11 -112q0 -88 40 -134t137 -46q79 0 132 21l16 127h-160l18 150h344l-47 -383q-83 -47 -160 -63.5t-172 -16.5q-336 0 -336 322z" />
    <glyph glyph-name="gtilde" unicode="&#xe106;" horiz-adv-x="644" 
d="M434 576q-36 0 -66 12t-45.5 26t-32.5 26t-32 12q-16 0 -26.5 -12t-13.5 -24l-3 -11l-122 15q17 94 61 145t128 51q36 0 66 -12t45.5 -26t32.5 -26t32 -12q16 0 26.5 12t13.5 24l3 11l122 -15q-17 -94 -61 -145t-128 -51zM606 376l-47 -382q-9 -72 -57 -121t-111 -69
t-138 -20q-134 0 -197.5 31t-66.5 104l186 64q-2 -29 17 -40.5t69 -11.5q111 0 119 71l8 67q-24 -25 -67.5 -42t-94.5 -17q-97 0 -150 52.5t-53 156.5q0 161 75 244t204 83q104 0 149 -73l18 57h165zM407 223l13 110q-32 50 -99 50q-112 0 -112 -130q0 -80 86 -80
q67 0 112 50z" />
    <glyph glyph-name="Gcommaturnedabove" unicode="&#xe107;" horiz-adv-x="805" 
d="M561 822h-191l79 208h155zM48 306q0 104 26 191.5t77 155t133 105.5t187 38q161 0 235 -54.5t75 -163.5l-192 -66q3 65 -30.5 92t-101.5 27q-61 0 -105.5 -25t-69 -69.5t-35.5 -95.5t-11 -112q0 -88 40 -134t137 -46q79 0 132 21l16 127h-160l18 150h344l-47 -383
q-83 -47 -160 -63.5t-172 -16.5q-336 0 -336 322z" />
    <glyph glyph-name="gcommaturnedabove" unicode="&#xe108;" horiz-adv-x="644" 
d="M442 592h-191l79 208h155zM606 376l-47 -382q-9 -72 -57 -121t-111 -69t-138 -20q-134 0 -197.5 31t-66.5 104l186 64q-2 -29 17 -40.5t69 -11.5q111 0 119 71l8 67q-24 -25 -67.5 -42t-94.5 -17q-97 0 -150 52.5t-53 156.5q0 161 75 244t204 83q104 0 149 -73l18 57h165
zM407 223l13 110q-32 50 -99 50q-112 0 -112 -130q0 -80 86 -80q67 0 112 50z" />
    <glyph glyph-name="Hmacronbelow" unicode="&#xe109;" horiz-adv-x="748" 
d="M571 780h185l-95 -780h-185l38 316h-274l-38 -316h-185l95 780h185l-36 -299h274zM148 -200l20 160h332l-20 -160h-332z" />
    <glyph glyph-name="hmacronbelow" unicode="&#xe10a;" horiz-adv-x="639" 
d="M447 -40l-20 -160h-332l20 160h332zM9 0l98 800h180l-39 -314q66 60 163 60q108 0 156.5 -52.5t33.5 -168.5l-39 -325h-180l37 302q5 44 -12.5 63t-55.5 18q-76 -1 -122 -50l-40 -333h-180z" />
    <glyph glyph-name="Jcaron" unicode="&#xe10b;" horiz-adv-x="555" 
d="M564 1030h183l-184 -208h-156l-132 208h183l46 -59zM388 780h185l-69 -561q-28 -235 -283 -235q-122 0 -173 49t-52 135l188 65q-4 -44 7.5 -64.5t49.5 -20.5q39 0 56 17t22 53z" />
    <glyph glyph-name="Kcedilla" unicode="&#xe10d;" horiz-adv-x="761" 
d="M179 -193l34 76q0 -1 9.5 -5.5t25.5 -9t29 -4.5q35 0 35 22q0 31 -74 39l26 54q187 -12 187 -94q0 -51 -43 -76t-103 -25q-77 0 -126 23zM297 780l-40 -326l113 128l182 198h260l-314 -308l230 -472h-231l-142 333l-128 -129l-25 -204h-185l95 780h185z" />
    <glyph glyph-name="kcedilla" unicode="&#xe10e;" horiz-adv-x="640" 
d="M189 0h-180l98 800h180l-55 -449l55 60l116 119h257l-239 -208l186 -322h-234l-98 202l-69 -59zM128 -193l34 76q0 -1 9.5 -5.5t25.5 -9t29 -4.5q35 0 35 22q0 31 -74 39l26 54q187 -12 187 -94q0 -51 -43 -76t-103 -25q-77 0 -126 23z" />
    <glyph glyph-name="Lcedilla" unicode="&#xe10f;" horiz-adv-x="600" 
d="M297 780l-75 -615h355l-20 -165h-540l95 780h185zM134 -193l34 76q0 -1 9.5 -5.5t25.5 -9t29 -4.5q35 0 35 22q0 31 -74 39l26 54q187 -12 187 -94q0 -51 -43 -76t-103 -25q-77 0 -126 23z" />
    <glyph glyph-name="ocedilla" unicode="&#xe110;" horiz-adv-x="620" 
d="M292 146q117 0 117 152q0 48 -22 67t-65 19q-117 0 -117 -151q0 -48 22.5 -67.5t64.5 -19.5zM273 -16q-120 0 -185.5 58.5t-65.5 170.5q0 161 88 247t232 86q120 0 185 -58t65 -170q0 -162 -87.5 -248t-231.5 -86zM130 -193l34 76q0 -1 9.5 -5.5t25.5 -9t29 -4.5
q35 0 35 22q0 31 -74 39l26 54q187 -12 187 -94q0 -51 -43 -76t-103 -25q-77 0 -126 23z" />
    <glyph glyph-name="Mmacron" unicode="&#xe111;" horiz-adv-x="906" 
d="M687 846h-332l21 164h332zM491 0h-152l-85 454l-55 -454h-182l95 780h245l88 -501l228 501h241l-95 -780h-182l55 454z" />
    <glyph glyph-name="mmacron" unicode="&#xe112;" horiz-adv-x="978" 
d="M695 616h-332l20 164h332zM235 530l5 -57q62 73 172 73q115 0 158 -75q83 75 195 75q97 0 143.5 -51t33.5 -153l-41 -342h-180l39 322q7 61 -64 61q-60 0 -108 -50l-40 -333h-180l39 322q7 61 -64 61q-60 0 -108 -50l-40 -333h-180l46 376l9 154h165z" />
    <glyph glyph-name="Mcedilla" unicode="&#xe113;" horiz-adv-x="906" 
d="M491 0h-152l-85 454l-55 -454h-182l95 780h245l88 -501l228 501h241l-95 -780h-182l55 454zM261 -193l34 76q0 -1 9.5 -5.5t25.5 -9t29 -4.5q35 0 35 22q0 31 -74 39l26 54q187 -12 187 -94q0 -51 -43 -76t-103 -25q-77 0 -126 23z" />
    <glyph glyph-name="mcedilla" unicode="&#xe114;" horiz-adv-x="978" 
d="M235 530l5 -57q62 73 172 73q115 0 158 -75q83 75 195 75q97 0 143.5 -51t33.5 -153l-41 -342h-180l39 322q7 61 -64 61q-60 0 -108 -50l-40 -333h-180l39 322q7 61 -64 61q-60 0 -108 -50l-40 -333h-180l46 376l9 154h165zM301 -193l34 76q0 -1 9.5 -5.5t25.5 -9
t29 -4.5q35 0 35 22q0 31 -74 39l26 54q187 -12 187 -94q0 -51 -43 -76t-103 -25q-77 0 -126 23z" />
    <glyph glyph-name="Ndieresis" unicode="&#xe115;" horiz-adv-x="768" 
d="M445 1010l-23 -182h-184l23 182h184zM685 1010l-23 -182h-184l23 182h184zM290 780l247 -453l16 145l38 308h185l-95 -780h-178l-247 453l-17 -145l-37 -308h-185l95 780h178z" />
    </font>
</defs>
</svg>
