<?xml version="1.0" standalone="no"?>
<!DOCTYPE svg PUBLIC "-//W3C//DTD SVG 1.1//EN" "http://www.w3.org/Graphics/SVG/1.1/DTD/svg11.dtd" >
<svg>
<metadata>
Created by FontForge 20090914 at Mon Jan 29 13:31:17 2018
 By www-data
Copyright (c) 2004-2008 by Village Type &#38; Design LLC. All rights reserved.
</metadata>
<defs>
<font id="GalaxiePolarisBook" horiz-adv-x="600" >
  <font-face 
    font-family="GalaxiePolarisBook"
    font-weight="400"
    font-stretch="normal"
    units-per-em="1000"
    panose-1="2 0 0 0 0 0 0 0 0 0"
    ascent="800"
    descent="-200"
    x-height="530"
    cap-height="780"
    bbox="-199 -256.001 1779 1134"
    underline-thickness="30"
    underline-position="-130"
    unicode-range="U+0020-U+F778"
  />
<missing-glyph horiz-adv-x="960" 
d="M90 0v780h780v-780h-780zM480 345l-279 -279h558zM201 714l279 -279l279 279h-558zM435 390l-275 275v-550zM525 390l275 -275v550z" />
    <glyph glyph-name="interrobang" unicode="&#x21;&#x3f;" horiz-adv-x="570" 
d="M257 190l-27.002 532.003c-71.333 -12.667 -114.333 -57.334 -129 -134.001l-68 6c25.333 130.667 109 196 251 196c69.333 0 125.833 -18.167 169.5 -54.5s65.5 -86.5 65.5 -150.5c0 -22.667 -3.66699 -43.667 -11 -63s-15.166 -35 -23.499 -47
s-21.166 -24.333 -38.499 -37s-29.833 -21.334 -37.5 -26.001s-21 -11.334 -40 -20.001s-28.833 -13 -29.5 -13l-38 -19l-8 -170h-36zM447.998 585.003c0 82.667 -42.6689 129.333 -128.002 140l-15 -295h1c3.33301 1.33301 11 5 23 11l25 12.5
c4.66699 2.33301 12.334 6.66602 23.001 12.999s18.334 11.833 23.001 16.5l18.5 18.5c7.66699 7.66699 13.167 15.334 16.5 23.001s6.33301 16.667 9 27s4 21.5 4 33.5zM317.996 86.002v-86h-86v86h86z" />
    <glyph glyph-name="interrobangdown" unicode="&#xa1;&#xbf;" horiz-adv-x="535" 
d="M220 171c27.333 14 43.998 23.3291 49.998 27.9961l7 141h36l25 -483c35.333 6.66699 63 21 83 43s34 52.667 42 92l69 -6c-25.333 -130.667 -107.333 -196 -246 -196c-69.333 0 -125.833 17 -169.5 51s-65.5 80.333 -65.5 139c0 26.667 3.83301 50.334 11.5 71.001
s19.5 37.834 35.5 51.501s29.333 23.834 40 30.501s26.334 14.334 47.001 23.001s32.334 13.667 35.001 15zM120.998 -20.0039c0 -75.333 43.6699 -117 131.003 -125l14 270l-9 -4c-5.33301 -2.66699 -17.333 -8 -36 -16s-31.834 -14.5 -39.501 -19.5
s-17.334 -12.5 -29.001 -22.5s-19.834 -21.833 -24.501 -35.5s-7 -29.5 -7 -47.5zM338.001 529.996v-86h-86v86h86z" />
    <glyph glyph-name=".notdef" horiz-adv-x="960" 
d="M90 0v780h780v-780h-780zM480 345l-279 -279h558zM201 714l279 -279l279 279h-558zM435 390l-275 275v-550zM525 390l275 -275v550z" />
    <glyph glyph-name="space" unicode=" " horiz-adv-x="240" 
 />
    <glyph glyph-name="exclam" unicode="!" horiz-adv-x="280" 
d="M92 780h96l-30 -590h-36zM183 86v-86h-86v86h86z" />
    <glyph glyph-name="quotedbl" unicode="&#x22;" horiz-adv-x="330" 
d="M47 780h86l-23 -250h-40zM197 780h86l-23 -250h-40z" />
    <glyph glyph-name="numbersign" unicode="#" horiz-adv-x="680" 
d="M640 494h-125l-56 -224h111v-64h-127l-52 -206h-65l52 206h-164l-52 -206h-65l52 206h-109v64h125l56 224h-111v64h127l52 206h65l-52 -206h164l52 206h65l-52 -206h109v-64zM286 494l-56 -224h164l56 224h-164z" />
    <glyph glyph-name="dollar" unicode="$" horiz-adv-x="530" 
d="M380 764l-29 -112.999c52.667 -8.66699 98.334 -26.667 137.001 -54l-15 -57c-40.667 28 -86.334 45.333 -137.001 52l-43 -173c22 -3.33301 40 -6.5 54 -9.5s30.5 -8 49.5 -15s33.833 -15.333 44.5 -25s20 -23 28 -40s11.667 -36.833 11 -59.5
c0 -54.667 -22.667 -95.834 -68 -123.501s-99.333 -41.5 -162 -41.5c-16 0 -27.667 0.333008 -35 1l-27 -106h-65l29 116c-43.333 10 -80 26.333 -110 49l15 57c31.333 -22.667 68 -38.334 110 -47.001l48 192c-16.667 2.66699 -31.5 5.5 -44.5 8.5
s-27.333 7.83301 -43 14.5s-28.5 14.5 -38.5 23.5s-18.5 20.833 -25.5 35.5s-10.5 31.334 -10.5 50.001c0 54 22.167 93.833 66.5 119.5s98.5 38.5 162.5 38.5h6l27 107h65zM278 358.001l-48 -192.001h20c107.333 0 161 33.333 161 100c0 14 -2.16699 26 -6.5 36
s-9.5 17.833 -15.5 23.5s-15.667 10.834 -29 15.501s-25.333 8 -36 10s-26 4.33301 -46 7zM121 503c0 -25.333 8.5 -42.667 25.5 -52s44.833 -17 83.5 -23l42 168c-46.667 -0.666992 -83.5 -7.66699 -110.5 -21s-40.5 -37.333 -40.5 -72z" />
    <glyph glyph-name="percent" unicode="%" horiz-adv-x="1055" 
d="M249 419c38.667 0 69.167 12 91.5 36s33.5 61.333 33.5 112s-11.167 88 -33.5 112s-52.833 36 -91.5 36c-39.333 0 -70.166 -12 -92.499 -36s-33.5 -61.333 -33.5 -112s11.167 -88 33.5 -112s53.166 -36 92.499 -36zM249 774c56 0 101.333 -17.833 136 -53.5
s52 -86.834 52 -153.501s-17.333 -117.834 -52 -153.501s-80 -53.5 -136 -53.5c-56.667 0 -102.334 17.833 -137.001 53.5s-52 86.834 -52 153.501s17.333 117.834 52 153.501s80.334 53.5 137.001 53.5zM807 49c38.667 0 69.167 12 91.5 36s33.5 61.333 33.5 112
s-11.167 88 -33.5 112s-52.833 36 -91.5 36c-39.333 0 -70.166 -12 -92.499 -36s-33.5 -61.333 -33.5 -112s11.167 -88 33.5 -112s53.166 -36 92.499 -36zM807 404c56 0 101.333 -17.833 136 -53.5s52 -86.834 52 -153.501s-17.333 -117.834 -52 -153.501
s-80 -53.5 -136 -53.5c-56.667 0 -102.334 17.833 -137.001 53.5s-52 86.834 -52 153.501s17.333 117.834 52 153.501s80.334 53.5 137.001 53.5zM817 764l-506 -764h-72l506 764h72z" />
    <glyph glyph-name="ampersand" unicode="&#x26;" horiz-adv-x="731" 
d="M706 76l0.000976562 -86l-150 128c-59.333 -85.333 -147.333 -128 -264 -128c-31.333 0 -61.333 4 -90 12s-55.5 20.167 -80.5 36.5s-44.833 39.333 -59.5 69s-22 63.834 -22 102.501c0 102.667 49.333 178.334 148 227.001c-20 18 -35.667 33 -47 45
s-22.833 30.833 -34.5 56.5s-17.5 53.5 -17.5 83.5c0 55.333 16.667 97.166 50 125.499s81.666 42.5 144.999 42.5s111.166 -16 143.499 -48s48.5 -71.333 48.5 -118c0 -24.667 -4.5 -47 -13.5 -67s-22.5 -37.667 -40.5 -53s-34.667 -27.833 -50 -37.5
s-35.333 -20.5 -60 -32.5l-14 -7c62 -56.667 141 -124.334 237 -203.001c18 47.333 27.667 98.666 29 153.999c2 48.667 -3.66699 100.334 -17 155.001l69 7c16 -52.667 21.333 -113.667 16 -183c-5.33301 -68.667 -20.666 -127.667 -45.999 -177zM408.001 623
c0 70.667 -41.333 105.998 -124 105.998c-43.333 0 -75.333 -8.33301 -96 -25s-31 -43.667 -31 -81c0 -8 0.5 -15.833 1.5 -23.5s3 -15.167 6 -22.5s5.5 -13.666 7.5 -18.999s5.66699 -11.5 11 -18.5s9.16602 -12.167 11.499 -15.5s7.16602 -8.5 14.499 -15.5
s11.833 -11.5 13.5 -13.5s6.83398 -6.83301 15.501 -14.5s13.334 -11.834 14.001 -12.501l30 15c19.333 9.33301 34.5 17.333 45.5 24s23.667 15.834 38 27.501s25 24.834 32 39.501s10.5 31 10.5 49zM503.001 163.998l-270.998 230.999
c-44 -25.333 -75.5 -51.5 -94.5 -78.5s-28.5 -62.5 -28.5 -106.5c0 -34.667 6.83301 -63.667 20.5 -87s31.667 -39.666 54 -48.999s41.666 -15.5 57.999 -18.5s33.166 -4.5 50.499 -4.5c50 0 91.333 9.33301 124 28s61.667 47 87 85z" />
    <glyph glyph-name="quotesingle" unicode="'" horiz-adv-x="180" 
d="M47 780h86l-23 -250h-40z" />
    <glyph glyph-name="parenleft" unicode="(" horiz-adv-x="240" 
d="M121 350c0 -169.333 34.667 -329.335 104 -480.002h-65c-32 54.667 -58.333 124.834 -79 210.501s-31 175.5 -31 269.5s10.333 183.833 31 269.5s47 155.834 79 210.501h65c-69.333 -150.667 -104 -310.667 -104 -480z" />
    <glyph glyph-name="parenright" unicode=")" horiz-adv-x="240" 
d="M119 350c0 169.333 -34.667 329.335 -104 480.002h65c32 -54.667 58.333 -124.834 79 -210.501s31 -175.5 31 -269.5s-10.333 -183.833 -31 -269.5s-47 -155.834 -79 -210.501h-65c69.333 150.667 104 310.667 104 480z" />
    <glyph glyph-name="asterisk" unicode="*" horiz-adv-x="300" 
d="M114 780h73l-10 -99l90 40l23 -69l-97 -21l65 -74l-59 -43l-49 84l-50 -83l-59 43l65 73l-96 21l23 70l90 -40z" />
    <glyph glyph-name="plus" unicode="+" horiz-adv-x="700" 
d="M318 120v238h-238v64h238v238h64v-238h238v-64h-238v-238h-64z" />
    <glyph glyph-name="comma" unicode="," horiz-adv-x="280" 
d="M107 86h88l-90 -250h-33z" />
    <glyph glyph-name="hyphen" unicode="-" horiz-adv-x="360" 
d="M310 303h-260v64h260v-64z" />
    <glyph glyph-name="period" unicode="." horiz-adv-x="280" 
d="M183 86v-86h-86v86h86z" />
    <glyph glyph-name="slash" unicode="/" horiz-adv-x="320" 
d="M310 830l-230 -960h-70l230 960h70z" />
    <glyph glyph-name="zero" unicode="0" horiz-adv-x="700" 
d="M350 53c74.667 0 128.167 25.667 160.5 77s48.5 135.333 48.5 252s-16.167 200.667 -48.5 252s-85.833 77 -160.5 77s-128.167 -25.667 -160.5 -77s-48.5 -135.333 -48.5 -252s16.167 -200.667 48.5 -252s85.833 -77 160.5 -77zM350 774c98.667 0 170 -31.833 214 -95.5
s66 -162.5 66 -296.5c0 -134.667 -21.833 -233.667 -65.5 -297s-115.167 -95 -214.5 -95c-98.667 0 -170 31.833 -214 95.5s-66 162.5 -66 296.5c0 134.667 21.833 233.667 65.5 297s115.167 95 214.5 95z" />
    <glyph glyph-name="one" unicode="1" horiz-adv-x="700" 
d="M630 0h-510v64h216v601c-48 -54 -125 -95.667 -231 -125v69c54 14 99 34 135 60s71 61 105 105h59v-710h226v-64z" />
    <glyph glyph-name="two" unicode="2" horiz-adv-x="700" 
d="M638 0l-572.001 0.00585938c-0.666992 44 4 83.5 14 118.5s22.333 64.167 37 87.5s35.834 45.666 63.501 66.999s53.334 38.333 77.001 51s55.167 27.667 94.5 45c77.333 34.667 123.333 56.667 138 66c34 22 53.667 51 59 87c1.33301 9.33301 2 20 2 32
c0 30.667 -6.66699 57 -20 79s-30.833 38.167 -52.5 48.5s-42.334 17.666 -62.001 21.999s-39.167 6.5 -58.5 6.5c-67.333 0 -117.833 -10.833 -151.5 -32.5s-55.167 -56.834 -64.5 -105.501l-69 6c25.333 130.667 120.333 196 285 196c74.667 0 136.667 -19 186 -57
s74 -92.333 74 -163c0 -18 -2.16699 -35 -6.5 -51s-9 -29.833 -14 -41.5s-13.5 -23.334 -25.5 -35.001s-21.833 -20.834 -29.5 -27.501s-20.5 -14.834 -38.5 -24.501s-31.167 -16.5 -39.5 -20.5s-23.5 -10.833 -45.5 -20.5l-44 -19.5c-82 -37.333 -141.5 -74 -178.5 -110
s-56.833 -82.667 -59.5 -140l229 1h272v-65z" />
    <glyph glyph-name="three" unicode="3" horiz-adv-x="700" 
d="M635 209c0 -64.667 -25.498 -117.332 -76.498 -157.999s-125.5 -61 -223.5 -61c-162.667 0 -255.667 65.667 -279 197l69 6c7.33301 -48 27.666 -83.5 60.999 -106.5s83 -34.833 149 -35.5c154 -2 231 50.667 231 158c0 28 -4.66699 51.833 -14 71.5
s-20.666 34.667 -33.999 45s-30.833 18.333 -52.5 24s-41 9.16699 -58 10.5s-38.167 2 -63.5 2h-103v65h103c31.333 0 56.833 1.33301 76.5 4s39.5 8.66699 59.5 18s34.833 24.166 44.5 44.499s14.5 46.5 14.5 78.5c0 94.667 -66.333 141 -199 139
c-64.667 -0.666992 -112.834 -12 -144.501 -34s-51.167 -57 -58.5 -105l-69 6c23.333 130.667 114 196 272 196c78 0 142.167 -16.667 192.5 -50s75.5 -84 75.5 -152c0 -52 -13.5 -92.667 -40.5 -122s-59.833 -46.333 -98.5 -51c19.333 -2.66699 38.166 -8 56.499 -16
s36 -19.333 53 -34s30.667 -34.167 41 -58.5s15.5 -51.5 15.5 -81.5z" />
    <glyph glyph-name="four" unicode="4" horiz-adv-x="700" 
d="M636 185h-145v-185h-66v185h-360v51l363 538h63v-525h145v-64zM425 249v310l2 115l-70 -110l-145 -213l-71 -103l110 1h174z" />
    <glyph glyph-name="five" unicode="5" horiz-adv-x="700" 
d="M174 378l-59.002 15.998l38 370h428v-65h-374l-25 -243c46.667 35.333 108.334 53 185.001 53c82.667 0 146.667 -22.167 192 -66.5s68 -108.166 68 -191.499c0 -81.333 -26.167 -145.166 -78.5 -191.499s-118.5 -69.5 -198.5 -69.5c-88 0 -152.667 17.333 -194 52
s-68 84 -80 148l69 6c10 -52 30.333 -89.5 61 -112.5s78.667 -33.833 144 -32.5c60 1.33301 109.667 18 149 50s59 82 59 150c0 68.667 -16.333 118.5 -49 149.5s-80 46.833 -142 47.5c-87.333 1.33301 -151.666 -22 -192.999 -70z" />
    <glyph glyph-name="six" unicode="6" horiz-adv-x="700" 
d="M388 712c-80.667 1.33301 -143.002 -23.001 -187.002 -73.001s-66 -133 -66 -249c0 -5.33301 0.333008 -12 1 -20c19.333 42 50 74.167 92 96.5s89.333 33.5 142 33.5c77.333 0 139.166 -23 185.499 -69s69.5 -108.667 69.5 -188c0 -78 -24.5 -139.667 -73.5 -185
s-112.833 -68 -191.5 -68c-99.333 0 -172.166 32.833 -218.499 98.5s-69.5 166.5 -69.5 302.5c0 128 27 223.833 81 287.5s132.333 95.5 235 95.5c68.667 0 122.834 -16 162.501 -48s62.834 -70.667 69.501 -116l-71 -9c-8 36 -24.5 63.333 -49.5 82
s-62.167 28.334 -111.5 29.001zM369.998 434.999c-68 2 -122.168 -15.833 -162.501 -53.5s-57.5 -92.167 -51.5 -163.5c14 -60 37.333 -103.167 70 -129.5s77.334 -38.833 134.001 -37.5c58 1.33301 104.833 17.833 140.5 49.5s53.5 79.167 53.5 142.5
c0 124.667 -61.333 188.667 -184 192z" />
    <glyph glyph-name="seven" unicode="7" horiz-adv-x="700" 
d="M285 0h-72l292 597l50 103l-197 -1h-285v65h558v-51z" />
    <glyph glyph-name="eight" unicode="8" horiz-adv-x="700" 
d="M350 423c27.333 0 51.002 1.83301 71.002 5.5s39.667 10.334 59 20.001s34.166 24.834 44.499 45.501s15.5 46.334 15.5 77.001c0 93.333 -63.333 140 -190 140s-190 -46.667 -190 -140c0 -30.667 5.16699 -56.334 15.5 -77.001s25.166 -35.834 44.499 -45.501
s39 -16.334 59 -20.001s43.667 -5.5 71 -5.5zM350.002 51c141.333 0 212 49 212 147c0 108.667 -70.667 163 -212 163s-212 -54.333 -212 -163c0 -98 70.667 -147 212 -147zM350.002 -10c-92 0 -161.835 18.167 -209.502 54.5s-71.5 86.833 -71.5 151.5
c0 60.667 15.667 106.834 47 138.501s69 50.834 113 57.501c-39.333 6 -72.166 25 -98.499 57s-39.5 73.333 -39.5 124c0 46.667 12.5 85.5 37.5 116.5s56.333 52.833 94 65.5s80.167 19 127.5 19s89.833 -6.33301 127.5 -19s69 -34.5 94 -65.5s37.5 -69.833 37.5 -116.5
c0 -50.667 -13.167 -92 -39.5 -124s-59.166 -51 -98.499 -57c44 -6.66699 81.667 -25.834 113 -57.501s47 -77.834 47 -138.501c0 -64.667 -23.833 -115.167 -71.5 -151.5s-117.5 -54.5 -209.5 -54.5z" />
    <glyph glyph-name="nine" unicode="9" horiz-adv-x="700" 
d="M312 52c80.667 -1.33301 143.002 23.001 187.002 73.001s66 133 66 249c0 5.33301 -0.333008 12 -1 20c-19.333 -42 -50 -74.167 -92 -96.5s-89.333 -33.5 -142 -33.5c-77.333 0 -139.166 23 -185.499 69s-69.5 108.667 -69.5 188c0 78 24.5 139.667 73.5 185
s112.833 68 191.5 68c99.333 0 172.166 -32.833 218.499 -98.5s69.5 -166.5 69.5 -302.5c0 -128 -27 -223.833 -81 -287.5s-132.333 -95.5 -235 -95.5c-68.667 0 -122.834 16 -162.501 48s-62.834 70.667 -69.501 116l71 9c8 -36 24.5 -63.333 49.5 -82
s62.167 -28.334 111.5 -29.001zM330.002 329.001c68 -2 122.168 15.833 162.501 53.5s57.5 92.167 51.5 163.5c-14 60 -37.333 103.167 -70 129.5s-77.334 38.833 -134.001 37.5c-58 -1.33301 -104.833 -17.833 -140.5 -49.5s-53.5 -79.167 -53.5 -142.5
c0 -124.667 61.333 -188.667 184 -192z" />
    <glyph glyph-name="colon" unicode=":" horiz-adv-x="280" 
d="M183 86v-86h-86v86h86zM183 453v-86h-86v86h86z" />
    <glyph glyph-name="semicolon" unicode=";" horiz-adv-x="280" 
d="M183 453v-86h-86v86h86zM107 86h88l-90 -250h-33z" />
    <glyph glyph-name="less" unicode="&#x3c;" horiz-adv-x="700" 
d="M130 390l149 -62l341 -149v-69l-540 244v72l540 244v-69l-341 -149z" />
    <glyph glyph-name="equal" unicode="=" horiz-adv-x="700" 
d="M620 278h-540v64h540v-64zM620 438h-540v64h540v-64z" />
    <glyph glyph-name="greater" unicode="&#x3e;" horiz-adv-x="700" 
d="M570 390l-149 62l-341 149v69l540 -244v-72l-540 -244v69l341 149z" />
    <glyph glyph-name="question" unicode="?" horiz-adv-x="570" 
d="M264 190l-45.999 0.00585938c-10 35.333 -15 67.666 -15 96.999c0 22 3 41.167 9 57.5s15.167 30 27.5 41s22.666 19.333 30.999 25s20.166 12.167 35.499 19.5c3.33301 1.33301 11 5 23 11l25 12.5c4.66699 2.33301 12.334 6.66602 23.001 12.999
s18.334 11.833 23.001 16.5l18.5 18.5c7.66699 7.66699 13.167 15.334 16.5 23.001s6.33301 16.667 9 27s4 21.5 4 33.5c0 27.333 -4.83301 50.833 -14.5 70.5s-22.834 34.5 -39.501 44.5s-33.834 17 -51.501 21s-37.167 6 -58.5 6c-52.667 0 -94 -11.167 -124 -33.5
s-49.667 -57.5 -59 -105.5l-68 6c25.333 130.667 109 196 251 196c69.333 0 125.833 -18.167 169.5 -54.5s65.5 -86.5 65.5 -150.5c0 -22.667 -3.66699 -43.667 -11 -63s-15.166 -35 -23.499 -47s-21.166 -24.333 -38.499 -37s-29.833 -21.334 -37.5 -26.001
s-21 -11.334 -40 -20.001s-28.833 -13 -29.5 -13c-2 -0.666992 -6.5 -2.83398 -13.5 -6.50098l-13.5 -7l-12 -6c-6 -3 -9.83301 -5.5 -11.5 -7.5s-4.83398 -4.83301 -9.50098 -8.5s-7.66699 -6.83398 -9 -9.50098s-3.33301 -6.33398 -6 -11.001s-4.5 -9.5 -5.5 -14.5
s-2 -10.5 -3 -16.5s-1.5 -12.667 -1.5 -20c0 -22 3.33301 -49.333 10 -82zM300.001 86.0059v-86h-86v86h86z" />
    <glyph glyph-name="at" unicode="@" horiz-adv-x="1010" 
d="M506 800c148 0 260.664 -37.5039 337.997 -112.504s116 -174.5 116 -298.5c0 -112 -20 -194.833 -60 -248.5s-108 -80.5 -204 -80.5h-35l-12 89c-14.667 -29.333 -37.667 -53.166 -69 -71.499s-64.333 -27.5 -99 -27.5c-64 0 -117.167 20.333 -159.5 61
s-63.5 102 -63.5 184s21.167 143.333 63.5 184s95.5 61 159.5 61c34.667 0 67.667 -9.16699 99 -27.5s54.333 -42.166 69 -71.499l12 89h60l-6 -124v-222l2 -64c30 0 55.833 4.33301 77.5 13s39.167 20.5 52.5 35.5s24 34.333 32 58s13.333 48.167 16 73.5s4 55 4 89
c0 46 -7.33301 89 -22 129s-37 77 -67 111s-71 60.833 -123 80.5s-112.333 29.5 -181 29.5c-126 0 -222.833 -40.667 -290.5 -122s-101.5 -188.666 -101.5 -321.999s34.5 -240.666 103.5 -321.999s168.5 -122 298.5 -122c90.667 0 161.834 12.5 213.501 37.5
s83.5 54.833 95.5 89.5l71 -9c-6.66699 -21.333 -18.5 -41.833 -35.5 -61.5s-40.167 -38.667 -69.5 -57s-67.666 -33 -114.999 -44s-100.666 -16.5 -159.999 -16.5c-144.667 0 -258.5 45 -341.5 135s-124.5 213.333 -124.5 370c0 156 41 279.167 123 369.5
s193 135.5 333 135.5zM648.997 263.996v62c-2 38 -18 72.667 -48 104s-69.333 47 -118 47c-106 0 -159 -60.667 -159 -182s53 -182 159 -182c48.667 0 88 15.667 118 47s46 66 48 104z" />
    <glyph glyph-name="A" unicode="A" horiz-adv-x="720" 
d="M21 0l301 790h76l301 -790h-77l-92 247h-340l-92 -247h-77zM360 712l-71 -198l-75 -201h291l-74 201z" />
    <glyph glyph-name="B" unicode="B" horiz-adv-x="695" 
d="M405 0l-315 -0.00292969v780h309c24.667 0 48.167 -3 70.5 -9s44.5 -16 66.5 -30s39.5 -35.167 52.5 -63.5s19.5 -62.166 19.5 -101.499c0 -49.333 -10.667 -88.333 -32 -117s-45 -46.667 -71 -54c36.667 -7.33301 67.5 -27.166 92.5 -59.499s37.5 -76.166 37.5 -131.499
c0 -42.667 -6.16699 -78.667 -18.5 -108s-29.833 -51.333 -52.5 -66s-46.667 -25 -72 -31s-54.333 -9 -87 -9zM160 65.9971h236.001c22 0 40.5 1.33301 55.5 4s31.833 8.33398 50.5 17.001s33 23.667 43 45s15 48.666 15 81.999c0 26.667 -3.33301 49.667 -10 69
s-14.834 34.333 -24.501 45s-22.167 19 -37.5 25s-29.333 9.83301 -42 11.5s-27.667 2.5 -45 2.5h-241v-301zM388.001 713.997h-228v-281h228c48 0 84.167 10.167 108.5 30.5s36.5 57.833 36.5 112.5c0 54 -11.833 90.5 -35.5 109.5s-60.167 28.5 -109.5 28.5z" />
    <glyph glyph-name="C" unicode="C" horiz-adv-x="750" 
d="M139 390c0 -223.333 85.333 -335 256 -335c67.333 0 118.333 11.667 153 35s57 60 67 110l72 -6c-26.667 -136 -124 -204 -292 -204c-111.333 0 -194.166 35 -248.499 105s-81.5 168.333 -81.5 295s27.167 225 81.5 295s137.166 105 248.499 105
c168 0 265.333 -68 292 -204l-72 -6c-10 50 -32.333 86.667 -67 110s-85.667 35 -153 35c-170.667 0 -256 -111.667 -256 -335z" />
    <glyph glyph-name="D" unicode="D" horiz-adv-x="765" 
d="M348 0l-258 0.00195312v780h258c116.667 0 204.5 -31.833 263.5 -95.5s88.5 -161.834 88.5 -294.501s-29.5 -230.834 -88.5 -294.501s-146.833 -95.5 -263.5 -95.5zM160 66.002h188c185.333 0 278 108 278 324s-92.667 324 -278 324h-188v-648z" />
    <glyph glyph-name="E" unicode="E" horiz-adv-x="695" 
d="M90 780h520v-66h-450v-281h410v-66h-410v-301h470v-66h-540v780z" />
    <glyph glyph-name="F" unicode="F" horiz-adv-x="630" 
d="M160 367v-367h-70v780h500v-66h-430v-281h390v-66h-390z" />
    <glyph glyph-name="G" unicode="G" horiz-adv-x="774" 
d="M395 -10c-112 0.666992 -194.999 36.001 -248.999 106.001s-81 168 -81 294c0 126.667 27.167 225 81.5 295s137.166 105 248.499 105c168 0 265.333 -68 292 -204l-72 -6c-10 50 -32.333 86.667 -67 110s-85.667 35 -153 35c-170.667 0 -256 -111.667 -256 -335
s85.333 -335 256 -335c93.333 0 168 19.667 224 59v223h-170v66h240v-333c-48.667 -30.667 -95.167 -51.834 -139.5 -63.501s-95.833 -17.167 -154.5 -16.5z" />
    <glyph glyph-name="H" unicode="H" horiz-adv-x="750" 
d="M590 780h70v-780h-70v367h-430v-367h-70v780h70v-347h430v347z" />
    <glyph glyph-name="I" unicode="I" horiz-adv-x="290" 
d="M180 780v-780h-70v780h70z" />
    <glyph glyph-name="J" unicode="J" horiz-adv-x="507" 
d="M351 780l71.001 -0.000976562v-570c0 -66 -17.833 -119.167 -53.5 -159.5s-85.834 -60.5 -150.501 -60.5c-123.333 0 -190 55 -200 165l71 9c5.33301 -75.333 48.333 -111.666 129 -108.999c88.667 2.66699 133 50.667 133 144v581z" />
    <glyph glyph-name="K" unicode="K" horiz-adv-x="695" 
d="M160 780v-423l391 423h97l-328 -350l353 -430h-94l-309 376l-110 -118v-258h-70v780h70z" />
    <glyph glyph-name="L" unicode="L" horiz-adv-x="585" 
d="M160 780v-714h410v-66h-480v780h70z" />
    <glyph glyph-name="M" unicode="M" horiz-adv-x="912" 
d="M423 0l-212 483l-57 141l4 -334v-290h-68v780h61l230 -515l75 -189l75 189l230 515h61v-780h-68v290l4 340l-57 -147l-212 -483h-66z" />
    <glyph glyph-name="N" unicode="N" horiz-adv-x="750" 
d="M597 0l-348 515l-92 142l4 -267v-390h-71v780h63l348 -515l92 -142l-4 267v390h71v-780h-63z" />
    <glyph glyph-name="O" unicode="O" horiz-adv-x="790" 
d="M395 -10c-111.333 0 -194.166 35 -248.499 105s-81.5 168.333 -81.5 295s27.167 225 81.5 295s137.166 105 248.499 105s194.166 -35 248.499 -105s81.5 -168.333 81.5 -295s-27.167 -225 -81.5 -295s-137.166 -105 -248.499 -105zM395 725
c-170.667 0 -256 -111.667 -256 -335s85.333 -335 256 -335s256 111.667 256 335s-85.333 335 -256 335z" />
    <glyph glyph-name="P" unicode="P" horiz-adv-x="650" 
d="M160 402h217c16 0 30.333 0.833008 43 2.5s26.667 5.66699 42 12s28.166 14.833 38.499 25.5s19 26 26 46s10.5 43.333 10.5 70s-3.5 50 -10.5 70s-15.667 35.333 -26 46s-23.166 19.167 -38.499 25.5s-29.333 10.333 -42 12s-27 2.5 -43 2.5h-217v-312zM160 336v-336
h-70v780h276c32.667 0 62.667 -3.5 90 -10.5s53.166 -18.333 77.499 -34s43.5 -38.5 57.5 -68.5s21 -66.333 21 -109s-7 -79 -21 -109s-33.167 -52.833 -57.5 -68.5s-50.166 -27 -77.499 -34s-57.333 -10.5 -90 -10.5h-206z" />
    <glyph glyph-name="Q" unicode="Q" horiz-adv-x="790" 
d="M795 -131l0.00195312 -79l-541 225c-126 52.667 -189 177.667 -189 375c0 126.667 27.167 225 81.5 295s137.166 105 248.499 105s194.166 -35 248.499 -105s81.5 -168.333 81.5 -295c0 -233.333 -87.333 -365 -262 -395v-4l107 -41zM395.002 725
c-170.667 0 -256 -111.667 -256 -335s85.333 -335 256 -335s256 111.667 256 335s-85.333 335 -256 335z" />
    <glyph glyph-name="R" unicode="R" horiz-adv-x="705" 
d="M160 347v-347h-70v780h300c161.333 0 242 -72 242 -216c0 -126.667 -60.667 -198 -182 -214l213 -350h-84l-203 347h-216zM160 413l239 -0.00195312c16.667 0 31 0.666992 43 2s25.667 4.83301 41 10.5s28 13.667 38 24s18.5 25.333 25.5 45s10.5 42.834 10.5 69.501
s-3.5 49.834 -10.5 69.501s-15.5 34.5 -25.5 44.5s-22.667 17.833 -38 23.5s-29 9.16699 -41 10.5s-26.333 2 -43 2h-239v-301z" />
    <glyph glyph-name="S" unicode="S" horiz-adv-x="710" 
d="M355 -10c-168 0 -265.002 67.3311 -291.002 201.998l72 6c10 -50 32.167 -86.333 66.5 -109s85.166 -34 152.499 -34c36 0 69.667 4.83301 101 14.5s58.666 27.5 81.999 53.5s35 58 35 96c0 50 -15.5 86.833 -46.5 110.5s-87.5 40.167 -169.5 49.5
c-30 3.33301 -56.167 7.33301 -78.5 12s-45.666 11.667 -69.999 21s-44.166 20.833 -59.499 34.5s-28 31.5 -38 53.5s-15 47.333 -15 76c0 70.667 24.5 124 73.5 160s111.167 54 186.5 54c165.333 0 260.666 -65.333 285.999 -196l-72 -6
c-9.33301 48.667 -30.666 83.667 -63.999 105s-83.333 32 -150 32c-19.333 0 -38.666 -2 -57.999 -6s-39.5 -10.833 -60.5 -20.5s-38 -25.167 -51 -46.5s-19.5 -46.666 -19.5 -75.999c0 -40 13.333 -70 40 -90s77.334 -34.333 152.001 -43
c49.333 -6 89.5 -12.833 120.5 -20.5s59.833 -19.5 86.5 -35.5s46 -37.667 58 -65s18 -61.666 18 -102.999c0 -74.667 -27.833 -131.5 -83.5 -170.5s-123.5 -58.5 -203.5 -58.5z" />
    <glyph glyph-name="T" unicode="T" horiz-adv-x="620" 
d="M345 714v-714h-70v714h-250v66h570v-66h-250z" />
    <glyph glyph-name="U" unicode="U" horiz-adv-x="774" 
d="M387 -10c-204.667 0 -307 96.667 -307 290v500h72v-502c0 -33.333 3.5 -62.666 10.5 -87.999s18.667 -48.666 35 -69.999s40.5 -37.5 72.5 -48.5s71 -16.5 117 -16.5s85 5.5 117 16.5s56.167 27.167 72.5 48.5s28 44.666 35 69.999s10.5 54.666 10.5 87.999v502h72v-500
c0 -193.333 -102.333 -290 -307 -290z" />
    <glyph glyph-name="V" unicode="V" horiz-adv-x="720" 
d="M698 780l-300 -790h-76l-300 790h76l191 -514l71 -198l71 198l191 514h76z" />
    <glyph glyph-name="W" unicode="W" horiz-adv-x="960" 
d="M295 276l148 504h74l148 -504l45 -169l34 170l114 503h72l-186 -790h-61l-149 509l-54 195l-54 -195l-149 -509h-61l-186 790h72l114 -503l34 -170z" />
    <glyph glyph-name="X" unicode="X" horiz-adv-x="700" 
d="M350 345l-92 -141l-135 -204h-85l232 342l42 61l-41 58l-215 319h82l120 -180l92 -140l92 140l120 180h84l-215 -319l-41 -58l42 -61l230 -342h-85l-135 204z" />
    <glyph glyph-name="Y" unicode="Y" horiz-adv-x="710" 
d="M20 780h81l162 -244l92 -141l92 141l162 244h81l-300 -445v-335h-70v335z" />
    <glyph glyph-name="Z" unicode="Z" horiz-adv-x="690" 
d="M53 0v58l416 552l83 105l-269 -1h-210v66h567v-58l-416 -552l-83 -105l269 1h230v-66h-587z" />
    <glyph glyph-name="bracketleft" unicode="[" horiz-adv-x="240" 
d="M170 764v-828h60v-66h-130v960h130v-66h-60z" />
    <glyph glyph-name="backslash" unicode="\" horiz-adv-x="320" 
d="M240 -130l-230 960h70l230 -960h-70z" />
    <glyph glyph-name="bracketright" unicode="]" horiz-adv-x="240" 
d="M70 -64v828h-60v66h130v-960h-130v66h60z" />
    <glyph glyph-name="asciicircum" unicode="^" horiz-adv-x="470" 
d="M235 725l-62 -134l-90 -191h-69l185 390h72l185 -390h-69l-90 191z" />
    <glyph glyph-name="underscore" unicode="_" horiz-adv-x="300" 
d="M280 -200h-260v64h260v-64z" />
    <glyph glyph-name="grave" unicode="`" 
d="M154 800h82l94 -208h-65z" />
    <glyph glyph-name="a" unicode="a" horiz-adv-x="570" 
d="M52 142c0 50.667 16.834 87.834 50.501 111.501s84.167 40.5 151.5 50.5l182 27v25c0 44 -13 75.167 -39 93.5s-64.333 28.166 -115 29.499c-42.667 0.666992 -74.5 -7.5 -95.5 -24.5s-35.5 -43.167 -43.5 -78.5l-69 10c10.667 50 31.667 88.167 63 114.5
s79.666 39.5 144.999 39.5c69.333 0 123 -15.833 161 -47.5s57 -78.5 57 -140.5v-228l6 -124h-58l-12 91c-16 -30 -42.667 -54.333 -80 -73s-77 -28 -119 -28c-60.667 0 -106.667 13.167 -138 39.5s-47 63.833 -47 112.5zM120.001 142c0 -60.667 39 -91.001 117 -91.001
c53.333 0 99.5 16.333 138.5 49s59.167 67.334 60.5 104.001v70l-183 -29c-44 -7.33301 -77.167 -17.833 -99.5 -31.5s-33.5 -37.5 -33.5 -71.5z" />
    <glyph glyph-name="b" unicode="b" horiz-adv-x="599" 
d="M136 800v-360c18 30 42.667 54.167 74 72.5s66 27.5 104 27.5c74 0 131.667 -24.167 173 -72.5s62 -115.833 62 -202.5s-20.667 -154.167 -62 -202.5s-99 -72.5 -173 -72.5c-38 0 -72.667 9.16699 -104 27.5s-56 42.833 -74 73.5l-12 -91h-60l6 124v676h66zM479 265
c0 67.333 -14.667 119.5 -44 156.5s-70.333 55.5 -123 55.5c-50.667 0 -92.334 -15.833 -125.001 -47.5s-49.667 -66.167 -51 -103.5v-122c1.33301 -37.333 18.333 -71.833 51 -103.5s74.334 -47.5 125.001 -47.5c52.667 0 93.667 18.333 123 55s44 89 44 157z" />
    <glyph glyph-name="c" unicode="c" horiz-adv-x="550" 
d="M119 265c0 -67.333 14.667 -119.5 44 -156.5s70.333 -56.167 123 -57.5c81.333 -2 130 32 146 102l71 -9c-21.333 -102.667 -93.333 -154 -216 -154c-74.667 0 -132.834 24.167 -174.501 72.5s-62.5 115.833 -62.5 202.5s20.833 154.167 62.5 202.5
s99.834 72.5 174.501 72.5c122.667 0 194.667 -51.333 216 -154l-71 -9c-16 70 -64.667 104 -146 102c-52.667 -1.33301 -93.667 -20.5 -123 -57.5s-44 -89.167 -44 -156.5z" />
    <glyph glyph-name="d" unicode="d" horiz-adv-x="599" 
d="M463 440v360h66v-676l6 -124h-60l-12 91c-18 -30.667 -42.667 -55.167 -74 -73.5s-66 -27.5 -104 -27.5c-74 0 -131.667 24.167 -173 72.5s-62 115.833 -62 202.5s20.667 154.167 62 202.5s99 72.5 173 72.5c38 0 72.667 -9.16699 104 -27.5s56 -42.5 74 -72.5zM120 265
c0 -68 14.667 -120.333 44 -157s70.333 -55 123 -55c50.667 0 92.334 15.833 125.001 47.5s49.667 66.167 51 103.5v122c-1.33301 37.333 -18.333 71.833 -51 103.5s-74.334 47.5 -125.001 47.5c-52.667 0 -93.667 -18.5 -123 -55.5s-44 -89.167 -44 -156.5z" />
    <glyph glyph-name="e" unicode="e" horiz-adv-x="570" 
d="M291 540c149.333 0 224 -91.333 224 -274v-27h-395c2.66699 -64.667 19.167 -112.167 49.5 -142.5s71.166 -45.5 122.499 -45.5c82.667 -2 132.334 32 149.001 102l71 -9c-8.66699 -45.333 -31.167 -82.333 -67.5 -111s-87.5 -43 -153.5 -43
c-75.333 0 -134.333 23.333 -177 70s-64 115 -64 205s21.333 158.333 64 205s101.667 70 177 70zM291 480c-50.667 0 -91 -14.833 -121 -44.5s-46.667 -75.5 -50 -137.5h323c-2 123.333 -52.667 184 -152 182z" />
    <glyph glyph-name="f" unicode="f" horiz-adv-x="385" 
d="M37 468l0.000976562 62h106v72c0 30.667 2.16699 57.167 6.5 79.5s12.5 43.833 24.5 64.5s30.667 36.5 56 47.5s56.666 16.5 93.999 16.5c23.333 0 42.333 -2.66699 57 -8l-8 -64c-16 6 -32.333 9 -49 9c-42 0 -71.667 -9.66699 -89 -29s-26 -58 -26 -116v-72h153v-62
h-153v-468h-66v468h-106z" />
    <glyph glyph-name="g" unicode="g" horiz-adv-x="599" 
d="M285 -153c53.333 1.33301 96.499 12.5 129.499 33.5s49.5 53.167 49.5 96.5v133c-18 -30 -42.833 -54.167 -74.5 -72.5s-66.5 -27.5 -104.5 -27.5c-74.667 0 -132.5 22.667 -173.5 68s-61.5 111 -61.5 197s20.5 151.667 61.5 197s98.833 68 173.5 68
c38 0 72.667 -9.16699 104 -27.5s56 -42.833 74 -73.5l12 91h60l-6 -124v-422c0 -62 -21.5 -109.833 -64.5 -143.5s-102.833 -50.5 -179.5 -50.5c-134 0 -209 51.333 -225 154l70 9c12.667 -72.667 64.334 -108 155.001 -106zM117.999 275
c0 -66.667 14.833 -117.167 44.5 -151.5s71.167 -51.5 124.5 -51.5c50.667 0 92.5 16 125.5 48s50.167 66.667 51.5 104v102c-1.33301 37.333 -18.5 72 -51.5 104s-74.833 48 -125.5 48c-53.333 0 -94.833 -17 -124.5 -51s-44.5 -84.667 -44.5 -152z" />
    <glyph glyph-name="h" unicode="h" horiz-adv-x="574" 
d="M70 0v800h66v-360c18 30 43 54.167 75 72.5s67.333 27.5 106 27.5c56.667 0 103.5 -15.167 140.5 -45.5s55.5 -71.833 55.5 -124.5v-370h-66v355c0 38.667 -12.667 68.667 -38 90s-59.333 32 -102 32c-46.667 0 -86.5 -16 -119.5 -48s-50.167 -66.333 -51.5 -103v-326
h-66z" />
    <glyph glyph-name="i" unicode="i" horiz-adv-x="250" 
d="M168 739v-86h-86v86h86zM92 0v530h66v-530h-66z" />
    <glyph glyph-name="j" unicode="j" horiz-adv-x="250" 
d="M-17 -147c42 0 71.5 9.5 88.5 28.5s25.5 57.833 25.5 116.5v532h66v-532c0 -30.667 -2.16699 -57.167 -6.5 -79.5s-12.5 -44 -24.5 -65s-30.5 -36.833 -55.5 -47.5s-56.167 -16 -93.5 -16c-23.333 0 -42.333 2.66699 -57 8l8 64c14 -6 30.333 -9 49 -9zM173 739v-86h-86
v86h86z" />
    <glyph glyph-name="k" unicode="k" horiz-adv-x="535" 
d="M136 0h-66v800h66v-536l101 103l163 163h95l-231 -225l268 -305h-91l-222 261l-83 -81v-180z" />
    <glyph glyph-name="l" unicode="l" horiz-adv-x="250" 
d="M92 0v800h66v-800h-66z" />
    <glyph glyph-name="m" unicode="m" horiz-adv-x="863" 
d="M124 530l12 -88c17.333 30 39.666 53.833 66.999 71.5s57.666 26.5 90.999 26.5c88.667 0 144.334 -36.667 167.001 -110c18 36.667 41.833 64.167 71.5 82.5s61.167 27.5 94.5 27.5c54 0 96.667 -14.833 128 -44.5s47 -71.5 47 -125.5v-370h-66v355
c0 81.333 -39.667 122 -119 122c-40 0 -74.167 -16 -102.5 -48s-43.5 -66.333 -45.5 -103v-326h-66v355c0 81.333 -39.667 122 -119 122c-40.667 0 -75.167 -16 -103.5 -48s-43.166 -66.333 -44.499 -103v-326h-66v407l-6 123h60z" />
    <glyph glyph-name="n" unicode="n" horiz-adv-x="574" 
d="M124 530l12 -90c18 30 43 54.167 75 72.5s67.333 27.5 106 27.5c56.667 0 103.5 -15.167 140.5 -45.5s55.5 -71.833 55.5 -124.5v-370h-66v355c0 38.667 -12.667 68.667 -38 90s-59.333 32 -102 32c-46.667 0 -86.5 -16 -119.5 -48s-50.167 -66.333 -51.5 -103v-326h-66
v407l-6 123h60z" />
    <glyph glyph-name="o" unicode="o" horiz-adv-x="578" 
d="M289 -10c-75.333 0 -134 23.333 -176 70s-63 115 -63 205s21 158.333 63 205s100.667 70 176 70s134 -23.333 176 -70s63 -115 63 -205s-21 -158.333 -63 -205s-100.667 -70 -176 -70zM289 478c-113.333 0 -170 -71 -170 -213s56.667 -213 170 -213s170 71 170 213
s-56.667 213 -170 213z" />
    <glyph glyph-name="p" unicode="p" horiz-adv-x="599" 
d="M136 90v-290h-66v606l-6 124h60l12 -91c18 30.667 42.667 55.167 74 73.5s66 27.5 104 27.5c74 0 131.667 -24.167 173 -72.5s62 -115.833 62 -202.5s-20.667 -154.167 -62 -202.5s-99 -72.5 -173 -72.5c-38 0 -72.667 9.16699 -104 27.5s-56 42.5 -74 72.5zM479 265
c0 68 -14.667 120.333 -44 157s-70.333 55 -123 55c-50.667 0 -92.334 -15.833 -125.001 -47.5s-49.667 -66.167 -51 -103.5v-122c1.33301 -37.333 18.333 -71.833 51 -103.5s74.334 -47.5 125.001 -47.5c52.667 0 93.667 18.5 123 55.5s44 89.167 44 156.5z" />
    <glyph glyph-name="q" unicode="q" horiz-adv-x="599" 
d="M463 -200v290c-18 -30 -42.667 -54.167 -74 -72.5s-66 -27.5 -104 -27.5c-74 0 -131.667 24.167 -173 72.5s-62 115.833 -62 202.5s20.667 154.167 62 202.5s99 72.5 173 72.5c38 0 72.667 -9.16699 104 -27.5s56 -42.833 74 -73.5l12 91h60l-6 -124v-606h-66zM120 265
c0 -67.333 14.667 -119.5 44 -156.5s70.333 -55.5 123 -55.5c50.667 0 92.334 15.833 125.001 47.5s49.667 66.167 51 103.5v122c-1.33301 37.333 -18.333 71.833 -51 103.5s-74.334 47.5 -125.001 47.5c-52.667 0 -93.667 -18.333 -123 -55s-44 -89 -44 -157z" />
    <glyph glyph-name="r" unicode="r" horiz-adv-x="395" 
d="M371 532l-6.99902 -68c-16 6 -33.333 9 -52 9c-50.667 0 -92.334 -15.833 -125.001 -47.5s-49.667 -66.167 -51 -103.5v-322h-66v407l-6 123h60l12 -94c16 30 40 54.833 72 74.5s66.667 29.5 104 29.5c25.333 0 45 -2.66699 59 -8z" />
    <glyph glyph-name="s" unicode="s" horiz-adv-x="530" 
d="M262 51c104.667 2.66699 156.997 36.3271 156.997 100.994c0 8.66699 -0.5 16.334 -1.5 23.001s-3.5 12.834 -7.5 18.501s-7.16699 10.334 -9.5 14.001s-7.33301 7.16699 -15 10.5l-17.5 7.5c-4 1.66699 -11.5 3.66699 -22.5 6s-19 3.83301 -24 4.5
s-14.833 2.16699 -29.5 4.5s-25 3.83301 -31 4.5l-23 3c-14.667 2.66699 -23.5 4.16699 -26.5 4.5s-11.5 2 -25.5 5s-23.167 5.5 -27.5 7.5s-12.5 5.16699 -24.5 9.5s-20.333 8.5 -25 12.5l-19 16c-8 6.66699 -13.5 13.667 -16.5 21s-6 16 -9 26s-4.5 20.667 -4.5 32
c0 28 6 52.667 18 74s28 37.833 48 49.5s41.167 20.334 63.5 26.001s45.833 8.5 70.5 8.5c122.667 0 194.667 -51.333 216 -154l-71 -9c-16 70 -64.667 104 -146 102c-86.667 -1.33301 -130 -32.333 -130 -93c0 -11.333 2.16699 -21.166 6.5 -29.499
s9.33301 -14.833 15 -19.5s14.834 -9 27.501 -13s23.5 -6.83301 32.5 -8.5s22.833 -3.83398 41.5 -6.50098c4 -0.666992 7.5 -1.16699 10.5 -1.5s6.16699 -0.833008 9.5 -1.5l28 -4c14 -2 24 -3.5 30 -4.5s15.667 -2.83301 29 -5.5s23.333 -5.16699 30 -7.5
s15.5 -5.66602 26.5 -9.99902s19.333 -8.83301 25 -13.5s12.167 -10.667 19.5 -18s12.833 -15.166 16.5 -23.499s6.83398 -18 9.50098 -29s4 -22.833 4 -35.5c0 -38 -11.667 -70 -35 -96s-51.333 -44 -84 -54s-68.667 -15 -108 -15c-66 0 -117.167 14.333 -153.5 43
s-58.833 65.667 -67.5 111l71 9c16.667 -70 66.334 -104 149.001 -102z" />
    <glyph glyph-name="t" unicode="t" horiz-adv-x="395" 
d="M27 468l-0.000976562 62h96v135l66 22v-157h163v-62h-163v-270c0 -58 8.66699 -96.667 26 -116s47 -29 89 -29c16.667 0 33 3 49 9l8 -64c-14.667 -5.33301 -33.667 -8 -57 -8c-37.333 0 -68.666 5.5 -93.999 16.5s-44 26.833 -56 47.5s-20.167 42.167 -24.5 64.5
s-6.5 48.833 -6.5 79.5v270h-96z" />
    <glyph glyph-name="u" unicode="u" horiz-adv-x="574" 
d="M450 0l-12 90c-18 -30 -43 -54.167 -75 -72.5s-67.333 -27.5 -106 -27.5c-56.667 0 -103.5 15.167 -140.5 45.5s-55.5 71.833 -55.5 124.5v370h66v-355c0 -38.667 12.667 -68.667 38 -90s59.333 -32 102 -32c46.667 0 86.5 16 119.5 48s50.167 66.333 51.5 103v326h66
v-407l6 -123h-60z" />
    <glyph glyph-name="v" unicode="v" horiz-adv-x="540" 
d="M518 530l-207 -540h-81l-208 540h74l116 -317l58 -165l58 165l117 317h73z" />
    <glyph glyph-name="w" unicode="w" horiz-adv-x="810" 
d="M448 326l-43 143l-43 -143l-104 -336h-79l-149 540h71l80 -312l37 -153l45 153l97 312h90l97 -312l45 -153l37 153l80 312h71l-149 -540h-79z" />
    <glyph glyph-name="x" unicode="x" horiz-adv-x="530" 
d="M265 222l-69 -97l-92 -125h-81l160 220l42 56l-42 55l-147 199h81l79 -111l69 -97l68 97l79 111h80l-145 -199l-41 -55l41 -56l160 -220h-81l-91 125z" />
    <glyph glyph-name="y" unicode="y" horiz-adv-x="540" 
d="M522 530l-209 -494l-96 -236h-77l93 220l-215 510h78l115 -291l59 -152l59 152l116 291h77z" />
    <glyph glyph-name="z" unicode="z" horiz-adv-x="535" 
d="M45 0v54l275 324l83 91l-146 -1h-193v62h419v-54l-275 -324l-83 -91l146 1h223v-62h-449z" />
    <glyph glyph-name="braceleft" unicode="{" horiz-adv-x="280" 
d="M8 381l19 0.000976562c26.667 0 45.667 6.5 57 19.5s17 39.167 17 78.5v198c0 102 50 153 150 153h19v-66h-19c-28 0 -49 -6.83301 -63 -20.5s-21 -39.5 -21 -77.5v-194c0 -56.667 -15.333 -97.334 -46 -122.001c30.667 -26 46 -66.667 46 -122v-194
c0 -38 7 -63.833 21 -77.5s35 -20.5 63 -20.5h19v-66h-19c-100 0 -150 51 -150 153v198c0 39.333 -5.66699 65.5 -17 78.5s-30.333 19.5 -57 19.5h-19v62z" />
    <glyph glyph-name="bar" unicode="|" horiz-adv-x="270" 
d="M170 830v-960h-70v960h70z" />
    <glyph glyph-name="braceright" unicode="}" horiz-adv-x="280" 
d="M272 319l-19 -0.000976562c-26.667 0 -45.667 -6.5 -57 -19.5s-17 -39.167 -17 -78.5v-198c0 -102 -50 -153 -150 -153h-19v66h19c28 0 49 6.83301 63 20.5s21 39.5 21 77.5v194c0 56.667 15.333 97.334 46 122.001c-30.667 26 -46 66.667 -46 122v194
c0 38 -7 63.833 -21 77.5s-35 20.5 -63 20.5h-19v66h19c100 0 150 -51 150 -153v-198c0 -39.333 5.66699 -65.5 17 -78.5s30.333 -19.5 57 -19.5h19v-62z" />
    <glyph glyph-name="asciitilde" unicode="~" horiz-adv-x="470" 
d="M60 291l-30 50c0.666992 1.33301 2 3.5 4 6.5s6.5 8 13.5 15s14.667 13.167 23 18.5s19.666 10.166 33.999 14.499s29.5 6.5 45.5 6.5c30 0 61.333 -12 94 -36s60.667 -35.667 84 -35c17.333 0.666992 32.833 5 46.5 13s22.834 16 27.501 24l8 11l30 -50
c-0.666992 -1.33301 -2 -3.5 -4 -6.5s-6.5 -8 -13.5 -15s-14.667 -13.167 -23 -18.5s-19.666 -10.166 -33.999 -14.499s-29.5 -6.5 -45.5 -6.5c-30 0 -61.333 12 -94 36s-60.667 35.667 -84 35c-17.333 -0.666992 -32.833 -5 -46.5 -13s-22.834 -16 -27.501 -24z" />
    <glyph glyph-name="nbspace" unicode="&#xa0;" horiz-adv-x="240" 
 />
    <glyph glyph-name="exclamdown" unicode="&#xa1;" horiz-adv-x="280" 
d="M186 -200h-92l28 540h36zM183 530v-86h-86v86h86z" />
    <glyph glyph-name="cent" unicode="&#xa2;" horiz-adv-x="550" 
d="M141 0l32.999 131c-82.667 41.333 -124 125 -124 251c0 86.667 20.833 154.167 62.5 202.5s99.834 72.5 174.501 72.5c8.66699 0 15 -0.333008 19 -1l27 108h65l-30 -116c73.333 -19.333 118.333 -67.666 135 -144.999l-71 -9c-12 49.333 -38.333 80.666 -79 93.999
l-104 -416c10 -2.66699 22.333 -4 37 -4c81.333 -2 130 32 146 102l71 -9c-21.333 -102.667 -93.333 -154 -216 -154c-21.333 0 -39 1.33301 -53 4l-28 -111h-65zM118.999 382c0 -88 23.667 -149.333 71 -184l100 398h-4c-52.667 -1.33301 -93.667 -20.5 -123 -57.5
s-44 -89.167 -44 -156.5z" />
    <glyph glyph-name="sterling" unicode="&#xa3;" horiz-adv-x="680" 
d="M54 0l-0.000976562 62h110v307h-110v62h110v125c0 66 20.167 118.833 60.5 158.5s97.833 59.5 172.5 59.5c134.667 0 208 -54.333 220 -163l-69 -9c-9.33301 74.667 -59.666 111 -150.999 109c-111.333 -2 -167 -50 -167 -144v-136h229v-62h-229v-307h390v-62h-566z" />
    <glyph glyph-name="currency" unicode="&#xa4;" horiz-adv-x="720" 
d="M360 153c62 0 113 17.833 153 53.5s60 94.167 60 175.5s-20 139.833 -60 175.5s-91 53.5 -153 53.5s-113 -17.833 -153 -53.5s-60 -94.167 -60 -175.5s20 -139.833 60 -175.5s91 -53.5 153 -53.5zM20 88l107.999 107c-34 48.667 -51 111 -51 187s17 138 51 186l-108 108
l46 46l106 -107c48 39.333 110.667 59 188 59c76.667 0 139.334 -19.667 188.001 -59l106 107l46 -46l-108 -108c34 -48 51 -110 51 -186s-17 -138.333 -51 -187l108 -107l-46 -46l-106 106c-49.333 -38.667 -112 -58 -188 -58s-138.667 19.333 -188 58l-106 -106z" />
    <glyph glyph-name="yen" unicode="&#xa5;" horiz-adv-x="680" 
d="M15 764h79l157 -244l89 -142l89 142l157 244h79l-263 -400h174v-62h-203v-61h203v-62h-203v-179h-66v179h-203v62h203v61h-203v62h173z" />
    <glyph glyph-name="brokenbar" unicode="&#xa6;" horiz-adv-x="270" 
d="M170 315v-445h-70v445h70zM170 830v-445h-70v445h70z" />
    <glyph glyph-name="section" unicode="&#xa7;" horiz-adv-x="620" 
d="M327 478c31.333 -2.66699 57.5 -5.66992 78.5 -9.00293s43.333 -9 67 -17s42.5 -18.333 56.5 -31s25.667 -29.5 35 -50.5s14 -46.167 14 -75.5c0 -77.333 -36.667 -132.666 -110 -165.999c28 -13.333 49.333 -30.166 64 -50.499s22 -50.833 22 -91.5
c0 -65.333 -24.333 -114.5 -73 -147.5s-108.334 -49.5 -179.001 -49.5c-146.667 0 -232 59.333 -256 178l72 8c8.66699 -42 27.5 -73.167 56.5 -93.5s71.5 -30.166 127.5 -29.499c50.667 0.666992 93.667 11.5 129 32.5s53 54.5 53 100.5c0 42 -13.833 70.333 -41.5 85
s-77.5 25 -149.5 31c-31.333 2.66699 -57.5 5.66699 -78.5 9s-43.333 9 -67 17s-42.5 18.333 -56.5 31s-25.667 29.5 -35 50.5s-14 46.167 -14 75.5c0 77.333 36.667 132.333 110 165c-28.667 13.333 -50.167 30.333 -64.5 51s-21.5 51.334 -21.5 92.001
c0 65.333 24.333 114.5 73 147.5s108.334 49.5 179.001 49.5c146.667 0 232 -59.333 256 -178l-72 -8c-8.66699 42 -27.5 73.167 -56.5 93.5s-71.5 30.166 -127.5 29.499c-50.667 -0.666992 -93.667 -11.5 -129 -32.5s-53 -54.5 -53 -100.5c0 -42 13.833 -70.333 41.5 -85
s77.5 -25 149.5 -31zM112 285.997c0 -42.667 13.5 -72.335 40.5 -89.002s75.5 -28 145.5 -34c53.333 -4.66699 101.666 4 144.999 26s65 57 65 105c0 42.667 -13.5 72.334 -40.5 89.001s-75.5 28 -145.5 34c-33.333 2.66699 -65.166 0.833984 -95.499 -5.49902
s-57 -20.333 -80 -42s-34.5 -49.5 -34.5 -83.5z" />
    <glyph glyph-name="dieresis" unicode="&#xa8;" 
d="M250 739v-86h-86v86h86zM436 739v-86h-86v86h86z" />
    <glyph glyph-name="copyright" unicode="&#xa9;" horiz-adv-x="880" 
d="M40 390c0 110.667 39 205 117 283s172.333 117 283 117s205 -39 283 -117s117 -172.333 117 -283s-39 -205 -117 -283s-172.333 -117 -283 -117s-205 39 -283 117s-117 172.333 -117 283zM105 390c0 -92.667 32.667 -171.667 98 -237s144.333 -98 237 -98
s171.667 32.667 237 98s98 144.333 98 237s-32.667 171.667 -98 237s-144.333 98 -237 98s-171.667 -32.667 -237 -98s-98 -144.333 -98 -237zM272 390c0 -59.333 14.5 -104.5 43.5 -135.5s70.167 -47.167 123.5 -48.5c81.333 -2 130 32 146 102l71 -9
c-21.333 -102.667 -93.333 -154 -216 -154c-74.667 0 -132.834 21.5 -174.501 64.5s-62.5 103.167 -62.5 180.5s20.833 137.5 62.5 180.5s99.834 64.5 174.501 64.5c122.667 0 194.667 -51.333 216 -154l-71 -9c-16 70 -64.667 104 -146 102
c-53.333 -1.33301 -94.5 -17.5 -123.5 -48.5s-43.5 -76.167 -43.5 -135.5z" />
    <glyph glyph-name="ordfeminine" unicode="&#xaa;" horiz-adv-x="440" 
d="M42 497c0 38 13.168 65.999 39.501 83.999s64.166 30.667 113.499 38l124 18v16c0 52.667 -35.667 79 -107 79c-48.667 0 -78.667 -22.667 -90 -68l-64 8c8.66699 38 24.667 67.167 48 87.5s60.333 30.5 111 30.5c52 0 92.333 -11.833 121 -35.5s43 -59.167 43 -106.5
v-163l5 -95h-57l-8 61c-12.667 -20.667 -32 -37.667 -58 -51s-53.333 -20 -82 -20c-46 0 -80.667 10.333 -104 31s-35 49.334 -35 86.001zM108.001 496.999c0 -38.667 23.332 -58 69.999 -58c38 0 70.833 10.167 98.5 30.5s41.834 43.833 42.501 70.5v44l-155 -26
c-37.333 -6.66699 -56 -27 -56 -61z" />
    <glyph glyph-name="guillemotleft" unicode="&#xab;" horiz-adv-x="520" 
d="M250 190v-55l-208 140v80l208 140v-55l-145 -125zM470 190v-55l-208 140v80l208 140v-55l-145 -125z" />
    <glyph glyph-name="logicalnot" unicode="&#xac;" horiz-adv-x="700" 
d="M554 208v300h-474v64h540v-364h-66z" />
    <glyph glyph-name="uni00AD" unicode="&#xad;" horiz-adv-x="360" 
d="M310 303h-260v64h260v-64z" />
    <glyph glyph-name="registered" unicode="&#xae;" horiz-adv-x="880" 
d="M40 390c0 110.667 39 205 117 283s172.333 117 283 117s205 -39 283 -117s117 -172.333 117 -283s-39 -205 -117 -283s-172.333 -117 -283 -117s-205 39 -283 117s-117 172.333 -117 283zM105 390c0 -92.667 32.667 -171.667 98 -237s144.333 -98 237 -98
s171.667 32.667 237 98s98 144.333 98 237s-32.667 171.667 -98 237s-144.333 98 -237 98s-171.667 -32.667 -237 -98s-98 -144.333 -98 -237zM332 342v-186.999h-63v470h192c104.667 0 157 -47 157 -141c0 -76.667 -34.667 -122.334 -104 -137.001l117 -192h-79l-106 187
h-114zM332 402.001h135c11.333 0 21 0.833008 29 2.5s16.833 5 26.5 10s17 13.333 22 25s7.5 26.5 7.5 44.5c0 23.333 -5 41.333 -15 54s-20.333 20.167 -31 22.5s-23.667 3.5 -39 3.5h-135v-162z" />
    <glyph glyph-name="macron" unicode="&#xaf;" 
d="M164 664v64h272v-64h-272z" />
    <glyph glyph-name="degree" unicode="&#xb0;" horiz-adv-x="480" 
d="M240 473c40 0 71 10 93 30s33 50.333 33 91s-11 71 -33 91s-53 30 -93 30s-71 -10 -93 -30s-33 -50.333 -33 -91s11 -71 33 -91s53 -30 93 -30zM240 414c-56.667 0 -102.334 15.333 -137.001 46s-52 75.334 -52 134.001s17.333 103.334 52 134.001s80.334 46 137.001 46
s102.334 -15.333 137.001 -46s52 -75.334 52 -134.001s-17.333 -103.334 -52 -134.001s-80.334 -46 -137.001 -46z" />
    <glyph glyph-name="plusminus" unicode="&#xb1;" horiz-adv-x="700" 
d="M318 270v163h-238v64h238v163h64v-163h238v-64h-238v-163h-64zM620 153h-540v64h540v-64z" />
    <glyph glyph-name="twosuperior" unicode="&#xb2;" horiz-adv-x="411" 
d="M358 370l-305.001 0.00292969c0 30.667 3.33301 57 10 79s17.667 40.5 33 55.5s30 26.667 44 35s34 18.5 60 30.5c18 7.33301 30.333 12.666 37 15.999s15.167 7.83301 25.5 13.5s17 10.667 20 15s6 10 9 17s4.5 14.833 4.5 23.5c0 24.667 -9 42 -27 52s-38 15 -60 15
c-31.333 0 -54.833 -5.33301 -70.5 -16s-25.5 -28 -29.5 -52l-54 6c11.333 76 62.666 114 153.999 114c40 0 73.333 -10.333 100 -31s40 -50 40 -88c0 -8 -0.666992 -15.5 -2 -22.5s-2.66602 -13.167 -3.99902 -18.5s-4.33301 -11 -9 -17s-8 -10.667 -10 -14
s-6.5 -7.5 -13.5 -12.5l-14 -10c-2.33301 -1.66699 -8 -4.83398 -17 -9.50098l-16.5 -8.5c-2 -1 -8.33301 -3.83301 -19 -8.5s-16.667 -7.33398 -18 -8.00098c-37.333 -16 -65.166 -31.833 -83.499 -47.5s-28.833 -35.167 -31.5 -58.5l109 2h138v-52z" />
    <glyph glyph-name="threesuperior" unicode="&#xb3;" horiz-adv-x="415" 
d="M362 480c0 -36 -13.665 -64.999 -40.998 -86.999s-67.333 -33 -120 -33c-91.333 0 -142.333 38.333 -153 115l55 5c3.33301 -24.667 12.666 -42.334 27.999 -53.001s38.666 -16 69.999 -16c71.333 -1.33301 107 21.667 107 69c0 12 -2 22.5 -6 31.5s-9 15.667 -15 20
s-13.833 7.66602 -23.5 9.99902s-18.334 3.83301 -26.001 4.5s-17.167 1 -28.5 1h-55v51h55c13.333 0 24.333 0.666992 33 2s17.334 4 26.001 8s15.167 10.333 19.5 19s6.5 20 6.5 34c0 42.667 -30 63.334 -90 62.001c-30 -0.666992 -52.333 -6.16699 -67 -16.5
s-23.667 -27.833 -27 -52.5l-54 5c8.66699 76.667 58 115 148 115c42 0 76.5 -9.33301 103.5 -28s40.5 -47 40.5 -85c0 -45.333 -19.667 -74 -59 -86c19.333 -4 36.333 -14.167 51 -30.5s22 -37.833 22 -64.5z" />
    <glyph glyph-name="acute" unicode="&#xb4;" 
d="M364 800h82l-111 -208h-65z" />
    <glyph glyph-name="mu" unicode="&#xb5;" horiz-adv-x="574" 
d="M450 0l-12 90c-18 -30 -43 -54.167 -75 -72.5s-67.333 -27.5 -106 -27.5c-54 0 -98 13 -132 39l2 -89v-140h-66v730h66v-355c0 -38.667 12.667 -68.667 38 -90s59.333 -32 102 -32c46.667 0 86.5 16 119.5 48s50.167 66.333 51.5 103v326h66v-407l6 -123h-60z" />
    <glyph glyph-name="paragraph" unicode="&#xb6;" horiz-adv-x="650" 
d="M420 714v-714h-70v336h-66c-32.667 0 -62.667 3.5 -90 10.5s-53.166 18.333 -77.499 34s-43.5 38.5 -57.5 68.5s-21 66.333 -21 109s7 79 21 109s33.167 52.833 57.5 68.5s50.166 27 77.499 34s57.333 10.5 90 10.5h276v-780h-70v714h-70z" />
    <glyph glyph-name="periodcentered" unicode="&#xb7;" horiz-adv-x="280" 
d="M183 378v-86h-86v86h86z" />
    <glyph glyph-name="cedilla" unicode="&#xb8;" 
d="M281 12l44 0.000976562l-13 -46c58 -14 87 -45 87 -93c0 -28 -10 -48.833 -30 -62.5s-46.333 -20.5 -79 -20.5s-59 5.66699 -79 17l15 44c18 -8 36.667 -12.333 56 -13c39.333 -0.666992 59 10.666 59 33.999c0 29.333 -30 47 -90 53z" />
    <glyph glyph-name="onesuperior" unicode="&#xb9;" horiz-adv-x="400" 
d="M48 623v55c56 12 104.667 44 146 96h46v-354h130v-50h-314v50h130v274c-31.333 -36 -77.333 -59.667 -138 -71z" />
    <glyph glyph-name="ordmasculine" unicode="&#xba;" horiz-adv-x="460" 
d="M230 380c-56 0 -100 17.667 -132 53s-48 86 -48 152s16 116.667 48 152s76 53 132 53c56.667 0 100.834 -17.5 132.501 -52.5s47.5 -85.833 47.5 -152.5s-15.833 -117.5 -47.5 -152.5s-75.834 -52.5 -132.501 -52.5zM230 731c-76.667 0 -115 -48.667 -115 -146
s38.333 -146 115 -146s115 48.667 115 146s-38.333 146 -115 146z" />
    <glyph glyph-name="guillemotright" unicode="&#xbb;" horiz-adv-x="520" 
d="M50 135v55l145 125l-145 125v55l208 -140v-80zM270 135v55l145 125l-145 125v55l208 -140v-80z" />
    <glyph glyph-name="onequarter" unicode="&#xbc;" horiz-adv-x="961" 
d="M779 764l-506 -764h-72l506 764h72zM923 89h-73v-89h-53v89h-179v38l185 277h47v-264h73v-51zM797 140v122l1 53l-33 -51l-55 -83l-28 -41h115zM48 623v55c56 12 104.667 44 146 96h46v-354h130v-50h-314v50h130v274c-31.333 -36 -77.333 -59.667 -138 -71z" />
    <glyph glyph-name="onehalf" unicode="&#xbd;" horiz-adv-x="991" 
d="M779 764l-506 -764h-72l506 764h72zM938 0l-305.001 0.00292969c0 30.667 3.33301 57 10 79s17.667 40.5 33 55.5s30 26.667 44 35s34 18.5 60 30.5c18 7.33301 30.333 12.666 37 15.999s15.167 7.83301 25.5 13.5s17 10.667 20 15s6 10 9 17s4.5 14.833 4.5 23.5
c0 24.667 -9 42 -27 52s-38 15 -60 15c-31.333 0 -54.833 -5.33301 -70.5 -16s-25.5 -28 -29.5 -52l-54 6c11.333 76 62.666 114 153.999 114c40 0 73.333 -10.333 100 -31s40 -50 40 -88c0 -8 -0.666992 -15.5 -2 -22.5s-2.66602 -13.167 -3.99902 -18.5
s-4.33301 -11 -9 -17s-8 -10.667 -10 -14s-6.5 -7.5 -13.5 -12.5l-14 -10c-2.33301 -1.66699 -8 -4.83398 -17 -9.50098l-16.5 -8.5c-2 -1 -8.33301 -3.83301 -19 -8.5s-16.667 -7.33398 -18 -8.00098c-37.333 -16 -65.166 -31.833 -83.499 -47.5
s-28.833 -35.167 -31.5 -58.5l109 2h138v-52zM47.999 623.003v55c56 12 104.667 44 146 96h46v-354h130v-50h-314v50h130v274c-31.333 -36 -77.333 -59.667 -138 -71z" />
    <glyph glyph-name="threequarters" unicode="&#xbe;" horiz-adv-x="976" 
d="M362 480c0 -36 -13.665 -64.999 -40.998 -86.999s-67.333 -33 -120 -33c-91.333 0 -142.333 38.333 -153 115l55 5c3.33301 -24.667 12.666 -42.334 27.999 -53.001s38.666 -16 69.999 -16c71.333 -1.33301 107 21.667 107 69c0 12 -2 22.5 -6 31.5s-9 15.667 -15 20
s-13.833 7.66602 -23.5 9.99902s-18.334 3.83301 -26.001 4.5s-17.167 1 -28.5 1h-55v51h55c13.333 0 24.333 0.666992 33 2s17.334 4 26.001 8s15.167 10.333 19.5 19s6.5 20 6.5 34c0 42.667 -30 63.334 -90 62.001c-30 -0.666992 -52.333 -6.16699 -67 -16.5
s-23.667 -27.833 -27 -52.5l-54 5c8.66699 76.667 58 115 148 115c42 0 76.5 -9.33301 103.5 -28s40.5 -47 40.5 -85c0 -45.333 -19.667 -74 -59 -86c19.333 -4 36.333 -14.167 51 -30.5s22 -37.833 22 -64.5zM794.002 764.001l-506 -764h-72l506 764h72zM938.002 89.001
h-73v-89h-53v89h-179v38l185 277h47v-264h73v-51zM812.002 140.001v122l1 53l-33 -51l-55 -83l-28 -41h115z" />
    <glyph glyph-name="questiondown" unicode="&#xbf;" horiz-adv-x="535" 
d="M288 340l46.001 -0.00390625c9.33301 -33.333 14 -63.333 14 -90c-0.666992 -34.667 -9.16699 -61.334 -25.5 -80.001s-38.166 -35 -65.499 -49c-5.33301 -2.66699 -17.333 -8 -36 -16s-31.834 -14.5 -39.501 -19.5s-17.334 -12.5 -29.001 -22.5
s-19.834 -21.833 -24.501 -35.5s-7 -29.5 -7 -47.5c0 -84.667 55 -127 165 -127c52 0 92.167 11.167 120.5 33.5s47.166 57.5 56.499 105.5l69 -6c-25.333 -130.667 -107.333 -196 -246 -196c-69.333 0 -125.833 17 -169.5 51s-65.5 80.333 -65.5 139
c0 26.667 3.83301 50.334 11.5 71.001s19.5 37.834 35.5 51.501s29.333 23.834 40 30.501s26.334 14.334 47.001 23.001s32.334 13.667 35.001 15c32 16 52 28.667 60 38c11.333 14 17 33 17 57c0.666992 18.667 -2.33301 43.334 -9 74.001zM252.001 443.996v86h86v-86h-86z
" />
    <glyph glyph-name="Agrave" unicode="&#xc0;" horiz-adv-x="720" 
d="M21 0l301 790h76l301 -790h-77l-92 247h-340l-92 -247h-77zM360 712l-71 -198l-75 -201h291l-74 201zM214 1030h82l94 -208h-65z" />
    <glyph glyph-name="Aacute" unicode="&#xc1;" horiz-adv-x="720" 
d="M21 0l301 790h76l301 -790h-77l-92 247h-340l-92 -247h-77zM360 712l-71 -198l-75 -201h291l-74 201zM424 1030h82l-111 -208h-65z" />
    <glyph glyph-name="Acircumflex" unicode="&#xc2;" horiz-adv-x="720" 
d="M21 0l301 790h76l301 -790h-77l-92 247h-340l-92 -247h-77zM360 712l-71 -198l-75 -201h291l-74 201zM544 822h-67l-117 150l-117 -150h-67l150 208h68z" />
    <glyph glyph-name="Atilde" unicode="&#xc3;" horiz-adv-x="720" 
d="M21 0l301 790h76l301 -790h-77l-92 247h-340l-92 -247h-77zM360 712l-71 -198l-75 -201h291l-74 201zM431 860c-28.667 1.33301 -56.334 14 -83.001 38s-47.667 36.333 -63 37c-18 1.33301 -32.667 -2.33398 -44 -11.001s-18.333 -17.667 -21 -27l-3 -14l-55 8
c16 72 58.333 106.333 127 103c28.667 -1.33301 56.334 -14 83.001 -38s47.667 -36.333 63 -37c18 -1.33301 32.667 2.33398 44 11.001s18.333 17.667 21 27l3 14l55 -8c-16 -72 -58.333 -106.333 -127 -103z" />
    <glyph glyph-name="Adieresis" unicode="&#xc4;" horiz-adv-x="720" 
d="M21 0l301 790h76l301 -790h-77l-92 247h-340l-92 -247h-77zM360 712l-71 -198l-75 -201h291l-74 201zM310 969v-86h-86v86h86zM496 969v-86h-86v86h86z" />
    <glyph glyph-name="Aring" unicode="&#xc5;" horiz-adv-x="720" 
d="M21 0l301 790h76l301 -790h-77l-92 247h-340l-92 -247h-77zM360 712l-71 -198l-75 -201h291l-74 201zM246 926c0 34 10.167 61.5 30.5 82.5s48.166 31.5 83.499 31.5s63.166 -10.5 83.499 -31.5s30.5 -48.5 30.5 -82.5s-10.167 -61.5 -30.5 -82.5
s-48.166 -31.5 -83.499 -31.5s-63.166 10.5 -83.499 31.5s-30.5 48.5 -30.5 82.5zM304 926c0 -17.333 5 -31.333 15 -42s23.667 -16 41 -16s31 5.33301 41 16s15 24.667 15 42s-5 31.333 -15 42s-23.667 16 -41 16s-31 -5.33301 -41 -16s-15 -24.667 -15 -42z" />
    <glyph glyph-name="AE" unicode="&#xc6;" horiz-adv-x="1060" 
d="M574 0l-47 247h-306l-129 -247h-79l418 780h544v-66h-467l54 -281h373v-66h-360l58 -301h362v-66h-421zM446 674l-190 -361h258l-41 217z" />
    <glyph glyph-name="Ccedilla" unicode="&#xc7;" horiz-adv-x="750" 
d="M139 390c0 -223.333 85.333 -335 256 -335c67.333 0 118.333 11.667 153 35s57 60 67 110l72 -6c-25.333 -130 -115.333 -197.667 -270 -203l-7 -25c58 -14 87 -45 87 -93c0 -28 -10 -48.833 -30 -62.5s-46.333 -20.5 -79 -20.5s-59 5.66699 -79 17l15 44
c18 -8 36.667 -12.333 56 -13c39.333 -0.666992 59 10.666 59 33.999c0 29.333 -30 47 -90 53l22 66c-103.333 4.66699 -180.166 41.834 -230.499 111.501s-75.5 165.5 -75.5 287.5c0 126.667 27.167 225 81.5 295s137.166 105 248.499 105c168 0 265.333 -68 292 -204
l-72 -6c-10 50 -32.333 86.667 -67 110s-85.667 35 -153 35c-170.667 0 -256 -111.667 -256 -335z" />
    <glyph glyph-name="Egrave" unicode="&#xc8;" horiz-adv-x="695" 
d="M90 780h520v-66h-450v-281h410v-66h-410v-301h470v-66h-540v780zM209 1030h82l94 -208h-65z" />
    <glyph glyph-name="Eacute" unicode="&#xc9;" horiz-adv-x="695" 
d="M90 780h520v-66h-450v-281h410v-66h-410v-301h470v-66h-540v780zM409 1030h82l-111 -208h-65z" />
    <glyph glyph-name="Ecircumflex" unicode="&#xca;" horiz-adv-x="695" 
d="M90 780h520v-66h-450v-281h410v-66h-410v-301h470v-66h-540v780zM534 822h-67l-117 150l-117 -150h-67l150 208h68z" />
    <glyph glyph-name="Edieresis" unicode="&#xcb;" horiz-adv-x="695" 
d="M90 780h520v-66h-450v-281h410v-66h-410v-301h470v-66h-540v780zM300 969v-86h-86v86h86zM486 969v-86h-86v86h86z" />
    <glyph glyph-name="Igrave" unicode="&#xcc;" horiz-adv-x="290" 
d="M180 780v-780h-70v780h70zM0 1030h82l94 -208h-65z" />
    <glyph glyph-name="Iacute" unicode="&#xcd;" horiz-adv-x="290" 
d="M180 780v-780h-70v780h70zM208 1030h82l-111 -208h-65z" />
    <glyph glyph-name="Icircumflex" unicode="&#xce;" horiz-adv-x="290" 
d="M180 780v-780h-70v780h70zM329 822h-67l-117 150l-117 -150h-67l150 208h68z" />
    <glyph glyph-name="Idieresis" unicode="&#xcf;" horiz-adv-x="290" 
d="M180 780v-780h-70v780h70zM95 969v-86h-86v86h86zM281 969v-86h-86v86h86z" />
    <glyph glyph-name="Eth" unicode="&#xd0;" horiz-adv-x="820" 
d="M403 0l-258 0.00195312v367h-120v66h120v347h258c116.667 0 204.5 -31.833 263.5 -95.5s88.5 -161.834 88.5 -294.501s-29.5 -230.834 -88.5 -294.501s-146.833 -95.5 -263.5 -95.5zM215 66.002h188c185.333 0 278 108 278 324s-92.667 324 -278 324h-188v-281h238v-66
h-238v-301z" />
    <glyph glyph-name="Ntilde" unicode="&#xd1;" horiz-adv-x="750" 
d="M597 0l-348 515l-92 142l4 -267v-390h-71v780h63l348 -515l92 -142l-4 267v390h71v-780h-63zM446 860c-28.667 1.33301 -56.334 14 -83.001 38s-47.667 36.333 -63 37c-18 1.33301 -32.667 -2.33398 -44 -11.001s-18 -17.667 -20 -27l-4 -14l-55 8
c16 72 58.333 106.333 127 103c28.667 -1.33301 56.334 -14 83.001 -38s47.667 -36.333 63 -37c18 -1.33301 32.667 2.33398 44 11.001s18 17.667 20 27l4 14l55 -8c-16 -72 -58.333 -106.333 -127 -103z" />
    <glyph glyph-name="Ograve" unicode="&#xd2;" horiz-adv-x="790" 
d="M395 -10c-111.333 0 -194.166 35 -248.499 105s-81.5 168.333 -81.5 295s27.167 225 81.5 295s137.166 105 248.499 105s194.166 -35 248.499 -105s81.5 -168.333 81.5 -295s-27.167 -225 -81.5 -295s-137.166 -105 -248.499 -105zM395 725
c-170.667 0 -256 -111.667 -256 -335s85.333 -335 256 -335s256 111.667 256 335s-85.333 335 -256 335zM259 1030h82l94 -208h-65z" />
    <glyph glyph-name="Oacute" unicode="&#xd3;" horiz-adv-x="790" 
d="M395 -10c-111.333 0 -194.166 35 -248.499 105s-81.5 168.333 -81.5 295s27.167 225 81.5 295s137.166 105 248.499 105s194.166 -35 248.499 -105s81.5 -168.333 81.5 -295s-27.167 -225 -81.5 -295s-137.166 -105 -248.499 -105zM395 725
c-170.667 0 -256 -111.667 -256 -335s85.333 -335 256 -335s256 111.667 256 335s-85.333 335 -256 335zM459 1030h82l-111 -208h-65z" />
    <glyph glyph-name="Ocircumflex" unicode="&#xd4;" horiz-adv-x="790" 
d="M395 -10c-111.333 0 -194.166 35 -248.499 105s-81.5 168.333 -81.5 295s27.167 225 81.5 295s137.166 105 248.499 105s194.166 -35 248.499 -105s81.5 -168.333 81.5 -295s-27.167 -225 -81.5 -295s-137.166 -105 -248.499 -105zM395 725
c-170.667 0 -256 -111.667 -256 -335s85.333 -335 256 -335s256 111.667 256 335s-85.333 335 -256 335zM579 822h-67l-117 150l-117 -150h-67l150 208h68z" />
    <glyph glyph-name="Otilde" unicode="&#xd5;" horiz-adv-x="790" 
d="M395 -10c-111.333 0 -194.166 35 -248.499 105s-81.5 168.333 -81.5 295s27.167 225 81.5 295s137.166 105 248.499 105s194.166 -35 248.499 -105s81.5 -168.333 81.5 -295s-27.167 -225 -81.5 -295s-137.166 -105 -248.499 -105zM395 725
c-170.667 0 -256 -111.667 -256 -335s85.333 -335 256 -335s256 111.667 256 335s-85.333 335 -256 335zM466 860c-28.667 1.33301 -56.334 14 -83.001 38s-47.667 36.333 -63 37c-18 1.33301 -32.667 -2.33398 -44 -11.001s-18 -17.667 -20 -27l-4 -14l-55 8
c16 72 58.333 106.333 127 103c28.667 -1.33301 56.334 -14 83.001 -38s47.667 -36.333 63 -37c18 -1.33301 32.667 2.33398 44 11.001s18 17.667 20 27l4 14l55 -8c-16 -72 -58.333 -106.333 -127 -103z" />
    <glyph glyph-name="Odieresis" unicode="&#xd6;" horiz-adv-x="790" 
d="M395 -10c-111.333 0 -194.166 35 -248.499 105s-81.5 168.333 -81.5 295s27.167 225 81.5 295s137.166 105 248.499 105s194.166 -35 248.499 -105s81.5 -168.333 81.5 -295s-27.167 -225 -81.5 -295s-137.166 -105 -248.499 -105zM395 725
c-170.667 0 -256 -111.667 -256 -335s85.333 -335 256 -335s256 111.667 256 335s-85.333 335 -256 335zM345 969v-86h-86v86h86zM531 969v-86h-86v86h86z" />
    <glyph glyph-name="multiply" unicode="&#xd7;" horiz-adv-x="700" 
d="M95 181l210 209l-210 209l46 46l209 -210l209 210l46 -46l-210 -209l210 -209l-46 -46l-209 210l-209 -210z" />
    <glyph glyph-name="Oslash" unicode="&#xd8;" horiz-adv-x="790" 
d="M395 -10c-78 0 -142 17.333 -192 52l-28 -42h-68l52 80c-62.667 66.667 -94 170 -94 310c0 126.667 27.167 225 81.5 295s137.166 105 248.499 105c76.667 0 141 -17.667 193 -53l28 43h68l-53 -81c62.667 -68.667 94 -171.667 94 -309
c0 -126.667 -27.167 -225 -81.5 -295s-137.166 -105 -248.499 -105zM395 725c-170.667 0 -256 -111.667 -256 -335c0 -110 20 -192.667 60 -248l351 537c-40 30.667 -91.667 46 -155 46zM651 390c0 109.333 -20 191.667 -60 247l-351 -537c39.333 -30 91 -45 155 -45
c170.667 0 256 111.667 256 335z" />
    <glyph glyph-name="Ugrave" unicode="&#xd9;" horiz-adv-x="774" 
d="M387 -10c-204.667 0 -307 96.667 -307 290v500h72v-502c0 -33.333 3.5 -62.666 10.5 -87.999s18.667 -48.666 35 -69.999s40.5 -37.5 72.5 -48.5s71 -16.5 117 -16.5s85 5.5 117 16.5s56.167 27.167 72.5 48.5s28 44.666 35 69.999s10.5 54.666 10.5 87.999v502h72v-500
c0 -193.333 -102.333 -290 -307 -290zM252 1030h82l94 -208h-65z" />
    <glyph glyph-name="Uacute" unicode="&#xda;" horiz-adv-x="774" 
d="M387 -10c-204.667 0 -307 96.667 -307 290v500h72v-502c0 -33.333 3.5 -62.666 10.5 -87.999s18.667 -48.666 35 -69.999s40.5 -37.5 72.5 -48.5s71 -16.5 117 -16.5s85 5.5 117 16.5s56.167 27.167 72.5 48.5s28 44.666 35 69.999s10.5 54.666 10.5 87.999v502h72v-500
c0 -193.333 -102.333 -290 -307 -290zM451 1030h82l-111 -208h-65z" />
    <glyph glyph-name="Ucircumflex" unicode="&#xdb;" horiz-adv-x="774" 
d="M387 -10c-204.667 0 -307 96.667 -307 290v500h72v-502c0 -33.333 3.5 -62.666 10.5 -87.999s18.667 -48.666 35 -69.999s40.5 -37.5 72.5 -48.5s71 -16.5 117 -16.5s85 5.5 117 16.5s56.167 27.167 72.5 48.5s28 44.666 35 69.999s10.5 54.666 10.5 87.999v502h72v-500
c0 -193.333 -102.333 -290 -307 -290zM571 822h-67l-117 150l-117 -150h-67l150 208h68z" />
    <glyph glyph-name="Udieresis" unicode="&#xdc;" horiz-adv-x="774" 
d="M387 -10c-204.667 0 -307 96.667 -307 290v500h72v-502c0 -33.333 3.5 -62.666 10.5 -87.999s18.667 -48.666 35 -69.999s40.5 -37.5 72.5 -48.5s71 -16.5 117 -16.5s85 5.5 117 16.5s56.167 27.167 72.5 48.5s28 44.666 35 69.999s10.5 54.666 10.5 87.999v502h72v-500
c0 -193.333 -102.333 -290 -307 -290zM337 969v-86h-86v86h86zM523 969v-86h-86v86h86z" />
    <glyph glyph-name="Yacute" unicode="&#xdd;" horiz-adv-x="710" 
d="M20 780h81l162 -244l92 -141l92 141l162 244h81l-300 -445v-335h-70v335zM419 1030h82l-111 -208h-65z" />
    <glyph glyph-name="Thorn" unicode="&#xde;" horiz-adv-x="650" 
d="M160 780v-158h206c32.667 0 62.667 -3.5 90 -10.5s53.166 -18.333 77.499 -34s43.5 -38.5 57.5 -68.5s21 -66.333 21 -109s-7 -79 -21 -109s-33.167 -52.833 -57.5 -68.5s-50.166 -27 -77.499 -34s-57.333 -10.5 -90 -10.5h-206v-178h-70v780h70zM160 244h217
c16 0 30.333 0.833008 43 2.5s26.667 5.66699 42 12s28.166 14.833 38.499 25.5s19 26 26 46s10.5 43.333 10.5 70s-3.5 50 -10.5 70s-15.667 35.333 -26 46s-23.166 19.167 -38.499 25.5s-29.333 10.333 -42 12s-27 2.5 -43 2.5h-217v-312z" />
    <glyph glyph-name="germandbls" unicode="&#xdf;" horiz-adv-x="628" 
d="M328 810c62.667 0 113.331 -13.998 151.998 -41.998s58 -69.333 58 -124c0 -26.667 -3.83301 -49.834 -11.5 -69.501s-19.834 -36 -36.501 -49s-30 -22.167 -40 -27.5s-25.333 -12.333 -46 -21c-28.667 -12 -48.667 -23.833 -60 -35.5s-17 -30.5 -17 -56.5
c0 -10 2.16699 -19 6.5 -27s8.66602 -14.333 12.999 -19s12.5 -9.66699 24.5 -15s20.667 -8.83301 26 -10.5l32 -10.5c20 -6 34.333 -10.5 43 -13.5s22 -9 40 -18s31.333 -18.167 40 -27.5s16.834 -22.333 24.501 -39s11.5 -35.334 11.5 -56.001
c0 -50.667 -16.5 -89.834 -49.5 -117.501s-75.5 -41.5 -127.5 -41.5c-60 0 -102.833 13.833 -128.5 41.5s-42.167 65.167 -49.5 112.5l68 8c4.66699 -32.667 14.834 -57.834 30.501 -75.501s41.834 -26.167 78.501 -25.5c71.333 1.33301 107 33 107 95
c0 15.333 -2.66699 28.5 -8 39.5s-14.166 20.167 -26.499 27.5s-23.666 13 -33.999 17s-25.5 8.66699 -45.5 14c-15.333 4.66699 -26 7.83398 -32 9.50098s-17.833 6.66699 -35.5 15s-30.834 16.666 -39.501 24.999s-17.167 20.333 -25.5 36s-12.5 32.834 -12.5 51.501
c0 20.667 3.16699 39.334 9.5 56.001s13.5 30 21.5 40s18.833 19.333 32.5 28s24.167 14.667 31.5 18s17.333 7.33301 30 12c32 12 54.667 25.167 68 39.5s20 36.5 20 66.5c0 72 -47.667 108 -143 108c-38 0 -69 -5.33301 -93 -16s-41.333 -27.5 -52 -50.5
s-17.5 -45.5 -20.5 -67.5s-4.5 -51.667 -4.5 -89v-526h-66v532c0 97.333 17.5 168 52.5 212s96.167 66 183.5 66z" />
    <glyph glyph-name="agrave" unicode="&#xe0;" horiz-adv-x="570" 
d="M146 800h82l94 -208h-65zM52 142c0 50.667 16.834 87.834 50.501 111.501s84.167 40.5 151.5 50.5l182 27v25c0 44 -13 75.167 -39 93.5s-64.333 28.166 -115 29.499c-42.667 0.666992 -74.5 -7.5 -95.5 -24.5s-35.5 -43.167 -43.5 -78.5l-69 10
c10.667 50 31.667 88.167 63 114.5s79.666 39.5 144.999 39.5c69.333 0 123 -15.833 161 -47.5s57 -78.5 57 -140.5v-228l6 -124h-58l-12 91c-16 -30 -42.667 -54.333 -80 -73s-77 -28 -119 -28c-60.667 0 -106.667 13.167 -138 39.5s-47 63.833 -47 112.5zM120.001 142
c0 -60.667 39 -91.001 117 -91.001c53.333 0 99.5 16.333 138.5 49s59.167 67.334 60.5 104.001v70l-183 -29c-44 -7.33301 -77.167 -17.833 -99.5 -31.5s-33.5 -37.5 -33.5 -71.5z" />
    <glyph glyph-name="aacute" unicode="&#xe1;" horiz-adv-x="570" 
d="M346 800h82l-111 -208h-65zM52 142c0 50.667 16.834 87.834 50.501 111.501s84.167 40.5 151.5 50.5l182 27v25c0 44 -13 75.167 -39 93.5s-64.333 28.166 -115 29.499c-42.667 0.666992 -74.5 -7.5 -95.5 -24.5s-35.5 -43.167 -43.5 -78.5l-69 10
c10.667 50 31.667 88.167 63 114.5s79.666 39.5 144.999 39.5c69.333 0 123 -15.833 161 -47.5s57 -78.5 57 -140.5v-228l6 -124h-58l-12 91c-16 -30 -42.667 -54.333 -80 -73s-77 -28 -119 -28c-60.667 0 -106.667 13.167 -138 39.5s-47 63.833 -47 112.5zM120.001 142
c0 -60.667 39 -91.001 117 -91.001c53.333 0 99.5 16.333 138.5 49s59.167 67.334 60.5 104.001v70l-183 -29c-44 -7.33301 -77.167 -17.833 -99.5 -31.5s-33.5 -37.5 -33.5 -71.5z" />
    <glyph glyph-name="acircumflex" unicode="&#xe2;" horiz-adv-x="570" 
d="M466 592h-67l-117 150l-117 -150h-67l150 208h68zM52 142c0 50.667 16.834 87.834 50.501 111.501s84.167 40.5 151.5 50.5l182 27v25c0 44 -13 75.167 -39 93.5s-64.333 28.166 -115 29.499c-42.667 0.666992 -74.5 -7.5 -95.5 -24.5s-35.5 -43.167 -43.5 -78.5l-69 10
c10.667 50 31.667 88.167 63 114.5s79.666 39.5 144.999 39.5c69.333 0 123 -15.833 161 -47.5s57 -78.5 57 -140.5v-228l6 -124h-58l-12 91c-16 -30 -42.667 -54.333 -80 -73s-77 -28 -119 -28c-60.667 0 -106.667 13.167 -138 39.5s-47 63.833 -47 112.5zM120.001 142
c0 -60.667 39 -91.001 117 -91.001c53.333 0 99.5 16.333 138.5 49s59.167 67.334 60.5 104.001v70l-183 -29c-44 -7.33301 -77.167 -17.833 -99.5 -31.5s-33.5 -37.5 -33.5 -71.5z" />
    <glyph glyph-name="atilde" unicode="&#xe3;" horiz-adv-x="570" 
d="M353 630c-28.667 1.33301 -56.334 14 -83.001 38s-47.667 36.333 -63 37c-18 1.33301 -32.667 -2.33398 -44 -11.001s-18.333 -17.667 -21 -27l-3 -14l-55 8c16 72 58.333 106.333 127 103c28.667 -1.33301 56.334 -14 83.001 -38s47.667 -36.333 63 -37
c18 -1.33301 32.667 2.33398 44 11.001s18.333 17.667 21 27l3 14l55 -8c-16 -72 -58.333 -106.333 -127 -103zM52 142c0 50.667 16.834 87.834 50.501 111.501s84.167 40.5 151.5 50.5l182 27v25c0 44 -13 75.167 -39 93.5s-64.333 28.166 -115 29.499
c-42.667 0.666992 -74.5 -7.5 -95.5 -24.5s-35.5 -43.167 -43.5 -78.5l-69 10c10.667 50 31.667 88.167 63 114.5s79.666 39.5 144.999 39.5c69.333 0 123 -15.833 161 -47.5s57 -78.5 57 -140.5v-228l6 -124h-58l-12 91c-16 -30 -42.667 -54.333 -80 -73s-77 -28 -119 -28
c-60.667 0 -106.667 13.167 -138 39.5s-47 63.833 -47 112.5zM120.001 142c0 -60.667 39 -91.001 117 -91.001c53.333 0 99.5 16.333 138.5 49s59.167 67.334 60.5 104.001v70l-183 -29c-44 -7.33301 -77.167 -17.833 -99.5 -31.5s-33.5 -37.5 -33.5 -71.5z" />
    <glyph glyph-name="adieresis" unicode="&#xe4;" horiz-adv-x="570" 
d="M232 739v-86h-86v86h86zM418 739v-86h-86v86h86zM52 142c0 50.667 16.834 87.834 50.501 111.501s84.167 40.5 151.5 50.5l182 27v25c0 44 -13 75.167 -39 93.5s-64.333 28.166 -115 29.499c-42.667 0.666992 -74.5 -7.5 -95.5 -24.5s-35.5 -43.167 -43.5 -78.5l-69 10
c10.667 50 31.667 88.167 63 114.5s79.666 39.5 144.999 39.5c69.333 0 123 -15.833 161 -47.5s57 -78.5 57 -140.5v-228l6 -124h-58l-12 91c-16 -30 -42.667 -54.333 -80 -73s-77 -28 -119 -28c-60.667 0 -106.667 13.167 -138 39.5s-47 63.833 -47 112.5zM120.001 142
c0 -60.667 39 -91.001 117 -91.001c53.333 0 99.5 16.333 138.5 49s59.167 67.334 60.5 104.001v70l-183 -29c-44 -7.33301 -77.167 -17.833 -99.5 -31.5s-33.5 -37.5 -33.5 -71.5z" />
    <glyph glyph-name="aring" unicode="&#xe5;" horiz-adv-x="570" 
d="M168 696c0 34 10.167 61.5 30.5 82.5s48.166 31.5 83.499 31.5s63.166 -10.5 83.499 -31.5s30.5 -48.5 30.5 -82.5s-10.167 -61.5 -30.5 -82.5s-48.166 -31.5 -83.499 -31.5s-63.166 10.5 -83.499 31.5s-30.5 48.5 -30.5 82.5zM226 696c0 -17.333 5 -31.333 15 -42
s23.667 -16 41 -16s31 5.33301 41 16s15 24.667 15 42s-5 31.333 -15 42s-23.667 16 -41 16s-31 -5.33301 -41 -16s-15 -24.667 -15 -42zM52 142c0 50.667 16.834 87.834 50.501 111.501s84.167 40.5 151.5 50.5l182 27v25c0 44 -13 75.167 -39 93.5
s-64.333 28.166 -115 29.499c-42.667 0.666992 -74.5 -7.5 -95.5 -24.5s-35.5 -43.167 -43.5 -78.5l-69 10c10.667 50 31.667 88.167 63 114.5s79.666 39.5 144.999 39.5c69.333 0 123 -15.833 161 -47.5s57 -78.5 57 -140.5v-228l6 -124h-58l-12 91
c-16 -30 -42.667 -54.333 -80 -73s-77 -28 -119 -28c-60.667 0 -106.667 13.167 -138 39.5s-47 63.833 -47 112.5zM120.001 142c0 -60.667 39 -91.001 117 -91.001c53.333 0 99.5 16.333 138.5 49s59.167 67.334 60.5 104.001v70l-183 -29
c-44 -7.33301 -77.167 -17.833 -99.5 -31.5s-33.5 -37.5 -33.5 -71.5z" />
    <glyph glyph-name="ae" unicode="&#xe6;" horiz-adv-x="954" 
d="M675 540c149.333 0 224.004 -91.333 224.004 -274v-27h-395c2.66699 -64.667 19.167 -112.167 49.5 -142.5s71.166 -45.5 122.499 -45.5c82.667 -2 132.334 32 149.001 102l71 -9c-8.66699 -45.333 -31.167 -82.333 -67.5 -111s-87.5 -43 -153.5 -43
c-102.667 0 -173.334 42 -212.001 126c-24.667 -45.333 -57.334 -77.666 -98.001 -96.999s-83.334 -29 -128.001 -29c-60.667 0 -106.667 13.167 -138 39.5s-47 63.833 -47 112.5c0 52 19.167 91 57.5 117s89.833 39 154.5 39h170v58c0 44 -12.667 75.167 -38 93.5
s-63.333 28.166 -114 29.499c-42.667 0.666992 -74.5 -7.5 -95.5 -24.5s-35.5 -43.167 -43.5 -78.5l-69 10c10.667 50 31.667 88.167 63 114.5s79.666 39.5 144.999 39.5c98.667 0 164.334 -32.333 197.001 -97c43.333 64.667 108.666 97 195.999 97zM675.004 480
c-50.667 0 -91 -14.833 -121 -44.5s-46.667 -75.5 -50 -137.5h323c-2 123.333 -52.667 184 -152 182zM122.004 142c0 -60 38.335 -90 115.002 -90c53.333 0 99.166 16.167 137.499 48.5s58.166 66.833 59.499 103.5v35l-171 1c-94 0 -141 -32.667 -141 -98z" />
    <glyph glyph-name="ccedilla" unicode="&#xe7;" horiz-adv-x="550" 
d="M119 265c0 -67.333 14.665 -119.499 43.998 -156.499s70.333 -56.167 123 -57.5c81.333 -2 130 32 146 102l71 -9c-20 -96.667 -84.667 -147.667 -194 -153l-7 -25c58 -14 87 -45 87 -93c0 -28 -10 -48.833 -30 -62.5s-46.333 -20.5 -79 -20.5s-59 5.66699 -79 17l15 44
c18 -8 36.667 -12.333 56 -13c39.333 -0.666992 59 10.666 59 33.999c0 29.333 -30 47 -90 53l22 66c-67.333 5.33301 -119.666 31.833 -156.999 79.5s-56 112.5 -56 194.5c0 86.667 20.833 154.167 62.5 202.5s99.834 72.5 174.501 72.5
c122.667 0 194.667 -51.333 216 -154l-71 -9c-16 70 -64.667 104 -146 102c-52.667 -1.33301 -93.667 -20.5 -123 -57.5s-44 -89.167 -44 -156.5z" />
    <glyph glyph-name="egrave" unicode="&#xe8;" horiz-adv-x="570" 
d="M291 540c149.333 0 224 -91.333 224 -274v-27h-395c2.66699 -64.667 19.167 -112.167 49.5 -142.5s71.166 -45.5 122.499 -45.5c82.667 -2 132.334 32 149.001 102l71 -9c-8.66699 -45.333 -31.167 -82.333 -67.5 -111s-87.5 -43 -153.5 -43
c-75.333 0 -134.333 23.333 -177 70s-64 115 -64 205s21.333 158.333 64 205s101.667 70 177 70zM291 480c-50.667 0 -91 -14.833 -121 -44.5s-46.667 -75.5 -50 -137.5h323c-2 123.333 -52.667 184 -152 182zM155 800h82l94 -208h-65z" />
    <glyph glyph-name="eacute" unicode="&#xe9;" horiz-adv-x="570" 
d="M291 540c149.333 0 224 -91.333 224 -274v-27h-395c2.66699 -64.667 19.167 -112.167 49.5 -142.5s71.166 -45.5 122.499 -45.5c82.667 -2 132.334 32 149.001 102l71 -9c-8.66699 -45.333 -31.167 -82.333 -67.5 -111s-87.5 -43 -153.5 -43
c-75.333 0 -134.333 23.333 -177 70s-64 115 -64 205s21.333 158.333 64 205s101.667 70 177 70zM291 480c-50.667 0 -91 -14.833 -121 -44.5s-46.667 -75.5 -50 -137.5h323c-2 123.333 -52.667 184 -152 182zM355 800h82l-111 -208h-65z" />
    <glyph glyph-name="ecircumflex" unicode="&#xea;" horiz-adv-x="570" 
d="M291 540c149.333 0 224 -91.333 224 -274v-27h-395c2.66699 -64.667 19.167 -112.167 49.5 -142.5s71.166 -45.5 122.499 -45.5c82.667 -2 132.334 32 149.001 102l71 -9c-8.66699 -45.333 -31.167 -82.333 -67.5 -111s-87.5 -43 -153.5 -43
c-75.333 0 -134.333 23.333 -177 70s-64 115 -64 205s21.333 158.333 64 205s101.667 70 177 70zM291 480c-50.667 0 -91 -14.833 -121 -44.5s-46.667 -75.5 -50 -137.5h323c-2 123.333 -52.667 184 -152 182zM475 592h-67l-117 150l-117 -150h-67l150 208h68z" />
    <glyph glyph-name="edieresis" unicode="&#xeb;" horiz-adv-x="570" 
d="M291 540c149.333 0 224 -91.333 224 -274v-27h-395c2.66699 -64.667 19.167 -112.167 49.5 -142.5s71.166 -45.5 122.499 -45.5c82.667 -2 132.334 32 149.001 102l71 -9c-8.66699 -45.333 -31.167 -82.333 -67.5 -111s-87.5 -43 -153.5 -43
c-75.333 0 -134.333 23.333 -177 70s-64 115 -64 205s21.333 158.333 64 205s101.667 70 177 70zM291 480c-50.667 0 -91 -14.833 -121 -44.5s-46.667 -75.5 -50 -137.5h323c-2 123.333 -52.667 184 -152 182zM241 739v-86h-86v86h86zM427 739v-86h-86v86h86z" />
    <glyph glyph-name="igrave" unicode="&#xec;" horiz-adv-x="250" 
d="M92 0v530h66v-530h-66zM-19 800h82l94 -208h-65z" />
    <glyph glyph-name="iacute" unicode="&#xed;" horiz-adv-x="250" 
d="M92 0v530h66v-530h-66zM187 800h82l-111 -208h-65z" />
    <glyph glyph-name="icircumflex" unicode="&#xee;" horiz-adv-x="250" 
d="M92 0v530h66v-530h-66zM309 592h-67l-117 150l-117 -150h-67l150 208h68z" />
    <glyph glyph-name="idieresis" unicode="&#xef;" horiz-adv-x="250" 
d="M92 0v530h66v-530h-66zM75 739v-86h-86v86h86zM261 739v-86h-86v86h86z" />
    <glyph glyph-name="eth" unicode="&#xf0;" horiz-adv-x="578" 
d="M469 726l-83.001 -31.999c94.667 -100 142 -243 142 -429c0 -90 -21 -158.333 -63 -205s-100.667 -70 -176 -70s-134 23.333 -176 70s-63 115 -63 205s21 158.333 63 205s100.667 70 176 70c56 0 104.667 -17.333 146 -52c-26 74.667 -62.667 135.667 -110 183l-156 -60
v54l112 43c-44.667 33.333 -102 64 -172 92h126c40.667 -18.667 77.334 -41.334 110.001 -68.001l124 48v-54zM288.999 478.001c-113.333 0 -170 -71 -170 -213s56.667 -213 170 -213s170 71 170 213s-56.667 213 -170 213z" />
    <glyph glyph-name="ntilde" unicode="&#xf1;" horiz-adv-x="574" 
d="M373 630c-28.667 1.33301 -56.334 14 -83.001 38s-47.667 36.333 -63 37c-18 1.33301 -32.667 -2.33398 -44 -11.001s-18.333 -17.667 -21 -27l-3 -14l-55 8c16 72 58.333 106.333 127 103c28.667 -1.33301 56.334 -14 83.001 -38s47.667 -36.333 63 -37
c18 -1.33301 32.667 2.33398 44 11.001s18.333 17.667 21 27l3 14l55 -8c-16 -72 -58.333 -106.333 -127 -103zM124 530l12 -90c18 30 43 54.167 75 72.5s67.333 27.5 106 27.5c56.667 0 103.5 -15.167 140.5 -45.5s55.5 -71.833 55.5 -124.5v-370h-66v355
c0 38.667 -12.667 68.667 -38 90s-59.333 32 -102 32c-46.667 0 -86.5 -16 -119.5 -48s-50.167 -66.333 -51.5 -103v-326h-66v407l-6 123h60z" />
    <glyph glyph-name="ograve" unicode="&#xf2;" horiz-adv-x="578" 
d="M289 -10c-75.333 0 -134 23.333 -176 70s-63 115 -63 205s21 158.333 63 205s100.667 70 176 70s134 -23.333 176 -70s63 -115 63 -205s-21 -158.333 -63 -205s-100.667 -70 -176 -70zM289 478c-113.333 0 -170 -71 -170 -213s56.667 -213 170 -213s170 71 170 213
s-56.667 213 -170 213zM154 800h82l94 -208h-65z" />
    <glyph glyph-name="oacute" unicode="&#xf3;" horiz-adv-x="578" 
d="M289 -10c-75.333 0 -134 23.333 -176 70s-63 115 -63 205s21 158.333 63 205s100.667 70 176 70s134 -23.333 176 -70s63 -115 63 -205s-21 -158.333 -63 -205s-100.667 -70 -176 -70zM289 478c-113.333 0 -170 -71 -170 -213s56.667 -213 170 -213s170 71 170 213
s-56.667 213 -170 213zM353 800h82l-111 -208h-65z" />
    <glyph glyph-name="ocircumflex" unicode="&#xf4;" horiz-adv-x="578" 
d="M289 -10c-75.333 0 -134 23.333 -176 70s-63 115 -63 205s21 158.333 63 205s100.667 70 176 70s134 -23.333 176 -70s63 -115 63 -205s-21 -158.333 -63 -205s-100.667 -70 -176 -70zM289 478c-113.333 0 -170 -71 -170 -213s56.667 -213 170 -213s170 71 170 213
s-56.667 213 -170 213zM473 592h-67l-117 150l-117 -150h-67l150 208h68z" />
    <glyph glyph-name="otilde" unicode="&#xf5;" horiz-adv-x="578" 
d="M289 -10c-75.333 0 -134 23.333 -176 70s-63 115 -63 205s21 158.333 63 205s100.667 70 176 70s134 -23.333 176 -70s63 -115 63 -205s-21 -158.333 -63 -205s-100.667 -70 -176 -70zM289 478c-113.333 0 -170 -71 -170 -213s56.667 -213 170 -213s170 71 170 213
s-56.667 213 -170 213zM360 630c-28.667 1.33301 -56.334 14 -83.001 38s-47.667 36.333 -63 37c-18 1.33301 -32.667 -2.33398 -44 -11.001s-18 -17.667 -20 -27l-4 -14l-55 8c16 72 58.333 106.333 127 103c28.667 -1.33301 56.334 -14 83.001 -38s47.667 -36.333 63 -37
c18 -1.33301 32.667 2.33398 44 11.001s18 17.667 20 27l4 14l55 -8c-16 -72 -58.333 -106.333 -127 -103z" />
    <glyph glyph-name="odieresis" unicode="&#xf6;" horiz-adv-x="578" 
d="M289 -10c-75.333 0 -134 23.333 -176 70s-63 115 -63 205s21 158.333 63 205s100.667 70 176 70s134 -23.333 176 -70s63 -115 63 -205s-21 -158.333 -63 -205s-100.667 -70 -176 -70zM289 478c-113.333 0 -170 -71 -170 -213s56.667 -213 170 -213s170 71 170 213
s-56.667 213 -170 213zM239 739v-86h-86v86h86zM425 739v-86h-86v86h86z" />
    <glyph glyph-name="divide" unicode="&#xf7;" horiz-adv-x="700" 
d="M620 358h-540v64h540v-64zM393 220v-86h-86v86h86zM393 646v-86h-86v86h86z" />
    <glyph glyph-name="oslash" unicode="&#xf8;" horiz-adv-x="578" 
d="M289 -10c-48.667 0 -91 10 -127 30l-13 -20h-68l36 55c-44.667 48 -67 118 -67 210c0 90 21 158.333 63 205s100.667 70 176 70c50 0 92.333 -10.333 127 -31l14 21h68l-37 -56c44.667 -48 67 -117.667 67 -209c0 -90 -21 -158.333 -63 -205s-100.667 -70 -176 -70z
M289 478c-113.333 0 -169.999 -71 -169.999 -213c0 -66 12.333 -116.333 37 -151l225 341c-24.667 15.333 -55.334 23 -92.001 23zM459.001 265c0 65.333 -12.333 115.333 -37 150l-224 -341c24.667 -14.667 55 -22 91 -22c113.333 0 170 71 170 213z" />
    <glyph glyph-name="ugrave" unicode="&#xf9;" horiz-adv-x="574" 
d="M146 800h82l94 -208h-65zM450 0l-12 90c-18 -30 -43 -54.167 -75 -72.5s-67.333 -27.5 -106 -27.5c-56.667 0 -103.5 15.167 -140.5 45.5s-55.5 71.833 -55.5 124.5v370h66v-355c0 -38.667 12.667 -68.667 38 -90s59.333 -32 102 -32c46.667 0 86.5 16 119.5 48
s50.167 66.333 51.5 103v326h66v-407l6 -123h-60z" />
    <glyph glyph-name="uacute" unicode="&#xfa;" horiz-adv-x="574" 
d="M346 800h82l-111 -208h-65zM450 0l-12 90c-18 -30 -43 -54.167 -75 -72.5s-67.333 -27.5 -106 -27.5c-56.667 0 -103.5 15.167 -140.5 45.5s-55.5 71.833 -55.5 124.5v370h66v-355c0 -38.667 12.667 -68.667 38 -90s59.333 -32 102 -32c46.667 0 86.5 16 119.5 48
s50.167 66.333 51.5 103v326h66v-407l6 -123h-60z" />
    <glyph glyph-name="ucircumflex" unicode="&#xfb;" horiz-adv-x="574" 
d="M466 592h-67l-117 150l-117 -150h-67l150 208h68zM450 0l-12 90c-18 -30 -43 -54.167 -75 -72.5s-67.333 -27.5 -106 -27.5c-56.667 0 -103.5 15.167 -140.5 45.5s-55.5 71.833 -55.5 124.5v370h66v-355c0 -38.667 12.667 -68.667 38 -90s59.333 -32 102 -32
c46.667 0 86.5 16 119.5 48s50.167 66.333 51.5 103v326h66v-407l6 -123h-60z" />
    <glyph glyph-name="udieresis" unicode="&#xfc;" horiz-adv-x="574" 
d="M232 739v-86h-86v86h86zM418 739v-86h-86v86h86zM450 0l-12 90c-18 -30 -43 -54.167 -75 -72.5s-67.333 -27.5 -106 -27.5c-56.667 0 -103.5 15.167 -140.5 45.5s-55.5 71.833 -55.5 124.5v370h66v-355c0 -38.667 12.667 -68.667 38 -90s59.333 -32 102 -32
c46.667 0 86.5 16 119.5 48s50.167 66.333 51.5 103v326h66v-407l6 -123h-60z" />
    <glyph glyph-name="yacute" unicode="&#xfd;" horiz-adv-x="540" 
d="M522 530l-209 -494l-96 -236h-77l93 220l-215 510h78l115 -291l59 -152l59 152l116 291h77zM334 800h82l-111 -208h-65z" />
    <glyph glyph-name="thorn" unicode="&#xfe;" horiz-adv-x="599" 
d="M136 326v-122c1.33301 -37.333 18.333 -71.833 51 -103.5s74.334 -47.5 125.001 -47.5c52.667 0 93.667 18.5 123 55.5s44 89.167 44 156.5s-14.667 119.5 -44 156.5s-70.333 55.5 -123 55.5c-50.667 0 -92.334 -15.833 -125.001 -47.5s-49.667 -66.167 -51 -103.5z
M70 -200v1000h66v-360c18 30 42.667 54.167 74 72.5s66 27.5 104 27.5c74 0 131.667 -24.167 173 -72.5s62 -115.833 62 -202.5s-20.667 -154.167 -62 -202.5s-99 -72.5 -173 -72.5c-38 0 -72.667 9.16699 -104 27.5s-56 42.5 -74 72.5v-290h-66z" />
    <glyph glyph-name="ydieresis" unicode="&#xff;" horiz-adv-x="540" 
d="M522 530l-209 -494l-96 -236h-77l93 220l-215 510h78l115 -291l59 -152l59 152l116 291h77zM220 739v-86h-86v86h86zM406 739v-86h-86v86h86z" />
    <glyph glyph-name="Amacron" unicode="&#x100;" horiz-adv-x="720" 
d="M21 0l301 790h76l301 -790h-77l-92 247h-340l-92 -247h-77zM360 712l-71 -198l-75 -201h291l-74 201zM224 894v64h272v-64h-272z" />
    <glyph glyph-name="amacron" unicode="&#x101;" horiz-adv-x="570" 
d="M146 664v64h272v-64h-272zM52 142c0 50.667 16.834 87.834 50.501 111.501s84.167 40.5 151.5 50.5l182 27v25c0 44 -13 75.167 -39 93.5s-64.333 28.166 -115 29.499c-42.667 0.666992 -74.5 -7.5 -95.5 -24.5s-35.5 -43.167 -43.5 -78.5l-69 10
c10.667 50 31.667 88.167 63 114.5s79.666 39.5 144.999 39.5c69.333 0 123 -15.833 161 -47.5s57 -78.5 57 -140.5v-228l6 -124h-58l-12 91c-16 -30 -42.667 -54.333 -80 -73s-77 -28 -119 -28c-60.667 0 -106.667 13.167 -138 39.5s-47 63.833 -47 112.5zM120.001 142
c0 -60.667 39 -91.001 117 -91.001c53.333 0 99.5 16.333 138.5 49s59.167 67.334 60.5 104.001v70l-183 -29c-44 -7.33301 -77.167 -17.833 -99.5 -31.5s-33.5 -37.5 -33.5 -71.5z" />
    <glyph glyph-name="Abreve" unicode="&#x102;" horiz-adv-x="720" 
d="M21 0l301 790h76l301 -790h-77l-92 247h-340l-92 -247h-77zM360 712l-71 -198l-75 -201h291l-74 201zM482 1030h56c0 -66.667 -13.333 -116.334 -40 -149.001s-72.667 -49 -138 -49s-111.333 16.333 -138 49s-40 82.334 -40 149.001h56c0 -52 9.5 -88.667 28.5 -110
s50.167 -32 93.5 -32s74.5 10.667 93.5 32s28.5 58 28.5 110z" />
    <glyph glyph-name="abreve" unicode="&#x103;" horiz-adv-x="570" 
d="M404 800h56c0 -66.667 -13.333 -116.334 -40 -149.001s-72.667 -49 -138 -49s-111.333 16.333 -138 49s-40 82.334 -40 149.001h56c0 -52 9.5 -88.667 28.5 -110s50.167 -32 93.5 -32s74.5 10.667 93.5 32s28.5 58 28.5 110zM52 142
c0 50.667 16.834 87.834 50.501 111.501s84.167 40.5 151.5 50.5l182 27v25c0 44 -13 75.167 -39 93.5s-64.333 28.166 -115 29.499c-42.667 0.666992 -74.5 -7.5 -95.5 -24.5s-35.5 -43.167 -43.5 -78.5l-69 10c10.667 50 31.667 88.167 63 114.5s79.666 39.5 144.999 39.5
c69.333 0 123 -15.833 161 -47.5s57 -78.5 57 -140.5v-228l6 -124h-58l-12 91c-16 -30 -42.667 -54.333 -80 -73s-77 -28 -119 -28c-60.667 0 -106.667 13.167 -138 39.5s-47 63.833 -47 112.5zM120.001 142c0 -60.667 39 -91.001 117 -91.001
c53.333 0 99.5 16.333 138.5 49s59.167 67.334 60.5 104.001v70l-183 -29c-44 -7.33301 -77.167 -17.833 -99.5 -31.5s-33.5 -37.5 -33.5 -71.5z" />
    <glyph glyph-name="Aogonek" unicode="&#x104;" horiz-adv-x="720" 
d="M21 0l301.001 790.001h76l301 -790c-36 -5.33301 -67.333 -18.5 -94 -39.5s-40 -44.167 -40 -69.5c0 -30.667 18.667 -46 56 -46c10.667 0 22 1.83301 34 5.5s21.333 7.16699 28 10.5l10 5l17 -51c-26.667 -16.667 -60 -25 -100 -25c-30 0 -55.833 7.66699 -77.5 23
s-32.5 38.666 -32.5 69.999c0 26 10.167 51 30.5 75s48.166 44.667 83.499 62l-84 227h-340l-92 -247h-77zM360.001 712.001l-71 -198l-75 -201h291l-74 201z" />
    <glyph glyph-name="aogonek" unicode="&#x105;" horiz-adv-x="570" 
d="M500 124l6.00293 -123.999c-32 -10.667 -56.333 -26 -73 -46s-25 -41 -25 -63c0 -12.667 4.16699 -23.5 12.5 -32.5s21.166 -13.5 38.499 -13.5c10.667 0 22 1.83301 34 5.5s21.333 7.16699 28 10.5l10 5l17 -51c-26.667 -16.667 -60 -25 -100 -25
c-28 0 -52.5 8.16699 -73.5 24.5s-31.5 38.166 -31.5 65.499c0 64 34 112.333 102 145l-11 82c-19.333 -38 -46.333 -67 -81 -87s-73.334 -30 -116.001 -30c-60.667 0 -106.667 13.167 -138 39.5s-47 63.833 -47 112.5c0 50.667 16.833 87.834 50.5 111.501
s84.167 40.5 151.5 50.5l182 27v25c0 44 -13 75.167 -39 93.5s-64.333 28.166 -115 29.499c-42.667 0.666992 -74.5 -7.5 -95.5 -24.5s-35.5 -43.167 -43.5 -78.5l-69 10c10.667 50 31.667 88.167 63 114.5s79.666 39.5 144.999 39.5c69.333 0 123 -15.833 161 -47.5
s57 -78.5 57 -140.5v-228zM120.003 142.001c0 -60.667 39.001 -90.999 117.001 -90.999c53.333 0 98.666 17.667 135.999 53s58.333 74.666 63 117.999v52l-183 -29c-44 -7.33301 -77.167 -17.833 -99.5 -31.5s-33.5 -37.5 -33.5 -71.5z" />
    <glyph glyph-name="Cacute" unicode="&#x106;" horiz-adv-x="750" 
d="M139 390c0 -223.333 85.333 -335 256 -335c67.333 0 118.333 11.667 153 35s57 60 67 110l72 -6c-26.667 -136 -124 -204 -292 -204c-111.333 0 -194.166 35 -248.499 105s-81.5 168.333 -81.5 295s27.167 225 81.5 295s137.166 105 248.499 105
c168 0 265.333 -68 292 -204l-72 -6c-10 50 -32.333 86.667 -67 110s-85.667 35 -153 35c-170.667 0 -256 -111.667 -256 -335zM449 1030h82l-111 -208h-65z" />
    <glyph glyph-name="cacute" unicode="&#x107;" horiz-adv-x="550" 
d="M119 265c0 -67.333 14.667 -119.5 44 -156.5s70.333 -56.167 123 -57.5c81.333 -2 130 32 146 102l71 -9c-21.333 -102.667 -93.333 -154 -216 -154c-74.667 0 -132.834 24.167 -174.501 72.5s-62.5 115.833 -62.5 202.5s20.833 154.167 62.5 202.5
s99.834 72.5 174.501 72.5c122.667 0 194.667 -51.333 216 -154l-71 -9c-16 70 -64.667 104 -146 102c-52.667 -1.33301 -93.667 -20.5 -123 -57.5s-44 -89.167 -44 -156.5zM351 800h82l-111 -208h-65z" />
    <glyph glyph-name="Ccircumflex" unicode="&#x108;" horiz-adv-x="750" 
d="M139 390c0 -223.333 85.333 -335 256 -335c67.333 0 118.333 11.667 153 35s57 60 67 110l72 -6c-26.667 -136 -124 -204 -292 -204c-111.333 0 -194.166 35 -248.499 105s-81.5 168.333 -81.5 295s27.167 225 81.5 295s137.166 105 248.499 105
c168 0 265.333 -68 292 -204l-72 -6c-10 50 -32.333 86.667 -67 110s-85.667 35 -153 35c-170.667 0 -256 -111.667 -256 -335zM569 822h-67l-117 150l-117 -150h-67l150 208h68z" />
    <glyph glyph-name="ccircumflex" unicode="&#x109;" horiz-adv-x="550" 
d="M119 265c0 -67.333 14.667 -119.5 44 -156.5s70.333 -56.167 123 -57.5c81.333 -2 130 32 146 102l71 -9c-21.333 -102.667 -93.333 -154 -216 -154c-74.667 0 -132.834 24.167 -174.501 72.5s-62.5 115.833 -62.5 202.5s20.833 154.167 62.5 202.5
s99.834 72.5 174.501 72.5c122.667 0 194.667 -51.333 216 -154l-71 -9c-16 70 -64.667 104 -146 102c-52.667 -1.33301 -93.667 -20.5 -123 -57.5s-44 -89.167 -44 -156.5zM471 592h-67l-117 150l-117 -150h-67l150 208h68z" />
    <glyph glyph-name="Cdotaccent" unicode="&#x10a;" horiz-adv-x="750" 
d="M139 390c0 -223.333 85.333 -335 256 -335c67.333 0 118.333 11.667 153 35s57 60 67 110l72 -6c-26.667 -136 -124 -204 -292 -204c-111.333 0 -194.166 35 -248.499 105s-81.5 168.333 -81.5 295s27.167 225 81.5 295s137.166 105 248.499 105
c168 0 265.333 -68 292 -204l-72 -6c-10 50 -32.333 86.667 -67 110s-85.667 35 -153 35c-170.667 0 -256 -111.667 -256 -335zM428 969v-86h-86v86h86z" />
    <glyph glyph-name="cdotaccent" unicode="&#x10b;" horiz-adv-x="550" 
d="M119 265c0 -67.333 14.667 -119.5 44 -156.5s70.333 -56.167 123 -57.5c81.333 -2 130 32 146 102l71 -9c-21.333 -102.667 -93.333 -154 -216 -154c-74.667 0 -132.834 24.167 -174.501 72.5s-62.5 115.833 -62.5 202.5s20.833 154.167 62.5 202.5
s99.834 72.5 174.501 72.5c122.667 0 194.667 -51.333 216 -154l-71 -9c-16 70 -64.667 104 -146 102c-52.667 -1.33301 -93.667 -20.5 -123 -57.5s-44 -89.167 -44 -156.5zM330 739v-86h-86v86h86z" />
    <glyph glyph-name="Ccaron" unicode="&#x10c;" horiz-adv-x="750" 
d="M139 390c0 -223.333 85.333 -335 256 -335c67.333 0 118.333 11.667 153 35s57 60 67 110l72 -6c-26.667 -136 -124 -204 -292 -204c-111.333 0 -194.166 35 -248.499 105s-81.5 168.333 -81.5 295s27.167 225 81.5 295s137.166 105 248.499 105
c168 0 265.333 -68 292 -204l-72 -6c-10 50 -32.333 86.667 -67 110s-85.667 35 -153 35c-170.667 0 -256 -111.667 -256 -335zM501 1030h67l-150 -208h-68l-150 208h67l117 -150z" />
    <glyph glyph-name="ccaron" unicode="&#x10d;" horiz-adv-x="550" 
d="M119 265c0 -67.333 14.667 -119.5 44 -156.5s70.333 -56.167 123 -57.5c81.333 -2 130 32 146 102l71 -9c-21.333 -102.667 -93.333 -154 -216 -154c-74.667 0 -132.834 24.167 -174.501 72.5s-62.5 115.833 -62.5 202.5s20.833 154.167 62.5 202.5
s99.834 72.5 174.501 72.5c122.667 0 194.667 -51.333 216 -154l-71 -9c-16 70 -64.667 104 -146 102c-52.667 -1.33301 -93.667 -20.5 -123 -57.5s-44 -89.167 -44 -156.5zM403 800h67l-150 -208h-68l-150 208h67l117 -150z" />
    <glyph glyph-name="Dcaron" unicode="&#x10e;" horiz-adv-x="765" 
d="M348 0l-258 0.00195312v780h258c116.667 0 204.5 -31.833 263.5 -95.5s88.5 -161.834 88.5 -294.501s-29.5 -230.834 -88.5 -294.501s-146.833 -95.5 -263.5 -95.5zM160 66.002h188c185.333 0 278 108 278 324s-92.667 324 -278 324h-188v-648zM455 1030h67l-150 -208
h-68l-150 208h67l117 -150z" />
    <glyph glyph-name="dcaron" unicode="&#x10f;" horiz-adv-x="599" 
d="M633 800h79l-75 -208h-61zM463 440v360h66v-676l6 -124h-60l-12 91c-18 -30.667 -42.667 -55.167 -74 -73.5s-66 -27.5 -104 -27.5c-74 0 -131.667 24.167 -173 72.5s-62 115.833 -62 202.5s20.667 154.167 62 202.5s99 72.5 173 72.5c38 0 72.667 -9.16699 104 -27.5
s56 -42.5 74 -72.5zM120 265c0 -68 14.667 -120.333 44 -157s70.333 -55 123 -55c50.667 0 92.334 15.833 125.001 47.5s49.667 66.167 51 103.5v122c-1.33301 37.333 -18.333 71.833 -51 103.5s-74.334 47.5 -125.001 47.5c-52.667 0 -93.667 -18.5 -123 -55.5
s-44 -89.167 -44 -156.5z" />
    <glyph glyph-name="Dcroat" unicode="&#x110;" horiz-adv-x="820" 
d="M403 0l-258 0.00195312v367h-120v66h120v347h258c116.667 0 204.5 -31.833 263.5 -95.5s88.5 -161.834 88.5 -294.501s-29.5 -230.834 -88.5 -294.501s-146.833 -95.5 -263.5 -95.5zM215 66.002h188c185.333 0 278 108 278 324s-92.667 324 -278 324h-188v-281h238v-66
h-238v-301z" />
    <glyph glyph-name="dcroat" unicode="&#x111;" horiz-adv-x="629" 
d="M640 627h-111v-503l6 -124h-60l-12 91c-18 -30.667 -42.667 -55.167 -74 -73.5s-66 -27.5 -104 -27.5c-74 0 -131.667 24.167 -173 72.5s-62 115.833 -62 202.5s20.667 154.167 62 202.5s99 72.5 173 72.5c38 0 72.667 -9.16699 104 -27.5s56 -42.5 74 -72.5v187h-141v62
h141v111h66v-111h111v-62zM120 265c0 -68 14.667 -120.333 44 -157s70.333 -55 123 -55c50.667 0 92.334 15.833 125.001 47.5s49.667 66.167 51 103.5v122c-1.33301 37.333 -18.333 71.833 -51 103.5s-74.334 47.5 -125.001 47.5c-52.667 0 -93.667 -18.5 -123 -55.5
s-44 -89.167 -44 -156.5z" />
    <glyph glyph-name="Emacron" unicode="&#x112;" horiz-adv-x="695" 
d="M90 780h520v-66h-450v-281h410v-66h-410v-301h470v-66h-540v780zM214 894v64h272v-64h-272z" />
    <glyph glyph-name="emacron" unicode="&#x113;" horiz-adv-x="570" 
d="M291 540c149.333 0 224 -91.333 224 -274v-27h-395c2.66699 -64.667 19.167 -112.167 49.5 -142.5s71.166 -45.5 122.499 -45.5c82.667 -2 132.334 32 149.001 102l71 -9c-8.66699 -45.333 -31.167 -82.333 -67.5 -111s-87.5 -43 -153.5 -43
c-75.333 0 -134.333 23.333 -177 70s-64 115 -64 205s21.333 158.333 64 205s101.667 70 177 70zM291 480c-50.667 0 -91 -14.833 -121 -44.5s-46.667 -75.5 -50 -137.5h323c-2 123.333 -52.667 184 -152 182zM155 664v64h272v-64h-272z" />
    <glyph glyph-name="Ebreve" unicode="&#x114;" horiz-adv-x="695" 
d="M90 780h520v-66h-450v-281h410v-66h-410v-301h470v-66h-540v780zM472 1030h56c0 -66.667 -13.333 -116.334 -40 -149.001s-72.667 -49 -138 -49s-111.333 16.333 -138 49s-40 82.334 -40 149.001h56c0 -52 9.5 -88.667 28.5 -110s50.167 -32 93.5 -32
s74.5 10.667 93.5 32s28.5 58 28.5 110z" />
    <glyph glyph-name="ebreve" unicode="&#x115;" horiz-adv-x="570" 
d="M291 540c149.333 0 224 -91.333 224 -274v-27h-395c2.66699 -64.667 19.167 -112.167 49.5 -142.5s71.166 -45.5 122.499 -45.5c82.667 -2 132.334 32 149.001 102l71 -9c-8.66699 -45.333 -31.167 -82.333 -67.5 -111s-87.5 -43 -153.5 -43
c-75.333 0 -134.333 23.333 -177 70s-64 115 -64 205s21.333 158.333 64 205s101.667 70 177 70zM291 480c-50.667 0 -91 -14.833 -121 -44.5s-46.667 -75.5 -50 -137.5h323c-2 123.333 -52.667 184 -152 182zM413 800h56c0 -66.667 -13.333 -116.334 -40 -149.001
s-72.667 -49 -138 -49s-111.333 16.333 -138 49s-40 82.334 -40 149.001h56c0 -52 9.5 -88.667 28.5 -110s50.167 -32 93.5 -32s74.5 10.667 93.5 32s28.5 58 28.5 110z" />
    <glyph glyph-name="Edotaccent" unicode="&#x116;" horiz-adv-x="695" 
d="M90 780h520v-66h-450v-281h410v-66h-410v-301h470v-66h-540v780zM393 969v-86h-86v86h86z" />
    <glyph glyph-name="edotaccent" unicode="&#x117;" horiz-adv-x="570" 
d="M291 540c149.333 0 224 -91.333 224 -274v-27h-395c2.66699 -64.667 19.167 -112.167 49.5 -142.5s71.166 -45.5 122.499 -45.5c82.667 -2 132.334 32 149.001 102l71 -9c-8.66699 -45.333 -31.167 -82.333 -67.5 -111s-87.5 -43 -153.5 -43
c-75.333 0 -134.333 23.333 -177 70s-64 115 -64 205s21.333 158.333 64 205s101.667 70 177 70zM291 480c-50.667 0 -91 -14.833 -121 -44.5s-46.667 -75.5 -50 -137.5h323c-2 123.333 -52.667 184 -152 182zM334 739v-86h-86v86h86z" />
    <glyph glyph-name="Eogonek" unicode="&#x118;" horiz-adv-x="695" 
d="M90 780l520 0.000976562v-66h-450v-281h410v-66h-410v-301h470v-66c-36 -5.33301 -67.333 -18.5 -94 -39.5s-40 -44.167 -40 -69.5c0 -30.667 18.667 -46 56 -46c10.667 0 22 1.83301 34 5.5s21.333 7.16699 28 10.5l10 5l17 -51c-26.667 -16.667 -60 -25 -100 -25
c-30 0 -55.833 7.66699 -77.5 23s-32.5 38.666 -32.5 69.999c0 44 26 83 78 117h-419v780z" />
    <glyph glyph-name="eogonek" unicode="&#x119;" horiz-adv-x="570" 
d="M291 540c149.333 0 223.999 -91.3311 223.999 -273.998v-27h-395c2.66699 -64.667 19.167 -112.167 49.5 -142.5s71.166 -45.5 122.499 -45.5c82.667 -2 132.334 32 149.001 102l71 -9c-7.33301 -36 -24 -67.667 -50 -95c-10.667 -11.333 -29.167 -27.333 -55.5 -48
s-46.166 -39.334 -59.499 -56.001s-20 -34.667 -20 -54c0 -30.667 18.667 -46 56 -46c10.667 0 22 1.83301 34 5.5s21.333 7.16699 28 10.5l10 5l17 -51c-26.667 -16.667 -60 -25 -100 -25c-30 0 -55.833 7.66699 -77.5 23s-32.5 38.666 -32.5 69.999
c0 38.667 22.333 75 67 109c-16 -1.33301 -28.667 -2 -38 -2c-75.333 0 -134.333 23.333 -177 70s-64 115 -64 205s21.333 158.333 64 205s101.667 70 177 70zM290.999 480.002c-50.667 0 -91 -14.833 -121 -44.5s-46.667 -75.5 -50 -137.5h323
c-2 123.333 -52.667 184 -152 182z" />
    <glyph glyph-name="Ecaron" unicode="&#x11a;" horiz-adv-x="695" 
d="M90 780h520v-66h-450v-281h410v-66h-410v-301h470v-66h-540v780zM467 1030h67l-150 -208h-68l-150 208h67l117 -150z" />
    <glyph glyph-name="ecaron" unicode="&#x11b;" horiz-adv-x="570" 
d="M291 540c149.333 0 224 -91.333 224 -274v-27h-395c2.66699 -64.667 19.167 -112.167 49.5 -142.5s71.166 -45.5 122.499 -45.5c82.667 -2 132.334 32 149.001 102l71 -9c-8.66699 -45.333 -31.167 -82.333 -67.5 -111s-87.5 -43 -153.5 -43
c-75.333 0 -134.333 23.333 -177 70s-64 115 -64 205s21.333 158.333 64 205s101.667 70 177 70zM291 480c-50.667 0 -91 -14.833 -121 -44.5s-46.667 -75.5 -50 -137.5h323c-2 123.333 -52.667 184 -152 182zM408 800h67l-150 -208h-68l-150 208h67l117 -150z" />
    <glyph glyph-name="Gcircumflex" unicode="&#x11c;" horiz-adv-x="774" 
d="M395 55c93.333 0 168.001 19.668 224.001 59.001v223h-170v66h240v-333c-48.667 -30.667 -95.167 -51.834 -139.5 -63.501s-95.833 -17.167 -154.5 -16.5c-112 0.666992 -195 36 -249 106s-81 168 -81 294c0 126.667 27.167 225 81.5 295s137.166 105 248.499 105
c168 0 265.333 -68 292 -204l-72 -6c-10 50 -32.333 86.667 -67 110s-85.667 35 -153 35c-170.667 0 -256 -111.667 -256 -335s85.333 -335 256 -335zM569.001 822.001h-67l-117 150l-117 -150h-67l150 208h68z" />
    <glyph glyph-name="gcircumflex" unicode="&#x11d;" horiz-adv-x="599" 
d="M469 592h-67l-117 150l-117 -150h-67l150 208h68zM285 -153c53.333 1.33301 96.499 12.5 129.499 33.5s49.5 53.167 49.5 96.5v133c-18 -30 -42.833 -54.167 -74.5 -72.5s-66.5 -27.5 -104.5 -27.5c-74.667 0 -132.5 22.667 -173.5 68s-61.5 111 -61.5 197
s20.5 151.667 61.5 197s98.833 68 173.5 68c38 0 72.667 -9.16699 104 -27.5s56 -42.833 74 -73.5l12 91h60l-6 -124v-422c0 -62 -21.5 -109.833 -64.5 -143.5s-102.833 -50.5 -179.5 -50.5c-134 0 -209 51.333 -225 154l70 9c12.667 -72.667 64.334 -108 155.001 -106z
M117.999 275c0 -66.667 14.833 -117.167 44.5 -151.5s71.167 -51.5 124.5 -51.5c50.667 0 92.5 16 125.5 48s50.167 66.667 51.5 104v102c-1.33301 37.333 -18.5 72 -51.5 104s-74.833 48 -125.5 48c-53.333 0 -94.833 -17 -124.5 -51s-44.5 -84.667 -44.5 -152z" />
    <glyph glyph-name="Gbreve" unicode="&#x11e;" horiz-adv-x="774" 
d="M395 55c93.333 0 168.001 19.668 224.001 59.001v223h-170v66h240v-333c-48.667 -30.667 -95.167 -51.834 -139.5 -63.501s-95.833 -17.167 -154.5 -16.5c-112 0.666992 -195 36 -249 106s-81 168 -81 294c0 126.667 27.167 225 81.5 295s137.166 105 248.499 105
c168 0 265.333 -68 292 -204l-72 -6c-10 50 -32.333 86.667 -67 110s-85.667 35 -153 35c-170.667 0 -256 -111.667 -256 -335s85.333 -335 256 -335zM507.001 1030h56c0 -66.667 -13.333 -116.334 -40 -149.001s-72.667 -49 -138 -49s-111.333 16.333 -138 49
s-40 82.334 -40 149.001h56c0 -52 9.5 -88.667 28.5 -110s50.167 -32 93.5 -32s74.5 10.667 93.5 32s28.5 58 28.5 110z" />
    <glyph glyph-name="gbreve" unicode="&#x11f;" horiz-adv-x="599" 
d="M407 800h56c0 -66.667 -13.333 -116.334 -40 -149.001s-72.667 -49 -138 -49s-111.333 16.333 -138 49s-40 82.334 -40 149.001h56c0 -52 9.5 -88.667 28.5 -110s50.167 -32 93.5 -32s74.5 10.667 93.5 32s28.5 58 28.5 110zM285 -153
c53.333 1.33301 96.499 12.5 129.499 33.5s49.5 53.167 49.5 96.5v133c-18 -30 -42.833 -54.167 -74.5 -72.5s-66.5 -27.5 -104.5 -27.5c-74.667 0 -132.5 22.667 -173.5 68s-61.5 111 -61.5 197s20.5 151.667 61.5 197s98.833 68 173.5 68c38 0 72.667 -9.16699 104 -27.5
s56 -42.833 74 -73.5l12 91h60l-6 -124v-422c0 -62 -21.5 -109.833 -64.5 -143.5s-102.833 -50.5 -179.5 -50.5c-134 0 -209 51.333 -225 154l70 9c12.667 -72.667 64.334 -108 155.001 -106zM117.999 275c0 -66.667 14.833 -117.167 44.5 -151.5s71.167 -51.5 124.5 -51.5
c50.667 0 92.5 16 125.5 48s50.167 66.667 51.5 104v102c-1.33301 37.333 -18.5 72 -51.5 104s-74.833 48 -125.5 48c-53.333 0 -94.833 -17 -124.5 -51s-44.5 -84.667 -44.5 -152z" />
    <glyph glyph-name="Gdotaccent" unicode="&#x120;" horiz-adv-x="774" 
d="M395 55c93.333 0 168.001 19.668 224.001 59.001v223h-170v66h240v-333c-48.667 -30.667 -95.167 -51.834 -139.5 -63.501s-95.833 -17.167 -154.5 -16.5c-112 0.666992 -195 36 -249 106s-81 168 -81 294c0 126.667 27.167 225 81.5 295s137.166 105 248.499 105
c168 0 265.333 -68 292 -204l-72 -6c-10 50 -32.333 86.667 -67 110s-85.667 35 -153 35c-170.667 0 -256 -111.667 -256 -335s85.333 -335 256 -335zM428.001 969.001v-86h-86v86h86z" />
    <glyph glyph-name="gdotaccent" unicode="&#x121;" horiz-adv-x="599" 
d="M328 739v-86h-86v86h86zM285 -153c53.333 1.33301 96.499 12.5 129.499 33.5s49.5 53.167 49.5 96.5v133c-18 -30 -42.833 -54.167 -74.5 -72.5s-66.5 -27.5 -104.5 -27.5c-74.667 0 -132.5 22.667 -173.5 68s-61.5 111 -61.5 197s20.5 151.667 61.5 197
s98.833 68 173.5 68c38 0 72.667 -9.16699 104 -27.5s56 -42.833 74 -73.5l12 91h60l-6 -124v-422c0 -62 -21.5 -109.833 -64.5 -143.5s-102.833 -50.5 -179.5 -50.5c-134 0 -209 51.333 -225 154l70 9c12.667 -72.667 64.334 -108 155.001 -106zM117.999 275
c0 -66.667 14.833 -117.167 44.5 -151.5s71.167 -51.5 124.5 -51.5c50.667 0 92.5 16 125.5 48s50.167 66.667 51.5 104v102c-1.33301 37.333 -18.5 72 -51.5 104s-74.833 48 -125.5 48c-53.333 0 -94.833 -17 -124.5 -51s-44.5 -84.667 -44.5 -152z" />
    <glyph glyph-name="Gcommaaccent" unicode="&#x122;" horiz-adv-x="774" 
d="M395 55c93.333 0 168.001 19.668 224.001 59.001v223h-170v66h240v-333c-48.667 -30.667 -95.167 -51.834 -139.5 -63.501s-95.833 -17.167 -154.5 -16.5c-112 0.666992 -195 36 -249 106s-81 168 -81 294c0 126.667 27.167 225 81.5 295s137.166 105 248.499 105
c168 0 265.333 -68 292 -204l-72 -6c-10 50 -32.333 86.667 -67 110s-85.667 35 -153 35c-170.667 0 -256 -111.667 -256 -335s85.333 -335 256 -335zM355.001 -61.999h79l-50 -138h-67z" />
    <glyph glyph-name="gcommaaccent" unicode="&#x123;" horiz-adv-x="599" 
d="M316 592h-79l75 208h61zM285 -153c53.333 1.33301 96.499 12.5 129.499 33.5s49.5 53.167 49.5 96.5v133c-18 -30 -42.833 -54.167 -74.5 -72.5s-66.5 -27.5 -104.5 -27.5c-74.667 0 -132.5 22.667 -173.5 68s-61.5 111 -61.5 197s20.5 151.667 61.5 197
s98.833 68 173.5 68c38 0 72.667 -9.16699 104 -27.5s56 -42.833 74 -73.5l12 91h60l-6 -124v-422c0 -62 -21.5 -109.833 -64.5 -143.5s-102.833 -50.5 -179.5 -50.5c-134 0 -209 51.333 -225 154l70 9c12.667 -72.667 64.334 -108 155.001 -106zM117.999 275
c0 -66.667 14.833 -117.167 44.5 -151.5s71.167 -51.5 124.5 -51.5c50.667 0 92.5 16 125.5 48s50.167 66.667 51.5 104v102c-1.33301 37.333 -18.5 72 -51.5 104s-74.833 48 -125.5 48c-53.333 0 -94.833 -17 -124.5 -51s-44.5 -84.667 -44.5 -152z" />
    <glyph glyph-name="Hcircumflex" unicode="&#x124;" horiz-adv-x="750" 
d="M590 780h70v-780h-70v367h-430v-367h-70v780h70v-347h430v347zM559 822h-67l-117 150l-117 -150h-67l150 208h68z" />
    <glyph glyph-name="hcircumflex" unicode="&#x125;" horiz-adv-x="574" 
d="M289 822h-67l-117 150l-117 -150h-67l150 208h68zM70 0v800h66v-360c18 30 43 54.167 75 72.5s67.333 27.5 106 27.5c56.667 0 103.5 -15.167 140.5 -45.5s55.5 -71.833 55.5 -124.5v-370h-66v355c0 38.667 -12.667 68.667 -38 90s-59.333 32 -102 32
c-46.667 0 -86.5 -16 -119.5 -48s-50.167 -66.333 -51.5 -103v-326h-66z" />
    <glyph glyph-name="Hbar" unicode="&#x126;" horiz-adv-x="750" 
d="M590 780h70v-780h-70v367h-430v-367h-70v780h70v-153h430v153zM160 433h430v130h-430v-130z" />
    <glyph glyph-name="hbar" unicode="&#x127;" horiz-adv-x="604" 
d="M307 627h-141v-187c18 30 43 54.167 75 72.5s67.333 27.5 106 27.5c56.667 0 103.5 -15.167 140.5 -45.5s55.5 -71.833 55.5 -124.5v-370h-66v355c0 38.667 -12.667 68.667 -38 90s-59.333 32 -102 32c-46.667 0 -86.5 -16 -119.5 -48s-50.167 -66.333 -51.5 -103v-326
h-66v627h-111v62h111v111h66v-111h141v-62z" />
    <glyph glyph-name="Itilde" unicode="&#x128;" horiz-adv-x="290" 
d="M180 780v-780h-70v780h70zM216 860c-28.667 1.33301 -56.334 14 -83.001 38s-47.667 36.333 -63 37c-18 1.33301 -32.667 -2.33398 -44 -11.001s-18 -17.667 -20 -27l-4 -14l-55 8c16 72 58.333 106.333 127 103c28.667 -1.33301 56.334 -14 83.001 -38
s47.667 -36.333 63 -37c18 -1.33301 32.667 2.33398 44 11.001s18 17.667 20 27l4 14l55 -8c-16 -72 -58.333 -106.333 -127 -103z" />
    <glyph glyph-name="itilde" unicode="&#x129;" horiz-adv-x="250" 
d="M92 0v530h66v-530h-66zM196 630c-28.667 1.33301 -56.334 14 -83.001 38s-47.667 36.333 -63 37c-18 1.33301 -32.667 -2.33398 -44 -11.001s-18 -17.667 -20 -27l-4 -14l-55 8c16 72 58.333 106.333 127 103c28.667 -1.33301 56.334 -14 83.001 -38
s47.667 -36.333 63 -37c18 -1.33301 32.667 2.33398 44 11.001s18 17.667 20 27l4 14l55 -8c-16 -72 -58.333 -106.333 -127 -103z" />
    <glyph glyph-name="Imacron" unicode="&#x12a;" horiz-adv-x="290" 
d="M180 780v-780h-70v780h70zM9 894v64h272v-64h-272z" />
    <glyph glyph-name="imacron" unicode="&#x12b;" horiz-adv-x="250" 
d="M92 0v530h66v-530h-66zM-11 664v64h272v-64h-272z" />
    <glyph glyph-name="Ibreve" unicode="&#x12c;" horiz-adv-x="290" 
d="M180 780v-780h-70v780h70zM267 1030h56c0 -66.667 -13.333 -116.334 -40 -149.001s-72.667 -49 -138 -49s-111.333 16.333 -138 49s-40 82.334 -40 149.001h56c0 -52 9.5 -88.667 28.5 -110s50.167 -32 93.5 -32s74.5 10.667 93.5 32s28.5 58 28.5 110z" />
    <glyph glyph-name="ibreve" unicode="&#x12d;" horiz-adv-x="250" 
d="M92 0v530h66v-530h-66zM247 800h56c0 -66.667 -13.333 -116.334 -40 -149.001s-72.667 -49 -138 -49s-111.333 16.333 -138 49s-40 82.334 -40 149.001h56c0 -52 9.5 -88.667 28.5 -110s50.167 -32 93.5 -32s74.5 10.667 93.5 32s28.5 58 28.5 110z" />
    <glyph glyph-name="Iogonek" unicode="&#x12e;" horiz-adv-x="290" 
d="M180 780v-779.999c-26 -18.667 -46.333 -36.5 -61 -53.5s-22 -35.5 -22 -55.5c0 -30.667 18.667 -46 56 -46c10.667 0 22 1.83301 34 5.5s21.333 7.16699 28 10.5l10 5l17 -51c-26.667 -16.667 -60 -25 -100 -25c-30 0 -55.833 7.66699 -77.5 23
s-32.5 38.666 -32.5 69.999c0 24.667 6.5 45.5 19.5 62.5s32.5 35.167 58.5 54.5v780h70z" />
    <glyph glyph-name="iogonek" unicode="&#x12f;" horiz-adv-x="250" 
d="M158 0c-26 -18.667 -46.333 -36.499 -61 -53.499s-22 -35.5 -22 -55.5c0 -30.667 18.667 -46 56 -46c10.667 0 22 1.83301 34 5.5s21.333 7.16699 28 10.5l10 5l17 -51c-26.667 -16.667 -60 -25 -100 -25c-30 0 -55.833 7.66699 -77.5 23s-32.5 38.666 -32.5 69.999
c0 24.667 6.66699 45.667 20 63s34 36.333 62 57v527h66v-530zM168 739.001v-86h-86v86h86z" />
    <glyph glyph-name="Idotaccent" unicode="&#x130;" horiz-adv-x="290" 
d="M180 780v-780h-70v780h70zM188 969v-86h-86v86h86z" />
    <glyph glyph-name="dotlessi" unicode="&#x131;" horiz-adv-x="250" 
d="M92 0v530h66v-530h-66z" />
    <glyph glyph-name="IJ" unicode="&#x132;" horiz-adv-x="630" 
d="M180 780v-780h-70v780h70zM349 56c41.333 0 72.5 10.167 93.5 30.5s31.5 57.5 31.5 111.5v582h70v-582c0 -138.667 -65 -208 -195 -208c-23.333 0 -42.333 2.66699 -57 8l9 67c14 -6 30 -9 48 -9z" />
    <glyph glyph-name="ij" unicode="&#x133;" horiz-adv-x="480" 
d="M168 739v-86h-86v86h86zM92 0v530h66v-530h-66zM213 -147c42 0 71.5 9.5 88.5 28.5s25.5 57.833 25.5 116.5v532h66v-532c0 -30.667 -2.16699 -57.167 -6.5 -79.5s-12.5 -44 -24.5 -65s-30.5 -36.833 -55.5 -47.5s-56.167 -16 -93.5 -16c-23.333 0 -42.333 2.66699 -57 8
l8 64c14 -6 30.333 -9 49 -9zM403 739v-86h-86v86h86z" />
    <glyph glyph-name="Jcircumflex" unicode="&#x134;" horiz-adv-x="507" 
d="M569 822h-67l-117 150l-117 -150h-67l150 208h68zM351 780l71.001 -0.000976562v-570c0 -66 -17.833 -119.167 -53.5 -159.5s-85.834 -60.5 -150.501 -60.5c-123.333 0 -190 55 -200 165l71 9c5.33301 -75.333 48.333 -111.666 129 -108.999
c88.667 2.66699 133 50.667 133 144v581z" />
    <glyph glyph-name="jcircumflex" unicode="&#x135;" horiz-adv-x="250" 
d="M-17 -147c42 0 71.5 9.5 88.5 28.5s25.5 57.833 25.5 116.5v532h66v-532c0 -30.667 -2.16699 -57.167 -6.5 -79.5s-12.5 -44 -24.5 -65s-30.5 -36.833 -55.5 -47.5s-56.167 -16 -93.5 -16c-23.333 0 -42.333 2.66699 -57 8l8 64c14 -6 30.333 -9 49 -9zM314 592h-67
l-117 150l-117 -150h-67l150 208h68z" />
    <glyph glyph-name="Kcommaaccent" unicode="&#x136;" horiz-adv-x="695" 
d="M160 780v-423l391 423h97l-328 -350l353 -430h-94l-309 376l-110 -118v-258h-70v780h70zM330 -62h79l-50 -138h-67z" />
    <glyph glyph-name="kcommaaccent" unicode="&#x137;" horiz-adv-x="535" 
d="M136 0h-66v800h66v-536l101 103l163 163h95l-231 -225l268 -305h-91l-222 261l-83 -81v-180zM244 -62h79l-50 -138h-67z" />
    <glyph glyph-name="kgreenlandic" unicode="&#x138;" horiz-adv-x="535" 
d="M136 0h-66v530h66v-264l264 264h95l-231 -225l268 -305h-91l-222 261l-83 -81v-180z" />
    <glyph glyph-name="Lacute" unicode="&#x139;" horiz-adv-x="585" 
d="M160 780v-714h410v-66h-480v780h70zM189 1030h82l-111 -208h-65z" />
    <glyph glyph-name="lacute" unicode="&#x13a;" horiz-adv-x="250" 
d="M92 0v800h66v-800h-66zM187 1030h82l-111 -208h-65z" />
    <glyph glyph-name="Lcommaaccent" unicode="&#x13b;" horiz-adv-x="585" 
d="M160 780v-714h410v-66h-480v780h70zM297 -62h79l-50 -138h-67z" />
    <glyph glyph-name="lcommaaccent" unicode="&#x13c;" horiz-adv-x="250" 
d="M92 0v800h66v-800h-66zM84 -62h79l-50 -138h-67z" />
    <glyph glyph-name="Lcaron" unicode="&#x13d;" horiz-adv-x="585" 
d="M160 780v-714h410v-66h-480v780h70zM393 800h79l-75 -208h-61z" />
    <glyph glyph-name="lcaron" unicode="&#x13e;" horiz-adv-x="250" 
d="M92 0v800h66v-800h-66zM262 800h79l-75 -208h-61z" />
    <glyph glyph-name="Ldot" unicode="&#x13f;" horiz-adv-x="585" 
d="M160 780v-714h410v-66h-480v780h70zM461 443v-86h-86v86h86z" />
    <glyph glyph-name="ldot" unicode="&#x140;" horiz-adv-x="349" 
d="M92 0v800h66v-800h-66zM338 378v-86h-86v86h86z" />
    <glyph glyph-name="Lslash" unicode="&#x141;" horiz-adv-x="585" 
d="M445 455l-285 -144v-245h410v-66h-480v276l-80 -40v65l80 40v439h70v-403l285 143v-65z" />
    <glyph glyph-name="lslash" unicode="&#x142;" horiz-adv-x="300" 
d="M285 472l-102 -65v-407h-66v366l-82 -52v68l82 52v366h66v-325l102 65v-68z" />
    <glyph glyph-name="Nacute" unicode="&#x143;" horiz-adv-x="750" 
d="M597 0l-348 515l-92 142l4 -267v-390h-71v780h63l348 -515l92 -142l-4 267v390h71v-780h-63zM439 1030h82l-111 -208h-65z" />
    <glyph glyph-name="nacute" unicode="&#x144;" horiz-adv-x="574" 
d="M361 800h82l-111 -208h-65zM124 530l12 -90c18 30 43 54.167 75 72.5s67.333 27.5 106 27.5c56.667 0 103.5 -15.167 140.5 -45.5s55.5 -71.833 55.5 -124.5v-370h-66v355c0 38.667 -12.667 68.667 -38 90s-59.333 32 -102 32c-46.667 0 -86.5 -16 -119.5 -48
s-50.167 -66.333 -51.5 -103v-326h-66v407l-6 123h60z" />
    <glyph glyph-name="Ncommaaccent" unicode="&#x145;" horiz-adv-x="750" 
d="M597 0l-348 515l-92 142l4 -267v-390h-71v780h63l348 -515l92 -142l-4 267v390h71v-780h-63zM345 -62h79l-50 -138h-67z" />
    <glyph glyph-name="ncommaaccent" unicode="&#x146;" horiz-adv-x="574" 
d="M262 -62h79l-50 -138h-67zM124 530l12 -90c18 30 43 54.167 75 72.5s67.333 27.5 106 27.5c56.667 0 103.5 -15.167 140.5 -45.5s55.5 -71.833 55.5 -124.5v-370h-66v355c0 38.667 -12.667 68.667 -38 90s-59.333 32 -102 32c-46.667 0 -86.5 -16 -119.5 -48
s-50.167 -66.333 -51.5 -103v-326h-66v407l-6 123h60z" />
    <glyph glyph-name="Ncaron" unicode="&#x147;" horiz-adv-x="750" 
d="M597 0l-348 515l-92 142l4 -267v-390h-71v780h63l348 -515l92 -142l-4 267v390h71v-780h-63zM492 1030h67l-150 -208h-68l-150 208h67l117 -150z" />
    <glyph glyph-name="ncaron" unicode="&#x148;" horiz-adv-x="574" 
d="M409 800h67l-150 -208h-68l-150 208h67l117 -150zM124 530l12 -90c18 30 43 54.167 75 72.5s67.333 27.5 106 27.5c56.667 0 103.5 -15.167 140.5 -45.5s55.5 -71.833 55.5 -124.5v-370h-66v355c0 38.667 -12.667 68.667 -38 90s-59.333 32 -102 32
c-46.667 0 -86.5 -16 -119.5 -48s-50.167 -66.333 -51.5 -103v-326h-66v407l-6 123h60z" />
    <glyph glyph-name="Eng" unicode="&#x14a;" horiz-adv-x="750" 
d="M480 -147c42 0 71.5 9.5 88.5 28.5s25.5 57.833 25.5 116.5v6l-345 511l-92 142l4 -267v-390h-71v780h63l348 -515l92 -142l-4 267v390h71v-782c0 -30.667 -2.16699 -57.167 -6.5 -79.5s-12.5 -44 -24.5 -65s-30.5 -36.833 -55.5 -47.5s-56.167 -16 -93.5 -16
c-23.333 0 -42.333 2.66699 -57 8l8 64c14 -6 30.333 -9 49 -9z" />
    <glyph glyph-name="eng" unicode="&#x14b;" horiz-adv-x="574" 
d="M333 -147c42 0 71.5 9.5 88.5 28.5s25.5 57.833 25.5 116.5v357c0 38.667 -12.667 68.667 -38 90s-59.333 32 -102 32c-46.667 0 -86.5 -16 -119.5 -48s-50.167 -66.333 -51.5 -103v-326h-66v407l-6 123h60l12 -90c18 30 43 54.167 75 72.5s67.333 27.5 106 27.5
c56.667 0 103.5 -15.167 140.5 -45.5s55.5 -71.833 55.5 -124.5v-372c0 -30.667 -2.16699 -57.167 -6.5 -79.5s-12.5 -44 -24.5 -65s-30.5 -36.833 -55.5 -47.5s-56.167 -16 -93.5 -16c-23.333 0 -42.333 2.66699 -57 8l8 64c14 -6 30.333 -9 49 -9z" />
    <glyph glyph-name="Omacron" unicode="&#x14c;" horiz-adv-x="790" 
d="M395 -10c-111.333 0 -194.166 35 -248.499 105s-81.5 168.333 -81.5 295s27.167 225 81.5 295s137.166 105 248.499 105s194.166 -35 248.499 -105s81.5 -168.333 81.5 -295s-27.167 -225 -81.5 -295s-137.166 -105 -248.499 -105zM395 725
c-170.667 0 -256 -111.667 -256 -335s85.333 -335 256 -335s256 111.667 256 335s-85.333 335 -256 335zM259 894v64h272v-64h-272z" />
    <glyph glyph-name="omacron" unicode="&#x14d;" horiz-adv-x="578" 
d="M289 -10c-75.333 0 -134 23.333 -176 70s-63 115 -63 205s21 158.333 63 205s100.667 70 176 70s134 -23.333 176 -70s63 -115 63 -205s-21 -158.333 -63 -205s-100.667 -70 -176 -70zM289 478c-113.333 0 -170 -71 -170 -213s56.667 -213 170 -213s170 71 170 213
s-56.667 213 -170 213zM153 664v64h272v-64h-272z" />
    <glyph glyph-name="Obreve" unicode="&#x14e;" horiz-adv-x="790" 
d="M395 -10c-111.333 0 -194.166 35 -248.499 105s-81.5 168.333 -81.5 295s27.167 225 81.5 295s137.166 105 248.499 105s194.166 -35 248.499 -105s81.5 -168.333 81.5 -295s-27.167 -225 -81.5 -295s-137.166 -105 -248.499 -105zM395 725
c-170.667 0 -256 -111.667 -256 -335s85.333 -335 256 -335s256 111.667 256 335s-85.333 335 -256 335zM517 1030h56c0 -66.667 -13.333 -116.334 -40 -149.001s-72.667 -49 -138 -49s-111.333 16.333 -138 49s-40 82.334 -40 149.001h56c0 -52 9.5 -88.667 28.5 -110
s50.167 -32 93.5 -32s74.5 10.667 93.5 32s28.5 58 28.5 110z" />
    <glyph glyph-name="obreve" unicode="&#x14f;" horiz-adv-x="578" 
d="M289 -10c-75.333 0 -134 23.333 -176 70s-63 115 -63 205s21 158.333 63 205s100.667 70 176 70s134 -23.333 176 -70s63 -115 63 -205s-21 -158.333 -63 -205s-100.667 -70 -176 -70zM289 478c-113.333 0 -170 -71 -170 -213s56.667 -213 170 -213s170 71 170 213
s-56.667 213 -170 213zM411 800h56c0 -66.667 -13.333 -116.334 -40 -149.001s-72.667 -49 -138 -49s-111.333 16.333 -138 49s-40 82.334 -40 149.001h56c0 -52 9.5 -88.667 28.5 -110s50.167 -32 93.5 -32s74.5 10.667 93.5 32s28.5 58 28.5 110z" />
    <glyph glyph-name="Ohungarumlaut" unicode="&#x150;" horiz-adv-x="790" 
d="M395 -10c-111.333 0 -194.166 35 -248.499 105s-81.5 168.333 -81.5 295s27.167 225 81.5 295s137.166 105 248.499 105s194.166 -35 248.499 -105s81.5 -168.333 81.5 -295s-27.167 -225 -81.5 -295s-137.166 -105 -248.499 -105zM395 725
c-170.667 0 -256 -111.667 -256 -335s85.333 -335 256 -335s256 111.667 256 335s-85.333 335 -256 335zM379 1030h82l-111 -208h-65zM519 1030h82l-111 -208h-65z" />
    <glyph glyph-name="ohungarumlaut" unicode="&#x151;" horiz-adv-x="578" 
d="M289 -10c-75.333 0 -134 23.333 -176 70s-63 115 -63 205s21 158.333 63 205s100.667 70 176 70s134 -23.333 176 -70s63 -115 63 -205s-21 -158.333 -63 -205s-100.667 -70 -176 -70zM289 478c-113.333 0 -170 -71 -170 -213s56.667 -213 170 -213s170 71 170 213
s-56.667 213 -170 213zM278 800h82l-111 -208h-65zM418 800h82l-111 -208h-65z" />
    <glyph glyph-name="OE" unicode="&#x152;" horiz-adv-x="1070" 
d="M515 714h-98c-185.333 0 -278 -108 -278 -324s92.667 -324 278 -324h98v648zM417 780l568 -0.00195312v-66h-400v-281h360v-66h-360v-301h420v-66h-588c-116.667 0 -204.5 31.833 -263.5 95.5s-88.5 161.834 -88.5 294.501s29.5 230.834 88.5 294.501
s146.833 95.5 263.5 95.5z" />
    <glyph glyph-name="oe" unicode="&#x153;" horiz-adv-x="979" 
d="M289 478c-113.333 0 -170 -71 -170 -213s56.667 -213 170 -213s170 71 170 213s-56.667 213 -170 213zM700 480c-50.667 0 -91 -14.833 -121 -44.5s-46.667 -75.5 -50 -137.5h323c-2 123.333 -52.667 184 -152 182zM700 540c149.333 0 224 -91.333 224 -274v-27h-395
c2.66699 -64.667 19.167 -112.167 49.5 -142.5s71.166 -45.5 122.499 -45.5c82.667 -2 132.334 32 149.001 102l71 -9c-8.66699 -45.333 -31.167 -82.333 -67.5 -111s-87.5 -43 -153.5 -43c-96.667 0 -165.667 38 -207 114c-40 -76 -108 -114 -204 -114
c-75.333 0 -134 23.333 -176 70s-63 115 -63 205s21 158.333 63 205s100.667 70 176 70c96 0 164 -38.333 204 -115c40.667 76.667 109.667 115 207 115z" />
    <glyph glyph-name="Racute" unicode="&#x154;" horiz-adv-x="705" 
d="M160 347v-347h-70v780h300c161.333 0 242 -72 242 -216c0 -126.667 -60.667 -198 -182 -214l213 -350h-84l-203 347h-216zM160 413l239 -0.00195312c16.667 0 31 0.666992 43 2s25.667 4.83301 41 10.5s28 13.667 38 24s18.5 25.333 25.5 45s10.5 42.834 10.5 69.501
s-3.5 49.834 -10.5 69.501s-15.5 34.5 -25.5 44.5s-22.667 17.833 -38 23.5s-29 9.16699 -41 10.5s-26.333 2 -43 2h-239v-301zM392 1030h82l-111 -208h-65z" />
    <glyph glyph-name="racute" unicode="&#x155;" horiz-adv-x="395" 
d="M264 800h82l-111 -208h-65zM312 540c25.333 0 45.001 -2.66699 59.001 -8l-7 -68c-16 6 -33.333 9 -52 9c-50.667 0 -92.334 -15.833 -125.001 -47.5s-49.667 -66.167 -51 -103.5v-322h-66v407l-6 123h60l12 -94c16 30 40 54.833 72 74.5s66.667 29.5 104 29.5z" />
    <glyph glyph-name="Rcommaaccent" unicode="&#x156;" horiz-adv-x="705" 
d="M310 -62h79l-50 -138h-67zM160 347v-347h-70v780h300c161.333 0 242 -72 242 -216c0 -126.667 -60.667 -198 -182 -214l213 -350h-84l-203 347h-216zM160 413l239 -0.00195312c16.667 0 31 0.666992 43 2s25.667 4.83301 41 10.5s28 13.667 38 24s18.5 25.333 25.5 45
s10.5 42.834 10.5 69.501s-3.5 49.834 -10.5 69.501s-15.5 34.5 -25.5 44.5s-22.667 17.833 -38 23.5s-29 9.16699 -41 10.5s-26.333 2 -43 2h-239v-301z" />
    <glyph glyph-name="rcommaaccent" unicode="&#x157;" horiz-adv-x="395" 
d="M65 -62h79l-50 -138h-67zM312 540c25.333 0 45.001 -2.66699 59.001 -8l-7 -68c-16 6 -33.333 9 -52 9c-50.667 0 -92.334 -15.833 -125.001 -47.5s-49.667 -66.167 -51 -103.5v-322h-66v407l-6 123h60l12 -94c16 30 40 54.833 72 74.5s66.667 29.5 104 29.5z" />
    <glyph glyph-name="Rcaron" unicode="&#x158;" horiz-adv-x="705" 
d="M447 1030h67l-150 -208h-68l-150 208h67l117 -150zM160 347v-347h-70v780h300c161.333 0 242 -72 242 -216c0 -126.667 -60.667 -198 -182 -214l213 -350h-84l-203 347h-216zM160 413l239 -0.00195312c16.667 0 31 0.666992 43 2s25.667 4.83301 41 10.5s28 13.667 38 24
s18.5 25.333 25.5 45s10.5 42.834 10.5 69.501s-3.5 49.834 -10.5 69.501s-15.5 34.5 -25.5 44.5s-22.667 17.833 -38 23.5s-29 9.16699 -41 10.5s-26.333 2 -43 2h-239v-301z" />
    <glyph glyph-name="rcaron" unicode="&#x159;" horiz-adv-x="395" 
d="M317 800h67l-150 -208h-68l-150 208h67l117 -150zM312 540c25.333 0 45.001 -2.66699 59.001 -8l-7 -68c-16 6 -33.333 9 -52 9c-50.667 0 -92.334 -15.833 -125.001 -47.5s-49.667 -66.167 -51 -103.5v-322h-66v407l-6 123h60l12 -94c16 30 40 54.833 72 74.5
s66.667 29.5 104 29.5z" />
    <glyph glyph-name="Sacute" unicode="&#x15a;" horiz-adv-x="710" 
d="M355 -10c-168 0 -265.002 67.3311 -291.002 201.998l72 6c10 -50 32.167 -86.333 66.5 -109s85.166 -34 152.499 -34c36 0 69.667 4.83301 101 14.5s58.666 27.5 81.999 53.5s35 58 35 96c0 50 -15.5 86.833 -46.5 110.5s-87.5 40.167 -169.5 49.5
c-30 3.33301 -56.167 7.33301 -78.5 12s-45.666 11.667 -69.999 21s-44.166 20.833 -59.499 34.5s-28 31.5 -38 53.5s-15 47.333 -15 76c0 70.667 24.5 124 73.5 160s111.167 54 186.5 54c165.333 0 260.666 -65.333 285.999 -196l-72 -6
c-9.33301 48.667 -30.666 83.667 -63.999 105s-83.333 32 -150 32c-19.333 0 -38.666 -2 -57.999 -6s-39.5 -10.833 -60.5 -20.5s-38 -25.167 -51 -46.5s-19.5 -46.666 -19.5 -75.999c0 -40 13.333 -70 40 -90s77.334 -34.333 152.001 -43
c49.333 -6 89.5 -12.833 120.5 -20.5s59.833 -19.5 86.5 -35.5s46 -37.667 58 -65s18 -61.666 18 -102.999c0 -74.667 -27.833 -131.5 -83.5 -170.5s-123.5 -58.5 -203.5 -58.5zM419.998 1030h82l-111 -208h-65z" />
    <glyph glyph-name="sacute" unicode="&#x15b;" horiz-adv-x="530" 
d="M262 51c104.667 2.66699 156.997 36.3271 156.997 100.994c0 8.66699 -0.5 16.334 -1.5 23.001s-3.5 12.834 -7.5 18.501s-7.16699 10.334 -9.5 14.001s-7.33301 7.16699 -15 10.5l-17.5 7.5c-4 1.66699 -11.5 3.66699 -22.5 6s-19 3.83301 -24 4.5
s-14.833 2.16699 -29.5 4.5s-25 3.83301 -31 4.5l-23 3c-14.667 2.66699 -23.5 4.16699 -26.5 4.5s-11.5 2 -25.5 5s-23.167 5.5 -27.5 7.5s-12.5 5.16699 -24.5 9.5s-20.333 8.5 -25 12.5l-19 16c-8 6.66699 -13.5 13.667 -16.5 21s-6 16 -9 26s-4.5 20.667 -4.5 32
c0 28 6 52.667 18 74s28 37.833 48 49.5s41.167 20.334 63.5 26.001s45.833 8.5 70.5 8.5c122.667 0 194.667 -51.333 216 -154l-71 -9c-16 70 -64.667 104 -146 102c-86.667 -1.33301 -130 -32.333 -130 -93c0 -11.333 2.16699 -21.166 6.5 -29.499
s9.33301 -14.833 15 -19.5s14.834 -9 27.501 -13s23.5 -6.83301 32.5 -8.5s22.833 -3.83398 41.5 -6.50098c4 -0.666992 7.5 -1.16699 10.5 -1.5s6.16699 -0.833008 9.5 -1.5l28 -4c14 -2 24 -3.5 30 -4.5s15.667 -2.83301 29 -5.5s23.333 -5.16699 30 -7.5
s15.5 -5.66602 26.5 -9.99902s19.333 -8.83301 25 -13.5s12.167 -10.667 19.5 -18s12.833 -15.166 16.5 -23.499s6.83398 -18 9.50098 -29s4 -22.833 4 -35.5c0 -38 -11.667 -70 -35 -96s-51.333 -44 -84 -54s-68.667 -15 -108 -15c-66 0 -117.167 14.333 -153.5 43
s-58.833 65.667 -67.5 111l71 9c16.667 -70 66.334 -104 149.001 -102zM323.997 799.993h82l-111 -208h-65z" />
    <glyph glyph-name="Scircumflex" unicode="&#x15c;" horiz-adv-x="710" 
d="M355 -10c-168 0 -265.002 67.3311 -291.002 201.998l72 6c10 -50 32.167 -86.333 66.5 -109s85.166 -34 152.499 -34c36 0 69.667 4.83301 101 14.5s58.666 27.5 81.999 53.5s35 58 35 96c0 50 -15.5 86.833 -46.5 110.5s-87.5 40.167 -169.5 49.5
c-30 3.33301 -56.167 7.33301 -78.5 12s-45.666 11.667 -69.999 21s-44.166 20.833 -59.499 34.5s-28 31.5 -38 53.5s-15 47.333 -15 76c0 70.667 24.5 124 73.5 160s111.167 54 186.5 54c165.333 0 260.666 -65.333 285.999 -196l-72 -6
c-9.33301 48.667 -30.666 83.667 -63.999 105s-83.333 32 -150 32c-19.333 0 -38.666 -2 -57.999 -6s-39.5 -10.833 -60.5 -20.5s-38 -25.167 -51 -46.5s-19.5 -46.666 -19.5 -75.999c0 -40 13.333 -70 40 -90s77.334 -34.333 152.001 -43
c49.333 -6 89.5 -12.833 120.5 -20.5s59.833 -19.5 86.5 -35.5s46 -37.667 58 -65s18 -61.666 18 -102.999c0 -74.667 -27.833 -131.5 -83.5 -170.5s-123.5 -58.5 -203.5 -58.5zM539.998 821.998h-67l-117 150l-117 -150h-67l150 208h68z" />
    <glyph glyph-name="scircumflex" unicode="&#x15d;" horiz-adv-x="530" 
d="M262 51c104.667 2.66699 156.997 36.3271 156.997 100.994c0 8.66699 -0.5 16.334 -1.5 23.001s-3.5 12.834 -7.5 18.501s-7.16699 10.334 -9.5 14.001s-7.33301 7.16699 -15 10.5l-17.5 7.5c-4 1.66699 -11.5 3.66699 -22.5 6s-19 3.83301 -24 4.5
s-14.833 2.16699 -29.5 4.5s-25 3.83301 -31 4.5l-23 3c-14.667 2.66699 -23.5 4.16699 -26.5 4.5s-11.5 2 -25.5 5s-23.167 5.5 -27.5 7.5s-12.5 5.16699 -24.5 9.5s-20.333 8.5 -25 12.5l-19 16c-8 6.66699 -13.5 13.667 -16.5 21s-6 16 -9 26s-4.5 20.667 -4.5 32
c0 28 6 52.667 18 74s28 37.833 48 49.5s41.167 20.334 63.5 26.001s45.833 8.5 70.5 8.5c122.667 0 194.667 -51.333 216 -154l-71 -9c-16 70 -64.667 104 -146 102c-86.667 -1.33301 -130 -32.333 -130 -93c0 -11.333 2.16699 -21.166 6.5 -29.499
s9.33301 -14.833 15 -19.5s14.834 -9 27.501 -13s23.5 -6.83301 32.5 -8.5s22.833 -3.83398 41.5 -6.50098c4 -0.666992 7.5 -1.16699 10.5 -1.5s6.16699 -0.833008 9.5 -1.5l28 -4c14 -2 24 -3.5 30 -4.5s15.667 -2.83301 29 -5.5s23.333 -5.16699 30 -7.5
s15.5 -5.66602 26.5 -9.99902s19.333 -8.83301 25 -13.5s12.167 -10.667 19.5 -18s12.833 -15.166 16.5 -23.499s6.83398 -18 9.50098 -29s4 -22.833 4 -35.5c0 -38 -11.667 -70 -35 -96s-51.333 -44 -84 -54s-68.667 -15 -108 -15c-66 0 -117.167 14.333 -153.5 43
s-58.833 65.667 -67.5 111l71 9c16.667 -70 66.334 -104 149.001 -102zM443.997 591.993h-67l-117 150l-117 -150h-67l150 208h68z" />
    <glyph glyph-name="Scedilla" unicode="&#x15e;" horiz-adv-x="710" 
d="M642 219c0 -71.333 -25.502 -126.334 -76.502 -165.001s-113.833 -59.667 -188.5 -63l-7 -25c58 -14 87 -45 87 -93c0 -28 -10 -48.833 -30 -62.5s-46.333 -20.5 -79 -20.5s-59 5.66699 -79 17l15 44c18 -8 36.667 -12.333 56 -13c39.333 -0.666992 59 10.666 59 33.999
c0 29.333 -30 47 -90 53l22 66c-153.333 6 -242.333 73 -267 201l72 6c10 -50 32.167 -86.333 66.5 -109s85.166 -34 152.499 -34c36 0 69.667 4.83301 101 14.5s58.666 27.5 81.999 53.5s35 58 35 96c0 50 -15.5 86.833 -46.5 110.5s-87.5 40.167 -169.5 49.5
c-30 3.33301 -56.167 7.33301 -78.5 12s-45.666 11.667 -69.999 21s-44.166 20.833 -59.499 34.5s-28 31.5 -38 53.5s-15 47.333 -15 76c0 70.667 24.5 124 73.5 160s111.167 54 186.5 54c165.333 0 260.666 -65.333 285.999 -196l-72 -6
c-9.33301 48.667 -30.666 83.667 -63.999 105s-83.333 32 -150 32c-19.333 0 -38.666 -2 -57.999 -6s-39.5 -10.833 -60.5 -20.5s-38 -25.167 -51 -46.5s-19.5 -46.666 -19.5 -75.999c0 -40 13.333 -70 40 -90s77.334 -34.333 152.001 -43
c49.333 -6 89.5 -12.833 120.5 -20.5s59.833 -19.5 86.5 -35.5s46 -37.667 58 -65s18 -61.666 18 -102.999z" />
    <glyph glyph-name="scedilla" unicode="&#x15f;" horiz-adv-x="530" 
d="M262 51c104.667 2.66699 156.997 36.3291 156.997 100.996c0 8.66699 -0.5 16.334 -1.5 23.001s-3.5 12.834 -7.5 18.501s-7.16699 10.334 -9.5 14.001s-7.33301 7.16699 -15 10.5l-17.5 7.5c-4 1.66699 -11.5 3.66699 -22.5 6s-19 3.83301 -24 4.5
s-14.833 2.16699 -29.5 4.5s-25 3.83301 -31 4.5l-23 3c-14.667 2.66699 -23.5 4.16699 -26.5 4.5s-11.5 2 -25.5 5s-23.167 5.5 -27.5 7.5s-12.5 5.16699 -24.5 9.5s-20.333 8.5 -25 12.5l-19 16c-8 6.66699 -13.5 13.667 -16.5 21s-6 16 -9 26s-4.5 20.667 -4.5 32
c0 28 6 52.667 18 74s28 37.833 48 49.5s41.167 20.334 63.5 26.001s45.833 8.5 70.5 8.5c122.667 0 194.667 -51.333 216 -154l-71 -9c-16 70 -64.667 104 -146 102c-86.667 -1.33301 -130 -32.333 -130 -93c0 -11.333 2.16699 -21.166 6.5 -29.499
s9.33301 -14.833 15 -19.5s14.834 -9 27.501 -13s23.5 -6.83301 32.5 -8.5s22.833 -3.83398 41.5 -6.50098c4 -0.666992 7.5 -1.16699 10.5 -1.5s6.16699 -0.833008 9.5 -1.5l28 -4c14 -2 24 -3.5 30 -4.5s15.667 -2.83301 29 -5.5s23.333 -5.16699 30 -7.5
s15.5 -5.66602 26.5 -9.99902s19.333 -8.83301 25 -13.5s12.167 -10.667 19.5 -18s12.833 -15.166 16.5 -23.499s6.83398 -18 9.50098 -29s4 -22.833 4 -35.5c0 -52.667 -19.667 -92.334 -59 -119.001s-88 -41.667 -146 -45l-7 -25c58 -14 87 -45 87 -93
c0 -28 -10 -48.833 -30 -62.5s-46.333 -20.5 -79 -20.5s-59 5.66699 -79 17l15 44c18 -8 36.667 -12.333 56 -13c39.333 -0.666992 59 10.666 59 33.999c0 29.333 -30 47 -90 53l22 66c-58.667 3.33301 -104.167 19 -136.5 47s-52.5 63.333 -60.5 106l71 9
c16.667 -70 66.334 -104 149.001 -102z" />
    <glyph glyph-name="Scaron" unicode="&#x160;" horiz-adv-x="710" 
d="M355 -10c-168 0 -265.002 67.3311 -291.002 201.998l72 6c10 -50 32.167 -86.333 66.5 -109s85.166 -34 152.499 -34c36 0 69.667 4.83301 101 14.5s58.666 27.5 81.999 53.5s35 58 35 96c0 50 -15.5 86.833 -46.5 110.5s-87.5 40.167 -169.5 49.5
c-30 3.33301 -56.167 7.33301 -78.5 12s-45.666 11.667 -69.999 21s-44.166 20.833 -59.499 34.5s-28 31.5 -38 53.5s-15 47.333 -15 76c0 70.667 24.5 124 73.5 160s111.167 54 186.5 54c165.333 0 260.666 -65.333 285.999 -196l-72 -6
c-9.33301 48.667 -30.666 83.667 -63.999 105s-83.333 32 -150 32c-19.333 0 -38.666 -2 -57.999 -6s-39.5 -10.833 -60.5 -20.5s-38 -25.167 -51 -46.5s-19.5 -46.666 -19.5 -75.999c0 -40 13.333 -70 40 -90s77.334 -34.333 152.001 -43
c49.333 -6 89.5 -12.833 120.5 -20.5s59.833 -19.5 86.5 -35.5s46 -37.667 58 -65s18 -61.666 18 -102.999c0 -74.667 -27.833 -131.5 -83.5 -170.5s-123.5 -58.5 -203.5 -58.5zM472.998 1030h67l-150 -208h-68l-150 208h67l117 -150z" />
    <glyph glyph-name="scaron" unicode="&#x161;" horiz-adv-x="530" 
d="M262 51c104.667 2.66699 156.997 36.3271 156.997 100.994c0 8.66699 -0.5 16.334 -1.5 23.001s-3.5 12.834 -7.5 18.501s-7.16699 10.334 -9.5 14.001s-7.33301 7.16699 -15 10.5l-17.5 7.5c-4 1.66699 -11.5 3.66699 -22.5 6s-19 3.83301 -24 4.5
s-14.833 2.16699 -29.5 4.5s-25 3.83301 -31 4.5l-23 3c-14.667 2.66699 -23.5 4.16699 -26.5 4.5s-11.5 2 -25.5 5s-23.167 5.5 -27.5 7.5s-12.5 5.16699 -24.5 9.5s-20.333 8.5 -25 12.5l-19 16c-8 6.66699 -13.5 13.667 -16.5 21s-6 16 -9 26s-4.5 20.667 -4.5 32
c0 28 6 52.667 18 74s28 37.833 48 49.5s41.167 20.334 63.5 26.001s45.833 8.5 70.5 8.5c122.667 0 194.667 -51.333 216 -154l-71 -9c-16 70 -64.667 104 -146 102c-86.667 -1.33301 -130 -32.333 -130 -93c0 -11.333 2.16699 -21.166 6.5 -29.499
s9.33301 -14.833 15 -19.5s14.834 -9 27.501 -13s23.5 -6.83301 32.5 -8.5s22.833 -3.83398 41.5 -6.50098c4 -0.666992 7.5 -1.16699 10.5 -1.5s6.16699 -0.833008 9.5 -1.5l28 -4c14 -2 24 -3.5 30 -4.5s15.667 -2.83301 29 -5.5s23.333 -5.16699 30 -7.5
s15.5 -5.66602 26.5 -9.99902s19.333 -8.83301 25 -13.5s12.167 -10.667 19.5 -18s12.833 -15.166 16.5 -23.499s6.83398 -18 9.50098 -29s4 -22.833 4 -35.5c0 -38 -11.667 -70 -35 -96s-51.333 -44 -84 -54s-68.667 -15 -108 -15c-66 0 -117.167 14.333 -153.5 43
s-58.833 65.667 -67.5 111l71 9c16.667 -70 66.334 -104 149.001 -102zM376.997 799.993h67l-150 -208h-68l-150 208h67l117 -150z" />
    <glyph glyph-name="Tcommaaccent" unicode="&#x162;" horiz-adv-x="620" 
d="M345 714v-714h-70v714h-250v66h570v-66h-250zM270 -62h79l-50 -138h-67z" />
    <glyph glyph-name="tcommaaccent" unicode="&#x163;" horiz-adv-x="395" 
d="M27 468l-0.000976562 62h96v135l66 22v-157h163v-62h-163v-270c0 -58 8.66699 -96.667 26 -116s47 -29 89 -29c16.667 0 33 3 49 9l8 -64c-14.667 -5.33301 -33.667 -8 -57 -8c-37.333 0 -68.666 5.5 -93.999 16.5s-44 26.833 -56 47.5s-20.167 42.167 -24.5 64.5
s-6.5 48.833 -6.5 79.5v270h-96zM184.999 -62h79l-50 -138h-67z" />
    <glyph glyph-name="Tcaron" unicode="&#x164;" horiz-adv-x="620" 
d="M345 714v-714h-70v714h-250v66h570v-66h-250zM427 1030h67l-150 -208h-68l-150 208h67l117 -150z" />
    <glyph glyph-name="tcaron" unicode="&#x165;" horiz-adv-x="395" 
d="M27 468l-0.000976562 62h96v135l66 22v-157h163v-62h-163v-270c0 -58 8.66699 -96.667 26 -116s47 -29 89 -29c16.667 0 33 3 49 9l8 -64c-14.667 -5.33301 -33.667 -8 -57 -8c-37.333 0 -68.666 5.5 -93.999 16.5s-44 26.833 -56 47.5s-20.167 42.167 -24.5 64.5
s-6.5 48.833 -6.5 79.5v270h-96zM305.999 800h79l-75 -208h-61z" />
    <glyph glyph-name="Tbar" unicode="&#x166;" horiz-adv-x="620" 
d="M465 367h-120v-367h-70v367h-120v66h120v281h-250v66h570v-66h-250v-281h120v-66z" />
    <glyph glyph-name="tbar" unicode="&#x167;" horiz-adv-x="395" 
d="M345 299h-156.001v-101c0 -58 8.66699 -96.667 26 -116s47 -29 89 -29c16.667 0 33 3 49 9l8 -64c-14.667 -5.33301 -33.667 -8 -57 -8c-37.333 0 -68.666 5.5 -93.999 16.5s-44 26.833 -56 47.5s-20.167 42.167 -24.5 64.5s-6.5 48.833 -6.5 79.5v101h-96v62h96v107h-96
v62h96v135l66 22v-157h163v-62h-163v-107h156v-62z" />
    <glyph glyph-name="Utilde" unicode="&#x168;" horiz-adv-x="774" 
d="M387 -10c-204.667 0 -307 96.667 -307 290v500h72v-502c0 -33.333 3.5 -62.666 10.5 -87.999s18.667 -48.666 35 -69.999s40.5 -37.5 72.5 -48.5s71 -16.5 117 -16.5s85 5.5 117 16.5s56.167 27.167 72.5 48.5s28 44.666 35 69.999s10.5 54.666 10.5 87.999v502h72v-500
c0 -193.333 -102.333 -290 -307 -290zM458 860c-28.667 1.33301 -56.334 14 -83.001 38s-47.667 36.333 -63 37c-18 1.33301 -32.667 -2.33398 -44 -11.001s-18 -17.667 -20 -27l-4 -14l-55 8c16 72 58.333 106.333 127 103c28.667 -1.33301 56.334 -14 83.001 -38
s47.667 -36.333 63 -37c18 -1.33301 32.667 2.33398 44 11.001s18 17.667 20 27l4 14l55 -8c-16 -72 -58.333 -106.333 -127 -103z" />
    <glyph glyph-name="utilde" unicode="&#x169;" horiz-adv-x="574" 
d="M354 630c-28.667 1.33301 -56.334 14 -83.001 38s-47.667 36.333 -63 37c-18 1.33301 -32.667 -2.33398 -44 -11.001s-18 -17.667 -20 -27l-4 -14l-55 8c16 72 58.333 106.333 127 103c28.667 -1.33301 56.334 -14 83.001 -38s47.667 -36.333 63 -37
c18 -1.33301 32.667 2.33398 44 11.001s18 17.667 20 27l4 14l55 -8c-16 -72 -58.333 -106.333 -127 -103zM450 0l-12 90c-18 -30 -43 -54.167 -75 -72.5s-67.333 -27.5 -106 -27.5c-56.667 0 -103.5 15.167 -140.5 45.5s-55.5 71.833 -55.5 124.5v370h66v-355
c0 -38.667 12.667 -68.667 38 -90s59.333 -32 102 -32c46.667 0 86.5 16 119.5 48s50.167 66.333 51.5 103v326h66v-407l6 -123h-60z" />
    <glyph glyph-name="Umacron" unicode="&#x16a;" horiz-adv-x="774" 
d="M387 -10c-204.667 0 -307 96.667 -307 290v500h72v-502c0 -33.333 3.5 -62.666 10.5 -87.999s18.667 -48.666 35 -69.999s40.5 -37.5 72.5 -48.5s71 -16.5 117 -16.5s85 5.5 117 16.5s56.167 27.167 72.5 48.5s28 44.666 35 69.999s10.5 54.666 10.5 87.999v502h72v-500
c0 -193.333 -102.333 -290 -307 -290zM251 894v64h272v-64h-272z" />
    <glyph glyph-name="umacron" unicode="&#x16b;" horiz-adv-x="574" 
d="M146 664v64h272v-64h-272zM450 0l-12 90c-18 -30 -43 -54.167 -75 -72.5s-67.333 -27.5 -106 -27.5c-56.667 0 -103.5 15.167 -140.5 45.5s-55.5 71.833 -55.5 124.5v370h66v-355c0 -38.667 12.667 -68.667 38 -90s59.333 -32 102 -32c46.667 0 86.5 16 119.5 48
s50.167 66.333 51.5 103v326h66v-407l6 -123h-60z" />
    <glyph glyph-name="Ubreve" unicode="&#x16c;" horiz-adv-x="774" 
d="M387 -10c-204.667 0 -307 96.667 -307 290v500h72v-502c0 -33.333 3.5 -62.666 10.5 -87.999s18.667 -48.666 35 -69.999s40.5 -37.5 72.5 -48.5s71 -16.5 117 -16.5s85 5.5 117 16.5s56.167 27.167 72.5 48.5s28 44.666 35 69.999s10.5 54.666 10.5 87.999v502h72v-500
c0 -193.333 -102.333 -290 -307 -290zM509 1030h56c0 -66.667 -13.333 -116.334 -40 -149.001s-72.667 -49 -138 -49s-111.333 16.333 -138 49s-40 82.334 -40 149.001h56c0 -52 9.5 -88.667 28.5 -110s50.167 -32 93.5 -32s74.5 10.667 93.5 32s28.5 58 28.5 110z" />
    <glyph glyph-name="ubreve" unicode="&#x16d;" horiz-adv-x="574" 
d="M404 800h56c0 -66.667 -13.333 -116.334 -40 -149.001s-72.667 -49 -138 -49s-111.333 16.333 -138 49s-40 82.334 -40 149.001h56c0 -52 9.5 -88.667 28.5 -110s50.167 -32 93.5 -32s74.5 10.667 93.5 32s28.5 58 28.5 110zM450 0l-12 90c-18 -30 -43 -54.167 -75 -72.5
s-67.333 -27.5 -106 -27.5c-56.667 0 -103.5 15.167 -140.5 45.5s-55.5 71.833 -55.5 124.5v370h66v-355c0 -38.667 12.667 -68.667 38 -90s59.333 -32 102 -32c46.667 0 86.5 16 119.5 48s50.167 66.333 51.5 103v326h66v-407l6 -123h-60z" />
    <glyph glyph-name="Uring" unicode="&#x16e;" horiz-adv-x="774" 
d="M387 -10c-204.667 0 -307 96.667 -307 290v500h72v-502c0 -33.333 3.5 -62.666 10.5 -87.999s18.667 -48.666 35 -69.999s40.5 -37.5 72.5 -48.5s71 -16.5 117 -16.5s85 5.5 117 16.5s56.167 27.167 72.5 48.5s28 44.666 35 69.999s10.5 54.666 10.5 87.999v502h72v-500
c0 -193.333 -102.333 -290 -307 -290zM273 926c0 34 10.167 61.5 30.5 82.5s48.166 31.5 83.499 31.5s63.166 -10.5 83.499 -31.5s30.5 -48.5 30.5 -82.5s-10.167 -61.5 -30.5 -82.5s-48.166 -31.5 -83.499 -31.5s-63.166 10.5 -83.499 31.5s-30.5 48.5 -30.5 82.5zM331 926
c0 -17.333 5 -31.333 15 -42s23.667 -16 41 -16s31 5.33301 41 16s15 24.667 15 42s-5 31.333 -15 42s-23.667 16 -41 16s-31 -5.33301 -41 -16s-15 -24.667 -15 -42z" />
    <glyph glyph-name="uring" unicode="&#x16f;" horiz-adv-x="574" 
d="M168 696c0 34 10.167 61.5 30.5 82.5s48.166 31.5 83.499 31.5s63.166 -10.5 83.499 -31.5s30.5 -48.5 30.5 -82.5s-10.167 -61.5 -30.5 -82.5s-48.166 -31.5 -83.499 -31.5s-63.166 10.5 -83.499 31.5s-30.5 48.5 -30.5 82.5zM226 696c0 -17.333 5 -31.333 15 -42
s23.667 -16 41 -16s31 5.33301 41 16s15 24.667 15 42s-5 31.333 -15 42s-23.667 16 -41 16s-31 -5.33301 -41 -16s-15 -24.667 -15 -42zM450 0l-12 90c-18 -30 -43 -54.167 -75 -72.5s-67.333 -27.5 -106 -27.5c-56.667 0 -103.5 15.167 -140.5 45.5
s-55.5 71.833 -55.5 124.5v370h66v-355c0 -38.667 12.667 -68.667 38 -90s59.333 -32 102 -32c46.667 0 86.5 16 119.5 48s50.167 66.333 51.5 103v326h66v-407l6 -123h-60z" />
    <glyph glyph-name="Uhungarumlaut" unicode="&#x170;" horiz-adv-x="774" 
d="M387 -10c-204.667 0 -307 96.667 -307 290v500h72v-502c0 -33.333 3.5 -62.666 10.5 -87.999s18.667 -48.666 35 -69.999s40.5 -37.5 72.5 -48.5s71 -16.5 117 -16.5s85 5.5 117 16.5s56.167 27.167 72.5 48.5s28 44.666 35 69.999s10.5 54.666 10.5 87.999v502h72v-500
c0 -193.333 -102.333 -290 -307 -290zM511 1030h82l-111 -208h-65zM371 1030h82l-111 -208h-65z" />
    <glyph glyph-name="uhungarumlaut" unicode="&#x171;" horiz-adv-x="574" 
d="M411 800h82l-111 -208h-65zM271 800h82l-111 -208h-65zM450 0l-12 90c-18 -30 -43 -54.167 -75 -72.5s-67.333 -27.5 -106 -27.5c-56.667 0 -103.5 15.167 -140.5 45.5s-55.5 71.833 -55.5 124.5v370h66v-355c0 -38.667 12.667 -68.667 38 -90s59.333 -32 102 -32
c46.667 0 86.5 16 119.5 48s50.167 66.333 51.5 103v326h66v-407l6 -123h-60z" />
    <glyph glyph-name="Uogonek" unicode="&#x172;" horiz-adv-x="774" 
d="M387 -10c-204.667 0 -307 96.6689 -307 290.002v500h72v-502c0 -33.333 3.5 -62.666 10.5 -87.999s18.667 -48.666 35 -69.999s40.5 -37.5 72.5 -48.5s71 -16.5 117 -16.5s85 5.5 117 16.5s56.167 27.167 72.5 48.5s28 44.666 35 69.999s10.5 54.666 10.5 87.999v502h72
v-500c0 -151.333 -63.667 -243.666 -191 -276.999c-33.333 -8.66699 -61 -23.834 -83 -45.501s-33 -43.834 -33 -66.501c0 -30.667 18.667 -46 56 -46c10.667 0 22 1.83301 34 5.5s21.333 7.16699 28 10.5l10 5l17 -51c-26.667 -16.667 -60 -25 -100 -25
c-30 0 -55.833 7.66699 -77.5 23s-32.5 38.666 -32.5 69.999c0 39.333 21.667 75 65 107z" />
    <glyph glyph-name="uogonek" unicode="&#x173;" horiz-adv-x="574" 
d="M449 25l-10.999 82c-17.333 -35.333 -42 -63.666 -74 -84.999s-67.667 -32 -107 -32c-56.667 0 -103.5 15.167 -140.5 45.5s-55.5 71.833 -55.5 124.5v370h66v-355c0 -38.667 12.667 -68.667 38 -90s59.333 -32 102 -32c45.333 0 83.833 17.333 115.5 52
s50.167 71 55.5 109v316h66v-406l6 -124c-32 -10.667 -56.333 -26 -73 -46s-25 -41 -25 -63c0 -12.667 4.16699 -23.5 12.5 -32.5s21.166 -13.5 38.499 -13.5c10.667 0 22 1.83301 34 5.5s21.333 7.16699 28 10.5l10 5l17 -51c-26.667 -16.667 -60 -25 -100 -25
c-28 0 -52.5 8.16699 -73.5 24.5s-31.5 38.166 -31.5 65.499c0 64 34 112.333 102 145z" />
    <glyph glyph-name="Wcircumflex" unicode="&#x174;" horiz-adv-x="960" 
d="M295 276l148 504h74l148 -504l45 -169l34 170l114 503h72l-186 -790h-61l-149 509l-54 195l-54 -195l-149 -509h-61l-186 790h72l114 -503l34 -170zM664 822h-67l-117 150l-117 -150h-67l150 208h68z" />
    <glyph glyph-name="wcircumflex" unicode="&#x175;" horiz-adv-x="810" 
d="M448 326l-43 143l-43 -143l-104 -336h-79l-149 540h71l80 -312l37 -153l45 153l97 312h90l97 -312l45 -153l37 153l80 312h71l-149 -540h-79zM589 592h-67l-117 150l-117 -150h-67l150 208h68z" />
    <glyph glyph-name="Ycircumflex" unicode="&#x176;" horiz-adv-x="710" 
d="M20 780h81l162 -244l92 -141l92 141l162 244h81l-300 -445v-335h-70v335zM539 822h-67l-117 150l-117 -150h-67l150 208h68z" />
    <glyph glyph-name="ycircumflex" unicode="&#x177;" horiz-adv-x="540" 
d="M522 530l-209 -494l-96 -236h-77l93 220l-215 510h78l115 -291l59 -152l59 152l116 291h77zM454 592h-67l-117 150l-117 -150h-67l150 208h68z" />
    <glyph glyph-name="Ydieresis" unicode="&#x178;" horiz-adv-x="710" 
d="M20 780h81l162 -244l92 -141l92 141l162 244h81l-300 -445v-335h-70v335zM305 969v-86h-86v86h86zM491 969v-86h-86v86h86z" />
    <glyph glyph-name="Zacute" unicode="&#x179;" horiz-adv-x="690" 
d="M53 0v58l416 552l83 105l-269 -1h-210v66h567v-58l-416 -552l-83 -105l269 1h230v-66h-587zM404 1030h82l-111 -208h-65z" />
    <glyph glyph-name="zacute" unicode="&#x17a;" horiz-adv-x="535" 
d="M45 0v54l275 324l83 91l-146 -1h-193v62h419v-54l-275 -324l-83 -91l146 1h223v-62h-449zM321 800h82l-111 -208h-65z" />
    <glyph glyph-name="Zdotaccent" unicode="&#x17b;" horiz-adv-x="690" 
d="M53 0v58l416 552l83 105l-269 -1h-210v66h567v-58l-416 -552l-83 -105l269 1h230v-66h-587zM383 969v-86h-86v86h86z" />
    <glyph glyph-name="zdotaccent" unicode="&#x17c;" horiz-adv-x="535" 
d="M45 0v54l275 324l83 91l-146 -1h-193v62h419v-54l-275 -324l-83 -91l146 1h223v-62h-449zM300 739v-86h-86v86h86z" />
    <glyph glyph-name="Zcaron" unicode="&#x17d;" horiz-adv-x="690" 
d="M53 0v58l416 552l83 105l-269 -1h-210v66h567v-58l-416 -552l-83 -105l269 1h230v-66h-587zM457 1030h67l-150 -208h-68l-150 208h67l117 -150z" />
    <glyph glyph-name="zcaron" unicode="&#x17e;" horiz-adv-x="535" 
d="M45 0v54l275 324l83 91l-146 -1h-193v62h419v-54l-275 -324l-83 -91l146 1h223v-62h-449zM374 800h67l-150 -208h-68l-150 208h67l117 -150z" />
    <glyph glyph-name="Schwa" unicode="&#x18f;" horiz-adv-x="785" 
d="M383 55c76 0 137.168 28 183.501 84s72.166 132 77.499 228h-498c3.33301 -210 82.333 -314 237 -312zM381.001 725c-67.333 0 -118.832 -11.333 -154.499 -34s-58.5 -59 -68.5 -109l-72 6c26 134.667 124.333 202 295 202c105.333 0 188.166 -35.333 248.499 -106
s90.5 -168.667 90.5 -294s-29.833 -223.333 -89.5 -294s-142.167 -106 -247.5 -106c-111.333 0 -191.666 35.5 -240.999 106.5s-74 171.833 -74 302.5v34h576c-3.33301 96.667 -28.333 169.5 -75 218.5s-109.334 73.5 -188.001 73.5z" />
    <glyph glyph-name="florin" unicode="&#x192;" horiz-adv-x="395" 
d="M133 369h-110v62h110v135c0 30.667 2.16699 57.167 6.5 79.5s12.5 43.833 24.5 64.5s30.667 36.5 56 47.5s56.666 16.5 93.999 16.5c23.333 0 42.333 -2.66699 57 -8l-8 -64c-16 6 -32.333 9 -49 9c-42 0 -71.667 -9.66699 -89 -29s-26 -58 -26 -116v-135h149v-62h-149
v-371c0 -30.667 -2.16699 -57.167 -6.5 -79.5s-12.5 -43.833 -24.5 -64.5s-30.667 -36.5 -56 -47.5s-56.666 -16.5 -93.999 -16.5c-23.333 0 -42.333 2.66699 -57 8l8 64c16 -6 32.333 -9 49 -9c42 0 71.667 9.66699 89 29s26 58 26 116v371z" />
    <glyph glyph-name="Khook" unicode="&#x198;" horiz-adv-x="695" 
d="M610 723c-28 0 -52.332 -10.333 -72.999 -31s-37.334 -45.167 -50.001 -73.5s-31.834 -63.833 -57.501 -106.5s-54.5 -79.667 -86.5 -111l330 -401h-94l-291 354c-40 -29.333 -82.667 -53.333 -128 -72v-282h-70v780h70v-422c40.667 18.667 76.667 41 108 67
s56.166 52.167 74.499 78.5s35 53.5 50 81.5l41 78c12.333 24 25.833 45.667 40.5 65s33.334 34.5 56.001 45.5s49.334 16.5 80.001 16.5c23.333 0 42.333 -2.66699 57 -8l-8 -68c-14 6 -30.333 9 -49 9z" />
    <glyph glyph-name="khook" unicode="&#x199;" horiz-adv-x="535" 
d="M136 602v-338l101 103l163 163h95l-231 -225l268 -305h-91l-222 261l-83 -81v-180h-66v602c0 30.667 2.16699 57.167 6.5 79.5s12.5 44 24.5 65s30.5 36.833 55.5 47.5s56.167 16 93.5 16c23.333 0 42.333 -2.66699 57 -8l-8 -64c-14 6 -30.333 9 -49 9
c-42 0 -71.5 -9.5 -88.5 -28.5s-25.5 -57.833 -25.5 -116.5z" />
    <glyph glyph-name="Ezh" unicode="&#x1b7;" horiz-adv-x="700" 
d="M331 -210c-90.667 0 -162.333 18.3311 -215 54.998s-85 86 -97 148l72 6c19.333 -96 99.333 -144 240 -144c79.333 0 142 20.333 188 61s69 100 69 178c0 72.667 -20.333 129.334 -61 170.001s-105.667 63.334 -195 68.001h-31l-48 51l183 227l83 105l-241 -1h-210v66
h547v-58l-264 -327c205.333 -14.667 308 -115 308 -301c0 -97.333 -30.333 -172.333 -91 -225s-139.667 -79 -237 -79z" />
    <glyph glyph-name="Acaron" unicode="&#x1cd;" horiz-adv-x="720" 
d="M21 0l301 790h76l301 -790h-77l-92 247h-340l-92 -247h-77zM360 712l-71 -198l-75 -201h291l-74 201zM176 1030h67l117 -150l117 150h67l-150 -208h-68z" />
    <glyph glyph-name="acaron" unicode="&#x1ce;" horiz-adv-x="570" 
d="M98 800h67l117 -150l117 150h67l-150 -208h-68zM52 142c0 50.667 16.834 87.834 50.501 111.501s84.167 40.5 151.5 50.5l182 27v25c0 44 -13 75.167 -39 93.5s-64.333 28.166 -115 29.499c-42.667 0.666992 -74.5 -7.5 -95.5 -24.5s-35.5 -43.167 -43.5 -78.5l-69 10
c10.667 50 31.667 88.167 63 114.5s79.666 39.5 144.999 39.5c69.333 0 123 -15.833 161 -47.5s57 -78.5 57 -140.5v-228l6 -124h-58l-12 91c-16 -30 -42.667 -54.333 -80 -73s-77 -28 -119 -28c-60.667 0 -106.667 13.167 -138 39.5s-47 63.833 -47 112.5zM120.001 142
c0 -60.667 39 -91.001 117 -91.001c53.333 0 99.5 16.333 138.5 49s59.167 67.334 60.5 104.001v70l-183 -29c-44 -7.33301 -77.167 -17.833 -99.5 -31.5s-33.5 -37.5 -33.5 -71.5z" />
    <glyph glyph-name="Icaron" unicode="&#x1cf;" horiz-adv-x="290" 
d="M180 780v-780h-70v780h70zM-39 1030h67l117 -150l117 150h67l-150 -208h-68z" />
    <glyph glyph-name="icaron" unicode="&#x1d0;" horiz-adv-x="250" 
d="M92 0v530h66v-530h-66zM-59 800h67l117 -150l117 150h67l-150 -208h-68z" />
    <glyph glyph-name="Ocaron" unicode="&#x1d1;" horiz-adv-x="790" 
d="M395 -10c-111.333 0 -194.166 35 -248.499 105s-81.5 168.333 -81.5 295s27.167 225 81.5 295s137.166 105 248.499 105s194.166 -35 248.499 -105s81.5 -168.333 81.5 -295s-27.167 -225 -81.5 -295s-137.166 -105 -248.499 -105zM395 725
c-170.667 0 -256 -111.667 -256 -335s85.333 -335 256 -335s256 111.667 256 335s-85.333 335 -256 335zM211 1030h67l117 -150l117 150h67l-150 -208h-68z" />
    <glyph glyph-name="ocaron" unicode="&#x1d2;" horiz-adv-x="578" 
d="M289 -10c-75.333 0 -134 23.333 -176 70s-63 115 -63 205s21 158.333 63 205s100.667 70 176 70s134 -23.333 176 -70s63 -115 63 -205s-21 -158.333 -63 -205s-100.667 -70 -176 -70zM289 478c-113.333 0 -170 -71 -170 -213s56.667 -213 170 -213s170 71 170 213
s-56.667 213 -170 213zM105 800h67l117 -150l117 150h67l-150 -208h-68z" />
    <glyph glyph-name="Ucaron" unicode="&#x1d3;" horiz-adv-x="774" 
d="M387 -10c-204.667 0 -307 96.667 -307 290v500h72v-502c0 -33.333 3.5 -62.666 10.5 -87.999s18.667 -48.666 35 -69.999s40.5 -37.5 72.5 -48.5s71 -16.5 117 -16.5s85 5.5 117 16.5s56.167 27.167 72.5 48.5s28 44.666 35 69.999s10.5 54.666 10.5 87.999v502h72v-500
c0 -193.333 -102.333 -290 -307 -290zM203 1030h67l117 -150l117 150h67l-150 -208h-68z" />
    <glyph glyph-name="ucaron" unicode="&#x1d4;" horiz-adv-x="574" 
d="M98 800h67l117 -150l117 150h67l-150 -208h-68zM450 0l-12 90c-18 -30 -43 -54.167 -75 -72.5s-67.333 -27.5 -106 -27.5c-56.667 0 -103.5 15.167 -140.5 45.5s-55.5 71.833 -55.5 124.5v370h66v-355c0 -38.667 12.667 -68.667 38 -90s59.333 -32 102 -32
c46.667 0 86.5 16 119.5 48s50.167 66.333 51.5 103v326h66v-407l6 -123h-60z" />
    <glyph glyph-name="Adieresismacron" unicode="&#x1de;" horiz-adv-x="720" 
d="M21 0l301 790h76l301 -790h-77l-92 247h-340l-92 -247h-77zM360 712l-71 -198l-75 -201h291l-74 201zM310 929v-86h-86v86h86zM496 929v-86h-86v86h86zM224 994v64h272v-64h-272z" />
    <glyph glyph-name="adieresismacron" unicode="&#x1df;" horiz-adv-x="570" 
d="M232 699v-86h-86v86h86zM418 699v-86h-86v86h86zM52 142c0 50.667 16.834 87.834 50.501 111.501s84.167 40.5 151.5 50.5l182 27v25c0 44 -13 75.167 -39 93.5s-64.333 28.166 -115 29.499c-42.667 0.666992 -74.5 -7.5 -95.5 -24.5s-35.5 -43.167 -43.5 -78.5l-69 10
c10.667 50 31.667 88.167 63 114.5s79.666 39.5 144.999 39.5c69.333 0 123 -15.833 161 -47.5s57 -78.5 57 -140.5v-228l6 -124h-58l-12 91c-16 -30 -42.667 -54.333 -80 -73s-77 -28 -119 -28c-60.667 0 -106.667 13.167 -138 39.5s-47 63.833 -47 112.5zM120.001 142
c0 -60.667 39 -91.001 117 -91.001c53.333 0 99.5 16.333 138.5 49s59.167 67.334 60.5 104.001v70l-183 -29c-44 -7.33301 -77.167 -17.833 -99.5 -31.5s-33.5 -37.5 -33.5 -71.5zM146.001 763.999v64h272v-64h-272z" />
    <glyph glyph-name="AEmacron" unicode="&#x1e2;" horiz-adv-x="1060" 
d="M574 0l-47 247h-306l-129 -247h-79l418 780h544v-66h-467l54 -281h373v-66h-360l58 -301h362v-66h-421zM446 674l-190 -361h258l-41 217zM364 894v64h272v-64h-272z" />
    <glyph glyph-name="aemacron" unicode="&#x1e3;" horiz-adv-x="954" 
d="M340 664v64h272v-64h-272zM675 540c149.333 0 224.004 -91.333 224.004 -274v-27h-395c2.66699 -64.667 19.167 -112.167 49.5 -142.5s71.166 -45.5 122.499 -45.5c82.667 -2 132.334 32 149.001 102l71 -9c-8.66699 -45.333 -31.167 -82.333 -67.5 -111
s-87.5 -43 -153.5 -43c-102.667 0 -173.334 42 -212.001 126c-24.667 -45.333 -57.334 -77.666 -98.001 -96.999s-83.334 -29 -128.001 -29c-60.667 0 -106.667 13.167 -138 39.5s-47 63.833 -47 112.5c0 52 19.167 91 57.5 117s89.833 39 154.5 39h170v58
c0 44 -12.667 75.167 -38 93.5s-63.333 28.166 -114 29.499c-42.667 0.666992 -74.5 -7.5 -95.5 -24.5s-35.5 -43.167 -43.5 -78.5l-69 10c10.667 50 31.667 88.167 63 114.5s79.666 39.5 144.999 39.5c98.667 0 164.334 -32.333 197.001 -97
c43.333 64.667 108.666 97 195.999 97zM675.004 480c-50.667 0 -91 -14.833 -121 -44.5s-46.667 -75.5 -50 -137.5h323c-2 123.333 -52.667 184 -152 182zM122.004 142c0 -60 38.335 -90 115.002 -90c53.333 0 99.166 16.167 137.499 48.5s58.166 66.833 59.499 103.5v35
l-171 1c-94 0 -141 -32.667 -141 -98z" />
    <glyph glyph-name="Gstroke" unicode="&#x1e4;" horiz-adv-x="814" 
d="M689 182l0.000976562 -111.999c-48.667 -30.667 -95.167 -51.834 -139.5 -63.501s-95.833 -17.167 -154.5 -16.5c-112 0.666992 -195 36 -249 106s-81 168 -81 294c0 126.667 27.167 225 81.5 295s137.166 105 248.499 105c168 0 265.333 -68 292 -204l-72 -6
c-10 50 -32.333 86.667 -67 110s-85.667 35 -153 35c-170.667 0 -256 -111.667 -256 -335s85.333 -335 256 -335c93.333 0 168 19.667 224 59v68h-224v66h224v89h-170v66h240v-155h120v-66h-120z" />
    <glyph glyph-name="gstroke" unicode="&#x1e5;" horiz-adv-x="599" 
d="M285 -153c82 2 136.332 24.667 162.999 68h-182v62h198v133c-18 -30 -42.833 -54.167 -74.5 -72.5s-66.5 -27.5 -104.5 -27.5c-74.667 0 -132.5 22.667 -173.5 68s-61.5 111 -61.5 197s20.5 151.667 61.5 197s98.833 68 173.5 68c38 0 72.667 -9.16699 104 -27.5
s56 -42.833 74 -73.5l12 91h60l-6 -124v-429h55v-62h-66c-14.667 -40.667 -42.167 -71.667 -82.5 -93s-90.5 -32 -150.5 -32c-134 0 -209 51.333 -225 154l70 9c12.667 -72.667 64.334 -108 155.001 -106zM117.999 275c0 -66.667 14.833 -117.167 44.5 -151.5
s71.167 -51.5 124.5 -51.5c50.667 0 92.5 16 125.5 48s50.167 66.667 51.5 104v102c-1.33301 37.333 -18.5 72 -51.5 104s-74.833 48 -125.5 48c-53.333 0 -94.833 -17 -124.5 -51s-44.5 -84.667 -44.5 -152z" />
    <glyph glyph-name="Gcaron" unicode="&#x1e6;" horiz-adv-x="774" 
d="M395 55c93.333 0 168.001 19.668 224.001 59.001v223h-170v66h240v-333c-48.667 -30.667 -95.167 -51.834 -139.5 -63.501s-95.833 -17.167 -154.5 -16.5c-112 0.666992 -195 36 -249 106s-81 168 -81 294c0 126.667 27.167 225 81.5 295s137.166 105 248.499 105
c168 0 265.333 -68 292 -204l-72 -6c-10 50 -32.333 86.667 -67 110s-85.667 35 -153 35c-170.667 0 -256 -111.667 -256 -335s85.333 -335 256 -335zM502.001 1030h67l-150 -208h-68l-150 208h67l117 -150z" />
    <glyph glyph-name="gcaron" unicode="&#x1e7;" horiz-adv-x="599" 
d="M101 800h67l117 -150l117 150h67l-150 -208h-68zM285 -153c53.333 1.33301 96.499 12.5 129.499 33.5s49.5 53.167 49.5 96.5v133c-18 -30 -42.833 -54.167 -74.5 -72.5s-66.5 -27.5 -104.5 -27.5c-74.667 0 -132.5 22.667 -173.5 68s-61.5 111 -61.5 197
s20.5 151.667 61.5 197s98.833 68 173.5 68c38 0 72.667 -9.16699 104 -27.5s56 -42.833 74 -73.5l12 91h60l-6 -124v-422c0 -62 -21.5 -109.833 -64.5 -143.5s-102.833 -50.5 -179.5 -50.5c-134 0 -209 51.333 -225 154l70 9c12.667 -72.667 64.334 -108 155.001 -106z
M117.999 275c0 -66.667 14.833 -117.167 44.5 -151.5s71.167 -51.5 124.5 -51.5c50.667 0 92.5 16 125.5 48s50.167 66.667 51.5 104v102c-1.33301 37.333 -18.5 72 -51.5 104s-74.833 48 -125.5 48c-53.333 0 -94.833 -17 -124.5 -51s-44.5 -84.667 -44.5 -152z" />
    <glyph glyph-name="Kcaron" unicode="&#x1e8;" horiz-adv-x="695" 
d="M160 780v-423l391 423h97l-328 -350l353 -430h-94l-309 376l-110 -118v-258h-70v780h70zM462 1030h67l-150 -208h-68l-150 208h67l117 -150z" />
    <glyph glyph-name="kcaron" unicode="&#x1e9;" horiz-adv-x="535" 
d="M136 0h-66v800h66v-536l101 103l163 163h95l-231 -225l268 -305h-91l-222 261l-83 -81v-180zM-79 1030h67l117 -150l117 150h67l-150 -208h-68z" />
    <glyph glyph-name="Oogonek" unicode="&#x1ea;" horiz-adv-x="790" 
d="M725 390c0 -224.667 -80.332 -354.998 -240.999 -390.998c-31.333 -7.33301 -58.666 -21.333 -81.999 -42s-35 -42.667 -35 -66c0 -30.667 18.667 -46 56 -46c10.667 0 22 1.83301 34 5.5s21.333 7.16699 28 10.5l10 5l17 -51c-26.667 -16.667 -60 -25 -100 -25
c-30 0 -55.833 7.66699 -77.5 23s-32.5 38.666 -32.5 69.999c0 39.333 21.667 75.333 65 108c-102 6 -177.833 43.667 -227.5 113s-74.5 164.666 -74.5 285.999c0 126.667 27.167 225 81.5 295s137.166 105 248.499 105s194.166 -35 248.499 -105s81.5 -168.333 81.5 -295z
M395.001 725.002c-170.667 0 -256 -111.667 -256 -335s85.333 -335 256 -335s256 111.667 256 335s-85.333 335 -256 335z" />
    <glyph glyph-name="oogonek" unicode="&#x1eb;" horiz-adv-x="578" 
d="M528 265c0 -145.333 -52.667 -233.331 -158 -263.998c-31.333 -9.33301 -57.333 -24.5 -78 -45.5s-31 -42.5 -31 -64.5c0 -30.667 18.667 -46 56 -46c10.667 0 22 1.83301 34 5.5s21.333 7.16699 28 10.5l10 5l17 -51c-26.667 -16.667 -60 -25 -100 -25
c-30 0 -55.833 7.66699 -77.5 23s-32.5 38.666 -32.5 69.999c0 39.333 22 75.333 66 108c-67.333 5.33301 -119.5 31.166 -156.5 77.499s-55.5 111.833 -55.5 196.5c0 90 21 158.333 63 205s100.667 70 176 70s134 -23.333 176 -70s63 -115 63 -205zM289 478.002
c-113.333 0 -170 -71 -170 -213s56.667 -213 170 -213s170 71 170 213s-56.667 213 -170 213z" />
    <glyph glyph-name="uni004F02DB00AF" unicode="&#x1ec;" horiz-adv-x="790" 
d="M725 390c0 -224.667 -80.332 -354.998 -240.999 -390.998c-31.333 -7.33301 -58.666 -21.333 -81.999 -42s-35 -42.667 -35 -66c0 -30.667 18.667 -46 56 -46c10.667 0 22 1.83301 34 5.5s21.333 7.16699 28 10.5l10 5l17 -51c-26.667 -16.667 -60 -25 -100 -25
c-30 0 -55.833 7.66699 -77.5 23s-32.5 38.666 -32.5 69.999c0 39.333 21.667 75.333 65 108c-102 6 -177.833 43.667 -227.5 113s-74.5 164.666 -74.5 285.999c0 126.667 27.167 225 81.5 295s137.166 105 248.499 105s194.166 -35 248.499 -105s81.5 -168.333 81.5 -295z
M395.001 725.002c-170.667 0 -256 -111.667 -256 -335s85.333 -335 256 -335s256 111.667 256 335s-85.333 335 -256 335zM259.001 894.002v64h272v-64h-272z" />
    <glyph glyph-name="oogonekmacron" unicode="&#x1ed;" horiz-adv-x="578" 
d="M528 265c0 -145.333 -52.667 -233.331 -158 -263.998c-31.333 -9.33301 -57.333 -24.5 -78 -45.5s-31 -42.5 -31 -64.5c0 -30.667 18.667 -46 56 -46c10.667 0 22 1.83301 34 5.5s21.333 7.16699 28 10.5l10 5l17 -51c-26.667 -16.667 -60 -25 -100 -25
c-30 0 -55.833 7.66699 -77.5 23s-32.5 38.666 -32.5 69.999c0 39.333 22 75.333 66 108c-67.333 5.33301 -119.5 31.166 -156.5 77.499s-55.5 111.833 -55.5 196.5c0 90 21 158.333 63 205s100.667 70 176 70s134 -23.333 176 -70s63 -115 63 -205zM289 478.002
c-113.333 0 -170 -71 -170 -213s56.667 -213 170 -213s170 71 170 213s-56.667 213 -170 213zM153 664.002v64h272v-64h-272z" />
    <glyph glyph-name="Ezhcaron" unicode="&#x1ee;" horiz-adv-x="700" 
d="M331 -210c-90.667 0 -162.333 18.3311 -215 54.998s-85 86 -97 148l72 6c19.333 -96 99.333 -144 240 -144c79.333 0 142 20.333 188 61s69 100 69 178c0 72.667 -20.333 129.334 -61 170.001s-105.667 63.334 -195 68.001h-31l-48 51l183 227l83 105l-241 -1h-210v66
h547v-58l-264 -327c205.333 -14.667 308 -115 308 -301c0 -97.333 -30.333 -172.333 -91 -225s-139.667 -79 -237 -79zM447.001 1030h67l-150 -208h-68l-150 208h67l117 -150z" />
    <glyph glyph-name="ezhcaron" unicode="&#x1ef;" horiz-adv-x="535" 
d="M260 -210c-72 0 -126 14.167 -162 42.5s-57.667 65.5 -65 111.5l67 10c12.667 -73.333 66 -109 160 -107c50.667 1.33301 90.667 17 120 47s44 72 44 126c0 53.333 -14.5 94.5 -43.5 123.5s-67.833 44.167 -116.5 45.5c-44.667 0.666992 -79.667 -8.33301 -105 -27
l-40 43l188 188l78 76l-143 -1h-188v62h419v-54l-226 -226h18c64.667 0 118.667 -20.167 162 -60.5s65 -96.833 65 -169.5c0 -71.333 -23.167 -127.5 -69.5 -168.5s-100.5 -61.5 -162.5 -61.5zM369 800h67l-150 -208h-68l-150 208h67l117 -150z" />
    <glyph glyph-name="jcaron" unicode="&#x1f0;" horiz-adv-x="250" 
d="M-17 -147c42 0 71.5 9.5 88.5 28.5s25.5 57.833 25.5 116.5v532h66v-532c0 -30.667 -2.16699 -57.167 -6.5 -79.5s-12.5 -44 -24.5 -65s-30.5 -36.833 -55.5 -47.5s-56.167 -16 -93.5 -16c-23.333 0 -42.333 2.66699 -57 8l8 64c14 -6 30.333 -9 49 -9zM-54 800h67
l117 -150l117 150h67l-150 -208h-68z" />
    <glyph glyph-name="jcaron" unicode="&#xe10c;" horiz-adv-x="250" 
d="M-17 -147c42 0 71.5 9.5 88.5 28.5s25.5 57.833 25.5 116.5v532h66v-532c0 -30.667 -2.16699 -57.167 -6.5 -79.5s-12.5 -44 -24.5 -65s-30.5 -36.833 -55.5 -47.5s-56.167 -16 -93.5 -16c-23.333 0 -42.333 2.66699 -57 8l8 64c14 -6 30.333 -9 49 -9zM-54 800h67
l117 -150l117 150h67l-150 -208h-68z" />
    <glyph glyph-name="Gacute" unicode="&#x1f4;" horiz-adv-x="774" 
d="M395 55c93.333 0 168.001 19.668 224.001 59.001v223h-170v66h240v-333c-48.667 -30.667 -95.167 -51.834 -139.5 -63.501s-95.833 -17.167 -154.5 -16.5c-112 0.666992 -195 36 -249 106s-81 168 -81 294c0 126.667 27.167 225 81.5 295s137.166 105 248.499 105
c168 0 265.333 -68 292 -204l-72 -6c-10 50 -32.333 86.667 -67 110s-85.667 35 -153 35c-170.667 0 -256 -111.667 -256 -335s85.333 -335 256 -335zM449.001 1030h82l-111 -208h-65z" />
    <glyph glyph-name="gacute" unicode="&#x1f5;" horiz-adv-x="599" 
d="M349 800h82l-111 -208h-65zM285 -153c53.333 1.33301 96.499 12.5 129.499 33.5s49.5 53.167 49.5 96.5v133c-18 -30 -42.833 -54.167 -74.5 -72.5s-66.5 -27.5 -104.5 -27.5c-74.667 0 -132.5 22.667 -173.5 68s-61.5 111 -61.5 197s20.5 151.667 61.5 197
s98.833 68 173.5 68c38 0 72.667 -9.16699 104 -27.5s56 -42.833 74 -73.5l12 91h60l-6 -124v-422c0 -62 -21.5 -109.833 -64.5 -143.5s-102.833 -50.5 -179.5 -50.5c-134 0 -209 51.333 -225 154l70 9c12.667 -72.667 64.334 -108 155.001 -106zM117.999 275
c0 -66.667 14.833 -117.167 44.5 -151.5s71.167 -51.5 124.5 -51.5c50.667 0 92.5 16 125.5 48s50.167 66.667 51.5 104v102c-1.33301 37.333 -18.5 72 -51.5 104s-74.833 48 -125.5 48c-53.333 0 -94.833 -17 -124.5 -51s-44.5 -84.667 -44.5 -152z" />
    <glyph glyph-name="Ngrave" unicode="&#x1f8;" horiz-adv-x="750" 
d="M597 0l-348 515l-92 142l4 -267v-390h-71v780h63l348 -515l92 -142l-4 267v390h71v-780h-63zM229 1030h82l94 -208h-65z" />
    <glyph glyph-name="ngrave" unicode="&#x1f9;" horiz-adv-x="574" 
d="M161 800h82l94 -208h-65zM124 530l12 -90c18 30 43 54.167 75 72.5s67.333 27.5 106 27.5c56.667 0 103.5 -15.167 140.5 -45.5s55.5 -71.833 55.5 -124.5v-370h-66v355c0 38.667 -12.667 68.667 -38 90s-59.333 32 -102 32c-46.667 0 -86.5 -16 -119.5 -48
s-50.167 -66.333 -51.5 -103v-326h-66v407l-6 123h60z" />
    <glyph glyph-name="Aringacute" unicode="&#x1fa;" horiz-adv-x="720" 
d="M21 0l301 790h76l301 -790h-77l-92 247h-340l-92 -247h-77zM360 712l-71 -198l-75 -201h291l-74 201zM343 1134h76.999l-60 -94c35.333 0 63.166 -10.5 83.499 -31.5s30.5 -48.5 30.5 -82.5s-10.167 -61.5 -30.5 -82.5s-48.166 -31.5 -83.499 -31.5
s-63.166 10.5 -83.499 31.5s-30.5 48.5 -30.5 82.5c0 26 6 48 18 66zM303.999 926c0 -17.333 5 -31.333 15 -42s23.667 -16 41 -16s31 5.33301 41 16s15 24.667 15 42s-5 31.333 -15 42s-23.667 16 -41 16s-31 -5.33301 -41 -16s-15 -24.667 -15 -42z" />
    <glyph glyph-name="aringacute" unicode="&#x1fb;" horiz-adv-x="570" 
d="M265 904h76.999l-60 -94c35.333 0 63.166 -10.5 83.499 -31.5s30.5 -48.5 30.5 -82.5s-10.167 -61.5 -30.5 -82.5s-48.166 -31.5 -83.499 -31.5s-63.166 10.5 -83.499 31.5s-30.5 48.5 -30.5 82.5c0 26 6 48 18 66zM225.999 696c0 -17.333 5 -31.333 15 -42
s23.667 -16 41 -16s31 5.33301 41 16s15 24.667 15 42s-5 31.333 -15 42s-23.667 16 -41 16s-31 -5.33301 -41 -16s-15 -24.667 -15 -42zM51.999 142c0 50.667 16.834 87.834 50.501 111.501s84.167 40.5 151.5 50.5l182 27v25c0 44 -13 75.167 -39 93.5
s-64.333 28.166 -115 29.499c-42.667 0.666992 -74.5 -7.5 -95.5 -24.5s-35.5 -43.167 -43.5 -78.5l-69 10c10.667 50 31.667 88.167 63 114.5s79.666 39.5 144.999 39.5c69.333 0 123 -15.833 161 -47.5s57 -78.5 57 -140.5v-228l6 -124h-58l-12 91
c-16 -30 -42.667 -54.333 -80 -73s-77 -28 -119 -28c-60.667 0 -106.667 13.167 -138 39.5s-47 63.833 -47 112.5zM120 142c0 -60.667 39 -91.001 117 -91.001c53.333 0 99.5 16.333 138.5 49s59.167 67.334 60.5 104.001v70l-183 -29
c-44 -7.33301 -77.167 -17.833 -99.5 -31.5s-33.5 -37.5 -33.5 -71.5z" />
    <glyph glyph-name="AEacute" unicode="&#x1fc;" horiz-adv-x="1060" 
d="M574 0l-47 247h-306l-129 -247h-79l418 780h544v-66h-467l54 -281h373v-66h-360l58 -301h362v-66h-421zM446 674l-190 -361h258l-41 217zM564 1030h82l-111 -208h-65z" />
    <glyph glyph-name="aeacute" unicode="&#x1fd;" horiz-adv-x="954" 
d="M540 800h82l-111 -208h-65zM675 540c149.333 0 224.004 -91.333 224.004 -274v-27h-395c2.66699 -64.667 19.167 -112.167 49.5 -142.5s71.166 -45.5 122.499 -45.5c82.667 -2 132.334 32 149.001 102l71 -9c-8.66699 -45.333 -31.167 -82.333 -67.5 -111
s-87.5 -43 -153.5 -43c-102.667 0 -173.334 42 -212.001 126c-24.667 -45.333 -57.334 -77.666 -98.001 -96.999s-83.334 -29 -128.001 -29c-60.667 0 -106.667 13.167 -138 39.5s-47 63.833 -47 112.5c0 52 19.167 91 57.5 117s89.833 39 154.5 39h170v58
c0 44 -12.667 75.167 -38 93.5s-63.333 28.166 -114 29.499c-42.667 0.666992 -74.5 -7.5 -95.5 -24.5s-35.5 -43.167 -43.5 -78.5l-69 10c10.667 50 31.667 88.167 63 114.5s79.666 39.5 144.999 39.5c98.667 0 164.334 -32.333 197.001 -97
c43.333 64.667 108.666 97 195.999 97zM675.004 480c-50.667 0 -91 -14.833 -121 -44.5s-46.667 -75.5 -50 -137.5h323c-2 123.333 -52.667 184 -152 182zM122.004 142c0 -60 38.335 -90 115.002 -90c53.333 0 99.166 16.167 137.499 48.5s58.166 66.833 59.499 103.5v35
l-171 1c-94 0 -141 -32.667 -141 -98z" />
    <glyph glyph-name="Oslashacute" unicode="&#x1fe;" horiz-adv-x="790" 
d="M395 -10c-78 0 -142 17.333 -192 52l-28 -42h-68l52 80c-62.667 66.667 -94 170 -94 310c0 126.667 27.167 225 81.5 295s137.166 105 248.499 105c76.667 0 141 -17.667 193 -53l28 43h68l-53 -81c62.667 -68.667 94 -171.667 94 -309
c0 -126.667 -27.167 -225 -81.5 -295s-137.166 -105 -248.499 -105zM395 725c-170.667 0 -256 -111.667 -256 -335c0 -110 20 -192.667 60 -248l351 537c-40 30.667 -91.667 46 -155 46zM651 390c0 109.333 -20 191.667 -60 247l-351 -537c39.333 -30 91 -45 155 -45
c170.667 0 256 111.667 256 335zM459 1030h82l-111 -208h-65z" />
    <glyph glyph-name="oslashacute" unicode="&#x1ff;" horiz-adv-x="578" 
d="M289 -10c-48.667 0 -91 10 -127 30l-13 -20h-68l36 55c-44.667 48 -67 118 -67 210c0 90 21 158.333 63 205s100.667 70 176 70c50 0 92.333 -10.333 127 -31l14 21h68l-37 -56c44.667 -48 67 -117.667 67 -209c0 -90 -21 -158.333 -63 -205s-100.667 -70 -176 -70z
M289 478c-113.333 0 -169.999 -71 -169.999 -213c0 -66 12.333 -116.333 37 -151l225 341c-24.667 15.333 -55.334 23 -92.001 23zM459.001 265c0 65.333 -12.333 115.333 -37 150l-224 -341c24.667 -14.667 55 -22 91 -22c113.333 0 170 71 170 213zM353.001 800h82
l-111 -208h-65z" />
    <glyph glyph-name="Adoublegrave" unicode="&#x200;" horiz-adv-x="720" 
d="M21 0l301 790h76l301 -790h-77l-92 247h-340l-92 -247h-77zM360 712l-71 -198l-75 -201h291l-74 201zM289 1030h82l94 -208h-65zM149 1030h82l94 -208h-65z" />
    <glyph glyph-name="edoublegrave" unicode="&#x201;" horiz-adv-x="570" 
d="M291 540c149.333 0 224 -91.333 224 -274v-27h-395c2.66699 -64.667 19.167 -112.167 49.5 -142.5s71.166 -45.5 122.499 -45.5c82.667 -2 132.334 32 149.001 102l71 -9c-8.66699 -45.333 -31.167 -82.333 -67.5 -111s-87.5 -43 -153.5 -43
c-75.333 0 -134.333 23.333 -177 70s-64 115 -64 205s21.333 158.333 64 205s101.667 70 177 70zM291 480c-50.667 0 -91 -14.833 -121 -44.5s-46.667 -75.5 -50 -137.5h323c-2 123.333 -52.667 184 -152 182zM220 800h82l94 -208h-65zM80 800h82l94 -208h-65z" />
    <glyph glyph-name="edoublegrave" unicode="&#x205;" horiz-adv-x="570" 
d="M291 540c149.333 0 224 -91.333 224 -274v-27h-395c2.66699 -64.667 19.167 -112.167 49.5 -142.5s71.166 -45.5 122.499 -45.5c82.667 -2 132.334 32 149.001 102l71 -9c-8.66699 -45.333 -31.167 -82.333 -67.5 -111s-87.5 -43 -153.5 -43
c-75.333 0 -134.333 23.333 -177 70s-64 115 -64 205s21.333 158.333 64 205s101.667 70 177 70zM291 480c-50.667 0 -91 -14.833 -121 -44.5s-46.667 -75.5 -50 -137.5h323c-2 123.333 -52.667 184 -152 182zM220 800h82l94 -208h-65zM80 800h82l94 -208h-65z" />
    <glyph glyph-name="Ainvertedbreve" unicode="&#x202;" horiz-adv-x="720" 
d="M21 0l301 790h76l301 -790h-77l-92 247h-340l-92 -247h-77zM360 712l-71 -198l-75 -201h291l-74 201zM538 822h-56c0 52 -9.5 88.667 -28.5 110s-50.167 32 -93.5 32s-74.5 -10.667 -93.5 -32s-28.5 -58 -28.5 -110h-56c0 66.667 13.333 116.334 40 149.001
s72.667 49 138 49s111.333 -16.333 138 -49s40 -82.334 40 -149.001z" />
    <glyph glyph-name="ainvertedbreve" unicode="&#x203;" horiz-adv-x="570" 
d="M460 592h-56c0 52 -9.5 88.667 -28.5 110s-50.167 32 -93.5 32s-74.5 -10.667 -93.5 -32s-28.5 -58 -28.5 -110h-56c0 66.667 13.333 116.334 40 149.001s72.667 49 138 49s111.333 -16.333 138 -49s40 -82.334 40 -149.001zM52 142
c0 50.667 16.834 87.834 50.501 111.501s84.167 40.5 151.5 50.5l182 27v25c0 44 -13 75.167 -39 93.5s-64.333 28.166 -115 29.499c-42.667 0.666992 -74.5 -7.5 -95.5 -24.5s-35.5 -43.167 -43.5 -78.5l-69 10c10.667 50 31.667 88.167 63 114.5s79.666 39.5 144.999 39.5
c69.333 0 123 -15.833 161 -47.5s57 -78.5 57 -140.5v-228l6 -124h-58l-12 91c-16 -30 -42.667 -54.333 -80 -73s-77 -28 -119 -28c-60.667 0 -106.667 13.167 -138 39.5s-47 63.833 -47 112.5zM120.001 142c0 -60.667 39 -91.001 117 -91.001
c53.333 0 99.5 16.333 138.5 49s59.167 67.334 60.5 104.001v70l-183 -29c-44 -7.33301 -77.167 -17.833 -99.5 -31.5s-33.5 -37.5 -33.5 -71.5z" />
    <glyph glyph-name="Edoublegrave" unicode="&#x204;" horiz-adv-x="695" 
d="M90 780h520v-66h-450v-281h410v-66h-410v-301h470v-66h-540v780zM279 1030h82l94 -208h-65zM139 1030h82l94 -208h-65z" />
    <glyph glyph-name="Einvertedbreve" unicode="&#x206;" horiz-adv-x="695" 
d="M90 780h520v-66h-450v-281h410v-66h-410v-301h470v-66h-540v780zM528 822h-56c0 52 -9.5 88.667 -28.5 110s-50.167 32 -93.5 32s-74.5 -10.667 -93.5 -32s-28.5 -58 -28.5 -110h-56c0 66.667 13.333 116.334 40 149.001s72.667 49 138 49s111.333 -16.333 138 -49
s40 -82.334 40 -149.001z" />
    <glyph glyph-name="einvertedbreve" unicode="&#x207;" horiz-adv-x="570" 
d="M291 540c149.333 0 224 -91.333 224 -274v-27h-395c2.66699 -64.667 19.167 -112.167 49.5 -142.5s71.166 -45.5 122.499 -45.5c82.667 -2 132.334 32 149.001 102l71 -9c-8.66699 -45.333 -31.167 -82.333 -67.5 -111s-87.5 -43 -153.5 -43
c-75.333 0 -134.333 23.333 -177 70s-64 115 -64 205s21.333 158.333 64 205s101.667 70 177 70zM291 480c-50.667 0 -91 -14.833 -121 -44.5s-46.667 -75.5 -50 -137.5h323c-2 123.333 -52.667 184 -152 182zM469 592h-56c0 52 -9.5 88.667 -28.5 110s-50.167 32 -93.5 32
s-74.5 -10.667 -93.5 -32s-28.5 -58 -28.5 -110h-56c0 66.667 13.333 116.334 40 149.001s72.667 49 138 49s111.333 -16.333 138 -49s40 -82.334 40 -149.001z" />
    <glyph glyph-name="Idoublegrave" unicode="&#x208;" horiz-adv-x="290" 
d="M180 780v-780h-70v780h70zM74 1030h82l94 -208h-65zM-66 1030h82l94 -208h-65z" />
    <glyph glyph-name="idoublegrave" unicode="&#x209;" horiz-adv-x="250" 
d="M92 0v530h66v-530h-66zM54 800h82l94 -208h-65zM-86 800h82l94 -208h-65z" />
    <glyph glyph-name="Iinvertedbreve" unicode="&#x20a;" horiz-adv-x="290" 
d="M180 780v-780h-70v780h70zM323 822h-56c0 52 -9.5 88.667 -28.5 110s-50.167 32 -93.5 32s-74.5 -10.667 -93.5 -32s-28.5 -58 -28.5 -110h-56c0 66.667 13.333 116.334 40 149.001s72.667 49 138 49s111.333 -16.333 138 -49s40 -82.334 40 -149.001z" />
    <glyph glyph-name="iinvertedbreve" unicode="&#x20b;" horiz-adv-x="250" 
d="M92 0v530h66v-530h-66zM303 592h-56c0 52 -9.5 88.667 -28.5 110s-50.167 32 -93.5 32s-74.5 -10.667 -93.5 -32s-28.5 -58 -28.5 -110h-56c0 66.667 13.333 116.334 40 149.001s72.667 49 138 49s111.333 -16.333 138 -49s40 -82.334 40 -149.001z" />
    <glyph glyph-name="Odoublegrave" unicode="&#x20c;" horiz-adv-x="790" 
d="M395 -10c-111.333 0 -194.166 35 -248.499 105s-81.5 168.333 -81.5 295s27.167 225 81.5 295s137.166 105 248.499 105s194.166 -35 248.499 -105s81.5 -168.333 81.5 -295s-27.167 -225 -81.5 -295s-137.166 -105 -248.499 -105zM395 725
c-170.667 0 -256 -111.667 -256 -335s85.333 -335 256 -335s256 111.667 256 335s-85.333 335 -256 335zM329 1030h82l94 -208h-65zM189 1030h82l94 -208h-65z" />
    <glyph glyph-name="odoublegrave" unicode="&#x20d;" horiz-adv-x="578" 
d="M289 -10c-75.333 0 -134 23.333 -176 70s-63 115 -63 205s21 158.333 63 205s100.667 70 176 70s134 -23.333 176 -70s63 -115 63 -205s-21 -158.333 -63 -205s-100.667 -70 -176 -70zM289 478c-113.333 0 -170 -71 -170 -213s56.667 -213 170 -213s170 71 170 213
s-56.667 213 -170 213zM218 800h82l94 -208h-65zM78 800h82l94 -208h-65z" />
    <glyph glyph-name="Oinvertedbreve" unicode="&#x20e;" horiz-adv-x="790" 
d="M395 -10c-111.333 0 -194.166 35 -248.499 105s-81.5 168.333 -81.5 295s27.167 225 81.5 295s137.166 105 248.499 105s194.166 -35 248.499 -105s81.5 -168.333 81.5 -295s-27.167 -225 -81.5 -295s-137.166 -105 -248.499 -105zM395 725
c-170.667 0 -256 -111.667 -256 -335s85.333 -335 256 -335s256 111.667 256 335s-85.333 335 -256 335zM573 822h-56c0 52 -9.5 88.667 -28.5 110s-50.167 32 -93.5 32s-74.5 -10.667 -93.5 -32s-28.5 -58 -28.5 -110h-56c0 66.667 13.333 116.334 40 149.001
s72.667 49 138 49s111.333 -16.333 138 -49s40 -82.334 40 -149.001z" />
    <glyph glyph-name="oinvertedbreve" unicode="&#x20f;" horiz-adv-x="578" 
d="M289 -10c-75.333 0 -134 23.333 -176 70s-63 115 -63 205s21 158.333 63 205s100.667 70 176 70s134 -23.333 176 -70s63 -115 63 -205s-21 -158.333 -63 -205s-100.667 -70 -176 -70zM289 478c-113.333 0 -170 -71 -170 -213s56.667 -213 170 -213s170 71 170 213
s-56.667 213 -170 213zM467 592h-56c0 52 -9.5 88.667 -28.5 110s-50.167 32 -93.5 32s-74.5 -10.667 -93.5 -32s-28.5 -58 -28.5 -110h-56c0 66.667 13.333 116.334 40 149.001s72.667 49 138 49s111.333 -16.333 138 -49s40 -82.334 40 -149.001z" />
    <glyph glyph-name="Rinvertedbreve" unicode="&#x212;" horiz-adv-x="705" 
d="M518 822h-56c0 52 -9.5 88.667 -28.5 110s-50.167 32 -93.5 32s-74.5 -10.667 -93.5 -32s-28.5 -58 -28.5 -110h-56c0 66.667 13.333 116.334 40 149.001s72.667 49 138 49s111.333 -16.333 138 -49s40 -82.334 40 -149.001zM160 347v-347h-70v780h300
c161.333 0 242 -72 242 -216c0 -126.667 -60.667 -198 -182 -214l213 -350h-84l-203 347h-216zM160 413l239 -0.00195312c16.667 0 31 0.666992 43 2s25.667 4.83301 41 10.5s28 13.667 38 24s18.5 25.333 25.5 45s10.5 42.834 10.5 69.501s-3.5 49.834 -10.5 69.501
s-15.5 34.5 -25.5 44.5s-22.667 17.833 -38 23.5s-29 9.16699 -41 10.5s-26.333 2 -43 2h-239v-301z" />
    <glyph glyph-name="rinvertedbreve" unicode="&#x213;" horiz-adv-x="395" 
d="M388 592h-56c0 52 -9.5 88.667 -28.5 110s-50.167 32 -93.5 32s-74.5 -10.667 -93.5 -32s-28.5 -58 -28.5 -110h-56c0 66.667 13.333 116.334 40 149.001s72.667 49 138 49s111.333 -16.333 138 -49s40 -82.334 40 -149.001zM312 540c25.333 0 45.001 -2.66699 59.001 -8
l-7 -68c-16 6 -33.333 9 -52 9c-50.667 0 -92.334 -15.833 -125.001 -47.5s-49.667 -66.167 -51 -103.5v-322h-66v407l-6 123h60l12 -94c16 30 40 54.833 72 74.5s66.667 29.5 104 29.5z" />
    <glyph glyph-name="Udoublegrave" unicode="&#x214;" horiz-adv-x="774" 
d="M387 -10c-204.667 0 -307 96.667 -307 290v500h72v-502c0 -33.333 3.5 -62.666 10.5 -87.999s18.667 -48.666 35 -69.999s40.5 -37.5 72.5 -48.5s71 -16.5 117 -16.5s85 5.5 117 16.5s56.167 27.167 72.5 48.5s28 44.666 35 69.999s10.5 54.666 10.5 87.999v502h72v-500
c0 -193.333 -102.333 -290 -307 -290zM181 1030h82l94 -208h-65zM321 1030h82l94 -208h-65z" />
    <glyph glyph-name="udoublegrave" unicode="&#x215;" horiz-adv-x="574" 
d="M72 800h82l94 -208h-65zM212 800h82l94 -208h-65zM450 0l-12 90c-18 -30 -43 -54.167 -75 -72.5s-67.333 -27.5 -106 -27.5c-56.667 0 -103.5 15.167 -140.5 45.5s-55.5 71.833 -55.5 124.5v370h66v-355c0 -38.667 12.667 -68.667 38 -90s59.333 -32 102 -32
c46.667 0 86.5 16 119.5 48s50.167 66.333 51.5 103v326h66v-407l6 -123h-60z" />
    <glyph glyph-name="Uinvertedbreve" unicode="&#x216;" horiz-adv-x="774" 
d="M387 -10c-204.667 0 -307 96.667 -307 290v500h72v-502c0 -33.333 3.5 -62.666 10.5 -87.999s18.667 -48.666 35 -69.999s40.5 -37.5 72.5 -48.5s71 -16.5 117 -16.5s85 5.5 117 16.5s56.167 27.167 72.5 48.5s28 44.666 35 69.999s10.5 54.666 10.5 87.999v502h72v-500
c0 -193.333 -102.333 -290 -307 -290zM565 822h-56c0 52 -9.5 88.667 -28.5 110s-50.167 32 -93.5 32s-74.5 -10.667 -93.5 -32s-28.5 -58 -28.5 -110h-56c0 66.667 13.333 116.334 40 149.001s72.667 49 138 49s111.333 -16.333 138 -49s40 -82.334 40 -149.001z" />
    <glyph glyph-name="uinvertedbreve" unicode="&#x217;" horiz-adv-x="574" 
d="M460 592h-56c0 52 -9.5 88.667 -28.5 110s-50.167 32 -93.5 32s-74.5 -10.667 -93.5 -32s-28.5 -58 -28.5 -110h-56c0 66.667 13.333 116.334 40 149.001s72.667 49 138 49s111.333 -16.333 138 -49s40 -82.334 40 -149.001zM450 0l-12 90c-18 -30 -43 -54.167 -75 -72.5
s-67.333 -27.5 -106 -27.5c-56.667 0 -103.5 15.167 -140.5 45.5s-55.5 71.833 -55.5 124.5v370h66v-355c0 -38.667 12.667 -68.667 38 -90s59.333 -32 102 -32c46.667 0 86.5 16 119.5 48s50.167 66.333 51.5 103v326h66v-407l6 -123h-60z" />
    <glyph glyph-name="Scommaaccent" unicode="&#x218;" horiz-adv-x="710" 
d="M355 -10c-168 0 -265.002 67.3311 -291.002 201.998l72 6c10 -50 32.167 -86.333 66.5 -109s85.166 -34 152.499 -34c36 0 69.667 4.83301 101 14.5s58.666 27.5 81.999 53.5s35 58 35 96c0 50 -15.5 86.833 -46.5 110.5s-87.5 40.167 -169.5 49.5
c-30 3.33301 -56.167 7.33301 -78.5 12s-45.666 11.667 -69.999 21s-44.166 20.833 -59.499 34.5s-28 31.5 -38 53.5s-15 47.333 -15 76c0 70.667 24.5 124 73.5 160s111.167 54 186.5 54c165.333 0 260.666 -65.333 285.999 -196l-72 -6
c-9.33301 48.667 -30.666 83.667 -63.999 105s-83.333 32 -150 32c-19.333 0 -38.666 -2 -57.999 -6s-39.5 -10.833 -60.5 -20.5s-38 -25.167 -51 -46.5s-19.5 -46.666 -19.5 -75.999c0 -40 13.333 -70 40 -90s77.334 -34.333 152.001 -43
c49.333 -6 89.5 -12.833 120.5 -20.5s59.833 -19.5 86.5 -35.5s46 -37.667 58 -65s18 -61.666 18 -102.999c0 -74.667 -27.833 -131.5 -83.5 -170.5s-123.5 -58.5 -203.5 -58.5zM321.998 -62.002h79l-50 -138h-67z" />
    <glyph glyph-name="scommaaccent" unicode="&#x219;" horiz-adv-x="530" 
d="M262 51c104.667 2.66699 156.997 36.3271 156.997 100.994c0 8.66699 -0.5 16.334 -1.5 23.001s-3.5 12.834 -7.5 18.501s-7.16699 10.334 -9.5 14.001s-7.33301 7.16699 -15 10.5l-17.5 7.5c-4 1.66699 -11.5 3.66699 -22.5 6s-19 3.83301 -24 4.5
s-14.833 2.16699 -29.5 4.5s-25 3.83301 -31 4.5l-23 3c-14.667 2.66699 -23.5 4.16699 -26.5 4.5s-11.5 2 -25.5 5s-23.167 5.5 -27.5 7.5s-12.5 5.16699 -24.5 9.5s-20.333 8.5 -25 12.5l-19 16c-8 6.66699 -13.5 13.667 -16.5 21s-6 16 -9 26s-4.5 20.667 -4.5 32
c0 28 6 52.667 18 74s28 37.833 48 49.5s41.167 20.334 63.5 26.001s45.833 8.5 70.5 8.5c122.667 0 194.667 -51.333 216 -154l-71 -9c-16 70 -64.667 104 -146 102c-86.667 -1.33301 -130 -32.333 -130 -93c0 -11.333 2.16699 -21.166 6.5 -29.499
s9.33301 -14.833 15 -19.5s14.834 -9 27.501 -13s23.5 -6.83301 32.5 -8.5s22.833 -3.83398 41.5 -6.50098c4 -0.666992 7.5 -1.16699 10.5 -1.5s6.16699 -0.833008 9.5 -1.5l28 -4c14 -2 24 -3.5 30 -4.5s15.667 -2.83301 29 -5.5s23.333 -5.16699 30 -7.5
s15.5 -5.66602 26.5 -9.99902s19.333 -8.83301 25 -13.5s12.167 -10.667 19.5 -18s12.833 -15.166 16.5 -23.499s6.83398 -18 9.50098 -29s4 -22.833 4 -35.5c0 -38 -11.667 -70 -35 -96s-51.333 -44 -84 -54s-68.667 -15 -108 -15c-66 0 -117.167 14.333 -153.5 43
s-58.833 65.667 -67.5 111l71 9c16.667 -70 66.334 -104 149.001 -102zM229.997 -62.0068h79l-50 -138h-67z" />
    <glyph glyph-name="Hcaron" unicode="&#x21e;" horiz-adv-x="750" 
d="M590 780h70v-780h-70v367h-430v-367h-70v780h70v-347h430v347zM191 1030h67l117 -150l117 150h67l-150 -208h-68z" />
    <glyph glyph-name="hcaron" unicode="&#x21f;" horiz-adv-x="574" 
d="M-79 1030h67l117 -150l117 150h67l-150 -208h-68zM70 0v800h66v-360c18 30 43 54.167 75 72.5s67.333 27.5 106 27.5c56.667 0 103.5 -15.167 140.5 -45.5s55.5 -71.833 55.5 -124.5v-370h-66v355c0 38.667 -12.667 68.667 -38 90s-59.333 32 -102 32
c-46.667 0 -86.5 -16 -119.5 -48s-50.167 -66.333 -51.5 -103v-326h-66z" />
    <glyph glyph-name="Adotabove" unicode="&#x226;" horiz-adv-x="720" 
d="M21 0l301 790h76l301 -790h-77l-92 247h-340l-92 -247h-77zM360 712l-71 -198l-75 -201h291l-74 201zM403 969v-86h-86v86h86z" />
    <glyph glyph-name="adotabove" unicode="&#x227;" horiz-adv-x="570" 
d="M52 142c0 50.667 16.834 87.834 50.501 111.501s84.167 40.5 151.5 50.5l182 27v25c0 44 -13 75.167 -39 93.5s-64.333 28.166 -115 29.499c-42.667 0.666992 -74.5 -7.5 -95.5 -24.5s-35.5 -43.167 -43.5 -78.5l-69 10c10.667 50 31.667 88.167 63 114.5
s79.666 39.5 144.999 39.5c69.333 0 123 -15.833 161 -47.5s57 -78.5 57 -140.5v-228l6 -124h-58l-12 91c-16 -30 -42.667 -54.333 -80 -73s-77 -28 -119 -28c-60.667 0 -106.667 13.167 -138 39.5s-47 63.833 -47 112.5zM120.001 142c0 -60.667 39 -91.001 117 -91.001
c53.333 0 99.5 16.333 138.5 49s59.167 67.334 60.5 104.001v70l-183 -29c-44 -7.33301 -77.167 -17.833 -99.5 -31.5s-33.5 -37.5 -33.5 -71.5zM325.001 738.999v-86h-86v86h86z" />
    <glyph glyph-name="Otildemacron" unicode="&#x22c;" horiz-adv-x="790" 
d="M395 -10c-111.333 0 -194.166 35 -248.499 105s-81.5 168.333 -81.5 295s27.167 225 81.5 295s137.166 105 248.499 105s194.166 -35 248.499 -105s81.5 -168.333 81.5 -295s-27.167 -225 -81.5 -295s-137.166 -105 -248.499 -105zM395 725
c-170.667 0 -256 -111.667 -256 -335s85.333 -335 256 -335s256 111.667 256 335s-85.333 335 -256 335zM466 820c-28.667 1.33301 -56.334 14 -83.001 38s-47.667 36.333 -63 37c-18 1.33301 -32.667 -2.33398 -44 -11.001s-18 -17.667 -20 -27l-4 -14l-55 8
c16 72 58.333 106.333 127 103c28.667 -1.33301 56.334 -14 83.001 -38s47.667 -36.333 63 -37c18 -1.33301 32.667 2.33398 44 11.001s18 17.667 20 27l4 14l55 -8c-16 -72 -58.333 -106.333 -127 -103zM259 994v64h272v-64h-272z" />
    <glyph glyph-name="otildemacron" unicode="&#x22d;" horiz-adv-x="578" 
d="M289 -10c-75.333 0 -134 23.333 -176 70s-63 115 -63 205s21 158.333 63 205s100.667 70 176 70s134 -23.333 176 -70s63 -115 63 -205s-21 -158.333 -63 -205s-100.667 -70 -176 -70zM289 478c-113.333 0 -170 -71 -170 -213s56.667 -213 170 -213s170 71 170 213
s-56.667 213 -170 213zM360 590c-28.667 1.33301 -56.334 14 -83.001 38s-47.667 36.333 -63 37c-18 1.33301 -32.667 -2.33398 -44 -11.001s-18 -17.667 -20 -27l-4 -14l-55 8c16 72 58.333 106.333 127 103c28.667 -1.33301 56.334 -14 83.001 -38s47.667 -36.333 63 -37
c18 -1.33301 32.667 2.33398 44 11.001s18 17.667 20 27l4 14l55 -8c-16 -72 -58.333 -106.333 -127 -103zM153 764v64h272v-64h-272z" />
    <glyph glyph-name="Odotabove" unicode="&#x22e;" horiz-adv-x="790" 
d="M395 -10c-111.333 0 -194.166 35 -248.499 105s-81.5 168.333 -81.5 295s27.167 225 81.5 295s137.166 105 248.499 105s194.166 -35 248.499 -105s81.5 -168.333 81.5 -295s-27.167 -225 -81.5 -295s-137.166 -105 -248.499 -105zM395 725
c-170.667 0 -256 -111.667 -256 -335s85.333 -335 256 -335s256 111.667 256 335s-85.333 335 -256 335zM438 969v-86h-86v86h86z" />
    <glyph glyph-name="odotabove" unicode="&#x22f;" horiz-adv-x="578" 
d="M289 -10c-75.333 0 -134 23.333 -176 70s-63 115 -63 205s21 158.333 63 205s100.667 70 176 70s134 -23.333 176 -70s63 -115 63 -205s-21 -158.333 -63 -205s-100.667 -70 -176 -70zM289 478c-113.333 0 -170 -71 -170 -213s56.667 -213 170 -213s170 71 170 213
s-56.667 213 -170 213zM332 739v-86h-86v86h86z" />
    <glyph glyph-name="odotabovemacron" unicode="&#x231;" horiz-adv-x="578" 
d="M289 -10c-75.333 0 -134 23.333 -176 70s-63 115 -63 205s21 158.333 63 205s100.667 70 176 70s134 -23.333 176 -70s63 -115 63 -205s-21 -158.333 -63 -205s-100.667 -70 -176 -70zM289 478c-113.333 0 -170 -71 -170 -213s56.667 -213 170 -213s170 71 170 213
s-56.667 213 -170 213zM332 699v-86h-86v86h86zM153 764v64h272v-64h-272z" />
    <glyph glyph-name="odotabovemacron" unicode="&#xe11e;" horiz-adv-x="578" 
d="M289 -10c-75.333 0 -134 23.333 -176 70s-63 115 -63 205s21 158.333 63 205s100.667 70 176 70s134 -23.333 176 -70s63 -115 63 -205s-21 -158.333 -63 -205s-100.667 -70 -176 -70zM289 478c-113.333 0 -170 -71 -170 -213s56.667 -213 170 -213s170 71 170 213
s-56.667 213 -170 213zM332 699v-86h-86v86h86zM153 764v64h272v-64h-272z" />
    <glyph glyph-name="Ymacron" unicode="&#x232;" horiz-adv-x="710" 
d="M20 780h81l162 -244l92 -141l92 141l162 244h81l-300 -445v-335h-70v335zM219 894v64h272v-64h-272z" />
    <glyph glyph-name="ymacron" unicode="&#x233;" horiz-adv-x="540" 
d="M522 530l-209 -494l-96 -236h-77l93 220l-215 510h78l115 -291l59 -152l59 152l116 291h77zM134 664v64h272v-64h-272z" />
    <glyph glyph-name="dotlessj" unicode="&#x237;" horiz-adv-x="250" 
d="M-17 -147c42 0 71.5 9.5 88.5 28.5s25.5 57.833 25.5 116.5v532h66v-532c0 -30.667 -2.16699 -57.167 -6.5 -79.5s-12.5 -44 -24.5 -65s-30.5 -36.833 -55.5 -47.5s-56.167 -16 -93.5 -16c-23.333 0 -42.333 2.66699 -57 8l8 64c14 -6 30.333 -9 49 -9z" />
    <glyph glyph-name="schwa" unicode="&#x259;" horiz-adv-x="570" 
d="M279 -10c-149.333 0 -224 91.333 -224 274v27h395c-2.66699 64.667 -19.167 112.167 -49.5 142.5s-71.166 45.5 -122.499 45.5c-82.667 2 -132.334 -32 -149.001 -102l-71 9c8.66699 45.333 31.167 82.333 67.5 111s87.5 43 153.5 43c75.333 0 134.333 -23.333 177 -70
s64 -115 64 -205s-21.333 -158.333 -64 -205s-101.667 -70 -177 -70zM279 50c50.667 0 91 14.833 121 44.5s46.667 75.5 50 137.5h-323c2 -123.333 52.667 -184 152 -182z" />
    <glyph glyph-name="ezh" unicode="&#x292;" horiz-adv-x="535" 
d="M260 -210c-72 0 -126 14.167 -162 42.5s-57.667 65.5 -65 111.5l67 10c12.667 -73.333 66 -109 160 -107c50.667 1.33301 90.667 17 120 47s44 72 44 126c0 53.333 -14.5 94.5 -43.5 123.5s-67.833 44.167 -116.5 45.5c-44.667 0.666992 -79.667 -8.33301 -105 -27
l-40 43l188 188l78 76l-143 -1h-188v62h419v-54l-226 -226h18c64.667 0 118.667 -20.167 162 -60.5s65 -96.833 65 -169.5c0 -71.333 -23.167 -127.5 -69.5 -168.5s-100.5 -61.5 -162.5 -61.5z" />
    <glyph glyph-name="circumflex" unicode="&#x2c6;" 
d="M484 592h-67l-117 150l-117 -150h-67l150 208h68z" />
    <glyph glyph-name="caron" unicode="&#x2c7;" 
d="M417 800h67l-150 -208h-68l-150 208h67l117 -150z" />
    <glyph glyph-name="breve" unicode="&#x2d8;" 
d="M422 800h56c0 -66.667 -13.333 -116.334 -40 -149.001s-72.667 -49 -138 -49s-111.333 16.333 -138 49s-40 82.334 -40 149.001h56c0 -52 9.5 -88.667 28.5 -110s50.167 -32 93.5 -32s74.5 10.667 93.5 32s28.5 58 28.5 110z" />
    <glyph glyph-name="dotaccent" unicode="&#x2d9;" 
d="M343 739v-86h-86v86h86z" />
    <glyph glyph-name="ring" unicode="&#x2da;" 
d="M186 696c0 34 10.167 61.5 30.5 82.5s48.166 31.5 83.499 31.5s63.166 -10.5 83.499 -31.5s30.5 -48.5 30.5 -82.5s-10.167 -61.5 -30.5 -82.5s-48.166 -31.5 -83.499 -31.5s-63.166 10.5 -83.499 31.5s-30.5 48.5 -30.5 82.5zM244 696c0 -17.333 5 -31.333 15 -42
s23.667 -16 41 -16s31 5.33301 41 16s15 24.667 15 42s-5 31.333 -15 42s-23.667 16 -41 16s-31 -5.33301 -41 -16s-15 -24.667 -15 -42z" />
    <glyph glyph-name="ogonek" unicode="&#x2db;" 
d="M492 46l14 -45.999c-36 -5.33301 -67.333 -18.5 -94 -39.5s-40 -44.167 -40 -69.5c0 -30.667 18.667 -46 56 -46c10.667 0 22 1.83301 34 5.5s21.333 7.16699 28 10.5l10 5l17 -51c-26.667 -16.667 -60 -25 -100 -25c-30 0 -55.833 7.66699 -77.5 23
s-32.5 38.666 -32.5 69.999c0 34 16.833 66 50.5 96s78.5 52.333 134.5 67z" />
    <glyph glyph-name="tilde" unicode="&#x2dc;" 
d="M371 630c-28.667 1.33301 -56.334 14 -83.001 38s-47.667 36.333 -63 37c-18 1.33301 -32.667 -2.33398 -44 -11.001s-18.333 -17.667 -21 -27l-3 -14l-55 8c16 72 58.333 106.333 127 103c28.667 -1.33301 56.334 -14 83.001 -38s47.667 -36.333 63 -37
c18 -1.33301 32.667 2.33398 44 11.001s18.333 17.667 21 27l3 14l55 -8c-16 -72 -58.333 -106.333 -127 -103z" />
    <glyph glyph-name="hungarumlaut" unicode="&#x2dd;" 
d="M289 800h82l-111 -208h-65zM429 800h82l-111 -208h-65z" />
    <glyph glyph-name="uni0312" unicode="&#x312;" 
d="M331 592h-79l75 208h61z" />
    <glyph glyph-name="uni0323" unicode="&#x323;" 
d="M343 -67v-86h-86v86h86z" />
    <glyph glyph-name="uni0329" unicode="&#x329;" 
d="M330 -200h-60v160h60v-160z" />
    <glyph glyph-name="pi" unicode="&#x3c0;" horiz-adv-x="680" 
d="M29 468l0.00195312 62.001h599v-62h-143v-320c0 -32.667 5.83301 -56.667 17.5 -72s34.167 -23 67.5 -23c16.667 0 33 3 49 9l8 -64c-14.667 -5.33301 -33.667 -8 -57 -8c-24 0 -45.333 3.5 -64 10.5s-33.334 15.667 -44.001 26s-19.334 22.666 -26.001 36.999
s-11.167 27.833 -13.5 40.5s-3.5 25.667 -3.5 39v325h-194v-383l-12 -85h-60l6 123v345h-130z" />
    <glyph glyph-name="afii10023" unicode="&#x401;" horiz-adv-x="695" 
d="M90 780h520v-66h-450v-281h410v-66h-410v-301h470v-66h-540v780zM300 969v-86h-86v86h86zM486 969v-86h-86v86h86z" />
    <glyph glyph-name="afii10051" unicode="&#x402;" horiz-adv-x="733" 
d="M295 714l-0.000976562 -341.999c38.667 47.333 100.334 71 185.001 71c74 0 130.5 -19.167 169.5 -57.5s58.5 -94.5 58.5 -168.5c0 -73.333 -18.833 -129.5 -56.5 -168.5s-90.5 -58.5 -158.5 -58.5c-23.333 0 -42.333 2.66699 -57 8l8 69c14 -6 30.333 -9 49 -9
c45.333 0 80.333 13.667 105 41s37 66.666 37 117.999c0 106 -53.667 159 -161 159c-56 0 -99.333 -11.5 -130 -34.5s-47 -48.167 -49 -75.5v-266h-70v714h-200v66h470v-66h-200z" />
    <glyph glyph-name="afii10052" unicode="&#x403;" horiz-adv-x="585" 
d="M160 714v-714h-70v780h480v-66h-410zM389 1030h82l-111 -208h-65z" />
    <glyph glyph-name="afii10053" unicode="&#x404;" horiz-adv-x="750" 
d="M395 725c-160 0 -245 -97.333 -255 -292h430v-66h-431c6 -208 91.333 -312 256 -312c67.333 0 118.333 11.667 153 35s57 60 67 110l72 -6c-26.667 -136 -124 -204 -292 -204c-111.333 0 -194.166 35 -248.499 105s-81.5 168.333 -81.5 295s27.167 225 81.5 295
s137.166 105 248.499 105c168 0 265.333 -68 292 -204l-72 -6c-10 50 -32.333 86.667 -67 110s-85.667 35 -153 35z" />
    <glyph glyph-name="afii10054" unicode="&#x405;" horiz-adv-x="710" 
d="M355 -10c-168 0 -265.002 67.3311 -291.002 201.998l72 6c10 -50 32.167 -86.333 66.5 -109s85.166 -34 152.499 -34c36 0 69.667 4.83301 101 14.5s58.666 27.5 81.999 53.5s35 58 35 96c0 50 -15.5 86.833 -46.5 110.5s-87.5 40.167 -169.5 49.5
c-30 3.33301 -56.167 7.33301 -78.5 12s-45.666 11.667 -69.999 21s-44.166 20.833 -59.499 34.5s-28 31.5 -38 53.5s-15 47.333 -15 76c0 70.667 24.5 124 73.5 160s111.167 54 186.5 54c165.333 0 260.666 -65.333 285.999 -196l-72 -6
c-9.33301 48.667 -30.666 83.667 -63.999 105s-83.333 32 -150 32c-19.333 0 -38.666 -2 -57.999 -6s-39.5 -10.833 -60.5 -20.5s-38 -25.167 -51 -46.5s-19.5 -46.666 -19.5 -75.999c0 -40 13.333 -70 40 -90s77.334 -34.333 152.001 -43
c49.333 -6 89.5 -12.833 120.5 -20.5s59.833 -19.5 86.5 -35.5s46 -37.667 58 -65s18 -61.666 18 -102.999c0 -74.667 -27.833 -131.5 -83.5 -170.5s-123.5 -58.5 -203.5 -58.5z" />
    <glyph glyph-name="afii10055" unicode="&#x406;" horiz-adv-x="290" 
d="M180 780v-780h-70v780h70z" />
    <glyph glyph-name="afii10056" unicode="&#x407;" horiz-adv-x="290" 
d="M180 780v-780h-70v780h70zM95 969v-86h-86v86h86zM281 969v-86h-86v86h86z" />
    <glyph glyph-name="afii10057" unicode="&#x408;" horiz-adv-x="507" 
d="M351 780l71.001 -0.000976562v-570c0 -66 -17.833 -119.167 -53.5 -159.5s-85.834 -60.5 -150.501 -60.5c-123.333 0 -190 55 -200 165l71 9c5.33301 -75.333 48.333 -111.666 129 -108.999c88.667 2.66699 133 50.667 133 144v581z" />
    <glyph glyph-name="afii10058" unicode="&#x409;" horiz-adv-x="1173" 
d="M660 780v-351.997h245c32.667 0 61.667 -3 87 -9s49.333 -16.333 72 -31s40.167 -36.667 52.5 -66s18.5 -65.333 18.5 -108s-6.16699 -78.667 -18.5 -108s-29.833 -51.333 -52.5 -66s-46.667 -25 -72 -31s-54.333 -9 -87 -9h-315v714h-228l-26 -184
c-10 -72 -20.5 -133.833 -31.5 -185.5s-24.333 -100.334 -40 -146.001s-33.667 -82.334 -54 -110.001s-44.5 -49.334 -72.5 -65.001s-60 -23.5 -96 -23.5h-10l-2 66h10c64 0 111.833 35.333 143.5 106s58.167 186.667 79.5 348l35 260h362zM660 362.003v-296h236
c22 0 40.5 1.33301 55.5 4s31.833 8.33398 50.5 17.001s33 23.667 43 45s15 48.666 15 81.999s-5 60.666 -15 81.999s-24.333 36.333 -43 45s-35.5 14.334 -50.5 17.001s-33.5 4 -55.5 4h-236z" />
    <glyph glyph-name="afii10059" unicode="&#x40a;" horiz-adv-x="1173" 
d="M660 780v-352h245c32.667 0 61.667 -3 87 -9s49.333 -16.333 72 -31s40.167 -36.667 52.5 -66s18.5 -65.333 18.5 -108s-6.16699 -78.667 -18.5 -108s-29.833 -51.333 -52.5 -66s-46.667 -25 -72 -31s-54.333 -9 -87 -9h-315v362h-430v-362h-70v780h70v-352h430v352h70z
M660 362v-296h236c22 0 40.5 1.33301 55.5 4s31.833 8.33398 50.5 17.001s33 23.667 43 45s15 48.666 15 81.999s-5 60.666 -15 81.999s-24.333 36.333 -43 45s-35.5 14.334 -50.5 17.001s-33.5 4 -55.5 4h-236z" />
    <glyph glyph-name="afii10060" unicode="&#x40b;" horiz-adv-x="733" 
d="M225 0l0.000976562 713.999h-200v66h470v-66h-200v-366c18 29.333 42.833 52.5 74.5 69.5s67.167 25.5 106.5 25.5c56.667 0 103.5 -15.167 140.5 -45.5s55.5 -71.833 55.5 -124.5v-273h-71v258c0 38.667 -11.833 67.834 -35.5 87.501s-56.834 29.5 -99.501 29.5
c-46.667 0 -86.5 -15.333 -119.5 -46s-50.167 -64 -51.5 -100v-229h-70z" />
    <glyph glyph-name="afii10061" unicode="&#x40c;" horiz-adv-x="695" 
d="M409 1030h82l-111 -208h-65zM658 780l-175 -288c-28 -46 -58 -76.667 -90 -92c34 -16 65 -46.667 93 -92l187 -308h-83l-165 282c-17.333 30 -34.666 51.667 -51.999 65s-41 20 -71 20h-142v-367h-70v780h70v-347h139c30 0 53.667 6.66699 71 20s34.666 35 51.999 65
l153 262h83z" />
    <glyph glyph-name="afii10062" unicode="&#x40e;" horiz-adv-x="650" 
d="M161 53c29.333 0 52.332 9.33203 68.999 27.999s34 47.667 52 87l24 54l-255 558h75l214 -482l214 482h75l-283 -632c-9.33301 -20.667 -18.166 -38.167 -26.499 -52.5s-19.833 -30.666 -34.5 -48.999s-32.5 -32.333 -53.5 -42s-44.5 -14.5 -70.5 -14.5
c-44.667 0 -79 6 -103 18l8 64c25.333 -12.667 57 -19 95 -19zM457.999 1030h61.002c0 -66.667 -13.333 -116.334 -40 -149.001s-72.667 -49 -138 -49s-111.333 16.333 -138 49s-40 82.334 -40 149.001h61c0 -52.667 8.66699 -89.5 26 -110.5s47.666 -31.5 90.999 -31.5
s73.666 10.5 90.999 31.5s26 57.833 26 110.5z" />
    <glyph glyph-name="afii10145" unicode="&#x40f;" horiz-adv-x="750" 
d="M90 0v780h70v-714h430v714h70v-780h-249v-160h-72v160h-249z" />
    <glyph glyph-name="afii10017" unicode="&#x410;" horiz-adv-x="720" 
d="M21 0l301 790h76l301 -790h-77l-92 247h-340l-92 -247h-77zM360 712l-71 -198l-75 -201h291l-74 201z" />
    <glyph glyph-name="afii10018" unicode="&#x411;" horiz-adv-x="695" 
d="M570 714h-410v-286h245c32.667 0 61.667 -3 87 -9s49.333 -16.333 72 -31s40.167 -36.667 52.5 -66s18.5 -65.333 18.5 -108s-6.16699 -78.667 -18.5 -108s-29.833 -51.333 -52.5 -66s-46.667 -25 -72 -31s-54.333 -9 -87 -9h-315v780h480v-66zM396 362h-236v-296h236
c22 0 40.5 1.33301 55.5 4s31.833 8.33398 50.5 17.001s33 23.667 43 45s15 48.666 15 81.999s-5 60.666 -15 81.999s-24.333 36.333 -43 45s-35.5 14.334 -50.5 17.001s-33.5 4 -55.5 4z" />
    <glyph glyph-name="afii10019" unicode="&#x412;" horiz-adv-x="695" 
d="M405 0l-315 -0.00292969v780h309c24.667 0 48.167 -3 70.5 -9s44.5 -16 66.5 -30s39.5 -35.167 52.5 -63.5s19.5 -62.166 19.5 -101.499c0 -49.333 -10.667 -88.333 -32 -117s-45 -46.667 -71 -54c36.667 -7.33301 67.5 -27.166 92.5 -59.499s37.5 -76.166 37.5 -131.499
c0 -42.667 -6.16699 -78.667 -18.5 -108s-29.833 -51.333 -52.5 -66s-46.667 -25 -72 -31s-54.333 -9 -87 -9zM160 65.9971h236.001c22 0 40.5 1.33301 55.5 4s31.833 8.33398 50.5 17.001s33 23.667 43 45s15 48.666 15 81.999c0 26.667 -3.33301 49.667 -10 69
s-14.834 34.333 -24.501 45s-22.167 19 -37.5 25s-29.333 9.83301 -42 11.5s-27.667 2.5 -45 2.5h-241v-301zM388.001 713.997h-228v-281h228c48 0 84.167 10.167 108.5 30.5s36.5 57.833 36.5 112.5c0 54 -11.833 90.5 -35.5 109.5s-60.167 28.5 -109.5 28.5z" />
    <glyph glyph-name="afii10020" unicode="&#x413;" horiz-adv-x="585" 
d="M160 714v-714h-70v780h480v-66h-410z" />
    <glyph glyph-name="afii10021" unicode="&#x414;" horiz-adv-x="770" 
d="M660 780v-714h71v-226h-71v160h-559v-160h-71v226h10c64 0 111.833 35.333 143.5 106s58.167 186.667 79.5 348l35 260h362zM363 714l-36 -249.001c-17.333 -118 -36.5 -207.167 -57.5 -267.5s-50.5 -104.166 -88.5 -131.499h409v648h-227z" />
    <glyph glyph-name="afii10022" unicode="&#x415;" horiz-adv-x="695" 
d="M90 780h520v-66h-450v-281h410v-66h-410v-301h470v-66h-540v780z" />
    <glyph glyph-name="afii10024" unicode="&#x416;" horiz-adv-x="980" 
d="M943 780l-175 -288c-28 -46 -58 -76.667 -90 -92c34 -16 65 -46.667 93 -92l187 -308h-83l-165 282c-17.333 30 -34.666 51.667 -51.999 65s-41 20 -71 20h-62v-367h-70v367h-62c-30 0 -53.667 -6.66699 -71 -20s-34.666 -35 -51.999 -65l-165 -282h-83l187 308
c28 45.333 59 76 93 92c-32 15.333 -62 46 -90 92l-175 288h83l153 -262c17.333 -30 34.666 -51.667 51.999 -65s41 -20 71 -20h59v347h70v-347h59c30 0 53.667 6.66699 71 20s34.666 35 51.999 65l153 262h83z" />
    <glyph glyph-name="afii10025" unicode="&#x417;" horiz-adv-x="682" 
d="M627 212c0 -64.667 -25.501 -117.834 -76.501 -159.501s-125.5 -62.5 -223.5 -62.5c-162.667 0 -255.667 65.667 -279 197l69 6c7.33301 -48 27.666 -83.5 60.999 -106.5s83 -34.833 149 -35.5c74 -1.33301 131 11.5 171 38.5s60 67.833 60 122.5
c0 28 -4.66699 52 -14 72s-20.666 35.167 -33.999 45.5s-30.833 18.5 -52.5 24.5s-41.167 9.66699 -58.5 11s-38.333 2 -63 2h-103v66h103c30 0 55.333 1.66699 76 5s40.834 9.83301 60.501 19.5s34.334 25 44.001 46s14.5 47.5 14.5 79.5c0 50 -17.667 86.833 -53 110.5
s-84 34.834 -146 33.501c-64.667 -0.666992 -112.834 -12 -144.501 -34s-51.167 -57 -58.5 -105l-69 6c23.333 130.667 114 196 272 196c78.667 0 143 -17 193 -51s75 -86 75 -156c0 -52 -13.5 -93.5 -40.5 -124.5s-59.833 -48.833 -98.5 -53.5
c42 -5.33301 80.167 -24.333 114.5 -57s51.5 -78 51.5 -136z" />
    <glyph glyph-name="afii10026" unicode="&#x418;" horiz-adv-x="750" 
d="M593 657l-92 -142l-348 -515h-63v780h71v-390l-4 -267l92 142l348 515h63v-780h-71v390z" />
    <glyph glyph-name="afii10027" unicode="&#x419;" horiz-adv-x="750" 
d="M593 657l-92 -142l-348 -515h-63v780h71v-390l-4 -267l92 142l348 515h63v-780h-71v390zM492 1030h61.002c0 -66.667 -13.333 -116.334 -40 -149.001s-72.667 -49 -138 -49s-111.333 16.333 -138 49s-40 82.334 -40 149.001h61c0 -52.667 8.66699 -89.5 26 -110.5
s47.666 -31.5 90.999 -31.5s73.666 10.5 90.999 31.5s26 57.833 26 110.5z" />
    <glyph glyph-name="afii10028" unicode="&#x41a;" horiz-adv-x="695" 
d="M658 780l-175 -288c-28 -46 -58 -76.667 -90 -92c34 -16 65 -46.667 93 -92l187 -308h-83l-165 282c-17.333 30 -34.666 51.667 -51.999 65s-41 20 -71 20h-142v-367h-70v780h70v-347h139c30 0 53.667 6.66699 71 20s34.666 35 51.999 65l153 262h83z" />
    <glyph glyph-name="afii10029" unicode="&#x41b;" horiz-adv-x="770" 
d="M660 780v-779.997h-70v714h-228l-26 -184c-10 -72 -20.5 -133.833 -31.5 -185.5s-24.333 -100.334 -40 -146.001s-33.667 -82.334 -54 -110.001s-44.5 -49.334 -72.5 -65.001s-60 -23.5 -96 -23.5h-10l-2 66h10c64 0 111.833 35.333 143.5 106s58.167 186.667 79.5 348
l35 260h362z" />
    <glyph glyph-name="afii10030" unicode="&#x41c;" horiz-adv-x="912" 
d="M423 0l-212 483l-57 141l4 -334v-290h-68v780h61l230 -515l75 -189l75 189l230 515h61v-780h-68v290l4 340l-57 -147l-212 -483h-66z" />
    <glyph glyph-name="afii10031" unicode="&#x41d;" horiz-adv-x="750" 
d="M590 780h70v-780h-70v367h-430v-367h-70v780h70v-347h430v347z" />
    <glyph glyph-name="afii10032" unicode="&#x41e;" horiz-adv-x="790" 
d="M395 -10c-111.333 0 -194.166 35 -248.499 105s-81.5 168.333 -81.5 295s27.167 225 81.5 295s137.166 105 248.499 105s194.166 -35 248.499 -105s81.5 -168.333 81.5 -295s-27.167 -225 -81.5 -295s-137.166 -105 -248.499 -105zM395 725
c-170.667 0 -256 -111.667 -256 -335s85.333 -335 256 -335s256 111.667 256 335s-85.333 335 -256 335z" />
    <glyph glyph-name="afii10033" unicode="&#x41f;" horiz-adv-x="750" 
d="M660 780v-780h-70v714h-430v-714h-70v780h570z" />
    <glyph glyph-name="afii10034" unicode="&#x420;" horiz-adv-x="650" 
d="M160 402h217c16 0 30.333 0.833008 43 2.5s26.667 5.66699 42 12s28.166 14.833 38.499 25.5s19 26 26 46s10.5 43.333 10.5 70s-3.5 50 -10.5 70s-15.667 35.333 -26 46s-23.166 19.167 -38.499 25.5s-29.333 10.333 -42 12s-27 2.5 -43 2.5h-217v-312zM160 336v-336
h-70v780h276c32.667 0 62.667 -3.5 90 -10.5s53.166 -18.333 77.499 -34s43.5 -38.5 57.5 -68.5s21 -66.333 21 -109s-7 -79 -21 -109s-33.167 -52.833 -57.5 -68.5s-50.166 -27 -77.499 -34s-57.333 -10.5 -90 -10.5h-206z" />
    <glyph glyph-name="afii10035" unicode="&#x421;" horiz-adv-x="750" 
d="M139 390c0 -223.333 85.333 -335 256 -335c67.333 0 118.333 11.667 153 35s57 60 67 110l72 -6c-26.667 -136 -124 -204 -292 -204c-111.333 0 -194.166 35 -248.499 105s-81.5 168.333 -81.5 295s27.167 225 81.5 295s137.166 105 248.499 105
c168 0 265.333 -68 292 -204l-72 -6c-10 50 -32.333 86.667 -67 110s-85.667 35 -153 35c-170.667 0 -256 -111.667 -256 -335z" />
    <glyph glyph-name="afii10036" unicode="&#x422;" horiz-adv-x="620" 
d="M345 714v-714h-70v714h-250v66h570v-66h-250z" />
    <glyph glyph-name="afii10037" unicode="&#x423;" horiz-adv-x="650" 
d="M161 53c29.333 0 52.332 9.33203 68.999 27.999s34 47.667 52 87l24 54l-255 558h75l214 -482l214 482h75l-283 -632c-9.33301 -20.667 -18.166 -38.167 -26.499 -52.5s-19.833 -30.666 -34.5 -48.999s-32.5 -32.333 -53.5 -42s-44.5 -14.5 -70.5 -14.5
c-44.667 0 -79 6 -103 18l8 64c25.333 -12.667 57 -19 95 -19z" />
    <glyph glyph-name="afii10038" unicode="&#x424;" horiz-adv-x="810" 
d="M370 0v115c-99.333 0 -177.5 24.167 -234.5 72.5s-85.5 115.833 -85.5 202.5s28.5 154.167 85.5 202.5s135.167 72.5 234.5 72.5v115h70v-115c99.333 0 177.5 -24.167 234.5 -72.5s85.5 -115.833 85.5 -202.5s-28.5 -154.167 -85.5 -202.5s-135.167 -72.5 -234.5 -72.5
v-115h-70zM124 390c0 -140 82 -210 246 -210v420c-164 0 -246 -70 -246 -210zM440 600v-420c164 0 246 70 246 210s-82 210 -246 210z" />
    <glyph glyph-name="afii10039" unicode="&#x425;" horiz-adv-x="700" 
d="M350 345l-92 -141l-135 -204h-85l232 342l42 61l-41 58l-215 319h82l120 -180l92 -140l92 140l120 180h84l-215 -319l-41 -58l42 -61l230 -342h-85l-135 204z" />
    <glyph glyph-name="afii10040" unicode="&#x426;" horiz-adv-x="770" 
d="M90 0v780h70v-714h430v714h70v-714h71v-226h-71v160h-570z" />
    <glyph glyph-name="afii10041" unicode="&#x427;" horiz-adv-x="690" 
d="M600 780l-0.000976562 -780.001h-70v353c-22.667 -19.333 -53.5 -35.166 -92.5 -47.499s-81.167 -18.5 -126.5 -18.5c-71.333 0 -130.166 16.167 -176.499 48.5s-69.5 76.5 -69.5 132.5v312h70v-299c0 -42 15.333 -74.333 46 -97s74 -34 130 -34
c52 0 97.5 8.83301 136.5 26.5s66.5 37.167 82.5 58.5v345h70z" />
    <glyph glyph-name="afii10042" unicode="&#x428;" horiz-adv-x="1000" 
d="M535 780v-714h305v714h70v-780h-820v780h70v-714h305v714h70z" />
    <glyph glyph-name="afii10043" unicode="&#x429;" horiz-adv-x="1020" 
d="M535 780v-714h305v714h70v-714h71v-226h-71v160h-820v780h70v-714h305v714h70z" />
    <glyph glyph-name="afii10044" unicode="&#x42a;" horiz-adv-x="805" 
d="M25 780h245v-352h245c32.667 0 61.667 -3 87 -9s49.333 -16.333 72 -31s40.167 -36.667 52.5 -66s18.5 -65.333 18.5 -108s-6.16699 -78.667 -18.5 -108s-29.833 -51.333 -52.5 -66s-46.667 -25 -72 -31s-54.333 -9 -87 -9h-315v714h-175v66zM506 362h-236v-296h236
c22 0 40.5 1.33301 55.5 4s31.833 8.33398 50.5 17.001s33 23.667 43 45s15 48.666 15 81.999s-5 60.666 -15 81.999s-24.333 36.333 -43 45s-35.5 14.334 -50.5 17.001s-33.5 4 -55.5 4z" />
    <glyph glyph-name="afii10045" unicode="&#x42b;" horiz-adv-x="910" 
d="M90 780h70v-352h245c32.667 0 61.667 -3 87 -9s49.333 -16.333 72 -31s40.167 -36.667 52.5 -66s18.5 -65.333 18.5 -108s-6.16699 -78.667 -18.5 -108s-29.833 -51.333 -52.5 -66s-46.667 -25 -72 -31s-54.333 -9 -87 -9h-315v780zM396 362h-236v-296h236
c22 0 40.5 1.33301 55.5 4s31.833 8.33398 50.5 17.001s33 23.667 43 45s15 48.666 15 81.999s-5 60.666 -15 81.999s-24.333 36.333 -43 45s-35.5 14.334 -50.5 17.001s-33.5 4 -55.5 4zM800 780v-780h-70v780h70z" />
    <glyph glyph-name="afii10046" unicode="&#x42c;" horiz-adv-x="695" 
d="M90 780h70v-352h245c32.667 0 61.667 -3 87 -9s49.333 -16.333 72 -31s40.167 -36.667 52.5 -66s18.5 -65.333 18.5 -108s-6.16699 -78.667 -18.5 -108s-29.833 -51.333 -52.5 -66s-46.667 -25 -72 -31s-54.333 -9 -87 -9h-315v780zM396 362h-236v-296h236
c22 0 40.5 1.33301 55.5 4s31.833 8.33398 50.5 17.001s33 23.667 43 45s15 48.666 15 81.999s-5 60.666 -15 81.999s-24.333 36.333 -43 45s-35.5 14.334 -50.5 17.001s-33.5 4 -55.5 4z" />
    <glyph glyph-name="afii10047" unicode="&#x42d;" horiz-adv-x="750" 
d="M355 725c-67.333 0 -118.333 -11.667 -153 -35s-57 -60 -67 -110l-72 6c26.667 136 124 204 292 204c111.333 0 194.166 -35 248.499 -105s81.5 -168.333 81.5 -295s-27.167 -225 -81.5 -295s-137.166 -105 -248.499 -105c-168 0 -265.333 68 -292 204l72 6
c10 -50 32.333 -86.667 67 -110s85.667 -35 153 -35c165.333 0 250.333 104 255 312h-430v66h430c-10.667 194.667 -95.667 292 -255 292z" />
    <glyph glyph-name="afii10048" unicode="&#x42e;" horiz-adv-x="1040" 
d="M645 -10c-108 0 -189.168 33.001 -243.501 99.001s-83.166 158.667 -86.499 278h-155v-367h-70v780h70v-347h156c6 113.333 36.167 201.166 90.5 263.499s133.833 93.5 238.5 93.5c111.333 0 194.166 -35 248.499 -105s81.5 -168.333 81.5 -295s-27.167 -225 -81.5 -295
s-137.166 -105 -248.499 -105zM644.999 725.001c-170.667 0 -256 -111.667 -256 -335s85.333 -335 256 -335s256 111.667 256 335s-85.333 335 -256 335z" />
    <glyph glyph-name="afii10049" unicode="&#x42f;" horiz-adv-x="695" 
d="M32 0l175 288.001c17.333 27.333 33.666 47.666 48.999 60.999c-128.667 14 -193 85.667 -193 215c0 144 80.667 216 242 216h300v-780h-70v347h-139c-30 0 -53.667 -6.66699 -71 -20s-34.666 -35 -51.999 -65l-153 -262h-88zM296 413.001l239 0.00195312v301h-239
c-16.667 0 -31 -0.666992 -43 -2s-25.667 -4.83301 -41 -10.5s-28 -13.5 -38 -23.5s-18.5 -24.833 -25.5 -44.5s-10.5 -42.834 -10.5 -69.501s3.5 -49.834 10.5 -69.501s15.5 -34.667 25.5 -45s22.667 -18.333 38 -24s29 -9.16699 41 -10.5s26.333 -2 43 -2z" />
    <glyph glyph-name="afii10065" unicode="&#x430;" horiz-adv-x="570" 
d="M52 142c0 50.667 16.834 87.834 50.501 111.501s84.167 40.5 151.5 50.5l182 27v25c0 44 -13 75.167 -39 93.5s-64.333 28.166 -115 29.499c-42.667 0.666992 -74.5 -7.5 -95.5 -24.5s-35.5 -43.167 -43.5 -78.5l-69 10c10.667 50 31.667 88.167 63 114.5
s79.666 39.5 144.999 39.5c69.333 0 123 -15.833 161 -47.5s57 -78.5 57 -140.5v-228l6 -124h-58l-12 91c-16 -30 -42.667 -54.333 -80 -73s-77 -28 -119 -28c-60.667 0 -106.667 13.167 -138 39.5s-47 63.833 -47 112.5zM120.001 142c0 -60.667 39 -91.001 117 -91.001
c53.333 0 99.5 16.333 138.5 49s59.167 67.334 60.5 104.001v70l-183 -29c-44 -7.33301 -77.167 -17.833 -99.5 -31.5s-33.5 -37.5 -33.5 -71.5z" />
    <glyph glyph-name="afii10066" unicode="&#x431;" horiz-adv-x="580" 
d="M291 -10c-75.333 0 -133.999 23.334 -175.999 70.001s-63 115 -63 205c0 49.333 1.83301 94.666 5.5 135.999s8.16699 77.333 13.5 108s13 58.167 23 82.5s19.667 44.666 29 60.999s21.5 30.833 36.5 43.5s28.333 22.334 40 29.001s27 12.667 46 18
s34.667 8.83301 47 10.5l50.5 6.5c76.667 8.66699 137.667 22 183 40v-68c-46 -19.333 -103 -32.333 -171 -39c-38 -4 -68.667 -9.5 -92 -16.5s-45.333 -19.167 -66 -36.5s-36.834 -41.5 -48.501 -72.5s-20.167 -71.167 -25.5 -120.5c38.667 62 94.667 93 168 93
c75.333 0 134 -23.333 176 -70s63 -115 63 -205s-21 -158.333 -63 -205s-100.667 -70 -176 -70zM291.001 478.001c-113.333 0 -170 -71 -170 -213s56.667 -213 170 -213s170 71 170 213s-56.667 213 -170 213z" />
    <glyph glyph-name="afii10067" unicode="&#x432;" horiz-adv-x="565" 
d="M320 0l-239.999 -0.000976562v530h245c20.667 0 40.167 -1.83301 58.5 -5.5s36.666 -10.167 54.999 -19.5s33 -23.666 44 -42.999s16.5 -43 16.5 -71c0 -34 -8.66699 -60 -26 -78s-38 -29 -62 -33c28 -2 52.333 -14.167 73 -36.5s31 -52.833 31 -91.5
c0 -101.333 -65 -152 -195 -152zM146.001 60.999h176c40.667 0 71.5 6.66699 92.5 20s31.5 37 31.5 71c0 62 -39 93 -117 93h-183v-184zM316.001 466.999h-170v-163h170c40 0 69.167 7 87.5 21s27.5 36 27.5 66c0 28 -8.66699 47.667 -26 59s-47 17 -89 17z" />
    <glyph glyph-name="afii10068" unicode="&#x433;" horiz-adv-x="435" 
d="M80 530h326v-62h-260v-468h-66v530z" />
    <glyph glyph-name="afii10069" unicode="&#x434;" horiz-adv-x="621" 
d="M115 -160h-65.999v222h14c42 0.666992 72.167 15.167 90.5 43.5s34.166 82.5 47.499 162.5l42 262h268v-468h66v-222h-66v160h-396v-160zM445.001 62l0.000976562 406h-148l-31 -191c-10.667 -63.333 -21.334 -111.5 -32.001 -144.5s-26 -56.5 -46 -70.5h257z" />
    <glyph glyph-name="afii10070" unicode="&#x435;" horiz-adv-x="570" 
d="M291 540c149.333 0 224 -91.333 224 -274v-27h-395c2.66699 -64.667 19.167 -112.167 49.5 -142.5s71.166 -45.5 122.499 -45.5c82.667 -2 132.334 32 149.001 102l71 -9c-8.66699 -45.333 -31.167 -82.333 -67.5 -111s-87.5 -43 -153.5 -43
c-75.333 0 -134.333 23.333 -177 70s-64 115 -64 205s21.333 158.333 64 205s101.667 70 177 70zM291 480c-50.667 0 -91 -14.833 -121 -44.5s-46.667 -75.5 -50 -137.5h323c-2 123.333 -52.667 184 -152 182z" />
    <glyph glyph-name="afii10072" unicode="&#x436;" horiz-adv-x="778" 
d="M45 530h77l84 -144c16 -28.667 32 -49.167 48 -61.5s38.333 -18.5 67 -18.5h35v224h66v-224h35c28.667 0 51 6.16699 67 18.5s32 32.833 48 61.5l84 144h77l-103 -169c-28 -43.333 -55.667 -72 -83 -86c29.333 -13.333 58 -42 86 -86l115 -189h-77l-96 164
c-16 28.667 -32 49.167 -48 61.5s-38.333 18.5 -67 18.5h-38v-244h-66v244h-38c-28.667 0 -51 -6.16699 -67 -18.5s-32 -32.833 -48 -61.5l-96 -164h-77l115 189c28 44 56.667 72.667 86 86c-27.333 14 -55 42.667 -83 86z" />
    <glyph glyph-name="afii10073" unicode="&#x437;" horiz-adv-x="546" 
d="M491 148c0 -46 -19.668 -83.833 -59.001 -113.5s-94 -44.5 -164 -44.5c-65.333 0 -116.166 14.333 -152.499 43s-58.833 65.667 -67.5 111l71 9c16.667 -68.667 66.334 -103 149.001 -103c103.333 0 155 32.667 155 98c0 17.333 -3 32 -9 44s-12.667 21 -20 27
s-18.333 10.667 -33 14s-26.667 5.16602 -36 5.49902s-22.666 0.5 -39.999 0.5h-81v59h81c38 0 67.5 6.5 88.5 19.5s31.5 38.167 31.5 75.5c0 31.333 -11.333 53.5 -34 66.5s-55.667 19.5 -99 19.5c-42.667 0 -75.334 -8 -98.001 -24s-38 -42 -46 -78l-71 9
c22 102.667 93.667 154 215 154c56 0 103.333 -12.167 142 -36.5s58 -61.166 58 -110.499c0 -34 -8.83301 -60.833 -26.5 -80.5s-38.834 -32.5 -63.501 -38.5c72.667 -14.667 109 -56.667 109 -126z" />
    <glyph glyph-name="afii10074" unicode="&#x438;" horiz-adv-x="594" 
d="M138 0h-58v530h66l-4 -426l314 426h58v-530h-66l4 426z" />
    <glyph glyph-name="afii10075" unicode="&#x439;" horiz-adv-x="584" 
d="M128 0h-58v530h66l-4 -426l314 426h58v-530h-66l4 426zM404 800h61.002c0 -66.667 -13.333 -116.334 -40 -149.001s-72.667 -49 -138 -49s-111.333 16.333 -138 49s-40 82.334 -40 149.001h61c0 -52.667 8.66699 -89.5 26 -110.5s47.666 -31.5 90.999 -31.5
s73.666 10.5 90.999 31.5s26 57.833 26 110.5z" />
    <glyph glyph-name="afii10076" unicode="&#x43a;" horiz-adv-x="572" 
d="M450 530h77l-103 -169c-28 -43.333 -55.667 -72 -83 -86c29.333 -13.333 58 -42 86 -86l115 -189h-77l-96 164c-16 28.667 -32 49.167 -48 61.5s-38.333 18.5 -67 18.5h-108v-244h-66v530h66v-224h105c28.667 0 51 6.16699 67 18.5s32 32.833 48 61.5z" />
    <glyph glyph-name="afii10077" unicode="&#x43b;" horiz-adv-x="582" 
d="M502 530l-0.000976562 -530h-66v468h-148l-31 -191c-17.333 -104.667 -41.666 -177 -72.999 -217s-76 -60 -134 -60h-10l-1 62h9c44.667 0 76.5 14 95.5 42s35.167 82.667 48.5 164l42 262h268z" />
    <glyph glyph-name="afii10078" unicode="&#x43c;" horiz-adv-x="732" 
d="M593 418l-194 -418h-66l-194 418l5 -159v-259h-64v530h71l156 -334l59 -133l59 133l156 334h71v-530h-64v259z" />
    <glyph glyph-name="afii10079" unicode="&#x43d;" horiz-adv-x="594" 
d="M80 530h66v-222h302v222h66v-530h-66v246h-302v-246h-66v530z" />
    <glyph glyph-name="afii10080" unicode="&#x43e;" horiz-adv-x="578" 
d="M289 -10c-75.333 0 -134 23.333 -176 70s-63 115 -63 205s21 158.333 63 205s100.667 70 176 70s134 -23.333 176 -70s63 -115 63 -205s-21 -158.333 -63 -205s-100.667 -70 -176 -70zM289 478c-113.333 0 -170 -71 -170 -213s56.667 -213 170 -213s170 71 170 213
s-56.667 213 -170 213z" />
    <glyph glyph-name="afii10081" unicode="&#x43f;" horiz-adv-x="594" 
d="M146 468v-468h-66v530h434v-530h-66v468h-302z" />
    <glyph glyph-name="afii10082" unicode="&#x440;" horiz-adv-x="599" 
d="M136 90v-290h-66v606l-6 124h60l12 -91c18 30.667 42.667 55.167 74 73.5s66 27.5 104 27.5c74 0 131.667 -24.167 173 -72.5s62 -115.833 62 -202.5s-20.667 -154.167 -62 -202.5s-99 -72.5 -173 -72.5c-38 0 -72.667 9.16699 -104 27.5s-56 42.5 -74 72.5zM479 265
c0 68 -14.667 120.333 -44 157s-70.333 55 -123 55c-50.667 0 -92.334 -15.833 -125.001 -47.5s-49.667 -66.167 -51 -103.5v-122c1.33301 -37.333 18.333 -71.833 51 -103.5s74.334 -47.5 125.001 -47.5c52.667 0 93.667 18.5 123 55.5s44 89.167 44 156.5z" />
    <glyph glyph-name="afii10083" unicode="&#x441;" horiz-adv-x="550" 
d="M119 265c0 -67.333 14.667 -119.5 44 -156.5s70.333 -56.167 123 -57.5c81.333 -2 130 32 146 102l71 -9c-21.333 -102.667 -93.333 -154 -216 -154c-74.667 0 -132.834 24.167 -174.501 72.5s-62.5 115.833 -62.5 202.5s20.833 154.167 62.5 202.5
s99.834 72.5 174.501 72.5c122.667 0 194.667 -51.333 216 -154l-71 -9c-16 70 -64.667 104 -146 102c-52.667 -1.33301 -93.667 -20.5 -123 -57.5s-44 -89.167 -44 -156.5z" />
    <glyph glyph-name="afii10084" unicode="&#x442;" horiz-adv-x="500" 
d="M44 468v62h412v-62h-173v-468h-66v468h-173z" />
    <glyph glyph-name="afii10085" unicode="&#x443;" horiz-adv-x="540" 
d="M100 -147c23.333 0 42.167 6.16699 56.5 18.5s27.5 32.5 39.5 60.5l37 88l-215 510h78l115 -291l59 -152l59 152l116 291h77l-254 -604c-20.667 -48.667 -43 -83.5 -67 -104.5s-57.667 -31.5 -101 -31.5c-23.333 0 -42.333 2.66699 -57 8l8 64c14 -6 30.333 -9 49 -9z
" />
    </font>
</defs>
</svg>
