<svg version="1.1" id="Laag_1" xmlns="http://www.w3.org/2000/svg" x="0" y="0" viewBox="0 0 2496.9 1078.7" xml:space="preserve"><style>.st0{fill:#f6f8ff}.st1{fill:#2e72a9}.st2{fill:#3586bb}.st3{fill:#3f91c5}.st4{fill:#429acd}.st5{fill:#62b4e1}.st6{fill:#78c6ee}.st7{fill:#84d0f5}.st8{fill:#fdfdfd}</style><path class="st0" d="M1265.8 686.3c-2.4-2.4-4.1-59.6-4.1-126.8V436.9l-48.3-1.8-48.9-1.8v-47.2h259.4v47.2l-51.3 1.8-51.9 1.8-1.2 125-1.8 125-23.6 1.8c-13.6 1.2-26 0-28.3-2.4zm181.6-3.5c-1.8-4.1-2.4-73.1-1.8-152.1l1.8-144.5 76.7-1.8c43.6-1.2 86.1 1.2 98.5 4.7 59.6 17.1 78.4 112.6 31.8 161.6l-19.5 20.6 28.9 54.2c16.5 31.8 26.5 56.6 23.6 59.6s-17.1 4.7-31.3 3.5l-25.9-1.8-26.5-51.3-26.5-51.9H1504l-1.8 51.9-1.8 51.3-25.4 1.8c-16.4 1.3-25.9-.5-27.6-5.8zm164.5-171c13.6-19.5 11.8-44.2-5.3-60.7-12.4-13-19.5-14.7-59-14.7h-44.2v88.4h49.5c44.8 0 50.7-1.2 59-13zm88.4 169.8c-2.9-7.1 83.1-258.8 98.5-287.7 4.7-8.3 13.6-10.6 40.7-10.6 21.2 0 36.6 2.9 39.5 7.7 11.8 18.3 106.1 290.7 102 294.8-2.4 2.9-15.9 4.1-29.5 2.9-24.8-1.8-25.4-2.4-37.1-35.4l-12.4-34.2h-124.4l-12.4 34.2c-11.8 33-12.4 33.6-36.6 35.4-17.7 1.2-25.9-.6-28.3-7.1zM1879.6 559c-1.8-4.1-10-29.5-19.5-56-9.4-27.1-18.3-48.9-20-48.9-1.8 0-11.2 21.8-20.6 48.9-9.4 26.5-18.3 51.9-20 56-1.8 5.3 8.3 7.1 40.1 7.1 31.1-.1 41.7-1.8 40-7.1zm122 123.8c-1.8-4.1-2.4-73.1-1.8-152.1l1.8-144.5 64.9-1.8c85.5-2.4 109.7 4.7 148 43 34.8 34.8 47.2 71.3 41.9 126.2-4.7 55.4-32.4 96.7-80.8 122.1-27.2 14.2-169.3 20.1-174 7.1zm154.5-60.7c28.3-16.5 40.1-41.3 40.1-85.5 0-66.6-35.4-100.2-105-100.2h-33.6v202.2l40.7-2.9c23-1.9 47.8-7.8 57.8-13.6zm116.7 60.7c-1.8-4.7-2.4-73.1-1.8-152.1l1.8-144.5H2491v47.2l-80.8 1.8-81.4 1.8v69.6l69.6 1.8 69 1.8v53.1l-69 1.8-69.6 1.8v69.6l84.3 1.8 83.7 1.8v47.2l-110.8 1.8c-86 .8-111.4-.4-113.2-6.3z"/><path class="st1" d="M449.7 827.2c-21.2-1.8-33-10-80.8-51.9-49.5-44.2-80.2-77.8-80.2-87.9 0-1.8 12.4-9.4 27.1-15.9 33.6-15.9 45.4-34.2 46-70.8.6-39.5-17.1-56.6-71.3-70.2l-40.1-10 1.8-43.6c2.9-56 7.1-60.7 46.6-50.7 26.5 7.1 31.3 7.1 34.2 0 3.5-10.6-1.2-19.5-11.2-19.5-4.7 0-14.2-5.3-21.8-11.2l-14.2-11.2 50.1-49.5c82.5-80.8 82.5-80.8 156.8-85.5 35.4-1.8 87.3-1.8 115.6.6l51.3 4.7 48.9 43c27.1 23.6 59.6 54.8 71.3 70.2l22.4 26.5-25.4 13c-70.2 34.8-100.8 103.8-79.6 176.9 11.2 38.3 33.6 65.4 68.4 83.7 14.7 7.7 27.1 16.5 28.9 20.6 2.4 7.7-80.8 92.6-118.5 121.5-21.8 16.5-23.6 16.5-112 18.3-48.8 1.3-100.7.7-114.3-1.1zm105-155c33-9.4 59.6-30.1 76.1-59 12.4-22.4 14.7-34.2 14.7-73.7s-2.4-51.3-14.7-73.7c-27.7-49.5-64.9-64.9-160.4-64.9h-63.7V678h63.7c34.8.1 72.5-2.9 84.3-5.8z"/><path class="st1" d="M438.5 646.8c-1.2-4.1-1.8-55.4-1.2-113.2l1.8-106.1 41.3-1.8c23-1.2 50.7.6 62.5 4.1 38.3 11.8 76.1 66 76.1 109.7 0 41.3-33 92-69 106.7-25.4 10.6-107.3 11.2-111.5.6zm-177.4 6.5c-3.5-4.1-7.7-26.5-10-49.5-4.1-51.9 1.2-59.6 37.1-49.5 23.6 5.9 47.8 29.5 47.8 45.4 0 14.7-16.5 40.1-30.7 47.2-24.2 11.7-38.3 14.1-44.2 6.4zm528.8-5.3c-47.8-19.5-77.8-82-64.9-136.2 11.8-47.8 66.6-96.7 96.7-85.5 10.6 4.1 17.7 117.3 11.2 181-5.2 48.4-11.1 53.7-43 40.7z"/><path class="st2" d="M487.5 867.3c-24.2-15.9-46-31.8-47.8-35.4-7.1-11.2 18.3-19.5 42.5-12.4 11.8 2.9 38.9 5.9 60.1 5.9 21.2 0 48.3-2.9 60.1-5.9 24.2-7.1 49.5 1.2 42.5 12.4-6.5 11.2-92 64.3-102.6 64.3-5.9 0-30.1-12.9-54.8-28.9zm-113.2-51.9c-90.2-15.3-91.4-15.9-105.5-86.1l-8.3-40.1 15.3-5.9c13-5.3 17.1-3.5 25.9 7.7 5.9 7.7 10.6 16.5 10.6 19.5 0 8.8 50.1 57.2 54.2 53.1 1.8-2.4 11.2 5.9 20.6 17.1 8.8 11.8 19.5 21.2 23 21.2 8.8 0 21.8 15.9 15.9 19.5-2.2 1.1-25.8-1.2-51.7-6zm289.5-1.1c-2.4-3.5 1.2-8.8 9.4-11.8 7.7-2.9 19.5-13.6 27.1-23.6 7.1-10 16.5-18.3 20.6-18.3 8.8 0 45.4-36 45.4-44.2.6-3.5 6.5-13.6 14.2-22.4 11.2-14.2 15.3-15.9 28.3-10.6l15.3 5.9-10.6 48.3c-6.5 29.5-14.2 51.3-20.6 56-20.6 15.4-122.6 31.9-129.1 20.7zM245.7 641.5c-30.7-41.9-56.6-83.7-53.7-87.9 1.2-2.9 17.7-4.1 36-3.5l33.6 1.2.6 44.2c0 24.2 1.8 47.2 4.7 51.3 2.4 3.5 1.8 8.3-1.2 10-2.9 2.4-12.3-4.7-20-15.3zm579 8.9c0-2.9-.6-51.3-.6-107.9s-2.9-106.1-5.9-110.3c-2.9-4.1-2.9-7.7.6-10 8.8-5.9 86.1 105.5 79.6 115-1.8 2.9-9.4 5.3-17.7 5.3-10.6 0-14.2 2.9-14.2 13.6 0 7.7 2.9 16.5 6.5 20 4.7 4.7 0 15.9-18.3 42.5-25.2 35.9-28.8 40-30 31.8zM200.3 516.5c-4.7-4.7 27.1-59 51.9-87.3 10-12.4 22.4-7.7 12.4 4.7-3.5 4.7-5.3 16.5-3.5 27.1 2.4 10.6 1.8 28.9-.6 40.1-4.1 19.5-5.9 20.6-29.5 20.6-13.6.7-27.1-1.7-30.7-5.2zM270.5 395c-9.4-5.3-9.4-9.4.6-54.2 6.5-29.5 14.2-50.7 20.6-55.4 14.7-11.2 129.1-33.6 135.6-27.1 4.1 4.1-8.8 18.9-17.1 18.9-4.1 0-13 8.3-20 17.7-7.7 10-16.5 17.7-20.6 17.7-15.9 0-63.7 58.4-65.4 79.6-.7 8.2-21.9 9.9-33.7 2.8zm510.6-11.7c-9.4-9.4-14.7-17.7-11.8-17.7S764 355 751.6 342c-12.4-13-26.5-23.6-30.7-23.6s-13.6-8.3-20.6-18.3c-7.7-10-20-20.6-27.7-23.6-10.6-4.1-12.4-7.7-7.7-12.4 8.3-8.3 84.9 2.4 117.3 15.9 20 8.3 21.2 10.6 33.6 69.6 7.7 37.1 7.7 40.1-2.9 45.4-14.1 7.7-12.3 8.3-31.8-11.7zM445.6 257.7c-10.6-7.7-10-9.4 17.7-29.5 15.9-11.8 40.1-27.7 54.2-34.8l24.8-13.6 25.4 13.6c13.6 7.1 37.7 23 53.7 34.8 27.7 20 28.3 21.8 17.7 29.5-7.7 5.3-16.5 6.5-28.9 3.5-9.4-2.4-40.1-4.7-67.8-4.7-27.7 0-58.4 2.4-67.8 4.7-12.5 3-21.3 1.8-29-3.5z"/><path class="st3" d="M527 893.3c-12.4-9.4-11.2-10 15.3-10 10 0 19.5.6 22.4.6 4.7 1.2-16.5 18.3-22.4 18.3-1.8-.1-8.8-4.2-15.3-8.9zm-96.7-64.9c-3.5-4.1-10-7.1-14.2-5.3-8.3 2.9-35.4-30.7-27.7-35.4 2.4-1.8 11.8 4.1 20.6 13.6 11.2 11.8 20 15.9 29.5 14.2 17.7-3.5 24.8 7.7 10 15.3-8.2 4.7-12.9 4.1-18.2-2.4zm61.9 3c-1.8-2.9 0-7.7 4.7-9.4 14.2-5.3 95.5 0 95.5 6.5 0 8.2-94.9 11.1-100.2 2.9zm142.7-.6c-13.6-7.7-7.7-17.1 10.6-17.1 7.7 0 23.6-7.7 34.2-17.7 11.2-9.4 21.8-15.9 23.6-14.2 5.3 5.9-27.1 43.6-37.1 43.6-5.3 0-11.8 2.4-14.7 5.3-3.7 3.6-10.1 3.6-16.6.1zm-304.3-84.3c-17.1-17.7-28.9-33-25.9-34.8 2.9-1.8 19.5 10.6 36.6 27.7 17.1 17.7 28.9 33 25.9 34.8-3 1.7-19.5-10.6-36.6-27.7zm392.7 21.8c-2.4-3.5 7.7-17.1 21.8-30.7 14.2-14.2 27.1-23 28.9-20 2.4 3.5-7.7 17.1-21.8 30.7-14.1 14.1-27.1 22.9-28.9 20zM245.7 642.1c-9.4-5.3-9.4-7.1-.6-20 11.2-17.1 20-14.2 20 5.9.1 17-5.8 21.2-19.4 14.1zm577.9 2.9c-6.5-6.5-4.7-30.7 1.8-34.8 5.9-3.5 10 2.9 13 23 1.7 11.3-7.8 18.9-14.8 11.8zM245.1 457c-8.8-13.6-8.8-14.7 1.8-20 13-7.1 18.3-2.9 18.3 14.7 0 19.4-8.9 21.8-20.1 5.3zm576.7 7c-5.3-14.2-.6-30.7 9.4-30.7 5.9 0 8.3 4.7 7.1 14.7-3 19.6-11.8 28.4-16.5 16zm-517.1-96.7c-1.8-2.9 10.6-19.5 27.7-36.6 17.7-17.1 33-28.9 34.8-25.9 1.8 2.9-10.6 19.5-27.7 36.6-17.7 17.1-33 28.9-34.8 25.9zm441.6-24.7c-15.3-15.9-25.9-30.1-23-31.8 2.9-2.4 18.3 9.4 33.6 24.8 15.3 15.9 25.9 30.1 23 31.8-2.9 2.3-18.3-9.5-33.6-24.8zm-67.2-60.2c-10.6-9.4-25.4-17.1-33.6-17.1-18.9 0-24.2-9.4-9.4-17.7 7.7-4.1 13-4.1 15.3 0 1.8 2.9 8.3 5.9 13.6 5.9 11.2 0 44.8 38.9 37.7 43.6-2.4 1.2-13-5.2-23.6-14.7zm-291.9 8.9c-5.9-5.9 21.2-38.3 28.9-35.4 4.1 1.8 10.6-1.2 14.2-5.3 5.3-6.5 10-7.1 18.3-2.4 14.7 7.7 8.3 18.3-9.4 15.9-8.8-1.2-20 4.1-31.2 14.7-9 8.9-18.4 14.2-20.8 12.5zm105-37.8c-1.8-2.9 0-7.7 4.7-9.4 14.2-5.3 95.5 0 95.5 6.5 0 8.2-94.9 11.2-100.2 2.9zm28.9-60.1c-5.9-8.8 20.6-17.1 33.6-10.6 6.5 4.1 10.6 8.3 8.8 10-4.7 5.3-39.5 5.3-42.4.6z"/><path class="st4" d="M354.8 951.1c-15.9-23-41.9-74.9-57.2-116.2L284 799.5l-58.4-24.2c-31.8-13.6-70.2-31.8-84.9-41.9-22.4-15.3-25.9-20-24.2-34.8 3.5-31.3 12.4-34.8 59-24.2 23 5.3 52.5 9.4 66 9.4 27.1 0 30.7 4.7 41.3 59 3.5 17.7 8.3 35.4 10.6 39.5 2.4 4.1 33 13 68.4 20 59.6 11.8 67.2 15.3 119.7 50.1 31.3 20.6 58.4 37.7 60.7 37.7 2.4 0 29.5-17.1 60.7-37.7 52.5-34.8 60.1-38.3 119.7-50.1 35.4-7.1 66-15.9 67.8-19.5 2.4-3.5 7.1-22.4 11.2-42.5 10.6-50.7 13.6-54.8 43-57.8 14.7-1.8 35.4-7.7 46-13 17.7-8.8 20.6-8.8 26.5-.6 3.5 4.7 14.7 8.8 25.4 8.8 18.3 0 21.8 3.5 25.4 26.5 2.4 15.3-43 44.8-104.4 67.8-63.7 24.2-61.3 22.4-76.7 61.9-16.5 44.2-45.4 102-59.6 119.7l-11.2 13-43.6-11.8c-24.2-7.1-63.7-21.2-87.9-32.4l-43.6-20-28.3 14.2c-27.7 14.2-97.3 38.9-130.9 46.6-12.2 3.2-17.5.8-26.9-12.1zM182.6 651.5c-19.5-4.7-34.8-5.9-38.9-2.4-18.9 15.9-10.6-20 17.7-76.1 13-25.4 17.7-30.1 28.9-28.3 7.1 1.2 12.4 5.3 11.2 9.4-.6 3.5 13 27.7 30.7 53.1s30.1 47.8 28.3 49.5c-5.3 6-43.1 3.1-77.9-5.2z"/><path class="st4" d="M828.3 654.5c-4.1-7.1-2.4-10.6 28.3-51.9 20-27.7 24.8-31.3 41.3-29.5 17.7 1.8 18.9 3.5 20.6 25.9 1.8 21.2-.6 26.5-14.7 36.6-8.8 6.5-27.1 14.7-40.1 18.3-28.9 7.7-30.7 7.7-35.4.6zm61.3-109.7c-.6-2.9-.6-7.7 0-10.6.6-2.4-14.7-28.3-34.2-57.2-19.5-28.9-32.4-53.7-29.5-56 8.8-5.3 53.1 3.5 76.7 15.3 20 10.6 21.2 10.6 27.7 0 5.3-8.3 4.7-12.4-1.8-17.7-12.4-10.6-60.7-23.6-86.1-23.6-26.5 0-30.1-4.7-40.7-56.6-4.1-20-8.8-38.9-11.2-42.5-1.8-3.5-32.4-12.4-67.8-19.5-59.6-11.8-67.2-15.3-119.7-50.1-31.3-20.6-58.4-37.7-60.7-37.7-2.4 0-29.5 17.1-60.7 37.7-52.5 34.8-60.1 38.3-119.7 50.1-35.4 7.1-66 15.9-68.4 20s-7.1 21.8-10.6 39.5c-10.6 54.2-10.6 54.8-58.4 62.5-26.5 4.7-51.3 13-66 23l-23.6 15.3-7.7-19.5c-4.7-10.6-9.4-27.1-10.6-37.1-1.8-15.3 1.8-20 27.1-36.6 15.9-10.6 50.7-27.1 76.7-37.1 65.4-25.4 62.5-23 77.2-61.9 16.5-44.2 45.4-102 59.6-119.7l11.2-13 43.6 11.8c24.2 7.1 63.7 21.2 87.3 32.4l43 20 43-20c23.6-11.2 63.1-25.4 87.3-32.4l43.6-11.8 11.2 13c13.6 17.1 45.4 80.8 59.6 119.7 13.6 37.7 15.9 39.5 61.9 56 38.9 13 94.9 41.9 113.2 57.2 8.8 8.3 8.8 11.8-1.8 50.7-14.2 51.3-44.2 117.9-59 131.5-6.4 5.5-11.7 7.9-11.7 4.9z"/><path class="st4" d="M180.3 506.5c-21.8-17.1-21.2-46.6 1.8-66 17.1-14.2 65.4-25.9 76.7-18.9 4.7 2.4-54.8 97.3-60.7 97.3-1.3 0-9-5.3-17.8-12.4z"/><path class="st5" d="M495.1 1067.8c-31.8-10-57.2-27.1-93.2-61.9l-37.7-36-53.7-.6c-69.6-.6-110.8-15.9-148-53.7-37.1-37.7-51.9-78.4-53.1-146.8l-.6-53.7-36.6-36c-49.9-50.6-63.5-80-63.5-139.6s13.6-89 63.7-139.7l36.6-36 .6-53.7c1.2-68.4 16.5-110.8 53.1-147.4 37.1-37.1 79-52.5 148-53.1l53.7-.6 38.3-37.1c50.1-47.8 88.4-66 140.3-66 51.3 0 97.3 22.4 142.1 69.6l32.4 33.6 55.4.6c42.5.6 63.1 3.5 89 13.6 77.2 30.1 123.2 115 112.6 208.7-3.5 27.7-2.9 28.3 33.6 63.7 94.3 92 94.3 195.2 1.2 286.6l-35.4 34.2v53.1c0 59.6-9.4 91.4-36 127.9-36.6 50.1-85.5 70.8-165.1 71.9l-55.4.6-31.3 33c-44.8 46.6-82.5 65.4-134.4 67.8-23 1.1-48.3 0-56.6-3zM440.9 934c23.6-7.7 56-20.6 71.9-28.9l28.3-14.2 43.6 20c60.7 27.7 129.1 46.6 135.6 36.6 13-18.3 37.7-70.2 54.8-113.2l18.3-46.6 56-21.2c63.7-24.2 113.2-51.3 107.9-59.6-1.8-3.5-2.9-41.9-2.9-85.5l1.2-79h-25.9c-14.2 0-27.1-1.8-28.9-3.5-2.4-1.8 5.3-22.4 15.9-45.4 11.2-23.6 25.4-61.3 31.8-84.9l11.2-42.5-33-18.9c-18.3-10.6-56-27.1-83.1-37.1l-50.1-18.3-18.3-47.2c-17.1-43-41.9-94.3-54.8-113.2-6.5-10-74.9 8.8-135 36.6l-43 20-43-20c-60.1-27.7-128.5-46.6-135-36.6-13 18.3-37.7 70.2-54.8 113.2l-18.3 46.6-38.3 13.6c-20.6 7.1-57.8 23.6-82 36-41.3 21.2-44.2 23.6-42.5 40.1 1.2 9.4 5.9 25.4 10 36 6.5 15.3 6.5 20-1.2 30.7-18.3 25.9 2.9 76.1 37.1 89l14.2 5.9-17.7 36c-10 19.5-19.5 43.6-20.6 52.5-1.2 9.4-5.9 25.4-10.6 36.6-17.7 40.1-17.1 44.2 13 61.9 14.7 8.8 52.5 25.9 83.1 37.7l56 22.4 18.3 46c9.4 25.4 26.5 62.5 37.1 82.5 22.3 41.8 16.4 41.2 93.7 15.9z"/><path class="st6" d="M499.9 1070.8c-9.4-4.7-16.5-7.7-16.5-5.9 0 2.9-34.8-14.2-45.4-22.4-4.1-3.5-5.9-8.3-4.7-11.2 1.8-2.4 15.9 2.9 31.3 11.8 24.8 14.7 34.2 16.5 77.8 16.5s53.1-1.8 77.8-16.5c15.3-8.8 29.5-14.2 31.3-11.2 2.9 4.7-27.7 28.3-39.5 30.1-8.3 1.2-13 2.9-30.1 10-23.1 9.4-62.6 8.8-82-1.2zm-101.5-62c-12.4-12.4-20-24.2-17.1-25.9 3.5-2.4 15.9 6.5 27.7 18.9 12.4 12.4 20 24.2 17.1 25.9-3.5 2.4-15.9-6.5-27.7-18.9zm260.1 18.9c-2.4-3.5 6.5-15.9 18.9-27.7 12.4-12.4 24.2-20 25.9-17.1 2.4 3.5-6.5 15.9-18.9 27.7-12.4 12.4-24.2 20.1-25.9 17.1zm46.5-54.2c-4.7-7.7 8.8-16.5 25.9-15.9 17.7.6 20 12.4 2.9 13-6.5 0-15.3 1.8-18.9 4.1-3.4 2.3-8.1 1.7-9.9-1.2zM256.3 967c-1.8-2.9-6.5-4.7-9.4-2.9-9.4 6.5-60.7-20.6-86.1-45.4-27.1-26.5-53.7-79-44.2-88.4 6.5-6.5 8.8-3.5 18.9 27.1 8.8 27.1 46.6 70.2 69.6 79.6 43 17.1 51.9 20 63.1 20.6 6.5 0 13 3.5 14.7 6.5 4.1 8.2-21.3 11.1-26.6 2.9zm76.7 0c-1.8-2.9 0-7.1 4.1-8.8 11.8-4.7 31.3-.6 31.3 5.9 0 8.2-30.7 10.5-35.4 2.9zm465.8 0c-4.1-6.5 8.8-13.6 21.2-11.2 4.7.6 13.6-.6 20-3.5 6.5-2.4 20-7.7 30.1-11.8 37.7-15.3 69.6-53.7 87.3-105.5 2.9-8.3 5.9-9.4 10-5.3 9.4 9.4-12.4 54.8-41.3 86.1-23.6 25.4-77.8 55.4-89 48.3-2.9-1.8-6.5-.6-8.8 2.9-4.7 7.6-24.8 7.6-29.5 0zM108.3 811.3c-4.7-12.4 1.8-28.9 9.4-24.2 2.9 1.8 5.9 8.8 5.9 14.7.1 14.8-10.5 21.3-15.3 9.5zm855 .6c-4.1-11.8-1.2-27.7 6.5-29.5 8.3-1.8 11.2 25.4 3.5 33-4.1 4.2-7.1 3.6-10-3.5zm0-53.1c-4.1-11.2.6-51.3 6.5-53.1 7.7-1.8 10.6 53.1 3.5 57.8-3.5 1.8-8.2.1-10-4.7zm-855-7c-2.4-4.7-2.4-14.7-.6-21.2 2.4-8.8-1.8-16.5-14.2-27.1-9.4-8.3-15.3-17.1-13.6-20s11.8 1.2 21.8 10c13 11.2 18.9 21.2 20 37.7 2.6 22.9-6.9 37.7-13.4 20.6zm873.9-49c-1.8-2.9 1.8-10 7.7-15.3 6.5-5.9 13-7.7 14.7-4.7 1.8 2.9-1.8 10-7.7 15.3-6.5 5.9-13 7.7-14.7 4.7zM50.6 661c-5.9-6.5-7.7-13-4.7-14.7s10 1.8 15.3 7.7c5.9 6.5 7.7 13 4.7 14.7-3 1.7-10-1.8-15.3-7.7zm966.9 6.5c-1.8-2.9 1.8-10 7.7-15.3 6.5-5.9 13-7.7 14.7-4.7 1.8 2.9-1.8 10-7.7 15.3-6.4 5.8-12.9 7.6-14.7 4.7zm24.2-28.9c-1.2-2.9 4.1-18.9 12.4-36.6 21.8-47.8 19.5-89.6-7.7-142.1-5.3-10-6.5-18.3-2.9-20.6 6.5-4.1 37.1 54.2 32.4 61.9-1.8 2.9-.6 6.5 2.9 8.8 2.9 1.8 5.9 15.3 5.9 29.5s-2.9 27.7-5.9 29.5c-3.5 2.4-4.7 5.9-2.9 8.8 2.9 5.3-24.2 64.9-29.5 64.9-1.1 0-3.5-1.8-4.7-4.1zm-1018.9-16c-.6-1.8-1.2-5.3-1.8-7.7-.6-2.9-4.1-10.6-8.3-18.3-4.1-7.1-5.9-15.9-4.1-18.9 1.8-2.9.6-6.5-2.9-8.8-7.7-4.7-7.7-54.2 0-59 3.5-2.4 4.7-5.9 2.9-8.8s0-11.8 4.1-18.9c4.1-7.7 7.1-15.3 7.7-17.7 0-2.9 1.8-4.7 4.7-4.7 3.5 0 5.3 2.9 3.5 7.7 0 .6-1.2 5.9-2.4 11.8s-3.5 15.3-5.9 20.6c-5.3 13-5.3 66 0 79 2.4 5.3 4.1 13 5.3 17.7.6 4.1 2.9 10.6 5.3 14.7 2.4 3.5 1.8 8.3-1.8 10.6-2.7 1.9-6.3 2.5-6.3.7zm21.9-191c-1.8-2.9 1.8-10 7.7-15.3 6.5-5.9 13-7.7 14.7-4.7s-1.8 10-7.7 15.3c-6.5 5.9-13 7.7-14.7 4.7zm978.7-6.5c-5.9-6.5-7.7-13-4.7-14.7 2.9-1.8 10 1.8 15.3 7.7 5.9 6.5 7.7 13 4.7 14.7-2.9 1.8-10-1.8-15.3-7.7zM80 396.2c-1.8-2.9 2.9-11.2 10.6-18.3 7.7-7.7 15.3-10.6 17.7-7.7 1.8 2.9-2.9 11.2-10.6 18.3-7.6 7.7-15.3 10.7-17.7 7.7zm901.6-12.4c-14.7-12.4-18.3-20-17.7-38.9 0-13 2.9-23.6 5.9-23.6 3.5 0 5.9 9.4 5.9 20.6 0 15.3 4.1 24.2 17.1 36 9.4 8.3 14.7 16.5 11.8 18.3-3 1.8-13.6-3.5-23-12.4zM108.3 352c-4.1-11.8-1.2-27.7 6.5-29.5 8.3-1.8 11.2 25.4 3.5 33-4.1 4.2-7 3.6-10-3.5zm855-59c-4.1-11.8-1.2-27.7 6.5-29.5 8.3-1.8 11.2 25.4 3.5 33-4.1 4.2-7.1 3.6-10-3.5zm-855-6.4c-4.7-12.4 1.8-28.9 9.4-24.2 2.9 1.8 5.9 8.8 5.9 14.7.1 14.8-10.5 21.2-15.3 9.5zm6.5-39c-4.1-7.1 17.1-56.6 30.7-71.9 15.9-17.7 19.5-5.3 4.7 16.5-7.7 11.2-15.3 28.3-17.7 37.7-4.1 19.5-11.8 27.2-17.7 17.7zm842.6-3.5c-13-36-21.2-50.7-40.1-71.9-11.8-13-28.9-26.5-37.7-30.1-8.8-3.5-23.6-9.4-33.6-13-9.4-4.1-23.6-6.5-30.7-5.9-6.5.6-14.2-1.8-16.5-4.7-4.7-8.8 11.8-14.7 25.4-9.4 5.3 2.4 15.9 5.3 22.4 6.5 23 2.9 59 24.8 81.4 50.1 27.7 30.1 48.3 74.9 39.5 83.7-4.2 4.1-7.2 3-10.1-5.3zm-788.9-84.3c-6.5-9.4 42.5-40.7 69.6-44.2 6.5-1.2 17.1-4.1 23-6.5 13-5.3 29.5.6 24.8 9.4-2.4 2.9-10 5.3-16.5 4.7-7.1-.6-20.6 1.8-29.5 5.3-9.4 4.1-18.9 7.1-21.2 7.1-2.9 0-14.2 6.5-25.9 14.7-11.9 7.7-23.1 11.8-24.3 9.5zM333 117.9c-1.8-2.9 0-7.1 4.1-8.8 11.8-4.7 31.3-.6 31.3 5.9 0 8.2-30.7 10.6-35.4 2.9zm373.8-3.5c-5.9-7.7 1.8-17.1 8.8-10 2.4 2.4 10 4.1 17.1 4.7 7.1 0 13.6 2.9 14.7 5.9 1.9 8.8-32.9 8.2-40.6-.6zM381.3 96.1c-2.4-3.5 6.5-15.9 18.9-27.7 12.4-12.4 24.2-20 25.9-17.1 2.4 3.5-6.5 15.9-18.9 27.7-12.3 12.4-24.1 20.1-25.9 17.1zm294.3-18.9c-12.4-12.4-20-24.2-17.1-25.9 3.5-2.4 15.9 6.5 27.7 18.9 12.4 12.4 20 24.2 17.1 25.9-3.6 2.4-15.9-6.5-27.7-18.9zM433.2 47.8c-1.2-2.9.6-7.7 4.7-11.2 12.4-9.4 45.4-25.4 45.4-21.2 0 2.4 4.1.6 8.8-3.5s8.8-5.3 8.8-2.4c0 2.4 2.9 1.8 7.1-2.4 9.4-9.4 59-9.4 68.4 0 4.1 4.1 7.1 4.7 7.1 2.4 0-2.9 4.1-1.8 8.8 2.4s8.8 5.9 8.8 3.5c0-4.1 33 11.8 45.4 21.2 4.1 3.5 5.9 8.3 4.7 11.2-1.8 2.4-17.1-3.5-34.2-13.6s-31.3-17.7-31.8-17.1c-1.2 0-2.9.6-4.7 0-18.9-1.8-74.3 0-79 2.9-3.5 2.4-6.5 2.9-6.5 1.2s-13 4.7-29.5 14.2c-15.8 9.4-30.5 14.7-32.3 12.4z"/><path class="st7" d="M468.6 1074.9c-48.3-7.1-117.3-28.3-165.1-51.9-56-27.7-123.2-76.7-117.9-85.5 1.8-2.9 15.9.6 31.2 7.7 21.8 10 40.7 13 88.4 14.2l61.3 1.2 34.2 36c30.7 31.8 62.5 51.3 107.9 67.2 5.9 1.8 8.8 5.9 7.1 9.4-3.5 5.8-14.1 6.4-47.1 1.7zm100.2-1.2c-1.8-3.5 1.2-8.3 7.1-10 45.4-15.9 77.2-35.4 107.9-67.2l34.2-36 61.3-1.2c47.8-1.2 66.6-4.1 88.4-14.2 15.3-7.1 29.5-10.6 31.3-7.7 7.7 13-89 76.1-156.3 102.6-69.5 27.2-166.2 45.5-173.9 33.7zm367.4-174.5c-1.8-1.8 4.1-17.1 12.4-34.2 13-26.5 15.3-38.9 16.5-92l.6-60.7 32.4-28.9c28.9-25.9 60.7-75.5 71.3-113.2 1.8-5.9 6.5-8.8 10-7.1 13.6 8.8-12.4 130.3-42.5 195.8-30 65.4-90.7 150.3-100.7 140.3zm-827.3-36.6c-35.4-44.8-76.7-129.1-90.8-185.7-13-49.5-18.3-109.7-10-112 2.4-1.2 8.8 10 13.6 24.8 11.8 34.8 36.6 70.2 70.2 99.1L119 713l1.2 60.7c.6 47.8 3.5 66.6 13.6 88.4 7.1 15.3 10.6 29.5 7.7 31.3-3.1 1.6-17.8-11.9-32.6-30.8zM2.8 511.8c-5.9-14.7 13-111.4 29.5-156.2 27.1-70.8 95.5-178.1 109.1-169.8 2.9 1.8-.6 15.9-7.7 31.3-10 21.8-13 40.7-13.6 88.4l-1.2 60.7-27.1 24.2c-32.4 28.3-57.8 63.7-69 96.1-10 29.4-15.9 37.1-20 25.3zm1066.6-3c-10.6-37.1-42.5-87.3-71.3-113.8l-32.4-29.5-.6-60.7c-1.2-51.9-3.5-64.3-16.5-91.4-8.3-17.1-13.6-32.4-11.2-33.6 11.8-7.1 70.2 76.1 100.2 140.9 29.5 64.9 55.4 186.3 41.9 195.2-3.6 1.8-8.3-1.2-10.1-7.1zM150.8 172.2c-1.8-2.9 1.8-10 7.7-15.3 6.5-5.9 13-7.7 14.7-4.7 1.8 2.9-1.8 10-7.7 15.3-6.4 5.8-12.9 7.6-14.7 4.7zm34.8-30.7c-5.3-8.8 61.9-57.8 117.9-85.5C376 20.6 505.7-10.6 515.8 5.3c1.8 3.5-1.2 8.3-7.1 10-45.4 15.9-77.2 35.4-107.9 67.2l-34.2 36-61.3 1.2c-47.8 1.2-66.6 4.1-88.4 14.2-15.4 7-29.5 10.6-31.3 7.6zm681-8.2c-20.6-9.4-40.1-12.4-87.3-13.6l-61.3-1.2-34.2-36c-30.7-31.8-62.5-51.3-107.9-67.2-22.4-7.6-2.9-16.5 27.7-12.4 86.7 11.2 168.6 41.3 238.8 87.9 64.3 43 78.4 67.8 24.2 42.5z"/><path class="st8" d="M170.8 685.1c-41.9-11.2-48.9-20-31.3-41.3 10.6-12.4 11.2-12.4 48.9-3.5 54.8 13.6 104.4 8.3 122.1-12.4 33-38.3 1.8-67.8-71.3-67.8-40.7 0-73.7-11.2-94.9-33-25.9-25.9-30.1-50.7-13.6-84.3 20-40.1 56-56.6 122.6-56 52.5.6 94.3 12.4 94.3 27.1 0 4.7-4.1 13.6-8.8 20-8.3 11.8-10 12.4-39.5 4.1-36-9.4-88.4-5.9-109.1 7.7-10 5.9-13.6 14.2-13.6 28.9 0 16.5 2.9 21.8 17.7 29.5 9.4 4.7 28.9 8.8 43.6 8.8 47.8 0 86.1 11.8 109.7 33.6 26.5 23.6 33 44.2 23.6 77.8-15.8 60.8-100.7 86.8-200.4 60.8zm607.9.6c-40.1-14.2-80.2-57.8-92.6-99.1-10.6-37.7-7.7-80.8 7.7-111.4 13-26.5 48.3-61.3 74.9-75.5 46.6-24.2 129.1-18.3 168 12.4l14.2 10.6-13 18.9-13 18.3-21.8-11.2c-73.7-37.1-148.6-8.3-166.3 63.7-9.4 38.9 3.5 87.3 29.5 108.5 21.8 18.9 68.4 29.5 94.9 21.8 37.7-10.6 46.6-18.3 46.6-39.5 0-18.3-1.2-19.5-19.5-19.5-10.6 0-22.4-2.9-26.5-7.1-9.4-9.4-8.8-31.3.6-38.9 10-8.3 86.7-8.8 96.1-.6 10.6 8.8 11.8 135 1.2 145.6-10 10-45.4 8.8-49.5-1.2-2.4-7.1-5.9-6.5-21.8 1.2-26.5 13.1-78.4 14.8-109.7 3zm-380.9-2.9c-1.8-4.1-2.4-71.3-1.8-149.2l1.8-141.5h79.6c70.2 0 82.5 1.8 103.2 13 53.7 28.3 76.1 68.4 76.1 134.4 0 66.6-23 106.7-79 136.2-27.1 14.2-175.1 20.1-179.9 7.1zm166.3-55.4c27.7-20.6 40.1-48.3 40.1-87.9s-12.4-67.2-40.1-87.9c-13-10-27.1-13-66.6-14.7l-49.5-1.8v208.7l49.5-1.8c39.5-1.7 53.6-4.6 66.6-14.6z"/><path class="st0" d="M1267.5 557.2V430.4h-100.2v-41.3h253.5v41.3h-106.1V684h-47.2V557.2zm182.8-20.6V389.2h81.4c92.6 0 113.8 6.5 132.1 41.3 21.2 40.1 9.4 106.7-23 127.9l-13.6 8.8 29.5 56.6c15.9 30.7 29.5 56.6 29.5 57.8s-11.8 2.4-26.5 2.4h-26.5l-26.5-53.1-26.5-53.1h-82.5V684h-47.2V536.6zm164.5-21.3c13.6-17.7 15.3-36 5.9-57.2-9.4-20.6-29.5-27.7-79-27.7h-44.2v100.2h52.5c50.1.1 53.6-.5 64.8-15.3zm89.1 162.2c0-5.3 76.7-223.5 97.9-278.9 2.9-8.3 10.6-9.4 38.9-8.3l35.4 1.8 25.4 70.8c14.2 38.9 37.7 104.4 52.5 146.2l26.5 74.9H1931l-12.4-33.6-11.8-34.2H1773l-11.8 34.2c-11.8 33-13 33.6-34.8 33.6-13.1 0-22.5-3-22.5-6.5zm162.7-173.4c-13-37.1-25.4-67.8-27.1-67.8-2.9 0-47.2 122.6-47.2 131.5 0 2.4 22.4 4.1 49.5 4.1h48.9l-24.1-67.8zm138 33v-148h65.4c83.1 0 106.7 7.1 141.5 41.3 20.6 21.2 28.9 34.2 34.8 58.4 14.2 59-1.2 126.2-36.6 157.4-31.3 28.9-51.3 34.2-129.7 36.6l-75.5 2.4V537.1zm153.9 89.1c31.3-18.9 43.6-44.8 43.6-89.6 0-69.6-39.5-106.1-113.8-106.1h-36.6v214l43.6-2.9c30.1-1.9 49.6-6.6 63.2-15.4zm117.3-89.6V389.2h212.3v41.3H2323V513h141.5v47.2H2323v82.5h171V684h-218.2V536.6z"/><path class="st1" d="M449.7 821.3c-21.2-1.8-33-9.4-80.2-51.3-54.8-48.9-82-80.8-71.3-84.3 3.5-1.2 14.7-7.1 25.9-13 30.7-16.5 43-36.6 43.6-71.9.6-27.1-1.2-31.8-21.2-49.5-15.9-14.7-30.7-21.8-57.2-27.1l-36-7.1 3.5-41.9c2.4-23 5.9-43.6 7.7-46 2.4-2.9 18.3-1.2 34.8 3.5 28.9 7.1 31.8 7.1 36.6-2.9 9.4-17.1 7.1-20.6-18.3-30.7l-24.8-10 14.7-18.9c8.3-10.6 37.7-39.5 65.4-64.9l51.3-44.8 51.3-4.1c28.9-2.4 80.8-2.9 116.2-1.2 74.9 4.7 74.9 4.7 156.3 86.1l49.5 49.5-23 11.8C703.7 438 670.1 511.1 692 584.2c11.2 40.1 37.1 71.3 71.3 87.9 14.7 7.1 26.5 15.3 26.5 18.9 0 7.1-83.7 90.8-114.4 113.8-20.6 15.9-23 16.5-111.4 17.7-48.8 1.2-100.7.6-114.3-1.2zm128-151.5c53.1-27.7 73.1-63.7 73.1-130.3 0-65.4-20-102-70.2-128.5-20-10.6-36-13-101.4-14.7l-78.4-2.4v291.3l78.4-2.4c61.3-1.8 82.6-4.1 98.5-13z"/><path class="st1" d="M442.1 538.9V429.2l52.5 2.4c42.5 1.2 56 4.1 69.6 14.2 53.7 39.5 63.1 117.9 21.2 168-21.8 25.9-47.2 34.8-99.1 34.8h-44.2V538.9zM262.8 647.4c-1.8-4.1-4.1-25.4-5.9-47.8-4.7-46-.6-50.1 34.8-38.3 55.4 18.3 47.2 73.1-13.6 90.2-8.2 2.4-14.1 1.2-15.3-4.1zm527.1-5.3c-44.2-17.7-71.9-77.8-59-127.9 11.2-45.4 48.3-83.7 81.4-83.7 10 0 11.8 6.5 15.3 54.2 2.4 29.5 2.4 78.4 0 109.1-4 58.9-5.8 60.7-37.7 48.3z"/><path class="st2" d="M485.7 860.3c-37.7-24.8-44.2-31.3-36-36 6.5-3.5 18.3-2.9 31.8.6 12.4 3.5 39.5 6.5 60.7 6.5 21.2 0 48.3-2.9 60.7-6.5 13.6-3.5 25.4-4.1 31.8-.6 8.3 4.7 1.8 11.2-36 36-25.4 16.5-50.7 30.1-56.6 30.1-5.7-.1-31-13.6-56.4-30.1zm-111.4-50.2c-63.1-11.2-84.3-18.9-87.9-30.7-8.8-28.3-19.5-89.6-15.3-89.6 2.9 0 8.8-1.2 13-2.9 5.3-2.4 11.8 2.9 16.5 13 10.6 21.2 59.6 73.1 65.4 69 2.4-1.2 11.8 6.5 20.6 18.3 8.3 11.2 18.9 20.6 23.6 20.6 4.1 0 9.4 2.9 11.2 5.9 1.8 3.5 2.9 5.9 1.8 5.3-1.2 0-23-4.1-48.9-8.9zm301.3-1.7c7.1-2.9 18.3-13.6 25.4-23.6 7.1-10 16.5-18.3 20.6-18.3 8.3 0 50.7-41.9 50.7-50.1.6-13.6 22.4-31.8 33.6-28.9 11.8 3.5 11.8 4.1 1.8 50.7-5.3 25.9-13.6 49.5-18.3 52.5-11.2 6.5-60.1 17.1-96.7 20.6-21.9 1.8-26 1.2-17.1-2.9zM231 612c-15.9-23.6-30.7-46-32.4-50.1-2.9-4.7 4.7-6.5 27.1-6.5l30.7.6-.6 41.9c-.6 23 1.8 45.4 4.7 49.5 3.5 3.5 4.7 7.1 2.9 7.1-2.3 0-16.5-19.5-32.4-42.5zm599.6 11.8c-2.4-54.8-1.8-158 1.2-169.8 2.9-13.6 5.9-10.6 34.2 32.4l31.3 47.2-17.1 2.9c-18.3 3.5-25.4 23.6-13.6 38.3 5.3 6.5 2.9 14.2-11.8 35.4-10 14.7-19.5 26.5-20.6 26.5-1.8.1-3-5.8-3.6-12.9zM203.3 513.6c-2.9-2.4 55.4-89 60.1-89 1.8 0 0 4.1-4.1 8.8-4.1 5.3-5.9 15.9-4.1 25.9 1.8 9.4 1.8 26.5 0 38.3-2.9 20.6-4.1 21.2-26.5 20-13-1.1-24.2-2.9-25.4-4zm618.5-84.4c-2.4-4.1-1.8-4.7 2.4-2.4 7.1 4.1 9.4 9.4 4.7 9.4-1.8.1-4.8-2.8-7.1-7zm-548.4-37.7c-9.4-4.1 10.6-96.1 21.8-103.2 15.9-10 130.3-30.1 125.6-21.8-1.8 2.4-6.5 4.7-11.2 4.7-4.1 0-13.6 8.3-20.6 17.7-7.1 10-15.9 17.7-20 17.7-15.3 0-72.5 69-69.6 84.3 1.2 4.7-15.3 4.7-26 .6zm510.7-11.2c-7.7-8.3-11.8-14.7-8.8-14.7 2.9 0-6.5-11.8-20.6-26.5-14.2-14.7-29.5-26.5-33-26.5-4.1 0-13.6-8.3-20.6-18.3-7.1-10-18.3-20.6-25.4-23.6-8.8-4.1-4.7-4.7 17.1-2.9 36.6 3.5 85.5 14.2 96.7 20.6 4.7 2.9 13 26.5 18.3 52.5 8.8 41.3 9.4 47.8 1.8 50.7-11.4 4.6-9.6 5.2-25.5-11.3zM448.6 254.1c-6.5-4.1 2.4-12.4 37.7-35.4 24.8-16.5 50.1-30.1 56-30.1 5.9 0 31.3 13.6 56.6 30.1 37.1 24.8 44.2 31.3 36 35.4-5.9 3.5-19.5 2.9-36.6-1.2-25.4-6.5-103.8-4.7-129.7 2.9-6.5 2.5-15.3 1.3-20-1.7z"/><path class="st3" d="M538.2 892.1c2.4-1.8 5.9-1.8 8.3 0 1.8 2.4 0 4.1-4.1 4.1-4.2 0-6-1.7-4.2-4.1zm-105-66.6c-2.4-3.5 1.8-5.9 8.3-5.9 14.7 0 15.9 3.5 3.5 7.7-4.7 2.3-10 1.1-11.8-1.8zm84.3 1.7c13.6-1.2 36-1.2 50.1 0 13.6 1.2 2.4 2.4-25.4 2.4-27.6 0-38.8-1.2-24.7-2.4zm119.1-1.7c-7.1-4.7-5.9-5.9 4.7-5.9 7.7 0 11.8 2.4 10 5.9-4 7-3.5 7-14.7 0zm-228.1-10.1c2.4-1.8 5.9-1.8 8.3 0 1.8 2.4 0 4.1-4.1 4.1-4.2.1-6-1.7-4.2-4.1zm256.4 0c4.1-1.8 9.4-1.2 11.2.6 2.4 1.8-1.2 3.5-7.7 2.9-6.4.1-8.2-1.7-3.5-3.5zm-270.6-17.6c-7.7-9.4-7.1-10 2.4-2.4 5.3 4.1 10 8.8 10 10 0 4.7-4.7 1.8-12.4-7.6zm292.5-1.8c5.9-6.5 11.8-11.8 13.6-11.8s-1.8 5.3-7.7 11.8-11.8 11.8-13.6 11.8 1.8-5.3 7.7-11.8zM333 741.7l-29.5-31.3 31.3 29.5c16.5 15.9 30.7 30.1 30.7 30.7-.1 4.8-5.4-.6-32.5-28.9zm412.7 1.2c12.4-13 24.2-23.6 25.9-23.6s-7.7 10.6-20 23.6c-12.4 13-24.2 23.6-25.9 23.6s7.6-10.6 20-23.6zm-491.1-115c0-9.4 1.2-13 2.9-7.1 1.2 5.3 1.2 13.6 0 17.7-1.8 3.6-2.9-.5-2.9-10.6zm570.7 0c0-8.3 1.2-14.7 2.4-14.7s3.5 6.5 4.7 14.7c1.8 8.3.6 14.7-1.8 14.7-2.9.1-5.3-6.4-5.3-14.7zM225.7 556c2.4-1.8 5.9-1.8 8.3 0 1.8 2.4 0 4.1-4.1 4.1-4.2 0-6-1.7-4.2-4.1zm-11.8-41.3c2.4-1.8 5.9-1.8 8.3 0 1.8 2.4 0 4.1-4.1 4.1-4.2.1-6-1.7-4.2-4.1zm40.7-63.6c0-9.4 1.2-13 2.9-7.1 1.2 5.3 1.2 13.6 0 17.7-1.8 3.5-2.9-.6-2.9-10.6zm570.7 0c0-8.3 2.4-14.7 5.3-14.7 2.4 0 3.5 6.5 1.8 14.7-1.2 8.3-3.5 14.7-4.7 14.7s-2.4-6.5-2.4-14.7zM333 336.1c15.9-15.9 30.1-29.5 31.8-29.5 1.8 0-10 13.6-25.9 29.5-15.9 16.5-30.1 29.5-31.8 29.5-1.8 0 10-13 25.9-29.5zm415.7 2.9c-14.2-14.7-24.8-26.5-23-26.5s14.7 11.8 28.9 26.5 24.8 26.5 23 26.5-14.8-11.7-28.9-26.5zm-62.5-57.2L675 268.3l13.6 11.2c12.4 10.6 15.9 15.3 11.2 15.3-1.2 0-7.1-5.9-13.6-13zM389 286.6c0-1.2 4.7-5.9 10.6-10 8.8-7.7 9.4-7.1 1.8 2.4s-12.4 12.3-12.4 7.6zm19.5-25.4c2.4-1.8 5.9-1.8 8.3 0 1.8 2.4 0 4.1-4.1 4.1-4.2 0-6-1.7-4.2-4.1zm256.4 0c4.1-1.8 9.4-1.2 11.2.6 2.4 1.8-1.2 3.5-7.7 2.9-6.4 0-8.2-1.7-3.5-3.5zm-231.7-7.7c1.8-2.9 7.1-4.1 11.8-1.8 12.4 4.1 11.2 7.7-3.5 7.7-6.5 0-10.6-2.3-8.3-5.9zm197.5 3.6c0-5.3 17.7-8.3 20.6-3.5 2.4 3.5-1.8 5.9-8.3 5.9-6.9-.1-12.3-1.2-12.3-2.4zm-113.2-7.7c13.6-1.2 36-1.2 50.1 0 13.6 1.2 2.4 2.4-25.4 2.4-27.6 0-38.8-1.2-24.7-2.4zm20.7-64.8c2.4-1.8 5.9-1.8 8.3 0 1.8 2.4 0 4.1-4.1 4.1-4.2 0-6-1.8-4.2-4.1z"/><path class="st4" d="M358.3 947.5c-15.3-23-44.2-82.5-57.2-119.1l-13-35.4-57.1-22.4c-31.3-11.8-69.6-29.5-84.3-38.9-24.8-15.3-26.5-18.9-24.2-36 1.2-10 5.9-20 9.4-21.2 4.1-1.8 24.2 1.2 45.4 6.5 20.6 4.7 48.9 8.8 62.5 8.8 27.1 0 25.9-1.8 37.1 53.7 3.5 18.3 9.4 37.7 13.6 42.5 4.1 5.9 31.8 14.7 70.8 22.4 59 11.8 68.4 15.3 119.1 48.9 30.7 19.5 55.4 37.7 55.4 39.5 1.2 8.3-145.6 64.3-168 64.3-.6 0-4.7-5.9-9.5-13.6zm307.8-.6c-47.8-14.2-117.9-44.2-117.3-50.1 0-1.8 24.8-20 55.4-39.5 50.7-33.6 60.1-37.1 119.1-48.9 34.8-7.1 66-15.3 68.4-17.7 4.1-4.1 13-35.4 24.2-83.7 2.9-13 7.1-15.9 29.5-18.3 14.2-1.8 34.2-7.7 44.8-13 23.6-11.8 23.6-11.8 23.6-.6 0 6.5 6.5 8.8 23 8.8 20 0 23 1.8 25.9 15.3 2.4 12.4-1.2 17.7-21.8 30.1-28.3 18.3-71.3 37.1-113.2 51.3l-30.1 10-18.3 48.4c-20.6 52.5-54.8 117.3-63.7 119.7-2.9 1.2-25.3-4.1-49.5-11.8zM180.3 645c-19.5-4.7-36.6-9.4-37.7-11.2-1.2-1.2 5.9-20.6 16.5-43.6 14.2-30.1 21.8-40.7 29.5-40.1 5.9.6 9.4 2.9 8.3 5.3-1.8 2.9 11.8 25.9 29.5 51.9l32.4 47.2-21.8-.6c-11.9 0-37.9-4.1-56.7-8.9zm652.7 1.8c1.8-4.7 13-22.4 24.8-38.9 17.7-24.8 24.8-30.1 39.5-30.1 16.5 0 17.1.6 15.3 24.8-1.8 21.2-4.7 25.4-22.4 34.8-11.2 5.3-29.5 11.8-40.7 14.2-16.5 3.5-19.5 2.9-16.5-4.8zm59.5-109.1c2.9-4.7-8.3-27.1-31.8-61.3l-36-53.1 28.3 4.1c15.3 2.4 37.7 8.8 49.5 15.3l21.8 10.6 10-14.7c9.4-14.2 9.4-15.3-1.2-23.6-15.3-11.8-64.9-25.9-91.4-25.9-19.5 0-22.4-1.8-25.9-15.9-11.2-50.1-20-80.8-24.2-84.9-2.4-2.4-33.6-10.6-68.4-17.7-59-11.8-68.4-15.3-119.1-48.9-30.7-19.5-55.4-37.7-55.4-39.5-.6-6.5 79.6-40.1 125-52.5 40.1-11.2 43-11.2 50.1-1.8 13.6 17.7 46 84.9 60.1 123.8l13 36 44.8 15.9c40.1 14.2 97.3 41.9 117.3 57.2 13.6 10.6-37.7 157.4-61.9 177.5-7.5 5.9-8.1 5.3-4.6-.6zm-708.7-34.2c-10.6-7.1-13-14.2-11.8-30.1 2.4-26.5 20.6-40.7 59.6-46.6l28.3-3.5-27.7 40.1c-15.3 22.4-29.5 42.5-31.8 44.8-1.8 2.4-9.5.6-16.6-4.7zM130.7 411c-13.6-44.2-13.6-44.8 12.4-61.3 26.5-16.5 102.6-50.7 128.5-56.6 12.4-2.9 18.3-11.2 28.9-40.7 14.2-39.5 46.6-106.7 60.1-124.4 7.1-9.4 10-9.4 50.1 1.8 45.4 12.4 125.6 46 125 52.5 0 1.8-24.8 20-55.4 39.5-50.7 33.6-60.1 37.1-119.1 48.9-38.9 7.7-66.6 16.5-70.8 22.4-4.1 4.7-10 24.2-13.6 42.5-3.5 18.3-7.7 37.1-9.4 41.9-1.8 6.5-15.9 11.2-43.6 15.9-25.9 4.1-50.1 11.8-64.9 21.8l-23 14.7-5.2-18.9z"/><path class="st5" d="M488.6 1059.6c-33-12.4-58.4-30.1-90.8-62.5-17.1-18.3-26.5-31.8-23.6-34.8 3.5-2.9 23-9.4 43.6-15.3 21.2-5.3 57.8-18.9 81.4-30.1l43-20 43 20c23.6 11.2 60.1 24.8 81.4 30.1 20.6 5.9 40.1 12.4 43 14.7 8.3 7.1-51.9 66.6-86.1 84.9-36.4 20-100.1 25.9-134.9 13zm-227.5-99.1c-60.1-11.8-105-44.8-126.8-92.6-15.3-33.6-23-85.5-18.9-122.6l3.5-30.1 36.6 21.2c20.6 11.8 58.4 28.9 84.9 38.9l47.8 17.7 13 35.4c6.5 19.5 23.6 57.2 37.7 83.1l25.4 48.3-21.8 3.5c-26.6 4.3-49.6 3.7-81.4-2.8zm474.6 2.4l-15.3-2.4 25.4-48.3c14.2-26.5 31.3-64.9 38.3-84.3l13-36.6 50.7-18.3c28.3-10 66-27.1 84.3-38.3l33.6-20 2.9 30.7c5.9 65.4-13 129.7-49.5 166.9-39.5 40.5-113.8 61.2-183.4 50.6zm-661-287.8c-46.6-47.2-60.1-77.2-60.1-135.6 0-59.6 13.6-89 63.7-139.2l36.6-36 .6-53.7c1.2-67.2 15.9-110.8 50.1-145 37.7-37.1 112.6-59.6 172.2-50.7l26.5 4.1-25.4 47.8c-14.2 26.5-31.3 64.9-38.3 85.5-10.6 29.5-16.5 37.7-28.9 40.7-25.9 5.9-102 40.1-128.5 56.6C119 365 119 365 124.3 389.7c2.9 13.6 8.3 28.9 11.2 34.8 3.5 6.5 2.4 14.2-3.5 23-13.6 18.9-5.9 55.4 16.5 77.2 9.4 10 21.2 17.7 25.4 17.7 5.9 0 2.4 12.4-12.4 42.5-11.2 23.6-18.9 46.6-17.1 50.1 1.2 4.1 0 7.7-3.5 7.7s-4.7 2.4-2.9 4.7c1.8 2.9-1.2 12.4-5.9 21.2-4.1 9.4-8.3 21.8-8.3 27.7-.1 18.9-15.5 12.4-49.1-21.2zm886.2 19.5c-.6-7.7-1.2-45.4-1.8-84.3l-1.2-70.8-27.7-1.8-27.7-1.8 20-41.9c11.2-22.4 24.8-59.6 30.7-82 5.3-22.4 13.6-40.7 17.1-40.7 14.2 0 69.6 62.5 85.5 96.7 33.6 71.3 16.5 145.6-47.8 208.7-33.5 33.2-47.1 38.5-47.1 17.9zm-29.4-350.3c-17.7-10.6-55.4-27.7-83.7-38.3L797 287.7l-13-36.6c-7.1-19.5-24.2-57.8-38.3-84.3L720.3 119l26.5-4.1c57.8-8.3 133.8 13 168.6 48.3 40.1 40.1 60.7 106.7 52.5 171l-4.1 29.5-32.3-19.4zM498.1 162.1c-22.4-11.2-58.4-24.2-79.6-30.1-21.2-5.3-40.7-12.4-44.2-15.3-8.8-7.7 55.4-68.4 93.7-87.3 72.5-36.5 151-17.6 215.8 50.8 17.1 17.7 28.9 34.8 25.9 37.1s-22.4 8.8-43 14.7c-21.2 5.3-57.8 19.5-82 30.7-24.2 11.2-44.2 20-44.8 19.5-.5 0-18.8-9.4-41.8-20.1z"/><path class="st6" d="M526.4 1069c8.8-1.2 23-1.2 32.4 0 8.8 1.2 1.2 2.4-16.5 2.4-17.7-.1-25.3-1.2-15.9-2.4zm-29.5-5.9c2.4-1.8 5.9-1.8 8.3 0 1.8 2.4 0 4.1-4.1 4.1-4.2 0-6-1.8-4.2-4.1zm82.6 0c2.4-1.8 5.9-1.8 8.3 0 1.8 2.4 0 4.1-4.1 4.1s-6-1.8-4.2-4.1zm-141-26.5c-2.4-4.1-1.8-4.7 2.4-2.4 7.1 4.1 9.4 9.4 4.7 9.4-1.8 0-4.7-2.9-7.1-7zm201.1 1.1c1.8-2.9 4.7-5.9 6.5-5.9s1.2 2.9-.6 5.9c-1.8 3.5-4.7 5.9-6.5 5.9-1.8 0-1.2-2.3.6-5.9zm-239.4-33.6l-20-22.4 22.4 20c20 19.5 24.8 24.2 20 24.2-1.2 0-11.2-10-22.4-21.8zm277.7 1.2c11.2-11.2 21.2-20.6 23-20.6s-5.9 9.4-17.1 20.6-21.2 20.6-23 20.6c-1.7 0 5.9-9.4 17.1-20.6zm32.4-38.3c1.8-2.9 4.7-5.9 6.5-5.9s1.2 2.9-.6 5.9c-1.8 3.5-4.7 5.9-6.5 5.9s-1.1-2.4.6-5.9zM264 962.9c3.5-1.2 10.6-1.2 14.7 0 3.5 1.8.6 2.9-7.7 2.9-8.2 0-11.1-1.2-7-2.9zm76.7 0c3.5-1.2 10.6-1.2 14.7 0 3.5 1.8.6 2.9-7.7 2.9-8.2 0-11.2-1.2-7-2.9zm389.1 0c3.5-1.2 10.6-1.2 14.7 0 3.5 1.8.6 2.9-7.7 2.9s-11.1-1.2-7-2.9zm76.7 0c3.5-1.2 10.6-1.2 14.7 0 3.5 1.8.6 2.9-7.7 2.9s-11.2-1.2-7-2.9zm-569-5.9c2.4-1.8 5.9-1.8 8.3 0 1.8 2.4 0 4.1-4.1 4.1-4.2 0-6-1.8-4.2-4.1zm601.4 0c2.4-1.8 5.9-1.8 8.3 0 1.8 2.4 0 4.1-4.1 4.1s-6-1.8-4.2-4.1zm-619.1-5.9c2.4-1.8 5.9-1.8 8.3 0 1.8 2.4 0 4.1-4.1 4.1-4.2 0-6-1.8-4.2-4.1zm636.8 0c2.4-1.8 5.9-1.8 8.3 0 1.8 2.4 0 4.1-4.1 4.1-4.2 0-6-1.8-4.2-4.1zm27.7-9.5c0-1.8 7.1-7.1 15.3-13 8.8-5.3 13.6-7.1 11.8-3.5-4.1 6.5-27.1 20.7-27.1 16.5zm-708.2-14.1c-7.7-9.4-7.1-10 2.4-2.4 5.3 4.1 10 8.8 10 10 0 4.8-4.7 1.8-12.4-7.6zm-26.5-26.6l-11.2-13.6 13.6 11.2c12.4 10.6 15.9 15.3 11.2 15.3-1.2.1-7.1-5.8-13.6-12.9zm770.1 10.7c0-1.2 4.7-5.9 10.6-10 8.8-7.7 9.4-7.1 1.8 2.4s-12.4 12.3-12.4 7.6zm20.6-27.2c1.8-2.9 4.7-5.9 6.5-5.9s1.2 2.9-.6 5.9c-1.8 3.5-4.7 5.9-6.5 5.9s-1.2-2.3.6-5.9zM123.7 855c0-4.1 1.8-5.9 4.1-4.1 1.8 2.4 1.8 5.9 0 8.3-2.4 1.6-4.1-.1-4.1-4.2zm831.3 0c0-4.1 1.8-5.9 4.1-4.1 1.8 2.4 1.8 5.9 0 8.3-2.3 1.6-4.1-.1-4.1-4.2zm-837.2-17.7c0-4.1 1.8-5.9 4.1-4.1 1.8 2.4 1.8 5.9 0 8.3-2.4 1.7-4.1-.1-4.1-4.2zm843.1 0c0-4.1 1.8-5.9 4.1-4.1 1.8 2.4 1.8 5.9 0 8.3-2.3 1.7-4.1-.1-4.1-4.2zm-847.8-35.4c0-8.3 1.2-11.2 2.9-7.1 1.2 3.5 1.2 10.6 0 14.7-1.8 3.6-2.9.6-2.9-7.6zm854.9-3c0-9.4 1.2-13 2.9-7.1 1.2 5.3 1.2 13.6 0 17.7-1.7 3.6-2.9-.5-2.9-10.6zm0-56c0-11.2 1.2-15.9 2.9-10 1.2 5.3 1.2 14.7 0 20.6-1.7 5.3-2.9.6-2.9-10.6zM113.1 740c0-9.4 1.2-13 2.9-7.1 1.2 5.3 1.2 13.6 0 17.7-1.8 3.5-2.9-.6-2.9-10.6zm-22.4-45.4L79.5 681 93 692.2c12.4 10.6 15.9 15.3 11.2 15.3-1.2 0-7.1-5.8-13.5-12.9zm893.8 4.7c0-1.2 4.7-5.9 10.6-10 8.8-7.7 9.4-7.1 1.8 2.4s-12.4 12.3-12.4 7.6zm-932.2-43c-7.7-9.4-7.1-10 2.4-2.4 5.3 4.1 10 8.8 10 10 0 4.7-4.7 1.8-12.4-7.6zm967.6 7.6c0-1.2 4.7-5.9 10.6-10 8.8-7.7 9.4-7.1 1.8 2.4-7.7 9.4-12.4 12.3-12.4 7.6zM11.6 583.7c0-4.1 1.8-5.9 4.1-4.1 1.8 2.4 1.8 5.9 0 8.3-2.3 1.7-4.1 0-4.1-4.2zm1055.5 0c0-4.1 1.8-5.9 4.1-4.1 1.8 2.4 1.8 5.9 0 8.3-2.4 1.7-4.1 0-4.1-4.2zM7.5 539.5c0-15.9 1.2-22.4 2.4-13 1.2 8.8 1.2 21.8 0 29.5-1.2 7.1-2.4 0-2.4-16.5zm1067.2 0c0-15.9 1.2-22.4 2.4-13 1.2 8.8 1.2 21.8 0 29.5-1.2 7.1-2.4 0-2.4-16.5zM11.6 495.3c0-4.1 1.8-5.9 4.1-4.1 1.8 2.4 1.8 5.9 0 8.3-2.3 1.7-4.1-.1-4.1-4.2zm1055.5 0c0-4.1 1.8-5.9 4.1-4.1 1.8 2.4 1.8 5.9 0 8.3-2.4 1.7-4.1-.1-4.1-4.2zm-943.4-35.4c0-4.1 1.8-5.9 4.1-4.1 1.8 2.4 1.8 5.9 0 8.3-2.4 1.7-4.1-.1-4.1-4.2zM47 428.1c0-1.2 4.7-5.9 10.6-10 8.8-7.7 9.4-7.1 1.8 2.4-7.7 9.3-12.4 12.3-12.4 7.6zm978.2-7.7c-7.7-9.4-7.1-10 2.4-2.4 9.4 7.7 12.4 12.4 7.7 12.4-1.2 0-6-4.7-10.1-10zm-934-37.1c5.9-6.5 11.8-11.8 13.6-11.8s-1.8 5.3-7.7 11.8S85.3 395 83.6 395c-1.8 0 1.7-5.3 7.6-11.7zm895.7-1.2l-11.2-13.6 13.6 11.2c12.4 10.6 15.9 15.3 11.2 15.3-1.2 0-7.1-5.8-13.6-12.9zM113.1 339c0-9.4 1.2-13 2.9-7.1 1.2 5.3 1.2 13.6 0 17.7-1.8 3.6-2.9-.5-2.9-10.6zm854.9-2.9c0-11.2 1.2-15.9 2.9-10 1.2 5.3 1.2 14.7 0 20.6-1.7 5.3-2.9.6-2.9-10.6zm0-56c0-9.4 1.2-13 2.9-7.1 1.2 5.3 1.2 13.6 0 17.7-1.7 3.5-2.9-.6-2.9-10.6zm-854.9-3c0-8.3 1.2-11.2 2.9-7.1 1.2 3.5 1.2 10.6 0 14.7-1.8 3.6-2.9.7-2.9-7.6zm4.7-35.4c0-4.1 1.8-5.9 4.1-4.1 1.8 2.4 1.8 5.9 0 8.3-2.4 1.7-4.1 0-4.1-4.2zm843.1 0c0-4.1 1.8-5.9 4.1-4.1 1.8 2.4 1.8 5.9 0 8.3-2.3 1.7-4.1 0-4.1-4.2zm-837.2-17.6c0-4.1 1.8-5.9 4.1-4.1 1.8 2.4 1.8 5.9 0 8.3-2.4 1.7-4.1-.1-4.1-4.2zm831.3 0c0-4.1 1.8-5.9 4.1-4.1 1.8 2.4 1.8 5.9 0 8.3-2.3 1.7-4.1-.1-4.1-4.2zm-15.3-30.7c-2.4-4.1-1.8-4.7 2.4-2.4 7.1 4.1 9.4 9.4 4.7 9.4-1.8.1-4.7-2.9-7.1-7zm-798.3-7.1c0-1.2 4.7-5.9 10.6-10 8.8-7.7 9.4-7.1 1.8 2.4-7.7 9.4-12.4 12.3-12.4 7.6zM925 172.8c-7.7-9.4-7.1-10 2.4-2.4 9.4 7.7 12.4 12.4 7.7 12.4-1.3 0-6-4.7-10.1-10zm-754.2-16c0-1.2 4.7-5.9 10.6-10 8.8-7.7 9.4-7.1 1.8 2.4-7.6 9.4-12.4 12.4-12.4 7.6zm730.6-7.6c-7.7-9.4-7.1-10 2.4-2.4 9.4 7.7 12.4 12.4 7.7 12.4-1.3 0-6-4.7-10.1-10zm-681.6-23.6c2.4-1.8 5.9-1.8 8.3 0 1.8 2.4 0 4.1-4.1 4.1-4.2 0-6-1.8-4.2-4.1zm636.8 0c2.4-1.8 5.9-1.8 8.3 0 1.8 2.4 0 4.1-4.1 4.1-4.2 0-6-1.8-4.2-4.1zm-619.1-5.9c2.4-1.8 5.9-1.8 8.3 0 1.8 2.4 0 4.1-4.1 4.1-4.2 0-6-1.7-4.2-4.1zm601.4 0c2.4-1.8 5.9-1.8 8.3 0 1.8 2.4 0 4.1-4.1 4.1s-6-1.7-4.2-4.1zM264 113.8c3.5-1.2 10.6-1.2 14.7 0 3.5 1.8.6 2.9-7.7 2.9-8.2 0-11.1-1.1-7-2.9zm76.7 0c3.5-1.2 10.6-1.2 14.7 0 3.5 1.8.6 2.9-7.7 2.9-8.2 0-11.2-1.1-7-2.9zm369.1-3c-2.4-4.1-1.8-4.7 2.4-2.4 4.1 2.4 7.1 5.3 7.1 7.1-.1 4.8-5.4 2.4-9.5-4.7zm20 3c3.5-1.2 10.6-1.2 14.7 0 3.5 1.8.6 2.9-7.7 2.9s-11.1-1.1-7-2.9zm76.7 0c3.5-1.2 10.6-1.2 14.7 0 3.5 1.8.6 2.9-7.7 2.9s-11.2-1.1-7-2.9zM400.8 73.7c11.2-11.2 21.2-20.6 23-20.6s-5.9 9.4-17.1 20.6-21.2 20.6-23 20.6c-1.8 0 5.9-9.4 17.1-20.6zm276.5-1.2l-20-22.4 22.4 20c11.8 11.2 21.8 21.2 21.8 22.4 0 4.8-4.7.1-24.2-20zM439.1 41.3c1.8-2.9 4.7-5.9 6.5-5.9s1.2 2.9-.6 5.9c-1.8 3.5-4.7 5.9-6.5 5.9-1.7 0-1.1-2.4.6-5.9zM639 40.1c-2.4-4.1-1.8-4.7 2.4-2.4s7.1 5.3 7.1 7.1c-.1 4.7-5.4 2.4-9.5-4.7zM526.4 7.7c8.8-1.2 23-1.2 32.4 0 8.8 1.2 1.2 2.4-16.5 2.4-17.7-.1-25.3-1.3-15.9-2.4z"/><path class="st7" d="M468.6 1069c-76.1-10.6-161-43-226.4-87.3-53.1-34.8-64.3-48.3-26.5-31.3 23 10.6 41.3 13.6 90.8 14.7l61.9 1.2 18.9 23c25.9 31.3 56.6 53.7 95.5 70.2 32.4 13 28.8 15.4-14.2 9.5zm133.3-9.4c38.9-16.5 69.6-38.9 95.5-70.2l18.9-23 61.9-1.2c49.5-1.2 67.8-4.1 90.8-14.7 37.7-17.1 26.5-3.5-27.1 31.8-68.4 45.4-157.4 77.8-240.6 87.9l-32.4 3.5 33-14.1zm-440.5-141c-2.4-4.1-1.8-4.7 2.4-2.4 7.1 4.1 9.4 9.4 4.7 9.4-1.8.1-4.7-2.8-7.1-7zm793.1-53c13-27.1 15.3-39.5 16.5-92l.6-60.7 30.1-26.5c30.7-27.7 54.8-63.1 69.6-101.4l7.7-21.8-2.9 32.4c-5.3 49.5-24.8 119.1-44.8 163.3-20 43.6-62.5 110.8-80.8 127.4-9.6 8.7-9 5.2 4-20.7zm-846.2-11.8c-52.4-71.4-89.6-167.5-99-255.3l-3.5-35.4 9.4 26.5c13 34.8 36 68.4 70.2 99.6l27.7 25.4 1.2 59.6c.6 47.2 4.1 66 13.6 88.4 7.1 15.3 11.8 27.7 10 27.7-1.3 0-14.8-16.5-29.6-36.5zm-99-373.3c8.8-83.1 38.9-165.1 87.9-238.2 34.8-53.1 48.3-64.3 31.2-26.5-10.6 23-13.6 41.3-14.2 89l-1.2 59.6-27.7 25.4c-34.2 31.3-57.2 64.9-70.2 99.6l-9.4 26.5 3.6-35.4zm1063.7 23c0-19.5-38.3-79.6-69-109.1l-32.4-30.7-.6-59.6c-1.2-51.3-3.5-64.3-16.5-90.8-13-25.9-13.6-29.5-4.1-20.6 18.3 16.5 60.7 83.7 80.8 127.4 25.4 56 57.8 192.8 45.4 192.8-1.9.1-3.6-4.1-3.6-9.4zM153.2 168.6c0-1.2 4.7-5.9 10.6-10 8.8-7.7 9.4-7.1 1.8 2.4-7.7 9.4-12.4 12.3-12.4 7.6zm41.2-35.9c12.4-15.3 85.5-61.3 125.6-79.6 41.9-18.9 113.8-38.3 163.3-44.2l32.4-3.5-33 14.2c-38.9 16.5-69.6 38.9-95.5 70.2l-18.9 23-61.9 1.2c-49.5 1.2-67.8 4.1-90.8 14.7-20 8.7-26.5 9.9-21.2 4zm672.2-4.8c-21.2-10-39.5-13-88.4-14.2l-61.9-1.2-18.9-23c-25.9-31.2-56.6-53.7-95.5-70.2l-33-14.2 32.4 3.5c49.5 5.9 121.5 25.4 163.3 44.2 40.1 18.3 113.2 64.3 125.6 79.6 8.8 10.9 9.4 10.9-23.6-4.5z"/><path class="st8" d="M172.6 680.4c-37.7-9.4-43-15.9-29.5-33.6 6.5-8.8 10-8.8 45.4-.6 42.5 10.6 96.7 8.3 116.7-4.1 7.1-4.1 15.9-15.9 19.5-25.4 15.3-36-18.3-61.3-82.5-61.9-87.9-1.2-134.4-48.3-107.3-109.7 15.9-36.6 52.5-53.1 115.6-52.5 47.2 0 91.4 10 91.4 20.6 0 3.5-2.4 10.6-5.9 16.5-5.3 10-7.7 10-38.9 2.4-67.8-17.7-126.2 2.4-126.2 43 0 26.5 25.9 43.6 66 43.6 48.3 0 87.3 11.2 110.3 32.4 19.5 17.7 21.2 22.4 20.6 49.5-.6 36-13 56-46.6 73.7-29.5 15.6-99.1 18.5-148.6 6.1zm606.1-.6c-38.9-14.2-74.3-52.5-86.7-93.8-34.7-121.4 75-225.7 198.8-188.6 17.7 5.3 36.6 13 42.5 17.7 10.6 8.3 10.6 9.4 1.2 23.6l-10 14.7-21.2-10.6c-74.9-37.7-153.9-5.9-172.2 69.6-9.4 40.7 3.5 86.1 31.8 111.4 36.6 31.8 96.1 35.4 137.4 8.8 10-7.1 13.6-14.7 13.6-31.8 0-21.8 0-22.4-24.8-24.2-23.6-1.8-25.4-2.9-25.4-19.5v-17.7H958V681l-21.8 1.8c-17.1 1.2-22.4 0-22.4-7.1 0-11.8 0-11.8-24.2.6-27.1 13.6-79 15.3-110.9 3.5zM400.8 539.5V393.9l78.4 2.4c65.4 1.8 81.4 4.1 101.4 14.7 50.1 26.5 70.2 63.1 70.2 128.5 0 66.6-20 102.6-73.1 130.3-15.9 8.8-37.1 11.2-98.5 13l-78.4 2.4V539.5zM550 640.3c57.2-23.6 80.2-109.7 43.6-163.3-24.2-36-40.7-43.6-99.1-45.4l-52.5-2.4v219.3h44.2c24.9.1 53.2-3.5 63.8-8.2z"/></svg>