<svg width="65" height="71" viewBox="0 0 65 71" fill="none" xmlns="http://www.w3.org/2000/svg">
<g clip-path="url(#clip0)" filter="url(#filter0_d)">
<path d="M15.307 36.7178L43.256 64.6659C45.0339 66.4446 47.9165 66.4446 49.6935 64.6659C51.4707 62.8887 51.4707 60.0063 49.6935 58.2293L24.9629 33.4995L49.6928 8.77054C51.4699 6.99264 51.4699 4.11053 49.6928 2.33336C47.9156 0.555466 45.0332 0.555466 43.2553 2.33336L15.3063 30.2819C14.4177 31.1709 13.9739 32.3348 13.9739 33.4993C13.9739 34.6644 14.4185 35.8292 15.307 36.7178Z" fill="#1b9ef5"/>
</g>
<defs>
<filter id="filter0_d" x="-3" y="0" width="71" height="71" filterUnits="userSpaceOnUse" color-interpolation-filters="sRGB">
<feFlood flood-opacity="0" result="BackgroundImageFix"/>
<feColorMatrix in="SourceAlpha" type="matrix" values="0 0 0 0 0 0 0 0 0 0 0 0 0 0 0 0 0 0 127 0"/>
<feOffset dy="2"/>
<feGaussianBlur stdDeviation="1.5"/>
<feColorMatrix type="matrix" values="0 0 0 0 0 0 0 0 0 0 0 0 0 0 0 0 0 0 0.25 0"/>
<feBlend mode="normal" in2="BackgroundImageFix" result="effect1_dropShadow"/>
<feBlend mode="normal" in="SourceGraphic" in2="effect1_dropShadow" result="shape"/>
</filter>
<clipPath id="clip0">
<rect width="65" height="73" fill="#1b9ef5" transform="matrix(-1 0 0 1 65 1)"/>
</clipPath>
</defs>
</svg>
