<?xml version="1.0" standalone="no"?>
<!DOCTYPE svg PUBLIC "-//W3C//DTD SVG 1.1//EN" "http://www.w3.org/Graphics/SVG/1.1/DTD/svg11.dtd" >
<svg>
<metadata>
Created by FontForge 20090914 at Mon Jan 29 12:42:27 2018
 By www-data
Copyright (c) 2004-2008 by Village Type &#38; Design LLC. All rights reserved.
</metadata>
<defs>
<font id="GalaxiePolarisMedium" horiz-adv-x="700" >
  <font-face 
    font-family="GalaxiePolarisMedium"
    font-weight="500"
    font-stretch="normal"
    units-per-em="1000"
    panose-1="2 0 0 0 0 0 0 0 0 0"
    ascent="800"
    descent="-200"
    x-height="530"
    cap-height="780"
    bbox="-209 -253.001 1859 1134"
    underline-thickness="30"
    underline-position="-130"
    unicode-range="U+0020-U+F778"
  />
<missing-glyph horiz-adv-x="960" 
d="M90 0v780h780v-780h-780zM480 345l-279 -279h558zM201 714l279 -279l279 279h-558zM435 390l-275 275v-550zM525 390l275 -275v550z" />
    <glyph glyph-name="interrobang" unicode="&#x21;&#x3f;" horiz-adv-x="606" 
d="M371 373c-19.333 -8 -33.999 -15.333 -43.999 -22l-7 -146h-65l-26 487c-51.333 -16 -82.333 -55.667 -93 -119l-99 11c18 138.667 105.333 208 262 208c74.667 0 134.5 -18.333 179.5 -55s67.5 -88.667 67.5 -156c0 -31.333 -5 -59 -15 -83s-25.5 -44.167 -46.5 -60.5
s-37.333 -27.833 -49 -34.5s-29.5 -15 -53.5 -25c-4.66699 -2 -8.33398 -3.66699 -11.001 -5zM442.001 581c0 66 -32.333 104.666 -97 115.999l-13 -243c16.667 8 30 15 40 21s21.167 14.167 33.5 24.5s21.5 22.333 27.5 36s9 28.834 9 45.501zM343.001 110.999v-111h-112
v111h112z" />
    <glyph glyph-name="interrobangdown" unicode="&#xa1;&#xbf;" horiz-adv-x="558" 
d="M215 182c24.667 11.333 40.999 19.666 48.999 24.999l7 116h65l22 -435c52 14.667 82.667 54 92 118l100 -10c-18.667 -138.667 -105 -208 -259 -208c-74 0 -133.5 17.333 -178.5 52s-67.5 83.334 -67.5 146.001c0 17.333 1.83301 33.333 5.5 48s8 27.5 13 38.5
s12 21.333 21 31s17 17.5 24 23.5s16.333 12.333 28 19s20.834 11.5 27.501 14.5l28 12zM147.999 -14c0 -59.333 33.001 -94 99.001 -104l12 219l-20 -8.5c-8.66699 -3.66699 -14.334 -6.16699 -17.001 -7.5c-49.333 -23.333 -74 -56.333 -74 -99zM359 530v-111h-112v111
h112z" />
    <glyph glyph-name=".notdef" horiz-adv-x="960" 
d="M90 0v780h780v-780h-780zM480 345l-279 -279h558zM201 714l279 -279l279 279h-558zM435 390l-275 275v-550zM525 390l275 -275v550z" />
    <glyph glyph-name="space" unicode=" " horiz-adv-x="230" 
 />
    <glyph glyph-name="exclam" unicode="!" horiz-adv-x="264" 
d="M188 111v-111h-112v111h112zM70 780h124l-29 -575h-65z" />
    <glyph glyph-name="quotedbl" unicode="&#x22;" horiz-adv-x="367" 
d="M40 780h117l-24 -250h-69zM211 780h116l-23 -250h-69z" />
    <glyph glyph-name="numbersign" unicode="#" horiz-adv-x="696" 
d="M106 571h120l50 193h96l-50 -193h149l50 193h96l-50 -193h95v-90h-118l-50 -198h96v-90h-120l-49 -193h-97l50 193h-149l-49 -193h-97l50 193h-94v90h117l51 198h-97v90zM299 481l-51 -198h149l51 198h-149z" />
    <glyph glyph-name="dollar" unicode="$" horiz-adv-x="553" 
d="M129 0l28.002 114.001c-44 10 -81 26 -111 48l23 87c40.667 -24 77 -39.667 109 -47l38 154c-22 3.33301 -41 7.5 -57 12.5s-32.333 12.5 -49 22.5s-29.5 23.5 -38.5 40.5s-13.5 37.5 -13.5 61.5c0 29.333 6.83301 55.166 20.5 77.499s32 39.5 55 51.5s47.667 21 74 27
s54.166 9 83.499 9l26 106h89l-28 -114c50 -9.33301 92.667 -26 128 -50l-22 -87c-41.333 26 -84 42.667 -128 50l-34 -139c26 -3.33301 47.667 -7.5 65 -12.5s35.666 -12.667 54.999 -23s34 -24.833 44 -43.5s15 -41.667 15 -69c0 -32.667 -7.5 -60.834 -22.5 -84.501
s-35.333 -41.667 -61 -54s-52.667 -21.166 -81 -26.499s-58.833 -8 -91.5 -8l-27 -103h-89zM401.002 271.001c0 22.667 -6.99902 38.833 -20.999 48.5s-40 17.5 -78 23.5l-37 -151h1c37.333 0 69.166 7.33301 95.499 22s39.5 33.667 39.5 57zM160.003 497
c0 -18 5.33203 -31.168 15.999 -39.501s30.667 -15.166 60 -20.499l33 133h-1c-29.333 0 -54.666 -6.83301 -75.999 -20.5s-32 -31.167 -32 -52.5z" />
    <glyph glyph-name="percent" unicode="%" horiz-adv-x="1096" 
d="M859 764l-518 -764h-104l518 764h104zM254 696c-75.333 0 -113 -43.667 -113 -131c0 -86.667 37.667 -130 113 -130s113 43.333 113 130c0 87.333 -37.667 131 -113 131zM254 355c-60.667 0 -109 17.833 -145 53.5s-54 87.834 -54 156.501s17.833 121 53.5 157
s84.167 54 145.5 54c60.667 0 109 -18 145 -54s54 -88.333 54 -157s-18 -120.834 -54 -156.501s-84.333 -53.5 -145 -53.5zM842 68c75.333 0 113 43.667 113 131c0 86.667 -37.667 130 -113 130s-113 -43.333 -113 -130c0 -87.333 37.667 -131 113 -131zM842 409
c60.667 0 109 -17.833 145 -53.5s54 -87.834 54 -156.501s-17.833 -121 -53.5 -157s-84.167 -54 -145.5 -54c-60.667 0 -109 18 -145 54s-54 88.333 -54 157s18 120.834 54 156.501s84.333 53.5 145 53.5z" />
    <glyph glyph-name="ampersand" unicode="&#x26;" horiz-adv-x="736" 
d="M704 108l-0.000976562 -118.999l-44.5 36.5l-52 43l-44.5 37.5c-60.667 -78.667 -148.334 -118 -263.001 -118c-34 0 -66 4.16699 -96 12.5s-57.667 21 -83 38s-45.5 40.667 -60.5 71s-22.5 65.5 -22.5 105.5c0 52 13 96.667 39 134s59.667 66.333 101 87
c-27.333 23.333 -49.5 48.666 -66.5 75.999s-25.5 61 -25.5 101c0 58 17.833 102.333 53.5 133s87.167 46 154.5 46c66.667 0 117.334 -17.167 152.001 -51.5s52 -76.5 52 -126.5c0 -20.667 -3.66699 -39.834 -11 -57.501s-15.166 -32.167 -23.499 -43.5
s-21.666 -23.666 -39.999 -36.999s-32.333 -22.833 -42 -28.5s-25.5 -14.5 -47.5 -26.5c58.667 -53.333 124.667 -109.333 198 -168c13.333 38.667 20.666 81 21.999 127c0 46 -5 89 -15 129l98 9c10.667 -34.667 16 -76 16 -124c0 -76.667 -14.333 -144.667 -43 -204
l47.5 -41c21 -18 36.5 -31.667 46.5 -41zM399.999 614.001c0 60.667 -35.333 91 -106 91c-73.333 0 -110 -30.333 -110 -91c0 -20 4.83301 -39.167 14.5 -57.5s18.667 -31.666 27 -39.999s21.5 -20.5 39.5 -36.5l24.5 12c15 7.33301 24.333 12.166 28 14.499l23.5 14.5
c12 7.33301 20.167 13.5 24.5 18.5l17 19.5c7 8 11.667 16.5 14 25.5s3.5 18.833 3.5 29.5zM486.999 168.001l-246 206.999c-36.667 -22 -63.167 -44.667 -79.5 -68s-24.5 -54 -24.5 -92c0 -30.667 6 -56.167 18 -76.5s27.667 -34.666 47 -42.999s36.5 -14 51.5 -17
s30.5 -4.5 46.5 -4.5c80 0 142.333 31.333 187 94z" />
    <glyph glyph-name="quotesingle" unicode="'" horiz-adv-x="197" 
d="M40 780h117l-24 -250h-69z" />
    <glyph glyph-name="parenleft" unicode="(" horiz-adv-x="263" 
d="M146 350c0 -169.333 34.667 -329.335 104 -480.002h-95c-32 54.667 -58.333 124.834 -79 210.501s-31 175.5 -31 269.5s10.333 183.833 31 269.5s47 155.834 79 210.501h95c-69.333 -150.667 -104 -310.667 -104 -480z" />
    <glyph glyph-name="parenright" unicode=")" horiz-adv-x="263" 
d="M117 350c0 169.333 -34.667 329.335 -104 480.002h95c32 -54.667 58.333 -124.834 79 -210.501s31 -175.5 31 -269.5s-10.333 -183.833 -31 -269.5s-47 -155.834 -79 -210.501h-95c69.333 150.667 104 310.667 104 480z" />
    <glyph glyph-name="asterisk" unicode="*" horiz-adv-x="315" 
d="M157 588l-47 -82l-66 49l62 70l-93 20l25 80l87 -39l-9 94h82l-9 -94l87 39l25 -80l-93 -20l62 -70l-66 -49z" />
    <glyph glyph-name="plus" unicode="+" 
d="M303 120v223h-223v94h223v223h94v-223h223v-94h-223v-223h-94z" />
    <glyph glyph-name="comma" unicode="," horiz-adv-x="240" 
d="M64 111h115l-86 -260h-61z" />
    <glyph glyph-name="hyphen" unicode="-" horiz-adv-x="360" 
d="M310 290h-260v90h260v-90z" />
    <glyph glyph-name="period" unicode="." horiz-adv-x="240" 
d="M176 111v-111h-112v111h112z" />
    <glyph glyph-name="slash" unicode="/" horiz-adv-x="350" 
d="M340 870l-230 -960h-100l230 960h100z" />
    <glyph glyph-name="zero" unicode="0" 
d="M350 77c68 0 116.667 23.667 146 71s44 125.333 44 234s-14.667 186.667 -44 234s-78 71 -146 71s-116.667 -23.667 -146 -71s-44 -125.333 -44 -234s14.667 -186.667 44 -234s78 -71 146 -71zM350 -12c-102.667 0 -176.667 32 -222 96s-68 163.333 -68 298
s22.5 234 67.5 298s119.167 96 222.5 96c102.667 0 176.667 -32 222 -96s68 -163.333 68 -298s-22.5 -234 -67.5 -298s-119.167 -96 -222.5 -96z" />
    <glyph glyph-name="one" unicode="1" 
d="M635 0l-520.999 -0.000976562v90h210v540c-50.667 -49.333 -125.334 -86.666 -224.001 -111.999v96c55.333 16 101 36.5 137 61.5s70.333 58.5 103 100.5h81v-686h214v-90z" />
    <glyph glyph-name="two" unicode="2" 
d="M649 0l-592.999 0.00488281v6c0 34.667 2.66699 66.334 8 95.001s12 53.667 20 75s19.667 41.333 35 60s29.833 34.167 43.5 46.5s32 25 55 38s43.167 23.5 60.5 31.5s40.333 18 69 30c5.33301 2.66699 19.833 9 43.5 19s39.167 16.833 46.5 20.5s19.5 10.667 36.5 21
s28.5 19.666 34.5 27.999s12 19.166 18 32.499s9 28 9 44c0 26.667 -5.83301 49.667 -17.5 69s-26.834 33.666 -45.501 42.999s-37.167 16 -55.5 20s-36.833 6 -55.5 6c-53.333 0 -98.166 -10.167 -134.499 -30.5s-56.5 -54.5 -60.5 -102.5l-99 10c18 142 116 213 294 213
c78 0 142.667 -19.833 194 -59.5s77 -95.834 77 -168.501c0 -18 -2.16699 -35.167 -6.5 -51.5s-9 -30.166 -14 -41.499s-13.5 -23 -25.5 -35s-21.833 -21.333 -29.5 -28s-20.667 -14.834 -39 -24.501l-39.5 -20.5c-8 -4 -23.167 -10.833 -45.5 -20.5l-44.5 -19.5
c-80.667 -36.667 -138.334 -69.834 -173.001 -99.501s-53 -68.834 -55 -117.501l217 1h272v-90z" />
    <glyph glyph-name="three" unicode="3" 
d="M335 76c137.333 -1.33301 206.004 45 206.004 139c0 24.667 -3.83301 45.5 -11.5 62.5s-16.834 30 -27.501 39s-25.334 16 -44.001 21s-35.167 8 -49.5 9s-33.166 1.5 -56.499 1.5h-109v91h109c27.333 0 49.166 1.16699 65.499 3.5s32.666 7.33301 48.999 15
s28.166 20.334 35.499 38.001s11 40.5 11 68.5c0 83.333 -57.333 124 -172 122c-59.333 -0.666992 -102.333 -10.834 -129 -30.501s-42.667 -53.167 -48 -100.5l-100 10c8 67.333 33.667 119.333 77 156s110 55 200 55c80.667 0 146 -17.333 196 -52s75 -88 75 -160
c0 -46.667 -11.667 -84 -35 -112s-52 -46 -86 -54c38.667 -7.33301 73.167 -26.5 103.5 -57.5s45.5 -72.833 45.5 -125.5c0 -68.667 -25.5 -123.667 -76.5 -165s-127.167 -62 -228.5 -62c-171.333 0 -265.333 71.333 -282 214l100 11c6 -48 22.833 -82.667 50.5 -104
s71.5 -32.333 131.5 -33z" />
    <glyph glyph-name="four" unicode="4" 
d="M646 178h-143v-178h-96v178h-354v68l364 529h86v-507h143v-90zM407 268v256l2 99l-60 -93l-120 -175l-60 -88l95 1h143z" />
    <glyph glyph-name="five" unicode="5" 
d="M350 76c54 1.33301 98.834 16.168 134.501 44.501s53.834 72.166 54.501 131.499c0.666992 116.667 -57.333 176 -174 178c-83.333 1.33301 -143.333 -22 -180 -70l-84 20l39 384h452v-91h-369l-22 -205c40 31.333 95.333 47 166 47c86 0 152.5 -22.333 199.5 -67
s70.5 -110 70.5 -196c0 -84 -27 -149 -81 -195s-122.667 -69 -206 -69c-92.667 0 -161 18.167 -205 54.5s-70.667 88.833 -80 157.5l100 11c7.33301 -49.333 25.166 -84.333 53.499 -105s72.166 -30.667 131.499 -30z" />
    <glyph glyph-name="six" unicode="6" 
d="M625 595l-99.999 -12.001c-12.667 68 -62 102 -148 102c-66.667 0 -119.5 -21.167 -158.5 -63.5s-58.833 -110.5 -59.5 -204.5h2c44.667 60 115 90 211 90c80 0 143.5 -23.167 190.5 -69.5s70.5 -110.5 70.5 -192.5c0 -80.667 -25.333 -143.667 -76 -189
s-116.334 -68 -197.001 -68c-101.333 0 -176 32.833 -224 98.5s-72 165.834 -72 300.501c0 128 27.833 224.833 83.5 290.5s134.834 98.5 237.501 98.5c71.333 0 127.166 -17.333 167.499 -52s64.5 -77.667 72.5 -129zM529.001 244.999c0 112 -55.668 168 -167.001 168
c-54 0 -98.833 -15 -134.5 -45s-53.5 -72.333 -53.5 -127c0 -9.33301 0.333008 -18.333 1 -27c24 -90.667 83 -136 177 -136c52.667 0 95.334 13.5 128.001 40.5s49 69.167 49 126.5z" />
    <glyph glyph-name="seven" unicode="7" 
d="M298 0h-105l293 583l44 91l-174 -1h-296v91h584v-66z" />
    <glyph glyph-name="eight" unicode="8" 
d="M350 685c-114 0 -170.998 -40.667 -170.998 -122c0 -26.667 4.66699 -49 14 -67s22.666 -31.333 39.999 -40s35 -14.5 53 -17.5s39.333 -4.5 64 -4.5s46 1.5 64 4.5s35.667 8.83301 53 17.5s30.666 22 39.999 40s14 40.333 14 67c0 81.333 -57 122 -171 122zM350.002 350
c-128.667 0 -193 -47.667 -193 -143c0 -86.667 64.333 -130 193 -130s193 43.333 193 130c0 95.333 -64.333 143 -193 143zM350.002 -12c-96.667 0 -169.334 18.5 -218.001 55.5s-73 89.5 -73 157.5c0 56 13.833 100 41.5 132s61.167 52.333 100.5 61
c-34.667 8 -63.5 27.5 -86.5 58.5s-34.5 69.5 -34.5 115.5c0 71.333 25.333 123.833 76 157.5s115.334 50.5 194.001 50.5s143.334 -16.833 194.001 -50.5s76 -86.167 76 -157.5c0 -46 -11.5 -84.5 -34.5 -115.5s-51.833 -50.5 -86.5 -58.5
c39.333 -8.66699 72.833 -29 100.5 -61s41.5 -76 41.5 -132c0 -68 -24.333 -120.5 -73 -157.5s-121.334 -55.5 -218.001 -55.5z" />
    <glyph glyph-name="nine" unicode="9" 
d="M72 169l99.999 12.001c12.667 -68 62 -102 148 -102c66.667 0 119.5 21.167 158.5 63.5s58.833 110.5 59.5 204.5h-2c-44.667 -60 -115 -90 -211 -90c-80 0 -143.5 23.167 -190.5 69.5s-70.5 110.5 -70.5 192.5c0 80.667 25.333 143.667 76 189s116.334 68 197.001 68
c101.333 0 176 -32.833 224 -98.5s72 -165.834 72 -300.501c0 -128 -27.833 -224.833 -83.5 -290.5s-134.834 -98.5 -237.501 -98.5c-71.333 0 -127.166 17.333 -167.499 52s-64.5 77.667 -72.5 129zM167.999 519.001c0 -112 55.668 -168 167.001 -168
c54 0 98.833 15 134.5 45s53.5 72.333 53.5 127c0 9.33301 -0.333008 18.333 -1 27c-24 90.667 -83 136 -177 136c-52.667 0 -95.334 -13.5 -128.001 -40.5s-49 -69.167 -49 -126.5z" />
    <glyph glyph-name="colon" unicode=":" horiz-adv-x="240" 
d="M176 111v-111h-112v111h112zM176 465v-111h-112v111h112z" />
    <glyph glyph-name="semicolon" unicode=";" horiz-adv-x="240" 
d="M176 465v-111h-112v111h112zM64 111h115l-86 -260h-61z" />
    <glyph glyph-name="less" unicode="&#x3c;" 
d="M305 440l-120 -50l120 -50l315 -139v-102l-540 244v94l540 244v-102z" />
    <glyph glyph-name="equal" unicode="=" 
d="M620 438h-540v94h540v-94zM620 248h-540v94h540v-94z" />
    <glyph glyph-name="greater" unicode="&#x3e;" 
d="M395 340l120 50l-120 50l-315 139v102l540 -244v-94l-540 -244v102z" />
    <glyph glyph-name="question" unicode="?" horiz-adv-x="606" 
d="M295 205l-72.0029 0.000976562c-12.667 39.333 -19 70.666 -19 93.999c0 13.333 1.5 26 4.5 38s5.83301 21.833 8.5 29.5s8.33398 15.834 17.001 24.501s14.5 14.667 17.5 18s10.833 8.66602 23.5 15.999s19.834 11.333 21.501 12s9.5 4.33398 23.5 11.001
c19.333 9.33301 33.833 16.666 43.5 21.999s21.834 13.5 36.501 24.5s25.334 23.667 32.001 38s10 30.5 10 48.5c0 80 -47.667 120 -143 120c-48 0 -85.333 -10 -112 -30s-43.667 -52.667 -51 -98l-99 11c18 138.667 105.333 208 262 208c74.667 0 134.5 -18.333 179.5 -55
s67.5 -88.667 67.5 -156c0 -31.333 -5 -59 -15 -83s-25.5 -44.167 -46.5 -60.5s-37.333 -27.833 -49 -34.5s-29.5 -15 -53.5 -25c-4.66699 -2 -8.33398 -3.66699 -11.001 -5c-28 -11.333 -49.167 -24.333 -63.5 -39s-21.5 -34.667 -21.5 -60c0 -18 3 -41 9 -69z
M328.997 111.001v-111h-112v111h112z" />
    <glyph glyph-name="at" unicode="@" horiz-adv-x="1043" 
d="M648 263v64c-3.33301 32 -18.166 60.833 -44.499 86.5s-60.5 38.5 -102.5 38.5c-92.667 0 -139 -52.333 -139 -157s46.333 -157 139 -157c42 0 76.167 12.833 102.5 38.5s41.166 54.5 44.499 86.5zM717 60h-54.9971l-11 72c-12 -24 -32.667 -43.833 -62 -59.5
s-61.333 -23.5 -96 -23.5c-65.333 0 -119.333 20.5 -162 61.5s-64 102.5 -64 184.5s21.333 143.5 64 184.5s96.667 61.5 162 61.5c34.667 0 66.667 -7.83301 96 -23.5s50 -35.5 62 -59.5l11 72h88l-7 -132v-252c60.667 0 102.667 20.667 126 62s35 101.666 35 180.999
c0 94.667 -31.333 172.5 -94 233.5s-158 91.5 -286 91.5c-123.333 0 -218 -37.167 -284 -111.5s-99 -176.833 -99 -307.5c0 -131.333 33.667 -234 101 -308s165 -111 293 -111c86.667 0 154.167 11.333 202.5 34s77.166 49.334 86.499 80.001l102 -13
c-10.667 -52 -48.834 -96.333 -114.501 -133s-159.834 -55 -282.501 -55c-152 0 -270.333 45 -355 135s-127 213.667 -127 371c0 156.667 42.5 280.167 127.5 370.5s201.5 135.5 349.5 135.5c154 0 271 -37.667 351 -113s120 -175 120 -299
c0 -111.333 -21.5 -194 -64.5 -248s-114.167 -81 -213.5 -81z" />
    <glyph glyph-name="A" unicode="A" horiz-adv-x="726" 
d="M13 0l301 791h98l301 -791h-108l-83 225h-318l-83 -225h-108zM490 313l-127 351l-127 -351h254z" />
    <glyph glyph-name="B" unicode="B" horiz-adv-x="699" 
d="M402 0l-322.001 -0.00292969v780h316c20.667 0 40.667 -1.66699 60 -5s39.333 -9.66602 60 -18.999s38.5 -21.333 53.5 -36s27.333 -34.667 37 -60s14.5 -54.333 14.5 -87c0 -45.333 -9.33301 -82.166 -28 -110.499s-40.334 -46.833 -65.001 -55.5
c34.667 -8 63.334 -28.333 86.001 -61s34 -75 34 -127c0 -43.333 -6.66699 -80.166 -20 -110.499s-32.166 -53 -56.499 -68s-50 -25.5 -77 -31.5s-57.833 -9 -92.5 -9zM179.999 91.9971l214.002 -0.000976562c15.333 0 28.333 0.5 39 1.5s23.5 3.83301 38.5 8.5
s27.333 11.334 37 20.001s18 21.334 25 38.001s10.5 36.667 10.5 60c0 28.667 -4.33301 52.667 -13 72s-20.834 33.166 -36.501 41.499s-30.834 13.833 -45.501 16.5s-31.667 4 -51 4h-218v-262zM386.001 687.996h-206v-243h206c42.667 0 75.167 9 97.5 27
s33.5 50.333 33.5 97c0 46 -10.833 77.333 -32.5 94s-54.5 25 -98.5 25z" />
    <glyph glyph-name="C" unicode="C" horiz-adv-x="757" 
d="M60 390c0 126.667 28 225.332 84 295.999s141.333 106 256 106c93.333 0 165.166 -19.5 215.499 -58.5s79.833 -92.5 88.5 -160.5l-102 -11c-7.33301 48 -27.333 83.167 -60 105.5s-80 33.5 -142 33.5c-158 0 -237 -103.667 -237 -311s79 -311 237 -311
c62 0 109.333 11.167 142 33.5s52.667 57.5 60 105.5l102 -11c-8.66699 -68 -38.167 -121.5 -88.5 -160.5s-122.166 -58.5 -215.499 -58.5c-114.667 0 -200 35.333 -256 106s-84 169.334 -84 296.001z" />
    <glyph glyph-name="D" unicode="D" horiz-adv-x="764" 
d="M347 0l-267 0.00195312v780h267c119.333 0 209 -31.833 269 -95.5s90 -161.834 90 -294.501s-30 -230.834 -90 -294.501s-149.667 -95.5 -269 -95.5zM180 92.002h167c90 0 155.167 25.667 195.5 77s60.5 125 60.5 221s-20.167 169.667 -60.5 221s-105.5 77 -195.5 77
h-167v-596z" />
    <glyph glyph-name="E" unicode="E" horiz-adv-x="693" 
d="M80 780h537v-92h-437v-243h394v-91h-394v-262h457v-92h-557v780z" />
    <glyph glyph-name="F" unicode="F" horiz-adv-x="630" 
d="M180 354v-354h-100v780h517v-92h-417v-243h373v-91h-373z" />
    <glyph glyph-name="G" unicode="G" horiz-adv-x="780" 
d="M60 390c0 126.667 28.0029 225.334 84.0029 296.001s141.333 106 256 106c93.333 0 165.166 -19.5 215.499 -58.5s79.833 -92.5 88.5 -160.5l-102 -11c-7.33301 48 -27.333 83.167 -60 105.5s-80 33.5 -142 33.5c-158 0 -237 -103.667 -237 -311
c0 -206.667 79 -310.334 237 -311.001c85.333 0 153.666 16.667 204.999 50v198h-168v87h267v-346c-50 -30.667 -98.167 -51.834 -144.5 -63.501s-99.833 -17.167 -160.5 -16.5c-114.667 0.666992 -199.834 36.334 -255.501 107.001s-83.5 169 -83.5 295z" />
    <glyph glyph-name="H" unicode="H" horiz-adv-x="750" 
d="M570 780h100v-780h-100v354h-390v-354h-100v780h100v-335h390v335z" />
    <glyph glyph-name="I" unicode="I" horiz-adv-x="296" 
d="M198 780v-780h-100v780h100z" />
    <glyph glyph-name="J" unicode="J" horiz-adv-x="512" 
d="M340 780l100.002 0.000976562v-580c0 -62 -17.833 -112.833 -53.5 -152.5s-91.167 -59.5 -166.5 -59.5c-39.333 0 -72.666 4.83301 -99.999 14.5s-48 23.667 -62 42s-24 37.166 -30 56.499s-10 42 -12 68l100 13c3.33301 -34.667 12.166 -60.5 26.499 -77.5
s40.166 -25.5 77.499 -25.5c45.333 0 76.666 10 93.999 30s26 51.667 26 95v576z" />
    <glyph glyph-name="K" unicode="K" horiz-adv-x="712" 
d="M180 780v-388l357 388h141l-335 -352l356 -428h-136l-289 355l-94 -100v-255h-100v780h100z" />
    <glyph glyph-name="L" unicode="L" horiz-adv-x="589" 
d="M180 780v-688h396v-92h-496v780h100z" />
    <glyph glyph-name="M" unicode="M" horiz-adv-x="910" 
d="M497 0h-84l-189 455l-49 129l3 -299v-285h-98v780h108l204 -492l63 -164l63 164l204 492h108v-780h-98v285l3 299l-49 -129z" />
    <glyph glyph-name="N" unicode="N" horiz-adv-x="754" 
d="M171 780l319 -471l86 -133l-3 235v369h101v-780h-91l-319 471l-86 133l3 -235v-369h-101v780h91z" />
    <glyph glyph-name="O" unicode="O" horiz-adv-x="800" 
d="M400 701c-157.333 0 -236 -103.667 -236 -311s78.667 -311 236 -311s236 103.667 236 311s-78.667 311 -236 311zM400 -12c-115.333 0 -200.833 35.333 -256.5 106s-83.5 169.334 -83.5 296.001s27.833 225.334 83.5 296.001s141.167 106 256.5 106
s200.833 -35.333 256.5 -106s83.5 -169.334 83.5 -296.001s-27.833 -225.334 -83.5 -296.001s-141.167 -106 -256.5 -106z" />
    <glyph glyph-name="P" unicode="P" horiz-adv-x="658" 
d="M180 405h199c18 0 34 1.66699 48 5s28.667 9.5 44 18.5s27.333 23.5 36 43.5s13 45 13 75c0 29.333 -4.33301 54 -13 74s-20.667 34.5 -36 43.5s-30 15.167 -44 18.5s-30 5 -48 5h-199v-283zM180 313l-0.00195312 -313.001h-100v780h288c34 0 65.167 -3.5 93.5 -10.5
s55.333 -18.667 81 -35s45.834 -40.5 60.501 -72.5s22 -70.333 22 -115s-7.33301 -83 -22 -115s-34.667 -56.167 -60 -72.5s-52.166 -28.166 -80.499 -35.499s-59.5 -11 -93.5 -11h-189z" />
    <glyph glyph-name="Q" unicode="Q" horiz-adv-x="800" 
d="M740 390c0 -106.667 -19.668 -193.833 -59.001 -261.5s-99.666 -110.834 -180.999 -129.501v-1l108 -35l195 -67v-107l-542 221c-134 54.667 -201 181.334 -201 380.001c0 126.667 27.833 225.334 83.5 296.001s141.167 106 256.5 106s200.833 -35.333 256.5 -106
s83.5 -169.334 83.5 -296.001zM399.999 701.001c-157.333 0 -236 -103.667 -236 -311s78.667 -311 236 -311s236 103.667 236 311s-78.667 311 -236 311z" />
    <glyph glyph-name="R" unicode="R" horiz-adv-x="710" 
d="M180 327v-327h-100v780h312c170 0 255 -75.333 255 -226c0 -125.333 -57 -198.333 -171 -219l204 -335h-123l-189 327h-188zM180 419l222 0.000976562c14.667 0 27.334 0.666992 38.001 2s23 4.5 37 9.5s25.333 12.167 34 21.5s16.167 22.666 22.5 39.999s9.5 38 9.5 62
s-3.16699 44.667 -9.5 62s-13.833 30.5 -22.5 39.5s-20 16.167 -34 21.5s-26.333 8.5 -37 9.5s-23.334 1.5 -38.001 1.5h-222v-269z" />
    <glyph glyph-name="S" unicode="S" horiz-adv-x="713" 
d="M358 79c54 0.666992 100.668 12.668 140.001 36.001s59 59.666 59 108.999c0 44 -14.167 76.333 -42.5 97s-80.5 34.667 -156.5 42c-32 2.66699 -59.667 6.16699 -83 10.5s-47.833 11.333 -73.5 21s-46.5 21.334 -62.5 35.001s-29.333 32 -40 55s-16 49.833 -16 80.5
c-0.666992 74.667 24.833 131.167 76.5 169.5s116.834 57.5 195.501 57.5c180.667 0 280.667 -71 300 -213l-102 -11c-6.66699 46.667 -25.667 80.5 -57 101.5s-78.333 31.5 -141 31.5c-18.667 0 -36.667 -2 -54 -6s-35.5 -10.5 -54.5 -19.5s-34.167 -22.833 -45.5 -41.5
s-17 -41.334 -17 -68.001c0 -35.333 12 -61.166 36 -77.499s71 -28.5 141 -36.5c52 -4.66699 94.167 -10.834 126.5 -18.501s62.166 -19.5 89.499 -35.5s47.333 -38.167 60 -66.5s19 -63.833 19 -106.5c0 -52.667 -14.667 -97.5 -44 -134.5s-65.833 -63.333 -109.5 -79
s-91.834 -23.5 -144.501 -23.5c-182.667 0 -284 72.667 -304 218l102 10c8 -48 28 -82.833 60 -104.5s79.333 -32.5 142 -32.5z" />
    <glyph glyph-name="T" unicode="T" horiz-adv-x="622" 
d="M361 688v-688h-100v688h-241v92h582v-92h-241z" />
    <glyph glyph-name="U" unicode="U" horiz-adv-x="772" 
d="M386 -12c-209.333 0 -314.004 98 -314.004 294v498h102v-499c0 -30.667 3 -57.167 9 -79.5s16.333 -43.333 31 -63s36.334 -34.5 65.001 -44.5s64.334 -15 107.001 -15s78.334 5 107.001 15s50.334 24.833 65.001 44.5s25 40.667 31 63s9 48.833 9 79.5v499h102v-498
c0 -196 -104.667 -294 -314 -294z" />
    <glyph glyph-name="V" unicode="V" horiz-adv-x="727" 
d="M713 780l-301 -792h-98l-300 792h107l180 -491l62 -175l62 175l180 491h108z" />
    <glyph glyph-name="W" unicode="W" horiz-adv-x="954" 
d="M519 496l-42 149l-42 -149l-159 -508h-85l-165 792h104l86 -460l26 -157l45 157l144 460h92l144 -460l45 -157l26 157l86 460h104l-165 -792h-85z" />
    <glyph glyph-name="X" unicode="X" horiz-adv-x="722" 
d="M273 615l88 -134l88 134l110 165h117l-219 -321l-40 -57l42 -60l235 -342h-121l-126 190l-86 131l-86 -131l-126 -190h-121l235 342l42 60l-40 57l-219 321h117z" />
    <glyph glyph-name="Y" unicode="Y" horiz-adv-x="730" 
d="M276 551l89 -141l89 141l149 229h115l-303 -456v-324h-100v324l-303 456h115z" />
    <glyph glyph-name="Z" unicode="Z" horiz-adv-x="688" 
d="M43 0v75l399 523l73 91l-232 -1h-221v92h583v-75l-399 -523l-73 -91l233 1h239v-92h-602z" />
    <glyph glyph-name="bracketleft" unicode="[" horiz-adv-x="263" 
d="M248 738h-58v-776h58v-92h-158v960h158v-92z" />
    <glyph glyph-name="backslash" unicode="\" horiz-adv-x="350" 
d="M240 -90l-230 960h100l230 -960h-100z" />
    <glyph glyph-name="bracketright" unicode="]" horiz-adv-x="263" 
d="M15 -38h58v776h-58v92h158v-960h-158v92z" />
    <glyph glyph-name="asciicircum" unicode="^" horiz-adv-x="506" 
d="M303 581l-50 110l-50 -110l-83 -181h-102l186 392h98l186 -392h-102z" />
    <glyph glyph-name="underscore" unicode="_" horiz-adv-x="310" 
d="M290 -200h-270v90h270v-90z" />
    <glyph glyph-name="grave" unicode="`" horiz-adv-x="600" 
d="M148 800h112l94 -208h-95z" />
    <glyph glyph-name="a" unicode="a" horiz-adv-x="581" 
d="M289 459c-40 0.666992 -69.167 -6.50098 -87.5 -21.501s-30.5 -37.833 -36.5 -68.5l-99 14c8 50.667 28.833 89.834 62.5 117.501s86.5 41.5 158.5 41.5c73.333 0 130 -16.167 170 -48.5s60 -80.833 60 -145.5v-216l7 -132h-87l-12 76c-18 -28 -44.333 -49.667 -79 -65
s-72 -23 -112 -23c-64 0 -111.667 13.833 -143 41.5s-47 66.167 -47 115.5c0 52 17.333 90 52 114s86 41 154 51l172 25v20c0 36 -11 62 -33 78s-55.333 24.667 -100 26zM144 147.999c0 -50.667 32 -76.001 96 -76.001c46 -0.666992 86.333 12.333 121 39s55 56 61 88v62
l-163 -26c-38.667 -6 -67.5 -15.167 -86.5 -27.5s-28.5 -32.166 -28.5 -59.499z" />
    <glyph glyph-name="b" unicode="b" horiz-adv-x="611" 
d="M328 542c76.667 0 135.667 -24 177 -72s62 -116.333 62 -205s-20.667 -157 -62 -205s-100.333 -72 -177 -72c-36.667 0 -70.167 7.83301 -100.5 23.5s-53.833 37.167 -70.5 64.5l-12 -76h-87l7 132v668h95v-341c17.333 25.333 40.833 45.5 70.5 60.5
s62.167 22.5 97.5 22.5zM160 328v-126c4.66699 -32 21.5 -60.833 50.5 -86.5s65.167 -38.5 108.5 -38.5c46 0 82.333 16.167 109 48.5s40 78.833 40 139.5c0 60 -13.333 106.333 -40 139s-63 49 -109 49c-43.333 0 -79.5 -13 -108.5 -39s-45.833 -54.667 -50.5 -86z" />
    <glyph glyph-name="c" unicode="c" horiz-adv-x="562" 
d="M138 265c0 -60.667 13.667 -107.498 41 -140.498s65 -50.167 113 -51.5c74.667 -0.666992 118.334 29.666 131.001 90.999l99 -12c-17.333 -109.333 -94 -164 -230 -164c-78 0 -138.833 24.167 -182.5 72.5s-65.5 116.5 -65.5 204.5s21.833 156.167 65.5 204.5
s104.5 72.5 182.5 72.5c136 0 212.667 -54.667 230 -164l-99 -12c-12.667 61.333 -56.334 91.666 -131.001 90.999c-48 -1.33301 -85.667 -18.5 -113 -51.5s-41 -79.833 -41 -140.5z" />
    <glyph glyph-name="d" unicode="d" horiz-adv-x="611" 
d="M283 542c35.333 0 67.833 -7.5 97.5 -22.5s53.167 -35.167 70.5 -60.5v341h95v-668l7 -132h-87l-12 76c-16.667 -27.333 -40.167 -48.833 -70.5 -64.5s-63.833 -23.5 -100.5 -23.5c-76.667 0 -135.667 24 -177 72s-62 116.333 -62 205s20.667 157 62 205
s100.333 72 177 72zM451 202v126c-4.66699 31.333 -21.5 60 -50.5 86s-65.167 39 -108.5 39c-46 0 -82.333 -16.333 -109 -49s-40 -79 -40 -139c0 -60.667 13.333 -107.167 40 -139.5s63 -48.5 109 -48.5c43.333 0 79.5 12.833 108.5 38.5s45.833 54.5 50.5 86.5z" />
    <glyph glyph-name="e" unicode="e" horiz-adv-x="582" 
d="M534 226l-389.997 -0.000976562c6.66699 -102.667 58 -154 154 -154c76 -2 120 26 132 84l100 -12c-6.66699 -46 -28.834 -83.5 -66.501 -112.5s-92.5 -43.5 -164.5 -43.5c-80.667 0 -143.334 23.5 -188.001 70.5s-67 115.833 -67 206.5s22.167 159.5 66.5 206.5
s106.166 70.5 185.499 70.5s138.833 -23.667 178.5 -71s59.5 -115.666 59.5 -204.999v-40zM297.003 458.999c-44.667 0 -80.335 -12.665 -107.002 -37.998s-41.667 -63.333 -45 -114h286c-1.33301 49.333 -13.166 87.166 -35.499 113.499s-55.166 39.166 -98.499 38.499z
" />
    <glyph glyph-name="f" unicode="f" horiz-adv-x="408" 
d="M30 449l-0.000976562 81.002h107v77c0 29.333 2.66699 55 8 77s14.5 43.333 27.5 64s32.833 36.5 59.5 47.5s59.334 16.5 98.001 16.5c26.667 0 50.667 -4 72 -12l-9 -89c-20.667 9.33301 -41 13.666 -61 12.999c-36 -0.666992 -61.667 -9.33398 -77 -26.001
s-23 -49 -23 -97v-71h151v-81h-151v-449h-95v449h-107z" />
    <glyph glyph-name="g" unicode="g" horiz-adv-x="611" 
d="M546 398l0.00195312 -410.001c0 -64.667 -22.833 -114.167 -68.5 -148.5s-107.167 -51.5 -184.5 -51.5c-81.333 0 -140.333 13.833 -177 41.5s-58 66.834 -64 117.501l100 14c10 -62 56 -92 138 -90c107.333 1.33301 161 39 161 113v111
c-16.667 -25.333 -39.834 -45.5 -69.501 -60.5s-62.834 -22.5 -99.501 -22.5c-74.667 0 -133 22.5 -175 67.5s-63 110.833 -63 197.5s21 152.5 63 197.5s100.333 67.5 175 67.5c38 0 72 -7.83301 102 -23.5s53.333 -37.167 70 -64.5l12 76h87zM451.002 225.999v102
c-4.66699 32 -21.5 60.833 -50.5 86.5s-64.833 38.5 -107.5 38.5c-47.333 0 -84 -14.5 -110 -43.5s-39 -73.167 -39 -132.5s13 -103.5 39 -132.5s62.667 -43.5 110 -43.5c42.667 0 78.5 12.833 107.5 38.5s45.833 54.5 50.5 86.5z" />
    <glyph glyph-name="h" unicode="h" horiz-adv-x="585" 
d="M158 800l-0.000976562 -342c38.667 56 94.667 84 168 84c60.667 0 109.834 -15.667 147.501 -47s56.5 -75.333 56.5 -132v-363h-96v346c0 34 -11 60.333 -33 79s-51.667 28 -89 28c-40.667 0 -75.5 -13.167 -104.5 -39.5s-45.5 -54.833 -49.5 -85.5v-328h-95v800h95z" />
    <glyph glyph-name="i" unicode="i" horiz-adv-x="258" 
d="M81 0v530h96v-530h-96zM185 750v-111h-112v111h112z" />
    <glyph glyph-name="j" unicode="j" horiz-adv-x="258" 
d="M190 750v-111h-112v111h112zM86 -1l0.000976562 530.996h96v-537c0 -29.333 -2.66699 -55.166 -8 -77.499s-14.5 -43.666 -27.5 -63.999s-32.833 -36 -59.5 -47s-59.334 -16.5 -98.001 -16.5c-26.667 0 -50.667 4 -72 12l10 89
c17.333 -9.33301 37.333 -13.666 60 -12.999c36 0.666992 61.5 9.33398 76.5 26.001s22.5 49 22.5 97z" />
    <glyph glyph-name="k" unicode="k" horiz-adv-x="561" 
d="M158 0h-95v800h95v-514l92 96l146 148h129l-229 -228l262 -302h-124l-205 240l-71 -68v-172z" />
    <glyph glyph-name="l" unicode="l" horiz-adv-x="258" 
d="M81 0v800h96v-800h-96z" />
    <glyph glyph-name="m" unicode="m" horiz-adv-x="879" 
d="M727 0l-0.000976562 348.999c0 69.333 -34.667 104 -104 104c-34 0 -63.167 -12.833 -87.5 -38.5s-38.833 -54.167 -43.5 -85.5v-329h-96v349c0 69.333 -34.667 104 -104 104c-34 0 -63.333 -12.833 -88 -38.5s-39.334 -54.167 -44.001 -85.5v-329h-95v399l-7 131h87
l12 -75c36.667 58 87.667 87 153 87c84.667 0 139 -32.667 163 -98c18.667 32 42.834 56.333 72.501 73s60.834 25 93.501 25c58 0 103.167 -15.667 135.5 -47s48.5 -75.666 48.5 -132.999v-362h-96z" />
    <glyph glyph-name="n" unicode="n" horiz-adv-x="587" 
d="M145 530l11.999 -75.001c18 26.667 42 47.834 72 63.501s63 23.5 99 23.5c60.667 0 109.834 -15.667 147.501 -47s56.5 -75.333 56.5 -132v-363h-96v346c0 34 -11 60.333 -33 79s-51.667 28 -89 28c-40.667 0 -75.5 -13.167 -104.5 -39.5s-45.5 -54.833 -49.5 -85.5v-328
h-95v399l-7 131h87z" />
    <glyph glyph-name="o" unicode="o" horiz-adv-x="590" 
d="M295 74c48 0 85.667 15.5 113 46.5s41 79.167 41 144.5s-13.667 113.5 -41 144.5s-65 46.5 -113 46.5s-85.667 -15.5 -113 -46.5s-41 -79.167 -41 -144.5s13.667 -113.5 41 -144.5s65 -46.5 113 -46.5zM295 -12c-78.667 0 -140 23.5 -184 70.5s-66 115.833 -66 206.5
s22 159.5 66 206.5s105.333 70.5 184 70.5s140 -23.5 184 -70.5s66 -115.833 66 -206.5s-22 -159.5 -66 -206.5s-105.333 -70.5 -184 -70.5z" />
    <glyph glyph-name="p" unicode="p" horiz-adv-x="611" 
d="M328 -12c-35.333 0 -67.833 7.5 -97.5 22.5s-53.167 35.167 -70.5 60.5v-271h-95v598l-7 132h87l12 -76c16.667 27.333 40.167 48.833 70.5 64.5s63.833 23.5 100.5 23.5c76.667 0 135.667 -24 177 -72s62 -116.333 62 -205s-20.667 -157 -62 -205s-100.333 -72 -177 -72
zM160 328v-126c4.66699 -31.333 21.5 -60 50.5 -86s65.167 -39 108.5 -39c46 0 82.333 16.333 109 49s40 79 40 139c0 60.667 -13.333 107.167 -40 139.5s-63 48.5 -109 48.5c-43.333 0 -79.5 -12.833 -108.5 -38.5s-45.833 -54.5 -50.5 -86.5z" />
    <glyph glyph-name="q" unicode="q" horiz-adv-x="611" 
d="M283 -12c-76.667 0 -135.667 24 -177 72s-62 116.333 -62 205s20.667 157 62 205s100.333 72 177 72c36.667 0 70.167 -7.83301 100.5 -23.5s53.833 -37.167 70.5 -64.5l12 76h87l-7 -132v-598h-95v271c-17.333 -25.333 -40.833 -45.5 -70.5 -60.5
s-62.167 -22.5 -97.5 -22.5zM451 202v126c-4.66699 32 -21.5 60.833 -50.5 86.5s-65.167 38.5 -108.5 38.5c-46 0 -82.333 -16.167 -109 -48.5s-40 -78.833 -40 -139.5c0 -60 13.333 -106.333 40 -139s63 -49 109 -49c43.333 0 79.5 13 108.5 39s45.833 54.667 50.5 86z" />
    <glyph glyph-name="r" unicode="r" horiz-adv-x="414" 
d="M326 450c-43.333 0 -80.499 -12.832 -111.499 -38.499s-49.167 -54.5 -54.5 -86.5v-325h-95v399l-7 131h87l13 -81c15.333 27.333 37.833 49.666 67.5 66.999s62.167 26 97.5 26c29.333 0 53 -3.66699 71 -11l-9 -93c-14.667 8 -34.334 12 -59.001 12z" />
    <glyph glyph-name="s" unicode="s" horiz-adv-x="540" 
d="M266 72c94 2.66699 141 30.6709 141 84.0039c0 27.333 -8.83301 45.166 -26.5 53.499s-49.5 14.833 -95.5 19.5c-4 0.666992 -7.5 1 -10.5 1s-6.16699 0.333008 -9.5 1c-22.667 2.66699 -38.834 4.66699 -48.501 6s-25 4 -46 8s-36.833 9.16699 -47.5 15.5
s-22.334 14.333 -35.001 24s-21.834 22.167 -27.501 37.5s-8.5 32.666 -8.5 51.999c0 38.667 11.5 71.167 34.5 97.5s49.833 44.666 80.5 54.999s63.667 15.5 99 15.5c136 0 211.333 -52.667 226 -158l-100 -12c-6 29.333 -18.667 51.166 -38 65.499
s-48.666 21.166 -87.999 20.499c-77.333 -1.33301 -116 -27 -116 -77c0 -10.667 2.33301 -19.667 7 -27s9.83398 -13.166 15.501 -17.499s15.334 -8 29.001 -11s25.167 -5.16699 34.5 -6.5s24.333 -3 45 -5c71.333 -7.33301 120.333 -16.333 147 -27
c52 -22.667 78 -64.667 78 -126c0 -58 -23.5 -101.333 -70.5 -130s-103.167 -43 -168.5 -43c-140 0 -217 53 -231 159l100 13c6 -29.333 19 -51.5 39 -66.5s50.333 -22.167 91 -21.5z" />
    <glyph glyph-name="t" unicode="t" horiz-adv-x="420" 
d="M23 449l0.000976562 81.002h96v142l95 16v-158h162v-81h-162v-250c0 -48 7.66699 -80.333 23 -97s41 -25.334 77 -26.001c20 -0.666992 40.333 3.66602 61 12.999l9 -89c-21.333 -8 -45.333 -12 -72 -12c-38.667 0 -71.334 5.5 -98.001 16.5s-46.5 26.833 -59.5 47.5
s-22.167 42 -27.5 64s-8 47.667 -8 77v256h-96z" />
    <glyph glyph-name="u" unicode="u" horiz-adv-x="587" 
d="M443 0l-11.999 75.001c-18 -26.667 -42 -47.834 -72 -63.501s-63 -23.5 -99 -23.5c-60.667 0 -109.834 15.667 -147.501 47s-56.5 75.333 -56.5 132v363h96v-346c0 -34 11 -60.333 33 -79s51.667 -28 89 -28c40.667 0 75.5 13.167 104.5 39.5s45.5 54.833 49.5 85.5v328
h95v-399l7 -131h-87z" />
    <glyph glyph-name="v" unicode="v" horiz-adv-x="559" 
d="M233 -12l-219 542h105l110 -295l50 -142l50 142l110 295h105l-219 -542h-92z" />
    <glyph glyph-name="w" unicode="w" horiz-adv-x="813" 
d="M448 292l-42 123l-42 -123l-106 -304h-94l-131 542h97l61 -282l25 -128l43 128l98 282h98l98 -282l43 -128l25 128l61 282h97l-131 -542h-94z" />
    <glyph glyph-name="x" unicode="x" horiz-adv-x="558" 
d="M345 111l-66 91l-66 -91l-80 -111h-119l163 219l42 57l-41 55l-149 199h117l70 -99l63 -89l63 89l70 99h117l-149 -199l-41 -55l42 -57l163 -219h-119z" />
    <glyph glyph-name="y" unicode="y" horiz-adv-x="562" 
d="M550 530l-215 -495l-96 -235h-110l102 226l-219 504h108l109 -274l52 -131l51 131l110 274h108z" />
    <glyph glyph-name="z" unicode="z" horiz-adv-x="529" 
d="M302 367l74 79l-125 -1h-196v85h445v-70l-268 -298l-72 -78l125 1h224v-85h-473v71z" />
    <glyph glyph-name="braceleft" unicode="{" horiz-adv-x="301" 
d="M270 -38l20 0.000976562v-92h-25c-111.333 0 -167 55.333 -167 166v185c0 33.333 -5.5 55.833 -16.5 67.5s-28.5 17.5 -52.5 17.5h-21v88h21c24 0 41.5 5.83301 52.5 17.5s16.5 34.167 16.5 67.5v185c0 110.667 55.667 166 167 166h25v-92h-20
c-24.667 0 -43.5 -6 -56.5 -18s-19.5 -34.333 -19.5 -67v-184c0 -55.333 -17.667 -95 -53 -119c35.333 -24.667 53 -64.334 53 -119.001v-184c0 -32.667 6.5 -55 19.5 -67s31.833 -18 56.5 -18z" />
    <glyph glyph-name="bar" unicode="|" horiz-adv-x="286" 
d="M193 830v-960h-100v960h100z" />
    <glyph glyph-name="braceright" unicode="}" horiz-adv-x="301" 
d="M32 738l-21 -0.000976562v92h25c112 0 168 -55.333 168 -166v-185c0 -33.333 5.5 -55.833 16.5 -67.5s28.5 -17.5 52.5 -17.5h20v-88h-20c-24 0 -41.5 -5.83301 -52.5 -17.5s-16.5 -34.167 -16.5 -67.5v-185c0 -110.667 -56 -166 -168 -166h-25v92h21
c24.667 0 43.5 6 56.5 18s19.5 34.333 19.5 67v184c0 55.333 17.667 95 53 119c-35.333 24.667 -53 64.334 -53 119.001v184c0 32.667 -6.5 55 -19.5 67s-31.833 18 -56.5 18z" />
    <glyph glyph-name="asciitilde" unicode="~" horiz-adv-x="486" 
d="M67 284l-38.999 62.0029c0.666992 2 2 4.5 4 7.5s6.83301 8.5 14.5 16.5s16 15 25 21s21.167 11.5 36.5 16.5s31.666 7.5 48.999 7.5c21.333 0 40.833 -3.83301 58.5 -11.5s31.667 -16.334 42 -26.001s22.666 -18.334 36.999 -26.001s28.833 -11.5 43.5 -11.5
c6 0 11.667 0.5 17 1.5s10.166 2.5 14.499 4.5l13 6c4.33301 2 8 4.33301 11 7l8.5 7.5c2.66699 2.33301 5 4.66602 7 6.99902l5 6c1.33301 1.66699 2.33301 3.16699 3 4.5l1 1l39 -62l-5 -7.5c-2 -3 -6.66699 -8.5 -14 -16.5s-15.5 -15 -24.5 -21
s-21.167 -11.5 -36.5 -16.5s-31.666 -7.5 -48.999 -7.5c-26.667 0 -50.5 6.33301 -71.5 19s-40 25.167 -57 37.5s-34.5 18.5 -52.5 18.5c-16 0 -30.667 -3.83301 -44 -11.5s-22.666 -15.167 -27.999 -22.5z" />
    <glyph glyph-name="nbspace" unicode="&#xa0;" horiz-adv-x="230" 
 />
    <glyph glyph-name="exclamdown" unicode="&#xa1;" horiz-adv-x="264" 
d="M188 530v-111h-112v111h112zM192 -200h-120l28 523h65z" />
    <glyph glyph-name="cent" unicode="&#xa2;" horiz-adv-x="572" 
d="M155 0l30.999 125.002c-91.333 39.333 -137 124.666 -137 255.999c0 88 21.833 156.167 65.5 204.5s104.5 72.5 182.5 72.5c9.33301 0 16 -0.333008 20 -1l27 107h89l-30 -121c70.667 -22 112 -71.667 124 -149l-99 -12c-8 34.667 -23.667 58.667 -47 72l-90 -365h6
c74.667 -0.666992 118.334 29.666 131.001 90.999l99 -12c-17.333 -109.333 -94 -164 -230 -164c-12 0 -21 0.333008 -27 1l-26 -105h-89zM142.999 381.002c0 -77.333 21.666 -132 64.999 -164l88 356c-47.333 -1.33301 -84.666 -18.5 -111.999 -51.5
s-41 -79.833 -41 -140.5z" />
    <glyph glyph-name="sterling" unicode="&#xa3;" horiz-adv-x="707" 
d="M654 0h-604.999v89h110v264h-110v88h110v102c0 74.667 21.667 132.167 65 172.5s106.666 60.5 189.999 60.5c151.333 0 231.333 -60 240 -180l-98 -12c-8 71.333 -55.333 106 -142 104c-106.667 -0.666992 -160 -46.667 -160 -138v-109h232v-88h-232v-264h400v-89z" />
    <glyph glyph-name="currency" unicode="&#xa4;" horiz-adv-x="746" 
d="M82 382c0 72 15.667 131.667 47 179l-105 105l67 68l107 -107c46.667 32.667 105 49 175 49s128.333 -16.333 175 -49l107 107l67 -68l-105 -105c31.333 -47.333 47 -107 47 -179s-15.667 -131.667 -47 -179l105 -105l-67 -68l-107 107
c-46.667 -32.667 -105 -49 -175 -49s-128.333 16.333 -175 49l-107 -107l-67 68l105 105c-31.333 47.333 -47 107 -47 179zM566 382c0 70.667 -18.167 122.334 -54.5 155.001s-82.5 49 -138.5 49s-102.167 -16.333 -138.5 -49s-54.5 -84.334 -54.5 -155.001
s18.167 -122.334 54.5 -155.001s82.5 -49 138.5 -49s102.167 16.333 138.5 49s54.5 84.334 54.5 155.001z" />
    <glyph glyph-name="yen" unicode="&#xa5;" horiz-adv-x="714" 
d="M605 181h-199v-181h-98v181h-200v76h200v52h-200v76h164l-259 391h112l157 -243l75 -118l75 118l156 243h113l-259 -391h163v-76h-199v-52h199v-76z" />
    <glyph glyph-name="brokenbar" unicode="&#xa6;" horiz-adv-x="286" 
d="M193 310v-440h-100v440h100zM193 830v-440h-100v440h100z" />
    <glyph glyph-name="section" unicode="&#xa7;" horiz-adv-x="643" 
d="M136 286c0 -40 12.5 -67 37.5 -81s70.5 -24 136.5 -30c22.667 -2 45 -1.33301 67 2s43 9.16602 63 17.499s36.167 21.166 48.5 38.499s18.5 37.666 18.5 60.999c0 40 -12.5 67 -37.5 81s-70.5 24 -136.5 30c-22.667 2 -45 1.33301 -67 -2s-43 -9.16602 -63 -17.499
s-36.167 -21.166 -48.5 -38.499s-18.5 -37.666 -18.5 -60.999zM605 295c0 -38 -10 -71.167 -30 -99.5s-46.667 -50.5 -80 -66.5c52 -27.333 78 -73 78 -137c0 -67.333 -25.333 -118.166 -76 -152.499s-112.667 -51.5 -186 -51.5c-83.333 0 -147.166 16.833 -191.499 50.5
s-70.5 80.834 -78.5 141.501l102 12c6.66699 -40 23.334 -69.333 50.001 -88s66 -27.667 118 -27c44.667 0.666992 82.667 10 114 28s47 47 47 87c0 34.667 -12.333 58.667 -37 72s-68.667 22.666 -132 27.999c-33.333 2.66699 -61.333 5.83398 -84 9.50098
s-46.334 9.83398 -71.001 18.501s-44.334 19.667 -59.001 33s-26.834 31.166 -36.501 53.499s-14.5 48.5 -14.5 78.5c0 38 10 71.167 30 99.5s46.667 50.5 80 66.5c-52 27.333 -78 73 -78 137c0 67.333 25.333 118.166 76 152.499s112.667 51.5 186 51.5
c83.333 0 147.166 -16.833 191.499 -50.5s70.5 -80.834 78.5 -141.501l-102 -12c-6.66699 40 -23.334 69.333 -50.001 88s-66 27.667 -118 27c-44.667 -0.666992 -82.667 -10 -114 -28s-47 -47 -47 -87c0 -34.667 12.333 -58.667 37 -72s68.667 -22.666 132 -27.999
c33.333 -2.66699 61.333 -5.83398 84 -9.50098s46.334 -9.83398 71.001 -18.501s44.334 -19.667 59.001 -33s26.834 -31.166 36.501 -53.499s14.5 -48.5 14.5 -78.5z" />
    <glyph glyph-name="dieresis" unicode="&#xa8;" horiz-adv-x="600" 
d="M256 750v-111h-112v111h112zM456 750v-111h-112v111h112z" />
    <glyph glyph-name="copyright" unicode="&#xa9;" horiz-adv-x="900" 
d="M48 390c0 110.667 39.333 205.334 118 284.001s173.334 118 284.001 118s205.334 -39.333 284.001 -118s118 -173.334 118 -284.001s-39.333 -205.334 -118 -284.001s-173.334 -118 -284.001 -118s-205.334 39.333 -284.001 118s-118 173.334 -118 284.001zM207 390
c0 81.333 21.333 144.335 64 189.002s102.334 67 179.001 67c129.333 0 204.666 -56.333 225.999 -169l-100 -13c-6.66699 30.667 -19.834 53.667 -39.501 69s-48.834 22.666 -87.501 21.999c-46 -1.33301 -81.5 -15.833 -106.5 -43.5s-37.5 -68.167 -37.5 -121.5
s12.5 -93.833 37.5 -121.5s60.5 -42.167 106.5 -43.5c38.667 -0.666992 67.834 6.66602 87.501 21.999s32.834 38.333 39.501 69l100 -13c-21.333 -112.667 -96.666 -169 -225.999 -169c-76.667 0 -136.334 22.333 -179.001 67s-64 107.667 -64 189zM139 390.002
c0 -86 30.333 -159.333 91 -220s134 -91 220 -91s159.333 30.333 220 91s91 134 91 220s-30.333 159.333 -91 220s-134 91 -220 91s-159.333 -30.333 -220 -91s-91 -134 -91 -220z" />
    <glyph glyph-name="ordfeminine" unicode="&#xaa;" horiz-adv-x="448" 
d="M36 499c0 39.333 14.002 67.999 42.002 85.999s68.333 30.667 121 38l112 16v12c0 44 -30.667 65.333 -92 64c-48 -0.666992 -75 -19.667 -81 -57l-85 11c6 38.667 21.667 68.667 47 90s65.666 32 120.999 32s98.166 -12.167 128.499 -36.5s45.5 -60.833 45.5 -109.5
v-155l6 -100h-78l-7 45c-13.333 -17.333 -32.333 -31.166 -57 -41.499s-50.667 -15.5 -78 -15.5c-49.333 0 -85.833 10.667 -109.5 32s-35.5 51 -35.5 89zM125.002 499.999c0 -31.333 21 -47.001 63 -47.001c32.667 0.666992 61 9.83398 85 27.501s36.667 37.5 38 59.5v35
l-134 -22c-34.667 -6 -52 -23.667 -52 -53z" />
    <glyph glyph-name="guillemotleft" unicode="&#xab;" horiz-adv-x="520" 
d="M250 208v-77l-208 141v86l208 141v-77l-123 -107zM470 208v-77l-208 141v86l208 141v-77l-123 -107z" />
    <glyph glyph-name="logicalnot" unicode="&#xac;" horiz-adv-x="490" 
d="M47 529h396v-292h-94v198h-302v94z" />
    <glyph glyph-name="uni00AD" unicode="&#xad;" horiz-adv-x="360" 
d="M310 290h-260v90h260v-90z" />
    <glyph glyph-name="registered" unicode="&#xae;" horiz-adv-x="900" 
d="M48 390c0 110.667 39.333 205.334 118 284.001s173.334 118 284.001 118s205.334 -39.333 284.001 -118s118 -173.334 118 -284.001s-39.333 -205.334 -118 -284.001s-173.334 -118 -284.001 -118s-205.334 39.333 -284.001 118s-118 173.334 -118 284.001zM530 146
l-81 188h-94v-188h-88v488h208c110 0 165 -50 165 -150c0 -75.333 -32.333 -122.333 -97 -141l94 -197h-107zM355 418h123.999c9.33301 0 17.333 0.666992 24 2s13.834 4 21.501 8s13.667 10.667 18 20s6.5 21.333 6.5 36c0 26.667 -6.5 44.167 -19.5 52.5
s-29.833 12.5 -50.5 12.5h-124v-131zM138.999 390c0 -86 30.333 -159.333 91 -220s134 -91 220 -91s159.333 30.333 220 91s91 134 91 220s-30.333 159.333 -91 220s-134 91 -220 91s-159.333 -30.333 -220 -91s-91 -134 -91 -220z" />
    <glyph glyph-name="macron" unicode="&#xaf;" horiz-adv-x="600" 
d="M444 652h-288v90h288v-90z" />
    <glyph glyph-name="degree" unicode="&#xb0;" horiz-adv-x="478" 
d="M239 489c72.667 0 109 35.002 109 105.002s-36.333 105 -109 105c-34 0 -60.667 -8.83301 -80 -26.5s-29 -43.834 -29 -78.501s9.66699 -60.834 29 -78.501s46 -26.5 80 -26.5zM239 412.002c-57.333 0 -103.5 15.5 -138.5 46.5s-52.5 76.167 -52.5 135.5
s17.5 104.5 52.5 135.5s81.167 46.5 138.5 46.5s103.5 -15.5 138.5 -46.5s52.5 -76.167 52.5 -135.5s-17.5 -104.5 -52.5 -135.5s-81.167 -46.5 -138.5 -46.5z" />
    <glyph glyph-name="plusminus" unicode="&#xb1;" 
d="M303 300v133h-223v94h223v133h94v-133h223v-94h-223v-133h-94zM620 138h-540v94h540v-94z" />
    <glyph glyph-name="twosuperior" unicode="&#xb2;" horiz-adv-x="420" 
d="M212 776c45.333 0 82.498 -11.0039 111.498 -33.0039s43.5 -53.333 43.5 -94c0 -16.667 -2.66699 -31.5 -8 -44.5s-11.166 -23.167 -17.499 -30.5s-16.833 -15 -31.5 -23s-25.834 -13.5 -33.501 -16.5s-21.167 -7.83301 -40.5 -14.5c-30 -11.333 -53 -22.666 -69 -33.999
s-26 -25.333 -30 -42l88 2h150v-79h-330c-0.666992 35.333 2.33301 65.333 9 90s17.834 44.834 33.501 60.501s31.334 27.834 47.001 36.501s37.5 18.334 65.5 29.001c32 12.667 53.833 23 65.5 31s17.5 19.333 17.5 34c0 33.333 -23 50 -69 50
c-26 0 -45.5 -4.16699 -58.5 -12.5s-20.833 -22.833 -23.5 -43.5l-86 7c8 84.667 63.333 127 166 127z" />
    <glyph glyph-name="threesuperior" unicode="&#xb3;" horiz-adv-x="426" 
d="M209 435c58.667 -1.33301 87.999 16.333 87.999 53c0 9.33301 -1.5 17.166 -4.5 23.499s-6.5 11 -10.5 14s-10.167 5.33301 -18.5 7s-15.166 2.66699 -20.499 3s-13.333 0.5 -24 0.5h-64v70h65c21.333 0 37.166 2.66699 47.499 8s15.5 17.333 15.5 36
c0 32.667 -23.333 49 -70 49c-25.333 -0.666992 -44.166 -5.16699 -56.499 -13.5s-19.833 -22.833 -22.5 -43.5l-86 7c6 84.667 60.667 127 164 127c45.333 0 82.666 -9.83301 111.999 -29.5s44 -50.167 44 -91.5c0 -40 -16 -67.333 -48 -82c16.667 -6 31 -16.667 43 -32
s18 -35.666 18 -60.999c0 -38.667 -14.667 -69.167 -44 -91.5s-72.666 -33.5 -129.999 -33.5c-104 0 -159.667 43.333 -167 130l85 7c5.33301 -39.333 33.333 -58.333 84 -57z" />
    <glyph glyph-name="acute" unicode="&#xb4;" horiz-adv-x="600" 
d="M347 800h112l-111 -208h-95z" />
    <glyph glyph-name="mu" unicode="&#xb5;" horiz-adv-x="587" 
d="M442 0l-12.001 75.001c-18 -26.667 -42 -47.834 -72 -63.501s-63 -23.5 -99 -23.5c-41.333 0 -78 8.33301 -110 25l2 -76v-137h-95v730h95v-340c0 -34.667 11.333 -62.167 34 -82.5s52.334 -30.5 89.001 -30.5c40 0 74.5 13.333 103.5 40s45.167 55 48.5 85v328h96v-399
l7 -131h-87z" />
    <glyph glyph-name="paragraph" unicode="&#xb6;" horiz-adv-x="658" 
d="M578 0l-100.002 0.000976562v688h-70v-688h-70v313h-49c-34 0 -65.167 3.66699 -93.5 11s-55.166 19.166 -80.499 35.499s-45.333 40.5 -60 72.5s-22 70.333 -22 115s7.33301 83 22 115s34.834 56.167 60.501 72.5s52.667 28 81 35s59.5 10.5 93.5 10.5h288v-780z" />
    <glyph glyph-name="periodcentered" unicode="&#xb7;" horiz-adv-x="240" 
d="M176 391v-111h-112v111h112z" />
    <glyph glyph-name="cedilla" unicode="&#xb8;" horiz-adv-x="600" 
d="M269 11h67.001l-13 -46c59.333 -14 89 -44.333 89 -91c0 -28.667 -11.333 -50.167 -34 -64.5s-52 -21.5 -88 -21.5c-37.333 0 -68 6 -92 18l17 53c17.333 -9.33301 35.666 -14 54.999 -14c37.333 0 56 10 56 30c0 26.667 -29 43 -87 49z" />
    <glyph glyph-name="onesuperior" unicode="&#xb9;" horiz-adv-x="400" 
d="M56 446h114.999v209c-27.333 -22.667 -69.333 -39 -126 -49v83c54.667 11.333 102.334 40.333 143.001 87h67v-330h115v-79h-314v79z" />
    <glyph glyph-name="ordmasculine" unicode="&#xba;" horiz-adv-x="470" 
d="M235 456c70 0 105 43 105 129s-35 129 -105 129s-105 -43 -105 -129s35 -129 105 -129zM235 378c-59.333 0 -106 17.833 -140 53.5s-51 86.834 -51 153.501s17 117.834 51 153.501s80.667 53.5 140 53.5s106 -17.833 140 -53.5s51 -86.834 51 -153.501
s-17 -117.834 -51 -153.501s-80.667 -53.5 -140 -53.5z" />
    <glyph glyph-name="guillemotright" unicode="&#xbb;" horiz-adv-x="520" 
d="M270 131v77l123 107l-123 107v77l208 -141v-86zM50 131v77l123 107l-123 107v77l208 -141v-86z" />
    <glyph glyph-name="onequarter" unicode="&#xbc;" horiz-adv-x="984" 
d="M840 764l-518 -764h-104l518 764h104zM951 78h-70v-78h-84v78h-183v59l194 272h73v-252h70v-79zM56 446h114.999v209c-27.333 -22.667 -69.333 -39 -126 -49v83c54.667 11.333 102.334 40.333 143.001 87h67v-330h115v-79h-314v79zM796.999 157v82l1 40l-83 -122h82z" />
    <glyph glyph-name="onehalf" unicode="&#xbd;" horiz-adv-x="1041" 
d="M218 0l517 764h105l-518 -764h-104zM833 409c45.333 0 82.498 -11.0039 111.498 -33.0039s43.5 -53.333 43.5 -94c0 -16.667 -2.66699 -31.5 -8 -44.5s-11.166 -23.167 -17.499 -30.5s-16.833 -15 -31.5 -23s-25.834 -13.5 -33.501 -16.5s-21.167 -7.83301 -40.5 -14.5
c-30 -11.333 -53 -22.666 -69 -33.999s-26 -25.333 -30 -42l88 2h150v-79h-330c-0.666992 35.333 2.33301 65.333 9 90s17.834 44.834 33.501 60.501s31.334 27.834 47.001 36.501s37.5 18.334 65.5 29.001c32 12.667 53.833 23 65.5 31s17.5 19.333 17.5 34
c0 33.333 -23 50 -69 50c-26 0 -45.5 -4.16699 -58.5 -12.5s-20.833 -22.833 -23.5 -43.5l-86 7c8 84.667 63.333 127 166 127zM55.998 445.996h114.999v209c-27.333 -22.667 -69.333 -39 -126 -49v83c54.667 11.333 102.334 40.333 143.001 87h67v-330h115v-79h-314v79z
" />
    <glyph glyph-name="threequarters" unicode="&#xbe;" horiz-adv-x="989" 
d="M846 764l-518 -764h-104l518 764h104zM209 435c58.667 -1.33301 87.999 16.333 87.999 53c0 9.33301 -1.5 17.166 -4.5 23.499s-6.5 11 -10.5 14s-10.167 5.33301 -18.5 7s-15.166 2.66699 -20.499 3s-13.333 0.5 -24 0.5h-64v70h65c21.333 0 37.166 2.66699 47.499 8
s15.5 17.333 15.5 36c0 32.667 -23.333 49 -70 49c-25.333 -0.666992 -44.166 -5.16699 -56.499 -13.5s-19.833 -22.833 -22.5 -43.5l-86 7c6 84.667 60.667 127 164 127c45.333 0 82.666 -9.83301 111.999 -29.5s44 -50.167 44 -91.5c0 -40 -16 -67.333 -48 -82
c16.667 -6 31 -16.667 43 -32s18 -35.666 18 -60.999c0 -38.667 -14.667 -69.167 -44 -91.5s-72.666 -33.5 -129.999 -33.5c-104 0 -159.667 43.333 -167 130l85 7c5.33301 -39.333 33.333 -58.333 84 -57zM956.999 77.999h-70v-78h-84v78h-183v59l194 272h73v-252h70v-79z
M802.999 156.999v82l1 40l-83 -122h82z" />
    <glyph glyph-name="questiondown" unicode="&#xbf;" horiz-adv-x="558" 
d="M282 323l71.998 -0.000976562c12 -32.667 18 -61.334 18 -86.001c0 -14.667 -1.5 -27.834 -4.5 -39.501s-7.66699 -22 -14 -31s-12.5 -16.667 -18.5 -23s-14.5 -12.5 -25.5 -18.5s-20.167 -10.667 -27.5 -14s-17.5 -7.66602 -30.5 -12.999
s-22.833 -9.66602 -29.5 -12.999c-49.333 -23.333 -74 -56.333 -74 -99c0 -71.333 47.667 -107 143 -107c48 0 84.833 9.83301 110.5 29.5s41.834 52.167 48.501 97.5l100 -10c-18.667 -138.667 -105 -208 -259 -208c-74 0 -133.5 17.333 -178.5 52
s-67.5 83.334 -67.5 146.001c0 17.333 1.83301 33.333 5.5 48s8 27.5 13 38.5s12 21.333 21 31s17 17.5 24 23.5s16.333 12.333 28 19s20.834 11.5 27.501 14.5l28 12l23 9.5c20 8.66699 34 15.167 42 19.5s15.667 11.5 23 21.5s11 22.333 11 37c0 16 -3 37 -9 63z
M360.998 529.999v-111h-112v111h112z" />
    <glyph glyph-name="Agrave" unicode="&#xc0;" horiz-adv-x="726" 
d="M202 1030h112l94 -208h-95zM13 0l301 791h98l301 -791h-108l-83 225h-318l-83 -225h-108zM490 313l-127 351l-127 -351h254z" />
    <glyph glyph-name="Aacute" unicode="&#xc1;" horiz-adv-x="726" 
d="M412 1030h112l-111 -208h-95zM13 0l301 791h98l301 -791h-108l-83 225h-318l-83 -225h-108zM490 313l-127 351l-127 -351h254z" />
    <glyph glyph-name="Acircumflex" unicode="&#xc2;" horiz-adv-x="726" 
d="M561 822h-97l-101 126l-100 -126h-97l152 208h91zM13 0l301 791h98l301 -791h-108l-83 225h-318l-83 -225h-108zM490 313l-127 351l-127 -351h254z" />
    <glyph glyph-name="Atilde" unicode="&#xc3;" horiz-adv-x="726" 
d="M13 0l301 791h98l301 -791h-108l-83 225h-318l-83 -225h-108zM490 313l-127 351l-127 -351h254zM278 926c-28.667 0 -46 -18 -52 -54l-76 11c12 83.333 56.333 125 133 125c25.333 0 48 -6.66699 68 -20s37.833 -26.666 53.5 -39.999s30.167 -20 43.5 -20
c28.667 0 46 18 52 54l76 -11c-12 -83.333 -56.333 -125 -133 -125c-25.333 0 -48 6.66699 -68 20s-37.833 26.666 -53.5 39.999s-30.167 20 -43.5 20z" />
    <glyph glyph-name="Adieresis" unicode="&#xc4;" horiz-adv-x="726" 
d="M319 979v-111h-112v111h112zM519 979v-111h-112v111h112zM13 0l301 791h98l301 -791h-108l-83 225h-318l-83 -225h-108zM490 313l-127 351l-127 -351h254z" />
    <glyph glyph-name="Aring" unicode="&#xc5;" horiz-adv-x="726" 
d="M248 926c0 34 10.167 61.667 30.5 83s48.5 32 84.5 32s64.333 -10.667 85 -32s31 -49 31 -83c0 -34.667 -10.333 -62.667 -31 -84s-49 -32 -85 -32s-64.167 10.667 -84.5 32s-30.5 49.333 -30.5 84zM316 926c0 -14.667 4.16699 -26.5 12.5 -35.5s19.833 -13.5 34.5 -13.5
s26.167 4.5 34.5 13.5s12.5 20.833 12.5 35.5c0 14 -4.33301 25.5 -13 34.5s-20 13.5 -34 13.5s-25.333 -4.5 -34 -13.5s-13 -20.5 -13 -34.5zM13 0l301 791h98l301 -791h-108l-83 225h-318l-83 -225h-108zM490 313l-127 351l-127 -351h254z" />
    <glyph glyph-name="AE" unicode="&#xc6;" horiz-adv-x="1065" 
d="M532 0l-32 225h-261l-119 -225h-117l429 780h557v-92h-455l35 -243h377v-91h-364l37 -262h390v-92h-477zM445 615l-160 -302h202l-18 132z" />
    <glyph glyph-name="Ccedilla" unicode="&#xc7;" horiz-adv-x="757" 
d="M60 390c0 126.667 28.002 225.333 84.002 296s141.333 106 256 106c93.333 0 165.166 -19.5 215.499 -58.5s79.833 -92.5 88.5 -160.5l-102 -11c-7.33301 48 -27.333 83.167 -60 105.5s-80 33.5 -142 33.5c-158 0 -237 -103.667 -237 -311s79 -311 237 -311
c62 0 109.333 11.167 142 33.5s52.667 57.5 60 105.5l102 -11c-8.66699 -64 -35.5 -115.167 -80.5 -153.5s-109.5 -59.833 -193.5 -64.5l-6 -24c59.333 -14 89 -44.333 89 -91c0 -28.667 -11.333 -50.167 -34 -64.5s-52 -21.5 -88 -21.5c-37.333 0 -68 6 -92 18l17 53
c17.333 -9.33301 35.666 -14 54.999 -14c37.333 0 56 10 56 30c0 26.667 -29 43 -87 49l22 66c-102 7.33301 -177.833 46 -227.5 116s-74.5 164.667 -74.5 284z" />
    <glyph glyph-name="Egrave" unicode="&#xc8;" horiz-adv-x="693" 
d="M80 780h537v-92h-437v-243h394v-91h-394v-262h457v-92h-557v780zM205 1030h112l94 -208h-95z" />
    <glyph glyph-name="Eacute" unicode="&#xc9;" horiz-adv-x="693" 
d="M80 780h537v-92h-437v-243h394v-91h-394v-262h457v-92h-557v780zM404 1030h112l-111 -208h-95z" />
    <glyph glyph-name="Ecircumflex" unicode="&#xca;" horiz-adv-x="693" 
d="M80 780h537v-92h-437v-243h394v-91h-394v-262h457v-92h-557v780zM311 1030h92l152 -208h-97l-101 127l-101 -127h-97z" />
    <glyph glyph-name="Edieresis" unicode="&#xcb;" horiz-adv-x="693" 
d="M80 780h537v-92h-437v-243h394v-91h-394v-262h457v-92h-557v780zM313 980v-111h-112v111h112zM513 980v-111h-112v111h112z" />
    <glyph glyph-name="Igrave" unicode="&#xcc;" horiz-adv-x="296" 
d="M198 780v-780h-100v780h100zM-14 1030h112l94 -208h-95z" />
    <glyph glyph-name="Iacute" unicode="&#xcd;" horiz-adv-x="296" 
d="M198 780v-780h-100v780h100zM195 1030h112l-111 -208h-95z" />
    <glyph glyph-name="Icircumflex" unicode="&#xce;" horiz-adv-x="296" 
d="M198 780v-780h-100v780h100zM102 1030h92l152 -208h-97l-101 127l-101 -127h-97z" />
    <glyph glyph-name="Idieresis" unicode="&#xcf;" horiz-adv-x="296" 
d="M198 780v-780h-100v780h100zM104 980v-111h-112v111h112zM304 980v-111h-112v111h112z" />
    <glyph glyph-name="Eth" unicode="&#xd0;" horiz-adv-x="818" 
d="M401 0l-267 0.00195312v354h-115v91h115v335h267c119.333 0 209 -31.833 269 -95.5s90 -161.834 90 -294.501s-30 -230.834 -90 -294.501s-149.667 -95.5 -269 -95.5zM234 92.002h167c90 0 155.167 25.667 195.5 77s60.5 125 60.5 221s-20.167 169.667 -60.5 221
s-105.5 77 -195.5 77h-167v-243h217v-91h-217v-262z" />
    <glyph glyph-name="Ntilde" unicode="&#xd1;" horiz-adv-x="754" 
d="M171 780l319 -471l86 -133l-3 235v369h101v-780h-91l-319 471l-86 133l3 -235v-369h-101v780h91zM292 926c-28.667 0 -46 -18 -52 -54l-76 11c12 83.333 56.333 125 133 125c25.333 0 48 -6.66699 68 -20s37.833 -26.666 53.5 -39.999s30.167 -20 43.5 -20
c28.667 0 46 18 52 54l76 -11c-12 -83.333 -56.333 -125 -133 -125c-25.333 0 -48 6.66699 -68 20s-37.833 26.666 -53.5 39.999s-30.167 20 -43.5 20z" />
    <glyph glyph-name="Ograve" unicode="&#xd2;" horiz-adv-x="800" 
d="M400 -12c-115.333 0 -200.833 35.333 -256.5 106s-83.5 169.334 -83.5 296.001s27.833 225.334 83.5 296.001s141.167 106 256.5 106s200.833 -35.333 256.5 -106s83.5 -169.334 83.5 -296.001s-27.833 -225.334 -83.5 -296.001s-141.167 -106 -256.5 -106zM400 701
c-157.333 0 -236 -103.667 -236 -311s78.667 -311 236 -311s236 103.667 236 311s-78.667 311 -236 311zM248 1030h112l94 -208h-95z" />
    <glyph glyph-name="Oacute" unicode="&#xd3;" horiz-adv-x="800" 
d="M400 -12c-115.333 0 -200.833 35.333 -256.5 106s-83.5 169.334 -83.5 296.001s27.833 225.334 83.5 296.001s141.167 106 256.5 106s200.833 -35.333 256.5 -106s83.5 -169.334 83.5 -296.001s-27.833 -225.334 -83.5 -296.001s-141.167 -106 -256.5 -106zM400 701
c-157.333 0 -236 -103.667 -236 -311s78.667 -311 236 -311s236 103.667 236 311s-78.667 311 -236 311zM447 1030h112l-111 -208h-95z" />
    <glyph glyph-name="Ocircumflex" unicode="&#xd4;" horiz-adv-x="800" 
d="M400 701c-157.333 0 -236 -103.667 -236 -311s78.667 -311 236 -311s236 103.667 236 311s-78.667 311 -236 311zM400 -12c-115.333 0 -200.833 35.333 -256.5 106s-83.5 169.334 -83.5 296.001s27.833 225.334 83.5 296.001s141.167 106 256.5 106
s200.833 -35.333 256.5 -106s83.5 -169.334 83.5 -296.001s-27.833 -225.334 -83.5 -296.001s-141.167 -106 -256.5 -106zM354 1030h92l152 -208h-97l-101 127l-101 -127h-97z" />
    <glyph glyph-name="Otilde" unicode="&#xd5;" horiz-adv-x="800" 
d="M400 -12c-115.333 0 -200.833 35.333 -256.5 106s-83.5 169.334 -83.5 296.001s27.833 225.334 83.5 296.001s141.167 106 256.5 106s200.833 -35.333 256.5 -106s83.5 -169.334 83.5 -296.001s-27.833 -225.334 -83.5 -296.001s-141.167 -106 -256.5 -106zM400 701
c-157.333 0 -236 -103.667 -236 -311s78.667 -311 236 -311s236 103.667 236 311s-78.667 311 -236 311zM315 926c-28.667 0 -46 -18 -52 -54l-76 11c12 83.333 56.333 125 133 125c25.333 0 48 -6.66699 68 -20s37.833 -26.666 53.5 -39.999s30.167 -20 43.5 -20
c28.667 0 46 18 52 54l76 -11c-12 -83.333 -56.333 -125 -133 -125c-25.333 0 -48 6.66699 -68 20s-37.833 26.666 -53.5 39.999s-30.167 20 -43.5 20z" />
    <glyph glyph-name="Odieresis" unicode="&#xd6;" horiz-adv-x="800" 
d="M400 701c-157.333 0 -236 -103.667 -236 -311s78.667 -311 236 -311s236 103.667 236 311s-78.667 311 -236 311zM400 -12c-115.333 0 -200.833 35.333 -256.5 106s-83.5 169.334 -83.5 296.001s27.833 225.334 83.5 296.001s141.167 106 256.5 106
s200.833 -35.333 256.5 -106s83.5 -169.334 83.5 -296.001s-27.833 -225.334 -83.5 -296.001s-141.167 -106 -256.5 -106zM356 980v-111h-112v111h112zM556 980v-111h-112v111h112z" />
    <glyph glyph-name="multiply" unicode="&#xd7;" 
d="M87 194l197 196l-197 196l67 67l196 -197l196 197l67 -67l-197 -196l197 -196l-67 -67l-196 197l-196 -197z" />
    <glyph glyph-name="Oslash" unicode="&#xd8;" horiz-adv-x="800" 
d="M740 390c0 -126.667 -27.833 -225.334 -83.5 -296.001s-141.167 -106 -256.5 -106c-76.667 0 -141 16.667 -193 50l-25 -38h-79l53 80c-64 68 -96 171.333 -96 310c0 126.667 27.833 225.334 83.5 296.001s141.167 106 256.5 106c76.667 0 141 -16.667 193 -50l25 38h79
l-53 -80c64 -68 96 -171.333 96 -310zM636 390c0 96 -16.668 170 -50.001 222l-326 -494c36.667 -26 83.334 -39 140.001 -39c157.333 0 236 103.667 236 311zM163.999 390c0 -96 16.668 -170 50.001 -222l326 494c-36.667 26 -83.334 39 -140.001 39
c-157.333 0 -236 -103.667 -236 -311z" />
    <glyph glyph-name="Ugrave" unicode="&#xd9;" horiz-adv-x="772" 
d="M386 -12c-209.333 0 -314.004 98 -314.004 294v498h102v-499c0 -30.667 3 -57.167 9 -79.5s16.333 -43.333 31 -63s36.334 -34.5 65.001 -44.5s64.334 -15 107.001 -15s78.334 5 107.001 15s50.334 24.833 65.001 44.5s25 40.667 31 63s9 48.833 9 79.5v499h102v-498
c0 -196 -104.667 -294 -314 -294zM233.996 1030h112l94 -208h-95z" />
    <glyph glyph-name="Uacute" unicode="&#xda;" horiz-adv-x="772" 
d="M386 -12c-209.333 0 -314.004 98 -314.004 294v498h102v-499c0 -30.667 3 -57.167 9 -79.5s16.333 -43.333 31 -63s36.334 -34.5 65.001 -44.5s64.334 -15 107.001 -15s78.334 5 107.001 15s50.334 24.833 65.001 44.5s25 40.667 31 63s9 48.833 9 79.5v499h102v-498
c0 -196 -104.667 -294 -314 -294zM432.996 1030h112l-111 -208h-95z" />
    <glyph glyph-name="Ucircumflex" unicode="&#xdb;" horiz-adv-x="772" 
d="M386 -12c-209.333 0 -314.004 98 -314.004 294v498h102v-499c0 -30.667 3 -57.167 9 -79.5s16.333 -43.333 31 -63s36.334 -34.5 65.001 -44.5s64.334 -15 107.001 -15s78.334 5 107.001 15s50.334 24.833 65.001 44.5s25 40.667 31 63s9 48.833 9 79.5v499h102v-498
c0 -196 -104.667 -294 -314 -294zM339.996 1030h92l152 -208h-97l-101 127l-101 -127h-97z" />
    <glyph glyph-name="Udieresis" unicode="&#xdc;" horiz-adv-x="772" 
d="M386 -12c-209.333 0 -314.004 98 -314.004 294v498h102v-499c0 -30.667 3 -57.167 9 -79.5s16.333 -43.333 31 -63s36.334 -34.5 65.001 -44.5s64.334 -15 107.001 -15s78.334 5 107.001 15s50.334 24.833 65.001 44.5s25 40.667 31 63s9 48.833 9 79.5v499h102v-498
c0 -196 -104.667 -294 -314 -294zM341.996 980v-111h-112v111h112zM541.996 980v-111h-112v111h112z" />
    <glyph glyph-name="Yacute" unicode="&#xdd;" horiz-adv-x="730" 
d="M276 551l89 -141l89 141l149 229h115l-303 -456v-324h-100v324l-303 456h115zM412 1030h112l-111 -208h-95z" />
    <glyph glyph-name="Thorn" unicode="&#xde;" horiz-adv-x="660" 
d="M625 390c0 -44.667 -7.33301 -83.002 -22 -115.002s-34.667 -56.167 -60 -72.5s-52.166 -28.166 -80.499 -35.499s-59.5 -11 -93.5 -11h-189v-156h-100v780h100v-156h189c34 0 65.167 -3.66699 93.5 -11s55.166 -19.166 80.499 -35.499s45.333 -40.5 60 -72.5
s22 -70.333 22 -115zM180 531.998v-284h199c18 0 34 1.66699 48 5s28.667 9.5 44 18.5s27.333 23.5 36 43.5s13 45 13 75s-4.33301 55 -13 75s-20.667 34.5 -36 43.5s-30 15.167 -44 18.5s-30 5 -48 5h-199z" />
    <glyph glyph-name="germandbls" unicode="&#xdf;" horiz-adv-x="655" 
d="M339 812c68 0 123.666 -15.3359 166.999 -46.0029s65 -74.667 65 -132c0 -22.667 -3.33301 -43.167 -10 -61.5s-13.667 -32.666 -21 -42.999s-18.5 -20.5 -33.5 -30.5s-26 -16.5 -33 -19.5l-34.5 -14.5c-15.333 -6 -26.333 -10.667 -33 -14
s-14.334 -8.16602 -23.001 -14.499s-14.5 -13.666 -17.5 -21.999s-4.5 -18.5 -4.5 -30.5c0 -5.33301 0.5 -10 1.5 -14s3 -7.83301 6 -11.5l8.5 -10c2.66699 -3 6.5 -5.83301 11.5 -8.5l12.5 -6.5c3.33301 -1.66699 8.5 -3.66699 15.5 -6s12.333 -4 16 -5l17.5 -5
c8 -2.33301 13.667 -3.83301 17 -4.5c18 -5.33301 31.667 -9.5 41 -12.5s22.5 -8.83301 39.5 -17.5s30 -18 39 -28s17.167 -23.5 24.5 -40.5s11 -36.5 11 -58.5c0 -54 -17.667 -95.5 -53 -124.5s-81 -43.5 -137 -43.5c-67.333 0 -115.166 14.333 -143.499 43
s-45.166 68.334 -50.499 119.001l98 12c3.33301 -28 12 -49.667 26 -65s37 -23 69 -23c30.667 0.666992 53.5 7.16699 68.5 19.5s22.5 32.166 22.5 59.499c0 25.333 -8.5 43.5 -25.5 54.5s-44.167 20.833 -81.5 29.5c-14 3.33301 -25.667 6.5 -35 9.5
s-22.166 8.33301 -38.499 16s-29.5 16.167 -39.5 25.5s-18.833 22 -26.5 38s-11.5 34 -11.5 54c0 26.667 4.16699 49.667 12.5 69s21 35 38 47s29.833 20.167 38.5 24.5s22 9.83301 40 16.5c29.333 11.333 50 23.333 62 36s18 32 18 58c0 63.333 -44.667 95 -134 95
c-36 0 -65.333 -4.83301 -88 -14.5s-39.334 -24.667 -50.001 -45s-17.667 -41 -21 -62s-5 -47.833 -5 -80.5v-524h-95v530c0 98 19.5 169.5 58.5 214.5s105.833 67.5 200.5 67.5z" />
    <glyph glyph-name="agrave" unicode="&#xe0;" horiz-adv-x="581" 
d="M289 459c-40 0.666992 -69.167 -6.50098 -87.5 -21.501s-30.5 -37.833 -36.5 -68.5l-99 14c8 50.667 28.833 89.834 62.5 117.501s86.5 41.5 158.5 41.5c73.333 0 130 -16.167 170 -48.5s60 -80.833 60 -145.5v-216l7 -132h-87l-12 76c-18 -28 -44.333 -49.667 -79 -65
s-72 -23 -112 -23c-64 0 -111.667 13.833 -143 41.5s-47 66.167 -47 115.5c0 52 17.333 90 52 114s86 41 154 51l172 25v20c0 36 -11 62 -33 78s-55.333 24.667 -100 26zM144 147.999c0 -50.667 32 -76.001 96 -76.001c46 -0.666992 86.333 12.333 121 39s55 56 61 88v62
l-163 -26c-38.667 -6 -67.5 -15.167 -86.5 -27.5s-28.5 -32.166 -28.5 -59.499zM135 799.998h112l94 -208h-95z" />
    <glyph glyph-name="aacute" unicode="&#xe1;" horiz-adv-x="581" 
d="M289 459c-40 0.666992 -69.167 -6.50098 -87.5 -21.501s-30.5 -37.833 -36.5 -68.5l-99 14c8 50.667 28.833 89.834 62.5 117.501s86.5 41.5 158.5 41.5c73.333 0 130 -16.167 170 -48.5s60 -80.833 60 -145.5v-216l7 -132h-87l-12 76c-18 -28 -44.333 -49.667 -79 -65
s-72 -23 -112 -23c-64 0 -111.667 13.833 -143 41.5s-47 66.167 -47 115.5c0 52 17.333 90 52 114s86 41 154 51l172 25v20c0 36 -11 62 -33 78s-55.333 24.667 -100 26zM144 147.999c0 -50.667 32 -76.001 96 -76.001c46 -0.666992 86.333 12.333 121 39s55 56 61 88v62
l-163 -26c-38.667 -6 -67.5 -15.167 -86.5 -27.5s-28.5 -32.166 -28.5 -59.499zM334 799.998h112l-111 -208h-95z" />
    <glyph glyph-name="acircumflex" unicode="&#xe2;" horiz-adv-x="581" 
d="M289 459c-40 0.666992 -69.167 -6.50098 -87.5 -21.501s-30.5 -37.833 -36.5 -68.5l-99 14c8 50.667 28.833 89.834 62.5 117.501s86.5 41.5 158.5 41.5c73.333 0 130 -16.167 170 -48.5s60 -80.833 60 -145.5v-216l7 -132h-87l-12 76c-18 -28 -44.333 -49.667 -79 -65
s-72 -23 -112 -23c-64 0 -111.667 13.833 -143 41.5s-47 66.167 -47 115.5c0 52 17.333 90 52 114s86 41 154 51l172 25v20c0 36 -11 62 -33 78s-55.333 24.667 -100 26zM144 147.999c0 -50.667 32 -76.001 96 -76.001c46 -0.666992 86.333 12.333 121 39s55 56 61 88v62
l-163 -26c-38.667 -6 -67.5 -15.167 -86.5 -27.5s-28.5 -32.166 -28.5 -59.499zM241 799.998h92l152 -208h-97l-101 127l-101 -127h-97z" />
    <glyph glyph-name="atilde" unicode="&#xe3;" horiz-adv-x="581" 
d="M289 459c-40 0.666992 -69.167 -6.50098 -87.5 -21.501s-30.5 -37.833 -36.5 -68.5l-99 14c8 50.667 28.833 89.834 62.5 117.501s86.5 41.5 158.5 41.5c73.333 0 130 -16.167 170 -48.5s60 -80.833 60 -145.5v-216l7 -132h-87l-12 76c-18 -28 -44.333 -49.667 -79 -65
s-72 -23 -112 -23c-64 0 -111.667 13.833 -143 41.5s-47 66.167 -47 115.5c0 52 17.333 90 52 114s86 41 154 51l172 25v20c0 36 -11 62 -33 78s-55.333 24.667 -100 26zM144 147.999c0 -50.667 32 -76.001 96 -76.001c46 -0.666992 86.333 12.333 121 39s55 56 61 88v62
l-163 -26c-38.667 -6 -67.5 -15.167 -86.5 -27.5s-28.5 -32.166 -28.5 -59.499zM196 695.998c-28.667 0 -46 -18 -52 -54l-76 11c12 83.333 56.333 125 133 125c25.333 0 48 -6.66699 68 -20s37.833 -26.666 53.5 -39.999s30.167 -20 43.5 -20c28.667 0 46 18 52 54l76 -11
c-12 -83.333 -56.333 -125 -133 -125c-25.333 0 -48 6.66699 -68 20s-37.833 26.666 -53.5 39.999s-30.167 20 -43.5 20z" />
    <glyph glyph-name="adieresis" unicode="&#xe4;" horiz-adv-x="581" 
d="M289 459c-40 0.666992 -69.167 -6.50098 -87.5 -21.501s-30.5 -37.833 -36.5 -68.5l-99 14c8 50.667 28.833 89.834 62.5 117.501s86.5 41.5 158.5 41.5c73.333 0 130 -16.167 170 -48.5s60 -80.833 60 -145.5v-216l7 -132h-87l-12 76c-18 -28 -44.333 -49.667 -79 -65
s-72 -23 -112 -23c-64 0 -111.667 13.833 -143 41.5s-47 66.167 -47 115.5c0 52 17.333 90 52 114s86 41 154 51l172 25v20c0 36 -11 62 -33 78s-55.333 24.667 -100 26zM144 147.999c0 -50.667 32 -76.001 96 -76.001c46 -0.666992 86.333 12.333 121 39s55 56 61 88v62
l-163 -26c-38.667 -6 -67.5 -15.167 -86.5 -27.5s-28.5 -32.166 -28.5 -59.499zM243 749.998v-111h-112v111h112zM443 749.998v-111h-112v111h112z" />
    <glyph glyph-name="aring" unicode="&#xe5;" horiz-adv-x="581" 
d="M289 459c-40 0.666992 -69.167 -6.50098 -87.5 -21.501s-30.5 -37.833 -36.5 -68.5l-99 14c8 50.667 28.833 89.834 62.5 117.501s86.5 41.5 158.5 41.5c73.333 0 130 -16.167 170 -48.5s60 -80.833 60 -145.5v-216l7 -132h-87l-12 76c-18 -28 -44.333 -49.667 -79 -65
s-72 -23 -112 -23c-64 0 -111.667 13.833 -143 41.5s-47 66.167 -47 115.5c0 52 17.333 90 52 114s86 41 154 51l172 25v20c0 36 -11 62 -33 78s-55.333 24.667 -100 26zM144 147.999c0 -50.667 32 -76.001 96 -76.001c46 -0.666992 86.333 12.333 121 39s55 56 61 88v62
l-163 -26c-38.667 -6 -67.5 -15.167 -86.5 -27.5s-28.5 -32.166 -28.5 -59.499zM171 695.998c0 34 10.333 61.833 31 83.5s49 32.5 85 32.5s64.333 -10.833 85 -32.5s31 -49.5 31 -83.5s-10.333 -61.833 -31 -83.5s-49 -32.5 -85 -32.5s-64.333 10.833 -85 32.5
s-31 49.5 -31 83.5zM334 695.998c0 14.667 -4.16699 26.334 -12.5 35.001s-19.833 13 -34.5 13s-26.167 -4.33301 -34.5 -13s-12.5 -20.334 -12.5 -35.001s4.16699 -26.334 12.5 -35.001s19.833 -13 34.5 -13s26.167 4.33301 34.5 13s12.5 20.334 12.5 35.001z" />
    <glyph glyph-name="ae" unicode="&#xe6;" horiz-adv-x="960" 
d="M147 148c0 -50.667 32 -75.999 96 -75.999c48 -0.666992 89 12.666 123 39.999s52.667 57 56 89v25h-155c-80 0 -120 -26 -120 -78zM677 -11.999c-98 0 -167.664 35.665 -208.997 106.998c-50 -71.333 -127.333 -107 -232 -107c-64.667 0 -112.834 13.833 -144.501 41.5
s-47.5 66.167 -47.5 115.5c0 54 20.167 94.5 60.5 121.5s93.833 40.5 160.5 40.5h157v45c0 38 -10.833 65 -32.5 81s-55.167 24.667 -100.5 26c-39.333 0.666992 -68.333 -6.5 -87 -21.5s-31 -37.833 -37 -68.5l-99 14c8 50.667 28.833 89.834 62.5 117.501
s86.5 41.5 158.5 41.5c95.333 0 159.666 -28.333 192.999 -85c43.333 56.667 108 85 194 85c79.333 0 138.833 -23.667 178.5 -71s59.5 -115.666 59.5 -204.999v-40h-390c6.66699 -102.667 58 -154 154 -154c76 -2 120 26 132 84l100 -12
c-6.66699 -46 -28.834 -83.5 -66.501 -112.5s-92.5 -43.5 -164.5 -43.5zM675.003 458.999c-44.667 0 -80.335 -12.665 -107.002 -37.998s-41.667 -63.333 -45 -114h286c-1.33301 49.333 -13.166 87.166 -35.499 113.499s-55.166 39.166 -98.499 38.499z" />
    <glyph glyph-name="ccedilla" unicode="&#xe7;" horiz-adv-x="562" 
d="M138 265c0 -60.667 13.668 -107.496 41.001 -140.496s65 -50.167 113 -51.5c74.667 -0.666992 118.334 29.666 131.001 90.999l99 -12c-16 -100.667 -81.667 -155 -197 -163l-7 -24c59.333 -14 89 -44.333 89 -91c0 -28.667 -11.333 -50.167 -34 -64.5
s-52 -21.5 -88 -21.5c-37.333 0 -68 6 -92 18l17 53c17.333 -9.33301 35.666 -14 54.999 -14c37.333 0 56 10 56 30c0 26.667 -29 43 -87 49l22 66c-67.333 7.33301 -119.5 34.666 -156.5 81.999s-55.5 111.666 -55.5 192.999c0 88 21.833 156.167 65.5 204.5
s104.5 72.5 182.5 72.5c136 0 212.667 -54.667 230 -164l-99 -12c-12.667 61.333 -56.334 91.666 -131.001 90.999c-48 -1.33301 -85.667 -18.5 -113 -51.5s-41 -79.833 -41 -140.5z" />
    <glyph glyph-name="egrave" unicode="&#xe8;" horiz-adv-x="582" 
d="M534 226l-389.997 -0.000976562c6.66699 -102.667 58 -154 154 -154c76 -2 120 26 132 84l100 -12c-6.66699 -46 -28.834 -83.5 -66.501 -112.5s-92.5 -43.5 -164.5 -43.5c-80.667 0 -143.334 23.5 -188.001 70.5s-67 115.833 -67 206.5s22.167 159.5 66.5 206.5
s106.166 70.5 185.499 70.5s138.833 -23.667 178.5 -71s59.5 -115.666 59.5 -204.999v-40zM297.003 458.999c-44.667 0 -80.335 -12.665 -107.002 -37.998s-41.667 -63.333 -45 -114h286c-1.33301 49.333 -13.166 87.166 -35.499 113.499s-55.166 39.166 -98.499 38.499z
M144.002 800.001h112l94 -208h-95z" />
    <glyph glyph-name="eacute" unicode="&#xe9;" horiz-adv-x="582" 
d="M534 226l-389.997 -0.000976562c6.66699 -102.667 58 -154 154 -154c76 -2 120 26 132 84l100 -12c-6.66699 -46 -28.834 -83.5 -66.501 -112.5s-92.5 -43.5 -164.5 -43.5c-80.667 0 -143.334 23.5 -188.001 70.5s-67 115.833 -67 206.5s22.167 159.5 66.5 206.5
s106.166 70.5 185.499 70.5s138.833 -23.667 178.5 -71s59.5 -115.666 59.5 -204.999v-40zM297.003 458.999c-44.667 0 -80.335 -12.665 -107.002 -37.998s-41.667 -63.333 -45 -114h286c-1.33301 49.333 -13.166 87.166 -35.499 113.499s-55.166 39.166 -98.499 38.499z
M343.002 800.001h112l-111 -208h-95z" />
    <glyph glyph-name="ecircumflex" unicode="&#xea;" horiz-adv-x="582" 
d="M534 226l-389.997 -0.000976562c6.66699 -102.667 58 -154 154 -154c76 -2 120 26 132 84l100 -12c-6.66699 -46 -28.834 -83.5 -66.501 -112.5s-92.5 -43.5 -164.5 -43.5c-80.667 0 -143.334 23.5 -188.001 70.5s-67 115.833 -67 206.5s22.167 159.5 66.5 206.5
s106.166 70.5 185.499 70.5s138.833 -23.667 178.5 -71s59.5 -115.666 59.5 -204.999v-40zM297.003 458.999c-44.667 0 -80.335 -12.665 -107.002 -37.998s-41.667 -63.333 -45 -114h286c-1.33301 49.333 -13.166 87.166 -35.499 113.499s-55.166 39.166 -98.499 38.499z
M250.002 800.001h92l152 -208h-97l-101 127l-101 -127h-97z" />
    <glyph glyph-name="edieresis" unicode="&#xeb;" horiz-adv-x="582" 
d="M534 226l-389.997 -0.000976562c6.66699 -102.667 58 -154 154 -154c76 -2 120 26 132 84l100 -12c-6.66699 -46 -28.834 -83.5 -66.501 -112.5s-92.5 -43.5 -164.5 -43.5c-80.667 0 -143.334 23.5 -188.001 70.5s-67 115.833 -67 206.5s22.167 159.5 66.5 206.5
s106.166 70.5 185.499 70.5s138.833 -23.667 178.5 -71s59.5 -115.666 59.5 -204.999v-40zM297.003 458.999c-44.667 0 -80.335 -12.665 -107.002 -37.998s-41.667 -63.333 -45 -114h286c-1.33301 49.333 -13.166 87.166 -35.499 113.499s-55.166 39.166 -98.499 38.499z
M252.002 750.001v-111h-112v111h112zM452.002 750.001v-111h-112v111h112z" />
    <glyph glyph-name="igrave" unicode="&#xec;" horiz-adv-x="258" 
d="M81 0v530h96v-530h-96zM-23 800h112l94 -208h-95z" />
    <glyph glyph-name="iacute" unicode="&#xed;" horiz-adv-x="258" 
d="M81 0v530h96v-530h-96zM176 800h112l-111 -208h-95z" />
    <glyph glyph-name="icircumflex" unicode="&#xee;" horiz-adv-x="258" 
d="M81 0v530h96v-530h-96zM83 800h92l152 -208h-97l-101 127l-101 -127h-97z" />
    <glyph glyph-name="idieresis" unicode="&#xef;" horiz-adv-x="258" 
d="M81 0v530h96v-530h-96zM85 750v-111h-112v111h112zM285 750v-111h-112v111h112z" />
    <glyph glyph-name="eth" unicode="&#xf0;" horiz-adv-x="589" 
d="M484 715l-77.001 -29.001c91.333 -98.667 137 -239 137 -421c0 -90.667 -22 -159.5 -66 -206.5s-105.333 -70.5 -184 -70.5s-140 23.5 -184 70.5s-66 115.833 -66 206.5s21.833 159.5 65.5 206.5s104.834 70.5 183.501 70.5c46 0 85.667 -12.333 119 -37
c-17.333 54.667 -47.666 104.334 -90.999 149.001l-169 -63v69l115 43c-43.333 32.667 -103 65 -179 97h165c37.333 -18 71.666 -39.333 102.999 -64l128 48v-69zM293.999 453.999c-101.333 0 -152 -63 -152 -189c0 -126.667 50.667 -190 152 -190
c102.667 0 154 63.333 154 190c0 126 -51.333 189 -154 189z" />
    <glyph glyph-name="ntilde" unicode="&#xf1;" horiz-adv-x="587" 
d="M145 530l11.999 -75.001c18 26.667 42 47.834 72 63.501s63 23.5 99 23.5c60.667 0 109.834 -15.667 147.501 -47s56.5 -75.333 56.5 -132v-363h-96v346c0 34 -11 60.333 -33 79s-51.667 28 -89 28c-40.667 0 -75.5 -13.167 -104.5 -39.5s-45.5 -54.833 -49.5 -85.5v-328
h-95v399l-7 131h87zM221.999 695.999c-28.667 0 -46 -18 -52 -54l-76 11c12 83.333 56.333 125 133 125c25.333 0 48 -6.66699 68 -20s37.833 -26.666 53.5 -39.999s30.167 -20 43.5 -20c28.667 0 46 18 52 54l76 -11c-12 -83.333 -56.333 -125 -133 -125
c-25.333 0 -48 6.66699 -68 20s-37.833 26.666 -53.5 39.999s-30.167 20 -43.5 20z" />
    <glyph glyph-name="ograve" unicode="&#xf2;" horiz-adv-x="590" 
d="M143 800h112l94 -208h-95zM295 74c48 0 85.667 15.5 113 46.5s41 79.167 41 144.5s-13.667 113.5 -41 144.5s-65 46.5 -113 46.5s-85.667 -15.5 -113 -46.5s-41 -79.167 -41 -144.5s13.667 -113.5 41 -144.5s65 -46.5 113 -46.5zM295 -12c-78.667 0 -140 23.5 -184 70.5
s-66 115.833 -66 206.5s22 159.5 66 206.5s105.333 70.5 184 70.5s140 -23.5 184 -70.5s66 -115.833 66 -206.5s-22 -159.5 -66 -206.5s-105.333 -70.5 -184 -70.5z" />
    <glyph glyph-name="oacute" unicode="&#xf3;" horiz-adv-x="590" 
d="M342 800h112l-111 -208h-95zM295 74c48 0 85.667 15.5 113 46.5s41 79.167 41 144.5s-13.667 113.5 -41 144.5s-65 46.5 -113 46.5s-85.667 -15.5 -113 -46.5s-41 -79.167 -41 -144.5s13.667 -113.5 41 -144.5s65 -46.5 113 -46.5zM295 -12
c-78.667 0 -140 23.5 -184 70.5s-66 115.833 -66 206.5s22 159.5 66 206.5s105.333 70.5 184 70.5s140 -23.5 184 -70.5s66 -115.833 66 -206.5s-22 -159.5 -66 -206.5s-105.333 -70.5 -184 -70.5z" />
    <glyph glyph-name="ocircumflex" unicode="&#xf4;" horiz-adv-x="590" 
d="M249 800h92l152 -208h-97l-101 127l-101 -127h-97zM295 74c48 0 85.667 15.5 113 46.5s41 79.167 41 144.5s-13.667 113.5 -41 144.5s-65 46.5 -113 46.5s-85.667 -15.5 -113 -46.5s-41 -79.167 -41 -144.5s13.667 -113.5 41 -144.5s65 -46.5 113 -46.5zM295 -12
c-78.667 0 -140 23.5 -184 70.5s-66 115.833 -66 206.5s22 159.5 66 206.5s105.333 70.5 184 70.5s140 -23.5 184 -70.5s66 -115.833 66 -206.5s-22 -159.5 -66 -206.5s-105.333 -70.5 -184 -70.5z" />
    <glyph glyph-name="otilde" unicode="&#xf5;" horiz-adv-x="590" 
d="M295 74c48 0 85.667 15.5 113 46.5s41 79.167 41 144.5s-13.667 113.5 -41 144.5s-65 46.5 -113 46.5s-85.667 -15.5 -113 -46.5s-41 -79.167 -41 -144.5s13.667 -113.5 41 -144.5s65 -46.5 113 -46.5zM295 -12c-78.667 0 -140 23.5 -184 70.5s-66 115.833 -66 206.5
s22 159.5 66 206.5s105.333 70.5 184 70.5s140 -23.5 184 -70.5s66 -115.833 66 -206.5s-22 -159.5 -66 -206.5s-105.333 -70.5 -184 -70.5zM215 696c-28.667 0 -46 -18 -52 -54l-76 11c12 83.333 56.333 125 133 125c25.333 0 48 -6.66699 68 -20
s37.833 -26.666 53.5 -39.999s30.167 -20 43.5 -20c28.667 0 46 18 52 54l76 -11c-12 -83.333 -56.333 -125 -133 -125c-25.333 0 -48 6.66699 -68 20s-37.833 26.666 -53.5 39.999s-30.167 20 -43.5 20z" />
    <glyph glyph-name="odieresis" unicode="&#xf6;" horiz-adv-x="590" 
d="M251 750v-111h-112v111h112zM451 750v-111h-112v111h112zM295 74c48 0 85.667 15.5 113 46.5s41 79.167 41 144.5s-13.667 113.5 -41 144.5s-65 46.5 -113 46.5s-85.667 -15.5 -113 -46.5s-41 -79.167 -41 -144.5s13.667 -113.5 41 -144.5s65 -46.5 113 -46.5zM295 -12
c-78.667 0 -140 23.5 -184 70.5s-66 115.833 -66 206.5s22 159.5 66 206.5s105.333 70.5 184 70.5s140 -23.5 184 -70.5s66 -115.833 66 -206.5s-22 -159.5 -66 -206.5s-105.333 -70.5 -184 -70.5z" />
    <glyph glyph-name="divide" unicode="&#xf7;" 
d="M620 343h-540v94h540v-94zM407 235v-115h-114v115h114zM407 660v-115h-114v115h114z" />
    <glyph glyph-name="oslash" unicode="&#xf8;" horiz-adv-x="590" 
d="M295 74c48 0 85.667 15.5 113 46.5s41 79.167 41 144.5c0 54.667 -10 97.667 -30 129l-204 -301c21.333 -12.667 48 -19 80 -19zM545 265c0 -90.667 -22 -159.5 -66 -206.5s-105.333 -70.5 -184 -70.5c-50 0 -93.667 10 -131 30l-12 -18h-73l37 54
c-47.333 47.333 -71 117.666 -71 210.999c0 90.667 22 159.5 66 206.5s105.333 70.5 184 70.5c50 0 93.667 -10 131 -30l12 18h73l-37 -54c47.333 -47.333 71 -117.666 71 -210.999zM295 456c-48 0 -85.667 -15.5 -113 -46.5s-41 -79.167 -41 -144.5
c0 -54.667 10 -97.667 30 -129l204 301c-21.333 12.667 -48 19 -80 19z" />
    <glyph glyph-name="ugrave" unicode="&#xf9;" horiz-adv-x="587" 
d="M443 0l-11.999 75.001c-18 -26.667 -42 -47.834 -72 -63.501s-63 -23.5 -99 -23.5c-60.667 0 -109.834 15.667 -147.501 47s-56.5 75.333 -56.5 132v363h96v-346c0 -34 11 -60.333 33 -79s51.667 -28 89 -28c40.667 0 75.5 13.167 104.5 39.5s45.5 54.833 49.5 85.5v328
h95v-399l7 -131h-87zM136.001 800.001h112l94 -208h-95z" />
    <glyph glyph-name="uacute" unicode="&#xfa;" horiz-adv-x="587" 
d="M443 0l-11.999 75.001c-18 -26.667 -42 -47.834 -72 -63.501s-63 -23.5 -99 -23.5c-60.667 0 -109.834 15.667 -147.501 47s-56.5 75.333 -56.5 132v363h96v-346c0 -34 11 -60.333 33 -79s51.667 -28 89 -28c40.667 0 75.5 13.167 104.5 39.5s45.5 54.833 49.5 85.5v328
h95v-399l7 -131h-87zM335.001 800.001h112l-111 -208h-95z" />
    <glyph glyph-name="ucircumflex" unicode="&#xfb;" horiz-adv-x="587" 
d="M443 0l-11.999 75.001c-18 -26.667 -42 -47.834 -72 -63.501s-63 -23.5 -99 -23.5c-60.667 0 -109.834 15.667 -147.501 47s-56.5 75.333 -56.5 132v363h96v-346c0 -34 11 -60.333 33 -79s51.667 -28 89 -28c40.667 0 75.5 13.167 104.5 39.5s45.5 54.833 49.5 85.5v328
h95v-399l7 -131h-87zM242.001 800.001h92l152 -208h-97l-101 127l-101 -127h-97z" />
    <glyph glyph-name="udieresis" unicode="&#xfc;" horiz-adv-x="587" 
d="M443 0l-11.999 75.001c-18 -26.667 -42 -47.834 -72 -63.501s-63 -23.5 -99 -23.5c-60.667 0 -109.834 15.667 -147.501 47s-56.5 75.333 -56.5 132v363h96v-346c0 -34 11 -60.333 33 -79s51.667 -28 89 -28c40.667 0 75.5 13.167 104.5 39.5s45.5 54.833 49.5 85.5v328
h95v-399l7 -131h-87zM244.001 750.001v-111h-112v111h112zM444.001 750.001v-111h-112v111h112z" />
    <glyph glyph-name="yacute" unicode="&#xfd;" horiz-adv-x="562" 
d="M550 530l-215 -495l-96 -235h-110l102 226l-219 504h108l109 -274l52 -131l51 131l110 274h108zM328 800h112l-111 -208h-95z" />
    <glyph glyph-name="thorn" unicode="&#xfe;" horiz-adv-x="611" 
d="M567 265c0 -88.667 -20.667 -157 -62 -205s-100.333 -72 -177 -72c-35.333 0 -67.833 7.5 -97.5 22.5s-53.167 35.167 -70.5 60.5v-271h-95v1000h95v-341c17.333 25.333 40.833 45.5 70.5 60.5s62.167 22.5 97.5 22.5c76.667 0 135.667 -24 177 -72s62 -116.333 62 -205z
M160 328v-126c4.66699 -31.333 21.5 -60 50.5 -86s65.167 -39 108.5 -39c46 0 82.333 16.333 109 49s40 79 40 139s-13.333 106.333 -40 139s-63 49 -109 49c-43.333 0 -79.5 -13 -108.5 -39s-45.833 -54.667 -50.5 -86z" />
    <glyph glyph-name="ydieresis" unicode="&#xff;" horiz-adv-x="562" 
d="M550 530l-215 -495l-96 -235h-110l102 226l-219 504h108l109 -274l52 -131l51 131l110 274h108zM237 750v-111h-112v111h112zM437 750v-111h-112v111h112z" />
    <glyph glyph-name="Amacron" unicode="&#x100;" horiz-adv-x="726" 
d="M219 881v90h288v-90h-288zM13 0l301 791h98l301 -791h-108l-83 225h-318l-83 -225h-108zM490 313l-127 351l-127 -351h254z" />
    <glyph glyph-name="amacron" unicode="&#x101;" horiz-adv-x="581" 
d="M289 459c-40 0.666992 -69.167 -6.50098 -87.5 -21.501s-30.5 -37.833 -36.5 -68.5l-99 14c8 50.667 28.833 89.834 62.5 117.501s86.5 41.5 158.5 41.5c73.333 0 130 -16.167 170 -48.5s60 -80.833 60 -145.5v-216l7 -132h-87l-12 76c-18 -28 -44.333 -49.667 -79 -65
s-72 -23 -112 -23c-64 0 -111.667 13.833 -143 41.5s-47 66.167 -47 115.5c0 52 17.333 90 52 114s86 41 154 51l172 25v20c0 36 -11 62 -33 78s-55.333 24.667 -100 26zM144 147.999c0 -50.667 32 -76.001 96 -76.001c46 -0.666992 86.333 12.333 121 39s55 56 61 88v62
l-163 -26c-38.667 -6 -67.5 -15.167 -86.5 -27.5s-28.5 -32.166 -28.5 -59.499zM431 651.998h-288v90h288v-90z" />
    <glyph glyph-name="Abreve" unicode="&#x102;" horiz-adv-x="726" 
d="M13 0l301 791h98l301 -791h-108l-83 225h-318l-83 -225h-108zM490 313l-127 351l-127 -351h254zM363 825c-68 0 -116.333 17.167 -145 51.5s-42.667 85.5 -42 153.5h78c-0.666992 -44 7.5 -75.167 24.5 -93.5s45.167 -27.5 84.5 -27.5s67.5 9.16699 84.5 27.5
s25.167 49.5 24.5 93.5h78c0.666992 -68 -13.333 -119.167 -42 -153.5s-77 -51.5 -145 -51.5z" />
    <glyph glyph-name="abreve" unicode="&#x103;" horiz-adv-x="581" 
d="M289 459c-40 0.666992 -69.167 -6.50098 -87.5 -21.501s-30.5 -37.833 -36.5 -68.5l-99 14c8 50.667 28.833 89.834 62.5 117.501s86.5 41.5 158.5 41.5c73.333 0 130 -16.167 170 -48.5s60 -80.833 60 -145.5v-216l7 -132h-87l-12 76c-18 -28 -44.333 -49.667 -79 -65
s-72 -23 -112 -23c-64 0 -111.667 13.833 -143 41.5s-47 66.167 -47 115.5c0 52 17.333 90 52 114s86 41 154 51l172 25v20c0 36 -11 62 -33 78s-55.333 24.667 -100 26zM144 147.999c0 -50.667 32 -76.001 96 -76.001c46 -0.666992 86.333 12.333 121 39s55 56 61 88v62
l-163 -26c-38.667 -6 -67.5 -15.167 -86.5 -27.5s-28.5 -32.166 -28.5 -59.499zM287 594.998c-68 0 -116.333 17.167 -145 51.5s-42.667 85.5 -42 153.5h78c-0.666992 -44 7.5 -75.167 24.5 -93.5s45.167 -27.5 84.5 -27.5s67.5 9.16699 84.5 27.5s25.167 49.5 24.5 93.5h78
c0.666992 -68 -13.333 -119.167 -42 -153.5s-77 -51.5 -145 -51.5z" />
    <glyph glyph-name="Aogonek" unicode="&#x104;" horiz-adv-x="726" 
d="M13 0l301 790.999h98l301 -791c-34 -4 -63.5 -15.667 -88.5 -35s-37.5 -40.333 -37.5 -63c0 -26.667 15.333 -40 46 -40c5.33301 0 11.333 0.666992 18 2s13 2.83301 19 4.5s11.5 3.33398 16.5 5.00098s8.83301 3.16699 11.5 4.5s4 2.33301 4 3l22 -67
c-26.667 -16.667 -60.667 -25 -102 -25c-34 0 -62 8.5 -84 25.5s-33 43.167 -33 78.5c0 52 30.333 95.667 91 131l-74 201h-318l-83 -225h-108zM490 312.999l-127 351l-127 -351h254z" />
    <glyph glyph-name="aogonek" unicode="&#x105;" horiz-adv-x="581" 
d="M144 148c0 -50.667 32.002 -76.001 96.002 -76.001c45.333 0 85.666 13.5 120.999 40.5s55.666 55.833 60.999 86.5v62l-163 -26c-38.667 -6 -67.5 -15.167 -86.5 -27.5s-28.5 -32.166 -28.5 -59.499zM433.002 22.999l-9.99902 63.9971
c-16.667 -31.333 -42.334 -55.666 -77.001 -72.999s-72 -26 -112 -26c-64 0 -111.667 13.833 -143 41.5s-47 66.167 -47 115.5c0 52 17.333 90 52 114s86 41 154 51l172 25v20c0 36 -11 62 -33 78s-55.333 24.667 -100 26c-40 0.666992 -69.167 -6.5 -87.5 -21.5
s-30.5 -37.833 -36.5 -68.5l-99 14c8 50.667 28.833 89.834 62.5 117.501s86.5 41.5 158.5 41.5c73.333 0 130 -16.167 170 -48.5s60 -80.833 60 -145.5v-216l7 -132c-32 -10 -56 -23.667 -72 -41s-24 -35.666 -24 -54.999c0 -28.667 15.333 -43 46 -43
c22 0 45 5.66699 69 17l22 -65c-26.667 -16.667 -60.667 -25 -102 -25c-34 0 -62 8.5 -84 25.5s-33 43.167 -33 78.5c0 51.333 29 95 87 131z" />
    <glyph glyph-name="Cacute" unicode="&#x106;" horiz-adv-x="757" 
d="M60 390c0 126.667 28 225.332 84 295.999s141.333 106 256 106c93.333 0 165.166 -19.5 215.499 -58.5s79.833 -92.5 88.5 -160.5l-102 -11c-7.33301 48 -27.333 83.167 -60 105.5s-80 33.5 -142 33.5c-158 0 -237 -103.667 -237 -311s79 -311 237 -311
c62 0 109.333 11.167 142 33.5s52.667 57.5 60 105.5l102 -11c-8.66699 -68 -38.167 -121.5 -88.5 -160.5s-122.166 -58.5 -215.499 -58.5c-114.667 0 -200 35.333 -256 106s-84 169.334 -84 296.001zM438 1030h112l-111 -208h-95z" />
    <glyph glyph-name="cacute" unicode="&#x107;" horiz-adv-x="562" 
d="M339 800h112l-111 -208h-95zM138 265c0 -60.667 13.667 -107.498 41 -140.498s65 -50.167 113 -51.5c74.667 -0.666992 118.334 29.666 131.001 90.999l99 -12c-17.333 -109.333 -94 -164 -230 -164c-78 0 -138.833 24.167 -182.5 72.5s-65.5 116.5 -65.5 204.5
s21.833 156.167 65.5 204.5s104.5 72.5 182.5 72.5c136 0 212.667 -54.667 230 -164l-99 -12c-12.667 61.333 -56.334 91.666 -131.001 90.999c-48 -1.33301 -85.667 -18.5 -113 -51.5s-41 -79.833 -41 -140.5z" />
    <glyph glyph-name="Ccircumflex" unicode="&#x108;" horiz-adv-x="757" 
d="M60 390c0 126.667 28 225.332 84 295.999s141.333 106 256 106c93.333 0 165.166 -19.5 215.499 -58.5s79.833 -92.5 88.5 -160.5l-102 -11c-7.33301 48 -27.333 83.167 -60 105.5s-80 33.5 -142 33.5c-158 0 -237 -103.667 -237 -311s79 -311 237 -311
c62 0 109.333 11.167 142 33.5s52.667 57.5 60 105.5l102 -11c-8.66699 -68 -38.167 -121.5 -88.5 -160.5s-122.166 -58.5 -215.499 -58.5c-114.667 0 -200 35.333 -256 106s-84 169.334 -84 296.001zM345 1030h92l152 -208h-97l-101 127l-101 -127h-97z" />
    <glyph glyph-name="ccircumflex" unicode="&#x109;" horiz-adv-x="562" 
d="M246 800h92l152 -208h-97l-101 127l-101 -127h-97zM138 265c0 -60.667 13.667 -107.498 41 -140.498s65 -50.167 113 -51.5c74.667 -0.666992 118.334 29.666 131.001 90.999l99 -12c-17.333 -109.333 -94 -164 -230 -164c-78 0 -138.833 24.167 -182.5 72.5
s-65.5 116.5 -65.5 204.5s21.833 156.167 65.5 204.5s104.5 72.5 182.5 72.5c136 0 212.667 -54.667 230 -164l-99 -12c-12.667 61.333 -56.334 91.666 -131.001 90.999c-48 -1.33301 -85.667 -18.5 -113 -51.5s-41 -79.833 -41 -140.5z" />
    <glyph glyph-name="Cdotaccent" unicode="&#x10a;" horiz-adv-x="757" 
d="M60 390c0 126.667 28 225.332 84 295.999s141.333 106 256 106c93.333 0 165.166 -19.5 215.499 -58.5s79.833 -92.5 88.5 -160.5l-102 -11c-7.33301 48 -27.333 83.167 -60 105.5s-80 33.5 -142 33.5c-158 0 -237 -103.667 -237 -311s79 -311 237 -311
c62 0 109.333 11.167 142 33.5s52.667 57.5 60 105.5l102 -11c-8.66699 -68 -38.167 -121.5 -88.5 -160.5s-122.166 -58.5 -215.499 -58.5c-114.667 0 -200 35.333 -256 106s-84 169.334 -84 296.001zM447 979.998v-111h-112v111h112z" />
    <glyph glyph-name="cdotaccent" unicode="&#x10b;" horiz-adv-x="562" 
d="M348 750v-111h-112v111h112zM138 265c0 -60.667 13.667 -107.498 41 -140.498s65 -50.167 113 -51.5c74.667 -0.666992 118.334 29.666 131.001 90.999l99 -12c-17.333 -109.333 -94 -164 -230 -164c-78 0 -138.833 24.167 -182.5 72.5s-65.5 116.5 -65.5 204.5
s21.833 156.167 65.5 204.5s104.5 72.5 182.5 72.5c136 0 212.667 -54.667 230 -164l-99 -12c-12.667 61.333 -56.334 91.666 -131.001 90.999c-48 -1.33301 -85.667 -18.5 -113 -51.5s-41 -79.833 -41 -140.5z" />
    <glyph glyph-name="Ccaron" unicode="&#x10c;" horiz-adv-x="757" 
d="M60 390c0 126.667 28 225.332 84 295.999s141.333 106 256 106c93.333 0 165.166 -19.5 215.499 -58.5s79.833 -92.5 88.5 -160.5l-102 -11c-7.33301 48 -27.333 83.167 -60 105.5s-80 33.5 -142 33.5c-158 0 -237 -103.667 -237 -311s79 -311 237 -311
c62 0 109.333 11.167 142 33.5s52.667 57.5 60 105.5l102 -11c-8.66699 -68 -38.167 -121.5 -88.5 -160.5s-122.166 -58.5 -215.499 -58.5c-114.667 0 -200 35.333 -256 106s-84 169.334 -84 296.001zM437 821.998h-92l-152 208h97l101 -127l101 127h97z" />
    <glyph glyph-name="ccaron" unicode="&#x10d;" horiz-adv-x="562" 
d="M338 592h-92l-152 208h97l101 -127l101 127h97zM138 265c0 -60.667 13.667 -107.498 41 -140.498s65 -50.167 113 -51.5c74.667 -0.666992 118.334 29.666 131.001 90.999l99 -12c-17.333 -109.333 -94 -164 -230 -164c-78 0 -138.833 24.167 -182.5 72.5
s-65.5 116.5 -65.5 204.5s21.833 156.167 65.5 204.5s104.5 72.5 182.5 72.5c136 0 212.667 -54.667 230 -164l-99 -12c-12.667 61.333 -56.334 91.666 -131.001 90.999c-48 -1.33301 -85.667 -18.5 -113 -51.5s-41 -79.833 -41 -140.5z" />
    <glyph glyph-name="Dcaron" unicode="&#x10e;" horiz-adv-x="764" 
d="M347 0l-267 0.00195312v780h267c119.333 0 209 -31.833 269 -95.5s90 -161.834 90 -294.501s-30 -230.834 -90 -294.501s-149.667 -95.5 -269 -95.5zM180 92.002h167c90 0 155.167 25.667 195.5 77s60.5 125 60.5 221s-20.167 169.667 -60.5 221s-105.5 77 -195.5 77
h-167v-596zM387 822.002h-92l-152 208h97l101 -127l101 127h97z" />
    <glyph glyph-name="dcaron" unicode="&#x10f;" horiz-adv-x="611" 
d="M283 542c35.333 0 67.833 -7.5 97.5 -22.5s53.167 -35.167 70.5 -60.5v341h95v-668l7 -132h-87l-12 76c-16.667 -27.333 -40.167 -48.833 -70.5 -64.5s-63.833 -23.5 -100.5 -23.5c-76.667 0 -135.667 24 -177 72s-62 116.333 -62 205s20.667 157 62 205
s100.333 72 177 72zM451 202v126c-4.66699 31.333 -21.5 60 -50.5 86s-65.167 39 -108.5 39c-46 0 -82.333 -16.333 -109 -49s-40 -79 -40 -139c0 -60.667 13.333 -107.167 40 -139.5s63 -48.5 109 -48.5c43.333 0 79.5 12.833 108.5 38.5s45.833 54.5 50.5 86.5zM637 800
h108l-69 -208h-86z" />
    <glyph glyph-name="Dcroat" unicode="&#x110;" horiz-adv-x="818" 
d="M401 0l-267 0.00195312v354h-115v91h115v335h267c119.333 0 209 -31.833 269 -95.5s90 -161.834 90 -294.501s-30 -230.834 -90 -294.501s-149.667 -95.5 -269 -95.5zM234 92.002h167c90 0 155.167 25.667 195.5 77s60.5 125 60.5 221s-20.167 169.667 -60.5 221
s-105.5 77 -195.5 77h-167v-243h217v-91h-217v-262z" />
    <glyph glyph-name="dcroat" unicode="&#x111;" horiz-adv-x="631" 
d="M283 542c35.333 0 67.833 -7.5 97.5 -22.5s53.167 -35.167 70.5 -60.5v160h-136v78h136v103h95v-103h103v-78h-103v-487l7 -132h-87l-12 76c-16.667 -27.333 -40.167 -48.833 -70.5 -64.5s-63.833 -23.5 -100.5 -23.5c-76.667 0 -135.667 24 -177 72s-62 116.333 -62 205
s20.667 157 62 205s100.333 72 177 72zM451 202v126c-4.66699 31.333 -21.5 60 -50.5 86s-65.167 39 -108.5 39c-46 0 -82.333 -16.333 -109 -49s-40 -79 -40 -139c0 -60.667 13.333 -107.167 40 -139.5s63 -48.5 109 -48.5c43.333 0 79.5 12.833 108.5 38.5
s45.833 54.5 50.5 86.5z" />
    <glyph glyph-name="Emacron" unicode="&#x112;" horiz-adv-x="693" 
d="M80 780h537v-92h-437v-243h394v-91h-394v-262h457v-92h-557v780zM501 882h-288v90h288v-90z" />
    <glyph glyph-name="emacron" unicode="&#x113;" horiz-adv-x="582" 
d="M534 226l-389.997 -0.000976562c6.66699 -102.667 58 -154 154 -154c76 -2 120 26 132 84l100 -12c-6.66699 -46 -28.834 -83.5 -66.501 -112.5s-92.5 -43.5 -164.5 -43.5c-80.667 0 -143.334 23.5 -188.001 70.5s-67 115.833 -67 206.5s22.167 159.5 66.5 206.5
s106.166 70.5 185.499 70.5s138.833 -23.667 178.5 -71s59.5 -115.666 59.5 -204.999v-40zM297.003 458.999c-44.667 0 -80.335 -12.665 -107.002 -37.998s-41.667 -63.333 -45 -114h286c-1.33301 49.333 -13.166 87.166 -35.499 113.499s-55.166 39.166 -98.499 38.499z
M440.002 652.001h-288v90h288v-90z" />
    <glyph glyph-name="Ebreve" unicode="&#x114;" horiz-adv-x="693" 
d="M80 780h537v-92h-437v-243h394v-91h-394v-262h457v-92h-557v780zM357 825c-68 0 -116.333 17.167 -145 51.5s-42.667 85.5 -42 153.5h78c-0.666992 -44 7.5 -75.167 24.5 -93.5s45.167 -27.5 84.5 -27.5s67.5 9.16699 84.5 27.5s25.167 49.5 24.5 93.5h78
c0.666992 -68 -13.333 -119.167 -42 -153.5s-77 -51.5 -145 -51.5z" />
    <glyph glyph-name="ebreve" unicode="&#x115;" horiz-adv-x="582" 
d="M534 226l-389.997 -0.000976562c6.66699 -102.667 58 -154 154 -154c76 -2 120 26 132 84l100 -12c-6.66699 -46 -28.834 -83.5 -66.501 -112.5s-92.5 -43.5 -164.5 -43.5c-80.667 0 -143.334 23.5 -188.001 70.5s-67 115.833 -67 206.5s22.167 159.5 66.5 206.5
s106.166 70.5 185.499 70.5s138.833 -23.667 178.5 -71s59.5 -115.666 59.5 -204.999v-40zM297.003 458.999c-44.667 0 -80.335 -12.665 -107.002 -37.998s-41.667 -63.333 -45 -114h286c-1.33301 49.333 -13.166 87.166 -35.499 113.499s-55.166 39.166 -98.499 38.499z
M296.002 595.001c-68 0 -116.333 17.167 -145 51.5s-42.667 85.5 -42 153.5h78c-0.666992 -44 7.5 -75.167 24.5 -93.5s45.167 -27.5 84.5 -27.5s67.5 9.16699 84.5 27.5s25.167 49.5 24.5 93.5h78c0.666992 -68 -13.333 -119.167 -42 -153.5s-77 -51.5 -145 -51.5z" />
    <glyph glyph-name="Edotaccent" unicode="&#x116;" horiz-adv-x="693" 
d="M80 780h537v-92h-437v-243h394v-91h-394v-262h457v-92h-557v780zM413 980v-111h-112v111h112z" />
    <glyph glyph-name="edotaccent" unicode="&#x117;" horiz-adv-x="582" 
d="M534 226l-389.997 -0.000976562c6.66699 -102.667 58 -154 154 -154c76 -2 120 26 132 84l100 -12c-6.66699 -46 -28.834 -83.5 -66.501 -112.5s-92.5 -43.5 -164.5 -43.5c-80.667 0 -143.334 23.5 -188.001 70.5s-67 115.833 -67 206.5s22.167 159.5 66.5 206.5
s106.166 70.5 185.499 70.5s138.833 -23.667 178.5 -71s59.5 -115.666 59.5 -204.999v-40zM297.003 458.999c-44.667 0 -80.335 -12.665 -107.002 -37.998s-41.667 -63.333 -45 -114h286c-1.33301 49.333 -13.166 87.166 -35.499 113.499s-55.166 39.166 -98.499 38.499z
M352.002 750.001v-111h-112v111h112z" />
    <glyph glyph-name="Eogonek" unicode="&#x118;" horiz-adv-x="693" 
d="M80 780h537v-92h-437v-243h394v-91h-394v-262h457v-92c-34 -4 -63.5 -15.833 -88.5 -35.5s-37.5 -40.834 -37.5 -63.501c0 -26.667 15.333 -40 46 -40c5.33301 0 11.333 0.666992 18 2s13 2.83301 19 4.5s11.5 3.33398 16.5 5.00098s8.83301 3.16699 11.5 4.5
s4 2.33301 4 3l22 -67c-26.667 -16.667 -60.667 -25 -102 -25c-34 0 -62 8.5 -84 25.5s-33 43.167 -33 78.5c0 40 19.333 76 58 108h-407v780z" />
    <glyph glyph-name="eogonek" unicode="&#x119;" horiz-adv-x="582" 
d="M534 226l-389.999 -0.00195312c6.66699 -102.667 58 -154 154 -154c76 -2 120 26 132 84l100 -12c-4.66699 -33.333 -18 -62.833 -40 -88.5s-53 -44.167 -93 -55.5c-27.333 -7.33301 -49.833 -21 -67.5 -41s-26.5 -39.333 -26.5 -58c0 -26.667 15.333 -40 46 -40
c5.33301 0 11.333 0.666992 18 2s13 2.83301 19 4.5s11.5 3.33398 16.5 5.00098s8.83301 3.16699 11.5 4.5s4 2.33301 4 3l22 -67c-26.667 -16.667 -60.667 -25 -102 -25c-34 0 -62 8.5 -84 25.5s-33 43.167 -33 78.5s15.333 67.666 46 96.999
c-70.667 6 -125.5 32.333 -164.5 79s-58.5 112.334 -58.5 197.001c0 90.667 22.167 159.5 66.5 206.5s106.166 70.5 185.499 70.5s138.833 -23.667 178.5 -71s59.5 -115.666 59.5 -204.999v-40zM297.001 458.998c-44.667 0 -80.335 -12.665 -107.002 -37.998
s-41.667 -63.333 -45 -114h286c-1.33301 49.333 -13.166 87.166 -35.499 113.499s-55.166 39.166 -98.499 38.499z" />
    <glyph glyph-name="Ecaron" unicode="&#x11a;" horiz-adv-x="693" 
d="M80 780h537v-92h-437v-243h394v-91h-394v-262h457v-92h-557v780zM403 822h-92l-152 208h97l101 -127l101 127h97z" />
    <glyph glyph-name="ecaron" unicode="&#x11b;" horiz-adv-x="582" 
d="M534 226l-389.997 -0.000976562c6.66699 -102.667 58 -154 154 -154c76 -2 120 26 132 84l100 -12c-6.66699 -46 -28.834 -83.5 -66.501 -112.5s-92.5 -43.5 -164.5 -43.5c-80.667 0 -143.334 23.5 -188.001 70.5s-67 115.833 -67 206.5s22.167 159.5 66.5 206.5
s106.166 70.5 185.499 70.5s138.833 -23.667 178.5 -71s59.5 -115.666 59.5 -204.999v-40zM297.003 458.999c-44.667 0 -80.335 -12.665 -107.002 -37.998s-41.667 -63.333 -45 -114h286c-1.33301 49.333 -13.166 87.166 -35.499 113.499s-55.166 39.166 -98.499 38.499z
M342.002 592.001h-92l-152 208h97l101 -127l101 127h97z" />
    <glyph glyph-name="Gcircumflex" unicode="&#x11c;" horiz-adv-x="780" 
d="M60 390c0 126.667 28.0029 225.334 84.0029 296.001s141.333 106 256 106c93.333 0 165.166 -19.5 215.499 -58.5s79.833 -92.5 88.5 -160.5l-102 -11c-7.33301 48 -27.333 83.167 -60 105.5s-80 33.5 -142 33.5c-158 0 -237 -103.667 -237 -311
c0 -206.667 79 -310.334 237 -311.001c85.333 0 153.666 16.667 204.999 50v198h-168v87h267v-346c-50 -30.667 -98.167 -51.834 -144.5 -63.501s-99.833 -17.167 -160.5 -16.5c-114.667 0.666992 -199.834 36.334 -255.501 107.001s-83.5 169 -83.5 295zM345.003 1030h92
l152 -208h-97l-101 127l-101 -127h-97z" />
    <glyph glyph-name="gcircumflex" unicode="&#x11d;" horiz-adv-x="611" 
d="M546 398l0.00195312 -410.001c0 -64.667 -22.833 -114.167 -68.5 -148.5s-107.167 -51.5 -184.5 -51.5c-81.333 0 -140.333 13.833 -177 41.5s-58 66.834 -64 117.501l100 14c10 -62 56 -92 138 -90c107.333 1.33301 161 39 161 113v111
c-16.667 -25.333 -39.834 -45.5 -69.501 -60.5s-62.834 -22.5 -99.501 -22.5c-74.667 0 -133 22.5 -175 67.5s-63 110.833 -63 197.5s21 152.5 63 197.5s100.333 67.5 175 67.5c38 0 72 -7.83301 102 -23.5s53.333 -37.167 70 -64.5l12 76h87zM451.002 225.999v102
c-4.66699 32 -21.5 60.833 -50.5 86.5s-64.833 38.5 -107.5 38.5c-47.333 0 -84 -14.5 -110 -43.5s-39 -73.167 -39 -132.5s13 -103.5 39 -132.5s62.667 -43.5 110 -43.5c42.667 0 78.5 12.833 107.5 38.5s45.833 54.5 50.5 86.5zM246.002 799.999h92l152 -208h-97l-101 127
l-101 -127h-97z" />
    <glyph glyph-name="Gbreve" unicode="&#x11e;" horiz-adv-x="780" 
d="M60 390c0 126.667 28.0029 225.334 84.0029 296.001s141.333 106 256 106c93.333 0 165.166 -19.5 215.499 -58.5s79.833 -92.5 88.5 -160.5l-102 -11c-7.33301 48 -27.333 83.167 -60 105.5s-80 33.5 -142 33.5c-158 0 -237 -103.667 -237 -311
c0 -206.667 79 -310.334 237 -311.001c85.333 0 153.666 16.667 204.999 50v198h-168v87h267v-346c-50 -30.667 -98.167 -51.834 -144.5 -63.501s-99.833 -17.167 -160.5 -16.5c-114.667 0.666992 -199.834 36.334 -255.501 107.001s-83.5 169 -83.5 295zM391.003 825
c-68 0 -116.333 17.167 -145 51.5s-42.667 85.5 -42 153.5h78c-0.666992 -44 7.5 -75.167 24.5 -93.5s45.167 -27.5 84.5 -27.5s67.5 9.16699 84.5 27.5s25.167 49.5 24.5 93.5h78c0.666992 -68 -13.333 -119.167 -42 -153.5s-77 -51.5 -145 -51.5z" />
    <glyph glyph-name="gbreve" unicode="&#x11f;" horiz-adv-x="611" 
d="M546 398l0.00195312 -410.001c0 -64.667 -22.833 -114.167 -68.5 -148.5s-107.167 -51.5 -184.5 -51.5c-81.333 0 -140.333 13.833 -177 41.5s-58 66.834 -64 117.501l100 14c10 -62 56 -92 138 -90c107.333 1.33301 161 39 161 113v111
c-16.667 -25.333 -39.834 -45.5 -69.501 -60.5s-62.834 -22.5 -99.501 -22.5c-74.667 0 -133 22.5 -175 67.5s-63 110.833 -63 197.5s21 152.5 63 197.5s100.333 67.5 175 67.5c38 0 72 -7.83301 102 -23.5s53.333 -37.167 70 -64.5l12 76h87zM451.002 225.999v102
c-4.66699 32 -21.5 60.833 -50.5 86.5s-64.833 38.5 -107.5 38.5c-47.333 0 -84 -14.5 -110 -43.5s-39 -73.167 -39 -132.5s13 -103.5 39 -132.5s62.667 -43.5 110 -43.5c42.667 0 78.5 12.833 107.5 38.5s45.833 54.5 50.5 86.5zM292.002 594.999
c-68 0 -116.333 17.167 -145 51.5s-42.667 85.5 -42 153.5h78c-0.666992 -44 7.5 -75.167 24.5 -93.5s45.167 -27.5 84.5 -27.5s67.5 9.16699 84.5 27.5s25.167 49.5 24.5 93.5h78c0.666992 -68 -13.333 -119.167 -42 -153.5s-77 -51.5 -145 -51.5z" />
    <glyph glyph-name="Gdotaccent" unicode="&#x120;" horiz-adv-x="780" 
d="M60 390c0 126.667 28.0029 225.334 84.0029 296.001s141.333 106 256 106c93.333 0 165.166 -19.5 215.499 -58.5s79.833 -92.5 88.5 -160.5l-102 -11c-7.33301 48 -27.333 83.167 -60 105.5s-80 33.5 -142 33.5c-158 0 -237 -103.667 -237 -311
c0 -206.667 79 -310.334 237 -311.001c85.333 0 153.666 16.667 204.999 50v198h-168v87h267v-346c-50 -30.667 -98.167 -51.834 -144.5 -63.501s-99.833 -17.167 -160.5 -16.5c-114.667 0.666992 -199.834 36.334 -255.501 107.001s-83.5 169 -83.5 295zM447.003 980v-111
h-112v111h112z" />
    <glyph glyph-name="gdotaccent" unicode="&#x121;" horiz-adv-x="611" 
d="M546 398l0.00195312 -410.001c0 -64.667 -22.833 -114.167 -68.5 -148.5s-107.167 -51.5 -184.5 -51.5c-81.333 0 -140.333 13.833 -177 41.5s-58 66.834 -64 117.501l100 14c10 -62 56 -92 138 -90c107.333 1.33301 161 39 161 113v111
c-16.667 -25.333 -39.834 -45.5 -69.501 -60.5s-62.834 -22.5 -99.501 -22.5c-74.667 0 -133 22.5 -175 67.5s-63 110.833 -63 197.5s21 152.5 63 197.5s100.333 67.5 175 67.5c38 0 72 -7.83301 102 -23.5s53.333 -37.167 70 -64.5l12 76h87zM451.002 225.999v102
c-4.66699 32 -21.5 60.833 -50.5 86.5s-64.833 38.5 -107.5 38.5c-47.333 0 -84 -14.5 -110 -43.5s-39 -73.167 -39 -132.5s13 -103.5 39 -132.5s62.667 -43.5 110 -43.5c42.667 0 78.5 12.833 107.5 38.5s45.833 54.5 50.5 86.5zM348.002 749.999v-111h-112v111h112z" />
    <glyph glyph-name="Gcommaaccent" unicode="&#x122;" horiz-adv-x="780" 
d="M60 390c0 126.667 28.0029 225.334 84.0029 296.001s141.333 106 256 106c93.333 0 165.166 -19.5 215.499 -58.5s79.833 -92.5 88.5 -160.5l-102 -11c-7.33301 48 -27.333 83.167 -60 105.5s-80 33.5 -142 33.5c-158 0 -237 -103.667 -237 -311
c0 -206.667 79 -310.334 237 -311.001c85.333 0 153.666 16.667 204.999 50v198h-168v87h267v-346c-50 -30.667 -98.167 -51.834 -144.5 -63.501s-99.833 -17.167 -160.5 -16.5c-114.667 0.666992 -199.834 36.334 -255.501 107.001s-83.5 169 -83.5 295zM335.003 -62h117
l-46 -138h-88z" />
    <glyph glyph-name="gcommaaccent" unicode="&#x123;" horiz-adv-x="611" 
d="M339 592h-108l69 208h86zM546 398l0.00195312 -410.001c0 -64.667 -22.833 -114.167 -68.5 -148.5s-107.167 -51.5 -184.5 -51.5c-81.333 0 -140.333 13.833 -177 41.5s-58 66.834 -64 117.501l100 14c10 -62 56 -92 138 -90c107.333 1.33301 161 39 161 113v111
c-16.667 -25.333 -39.834 -45.5 -69.501 -60.5s-62.834 -22.5 -99.501 -22.5c-74.667 0 -133 22.5 -175 67.5s-63 110.833 -63 197.5s21 152.5 63 197.5s100.333 67.5 175 67.5c38 0 72 -7.83301 102 -23.5s53.333 -37.167 70 -64.5l12 76h87zM451.002 225.999v102
c-4.66699 32 -21.5 60.833 -50.5 86.5s-64.833 38.5 -107.5 38.5c-47.333 0 -84 -14.5 -110 -43.5s-39 -73.167 -39 -132.5s13 -103.5 39 -132.5s62.667 -43.5 110 -43.5c42.667 0 78.5 12.833 107.5 38.5s45.833 54.5 50.5 86.5z" />
    <glyph glyph-name="Hcircumflex" unicode="&#x124;" horiz-adv-x="750" 
d="M570 780h100v-780h-100v354h-390v-354h-100v780h100v-335h390v335zM329 1030h92l152 -208h-97l-101 127l-101 -127h-97z" />
    <glyph glyph-name="hcircumflex" unicode="&#x125;" horiz-adv-x="585" 
d="M158 800l-0.000976562 -342c38.667 56 94.667 84 168 84c60.667 0 109.834 -15.667 147.501 -47s56.5 -75.333 56.5 -132v-363h-96v346c0 34 -11 60.333 -33 79s-51.667 28 -89 28c-40.667 0 -75.5 -13.167 -104.5 -39.5s-45.5 -54.833 -49.5 -85.5v-328h-95v800h95z
M65.999 1030h92l152 -208h-97l-101 127l-101 -127h-97z" />
    <glyph glyph-name="Hbar" unicode="&#x126;" horiz-adv-x="750" 
d="M570 780h100v-780h-100v354h-390v-354h-100v780h100v-140h390v140zM180 445h390v115h-390v-115z" />
    <glyph glyph-name="hbar" unicode="&#x127;" horiz-adv-x="605" 
d="M178 800l-0.000976562 -103h137v-78h-137v-161c38.667 56 94.667 84 168 84c60.667 0 109.834 -15.667 147.501 -47s56.5 -75.333 56.5 -132v-363h-96v346c0 34 -11 60.333 -33 79s-51.667 28 -89 28c-40.667 0 -75.5 -13.167 -104.5 -39.5s-45.5 -54.833 -49.5 -85.5
v-328h-95v619h-103v78h103v103h95z" />
    <glyph glyph-name="Itilde" unicode="&#x128;" horiz-adv-x="296" 
d="M198 780v-780h-100v780h100zM63 926c-28.667 0 -46 -18 -52 -54l-76 11c12 83.333 56.333 125 133 125c25.333 0 48 -6.66699 68 -20s37.833 -26.666 53.5 -39.999s30.167 -20 43.5 -20c28.667 0 46 18 52 54l76 -11c-12 -83.333 -56.333 -125 -133 -125
c-25.333 0 -48 6.66699 -68 20s-37.833 26.666 -53.5 39.999s-30.167 20 -43.5 20z" />
    <glyph glyph-name="itilde" unicode="&#x129;" horiz-adv-x="258" 
d="M81 0v530h96v-530h-96zM49 696c-28.667 0 -46 -18 -52 -54l-76 11c12 83.333 56.333 125 133 125c25.333 0 48 -6.66699 68 -20s37.833 -26.666 53.5 -39.999s30.167 -20 43.5 -20c28.667 0 46 18 52 54l76 -11c-12 -83.333 -56.333 -125 -133 -125
c-25.333 0 -48 6.66699 -68 20s-37.833 26.666 -53.5 39.999s-30.167 20 -43.5 20z" />
    <glyph glyph-name="Imacron" unicode="&#x12a;" horiz-adv-x="296" 
d="M198 780v-780h-100v780h100zM292 882h-288v90h288v-90z" />
    <glyph glyph-name="imacron" unicode="&#x12b;" horiz-adv-x="258" 
d="M81 0v530h96v-530h-96zM273 652h-288v90h288v-90z" />
    <glyph glyph-name="Ibreve" unicode="&#x12c;" horiz-adv-x="296" 
d="M198 780v-780h-100v780h100zM148 825c-68 0 -116.333 17.167 -145 51.5s-42.667 85.5 -42 153.5h78c-0.666992 -44 7.5 -75.167 24.5 -93.5s45.167 -27.5 84.5 -27.5s67.5 9.16699 84.5 27.5s25.167 49.5 24.5 93.5h78c0.666992 -68 -13.333 -119.167 -42 -153.5
s-77 -51.5 -145 -51.5z" />
    <glyph glyph-name="ibreve" unicode="&#x12d;" horiz-adv-x="258" 
d="M81 0v530h96v-530h-96zM129 595c-68 0 -116.333 17.167 -145 51.5s-42.667 85.5 -42 153.5h78c-0.666992 -44 7.5 -75.167 24.5 -93.5s45.167 -27.5 84.5 -27.5s67.5 9.16699 84.5 27.5s25.167 49.5 24.5 93.5h78c0.666992 -68 -13.333 -119.167 -42 -153.5
s-77 -51.5 -145 -51.5z" />
    <glyph glyph-name="Iogonek" unicode="&#x12e;" horiz-adv-x="296" 
d="M98 7v773h100v-780c-58 -29.333 -87 -62.333 -87 -99c0 -26.667 15.333 -40 46 -40c16 0.666992 32 4.16699 48 10.5s25.667 11.5 29 15.5l22 -69c-30 -20 -66.667 -30 -110 -30c-34 0 -62 8.33301 -84 25s-33 42.667 -33 78c0 41.333 23 80 69 116z" />
    <glyph glyph-name="iogonek" unicode="&#x12f;" horiz-adv-x="258" 
d="M176 0c-58 -29.333 -87 -62.333 -87 -99c0 -26.667 15.333 -40 46 -40c16 0.666992 32 4.16699 48 10.5s25.667 11.5 29 15.5l22 -69c-30 -20 -66.667 -30 -110 -30c-34 0 -62 8.33301 -84 25s-33 42.667 -33 78c0 42 24.667 82 74 120v519h95v-530zM184 749v-111h-111
v111h111z" />
    <glyph glyph-name="Idotaccent" unicode="&#x130;" horiz-adv-x="296" 
d="M198 780v-780h-100v780h100zM204 980v-111h-112v111h112z" />
    <glyph glyph-name="dotlessi" unicode="&#x131;" horiz-adv-x="258" 
d="M81 0v530h96v-530h-96z" />
    <glyph glyph-name="IJ" unicode="&#x132;" horiz-adv-x="645" 
d="M198 780v-780h-100v780h100zM472 200l-0.000976562 579.999h101v-586c0 -137.333 -68.667 -206 -206 -206c-27.333 0 -51.666 4 -72.999 12l10 93c18.667 -9.33301 39 -13.666 61 -12.999c36 0.666992 62.833 9.66699 80.5 27s26.5 48.333 26.5 93z" />
    <glyph glyph-name="ij" unicode="&#x133;" horiz-adv-x="501" 
d="M81 0v530h96v-530h-96zM185 750v-111h-112v111h112zM433 750v-111h-112v111h112zM329 -1l0.000976562 530.996h96v-537c0 -29.333 -2.66699 -55.166 -8 -77.499s-14.5 -43.666 -27.5 -63.999s-32.833 -36 -59.5 -47s-59.334 -16.5 -98.001 -16.5
c-26.667 0 -50.667 4 -72 12l10 89c17.333 -9.33301 37.333 -13.666 60 -12.999c36 0.666992 61.5 9.33398 76.5 26.001s22.5 49 22.5 97z" />
    <glyph glyph-name="Jcircumflex" unicode="&#x134;" horiz-adv-x="512" 
d="M344 1030h92l152 -208h-97l-101 127l-101 -127h-97zM340 780l100.002 0.000976562v-580c0 -62 -17.833 -112.833 -53.5 -152.5s-91.167 -59.5 -166.5 -59.5c-39.333 0 -72.666 4.83301 -99.999 14.5s-48 23.667 -62 42s-24 37.166 -30 56.499s-10 42 -12 68l100 13
c3.33301 -34.667 12.166 -60.5 26.499 -77.5s40.166 -25.5 77.499 -25.5c45.333 0 76.666 10 93.999 30s26 51.667 26 95v576z" />
    <glyph glyph-name="jcircumflex" unicode="&#x135;" horiz-adv-x="258" 
d="M-12 -123c36 0.666992 61.334 9.16699 76.001 25.5s22 48.833 22 97.5v530h95v-537c0 -29.333 -2.66699 -55 -8 -77s-14.5 -43.167 -27.5 -63.5s-32.667 -36 -59 -47s-58.833 -16.5 -97.5 -16.5c-28 0 -51.667 3.66699 -71 11l9 90
c13.333 -8.66699 33.666 -13 60.999 -13zM88.001 800h92l152 -208h-97l-101 127l-101 -127h-97z" />
    <glyph glyph-name="Kcommaaccent" unicode="&#x136;" horiz-adv-x="712" 
d="M180 780v-388l357 388h141l-335 -352l356 -428h-136l-289 355l-94 -100v-255h-100v780h100zM295 -62h117l-46 -138h-88z" />
    <glyph glyph-name="kcommaaccent" unicode="&#x137;" horiz-adv-x="557" 
d="M158 0h-95v800h95v-514l92 96l146 148h129l-229 -228l262 -302h-124l-205 240l-71 -68v-172zM234 -62h117l-46 -138h-88z" />
    <glyph glyph-name="kgreenlandic" unicode="&#x138;" horiz-adv-x="561" 
d="M158 0h-95v530h95v-244l92 96l146 148h129l-229 -228l262 -302h-124l-205 240l-71 -68v-172z" />
    <glyph glyph-name="Lacute" unicode="&#x139;" horiz-adv-x="589" 
d="M180 780v-688h396v-92h-496v780h100zM177 1030h112l-111 -208h-95z" />
    <glyph glyph-name="lacute" unicode="&#x13a;" horiz-adv-x="258" 
d="M81 0v800h96v-800h-96zM176 1030h112l-111 -208h-95z" />
    <glyph glyph-name="Lcommaaccent" unicode="&#x13b;" horiz-adv-x="589" 
d="M180 780v-688h396v-92h-496v780h100zM274 -62h117l-46 -138h-88z" />
    <glyph glyph-name="lcommaaccent" unicode="&#x13c;" horiz-adv-x="258" 
d="M81 0v800h96v-800h-96zM70 -62h117l-46 -138h-88z" />
    <glyph glyph-name="Lcaron" unicode="&#x13d;" horiz-adv-x="589" 
d="M180 780v-688h396v-92h-496v780h100zM387 800h108l-69 -208h-86z" />
    <glyph glyph-name="lcaron" unicode="&#x13e;" horiz-adv-x="258" 
d="M81 0v800h96v-800h-96zM268 800h108l-69 -208h-86z" />
    <glyph glyph-name="Ldot" unicode="&#x13f;" horiz-adv-x="589" 
d="M180 780v-688h396v-92h-496v780h100zM476 455v-111h-112v111h112z" />
    <glyph glyph-name="ldot" unicode="&#x140;" horiz-adv-x="362" 
d="M81 0v800h96v-800h-96zM366 446v-111h-112v111h112z" />
    <glyph glyph-name="Lslash" unicode="&#x141;" horiz-adv-x="589" 
d="M446 447l-266 -133v-222h396v-92h-496v265l-74 -37v83l74 37v432h100v-383l266 133v-83z" />
    <glyph glyph-name="lslash" unicode="&#x142;" horiz-adv-x="309" 
d="M295 455l-95 -60v-395h-95v335l-74 -47v85l74 47v380h95v-320l95 60v-85z" />
    <glyph glyph-name="Nacute" unicode="&#x143;" horiz-adv-x="754" 
d="M171 780l319 -471l86 -133l-3 235v369h101v-780h-91l-319 471l-86 133l3 -235v-369h-101v780h91zM424 1030h112l-111 -208h-95z" />
    <glyph glyph-name="nacute" unicode="&#x144;" horiz-adv-x="587" 
d="M145 530l11.999 -75.001c18 26.667 42 47.834 72 63.501s63 23.5 99 23.5c60.667 0 109.834 -15.667 147.501 -47s56.5 -75.333 56.5 -132v-363h-96v346c0 34 -11 60.333 -33 79s-51.667 28 -89 28c-40.667 0 -75.5 -13.167 -104.5 -39.5s-45.5 -54.833 -49.5 -85.5v-328
h-95v399l-7 131h87zM345.999 799.999h112l-111 -208h-95z" />
    <glyph glyph-name="Ncommaaccent" unicode="&#x145;" horiz-adv-x="754" 
d="M171 780l319 -471l86 -133l-3 235v369h101v-780h-91l-319 471l-86 133l3 -235v-369h-101v780h91zM321 -62h117l-46 -138h-88z" />
    <glyph glyph-name="ncommaaccent" unicode="&#x146;" horiz-adv-x="587" 
d="M145 530l11.999 -75.001c18 26.667 42 47.834 72 63.501s63 23.5 99 23.5c60.667 0 109.834 -15.667 147.501 -47s56.5 -75.333 56.5 -132v-363h-96v346c0 34 -11 60.333 -33 79s-51.667 28 -89 28c-40.667 0 -75.5 -13.167 -104.5 -39.5s-45.5 -54.833 -49.5 -85.5v-328
h-95v399l-7 131h87zM238.999 -62.001h117l-46 -138h-88z" />
    <glyph glyph-name="Ncaron" unicode="&#x147;" horiz-adv-x="754" 
d="M171 780l319 -471l86 -133l-3 235v369h101v-780h-91l-319 471l-86 133l3 -235v-369h-101v780h91zM423 822h-92l-152 208h97l101 -127l101 127h97z" />
    <glyph glyph-name="ncaron" unicode="&#x148;" horiz-adv-x="587" 
d="M145 530l11.999 -75.001c18 26.667 42 47.834 72 63.501s63 23.5 99 23.5c60.667 0 109.834 -15.667 147.501 -47s56.5 -75.333 56.5 -132v-363h-96v346c0 34 -11 60.333 -33 79s-51.667 28 -89 28c-40.667 0 -75.5 -13.167 -104.5 -39.5s-45.5 -54.833 -49.5 -85.5v-328
h-95v399l-7 131h87zM344.999 591.999h-92l-152 208h97l101 -127l101 127h97z" />
    <glyph glyph-name="Eng" unicode="&#x14a;" horiz-adv-x="754" 
d="M573 -1v15.9971l-309 456l-86 133l3 -235v-369h-101v780h91l319 -471l86 -133l-3 235v369h101v-787c0 -29.333 -2.83301 -55.166 -8.5 -77.499s-15.167 -43.666 -28.5 -63.999s-33.5 -36 -60.5 -47s-59.833 -16.5 -98.5 -16.5c-28 0 -52.667 4 -74 12l10 90
c17.333 -9.33301 37.333 -13.666 60 -12.999c36 0.666992 61.5 9.16699 76.5 25.5s22.5 48.5 22.5 96.5z" />
    <glyph glyph-name="eng" unicode="&#x14b;" horiz-adv-x="587" 
d="M436 -1v346.995c0 34 -11 60.333 -33 79s-51.667 28 -89 28c-40.667 0 -75.5 -13.167 -104.5 -39.5s-45.5 -54.833 -49.5 -85.5v-328h-95v399l-7 131h87l12 -75c18 26.667 42 47.834 72 63.501s63 23.5 99 23.5c60.667 0 109.834 -15.667 147.501 -47
s56.5 -75.333 56.5 -132v-370c0 -29.333 -2.66699 -55.166 -8 -77.499s-14.5 -43.666 -27.5 -63.999s-32.833 -36 -59.5 -47s-59.334 -16.5 -98.001 -16.5c-26.667 0 -50.667 4 -72 12l10 89c17.333 -9.33301 37.333 -13.666 60 -12.999
c36 0.666992 61.5 9.33398 76.5 26.001s22.5 49 22.5 97z" />
    <glyph glyph-name="Omacron" unicode="&#x14c;" horiz-adv-x="800" 
d="M400 -12c-115.333 0 -200.833 35.333 -256.5 106s-83.5 169.334 -83.5 296.001s27.833 225.334 83.5 296.001s141.167 106 256.5 106s200.833 -35.333 256.5 -106s83.5 -169.334 83.5 -296.001s-27.833 -225.334 -83.5 -296.001s-141.167 -106 -256.5 -106zM400 701
c-157.333 0 -236 -103.667 -236 -311s78.667 -311 236 -311s236 103.667 236 311s-78.667 311 -236 311zM544 882h-288v90h288v-90z" />
    <glyph glyph-name="omacron" unicode="&#x14d;" horiz-adv-x="590" 
d="M439 652h-288v90h288v-90zM295 74c48 0 85.667 15.5 113 46.5s41 79.167 41 144.5s-13.667 113.5 -41 144.5s-65 46.5 -113 46.5s-85.667 -15.5 -113 -46.5s-41 -79.167 -41 -144.5s13.667 -113.5 41 -144.5s65 -46.5 113 -46.5zM295 -12c-78.667 0 -140 23.5 -184 70.5
s-66 115.833 -66 206.5s22 159.5 66 206.5s105.333 70.5 184 70.5s140 -23.5 184 -70.5s66 -115.833 66 -206.5s-22 -159.5 -66 -206.5s-105.333 -70.5 -184 -70.5z" />
    <glyph glyph-name="Obreve" unicode="&#x14e;" horiz-adv-x="800" 
d="M400 701c-157.333 0 -236 -103.667 -236 -311s78.667 -311 236 -311s236 103.667 236 311s-78.667 311 -236 311zM400 -12c-115.333 0 -200.833 35.333 -256.5 106s-83.5 169.334 -83.5 296.001s27.833 225.334 83.5 296.001s141.167 106 256.5 106
s200.833 -35.333 256.5 -106s83.5 -169.334 83.5 -296.001s-27.833 -225.334 -83.5 -296.001s-141.167 -106 -256.5 -106zM400 825c-68 0 -116.333 17.167 -145 51.5s-42.667 85.5 -42 153.5h78c-0.666992 -44 7.5 -75.167 24.5 -93.5s45.167 -27.5 84.5 -27.5
s67.5 9.16699 84.5 27.5s25.167 49.5 24.5 93.5h78c0.666992 -68 -13.333 -119.167 -42 -153.5s-77 -51.5 -145 -51.5z" />
    <glyph glyph-name="obreve" unicode="&#x14f;" horiz-adv-x="590" 
d="M295 595c-68 0 -116.333 17.167 -145 51.5s-42.667 85.5 -42 153.5h78c-0.666992 -44 7.5 -75.167 24.5 -93.5s45.167 -27.5 84.5 -27.5s67.5 9.16699 84.5 27.5s25.167 49.5 24.5 93.5h78c0.666992 -68 -13.333 -119.167 -42 -153.5s-77 -51.5 -145 -51.5zM295 74
c48 0 85.667 15.5 113 46.5s41 79.167 41 144.5s-13.667 113.5 -41 144.5s-65 46.5 -113 46.5s-85.667 -15.5 -113 -46.5s-41 -79.167 -41 -144.5s13.667 -113.5 41 -144.5s65 -46.5 113 -46.5zM295 -12c-78.667 0 -140 23.5 -184 70.5s-66 115.833 -66 206.5
s22 159.5 66 206.5s105.333 70.5 184 70.5s140 -23.5 184 -70.5s66 -115.833 66 -206.5s-22 -159.5 -66 -206.5s-105.333 -70.5 -184 -70.5z" />
    <glyph glyph-name="Ohungarumlaut" unicode="&#x150;" horiz-adv-x="800" 
d="M400 701c-157.333 0 -236 -103.667 -236 -311s78.667 -311 236 -311s236 103.667 236 311s-78.667 311 -236 311zM400 -12c-115.333 0 -200.833 35.333 -256.5 106s-83.5 169.334 -83.5 296.001s27.833 225.334 83.5 296.001s141.167 106 256.5 106
s200.833 -35.333 256.5 -106s83.5 -169.334 83.5 -296.001s-27.833 -225.334 -83.5 -296.001s-141.167 -106 -256.5 -106zM365 1030h112l-111 -208h-95zM525 1030h112l-111 -208h-95z" />
    <glyph glyph-name="ohungarumlaut" unicode="&#x151;" horiz-adv-x="590" 
d="M260 800h112l-111 -208h-95zM420 800h112l-111 -208h-95zM295 74c48 0 85.667 15.5 113 46.5s41 79.167 41 144.5s-13.667 113.5 -41 144.5s-65 46.5 -113 46.5s-85.667 -15.5 -113 -46.5s-41 -79.167 -41 -144.5s13.667 -113.5 41 -144.5s65 -46.5 113 -46.5zM295 -12
c-78.667 0 -140 23.5 -184 70.5s-66 115.833 -66 206.5s22 159.5 66 206.5s105.333 70.5 184 70.5s140 -23.5 184 -70.5s66 -115.833 66 -206.5s-22 -159.5 -66 -206.5s-105.333 -70.5 -184 -70.5z" />
    <glyph glyph-name="OE" unicode="&#x152;" horiz-adv-x="1082" 
d="M417 780l589 -0.00195312v-92h-397v-243h354v-91h-354v-262h417v-92h-609c-119.333 0 -209 31.833 -269 95.5s-90 161.834 -90 294.501s30 230.834 90 294.501s149.667 95.5 269 95.5zM509 687.998h-92c-90 0 -155.167 -25.667 -195.5 -77s-60.5 -125 -60.5 -221
s20.167 -169.667 60.5 -221s105.5 -77 195.5 -77h92v596z" />
    <glyph glyph-name="oe" unicode="&#x153;" horiz-adv-x="984" 
d="M295 76c100.667 0 151 63 151 189s-50.333 189 -151 189s-151 -63 -151 -189s50.333 -189 151 -189zM699 459c-44.667 0 -80.335 -12.665 -107.002 -37.998s-41.667 -63.333 -45 -114h286c-1.33301 49.333 -13.166 87.166 -35.499 113.499s-55.166 39.166 -98.499 38.499
zM935.999 226.002l-389.998 -0.000976562c6.66699 -102.667 58 -154 154 -154c76 -2 120 26 132 84l100 -12c-6.66699 -46 -28.834 -83.5 -66.501 -112.5s-92.5 -43.5 -164.5 -43.5c-94 0 -162.333 30.333 -205 91c-42.667 -60.667 -109.667 -91 -201 -91
c-78.667 0 -140 23.5 -184 70.5s-66 115.833 -66 206.5s22 159.5 66 206.5s105.333 70.5 184 70.5c90.667 0 157.667 -30.667 201 -92c43.333 61.333 110.666 92 201.999 92c79.333 0 138.833 -23.667 178.5 -71s59.5 -115.666 59.5 -204.999v-40z" />
    <glyph glyph-name="Racute" unicode="&#x154;" horiz-adv-x="707" 
d="M180 327v-327h-100v780h312c170 0 255 -75.333 255 -226c0 -125.333 -57 -198.333 -171 -219l204 -335h-123l-189 327h-188zM180 419l222 0.000976562c14.667 0 27.334 0.666992 38.001 2s23 4.5 37 9.5s25.333 12.167 34 21.5s16.167 22.666 22.5 39.999s9.5 38 9.5 62
s-3.16699 44.667 -9.5 62s-13.833 30.5 -22.5 39.5s-20 16.167 -34 21.5s-26.333 8.5 -37 9.5s-23.334 1.5 -38.001 1.5h-222v-269zM381 1030h112l-111 -208h-95z" />
    <glyph glyph-name="racute" unicode="&#x155;" horiz-adv-x="414" 
d="M326 450c-43.333 0 -80.499 -12.832 -111.499 -38.499s-49.167 -54.5 -54.5 -86.5v-325h-95v399l-7 131h87l13 -81c15.333 27.333 37.833 49.666 67.5 66.999s62.167 26 97.5 26c29.333 0 53 -3.66699 71 -11l-9 -93c-14.667 8 -34.334 12 -59.001 12zM259.001 800.001
h112l-111 -208h-95z" />
    <glyph glyph-name="Rcommaaccent" unicode="&#x156;" horiz-adv-x="707" 
d="M180 327v-327h-100v780h312c170 0 255 -75.333 255 -226c0 -125.333 -57 -198.333 -171 -219l204 -335h-123l-189 327h-188zM180 419l222 0.000976562c14.667 0 27.334 0.666992 38.001 2s23 4.5 37 9.5s25.333 12.167 34 21.5s16.167 22.666 22.5 39.999s9.5 38 9.5 62
s-3.16699 44.667 -9.5 62s-13.833 30.5 -22.5 39.5s-20 16.167 -34 21.5s-26.333 8.5 -37 9.5s-23.334 1.5 -38.001 1.5h-222v-269zM298 -61.999h117l-46 -138h-88z" />
    <glyph glyph-name="rcommaaccent" unicode="&#x157;" horiz-adv-x="414" 
d="M326 450c-43.333 0 -80.499 -12.832 -111.499 -38.499s-49.167 -54.5 -54.5 -86.5v-325h-95v399l-7 131h87l13 -81c15.333 27.333 37.833 49.666 67.5 66.999s62.167 26 97.5 26c29.333 0 53 -3.66699 71 -11l-9 -93c-14.667 8 -34.334 12 -59.001 12zM54.001 -61.999
h117l-46 -138h-88z" />
    <glyph glyph-name="Rcaron" unicode="&#x158;" horiz-adv-x="707" 
d="M180 327v-327h-100v780h312c170 0 255 -75.333 255 -226c0 -125.333 -57 -198.333 -171 -219l204 -335h-123l-189 327h-188zM180 419l222 0.000976562c14.667 0 27.334 0.666992 38.001 2s23 4.5 37 9.5s25.333 12.167 34 21.5s16.167 22.666 22.5 39.999s9.5 38 9.5 62
s-3.16699 44.667 -9.5 62s-13.833 30.5 -22.5 39.5s-20 16.167 -34 21.5s-26.333 8.5 -37 9.5s-23.334 1.5 -38.001 1.5h-222v-269zM380 822.001h-92l-152 208h97l101 -127l101 127h97z" />
    <glyph glyph-name="rcaron" unicode="&#x159;" horiz-adv-x="414" 
d="M326 450c-43.333 0 -80.499 -12.832 -111.499 -38.499s-49.167 -54.5 -54.5 -86.5v-325h-95v399l-7 131h87l13 -81c15.333 27.333 37.833 49.666 67.5 66.999s62.167 26 97.5 26c29.333 0 53 -3.66699 71 -11l-9 -93c-14.667 8 -34.334 12 -59.001 12zM268.001 592.001
h-92l-152 208h97l101 -127l101 127h97z" />
    <glyph glyph-name="Sacute" unicode="&#x15a;" horiz-adv-x="713" 
d="M358 79c54 0.666992 100.668 12.668 140.001 36.001s59 59.666 59 108.999c0 44 -14.167 76.333 -42.5 97s-80.5 34.667 -156.5 42c-32 2.66699 -59.667 6.16699 -83 10.5s-47.833 11.333 -73.5 21s-46.5 21.334 -62.5 35.001s-29.333 32 -40 55s-16 49.833 -16 80.5
c-0.666992 74.667 24.833 131.167 76.5 169.5s116.834 57.5 195.501 57.5c180.667 0 280.667 -71 300 -213l-102 -11c-6.66699 46.667 -25.667 80.5 -57 101.5s-78.333 31.5 -141 31.5c-18.667 0 -36.667 -2 -54 -6s-35.5 -10.5 -54.5 -19.5s-34.167 -22.833 -45.5 -41.5
s-17 -41.334 -17 -68.001c0 -35.333 12 -61.166 36 -77.499s71 -28.5 141 -36.5c52 -4.66699 94.167 -10.834 126.5 -18.501s62.166 -19.5 89.499 -35.5s47.333 -38.167 60 -66.5s19 -63.833 19 -106.5c0 -52.667 -14.667 -97.5 -44 -134.5s-65.833 -63.333 -109.5 -79
s-91.834 -23.5 -144.501 -23.5c-182.667 0 -284 72.667 -304 218l102 10c8 -48 28 -82.833 60 -104.5s79.333 -32.5 142 -32.5zM405.001 1030h112l-111 -208h-95z" />
    <glyph glyph-name="sacute" unicode="&#x15b;" horiz-adv-x="540" 
d="M266 72c94 2.66699 141 30.6709 141 84.0039c0 27.333 -8.83301 45.166 -26.5 53.499s-49.5 14.833 -95.5 19.5c-4 0.666992 -7.5 1 -10.5 1s-6.16699 0.333008 -9.5 1c-22.667 2.66699 -38.834 4.66699 -48.501 6s-25 4 -46 8s-36.833 9.16699 -47.5 15.5
s-22.334 14.333 -35.001 24s-21.834 22.167 -27.501 37.5s-8.5 32.666 -8.5 51.999c0 38.667 11.5 71.167 34.5 97.5s49.833 44.666 80.5 54.999s63.667 15.5 99 15.5c136 0 211.333 -52.667 226 -158l-100 -12c-6 29.333 -18.667 51.166 -38 65.499
s-48.666 21.166 -87.999 20.499c-77.333 -1.33301 -116 -27 -116 -77c0 -10.667 2.33301 -19.667 7 -27s9.83398 -13.166 15.501 -17.499s15.334 -8 29.001 -11s25.167 -5.16699 34.5 -6.5s24.333 -3 45 -5c71.333 -7.33301 120.333 -16.333 147 -27
c52 -22.667 78 -64.667 78 -126c0 -58 -23.5 -101.333 -70.5 -130s-103.167 -43 -168.5 -43c-140 0 -217 53 -231 159l100 13c6 -29.333 19 -51.5 39 -66.5s50.333 -22.167 91 -21.5zM317 800.004h112l-111 -208h-95z" />
    <glyph glyph-name="Scircumflex" unicode="&#x15c;" horiz-adv-x="713" 
d="M358 79c54 0.666992 100.668 12.668 140.001 36.001s59 59.666 59 108.999c0 44 -14.167 76.333 -42.5 97s-80.5 34.667 -156.5 42c-32 2.66699 -59.667 6.16699 -83 10.5s-47.833 11.333 -73.5 21s-46.5 21.334 -62.5 35.001s-29.333 32 -40 55s-16 49.833 -16 80.5
c-0.666992 74.667 24.833 131.167 76.5 169.5s116.834 57.5 195.501 57.5c180.667 0 280.667 -71 300 -213l-102 -11c-6.66699 46.667 -25.667 80.5 -57 101.5s-78.333 31.5 -141 31.5c-18.667 0 -36.667 -2 -54 -6s-35.5 -10.5 -54.5 -19.5s-34.167 -22.833 -45.5 -41.5
s-17 -41.334 -17 -68.001c0 -35.333 12 -61.166 36 -77.499s71 -28.5 141 -36.5c52 -4.66699 94.167 -10.834 126.5 -18.501s62.166 -19.5 89.499 -35.5s47.333 -38.167 60 -66.5s19 -63.833 19 -106.5c0 -52.667 -14.667 -97.5 -44 -134.5s-65.833 -63.333 -109.5 -79
s-91.834 -23.5 -144.501 -23.5c-182.667 0 -284 72.667 -304 218l102 10c8 -48 28 -82.833 60 -104.5s79.333 -32.5 142 -32.5zM312.001 1030h92l152 -208h-97l-101 127l-101 -127h-97z" />
    <glyph glyph-name="scircumflex" unicode="&#x15d;" horiz-adv-x="540" 
d="M266 72c94 2.66699 141 30.6709 141 84.0039c0 27.333 -8.83301 45.166 -26.5 53.499s-49.5 14.833 -95.5 19.5c-4 0.666992 -7.5 1 -10.5 1s-6.16699 0.333008 -9.5 1c-22.667 2.66699 -38.834 4.66699 -48.501 6s-25 4 -46 8s-36.833 9.16699 -47.5 15.5
s-22.334 14.333 -35.001 24s-21.834 22.167 -27.501 37.5s-8.5 32.666 -8.5 51.999c0 38.667 11.5 71.167 34.5 97.5s49.833 44.666 80.5 54.999s63.667 15.5 99 15.5c136 0 211.333 -52.667 226 -158l-100 -12c-6 29.333 -18.667 51.166 -38 65.499
s-48.666 21.166 -87.999 20.499c-77.333 -1.33301 -116 -27 -116 -77c0 -10.667 2.33301 -19.667 7 -27s9.83398 -13.166 15.501 -17.499s15.334 -8 29.001 -11s25.167 -5.16699 34.5 -6.5s24.333 -3 45 -5c71.333 -7.33301 120.333 -16.333 147 -27
c52 -22.667 78 -64.667 78 -126c0 -58 -23.5 -101.333 -70.5 -130s-103.167 -43 -168.5 -43c-140 0 -217 53 -231 159l100 13c6 -29.333 19 -51.5 39 -66.5s50.333 -22.167 91 -21.5zM224 800.004h92l152 -208h-97l-101 127l-101 -127h-97z" />
    <glyph glyph-name="Scedilla" unicode="&#x15e;" horiz-adv-x="713" 
d="M358 79c54 0.666992 100.666 12.6699 139.999 36.0029s59 59.666 59 108.999c0 44 -14.167 76.333 -42.5 97s-80.5 34.667 -156.5 42c-32 2.66699 -59.667 6.16699 -83 10.5s-47.833 11.333 -73.5 21s-46.5 21.334 -62.5 35.001s-29.333 32 -40 55s-16 49.833 -16 80.5
c-0.666992 74.667 24.833 131.167 76.5 169.5s116.834 57.5 195.501 57.5c180.667 0 280.667 -71 300 -213l-102 -11c-6.66699 46.667 -25.667 80.5 -57 101.5s-78.333 31.5 -141 31.5c-18.667 0 -36.667 -2 -54 -6s-35.5 -10.5 -54.5 -19.5s-34.167 -22.833 -45.5 -41.5
s-17 -41.334 -17 -68.001c0 -35.333 12 -61.166 36 -77.499s71 -28.5 141 -36.5c52 -4.66699 94.167 -10.834 126.5 -18.501s62.166 -19.5 89.499 -35.5s47.333 -38.167 60 -66.5s19 -63.833 19 -106.5c0 -73.333 -25.667 -129.833 -77 -169.5
s-115.666 -61.834 -192.999 -66.501l-6 -24c59.333 -14 89 -44.333 89 -91c0 -28.667 -11.333 -50.167 -34 -64.5s-52 -21.5 -88 -21.5c-37.333 0 -68 6 -92 18l17 53c17.333 -9.33301 35.666 -14 54.999 -14c37.333 0 56 10 56 30c0 26.667 -29 43 -87 49l22 65
c-84 5.33301 -146.667 26.666 -188 63.999s-66.666 88.333 -75.999 153l102 10c8 -48 28 -82.833 60 -104.5s79.333 -32.5 142 -32.5z" />
    <glyph glyph-name="scedilla" unicode="&#x15f;" horiz-adv-x="540" 
d="M266 72c94 2.66699 141.001 30.6709 141.001 84.0039c0 27.333 -8.83301 45.166 -26.5 53.499s-49.5 14.833 -95.5 19.5c-4 0.666992 -7.5 1 -10.5 1s-6.16699 0.333008 -9.5 1c-22.667 2.66699 -38.834 4.66699 -48.501 6s-25 4 -46 8s-36.833 9.16699 -47.5 15.5
s-22.334 14.333 -35.001 24s-21.834 22.167 -27.501 37.5s-8.5 32.666 -8.5 51.999c0 38.667 11.5 71.167 34.5 97.5s49.833 44.666 80.5 54.999s63.667 15.5 99 15.5c136 0 211.333 -52.667 226 -158l-100 -12c-6 29.333 -18.667 51.166 -38 65.499
s-48.666 21.166 -87.999 20.499c-77.333 -1.33301 -116 -27 -116 -77c0 -10.667 2.33301 -19.667 7 -27s9.83398 -13.166 15.501 -17.499s15.334 -8 29.001 -11s25.167 -5.16699 34.5 -6.5s24.333 -3 45 -5c71.333 -7.33301 120.333 -16.333 147 -27
c52 -22.667 78 -64.667 78 -126c0 -53.333 -19.833 -94 -59.5 -122s-88.5 -44.333 -146.5 -49l-7 -25c59.333 -14 89 -44.333 89 -91c0 -28.667 -11.333 -50.167 -34 -64.5s-52 -21.5 -88 -21.5c-37.333 0 -68 6 -92 18l17 53c17.333 -9.33301 35.666 -14 54.999 -14
c37.333 0 56 10 56 30c0 26.667 -29 43 -87 49l22 66c-118 8.66699 -183 61 -195 157l100 13c6 -29.333 19 -51.5 39 -66.5s50.333 -22.167 91 -21.5z" />
    <glyph glyph-name="Scaron" unicode="&#x160;" horiz-adv-x="713" 
d="M358 79c54 0.666992 100.668 12.668 140.001 36.001s59 59.666 59 108.999c0 44 -14.167 76.333 -42.5 97s-80.5 34.667 -156.5 42c-32 2.66699 -59.667 6.16699 -83 10.5s-47.833 11.333 -73.5 21s-46.5 21.334 -62.5 35.001s-29.333 32 -40 55s-16 49.833 -16 80.5
c-0.666992 74.667 24.833 131.167 76.5 169.5s116.834 57.5 195.501 57.5c180.667 0 280.667 -71 300 -213l-102 -11c-6.66699 46.667 -25.667 80.5 -57 101.5s-78.333 31.5 -141 31.5c-18.667 0 -36.667 -2 -54 -6s-35.5 -10.5 -54.5 -19.5s-34.167 -22.833 -45.5 -41.5
s-17 -41.334 -17 -68.001c0 -35.333 12 -61.166 36 -77.499s71 -28.5 141 -36.5c52 -4.66699 94.167 -10.834 126.5 -18.501s62.166 -19.5 89.499 -35.5s47.333 -38.167 60 -66.5s19 -63.833 19 -106.5c0 -52.667 -14.667 -97.5 -44 -134.5s-65.833 -63.333 -109.5 -79
s-91.834 -23.5 -144.501 -23.5c-182.667 0 -284 72.667 -304 218l102 10c8 -48 28 -82.833 60 -104.5s79.333 -32.5 142 -32.5zM404.001 822.001h-92l-152 208h97l101 -127l101 127h97z" />
    <glyph glyph-name="scaron" unicode="&#x161;" horiz-adv-x="540" 
d="M266 72c94 2.66699 141 30.6709 141 84.0039c0 27.333 -8.83301 45.166 -26.5 53.499s-49.5 14.833 -95.5 19.5c-4 0.666992 -7.5 1 -10.5 1s-6.16699 0.333008 -9.5 1c-22.667 2.66699 -38.834 4.66699 -48.501 6s-25 4 -46 8s-36.833 9.16699 -47.5 15.5
s-22.334 14.333 -35.001 24s-21.834 22.167 -27.501 37.5s-8.5 32.666 -8.5 51.999c0 38.667 11.5 71.167 34.5 97.5s49.833 44.666 80.5 54.999s63.667 15.5 99 15.5c136 0 211.333 -52.667 226 -158l-100 -12c-6 29.333 -18.667 51.166 -38 65.499
s-48.666 21.166 -87.999 20.499c-77.333 -1.33301 -116 -27 -116 -77c0 -10.667 2.33301 -19.667 7 -27s9.83398 -13.166 15.501 -17.499s15.334 -8 29.001 -11s25.167 -5.16699 34.5 -6.5s24.333 -3 45 -5c71.333 -7.33301 120.333 -16.333 147 -27
c52 -22.667 78 -64.667 78 -126c0 -58 -23.5 -101.333 -70.5 -130s-103.167 -43 -168.5 -43c-140 0 -217 53 -231 159l100 13c6 -29.333 19 -51.5 39 -66.5s50.333 -22.167 91 -21.5zM316 592.004h-92l-152 208h97l101 -127l101 127h97z" />
    <glyph glyph-name="Tcommaaccent" unicode="&#x162;" horiz-adv-x="622" 
d="M361 688v-688h-100v688h-241v92h582v-92h-241zM252 -62h117l-46 -138h-88z" />
    <glyph glyph-name="tcommaaccent" unicode="&#x163;" horiz-adv-x="420" 
d="M23 449l0.000976562 81.002h96v142l95 16v-158h162v-81h-162v-250c0 -48 7.66699 -80.333 23 -97s41 -25.334 77 -26.001c20 -0.666992 40.333 3.66602 61 12.999l9 -89c-21.333 -8 -45.333 -12 -72 -12c-38.667 0 -71.334 5.5 -98.001 16.5s-46.5 26.833 -59.5 47.5
s-22.167 42 -27.5 64s-8 47.667 -8 77v256h-96zM175.001 -61.998h117l-46 -138h-88z" />
    <glyph glyph-name="Tcaron" unicode="&#x164;" horiz-adv-x="622" 
d="M360 688v-688h-100v688h-240v92h581v-92h-241zM357 822h-92l-152 208h97l101 -127l101 127h97z" />
    <glyph glyph-name="tcaron" unicode="&#x165;" horiz-adv-x="420" 
d="M23 449l0.000976562 81.002h96v142l95 16v-158h162v-81h-162v-250c0 -48 7.66699 -80.333 23 -97s41 -25.334 77 -26.001c20 -0.666992 40.333 3.66602 61 12.999l9 -89c-21.333 -8 -45.333 -12 -72 -12c-38.667 0 -71.334 5.5 -98.001 16.5s-46.5 26.833 -59.5 47.5
s-22.167 42 -27.5 64s-8 47.667 -8 77v256h-96zM320.001 800.002h108l-69 -208h-86z" />
    <glyph glyph-name="Tbar" unicode="&#x166;" horiz-adv-x="622" 
d="M361 688v-247h125v-82h-125v-359h-100v359h-125v82h125v247h-241v92h582v-92h-241z" />
    <glyph glyph-name="tbar" unicode="&#x167;" horiz-adv-x="420" 
d="M366 277l-151.999 0.00195312v-78c0 -48 7.66699 -80.333 23 -97s41 -25.334 77 -26.001c20 -0.666992 40.333 3.66602 61 12.999l9 -89c-21.333 -8 -45.333 -12 -72 -12c-38.667 0 -71.334 5.5 -98.001 16.5s-46.5 26.833 -59.5 47.5s-22.167 42 -27.5 64
s-8 47.667 -8 77v84h-94v76h94v96h-96v81h96v142l95 16v-158h162v-81h-162v-96h152v-76z" />
    <glyph glyph-name="Utilde" unicode="&#x168;" horiz-adv-x="772" 
d="M386 -12c-209.333 0 -314.004 98 -314.004 294v498h102v-499c0 -30.667 3 -57.167 9 -79.5s16.333 -43.333 31 -63s36.334 -34.5 65.001 -44.5s64.334 -15 107.001 -15s78.334 5 107.001 15s50.334 24.833 65.001 44.5s25 40.667 31 63s9 48.833 9 79.5v499h102v-498
c0 -196 -104.667 -294 -314 -294zM300.996 926c-28.667 0 -46 -18 -52 -54l-76 11c12 83.333 56.333 125 133 125c25.333 0 48 -6.66699 68 -20s37.833 -26.666 53.5 -39.999s30.167 -20 43.5 -20c28.667 0 46 18 52 54l76 -11c-12 -83.333 -56.333 -125 -133 -125
c-25.333 0 -48 6.66699 -68 20s-37.833 26.666 -53.5 39.999s-30.167 20 -43.5 20z" />
    <glyph glyph-name="utilde" unicode="&#x169;" horiz-adv-x="587" 
d="M443 0l-11.999 75.001c-18 -26.667 -42 -47.834 -72 -63.501s-63 -23.5 -99 -23.5c-60.667 0 -109.834 15.667 -147.501 47s-56.5 75.333 -56.5 132v363h96v-346c0 -34 11 -60.333 33 -79s51.667 -28 89 -28c40.667 0 75.5 13.167 104.5 39.5s45.5 54.833 49.5 85.5v328
h95v-399l7 -131h-87zM204.001 696.001c-28.667 0 -46 -18 -52 -54l-76 11c12 83.333 56.333 125 133 125c25.333 0 48 -6.66699 68 -20s37.833 -26.666 53.5 -39.999s30.167 -20 43.5 -20c28.667 0 46 18 52 54l76 -11c-12 -83.333 -56.333 -125 -133 -125
c-25.333 0 -48 6.66699 -68 20s-37.833 26.666 -53.5 39.999s-30.167 20 -43.5 20z" />
    <glyph glyph-name="Umacron" unicode="&#x16a;" horiz-adv-x="772" 
d="M386 -12c-209.333 0 -314.004 98 -314.004 294v498h102v-499c0 -30.667 3 -57.167 9 -79.5s16.333 -43.333 31 -63s36.334 -34.5 65.001 -44.5s64.334 -15 107.001 -15s78.334 5 107.001 15s50.334 24.833 65.001 44.5s25 40.667 31 63s9 48.833 9 79.5v499h102v-498
c0 -196 -104.667 -294 -314 -294zM529.996 882h-288v90h288v-90z" />
    <glyph glyph-name="umacron" unicode="&#x16b;" horiz-adv-x="587" 
d="M443 0l-11.999 75.001c-18 -26.667 -42 -47.834 -72 -63.501s-63 -23.5 -99 -23.5c-60.667 0 -109.834 15.667 -147.501 47s-56.5 75.333 -56.5 132v363h96v-346c0 -34 11 -60.333 33 -79s51.667 -28 89 -28c40.667 0 75.5 13.167 104.5 39.5s45.5 54.833 49.5 85.5v328
h95v-399l7 -131h-87zM432.001 652.001h-288v90h288v-90z" />
    <glyph glyph-name="Ubreve" unicode="&#x16c;" horiz-adv-x="772" 
d="M386 -12c-209.333 0 -314.004 98 -314.004 294v498h102v-499c0 -30.667 3 -57.167 9 -79.5s16.333 -43.333 31 -63s36.334 -34.5 65.001 -44.5s64.334 -15 107.001 -15s78.334 5 107.001 15s50.334 24.833 65.001 44.5s25 40.667 31 63s9 48.833 9 79.5v499h102v-498
c0 -196 -104.667 -294 -314 -294zM385.996 825c-68 0 -116.333 17.167 -145 51.5s-42.667 85.5 -42 153.5h78c-0.666992 -44 7.5 -75.167 24.5 -93.5s45.167 -27.5 84.5 -27.5s67.5 9.16699 84.5 27.5s25.167 49.5 24.5 93.5h78c0.666992 -68 -13.333 -119.167 -42 -153.5
s-77 -51.5 -145 -51.5z" />
    <glyph glyph-name="ubreve" unicode="&#x16d;" horiz-adv-x="587" 
d="M443 0l-11.999 75.001c-18 -26.667 -42 -47.834 -72 -63.501s-63 -23.5 -99 -23.5c-60.667 0 -109.834 15.667 -147.501 47s-56.5 75.333 -56.5 132v363h96v-346c0 -34 11 -60.333 33 -79s51.667 -28 89 -28c40.667 0 75.5 13.167 104.5 39.5s45.5 54.833 49.5 85.5v328
h95v-399l7 -131h-87zM288.001 595.001c-68 0 -116.333 17.167 -145 51.5s-42.667 85.5 -42 153.5h78c-0.666992 -44 7.5 -75.167 24.5 -93.5s45.167 -27.5 84.5 -27.5s67.5 9.16699 84.5 27.5s25.167 49.5 24.5 93.5h78c0.666992 -68 -13.333 -119.167 -42 -153.5
s-77 -51.5 -145 -51.5z" />
    <glyph glyph-name="Uring" unicode="&#x16e;" horiz-adv-x="772" 
d="M386 -12c-209.333 0 -314.004 98 -314.004 294v498h102v-499c0 -30.667 3 -57.167 9 -79.5s16.333 -43.333 31 -63s36.334 -34.5 65.001 -44.5s64.334 -15 107.001 -15s78.334 5 107.001 15s50.334 24.833 65.001 44.5s25 40.667 31 63s9 48.833 9 79.5v499h102v-498
c0 -196 -104.667 -294 -314 -294zM269.996 926c0 34 10.333 61.833 31 83.5s49 32.5 85 32.5s64.333 -10.833 85 -32.5s31 -49.5 31 -83.5s-10.333 -61.833 -31 -83.5s-49 -32.5 -85 -32.5s-64.333 10.833 -85 32.5s-31 49.5 -31 83.5zM432.996 926
c0 14.667 -4.16699 26.334 -12.5 35.001s-19.833 13 -34.5 13s-26.167 -4.33301 -34.5 -13s-12.5 -20.334 -12.5 -35.001s4.16699 -26.334 12.5 -35.001s19.833 -13 34.5 -13s26.167 4.33301 34.5 13s12.5 20.334 12.5 35.001z" />
    <glyph glyph-name="uring" unicode="&#x16f;" horiz-adv-x="587" 
d="M443 0l-11.999 75.001c-18 -26.667 -42 -47.834 -72 -63.501s-63 -23.5 -99 -23.5c-60.667 0 -109.834 15.667 -147.501 47s-56.5 75.333 -56.5 132v363h96v-346c0 -34 11 -60.333 33 -79s51.667 -28 89 -28c40.667 0 75.5 13.167 104.5 39.5s45.5 54.833 49.5 85.5v328
h95v-399l7 -131h-87zM172.001 696.001c0 34 10.333 61.833 31 83.5s49 32.5 85 32.5s64.333 -10.833 85 -32.5s31 -49.5 31 -83.5s-10.333 -61.833 -31 -83.5s-49 -32.5 -85 -32.5s-64.333 10.833 -85 32.5s-31 49.5 -31 83.5zM335.001 696.001
c0 14.667 -4.16699 26.334 -12.5 35.001s-19.833 13 -34.5 13s-26.167 -4.33301 -34.5 -13s-12.5 -20.334 -12.5 -35.001s4.16699 -26.334 12.5 -35.001s19.833 -13 34.5 -13s26.167 4.33301 34.5 13s12.5 20.334 12.5 35.001z" />
    <glyph glyph-name="Uhungarumlaut" unicode="&#x170;" horiz-adv-x="772" 
d="M386 -12c-209.333 0 -314.004 98 -314.004 294v498h102v-499c0 -30.667 3 -57.167 9 -79.5s16.333 -43.333 31 -63s36.334 -34.5 65.001 -44.5s64.334 -15 107.001 -15s78.334 5 107.001 15s50.334 24.833 65.001 44.5s25 40.667 31 63s9 48.833 9 79.5v499h102v-498
c0 -196 -104.667 -294 -314 -294zM350.996 1030h112l-111 -208h-95zM510.996 1030h112l-111 -208h-95z" />
    <glyph glyph-name="uhungarumlaut" unicode="&#x171;" horiz-adv-x="587" 
d="M443 0l-11.999 75.001c-18 -26.667 -42 -47.834 -72 -63.501s-63 -23.5 -99 -23.5c-60.667 0 -109.834 15.667 -147.501 47s-56.5 75.333 -56.5 132v363h96v-346c0 -34 11 -60.333 33 -79s51.667 -28 89 -28c40.667 0 75.5 13.167 104.5 39.5s45.5 54.833 49.5 85.5v328
h95v-399l7 -131h-87zM253.001 800.001h112l-111 -208h-95zM413.001 800.001h112l-111 -208h-95z" />
    <glyph glyph-name="Uogonek" unicode="&#x172;" horiz-adv-x="772" 
d="M72 282l-0.00292969 497.999h102v-499c0 -30.667 3 -57.167 9 -79.5s16.333 -43.333 31 -63s36.334 -34.5 65.001 -44.5s64.334 -15 107.001 -15s78.334 5 107.001 15s50.334 24.833 65.001 44.5s25 40.667 31 63s9 48.833 9 79.5v499h102v-498
c0 -158.667 -67.667 -253 -203 -283c-28.667 -6 -52.334 -19 -71.001 -39s-28 -39.667 -28 -59c0 -26.667 15.333 -40 46 -40c5.33301 0 11.333 0.666992 18 2s13 2.83301 19 4.5s11.5 3.33398 16.5 5.00098s8.83301 3.16699 11.5 4.5s4 2.33301 4 3l22 -67
c-26.667 -16.667 -60.667 -25 -102 -25c-34 0 -62 8.5 -84 25.5s-33 43.167 -33 78.5c0 36 15 68.333 45 97c-192.667 7.33301 -289 105 -289 293z" />
    <glyph glyph-name="uogonek" unicode="&#x173;" horiz-adv-x="587" 
d="M260 -12c-60.667 0 -109.833 15.665 -147.5 46.998s-56.5 75.333 -56.5 132v363h96v-346c0 -34 10.667 -60.333 32 -79s49.666 -28 84.999 -28c41.333 0 77.5 13.833 108.5 41.5s47.833 55.5 50.5 83.5v328h95v-398l7 -132c-32 -10 -56 -23.667 -72 -41
s-24 -35.666 -24 -54.999c0 -28.667 15.333 -43 46 -43c22 0 45 5.66699 69 17l22 -65c-26.667 -16.667 -60.667 -25 -102 -25c-34 0 -62 8.5 -84 25.5s-33 43.167 -33 78.5c0 51.333 29 95 87 131l-10 64c-12.667 -27.333 -35.167 -50.666 -67.5 -69.999
s-66.166 -29 -101.499 -29z" />
    <glyph glyph-name="Wcircumflex" unicode="&#x174;" horiz-adv-x="954" 
d="M519 496l-42 149l-42 -149l-159 -508h-85l-165 792h104l86 -460l26 -157l45 157l144 460h92l144 -460l45 -157l26 157l86 460h104l-165 -792h-85zM431 1030h92l152 -208h-97l-101 127l-101 -127h-97z" />
    <glyph glyph-name="wcircumflex" unicode="&#x175;" horiz-adv-x="813" 
d="M448 292l-42 123l-42 -123l-106 -304h-94l-131 542h97l61 -282l25 -128l43 128l98 282h98l98 -282l43 -128l25 128l61 282h97l-131 -542h-94zM360 800h92l152 -208h-97l-101 127l-101 -127h-97z" />
    <glyph glyph-name="Ycircumflex" unicode="&#x176;" horiz-adv-x="730" 
d="M276 551l89 -141l89 141l149 229h115l-303 -456v-324h-100v324l-303 456h115zM319 1030h92l152 -208h-97l-101 127l-101 -127h-97z" />
    <glyph glyph-name="ycircumflex" unicode="&#x177;" horiz-adv-x="562" 
d="M550 530l-215 -495l-96 -235h-110l102 226l-219 504h108l109 -274l52 -131l51 131l110 274h108zM235 800h92l152 -208h-97l-101 127l-101 -127h-97z" />
    <glyph glyph-name="Ydieresis" unicode="&#x178;" horiz-adv-x="730" 
d="M276 551l89 -141l89 141l149 229h115l-303 -456v-324h-100v324l-303 456h115zM521 980v-111h-112v111h112zM321 980v-111h-112v111h112z" />
    <glyph glyph-name="Zacute" unicode="&#x179;" horiz-adv-x="688" 
d="M43 0v75l399 523l73 91l-232 -1h-221v92h583v-75l-399 -523l-73 -91l233 1h239v-92h-602zM386 1030h112l-111 -208h-95z" />
    <glyph glyph-name="zacute" unicode="&#x17a;" horiz-adv-x="547" 
d="M302 367l74 79l-125 -1h-196v85h445v-70l-268 -298l-72 -78l125 1h224v-85h-473v71zM315 800h112l-111 -208h-95z" />
    <glyph glyph-name="Zdotaccent" unicode="&#x17b;" horiz-adv-x="688" 
d="M43 0v75l399 523l73 91l-232 -1h-221v92h583v-75l-399 -523l-73 -91l233 1h239v-92h-602zM395 980v-111h-112v111h112z" />
    <glyph glyph-name="zdotaccent" unicode="&#x17c;" horiz-adv-x="547" 
d="M302 367l74 79l-125 -1h-196v85h445v-70l-268 -298l-72 -78l125 1h224v-85h-473v71zM324 750v-111h-112v111h112z" />
    <glyph glyph-name="Zcaron" unicode="&#x17d;" horiz-adv-x="688" 
d="M43 0v75l399 523l73 91l-232 -1h-221v92h583v-75l-399 -523l-73 -91l233 1h239v-92h-602zM385 822h-92l-152 208h97l101 -127l101 127h97z" />
    <glyph glyph-name="zcaron" unicode="&#x17e;" horiz-adv-x="547" 
d="M314 592h-92l-152 208h97l101 -127l101 127h97zM302 367l74 79l-125 -1h-196v85h445v-70l-268 -298l-72 -78l125 1h224v-85h-473v71z" />
    <glyph glyph-name="Schwa" unicode="&#x18f;" horiz-adv-x="798" 
d="M383 -12c-110.667 0 -193.334 34.3311 -248.001 102.998s-82 167.667 -82 297v40h580c-4 94 -28 163 -72 207s-103.667 66 -179 66c-65.333 1.33301 -115 -10.667 -149 -36s-57 -62.666 -69 -111.999l-104 13c13.333 66 46.333 120 99 162s127.334 63 224.001 63
c110.667 0 197.5 -34 260.5 -102s94.5 -167.667 94.5 -299s-31.5 -231.166 -94.5 -299.499s-149.833 -102.5 -260.5 -102.5zM383 76.998c74 0 133 21.666 177 64.999s68.333 110 73 200h-472c1.33301 -87.333 20.333 -153.666 57 -198.999s91.667 -67.333 165 -66z" />
    <glyph glyph-name="florin" unicode="&#x192;" horiz-adv-x="413" 
d="M129 -1l0.000976562 356h-109v85h109v131c0 29.333 2.66699 55 8 77s14.5 43.333 27.5 64s32.833 36.5 59.5 47.5s59.667 16.5 99 16.5c27.333 0 51 -4 71 -12l-9 -89c-18.667 9.33301 -39 13.666 -61 12.999c-36 -0.666992 -61.5 -9.33398 -76.5 -26.001
s-22.5 -49 -22.5 -97v-125h148v-85h-148v-362c0 -29.333 -2.66699 -55 -8 -77s-14.5 -43.333 -27.5 -64s-32.833 -36.5 -59.5 -47.5s-59.334 -16.5 -98.001 -16.5c-26.667 0 -50.667 4 -72 12l9 89c20.667 -9.33301 41 -13.666 61 -12.999
c36 0.666992 61.5 9.33398 76.5 26.001s22.5 49 22.5 97z" />
    <glyph glyph-name="Khook" unicode="&#x198;" horiz-adv-x="712" 
d="M622 695c-22.667 0 -41.999 -5.99902 -57.999 -17.999s-29.833 -28.833 -41.5 -50.5s-23.167 -44.5 -34.5 -68.5s-27 -51.5 -47 -82.5s-43 -58.5 -69 -82.5l327 -393h-136l-275 338c-29.333 -20 -65.333 -38.667 -108 -56v-282h-100v780h100v-392
c52.667 20.667 96.5 49.167 131.5 85.5s61 72 78 107l51 101c17 32.333 40 58.666 69 78.999s66.5 30.5 112.5 30.5c23.333 0 44.666 -3.66699 63.999 -11l-11 -95c-13.333 6.66699 -31 10 -53 10z" />
    <glyph glyph-name="khook" unicode="&#x199;" horiz-adv-x="561" 
d="M158 601l-0.000976562 -314.996l92 96l146 148h129l-229 -228l262 -302h-124l-205 240l-71 -68v-172h-95v607c0 29.333 2.5 55.166 7.5 77.499s14 43.666 27 63.999s32.833 36 59.5 47s59.334 16.5 98.001 16.5c26.667 0 50.667 -4 72 -12l-10 -89
c-17.333 9.33301 -37.333 13.666 -60 12.999c-36 -0.666992 -61.5 -9.33398 -76.5 -26.001s-22.5 -49 -22.5 -97z" />
    <glyph glyph-name="Ezh" unicode="&#x1b7;" horiz-adv-x="714" 
d="M341 -212c-96.667 0 -172.002 20 -226.002 60s-85.333 94 -94 162l103 11c6.66699 -46.667 28.834 -82 66.501 -106s87.834 -36 150.501 -36c71.333 0 127.833 18.5 169.5 55.5s62.5 90.5 62.5 160.5c0 66.667 -18.5 119.667 -55.5 159s-92.5 59 -166.5 59
c-24.667 0 -44 -5 -58 -15l-63 59l190 239l78 93l-197 -1h-234v92h562v-77l-245 -303c194 -14 291 -115.667 291 -305c0 -99.333 -31.167 -175.333 -93.5 -228s-142.5 -79 -240.5 -79z" />
    <glyph glyph-name="Acaron" unicode="&#x1cd;" horiz-adv-x="726" 
d="M166 1030h97l101 -126l100 126h97l-152 -208h-91zM13 0l301 791h98l301 -791h-108l-83 225h-318l-83 -225h-108zM490 313l-127 351l-127 -351h254z" />
    <glyph glyph-name="acaron" unicode="&#x1ce;" horiz-adv-x="581" 
d="M289 459c-40 0.666992 -69.167 -6.50098 -87.5 -21.501s-30.5 -37.833 -36.5 -68.5l-99 14c8 50.667 28.833 89.834 62.5 117.501s86.5 41.5 158.5 41.5c73.333 0 130 -16.167 170 -48.5s60 -80.833 60 -145.5v-216l7 -132h-87l-12 76c-18 -28 -44.333 -49.667 -79 -65
s-72 -23 -112 -23c-64 0 -111.667 13.833 -143 41.5s-47 66.167 -47 115.5c0 52 17.333 90 52 114s86 41 154 51l172 25v20c0 36 -11 62 -33 78s-55.333 24.667 -100 26zM144 147.999c0 -50.667 32 -76.001 96 -76.001c46 -0.666992 86.333 12.333 121 39s55 56 61 88v62
l-163 -26c-38.667 -6 -67.5 -15.167 -86.5 -27.5s-28.5 -32.166 -28.5 -59.499zM333 591.998h-92l-152 208h97l101 -127l101 127h97z" />
    <glyph glyph-name="Icaron" unicode="&#x1cf;" horiz-adv-x="296" 
d="M198 780v-780h-100v780h100zM194 822h-92l-152 208h97l101 -127l101 127h97z" />
    <glyph glyph-name="icaron" unicode="&#x1d0;" horiz-adv-x="258" 
d="M81 0v530h96v-530h-96zM175 592h-92l-152 208h97l101 -127l101 127h97z" />
    <glyph glyph-name="Ocaron" unicode="&#x1d1;" horiz-adv-x="800" 
d="M400 701c-157.333 0 -236 -103.667 -236 -311s78.667 -311 236 -311s236 103.667 236 311s-78.667 311 -236 311zM400 -12c-115.333 0 -200.833 35.333 -256.5 106s-83.5 169.334 -83.5 296.001s27.833 225.334 83.5 296.001s141.167 106 256.5 106
s200.833 -35.333 256.5 -106s83.5 -169.334 83.5 -296.001s-27.833 -225.334 -83.5 -296.001s-141.167 -106 -256.5 -106zM446 822h-92l-152 208h97l101 -127l101 127h97z" />
    <glyph glyph-name="ocaron" unicode="&#x1d2;" horiz-adv-x="590" 
d="M341 592h-92l-152 208h97l101 -127l101 127h97zM295 74c48 0 85.667 15.5 113 46.5s41 79.167 41 144.5s-13.667 113.5 -41 144.5s-65 46.5 -113 46.5s-85.667 -15.5 -113 -46.5s-41 -79.167 -41 -144.5s13.667 -113.5 41 -144.5s65 -46.5 113 -46.5zM295 -12
c-78.667 0 -140 23.5 -184 70.5s-66 115.833 -66 206.5s22 159.5 66 206.5s105.333 70.5 184 70.5s140 -23.5 184 -70.5s66 -115.833 66 -206.5s-22 -159.5 -66 -206.5s-105.333 -70.5 -184 -70.5z" />
    <glyph glyph-name="Ucaron" unicode="&#x1d3;" horiz-adv-x="772" 
d="M386 -12c-209.333 0 -314.004 98 -314.004 294v498h102v-499c0 -30.667 3 -57.167 9 -79.5s16.333 -43.333 31 -63s36.334 -34.5 65.001 -44.5s64.334 -15 107.001 -15s78.334 5 107.001 15s50.334 24.833 65.001 44.5s25 40.667 31 63s9 48.833 9 79.5v499h102v-498
c0 -196 -104.667 -294 -314 -294zM431.996 822h-92l-152 208h97l101 -127l101 127h97z" />
    <glyph glyph-name="ucaron" unicode="&#x1d4;" horiz-adv-x="587" 
d="M443 0l-11.999 75.001c-18 -26.667 -42 -47.834 -72 -63.501s-63 -23.5 -99 -23.5c-60.667 0 -109.834 15.667 -147.501 47s-56.5 75.333 -56.5 132v363h96v-346c0 -34 11 -60.333 33 -79s51.667 -28 89 -28c40.667 0 75.5 13.167 104.5 39.5s45.5 54.833 49.5 85.5v328
h95v-399l7 -131h-87zM334.001 592.001h-92l-152 208h97l101 -127l101 127h97z" />
    <glyph glyph-name="Adieresismacron" unicode="&#x1de;" horiz-adv-x="726" 
d="M319 939v-111h-112v111h112zM519 939v-111h-112v111h112zM13 0l301 791h98l301 -791h-108l-83 225h-318l-83 -225h-108zM490 313l-127 351l-127 -351h254zM219 981v90h288v-90h-288z" />
    <glyph glyph-name="adieresismacron" unicode="&#x1df;" horiz-adv-x="581" 
d="M289 459c-40 0.666992 -69.167 -6.50098 -87.5 -21.501s-30.5 -37.833 -36.5 -68.5l-99 14c8 50.667 28.833 89.834 62.5 117.501s86.5 41.5 158.5 41.5c73.333 0 130 -16.167 170 -48.5s60 -80.833 60 -145.5v-216l7 -132h-87l-12 76c-18 -28 -44.333 -49.667 -79 -65
s-72 -23 -112 -23c-64 0 -111.667 13.833 -143 41.5s-47 66.167 -47 115.5c0 52 17.333 90 52 114s86 41 154 51l172 25v20c0 36 -11 62 -33 78s-55.333 24.667 -100 26zM144 147.999c0 -50.667 32 -76.001 96 -76.001c46 -0.666992 86.333 12.333 121 39s55 56 61 88v62
l-163 -26c-38.667 -6 -67.5 -15.167 -86.5 -27.5s-28.5 -32.166 -28.5 -59.499zM243 709.998v-111h-112v111h112zM443 709.998v-111h-112v111h112zM143 751.998v90h288v-90h-288z" />
    <glyph glyph-name="AEmacron" unicode="&#x1e2;" horiz-adv-x="1065" 
d="M532 0l-32 225h-261l-119 -225h-117l429 780h557v-92h-455l35 -243h377v-91h-364l37 -262h390v-92h-477zM445 615l-160 -302h202l-18 132zM664 882h-288v90h288v-90z" />
    <glyph glyph-name="aemacron" unicode="&#x1e3;" horiz-adv-x="960" 
d="M677 -12c-98 0 -167.664 35.665 -208.997 106.998c-50 -71.333 -127.333 -107 -232 -107c-64.667 0 -112.834 13.833 -144.501 41.5s-47.5 66.167 -47.5 115.5c0 54 20.167 94.5 60.5 121.5s93.833 40.5 160.5 40.5h157v45c0 38 -10.833 65 -32.5 81
s-55.167 24.667 -100.5 26c-39.333 0.666992 -68.333 -6.5 -87 -21.5s-31 -37.833 -37 -68.5l-99 14c8 50.667 28.833 89.834 62.5 117.501s86.5 41.5 158.5 41.5c95.333 0 159.666 -28.333 192.999 -85c43.333 56.667 108 85 194 85c79.333 0 138.833 -23.667 178.5 -71
s59.5 -115.666 59.5 -204.999v-40h-390c6.66699 -102.667 58 -154 154 -154c76 -2 120 26 132 84l100 -12c-6.66699 -46 -28.834 -83.5 -66.501 -112.5s-92.5 -43.5 -164.5 -43.5zM675.003 458.998c-44.667 0 -80.335 -12.665 -107.002 -37.998s-41.667 -63.333 -45 -114
h286c-1.33301 49.333 -13.166 87.166 -35.499 113.499s-55.166 39.166 -98.499 38.499zM147.002 148c0 -50.667 32 -75.999 96 -75.999c48 -0.666992 89 12.666 123 39.999s52.667 57 56 89v25h-155c-80 0 -120 -26 -120 -78zM621.002 652.001h-288v90h288v-90z" />
    <glyph glyph-name="Gstroke" unicode="&#x1e4;" horiz-adv-x="810" 
d="M800 177h-95.9971v-109c-50 -30.667 -98.167 -51.834 -144.5 -63.501s-99.833 -17.167 -160.5 -16.5c-114.667 0.666992 -199.834 36.334 -255.501 107.001s-83.5 169 -83.5 295c0 126.667 28 225.334 84 296.001s141.333 106 256 106
c93.333 0 165.166 -19.5 215.499 -58.5s79.833 -92.5 88.5 -160.5l-102 -11c-7.33301 48 -27.333 83.167 -60 105.5s-80 33.5 -142 33.5c-158 0 -237 -103.667 -237 -311c0 -206.667 79 -310.334 237 -311.001c85.333 0 153.666 16.667 204.999 50v48h-138v80h138v70h-168
v87h267v-157h96v-80z" />
    <glyph glyph-name="gstroke" unicode="&#x1e5;" horiz-adv-x="611" 
d="M282 -90l0.00195312 77.999h169v107c-16.667 -25.333 -39.834 -45.5 -69.501 -60.5s-62.834 -22.5 -99.501 -22.5c-74.667 0 -133 22.5 -175 67.5s-63 110.833 -63 197.5s21 152.5 63 197.5s100.333 67.5 175 67.5c38 0 72 -7.83301 102 -23.5s53.333 -37.167 70 -64.5
l12 76h87l-7 -132v-410h62v-78h-77c-16 -40 -44.833 -70.333 -86.5 -91s-92.167 -31 -151.5 -31c-81.333 0 -140.333 13.833 -177 41.5s-58 66.834 -64 117.501l100 14c10 -62 56 -92 138 -90c61.333 1.33301 105 14.333 131 39h-139zM451.002 225.999v102
c-4.66699 32 -21.5 60.833 -50.5 86.5s-64.833 38.5 -107.5 38.5c-47.333 0 -84 -14.5 -110 -43.5s-39 -73.167 -39 -132.5s13 -103.5 39 -132.5s62.667 -43.5 110 -43.5c42.667 0 78.5 12.833 107.5 38.5s45.833 54.5 50.5 86.5z" />
    <glyph glyph-name="Gcaron" unicode="&#x1e6;" horiz-adv-x="780" 
d="M60 390c0 126.667 28.0029 225.334 84.0029 296.001s141.333 106 256 106c93.333 0 165.166 -19.5 215.499 -58.5s79.833 -92.5 88.5 -160.5l-102 -11c-7.33301 48 -27.333 83.167 -60 105.5s-80 33.5 -142 33.5c-158 0 -237 -103.667 -237 -311
c0 -206.667 79 -310.334 237 -311.001c85.333 0 153.666 16.667 204.999 50v198h-168v87h267v-346c-50 -30.667 -98.167 -51.834 -144.5 -63.501s-99.833 -17.167 -160.5 -16.5c-114.667 0.666992 -199.834 36.334 -255.501 107.001s-83.5 169 -83.5 295zM437.003 822h-92
l-152 208h97l101 -127l101 127h97z" />
    <glyph glyph-name="gcaron" unicode="&#x1e7;" horiz-adv-x="611" 
d="M546 398l0.00195312 -410.001c0 -64.667 -22.833 -114.167 -68.5 -148.5s-107.167 -51.5 -184.5 -51.5c-81.333 0 -140.333 13.833 -177 41.5s-58 66.834 -64 117.501l100 14c10 -62 56 -92 138 -90c107.333 1.33301 161 39 161 113v111
c-16.667 -25.333 -39.834 -45.5 -69.501 -60.5s-62.834 -22.5 -99.501 -22.5c-74.667 0 -133 22.5 -175 67.5s-63 110.833 -63 197.5s21 152.5 63 197.5s100.333 67.5 175 67.5c38 0 72 -7.83301 102 -23.5s53.333 -37.167 70 -64.5l12 76h87zM451.002 225.999v102
c-4.66699 32 -21.5 60.833 -50.5 86.5s-64.833 38.5 -107.5 38.5c-47.333 0 -84 -14.5 -110 -43.5s-39 -73.167 -39 -132.5s13 -103.5 39 -132.5s62.667 -43.5 110 -43.5c42.667 0 78.5 12.833 107.5 38.5s45.833 54.5 50.5 86.5zM338.002 591.999h-92l-152 208h97l101 -127
l101 127h97z" />
    <glyph glyph-name="Kcaron" unicode="&#x1e8;" horiz-adv-x="712" 
d="M180 780v-388l357 388h141l-335 -352l356 -428h-136l-289 355l-94 -100v-255h-100v780h100zM389 822h-92l-152 208h97l101 -127l101 127h97z" />
    <glyph glyph-name="kcaron" unicode="&#x1e9;" horiz-adv-x="561" 
d="M158 0h-95v800h95v-514l92 96l146 148h129l-229 -228l262 -302h-124l-205 240l-71 -68v-172zM157 822h-92l-152 208h97l101 -127l101 127h97z" />
    <glyph glyph-name="Oogonek" unicode="&#x1ea;" horiz-adv-x="800" 
d="M740 390c0 -226.667 -83.333 -357.667 -250 -393c-28.667 -6 -53 -18.333 -73 -37s-30 -38.334 -30 -59.001c0 -26.667 15.333 -40 46 -40c5.33301 0 11.333 0.666992 18 2s13 2.83301 19 4.5s11.5 3.33398 16.5 5.00098s8.83301 3.16699 11.5 4.5s4 2.33301 4 3l22 -67
c-26.667 -16.667 -60.667 -25 -102 -25c-34 0 -62 8.5 -84 25.5s-33 43.167 -33 78.5c0 36 15.667 68.667 47 98c-98.667 10 -172 49.833 -220 119.5s-72 163.167 -72 280.5c0 126.667 27.833 225.334 83.5 296.001s141.167 106 256.5 106s200.833 -35.333 256.5 -106
s83.5 -169.334 83.5 -296.001zM400 701c-157.333 0 -236 -103.667 -236 -311s78.667 -311 236 -311s236 103.667 236 311s-78.667 311 -236 311z" />
    <glyph glyph-name="oogonek" unicode="&#x1eb;" horiz-adv-x="589" 
d="M545 265c0 -139.333 -51 -226.668 -153 -262.001c-28.667 -10 -53 -24.667 -73 -44s-30 -38.666 -30 -57.999c0 -26.667 15.333 -40 46 -40c5.33301 0 11.333 0.666992 18 2s13 2.83301 19 4.5s11.5 3.33398 16.5 5.00098s8.83301 3.16699 11.5 4.5s4 2.33301 4 3l22 -67
c-26.667 -16.667 -60.667 -25 -102 -25c-34 0 -62 8.5 -84 25.5s-33 43.167 -33 78.5c0 34 15.333 67 46 99c-66 7.33301 -117.167 34.166 -153.5 80.499s-54.5 110.833 -54.5 193.5c0 90.667 22 159.5 66 206.5s105.333 70.5 184 70.5s140 -23.5 184 -70.5
s66 -115.833 66 -206.5zM295 73.998c48 0 85.667 15.5 113 46.5s41 79.167 41 144.5s-13.667 113.5 -41 144.5s-65 46.5 -113 46.5s-85.667 -15.5 -113 -46.5s-41 -79.167 -41 -144.5s13.667 -113.5 41 -144.5s65 -46.5 113 -46.5z" />
    <glyph glyph-name="uni004F02DB00AF" unicode="&#x1ec;" horiz-adv-x="800" 
d="M740 390c0 -226.667 -83.333 -357.667 -250 -393c-28.667 -6 -53 -18.333 -73 -37s-30 -38.334 -30 -59.001c0 -26.667 15.333 -40 46 -40c5.33301 0 11.333 0.666992 18 2s13 2.83301 19 4.5s11.5 3.33398 16.5 5.00098s8.83301 3.16699 11.5 4.5s4 2.33301 4 3l22 -67
c-26.667 -16.667 -60.667 -25 -102 -25c-34 0 -62 8.5 -84 25.5s-33 43.167 -33 78.5c0 36 15.667 68.667 47 98c-98.667 10 -172 49.833 -220 119.5s-72 163.167 -72 280.5c0 126.667 27.833 225.334 83.5 296.001s141.167 106 256.5 106s200.833 -35.333 256.5 -106
s83.5 -169.334 83.5 -296.001zM400 701c-157.333 0 -236 -103.667 -236 -311s78.667 -311 236 -311s236 103.667 236 311s-78.667 311 -236 311zM544 882h-288v90h288v-90z" />
    <glyph glyph-name="oogonekmacron" unicode="&#x1ed;" horiz-adv-x="589" 
d="M545 265c0 -139.333 -51 -226.668 -153 -262.001c-28.667 -10 -53 -24.667 -73 -44s-30 -38.666 -30 -57.999c0 -26.667 15.333 -40 46 -40c5.33301 0 11.333 0.666992 18 2s13 2.83301 19 4.5s11.5 3.33398 16.5 5.00098s8.83301 3.16699 11.5 4.5s4 2.33301 4 3l22 -67
c-26.667 -16.667 -60.667 -25 -102 -25c-34 0 -62 8.5 -84 25.5s-33 43.167 -33 78.5c0 34 15.333 67 46 99c-66 7.33301 -117.167 34.166 -153.5 80.499s-54.5 110.833 -54.5 193.5c0 90.667 22 159.5 66 206.5s105.333 70.5 184 70.5s140 -23.5 184 -70.5
s66 -115.833 66 -206.5zM295 73.998c48 0 85.667 15.5 113 46.5s41 79.167 41 144.5s-13.667 113.5 -41 144.5s-65 46.5 -113 46.5s-85.667 -15.5 -113 -46.5s-41 -79.167 -41 -144.5s13.667 -113.5 41 -144.5s65 -46.5 113 -46.5zM439 651.998h-288v90h288v-90z" />
    <glyph glyph-name="Ezhcaron" unicode="&#x1ee;" horiz-adv-x="714" 
d="M341 -212c-96.667 0 -172.002 20 -226.002 60s-85.333 94 -94 162l103 11c6.66699 -46.667 28.834 -82 66.501 -106s87.834 -36 150.501 -36c71.333 0 127.833 18.5 169.5 55.5s62.5 90.5 62.5 160.5c0 66.667 -18.5 119.667 -55.5 159s-92.5 59 -166.5 59
c-24.667 0 -44 -5 -58 -15l-63 59l190 239l78 93l-197 -1h-234v92h562v-77l-245 -303c194 -14 291 -115.667 291 -305c0 -99.333 -31.167 -175.333 -93.5 -228s-142.5 -79 -240.5 -79zM379.998 822h-92l-152 208h97l101 -127l101 127h97z" />
    <glyph glyph-name="ezhcaron" unicode="&#x1ef;" horiz-adv-x="566" 
d="M274 -211c-155.333 0 -238.667 57.335 -250 172.002l99 14c10.667 -68 60 -102 148 -102c50.667 0 90.5 13.167 119.5 39.5s43.5 63.5 43.5 111.5c0 46.667 -14.333 83.167 -43 109.5s-67 39.5 -115 39.5c-40 0 -74.333 -10 -103 -30l-47 56l193 187l57 59h-326v85h457
v-73l-211 -208c8 1.33301 16 2 24 2c58 0 107.167 -20.833 147.5 -62.5s60.5 -96.834 60.5 -165.501c0 -74.667 -24.333 -132.334 -73 -173.001s-109 -61 -181 -61zM313.999 592.002h-92l-152 208h97l101 -127l101 127h97z" />
    <glyph glyph-name="jcaron" unicode="&#x1f0;" horiz-adv-x="258" 
d="M-12 -123c36 0.666992 61.334 9.16699 76.001 25.5s22 48.833 22 97.5v530h95v-537c0 -29.333 -2.66699 -55 -8 -77s-14.5 -43.167 -27.5 -63.5s-32.667 -36 -59 -47s-58.833 -16.5 -97.5 -16.5c-28 0 -51.667 3.66699 -71 11l9 90
c13.333 -8.66699 33.666 -13 60.999 -13zM180.001 592h-92l-152 208h97l101 -127l101 127h97z" />
    <glyph glyph-name="jcaron" unicode="&#xe10c;" horiz-adv-x="258" 
d="M-12 -123c36 0.666992 61.334 9.16699 76.001 25.5s22 48.833 22 97.5v530h95v-537c0 -29.333 -2.66699 -55 -8 -77s-14.5 -43.167 -27.5 -63.5s-32.667 -36 -59 -47s-58.833 -16.5 -97.5 -16.5c-28 0 -51.667 3.66699 -71 11l9 90
c13.333 -8.66699 33.666 -13 60.999 -13zM180.001 592h-92l-152 208h97l101 -127l101 127h97z" />
    <glyph glyph-name="Gacute" unicode="&#x1f4;" horiz-adv-x="780" 
d="M60 390c0 126.667 28.0029 225.334 84.0029 296.001s141.333 106 256 106c93.333 0 165.166 -19.5 215.499 -58.5s79.833 -92.5 88.5 -160.5l-102 -11c-7.33301 48 -27.333 83.167 -60 105.5s-80 33.5 -142 33.5c-158 0 -237 -103.667 -237 -311
c0 -206.667 79 -310.334 237 -311.001c85.333 0 153.666 16.667 204.999 50v198h-168v87h267v-346c-50 -30.667 -98.167 -51.834 -144.5 -63.501s-99.833 -17.167 -160.5 -16.5c-114.667 0.666992 -199.834 36.334 -255.501 107.001s-83.5 169 -83.5 295zM438.003 1030h112
l-111 -208h-95z" />
    <glyph glyph-name="gacute" unicode="&#x1f5;" horiz-adv-x="611" 
d="M546 398l0.00195312 -410.001c0 -64.667 -22.833 -114.167 -68.5 -148.5s-107.167 -51.5 -184.5 -51.5c-81.333 0 -140.333 13.833 -177 41.5s-58 66.834 -64 117.501l100 14c10 -62 56 -92 138 -90c107.333 1.33301 161 39 161 113v111
c-16.667 -25.333 -39.834 -45.5 -69.501 -60.5s-62.834 -22.5 -99.501 -22.5c-74.667 0 -133 22.5 -175 67.5s-63 110.833 -63 197.5s21 152.5 63 197.5s100.333 67.5 175 67.5c38 0 72 -7.83301 102 -23.5s53.333 -37.167 70 -64.5l12 76h87zM451.002 225.999v102
c-4.66699 32 -21.5 60.833 -50.5 86.5s-64.833 38.5 -107.5 38.5c-47.333 0 -84 -14.5 -110 -43.5s-39 -73.167 -39 -132.5s13 -103.5 39 -132.5s62.667 -43.5 110 -43.5c42.667 0 78.5 12.833 107.5 38.5s45.833 54.5 50.5 86.5zM339.002 799.999h112l-111 -208h-95z" />
    <glyph glyph-name="Ngrave" unicode="&#x1f8;" horiz-adv-x="754" 
d="M171 780l319 -471l86 -133l-3 235v369h101v-780h-91l-319 471l-86 133l3 -235v-369h-101v780h91zM218 1030h112l94 -208h-95z" />
    <glyph glyph-name="ngrave" unicode="&#x1f9;" horiz-adv-x="587" 
d="M145 530l11.999 -75.001c18 26.667 42 47.834 72 63.501s63 23.5 99 23.5c60.667 0 109.834 -15.667 147.501 -47s56.5 -75.333 56.5 -132v-363h-96v346c0 34 -11 60.333 -33 79s-51.667 28 -89 28c-40.667 0 -75.5 -13.167 -104.5 -39.5s-45.5 -54.833 -49.5 -85.5v-328
h-95v399l-7 131h87zM147.999 799.999h112l94 -208h-95z" />
    <glyph glyph-name="Aringacute" unicode="&#x1fa;" horiz-adv-x="726" 
d="M334 1134l96.001 -0.000976562l-59 -93c33.333 -1.33301 59.666 -12.666 78.999 -33.999s29 -48.333 29 -81c0 -34.667 -10.333 -62.667 -31 -84s-49 -32 -85 -32s-64.167 10.667 -84.5 32s-30.5 49.333 -30.5 84c0 22 5 43 15 63zM316.001 925.999
c0 -14.667 4.16699 -26.5 12.5 -35.5s19.833 -13.5 34.5 -13.5s26.167 4.5 34.5 13.5s12.5 20.833 12.5 35.5c0 14 -4.33301 25.5 -13 34.5s-20 13.5 -34 13.5s-25.333 -4.5 -34 -13.5s-13 -20.5 -13 -34.5zM13.001 -0.000976562l301 791h98l301 -791h-108l-83 225h-318
l-83 -225h-108zM490.001 312.999l-127 351l-127 -351h254z" />
    <glyph glyph-name="aringacute" unicode="&#x1fb;" horiz-adv-x="581" 
d="M353 904l-57.999 -93.001c33.333 -1.33301 59.666 -12.666 78.999 -33.999s29 -48.333 29 -81c0 -34 -10.333 -61.833 -31 -83.5s-49 -32.5 -85 -32.5s-64.333 10.667 -85 32s-31 49.333 -31 84c0 20 5 40 15 60l72 148h95zM287.001 743.999
c-14.667 0 -26.167 -4.33301 -34.5 -13s-12.5 -20.334 -12.5 -35.001s4.16699 -26.334 12.5 -35.001s19.833 -13 34.5 -13s26.167 4.33301 34.5 13s12.5 20.334 12.5 35.001s-4.16699 26.334 -12.5 35.001s-19.833 13 -34.5 13zM289.001 458.999
c-40 0.666992 -69.167 -6.50098 -87.5 -21.501s-30.5 -37.833 -36.5 -68.5l-99 14c8 50.667 28.833 89.834 62.5 117.501s86.5 41.5 158.5 41.5c73.333 0 130 -16.167 170 -48.5s60 -80.833 60 -145.5v-216l7 -132h-87l-12 76c-18 -28 -44.333 -49.667 -79 -65
s-72 -23 -112 -23c-64 0 -111.667 13.833 -143 41.5s-47 66.167 -47 115.5c0 52 17.333 90 52 114s86 41 154 51l172 25v20c0 36 -11 62 -33 78s-55.333 24.667 -100 26zM144.001 147.998c0 -50.667 32 -76.001 96 -76.001c46 -0.666992 86.333 12.333 121 39s55 56 61 88
v62l-163 -26c-38.667 -6 -67.5 -15.167 -86.5 -27.5s-28.5 -32.166 -28.5 -59.499z" />
    <glyph glyph-name="AEacute" unicode="&#x1fc;" horiz-adv-x="1065" 
d="M532 0l-32 225h-261l-119 -225h-117l429 780h557v-92h-455l35 -243h377v-91h-364l37 -262h390v-92h-477zM445 615l-160 -302h202l-18 132zM565 1030h112l-111 -208h-95z" />
    <glyph glyph-name="aeacute" unicode="&#x1fd;" horiz-adv-x="960" 
d="M677 -12c-98 0 -167.664 35.665 -208.997 106.998c-50 -71.333 -127.333 -107 -232 -107c-64.667 0 -112.834 13.833 -144.501 41.5s-47.5 66.167 -47.5 115.5c0 54 20.167 94.5 60.5 121.5s93.833 40.5 160.5 40.5h157v45c0 38 -10.833 65 -32.5 81
s-55.167 24.667 -100.5 26c-39.333 0.666992 -68.333 -6.5 -87 -21.5s-31 -37.833 -37 -68.5l-99 14c8 50.667 28.833 89.834 62.5 117.501s86.5 41.5 158.5 41.5c95.333 0 159.666 -28.333 192.999 -85c43.333 56.667 108 85 194 85c79.333 0 138.833 -23.667 178.5 -71
s59.5 -115.666 59.5 -204.999v-40h-390c6.66699 -102.667 58 -154 154 -154c76 -2 120 26 132 84l100 -12c-6.66699 -46 -28.834 -83.5 -66.501 -112.5s-92.5 -43.5 -164.5 -43.5zM675.003 458.998c-44.667 0 -80.335 -12.665 -107.002 -37.998s-41.667 -63.333 -45 -114
h286c-1.33301 49.333 -13.166 87.166 -35.499 113.499s-55.166 39.166 -98.499 38.499zM147.002 148c0 -50.667 32 -75.999 96 -75.999c48 -0.666992 89 12.666 123 39.999s52.667 57 56 89v25h-155c-80 0 -120 -26 -120 -78zM525.002 800.001h112l-111 -208h-95z" />
    <glyph glyph-name="Oslashacute" unicode="&#x1fe;" horiz-adv-x="800" 
d="M740 390c0 -126.667 -27.833 -225.334 -83.5 -296.001s-141.167 -106 -256.5 -106c-76.667 0 -141 16.667 -193 50l-25 -38h-79l53 80c-64 68 -96 171.333 -96 310c0 126.667 27.833 225.334 83.5 296.001s141.167 106 256.5 106c76.667 0 141 -16.667 193 -50l25 38h79
l-53 -80c64 -68 96 -171.333 96 -310zM164 390c0 -96 16.668 -170 50.001 -222l326 494c-36.667 26 -83.334 39 -140.001 39c-157.333 0 -236 -103.667 -236 -311zM636.001 390c0 96 -16.668 170 -50.001 222l-326 -494c36.667 -26 83.334 -39 140.001 -39
c157.333 0 236 103.667 236 311zM447 1030h112l-111 -208h-95z" />
    <glyph glyph-name="oslashacute" unicode="&#x1ff;" horiz-adv-x="590" 
d="M342 800h112l-111 -208h-95zM295 74c48 0 85.667 15.5 113 46.5s41 79.167 41 144.5c0 54.667 -10 97.667 -30 129l-204 -301c21.333 -12.667 48 -19 80 -19zM545 265c0 -90.667 -22 -159.5 -66 -206.5s-105.333 -70.5 -184 -70.5c-50 0 -93.667 10 -131 30l-12 -18h-73
l37 54c-47.333 47.333 -71 117.666 -71 210.999c0 90.667 22 159.5 66 206.5s105.333 70.5 184 70.5c50 0 93.667 -10 131 -30l12 18h73l-37 -54c47.333 -47.333 71 -117.666 71 -210.999zM295 456c-48 0 -85.667 -15.5 -113 -46.5s-41 -79.167 -41 -144.5
c0 -54.667 10 -97.667 30 -129l204 301c-21.333 12.667 -48 19 -80 19z" />
    <glyph glyph-name="Adoublegrave" unicode="&#x200;" horiz-adv-x="726" 
d="M13 0l301 791h98l301 -791h-108l-83 225h-318l-83 -225h-108zM490 313l-127 351l-127 -351h254zM287 1030h112l94 -208h-95zM127 1030h112l94 -208h-95z" />
    <glyph glyph-name="edoublegrave" unicode="&#x201;" horiz-adv-x="582" 
d="M534 226l-389.997 -0.000976562c6.66699 -102.667 58 -154 154 -154c76 -2 120 26 132 84l100 -12c-6.66699 -46 -28.834 -83.5 -66.501 -112.5s-92.5 -43.5 -164.5 -43.5c-80.667 0 -143.334 23.5 -188.001 70.5s-67 115.833 -67 206.5s22.167 159.5 66.5 206.5
s106.166 70.5 185.499 70.5s138.833 -23.667 178.5 -71s59.5 -115.666 59.5 -204.999v-40zM297.003 458.999c-44.667 0 -80.335 -12.665 -107.002 -37.998s-41.667 -63.333 -45 -114h286c-1.33301 49.333 -13.166 87.166 -35.499 113.499s-55.166 39.166 -98.499 38.499z
M219.002 800.001h112l94 -208h-95zM59.002 800.001h112l94 -208h-95z" />
    <glyph glyph-name="edoublegrave" unicode="&#x205;" horiz-adv-x="582" 
d="M534 226l-389.997 -0.000976562c6.66699 -102.667 58 -154 154 -154c76 -2 120 26 132 84l100 -12c-6.66699 -46 -28.834 -83.5 -66.501 -112.5s-92.5 -43.5 -164.5 -43.5c-80.667 0 -143.334 23.5 -188.001 70.5s-67 115.833 -67 206.5s22.167 159.5 66.5 206.5
s106.166 70.5 185.499 70.5s138.833 -23.667 178.5 -71s59.5 -115.666 59.5 -204.999v-40zM297.003 458.999c-44.667 0 -80.335 -12.665 -107.002 -37.998s-41.667 -63.333 -45 -114h286c-1.33301 49.333 -13.166 87.166 -35.499 113.499s-55.166 39.166 -98.499 38.499z
M219.002 800.001h112l94 -208h-95zM59.002 800.001h112l94 -208h-95z" />
    <glyph glyph-name="Ainvertedbreve" unicode="&#x202;" horiz-adv-x="726" 
d="M13 0l301 791h98l301 -791h-108l-83 225h-318l-83 -225h-108zM490 313l-127 351l-127 -351h254zM363 1027c68 0 116.333 -17.167 145 -51.5s42.667 -85.5 42 -153.5h-78c0.666992 44 -7.5 75.167 -24.5 93.5s-45.167 27.5 -84.5 27.5s-67.5 -9.16699 -84.5 -27.5
s-25.167 -49.5 -24.5 -93.5h-78c-0.666992 68 13.333 119.167 42 153.5s77 51.5 145 51.5z" />
    <glyph glyph-name="ainvertedbreve" unicode="&#x203;" horiz-adv-x="581" 
d="M289 459c-40 0.666992 -69.167 -6.50098 -87.5 -21.501s-30.5 -37.833 -36.5 -68.5l-99 14c8 50.667 28.833 89.834 62.5 117.501s86.5 41.5 158.5 41.5c73.333 0 130 -16.167 170 -48.5s60 -80.833 60 -145.5v-216l7 -132h-87l-12 76c-18 -28 -44.333 -49.667 -79 -65
s-72 -23 -112 -23c-64 0 -111.667 13.833 -143 41.5s-47 66.167 -47 115.5c0 52 17.333 90 52 114s86 41 154 51l172 25v20c0 36 -11 62 -33 78s-55.333 24.667 -100 26zM144 147.999c0 -50.667 32 -76.001 96 -76.001c46 -0.666992 86.333 12.333 121 39s55 56 61 88v62
l-163 -26c-38.667 -6 -67.5 -15.167 -86.5 -27.5s-28.5 -32.166 -28.5 -59.499zM287 796.998c68 0 116.333 -17.167 145 -51.5s42.667 -85.5 42 -153.5h-78c0.666992 44 -7.5 75.167 -24.5 93.5s-45.167 27.5 -84.5 27.5s-67.5 -9.16699 -84.5 -27.5
s-25.167 -49.5 -24.5 -93.5h-78c-0.666992 68 13.333 119.167 42 153.5s77 51.5 145 51.5z" />
    <glyph glyph-name="Edoublegrave" unicode="&#x204;" horiz-adv-x="693" 
d="M80 780h537v-92h-437v-243h394v-91h-394v-262h457v-92h-557v780zM281 1030h112l94 -208h-95zM121 1030h112l94 -208h-95z" />
    <glyph glyph-name="Einvertedbreve" unicode="&#x206;" horiz-adv-x="693" 
d="M80 780h537v-92h-437v-243h394v-91h-394v-262h457v-92h-557v780zM357 1027c68 0 116.333 -17.167 145 -51.5s42.667 -85.5 42 -153.5h-78c0.666992 44 -7.5 75.167 -24.5 93.5s-45.167 27.5 -84.5 27.5s-67.5 -9.16699 -84.5 -27.5s-25.167 -49.5 -24.5 -93.5h-78
c-0.666992 68 13.333 119.167 42 153.5s77 51.5 145 51.5z" />
    <glyph glyph-name="einvertedbreve" unicode="&#x207;" horiz-adv-x="582" 
d="M534 226l-389.997 -0.000976562c6.66699 -102.667 58 -154 154 -154c76 -2 120 26 132 84l100 -12c-6.66699 -46 -28.834 -83.5 -66.501 -112.5s-92.5 -43.5 -164.5 -43.5c-80.667 0 -143.334 23.5 -188.001 70.5s-67 115.833 -67 206.5s22.167 159.5 66.5 206.5
s106.166 70.5 185.499 70.5s138.833 -23.667 178.5 -71s59.5 -115.666 59.5 -204.999v-40zM297.003 458.999c-44.667 0 -80.335 -12.665 -107.002 -37.998s-41.667 -63.333 -45 -114h286c-1.33301 49.333 -13.166 87.166 -35.499 113.499s-55.166 39.166 -98.499 38.499z
M296.002 797.001c68 0 116.333 -17.167 145 -51.5s42.667 -85.5 42 -153.5h-78c0.666992 44 -7.5 75.167 -24.5 93.5s-45.167 27.5 -84.5 27.5s-67.5 -9.16699 -84.5 -27.5s-25.167 -49.5 -24.5 -93.5h-78c-0.666992 68 13.333 119.167 42 153.5s77 51.5 145 51.5z" />
    <glyph glyph-name="Idoublegrave" unicode="&#x208;" horiz-adv-x="296" 
d="M198 780v-780h-100v780h100zM72 1030h112l94 -208h-95zM-88 1030h112l94 -208h-95z" />
    <glyph glyph-name="idoublegrave" unicode="&#x209;" horiz-adv-x="258" 
d="M81 0v530h96v-530h-96zM52 800h112l94 -208h-95zM-108 800h112l94 -208h-95z" />
    <glyph glyph-name="Iinvertedbreve" unicode="&#x20a;" horiz-adv-x="296" 
d="M198 780v-780h-100v780h100zM148 1027c68 0 116.333 -17.167 145 -51.5s42.667 -85.5 42 -153.5h-78c0.666992 44 -7.5 75.167 -24.5 93.5s-45.167 27.5 -84.5 27.5s-67.5 -9.16699 -84.5 -27.5s-25.167 -49.5 -24.5 -93.5h-78c-0.666992 68 13.333 119.167 42 153.5
s77 51.5 145 51.5z" />
    <glyph glyph-name="iinvertedbreve" unicode="&#x20b;" horiz-adv-x="258" 
d="M81 0v530h96v-530h-96zM129 797c68 0 116.333 -17.167 145 -51.5s42.667 -85.5 42 -153.5h-78c0.666992 44 -7.5 75.167 -24.5 93.5s-45.167 27.5 -84.5 27.5s-67.5 -9.16699 -84.5 -27.5s-25.167 -49.5 -24.5 -93.5h-78c-0.666992 68 13.333 119.167 42 153.5
s77 51.5 145 51.5z" />
    <glyph glyph-name="Odoublegrave" unicode="&#x20c;" horiz-adv-x="800" 
d="M400 701c-157.333 0 -236 -103.667 -236 -311s78.667 -311 236 -311s236 103.667 236 311s-78.667 311 -236 311zM400 -12c-115.333 0 -200.833 35.333 -256.5 106s-83.5 169.334 -83.5 296.001s27.833 225.334 83.5 296.001s141.167 106 256.5 106
s200.833 -35.333 256.5 -106s83.5 -169.334 83.5 -296.001s-27.833 -225.334 -83.5 -296.001s-141.167 -106 -256.5 -106zM323 1030h112l94 -208h-95zM163 1030h112l94 -208h-95z" />
    <glyph glyph-name="odoublegrave" unicode="&#x20d;" horiz-adv-x="590" 
d="M218 800h112l94 -208h-95zM58 800h112l94 -208h-95zM295 74c48 0 85.667 15.5 113 46.5s41 79.167 41 144.5s-13.667 113.5 -41 144.5s-65 46.5 -113 46.5s-85.667 -15.5 -113 -46.5s-41 -79.167 -41 -144.5s13.667 -113.5 41 -144.5s65 -46.5 113 -46.5zM295 -12
c-78.667 0 -140 23.5 -184 70.5s-66 115.833 -66 206.5s22 159.5 66 206.5s105.333 70.5 184 70.5s140 -23.5 184 -70.5s66 -115.833 66 -206.5s-22 -159.5 -66 -206.5s-105.333 -70.5 -184 -70.5z" />
    <glyph glyph-name="Oinvertedbreve" unicode="&#x20e;" horiz-adv-x="800" 
d="M400 701c-157.333 0 -236 -103.667 -236 -311s78.667 -311 236 -311s236 103.667 236 311s-78.667 311 -236 311zM400 -12c-115.333 0 -200.833 35.333 -256.5 106s-83.5 169.334 -83.5 296.001s27.833 225.334 83.5 296.001s141.167 106 256.5 106
s200.833 -35.333 256.5 -106s83.5 -169.334 83.5 -296.001s-27.833 -225.334 -83.5 -296.001s-141.167 -106 -256.5 -106zM400 1027c68 0 116.333 -17.167 145 -51.5s42.667 -85.5 42 -153.5h-78c0.666992 44 -7.5 75.167 -24.5 93.5s-45.167 27.5 -84.5 27.5
s-67.5 -9.16699 -84.5 -27.5s-25.167 -49.5 -24.5 -93.5h-78c-0.666992 68 13.333 119.167 42 153.5s77 51.5 145 51.5z" />
    <glyph glyph-name="oinvertedbreve" unicode="&#x20f;" horiz-adv-x="590" 
d="M295 797c68 0 116.333 -17.167 145 -51.5s42.667 -85.5 42 -153.5h-78c0.666992 44 -7.5 75.167 -24.5 93.5s-45.167 27.5 -84.5 27.5s-67.5 -9.16699 -84.5 -27.5s-25.167 -49.5 -24.5 -93.5h-78c-0.666992 68 13.333 119.167 42 153.5s77 51.5 145 51.5zM295 74
c48 0 85.667 15.5 113 46.5s41 79.167 41 144.5s-13.667 113.5 -41 144.5s-65 46.5 -113 46.5s-85.667 -15.5 -113 -46.5s-41 -79.167 -41 -144.5s13.667 -113.5 41 -144.5s65 -46.5 113 -46.5zM295 -12c-78.667 0 -140 23.5 -184 70.5s-66 115.833 -66 206.5
s22 159.5 66 206.5s105.333 70.5 184 70.5s140 -23.5 184 -70.5s66 -115.833 66 -206.5s-22 -159.5 -66 -206.5s-105.333 -70.5 -184 -70.5z" />
    <glyph glyph-name="Rinvertedbreve" unicode="&#x212;" horiz-adv-x="707" 
d="M180 327v-327h-100v780h312c170 0 255 -75.333 255 -226c0 -125.333 -57 -198.333 -171 -219l204 -335h-123l-189 327h-188zM180 419l222 0.000976562c14.667 0 27.334 0.666992 38.001 2s23 4.5 37 9.5s25.333 12.167 34 21.5s16.167 22.666 22.5 39.999s9.5 38 9.5 62
s-3.16699 44.667 -9.5 62s-13.833 30.5 -22.5 39.5s-20 16.167 -34 21.5s-26.333 8.5 -37 9.5s-23.334 1.5 -38.001 1.5h-222v-269zM334 1027c68 0 116.333 -17.167 145 -51.5s42.667 -85.5 42 -153.5h-78c0.666992 44 -7.5 75.167 -24.5 93.5s-45.167 27.5 -84.5 27.5
s-67.5 -9.16699 -84.5 -27.5s-25.167 -49.5 -24.5 -93.5h-78c-0.666992 68 13.333 119.167 42 153.5s77 51.5 145 51.5z" />
    <glyph glyph-name="rinvertedbreve" unicode="&#x213;" horiz-adv-x="414" 
d="M326 450c-43.333 0 -80.499 -12.832 -111.499 -38.499s-49.167 -54.5 -54.5 -86.5v-325h-95v399l-7 131h87l13 -81c15.333 27.333 37.833 49.666 67.5 66.999s62.167 26 97.5 26c29.333 0 53 -3.66699 71 -11l-9 -93c-14.667 8 -34.334 12 -59.001 12zM222.001 797.001
c68 0 116.333 -17.167 145 -51.5s42.667 -85.5 42 -153.5h-78c0.666992 44 -7.5 75.167 -24.5 93.5s-45.167 27.5 -84.5 27.5s-67.5 -9.16699 -84.5 -27.5s-25.167 -49.5 -24.5 -93.5h-78c-0.666992 68 13.333 119.167 42 153.5s77 51.5 145 51.5z" />
    <glyph glyph-name="Udoublegrave" unicode="&#x214;" horiz-adv-x="772" 
d="M386 -12c-209.333 0 -314.004 98 -314.004 294v498h102v-499c0 -30.667 3 -57.167 9 -79.5s16.333 -43.333 31 -63s36.334 -34.5 65.001 -44.5s64.334 -15 107.001 -15s78.334 5 107.001 15s50.334 24.833 65.001 44.5s25 40.667 31 63s9 48.833 9 79.5v499h102v-498
c0 -196 -104.667 -294 -314 -294zM308.996 1030h112l94 -208h-95zM148.996 1030h112l94 -208h-95z" />
    <glyph glyph-name="udoublegrave" unicode="&#x215;" horiz-adv-x="587" 
d="M443 0l-11.999 75.001c-18 -26.667 -42 -47.834 -72 -63.501s-63 -23.5 -99 -23.5c-60.667 0 -109.834 15.667 -147.501 47s-56.5 75.333 -56.5 132v363h96v-346c0 -34 11 -60.333 33 -79s51.667 -28 89 -28c40.667 0 75.5 13.167 104.5 39.5s45.5 54.833 49.5 85.5v328
h95v-399l7 -131h-87zM215.001 800.001h112l94 -208h-95zM55.001 800.001h112l94 -208h-95z" />
    <glyph glyph-name="Uinvertedbreve" unicode="&#x216;" horiz-adv-x="772" 
d="M386 -12c-209.333 0 -314.004 98 -314.004 294v498h102v-499c0 -30.667 3 -57.167 9 -79.5s16.333 -43.333 31 -63s36.334 -34.5 65.001 -44.5s64.334 -15 107.001 -15s78.334 5 107.001 15s50.334 24.833 65.001 44.5s25 40.667 31 63s9 48.833 9 79.5v499h102v-498
c0 -196 -104.667 -294 -314 -294zM385.996 1027c68 0 116.333 -17.167 145 -51.5s42.667 -85.5 42 -153.5h-78c0.666992 44 -7.5 75.167 -24.5 93.5s-45.167 27.5 -84.5 27.5s-67.5 -9.16699 -84.5 -27.5s-25.167 -49.5 -24.5 -93.5h-78
c-0.666992 68 13.333 119.167 42 153.5s77 51.5 145 51.5z" />
    <glyph glyph-name="uinvertedbreve" unicode="&#x217;" horiz-adv-x="587" 
d="M443 0l-11.999 75.001c-18 -26.667 -42 -47.834 -72 -63.501s-63 -23.5 -99 -23.5c-60.667 0 -109.834 15.667 -147.501 47s-56.5 75.333 -56.5 132v363h96v-346c0 -34 11 -60.333 33 -79s51.667 -28 89 -28c40.667 0 75.5 13.167 104.5 39.5s45.5 54.833 49.5 85.5v328
h95v-399l7 -131h-87zM288.001 797.001c68 0 116.333 -17.167 145 -51.5s42.667 -85.5 42 -153.5h-78c0.666992 44 -7.5 75.167 -24.5 93.5s-45.167 27.5 -84.5 27.5s-67.5 -9.16699 -84.5 -27.5s-25.167 -49.5 -24.5 -93.5h-78c-0.666992 68 13.333 119.167 42 153.5
s77 51.5 145 51.5z" />
    <glyph glyph-name="Scommaaccent" unicode="&#x218;" horiz-adv-x="713" 
d="M358 79c54 0.666992 100.668 12.668 140.001 36.001s59 59.666 59 108.999c0 44 -14.167 76.333 -42.5 97s-80.5 34.667 -156.5 42c-32 2.66699 -59.667 6.16699 -83 10.5s-47.833 11.333 -73.5 21s-46.5 21.334 -62.5 35.001s-29.333 32 -40 55s-16 49.833 -16 80.5
c-0.666992 74.667 24.833 131.167 76.5 169.5s116.834 57.5 195.501 57.5c180.667 0 280.667 -71 300 -213l-102 -11c-6.66699 46.667 -25.667 80.5 -57 101.5s-78.333 31.5 -141 31.5c-18.667 0 -36.667 -2 -54 -6s-35.5 -10.5 -54.5 -19.5s-34.167 -22.833 -45.5 -41.5
s-17 -41.334 -17 -68.001c0 -35.333 12 -61.166 36 -77.499s71 -28.5 141 -36.5c52 -4.66699 94.167 -10.834 126.5 -18.501s62.166 -19.5 89.499 -35.5s47.333 -38.167 60 -66.5s19 -63.833 19 -106.5c0 -52.667 -14.667 -97.5 -44 -134.5s-65.833 -63.333 -109.5 -79
s-91.834 -23.5 -144.501 -23.5c-182.667 0 -284 72.667 -304 218l102 10c8 -48 28 -82.833 60 -104.5s79.333 -32.5 142 -32.5zM298.001 -61.999h117l-46 -138h-88z" />
    <glyph glyph-name="scommaaccent" unicode="&#x219;" horiz-adv-x="540" 
d="M266 72c94 2.66699 141 30.6709 141 84.0039c0 27.333 -8.83301 45.166 -26.5 53.499s-49.5 14.833 -95.5 19.5c-4 0.666992 -7.5 1 -10.5 1s-6.16699 0.333008 -9.5 1c-22.667 2.66699 -38.834 4.66699 -48.501 6s-25 4 -46 8s-36.833 9.16699 -47.5 15.5
s-22.334 14.333 -35.001 24s-21.834 22.167 -27.501 37.5s-8.5 32.666 -8.5 51.999c0 38.667 11.5 71.167 34.5 97.5s49.833 44.666 80.5 54.999s63.667 15.5 99 15.5c136 0 211.333 -52.667 226 -158l-100 -12c-6 29.333 -18.667 51.166 -38 65.499
s-48.666 21.166 -87.999 20.499c-77.333 -1.33301 -116 -27 -116 -77c0 -10.667 2.33301 -19.667 7 -27s9.83398 -13.166 15.501 -17.499s15.334 -8 29.001 -11s25.167 -5.16699 34.5 -6.5s24.333 -3 45 -5c71.333 -7.33301 120.333 -16.333 147 -27
c52 -22.667 78 -64.667 78 -126c0 -58 -23.5 -101.333 -70.5 -130s-103.167 -43 -168.5 -43c-140 0 -217 53 -231 159l100 13c6 -29.333 19 -51.5 39 -66.5s50.333 -22.167 91 -21.5zM214 -61.9961h117l-46 -138h-88z" />
    <glyph glyph-name="Hcaron" unicode="&#x21e;" horiz-adv-x="750" 
d="M570 780h100v-780h-100v354h-390v-354h-100v780h100v-335h390v335zM421 822h-92l-152 208h97l101 -127l101 127h97z" />
    <glyph glyph-name="hcaron" unicode="&#x21f;" horiz-adv-x="585" 
d="M158 800l-0.000976562 -342c38.667 56 94.667 84 168 84c60.667 0 109.834 -15.667 147.501 -47s56.5 -75.333 56.5 -132v-363h-96v346c0 34 -11 60.333 -33 79s-51.667 28 -89 28c-40.667 0 -75.5 -13.167 -104.5 -39.5s-45.5 -54.833 -49.5 -85.5v-328h-95v800h95z
M157.999 822h-92l-152 208h97l101 -127l101 127h97z" />
    <glyph glyph-name="Adotabove" unicode="&#x226;" horiz-adv-x="726" 
d="M13 0l301 791h98l301 -791h-108l-83 225h-318l-83 -225h-108zM490 313l-127 351l-127 -351h254zM419 980v-111h-112v111h112z" />
    <glyph glyph-name="adotabove" unicode="&#x227;" horiz-adv-x="581" 
d="M289 459c-40 0.666992 -69.167 -6.50098 -87.5 -21.501s-30.5 -37.833 -36.5 -68.5l-99 14c8 50.667 28.833 89.834 62.5 117.501s86.5 41.5 158.5 41.5c73.333 0 130 -16.167 170 -48.5s60 -80.833 60 -145.5v-216l7 -132h-87l-12 76c-18 -28 -44.333 -49.667 -79 -65
s-72 -23 -112 -23c-64 0 -111.667 13.833 -143 41.5s-47 66.167 -47 115.5c0 52 17.333 90 52 114s86 41 154 51l172 25v20c0 36 -11 62 -33 78s-55.333 24.667 -100 26zM144 147.999c0 -50.667 32 -76.001 96 -76.001c46 -0.666992 86.333 12.333 121 39s55 56 61 88v62
l-163 -26c-38.667 -6 -67.5 -15.167 -86.5 -27.5s-28.5 -32.166 -28.5 -59.499zM341 749.998v-111h-112v111h112z" />
    <glyph glyph-name="Otildemacron" unicode="&#x22c;" horiz-adv-x="800" 
d="M400 -12c-115.333 0 -200.833 35.333 -256.5 106s-83.5 169.334 -83.5 296.001s27.833 225.334 83.5 296.001s141.167 106 256.5 106s200.833 -35.333 256.5 -106s83.5 -169.334 83.5 -296.001s-27.833 -225.334 -83.5 -296.001s-141.167 -106 -256.5 -106zM400 701
c-157.333 0 -236 -103.667 -236 -311s78.667 -311 236 -311s236 103.667 236 311s-78.667 311 -236 311zM315 886c-28.667 0 -46 -18 -52 -54l-76 11c12 83.333 56.333 125 133 125c25.333 0 48 -6.66699 68 -20s37.833 -26.666 53.5 -39.999s30.167 -20 43.5 -20
c28.667 0 46 18 52 54l76 -11c-12 -83.333 -56.333 -125 -133 -125c-25.333 0 -48 6.66699 -68 20s-37.833 26.666 -53.5 39.999s-30.167 20 -43.5 20zM256 981v90h288v-90h-288z" />
    <glyph glyph-name="otildemacron" unicode="&#x22d;" horiz-adv-x="590" 
d="M295 74c48 0 85.667 15.5 113 46.5s41 79.167 41 144.5s-13.667 113.5 -41 144.5s-65 46.5 -113 46.5s-85.667 -15.5 -113 -46.5s-41 -79.167 -41 -144.5s13.667 -113.5 41 -144.5s65 -46.5 113 -46.5zM295 -12c-78.667 0 -140 23.5 -184 70.5s-66 115.833 -66 206.5
s22 159.5 66 206.5s105.333 70.5 184 70.5s140 -23.5 184 -70.5s66 -115.833 66 -206.5s-22 -159.5 -66 -206.5s-105.333 -70.5 -184 -70.5zM151 752v90h288v-90h-288zM215 646c-28.667 0 -46 -18 -52 -54l-76 11c12 83.333 56.333 125 133 125c25.333 0 48 -6.66699 68 -20
s37.833 -26.666 53.5 -39.999s30.167 -20 43.5 -20c28.667 0 46 18 52 54l76 -11c-12 -83.333 -56.333 -125 -133 -125c-25.333 0 -48 6.66699 -68 20s-37.833 26.666 -53.5 39.999s-30.167 20 -43.5 20z" />
    <glyph glyph-name="Odotabove" unicode="&#x22e;" horiz-adv-x="800" 
d="M400 701c-157.333 0 -236 -103.667 -236 -311s78.667 -311 236 -311s236 103.667 236 311s-78.667 311 -236 311zM400 -12c-115.333 0 -200.833 35.333 -256.5 106s-83.5 169.334 -83.5 296.001s27.833 225.334 83.5 296.001s141.167 106 256.5 106
s200.833 -35.333 256.5 -106s83.5 -169.334 83.5 -296.001s-27.833 -225.334 -83.5 -296.001s-141.167 -106 -256.5 -106zM456 980v-111h-112v111h112z" />
    <glyph glyph-name="odotabove" unicode="&#x22f;" horiz-adv-x="590" 
d="M295 74c48 0 85.667 15.5 113 46.5s41 79.167 41 144.5s-13.667 113.5 -41 144.5s-65 46.5 -113 46.5s-85.667 -15.5 -113 -46.5s-41 -79.167 -41 -144.5s13.667 -113.5 41 -144.5s65 -46.5 113 -46.5zM295 -12c-78.667 0 -140 23.5 -184 70.5s-66 115.833 -66 206.5
s22 159.5 66 206.5s105.333 70.5 184 70.5s140 -23.5 184 -70.5s66 -115.833 66 -206.5s-22 -159.5 -66 -206.5s-105.333 -70.5 -184 -70.5zM351 750v-111h-112v111h112z" />
    <glyph glyph-name="odotabovemacron" unicode="&#x231;" horiz-adv-x="590" 
d="M295 -12c-78.667 0 -140 23.5 -184 70.5s-66 115.833 -66 206.5s22 159.5 66 206.5s105.333 70.5 184 70.5s140 -23.5 184 -70.5s66 -115.833 66 -206.5s-22 -159.5 -66 -206.5s-105.333 -70.5 -184 -70.5zM295 74c48 0 85.667 15.5 113 46.5s41 79.167 41 144.5
s-13.667 113.5 -41 144.5s-65 46.5 -113 46.5s-85.667 -15.5 -113 -46.5s-41 -79.167 -41 -144.5s13.667 -113.5 41 -144.5s65 -46.5 113 -46.5zM351 710v-111h-112v111h112zM143 752v90h288v-90h-288z" />
    <glyph glyph-name="odotabovemacron" unicode="&#xe11e;" horiz-adv-x="590" 
d="M295 -12c-78.667 0 -140 23.5 -184 70.5s-66 115.833 -66 206.5s22 159.5 66 206.5s105.333 70.5 184 70.5s140 -23.5 184 -70.5s66 -115.833 66 -206.5s-22 -159.5 -66 -206.5s-105.333 -70.5 -184 -70.5zM295 74c48 0 85.667 15.5 113 46.5s41 79.167 41 144.5
s-13.667 113.5 -41 144.5s-65 46.5 -113 46.5s-85.667 -15.5 -113 -46.5s-41 -79.167 -41 -144.5s13.667 -113.5 41 -144.5s65 -46.5 113 -46.5zM351 710v-111h-112v111h112zM143 752v90h288v-90h-288z" />
    <glyph glyph-name="Ymacron" unicode="&#x232;" horiz-adv-x="730" 
d="M276 551l89 -141l89 141l149 229h115l-303 -456v-324h-100v324l-303 456h115zM509 882h-288v90h288v-90z" />
    <glyph glyph-name="ymacron" unicode="&#x233;" horiz-adv-x="562" 
d="M550 530l-215 -495l-96 -235h-110l102 226l-219 504h108l109 -274l52 -131l51 131l110 274h108zM425 652h-288v90h288v-90z" />
    <glyph glyph-name="dotlessj" unicode="&#x237;" horiz-adv-x="258" 
d="M86 -1l0.000976562 530.996h96v-537c0 -29.333 -2.66699 -55.166 -8 -77.499s-14.5 -43.666 -27.5 -63.999s-32.833 -36 -59.5 -47s-59.334 -16.5 -98.001 -16.5c-26.667 0 -50.667 4 -72 12l10 89c17.333 -9.33301 37.333 -13.666 60 -12.999
c36 0.666992 61.5 9.33398 76.5 26.001s22.5 49 22.5 97z" />
    <glyph glyph-name="schwa" unicode="&#x259;" horiz-adv-x="582" 
d="M48 304l389.997 0.000976562c-6.66699 102.667 -58 154 -154 154c-76 2 -120 -26 -132 -84l-100 12c6.66699 46 28.834 83.5 66.501 112.5s92.5 43.5 164.5 43.5c80.667 0 143.334 -23.5 188.001 -70.5s67 -115.833 67 -206.5s-22.167 -159.5 -66.5 -206.5
s-106.166 -70.5 -185.499 -70.5s-138.833 23.667 -178.5 71s-59.5 115.666 -59.5 204.999v40zM284.997 71.001c44.667 0 80.335 12.665 107.002 37.998s41.667 63.333 45 114h-286c1.33301 -49.333 13.166 -87.166 35.499 -113.499s55.166 -39.166 98.499 -38.499z" />
    <glyph glyph-name="ezh" unicode="&#x292;" horiz-adv-x="566" 
d="M274 -211c-155.333 0 -238.667 57.335 -250 172.002l99 14c10.667 -68 60 -102 148 -102c50.667 0 90.5 13.167 119.5 39.5s43.5 63.5 43.5 111.5c0 46.667 -14.333 83.167 -43 109.5s-67 39.5 -115 39.5c-40 0 -74.333 -10 -103 -30l-47 56l193 187l57 59h-326v85h457
v-73l-211 -208c8 1.33301 16 2 24 2c58 0 107.167 -20.833 147.5 -62.5s60.5 -96.834 60.5 -165.501c0 -74.667 -24.333 -132.334 -73 -173.001s-109 -61 -181 -61z" />
    <glyph glyph-name="circumflex" unicode="&#x2c6;" horiz-adv-x="600" 
d="M254 800h92l152 -208h-97l-101 127l-101 -127h-97z" />
    <glyph glyph-name="caron" unicode="&#x2c7;" horiz-adv-x="600" 
d="M346 592h-92l-152 208h97l101 -127l101 127h97z" />
    <glyph glyph-name="breve" unicode="&#x2d8;" horiz-adv-x="600" 
d="M300 595c-68 0 -116.333 17.167 -145 51.5s-42.667 85.5 -42 153.5h78c-0.666992 -44 7.5 -75.167 24.5 -93.5s45.167 -27.5 84.5 -27.5s67.5 9.16699 84.5 27.5s25.167 49.5 24.5 93.5h78c0.666992 -68 -13.333 -119.167 -42 -153.5s-77 -51.5 -145 -51.5z" />
    <glyph glyph-name="dotaccent" unicode="&#x2d9;" horiz-adv-x="600" 
d="M356 750v-111h-112v111h112z" />
    <glyph glyph-name="ring" unicode="&#x2da;" horiz-adv-x="600" 
d="M184 696c0 34 10.333 61.833 31 83.5s49 32.5 85 32.5s64.333 -10.833 85 -32.5s31 -49.5 31 -83.5s-10.333 -61.833 -31 -83.5s-49 -32.5 -85 -32.5s-64.333 10.833 -85 32.5s-31 49.5 -31 83.5zM347 696c0 14.667 -4.16699 26.334 -12.5 35.001s-19.833 13 -34.5 13
s-26.167 -4.33301 -34.5 -13s-12.5 -20.334 -12.5 -35.001s4.16699 -26.334 12.5 -35.001s19.833 -13 34.5 -13s26.167 4.33301 34.5 13s12.5 20.334 12.5 35.001z" />
    <glyph glyph-name="ogonek" unicode="&#x2db;" horiz-adv-x="600" 
d="M486 62l20 -62c-34 -4 -63.5 -15.833 -88.5 -35.5s-37.5 -40.834 -37.5 -63.501c0 -26.667 15.333 -40 46 -40c5.33301 0 11.333 0.666992 18 2s13 2.83301 19 4.5s11.5 3.33398 16.5 5.00098s8.83301 3.16699 11.5 4.5s4 2.33301 4 3l22 -67
c-26.667 -16.667 -60.667 -25 -102 -25c-34 0 -62 8.5 -84 25.5s-33 43.167 -33 78.5c0 37.333 17.333 71.5 52 102.5s80 53.5 136 67.5z" />
    <glyph glyph-name="tilde" unicode="&#x2dc;" horiz-adv-x="600" 
d="M215 696c-28.667 0 -46 -18 -52 -54l-76 11c12 83.333 56.333 125 133 125c25.333 0 48 -6.66699 68 -20s37.833 -26.666 53.5 -39.999s30.167 -20 43.5 -20c28.667 0 46 18 52 54l76 -11c-12 -83.333 -56.333 -125 -133 -125c-25.333 0 -48 6.66699 -68 20
s-37.833 26.666 -53.5 39.999s-30.167 20 -43.5 20z" />
    <glyph glyph-name="hungarumlaut" unicode="&#x2dd;" horiz-adv-x="600" 
d="M265 800h112l-111 -208h-95zM425 800h112l-111 -208h-95z" />
    <glyph glyph-name="uni0312" unicode="&#x312;" horiz-adv-x="600" 
d="M347 592h-108l69 208h86z" />
    <glyph glyph-name="uni0323" unicode="&#x323;" horiz-adv-x="600" 
d="M356 -62v-111h-112v111h112z" />
    <glyph glyph-name="uni0329" unicode="&#x329;" horiz-adv-x="600" 
d="M335 -200h-71v160h71v-160z" />
    <glyph glyph-name="pi" unicode="&#x3c0;" horiz-adv-x="709" 
d="M660 443l-144.998 0.00488281v-281c0 -29.333 5.66699 -50.833 17 -64.5s31.666 -20.834 60.999 -21.501c21.333 -0.666992 41.333 3.66602 60 12.999l10 -89c-21.333 -8 -45.333 -12 -72 -12c-33.333 0 -61.833 5.16699 -85.5 15.5s-41.334 24.166 -53.001 41.499
s-20 34.666 -25 51.999s-7.5 35.666 -7.5 54.999v291h-169v-355l-15 -88h-88l7 131v312h-126v87h631v-87z" />
    <glyph glyph-name="afii10023" unicode="&#x401;" horiz-adv-x="688" 
d="M80 780h532v-92h-432v-242h388v-92h-388v-262h452v-92h-552v780zM303 980v-111h-111v111h111zM503 980v-111h-111v111h111z" />
    <glyph glyph-name="afii10051" unicode="&#x402;" horiz-adv-x="756" 
d="M316 688l0.00195312 -257c39.333 39.333 95.666 59 168.999 59c81.333 0 142.166 -21.5 182.499 -64.5s60.5 -105.167 60.5 -186.5c0 -80 -19.167 -141.833 -57.5 -185.5s-92.833 -65.5 -163.5 -65.5c-26.667 0 -50.667 4 -72 12l9 91
c14.667 -6.66699 32.334 -10 53.001 -10c40 0 71.5 13.833 94.5 41.5s34.5 66.5 34.5 116.5c0 106 -51.667 159 -155 159c-43.333 0 -79.333 -10 -108 -30s-44.334 -42 -47.001 -66v-302h-100v688h-193v92h486v-92h-193z" />
    <glyph glyph-name="afii10052" unicode="&#x403;" horiz-adv-x="589" 
d="M180 688v-688h-100v780h496v-92h-396zM375 1030h112l-111 -208h-95z" />
    <glyph glyph-name="afii10053" unicode="&#x404;" horiz-adv-x="748" 
d="M395 700c-142 0 -219 -84.667 -231 -254h389v-92h-390c4 -84 23.5 -150.667 58.5 -200s92.833 -74 173.5 -74c62 0 108.667 10.833 140 32.5s50.666 56.834 57.999 105.501l103 -11c-20.667 -146 -121 -219 -301 -219c-114.667 0 -199.334 35.167 -254.001 105.5
s-82 169.166 -82 296.499s27.333 226.166 82 296.499s139.334 105.5 254.001 105.5c180 0 280.333 -73 301 -219l-103 -11c-7.33301 48.667 -26.666 83.834 -57.999 105.501s-78 32.5 -140 32.5z" />
    <glyph glyph-name="afii10054" unicode="&#x405;" horiz-adv-x="713" 
d="M358 79c54 0.666992 100.668 12.668 140.001 36.001s59 59.666 59 108.999c0 44 -14.167 76.333 -42.5 97s-80.5 34.667 -156.5 42c-32 2.66699 -59.667 6.16699 -83 10.5s-47.833 11.333 -73.5 21s-46.5 21.334 -62.5 35.001s-29.333 32 -40 55s-16 49.833 -16 80.5
c-0.666992 74.667 24.833 131.167 76.5 169.5s116.834 57.5 195.501 57.5c180.667 0 280.667 -71 300 -213l-102 -11c-6.66699 46.667 -25.667 80.5 -57 101.5s-78.333 31.5 -141 31.5c-18.667 0 -36.667 -2 -54 -6s-35.5 -10.5 -54.5 -19.5s-34.167 -22.833 -45.5 -41.5
s-17 -41.334 -17 -68.001c0 -35.333 12 -61.166 36 -77.499s71 -28.5 141 -36.5c52 -4.66699 94.167 -10.834 126.5 -18.501s62.166 -19.5 89.499 -35.5s47.333 -38.167 60 -66.5s19 -63.833 19 -106.5c0 -52.667 -14.667 -97.5 -44 -134.5s-65.833 -63.333 -109.5 -79
s-91.834 -23.5 -144.501 -23.5c-182.667 0 -284 72.667 -304 218l102 10c8 -48 28 -82.833 60 -104.5s79.333 -32.5 142 -32.5z" />
    <glyph glyph-name="afii10055" unicode="&#x406;" horiz-adv-x="295" 
d="M198 780v-780h-100v780h100z" />
    <glyph glyph-name="afii10056" unicode="&#x407;" horiz-adv-x="295" 
d="M198 780v-780h-100v780h100zM103 980v-111h-111v111h111zM303 980v-111h-111v111h111z" />
    <glyph glyph-name="afii10057" unicode="&#x408;" horiz-adv-x="512" 
d="M340 780l100.002 0.000976562v-580c0 -62 -17.833 -112.833 -53.5 -152.5s-91.167 -59.5 -166.5 -59.5c-39.333 0 -72.666 4.83301 -99.999 14.5s-48 23.667 -62 42s-24 37.166 -30 56.499s-10 42 -12 68l100 13c3.33301 -34.667 12.166 -60.5 26.499 -77.5
s40.166 -25.5 77.499 -25.5c45.333 0 76.666 10 93.999 30s26 51.667 26 95v576z" />
    <glyph glyph-name="afii10058" unicode="&#x409;" horiz-adv-x="1163" 
d="M663 780v-339.001h226c34.667 0 65.334 -3 92.001 -9s51.834 -16.667 75.501 -32s42 -38.166 55 -68.499s19.5 -67.5 19.5 -111.5s-6.5 -81 -19.5 -111s-31.333 -52.667 -55 -68s-48.834 -26 -75.501 -32s-57.334 -9 -92.001 -9h-326v688h-199l-27 -200
c-10 -68.667 -20.167 -127.5 -30.5 -176.5s-23.333 -94.167 -39 -135.5s-33.834 -74.333 -54.501 -99s-45.167 -43.667 -73.5 -57s-61.166 -20 -98.499 -20h-13l-1 92h10c56 0 98 30.5 126 91.5s51.667 164.167 71 309.5l38 287h391zM663 348.999v-257.002h220
c19.333 0 35.833 1.16699 49.5 3.5s28.5 7.33301 44.5 15s28.333 20.667 37 39s13 41.833 13 70.5s-4.33301 52.334 -13 71.001s-21 31.834 -37 39.501s-30.833 12.667 -44.5 15s-30.167 3.5 -49.5 3.5h-220z" />
    <glyph glyph-name="afii10059" unicode="&#x40a;" horiz-adv-x="1169" 
d="M669 780v-339.001h227c34.667 0 65.167 -3 91.5 -9s51.5 -16.667 75.5 -32s42.333 -38.166 55 -68.499s19 -67.5 19 -111.5s-6.33301 -81 -19 -111s-31 -52.667 -55 -68s-49.167 -26 -75.5 -32s-56.833 -9 -91.5 -9h-327v349h-389v-349h-100v780h100v-339h389v339h100z
M669 348.999v-257.003h220c15.333 0 28.5 0.5 39.5 1.5s23.667 4 38 9s25.833 11.833 34.5 20.5s16.167 21.334 22.5 38.001s9.5 36.334 9.5 59.001c0 23.333 -3.16699 43.333 -9.5 60s-13.833 29.334 -22.5 38.001s-20.167 15.5 -34.5 20.5s-27 8 -38 9
s-24.167 1.5 -39.5 1.5h-220z" />
    <glyph glyph-name="afii10060" unicode="&#x40b;" horiz-adv-x="743" 
d="M216 0l-0.000976562 688h-193v92h486v-92h-193v-288c42 60 102.667 90 182 90c54.667 0 99.834 -14.667 135.501 -44s53.5 -70 53.5 -122v-324h-101v294c0 68 -39 102 -117 102c-41.333 0 -76.833 -13.167 -106.5 -39.5s-45.167 -55.833 -46.5 -88.5v-268h-100z" />
    <glyph glyph-name="afii10061" unicode="&#x40c;" horiz-adv-x="712" 
d="M680 780l-178.001 -292c-27.333 -44 -56 -73.333 -86 -88c33.333 -16 63 -45.667 89 -89l190 -311h-124l-162 281c-15.333 26 -30.833 44.667 -46.5 56s-36.5 17 -62.5 17h-120v-354h-100v780h100v-334h117c26 0 46.833 5.66699 62.5 17s30.834 30 45.501 56l151 261h124
zM397.999 1030h112l-111 -208h-95z" />
    <glyph glyph-name="afii10062" unicode="&#x40e;" horiz-adv-x="684" 
d="M179 78c26.667 0 48 7.49707 64 22.4971s32 38.5 48 70.5l17 40l-262 569h106l205 -461l203 461h106l-274 -613c-12 -27.333 -23 -49.666 -33 -66.999s-23.333 -35.666 -40 -54.999s-36.667 -33.666 -60 -42.999s-50 -14 -80 -14c-49.333 0 -88 7.66699 -116 23l11 90
c27.333 -15.333 62.333 -23 105 -23zM466 1030h78c0 -68 -14.167 -119.167 -42.5 -153.5s-76.5 -51.5 -144.5 -51.5s-116.333 17.167 -145 51.5s-43 85.5 -43 153.5h78c0 -44 8.5 -75.167 25.5 -93.5s45.167 -27.5 84.5 -27.5c38.667 0 66.5 9.16699 83.5 27.5
s25.5 49.5 25.5 93.5z" />
    <glyph glyph-name="afii10145" unicode="&#x40f;" horiz-adv-x="764" 
d="M80 0v780h100v-688h389v688h100v-780h-244v-160h-100v160h-245z" />
    <glyph glyph-name="afii10017" unicode="&#x410;" horiz-adv-x="726" 
d="M13 0l301 791h98l301 -791h-108l-83 225h-318l-83 -225h-108zM490 313l-127 351l-127 -351h254z" />
    <glyph glyph-name="afii10018" unicode="&#x411;" horiz-adv-x="696" 
d="M576 688l-396 -0.000976562v-247h226c34.667 0 65.334 -3 92.001 -9s51.834 -16.667 75.501 -32s42 -38.166 55 -68.499s19.5 -67.5 19.5 -111.5s-6.5 -81 -19.5 -111s-31.333 -52.667 -55 -68s-48.834 -26 -75.501 -32s-57.334 -9 -92.001 -9h-326v780h496v-92z
M400 348.999l-220 -0.00195312v-257h220c19.333 0 35.833 1.16699 49.5 3.5s28.5 7.33301 44.5 15s28.333 20.667 37 39s13 41.833 13 70.5s-4.33301 52.334 -13 71.001s-21 31.834 -37 39.501s-30.833 12.667 -44.5 15s-30.167 3.5 -49.5 3.5z" />
    <glyph glyph-name="afii10019" unicode="&#x412;" horiz-adv-x="699" 
d="M402 0l-322.001 -0.00292969v780h316c20.667 0 40.667 -1.66699 60 -5s39.333 -9.66602 60 -18.999s38.5 -21.333 53.5 -36s27.333 -34.667 37 -60s14.5 -54.333 14.5 -87c0 -45.333 -9.33301 -82.166 -28 -110.499s-40.334 -46.833 -65.001 -55.5
c34.667 -8 63.334 -28.333 86.001 -61s34 -75 34 -127c0 -43.333 -6.66699 -80.166 -20 -110.499s-32.166 -53 -56.499 -68s-50 -25.5 -77 -31.5s-57.833 -9 -92.5 -9zM179.999 91.9971l214.002 -0.000976562c15.333 0 28.333 0.5 39 1.5s23.5 3.83301 38.5 8.5
s27.333 11.334 37 20.001s18 21.334 25 38.001s10.5 36.667 10.5 60c0 28.667 -4.33301 52.667 -13 72s-20.834 33.166 -36.501 41.499s-30.834 13.833 -45.501 16.5s-31.667 4 -51 4h-218v-262zM386.001 687.996h-206v-243h206c42.667 0 75.167 9 97.5 27
s33.5 50.333 33.5 97c0 46 -10.833 77.333 -32.5 94s-54.5 25 -98.5 25z" />
    <glyph glyph-name="afii10020" unicode="&#x413;" horiz-adv-x="589" 
d="M180 688v-688h-100v780h496v-92h-396z" />
    <glyph glyph-name="afii10021" unicode="&#x414;" horiz-adv-x="804" 
d="M675 780v-688h86v-252h-99v160h-529v-160h-100v252h17c55.333 0 97 30.5 125 91.5s51.667 164.167 71 309.5l37 287h392zM350 488c-14.667 -102.667 -32 -186 -52 -250s-45.667 -112.667 -77 -146h354v596h-198z" />
    <glyph glyph-name="afii10022" unicode="&#x415;" horiz-adv-x="693" 
d="M80 780h537v-92h-437v-243h394v-91h-394v-262h457v-92h-557v780z" />
    <glyph glyph-name="afii10024" unicode="&#x416;" horiz-adv-x="1012" 
d="M973 780l-168.001 -292.001c-25.333 -43.333 -53 -72.666 -83 -87.999c32.667 -15.333 61.667 -45 87 -89l179 -311h-123l-154 281c-14.667 26 -29.667 44.667 -45 56s-36 17 -62 17h-48v-354h-100v354h-48c-26 0 -46.667 -5.66699 -62 -17s-30.333 -30 -45 -56
l-154 -281h-123l179 311c25.333 44 54 73.667 86 89c-31.333 16.667 -58.666 46 -81.999 88l-168 292h123l143 -261c14.667 -26 29.667 -44.667 45 -56s36 -17 62 -17h44v334h100v-334h44c26 0 46.833 5.66699 62.5 17s30.5 30 44.5 56l143 261h123z" />
    <glyph glyph-name="afii10025" unicode="&#x417;" horiz-adv-x="687" 
d="M641 217c0 -68 -26.502 -123.169 -79.502 -165.502s-130.5 -63.5 -232.5 -63.5c-175.333 0 -272 71.333 -290 214l100 11c6 -47.333 24 -81.666 54 -102.999s75.333 -32.333 136 -33c142 -2 213 44.667 213 140c0 24.667 -4 45.667 -12 63s-17.667 30.5 -29 39.5
s-26.666 16.167 -45.999 21.5s-36.666 8.5 -51.999 9.5s-34.333 1.5 -57 1.5h-109v91h109c26.667 0 48.667 1.33301 66 4s34.5 8.16699 51.5 16.5s29.667 21.5 38 39.5s12.5 41 12.5 69c0 44 -16.167 76.333 -48.5 97s-75.833 30.334 -130.5 29.001
c-60.667 -1.33301 -105.167 -11.833 -133.5 -31.5s-45.5 -52.834 -51.5 -99.501l-100 10c18 140 113 210 285 210c52.667 0 99 -6.66699 139 -20s73.167 -36.666 99.5 -69.999s39.5 -75 39.5 -125c0 -47.333 -11.5 -85.5 -34.5 -114.5s-51.833 -47.167 -86.5 -54.5
c38.667 -7.33301 73.167 -27 103.5 -59s45.5 -74.333 45.5 -127z" />
    <glyph glyph-name="afii10026" unicode="&#x418;" horiz-adv-x="755" 
d="M577 608l-87 -135l-315 -473h-95v780h101v-371l-3 -237l86 135l316 473h95v-780h-101v371z" />
    <glyph glyph-name="afii10027" unicode="&#x419;" horiz-adv-x="755" 
d="M577 608l-87 -135l-315 -473h-95v780h101v-371l-3 -237l86 135l316 473h95v-780h-101v371zM487 1030h77c0.666992 -68 -13.333 -119.167 -42 -153.5s-77 -51.5 -145 -51.5s-116.167 17.167 -144.5 51.5s-42.5 85.5 -42.5 153.5h78c0 -44 8.5 -75.167 25.5 -93.5
s44.833 -27.5 83.5 -27.5c39.333 0 67.5 9.16699 84.5 27.5s25.5 49.5 25.5 93.5z" />
    <glyph glyph-name="afii10028" unicode="&#x41a;" horiz-adv-x="719" 
d="M680 780l-178.001 -292c-27.333 -44 -56 -73.333 -86 -88c33.333 -16 63 -45.667 89 -89l190 -311h-124l-162 281c-15.333 26 -30.833 44.667 -46.5 56s-36.5 17 -62.5 17h-120v-354h-100v780h100v-334h117c26 0 46.833 5.66699 62.5 17s30.834 30 45.501 56l151 261h124
z" />
    <glyph glyph-name="afii10029" unicode="&#x41b;" horiz-adv-x="743" 
d="M663 780v-780h-100v688h-199l-27 -200c-10 -68.667 -20.167 -127.5 -30.5 -176.5s-23.333 -94.167 -39 -135.5s-33.834 -74.333 -54.501 -99s-45.167 -43.667 -73.5 -57s-61.166 -20 -98.499 -20h-13l-1 92h10c56 0 98 30.5 126 91.5s51.667 164.167 71 309.5l38 287h391
z" />
    <glyph glyph-name="afii10030" unicode="&#x41c;" horiz-adv-x="910" 
d="M497 0h-84l-189 455l-49 129l3 -299v-285h-98v780h108l204 -492l63 -164l63 164l204 492h108v-780h-98v285l3 299l-49 -129z" />
    <glyph glyph-name="afii10031" unicode="&#x41d;" horiz-adv-x="750" 
d="M570 780h100v-780h-100v354h-390v-354h-100v780h100v-335h390v335z" />
    <glyph glyph-name="afii10032" unicode="&#x41e;" horiz-adv-x="800" 
d="M400 701c-157.333 0 -236 -103.667 -236 -311s78.667 -311 236 -311s236 103.667 236 311s-78.667 311 -236 311zM400 -12c-115.333 0 -200.833 35.333 -256.5 106s-83.5 169.334 -83.5 296.001s27.833 225.334 83.5 296.001s141.167 106 256.5 106
s200.833 -35.333 256.5 -106s83.5 -169.334 83.5 -296.001s-27.833 -225.334 -83.5 -296.001s-141.167 -106 -256.5 -106z" />
    <glyph glyph-name="afii10033" unicode="&#x41f;" horiz-adv-x="750" 
d="M80 780h590v-780h-100v689h-390v-689h-100v780z" />
    <glyph glyph-name="afii10034" unicode="&#x420;" horiz-adv-x="658" 
d="M180 405h199c18 0 34 1.66699 48 5s28.667 9.5 44 18.5s27.333 23.5 36 43.5s13 45 13 75c0 29.333 -4.33301 54 -13 74s-20.667 34.5 -36 43.5s-30 15.167 -44 18.5s-30 5 -48 5h-199v-283zM180 313l-0.00195312 -313.001h-100v780h288c34 0 65.167 -3.5 93.5 -10.5
s55.333 -18.667 81 -35s45.834 -40.5 60.501 -72.5s22 -70.333 22 -115s-7.33301 -83 -22 -115s-34.667 -56.167 -60 -72.5s-52.166 -28.166 -80.499 -35.499s-59.5 -11 -93.5 -11h-189z" />
    <glyph glyph-name="afii10035" unicode="&#x421;" horiz-adv-x="757" 
d="M60 390c0 126.667 28 225.332 84 295.999s141.333 106 256 106c93.333 0 165.166 -19.5 215.499 -58.5s79.833 -92.5 88.5 -160.5l-102 -11c-7.33301 48 -27.333 83.167 -60 105.5s-80 33.5 -142 33.5c-158 0 -237 -103.667 -237 -311s79 -311 237 -311
c62 0 109.333 11.167 142 33.5s52.667 57.5 60 105.5l102 -11c-8.66699 -68 -38.167 -121.5 -88.5 -160.5s-122.166 -58.5 -215.499 -58.5c-114.667 0 -200 35.333 -256 106s-84 169.334 -84 296.001z" />
    <glyph glyph-name="afii10036" unicode="&#x422;" horiz-adv-x="622" 
d="M361 688v-688h-100v688h-241v92h582v-92h-241z" />
    <glyph glyph-name="afii10037" unicode="&#x423;" horiz-adv-x="684" 
d="M179 78c26.667 0 48 7.49707 64 22.4971s32 38.5 48 70.5l17 40l-262 569h106l205 -461l203 461h106l-274 -613c-12 -27.333 -23 -49.666 -33 -66.999s-23.333 -35.666 -40 -54.999s-36.667 -33.666 -60 -42.999s-50 -14 -80 -14c-49.333 0 -88 7.66699 -116 23l11 90
c27.333 -15.333 62.333 -23 105 -23z" />
    <glyph glyph-name="afii10038" unicode="&#x424;" horiz-adv-x="820" 
d="M360 0v113c-99.333 0 -177.333 24.167 -234 72.5s-85 116.5 -85 204.5s28.333 156.167 85 204.5s134.667 72.5 234 72.5v113h100v-113c99.333 0 177.333 -24.167 234 -72.5s85 -116.5 85 -204.5s-28.333 -156.167 -85 -204.5s-134.667 -72.5 -234 -72.5v-113h-100z
M145 390c0 -124.667 71.667 -187 215 -187v374c-143.333 0 -215 -62.333 -215 -187zM460 577v-374c143.333 0 215 62.333 215 187s-71.667 187 -215 187z" />
    <glyph glyph-name="afii10039" unicode="&#x425;" horiz-adv-x="722" 
d="M273 615l88 -134l88 134l110 165h117l-219 -321l-40 -57l42 -60l235 -342h-121l-126 190l-86 131l-86 -131l-126 -190h-121l235 342l42 60l-40 57l-219 321h117z" />
    <glyph glyph-name="afii10040" unicode="&#x426;" horiz-adv-x="799" 
d="M80 0v780h100v-688h389v688h100v-688h87v-252h-100v160h-576z" />
    <glyph glyph-name="afii10041" unicode="&#x427;" horiz-adv-x="695" 
d="M615 780v-780h-100v336c-50 -42 -120.667 -63 -212 -63c-72 0 -131.167 16.667 -177.5 50s-69.5 80.666 -69.5 141.999v315h100v-295c0 -38.667 13.667 -68.167 41 -88.5s66 -30.5 116 -30.5c48 0 89.833 7.83301 125.5 23.5s61.167 33.834 76.5 54.501v336h100z" />
    <glyph glyph-name="afii10042" unicode="&#x428;" horiz-adv-x="999" 
d="M550 780v-688h269v688h100v-780h-839v780h100v-688h270v688h100z" />
    <glyph glyph-name="afii10043" unicode="&#x429;" horiz-adv-x="1049" 
d="M550 780v-688h269v688h100v-688h87v-252h-100v160h-826v780h100v-688h270v688h100z" />
    <glyph glyph-name="afii10044" unicode="&#x42a;" horiz-adv-x="816" 
d="M25 780l275 -0.000976562v-339h226c34.667 0 65.334 -3 92.001 -9s51.834 -16.667 75.501 -32s42 -38.166 55 -68.499s19.5 -67.5 19.5 -111.5s-6.5 -81 -19.5 -111s-31.333 -52.667 -55 -68s-48.834 -26 -75.501 -32s-57.334 -9 -92.001 -9h-326v688h-175v92z
M520 348.999l-220 -0.00292969v-257h220c15.333 0 28.5 0.5 39.5 1.5s23.5 4 37.5 9s25.333 11.833 34 20.5s16.167 21.334 22.5 38.001s9.5 36.334 9.5 59.001c0 23.333 -3.16699 43.333 -9.5 60s-13.833 29.334 -22.5 38.001s-20 15.5 -34 20.5s-26.5 8 -37.5 9
s-24.167 1.5 -39.5 1.5z" />
    <glyph glyph-name="afii10045" unicode="&#x42b;" horiz-adv-x="911" 
d="M80 780l100 -0.000976562v-339h226c34.667 0 65.334 -3 92.001 -9s51.834 -16.667 75.501 -32s42 -38.166 55 -68.499s19.5 -67.5 19.5 -111.5s-6.5 -81 -19.5 -111s-31.333 -52.667 -55 -68s-48.834 -26 -75.501 -32s-57.334 -9 -92.001 -9h-326v780zM400 348.999
l-220 -0.00195312v-257h220c19.333 0 35.833 1.16699 49.5 3.5s28.5 7.33301 44.5 15s28.333 20.667 37 39s13 41.833 13 70.5s-4.33301 52.334 -13 71.001s-21 31.834 -37 39.501s-30.833 12.667 -44.5 15s-30.167 3.5 -49.5 3.5zM831 779.997v-780h-100v780h100z" />
    <glyph glyph-name="afii10046" unicode="&#x42c;" horiz-adv-x="696" 
d="M80 780l100 -0.000976562v-339h226c34.667 0 65.334 -3 92.001 -9s51.834 -16.667 75.501 -32s42 -38.166 55 -68.499s19.5 -67.5 19.5 -111.5s-6.5 -81 -19.5 -111s-31.333 -52.667 -55 -68s-48.834 -26 -75.501 -32s-57.334 -9 -92.001 -9h-326v780zM400 348.999
l-220 -0.00195312v-257h220c19.333 0 35.833 1.16699 49.5 3.5s28.5 7.33301 44.5 15s28.333 20.667 37 39s13 41.833 13 70.5s-4.33301 52.334 -13 71.001s-21 31.834 -37 39.501s-30.833 12.667 -44.5 15s-30.167 3.5 -49.5 3.5z" />
    <glyph glyph-name="afii10047" unicode="&#x42d;" horiz-adv-x="748" 
d="M353 700c-61.333 0 -107.833 -10.833 -139.5 -32.5s-51.167 -56.834 -58.5 -105.501l-102 11c8.66699 68 37.5 121.5 86.5 160.5s120.167 58.5 213.5 58.5c114.667 0 199.334 -35.167 254.001 -105.5s82 -169.166 82 -296.499s-27.333 -226.166 -82 -296.499
s-139.334 -105.5 -254.001 -105.5c-93.333 0 -164.5 19.5 -213.5 58.5s-77.833 92.5 -86.5 160.5l102 11c7.33301 -48.667 26.833 -83.834 58.5 -105.501s78.167 -32.5 139.5 -32.5c148 0 225 91.333 231 274h-389v92h389c-12 169.333 -89 254 -231 254z" />
    <glyph glyph-name="afii10048" unicode="&#x42e;" horiz-adv-x="1062" 
d="M662 -12c-109.333 0 -191.833 32.002 -247.5 96.002s-86.167 154 -91.5 270h-143v-354h-100v780h100v-334h144c8 109.333 39.833 194.333 95.5 255s136.5 91 242.5 91c115.333 0 200.833 -35.333 256.5 -106s83.5 -169.334 83.5 -296.001
s-27.833 -225.334 -83.5 -296.001s-141.167 -106 -256.5 -106zM662 700.002c-45.333 0 -84 -8.16699 -116 -24.5s-56.5 -39.333 -73.5 -69s-29 -62 -36 -97s-10.5 -74.833 -10.5 -119.5s3.5 -84.5 10.5 -119.5s19 -67.333 36 -97s41.5 -52.667 73.5 -69
s70.667 -24.5 116 -24.5s84 8.16699 116 24.5s56.5 39.333 73.5 69s29 62 36 97s10.5 74.833 10.5 119.5s-3.5 84.5 -10.5 119.5s-19 67.333 -36 97s-41.5 52.667 -73.5 69s-70.667 24.5 -116 24.5z" />
    <glyph glyph-name="afii10049" unicode="&#x42f;" horiz-adv-x="710" 
d="M30 0l165 272.001c17.333 27.333 33.666 47.666 48.999 60.999c-121.333 20 -182 93.667 -182 221c0 150.667 85.333 226 256 226h312v-780h-100v327h-124c-25.333 0 -45.666 -5.66699 -60.999 -17s-30.333 -30 -45 -56l-147 -254h-123zM308 419.001l221.999 -0.00195312
v269h-222c-18.667 0 -34.667 -1.33301 -48 -4s-28 -8 -44 -16s-28.167 -21.667 -36.5 -41s-12.5 -43.666 -12.5 -72.999c0 -24 3.16699 -44.667 9.5 -62s13.833 -30.666 22.5 -39.999s20 -16.5 34 -21.5s26.333 -8.16699 37 -9.5s23.334 -2 38.001 -2z" />
    <glyph glyph-name="afii10065" unicode="&#x430;" horiz-adv-x="581" 
d="M289 459c-40 0.666992 -69.167 -6.50098 -87.5 -21.501s-30.5 -37.833 -36.5 -68.5l-99 14c8 50.667 28.833 89.834 62.5 117.501s86.5 41.5 158.5 41.5c73.333 0 130 -16.167 170 -48.5s60 -80.833 60 -145.5v-216l7 -132h-87l-12 76c-18 -28 -44.333 -49.667 -79 -65
s-72 -23 -112 -23c-64 0 -111.667 13.833 -143 41.5s-47 66.167 -47 115.5c0 52 17.333 90 52 114s86 41 154 51l172 25v20c0 36 -11 62 -33 78s-55.333 24.667 -100 26zM144 147.999c0 -50.667 32 -76.001 96 -76.001c46 -0.666992 86.333 12.333 121 39s55 56 61 88v62
l-163 -26c-38.667 -6 -67.5 -15.167 -86.5 -27.5s-28.5 -32.166 -28.5 -59.499z" />
    <glyph glyph-name="afii10066" unicode="&#x431;" horiz-adv-x="589" 
d="M294 -12c-79.333 0 -140.832 23.665 -184.499 70.998s-65.5 119 -65.5 215c0 96.667 6.5 176.834 19.5 240.501s33.5 112.834 61.5 147.501s59 59.167 93 73.5s76.667 23.833 128 28.5c80.667 8.66699 141.667 21.667 183 39v-94
c-42.667 -19.333 -97.334 -32 -164.001 -38c-72 -6 -123.667 -22.833 -155 -50.5s-52 -80.167 -62 -157.5c37.333 52.667 89.666 79 156.999 79c74.667 0 133.334 -23.5 176.001 -70.5s64 -115.833 64 -206.5s-22 -159.5 -66 -206.5s-105.667 -70.5 -185 -70.5z
M294.001 452.998c-100.667 0 -151 -62.667 -151 -188s50.333 -188 151 -188c101.333 0 152 62.667 152 188s-50.667 188 -152 188z" />
    <glyph glyph-name="afii10067" unicode="&#x432;" horiz-adv-x="565" 
d="M327 0h-261.001v530h265c21.333 0 41 -1.83301 59 -5.5s36.333 -10.167 55 -19.5s33.334 -23.666 44.001 -42.999s16 -43 16 -71c0 -59.333 -26 -96.333 -78 -111c26.667 -3.33301 49.167 -16.333 67.5 -39s27.5 -52.334 27.5 -89.001c0 -101.333 -65 -152 -195 -152z
M161.999 83h157c34.667 0 61 5.66699 79 17s27 31 27 59c0 52 -33.333 78 -100 78h-163v-154zM311.999 445l-150.001 0.00195312v-135h150c34 0 58.5 5.66699 73.5 17s22.5 29.666 22.5 54.999c0 23.333 -7.16699 39.666 -21.5 48.999s-39.166 14 -74.499 14z" />
    <glyph glyph-name="afii10068" unicode="&#x433;" horiz-adv-x="445" 
d="M66 530h348v-88h-252v-442h-96v530z" />
    <glyph glyph-name="afii10069" unicode="&#x434;" horiz-adv-x="641" 
d="M129 -160l-94 -0.000976562v248h17c36 0.666992 62.5 13.834 79.5 39.501s32.167 77.167 45.5 154.5l41 248h312v-442h76v-248h-95v160h-382v-160zM434 87.999l0.000976562 354h-137l-29 -175c-14.667 -85.333 -35.334 -145 -62.001 -179h228z" />
    <glyph glyph-name="afii10070" unicode="&#x435;" horiz-adv-x="582" 
d="M534 226l-389.997 -0.000976562c6.66699 -102.667 58 -154 154 -154c76 -2 120 26 132 84l100 -12c-6.66699 -46 -28.834 -83.5 -66.501 -112.5s-92.5 -43.5 -164.5 -43.5c-80.667 0 -143.334 23.5 -188.001 70.5s-67 115.833 -67 206.5s22.167 159.5 66.5 206.5
s106.166 70.5 185.499 70.5s138.833 -23.667 178.5 -71s59.5 -115.666 59.5 -204.999v-40zM297.003 458.999c-44.667 0 -80.335 -12.665 -107.002 -37.998s-41.667 -63.333 -45 -114h286c-1.33301 49.333 -13.166 87.166 -35.499 113.499s-55.166 39.166 -98.499 38.499z
" />
    <glyph glyph-name="afii10072" unicode="&#x436;" horiz-adv-x="802" 
d="M656 530l114 -0.000976562l-102 -176c-24 -39.333 -49 -66 -75 -80c28 -14 54.333 -41 79 -81l111 -193h-114l-89 163c-14 24.667 -28.5 42.334 -43.5 53.001s-35.167 16 -60.5 16h-27v-232h-96v232h-28c-25.333 0 -45.5 -5.33301 -60.5 -16
s-29.167 -28.334 -42.5 -53.001l-89 -163h-114l111 193c23.333 39.333 49.333 66.333 78 81c-28 14.667 -53 41.334 -75 80.001l-101 176h114l80 -146c13.333 -24.667 27.5 -42.334 42.5 -53.001s35.167 -16 60.5 -16h24v215h96v-215h24c25.333 0 45.5 5.33301 60.5 16
s29.167 28.334 42.5 53.001z" />
    </font>
</defs>
</svg>
