<?xml version="1.0" standalone="no"?>
<!DOCTYPE svg PUBLIC "-//W3C//DTD SVG 1.1//EN" "http://www.w3.org/Graphics/SVG/1.1/DTD/svg11.dtd" >
<svg>
<metadata>
Created by FontForge 20090914 at Mon Jan 29 13:31:30 2018
 By www-data
Copyright (c) 2004-2008 by Village Type &#38; Design LLC. All rights reserved.
</metadata>
<defs>
<font id="GalaxiePolarisHeavy" horiz-adv-x="700" >
  <font-face 
    font-family="GalaxiePolarisHeavy"
    font-weight="900"
    font-stretch="normal"
    units-per-em="1000"
    panose-1="2 0 0 0 0 0 0 0 0 0"
    ascent="800"
    descent="-200"
    x-height="530"
    cap-height="780"
    bbox="-236 -240.001 2096.99 1230"
    underline-thickness="30"
    underline-position="-130"
    unicode-range="U+0020-U+F778"
  />
<missing-glyph horiz-adv-x="960" 
d="M90 0v780h780v-780h-780zM480 345l-279 -279h558zM201 714l279 -279l279 279h-558zM435 390l-275 275v-550zM525 390l275 -275v550z" />
    <glyph glyph-name="interrobang" unicode="&#x21;&#x3f;" horiz-adv-x="624" 
d="M357 250l-103.998 0.000976562l-20 360c-20 -17.333 -30.333 -44 -31 -80l-182 22c0.666992 80 26.167 140.667 76.5 182s123.5 62 219.5 62c88.667 0 157.5 -18.833 206.5 -56.5s73.5 -94.834 73.5 -171.501c0 -20.667 -2.33301 -39.667 -7 -57
s-9.33398 -31.666 -14.001 -42.999s-13.5 -22.666 -26.5 -33.999l-28 -24.5c-5.66699 -5 -17.834 -11.333 -36.501 -19s-30.167 -12.334 -34.5 -14.001s-16.833 -5.83398 -37.5 -12.501c-23.333 -8 -40.333 -17.333 -51 -28zM397.002 182.001v-182h-184v182h184z
M407.002 567.001c0 25.333 -10 43 -30 53l-6 -103c24 13.333 36 30 36 50z" />
    <glyph glyph-name="interrobangdown" unicode="&#xa1;&#xbf;" horiz-adv-x="623" 
d="M209 207c25.333 8 43.333 14.665 54 19.998l3 54h104l17 -313c22 16 33.333 43.333 34 82l182 -22c-0.666992 -80 -26.167 -140.667 -76.5 -182s-123.5 -62 -219.5 -62c-88 0 -156.5 18.5 -205.5 55.5s-73.5 92.167 -73.5 165.5c0 33.333 4.66699 61.833 14 85.5
s23.833 42.834 43.5 57.501s37 25.334 52 32.001s35.833 14.667 62.5 24c1.33301 0.666992 2.33301 1 3 1s1.66699 0.333008 3 1s2.33301 1 3 1zM410 529.998v-182h-184v182h184zM216 5.99805c0 -24 10.667 -40.333 32 -49l5 96c-24.667 -12 -37 -27.667 -37 -47z" />
    <glyph glyph-name=".notdef" horiz-adv-x="960" 
d="M90 0v780h780v-780h-780zM480 345l-279 -279h558zM201 714l279 -279l279 279h-558zM435 390l-275 275v-550zM525 390l275 -275v550z" />
    <glyph glyph-name="space" unicode=" " horiz-adv-x="220" 
 />
    <glyph glyph-name="exclam" unicode="!" horiz-adv-x="300" 
d="M49 780h202l-29 -530h-144zM242 182v-182h-184v182h184z" />
    <glyph glyph-name="quotedbl" unicode="&#x22;" horiz-adv-x="475" 
d="M22 780h203l-25 -250h-153zM251 780h202l-25 -250h-152z" />
    <glyph glyph-name="numbersign" unicode="#" horiz-adv-x="743" 
d="M723 444h-97l-34 -124h55v-164h-100l-42 -156h-185l42 156h-106l-42 -156h-185l42 156h-51v164h96l34 124h-54v164h99l43 156h185l-43 -156h106l43 156h185l-43 -156h52v-164zM335 444l-34 -124h106l34 124h-106z" />
    <glyph glyph-name="dollar" unicode="$" horiz-adv-x="570" 
d="M292 257c28 0.666992 48.6611 3.33594 61.9941 8.00293s19.333 13.667 18 27s-29.666 22.666 -84.999 27.999c-8 0.666992 -14.333 1.33398 -19 2.00098c-23.333 2 -39.5 3.66699 -48.5 5s-23.833 3.66602 -44.5 6.99902s-35.667 7.16602 -45 11.499
s-21.166 10.5 -35.499 18.5s-24.666 17.167 -30.999 27.5s-12.166 23.333 -17.499 39s-8 33.167 -8 52.5c0 32.667 7.33301 61 22 85s34.5 42.5 59.5 55.5s51 22.667 78 29s55.833 9.83301 86.5 10.5l29 101h157l-32 -113c46.667 -8.66699 86 -21 118 -37l-41 -156
c-73.333 34.667 -146.666 52 -219.999 52c-42.667 0 -63 -11.333 -61 -34c0.666992 -10.667 25.667 -18 75 -22c8 -0.666992 14 -1.33398 18 -2.00098c69.333 -7.33301 116 -15.333 140 -24c60 -23.333 90.333 -70.333 91 -141c0 -44 -13 -80.333 -39 -109
s-57.167 -48.5 -93.5 -59.5s-77.166 -16.833 -122.499 -17.5l-29 -101h-158l32 113c-54 11.333 -97.333 26.333 -130 45l47 156c84 -39.333 159.667 -58.333 227 -57z" />
    <glyph glyph-name="percent" unicode="%" horiz-adv-x="1215" 
d="M265 479c52 0 78 27.333 78 82s-26 82 -78 82s-78 -27.333 -78 -82s26 -82 78 -82zM265 780c73.333 0 129.833 -18 169.5 -54s59.5 -91 59.5 -165s-19.833 -129 -59.5 -165s-96.167 -54 -169.5 -54s-129.833 18 -169.5 54s-59.5 91 -59.5 165s19.833 129 59.5 165
s96.167 54 169.5 54zM950 121c52 0 78 27.333 78 82s-26 82 -78 82s-78 -27.333 -78 -82s26 -82 78 -82zM950 422c73.333 0 129.833 -18 169.5 -54s59.5 -91 59.5 -165s-19.833 -129 -59.5 -165s-96.167 -54 -169.5 -54s-129.833 18 -169.5 54s-59.5 91 -59.5 165
s19.833 129 59.5 165s96.167 54 169.5 54zM981 764l-551 -764h-196l551 764h196z" />
    <glyph glyph-name="ampersand" unicode="&#x26;" horiz-adv-x="770" 
d="M742 191l0.000976562 -207.002c-74 44.667 -125 77.334 -153 98.001c-35.333 -34 -73.5 -58.833 -114.5 -74.5s-91.167 -23.5 -150.5 -23.5c-84.667 0 -153.834 20 -207.501 60s-80.5 102 -80.5 186c0 44.667 11.167 84.834 33.5 120.501s50.5 62.5 84.5 80.5
c-48.667 40.667 -73 93 -73 157c0 66 21 117.167 63 153.5s101.667 54.5 179 54.5c78 0 137.333 -19.5 178 -58.5s61 -84.833 61 -137.5c0 -46.667 -11.333 -84.167 -34 -112.5s-54.667 -54.5 -96 -78.5l108 -88c6.66699 15.333 10 38 10 68c0 22.667 -3 43 -9 61l179 15
c6.66699 -18 10 -47 10 -87c0 -58.667 -14.333 -111 -43 -157zM445.001 184.998l-86.001 65.5l-69 55.5l-24 21c-32 -24.667 -48 -57 -48 -97c0 -17.333 3.66699 -32 11 -44s17 -20.833 29 -26.5s23.333 -9.5 34 -11.5s21.334 -3 32.001 -3c52 0 92.333 13.333 121 40z
M380 588.998c0 13.333 -5.16895 24.834 -15.502 34.501s-24.166 14.5 -41.499 14.5c-19.333 0 -34.166 -4.66699 -44.499 -14s-15.5 -21 -15.5 -35c0 -28.667 15.667 -54.334 47 -77.001c7.33301 2.66699 16.333 7 27 13c28.667 16 43 37.333 43 64z" />
    <glyph glyph-name="quotesingle" unicode="'" horiz-adv-x="247" 
d="M22 780h203l-25 -250h-153z" />
    <glyph glyph-name="parenleft" unicode="(" horiz-adv-x="330" 
d="M216 350c0 -169.333 34.667 -329.335 104 -480.002h-180c-32 54.667 -58.333 124.834 -79 210.501s-31 175.5 -31 269.5s10.333 183.833 31 269.5s47 155.834 79 210.501h180c-69.333 -150.667 -104 -310.667 -104 -480z" />
    <glyph glyph-name="parenright" unicode=")" horiz-adv-x="330" 
d="M114 350c0 169.333 -34.667 329.335 -104 480.002h180c32 -54.667 58.333 -124.834 79 -210.501s31 -175.5 31 -269.5s-10.333 -183.833 -31 -269.5s-47 -155.834 -79 -210.501h-180c69.333 150.667 104 310.667 104 480z" />
    <glyph glyph-name="asterisk" unicode="*" horiz-adv-x="349" 
d="M119 780h111l-9 -82l78 35l34 -106l-72 -15l47 -52l-91 -65l-43 74l-42 -74l-91 65l47 52l-72 15l34 106l77 -35z" />
    <glyph glyph-name="plus" unicode="+" 
d="M268 120v188h-188v164h188v188h164v-188h188v-164h-188v-188h-164z" />
    <glyph glyph-name="comma" unicode="," horiz-adv-x="300" 
d="M58 182h191l-74 -289h-140z" />
    <glyph glyph-name="hyphen" unicode="-" horiz-adv-x="392" 
d="M348 253h-304v164h304v-164z" />
    <glyph glyph-name="period" unicode="." horiz-adv-x="300" 
d="M242 182v-182h-184v182h184z" />
    <glyph glyph-name="slash" unicode="/" horiz-adv-x="436" 
d="M425 870l-229 -960h-185l229 960h185z" />
    <glyph glyph-name="zero" unicode="0" 
d="M350 147c49.333 0 84.5 18 105.5 54s31.5 96.333 31.5 181s-10.5 145 -31.5 181s-56.167 54 -105.5 54s-84.5 -18 -105.5 -54s-31.5 -96.333 -31.5 -181s10.5 -145 31.5 -181s56.167 -54 105.5 -54zM350 780c113.333 0 195.166 -32.667 245.499 -98
s75.5 -165.333 75.5 -300s-25.167 -234.667 -75.5 -300s-132.166 -98 -245.499 -98s-195.166 32.667 -245.499 98s-75.5 165.333 -75.5 300s25.167 234.667 75.5 300s132.166 98 245.499 98z" />
    <glyph glyph-name="one" unicode="1" 
d="M645 0l-553.001 0.000976562v163h192v369c-55.333 -35.333 -123.333 -60.666 -204 -75.999v172c60.667 21.333 108.834 43.166 144.501 65.499s68.167 51.166 97.5 86.499h144v-617h179v-163z" />
    <glyph glyph-name="two" unicode="2" 
d="M681 0h-652.998c-0.666992 76 5.16602 138.833 17.499 188.5s35.666 89.5 69.999 119.5s63.333 50.833 87 62.5s64.167 27.167 121.5 46.5c4.66699 2 8 3.33301 10 4c59.333 20 100 37.833 122 53.5s33 36.5 33 62.5c0 52 -40 78 -120 78
c-46.667 0 -80.334 -8.83301 -101.001 -26.5s-31.334 -48.5 -32.001 -92.5l-188 23c1.33301 83.333 28.833 147.666 82.5 192.999s133.167 68 238.5 68c86.667 0 158.834 -21 216.501 -63s86.5 -102 86.5 -180c0 -35.333 -5.5 -66.166 -16.5 -92.499
s-30.833 -49.666 -59.5 -69.999s-51.5 -34.833 -68.5 -43.5s-47.167 -22 -90.5 -40c-2 -1.33301 -3.83301 -2.33301 -5.5 -3s-3.5 -1.33398 -5.5 -2.00098l-65.5 -25.5c-27 -10.333 -46.167 -18 -57.5 -23s-24.166 -11.5 -38.499 -19.5s-24 -16.333 -29 -25
s-7.83301 -18.667 -8.5 -30h454v-163z" />
    <glyph glyph-name="three" unicode="3" 
d="M680 233c0 -79.333 -28.835 -140.666 -86.502 -183.999s-143.5 -65 -257.5 -65c-105.333 0 -184.833 22.667 -238.5 68s-81.167 109.666 -82.5 192.999l188 23c0.666992 -44 11.334 -74.833 32.001 -92.5s54.334 -26.5 101.001 -26.5c54 0 94.333 6.5 121 19.5
s40 34.5 40 64.5c0 33.333 -9.66699 54.5 -29 63.5s-50.666 13.5 -93.999 13.5h-127v162h127c18 0 31.167 0.5 39.5 1.5s17.5 3.5 27.5 7.5s16.833 10.833 20.5 20.5s5.5 22.5 5.5 38.5c0 27.333 -11.833 46.833 -35.5 58.5s-52.834 17.167 -87.501 16.5
c-48 0 -82 -7.5 -102 -22.5s-30.333 -43.833 -31 -86.5l-188 23c2 167.333 109 251 321 251c42.667 0 81.667 -4.16699 117 -12.5s67.5 -21.5 96.5 -39.5s51.667 -43 68 -75s24.5 -69.667 24.5 -113c0 -65.333 -23.333 -113 -70 -143c28 -12.667 51.667 -33.667 71 -63
s29 -63 29 -101z" />
    <glyph glyph-name="four" unicode="4" 
d="M674 160h-135v-160h-181v160h-338v115l367 505h152v-456h135v-164zM358 324v155l-20 -28l-69 -97l-21 -30h110z" />
    <glyph glyph-name="five" unicode="5" 
d="M215 309l-155 33.001l44 422h519v-165h-355l-12 -95c22.667 19.333 59.667 29 111 29c96.667 0 170.667 -23.167 222 -69.5s77 -115.5 77 -207.5c0 -91.333 -29.167 -159.5 -87.5 -204.5s-134.833 -67.5 -229.5 -67.5c-209.333 0 -315 81.667 -317 245l188 23
c0.666992 -41.333 11.667 -68.833 33 -82.5s53.333 -20.5 96 -20.5c36.667 0 68 8.83301 94 26.5s39.667 44.5 41 80.5c1.33301 38 -8.5 67.167 -29.5 87.5s-52.833 31.5 -95.5 33.5c-70 3.33301 -118 -19.334 -144 -68.001z" />
    <glyph glyph-name="six" unicode="6" 
d="M381 619c-103.333 5.33301 -159.331 -49 -167.998 -163c35.333 47.333 92.666 71 171.999 71c187.333 0 281 -90.333 281 -271c0 -88 -28.167 -155.333 -84.5 -202s-130.5 -70 -222.5 -70c-114 0 -197.667 33 -251 99s-80 166 -80 300c0 128.667 30.667 227 92 295
s148.666 102 261.999 102c90 0 159.833 -17.333 209.5 -52s75.167 -87 76.5 -157l-188 -23c-0.666992 26 -9.5 43.833 -26.5 53.5s-41.167 15.5 -72.5 17.5zM366.002 368c-44.667 0.666992 -80.334 -10.667 -107.001 -34s-38 -57.666 -34 -102.999
c8 -30 22.333 -51.833 43 -65.5s50.667 -20.5 90 -20.5c36.667 0.666992 66.334 10.167 89.001 28.5s34 45.833 34 82.5c0 73.333 -38.333 110.666 -115 111.999z" />
    <glyph glyph-name="seven" unicode="7" 
d="M333 0h-198l295 545l28 55l-108 -1h-326v165h656v-109z" />
    <glyph glyph-name="eight" unicode="8" 
d="M350 466c37.333 0 66.5 5 87.5 15s31.5 30 31.5 60c0 47.333 -39.667 71 -119 71s-119 -23.667 -119 -71c0 -30 10.5 -50 31.5 -60s50.167 -15 87.5 -15zM350 151c92.667 0 139 27.333 139 82c0 33.333 -12.833 55.833 -38.5 67.5s-59.167 17.5 -100.5 17.5
s-74.833 -5.83301 -100.5 -17.5s-38.5 -34.167 -38.5 -67.5c0 -54.667 46.333 -82 139 -82zM350 -16c-214.667 0 -321.998 77.667 -321.998 233c0 43.333 8.83301 81.333 26.5 114s39.5 55 65.5 67c-20.667 14 -37.834 35.333 -51.501 64s-20.5 59.334 -20.5 92.001
c0 150.667 100.667 226 302 226s302 -75.333 302 -226c0 -32.667 -6.83301 -63.334 -20.5 -92.001s-30.834 -50 -51.501 -64c26 -12 47.833 -34.333 65.5 -67s26.5 -70.667 26.5 -114c0 -155.333 -107.333 -233 -322 -233z" />
    <glyph glyph-name="nine" unicode="9" 
d="M319 145c103.333 -5.33301 159.331 49 167.998 163c-35.333 -47.333 -92.666 -71 -171.999 -71c-187.333 0 -281 90.333 -281 271c0 88 28.167 155.333 84.5 202s130.5 70 222.5 70c114 0 197.667 -33 251 -99s80 -166 80 -300c0 -128.667 -30.667 -227 -92 -295
s-148.666 -102 -261.999 -102c-90 0 -159.833 17.333 -209.5 52s-75.167 87 -76.5 157l188 23c0.666992 -26 9.5 -43.833 26.5 -53.5s41.167 -15.5 72.5 -17.5zM333.998 396c44.667 -0.666992 80.334 10.667 107.001 34s38 57.666 34 102.999c-8 30 -22.333 51.833 -43 65.5
s-50.667 20.5 -90 20.5c-36.667 -0.666992 -66.334 -10.167 -89.001 -28.5s-34 -45.833 -34 -82.5c0 -73.333 38.333 -110.666 115 -111.999z" />
    <glyph glyph-name="colon" unicode=":" horiz-adv-x="300" 
d="M242 182v-182h-184v182h184zM242 498v-182h-184v182h184z" />
    <glyph glyph-name="semicolon" unicode=";" horiz-adv-x="300" 
d="M242 498v-182h-184v182h184zM58 182h191l-74 -289h-140z" />
    <glyph glyph-name="less" unicode="&#x3c;" 
d="M245 390l105 -27l270 -79v-174l-540 185v190l540 185v-174l-270 -79z" />
    <glyph glyph-name="equal" unicode="=" 
d="M620 188h-540v164h540v-164zM620 428h-540v164h540v-164z" />
    <glyph glyph-name="greater" unicode="&#x3e;" 
d="M350 363l105 27l-105 27l-270 79v174l540 -185v-190l-540 -185v174z" />
    <glyph glyph-name="question" unicode="?" horiz-adv-x="624" 
d="M357 250l-146.998 -0.000976562c-6 8 -12.667 20.833 -20 38.5s-11 35.5 -11 53.5c0 14.667 1.16699 28 3.5 40s6.83301 22.667 13.5 32l17 23c4.66699 6 13 12.333 25 19s20.667 11.334 26 14.001s15.833 7.16699 31.5 13.5l30.5 12.5
c2 0.666992 7.16699 2.83398 15.5 6.50098l17 7.5c3 1.33301 7.83301 3.83301 14.5 7.5s11.334 6.83398 14.001 9.50098l10 10.5c4 4.33301 6.66699 8.83301 8 13.5s2 10 2 16c0 43.333 -30.333 65 -91 65c-36 0 -63.833 -7.33301 -83.5 -22
s-29.834 -41.334 -30.501 -80.001l-182 22c0.666992 80 26.167 140.667 76.5 182s123.5 62 219.5 62c88.667 0 157.5 -18.833 206.5 -56.5s73.5 -94.834 73.5 -171.501c0 -20.667 -2.33301 -39.667 -7 -57s-9.33398 -31.666 -14.001 -42.999s-13.5 -22.666 -26.5 -33.999
l-28 -24.5c-5.66699 -5 -17.834 -11.333 -36.501 -19s-30.167 -12.334 -34.5 -14.001s-16.833 -5.83398 -37.5 -12.501c-27.333 -9.33301 -44.833 -19.333 -52.5 -30s-11.5 -23.334 -11.5 -38.001c0 -11.333 3 -26.666 9 -45.999zM382.002 181.999v-182h-184v182h184z" />
    <glyph glyph-name="at" unicode="@" horiz-adv-x="1135" 
d="M579 806c170 0 298.499 -38.332 385.499 -114.999s130.5 -177.334 130.5 -302.001c0 -109.333 -25.667 -191.5 -77 -246.5s-130.666 -82.5 -237.999 -82.5h-113l-10 31c-8 -10.667 -23.167 -21.167 -45.5 -31.5s-49.833 -15.5 -82.5 -15.5
c-68.667 0 -125.167 21.167 -169.5 63.5s-66.5 104.833 -66.5 187.5s22.167 145.167 66.5 187.5s100.833 63.5 169.5 63.5c32.667 0 60.5 -5.33301 83.5 -16s38.5 -21 46.5 -31l8 31h165l-10 -154v-156c65.333 2 98 58.333 98 169c0 87.333 -27.667 151.833 -83 193.5
s-141.333 62.5 -258 62.5c-118 0 -207.667 -27.333 -269 -82s-92 -144 -92 -268s31.333 -213.333 94 -268s155.334 -82 278.001 -82c52 0 96.333 4.16699 133 12.5s62.5 18 77.5 29s22.833 22.5 23.5 34.5l188 -23c-1.33301 -66.667 -38 -119 -110 -157
s-183.333 -57 -334 -57c-172.667 0 -303.834 45.167 -393.501 135.5s-134.5 215.5 -134.5 375.5c0 158 47.167 282.667 141.5 374s226.833 137 397.5 137zM641.999 258.001v74c-17.333 34 -46 51 -86 51c-55.333 0 -83 -29.333 -83 -88s27.667 -88 83 -88
c40 0 68.667 17 86 51z" />
    <glyph glyph-name="A" unicode="A" horiz-adv-x="754" 
d="M561 0l-41 133h-286l-41 -133h-198l273 790h218l273 -790h-198zM354 520l-74 -237h193l-73 237l-23 79z" />
    <glyph glyph-name="B" unicode="B" horiz-adv-x="710" 
d="M410 0h-358v780h352c170 0 255 -72 255 -216c0 -73.333 -22.333 -124.333 -67 -153c30 -9.33301 53 -30.333 69 -63s24 -70.667 24 -114c0 -47.333 -7.33301 -87 -22 -119s-35.667 -56 -63 -72s-56 -27.167 -86 -33.5s-64.667 -9.5 -104 -9.5zM237 165h164.998
c16.667 0 30.834 1 42.501 3s23.334 8.83301 35.001 20.5s17.5 28.167 17.5 49.5c0 22 -5 39.167 -15 51.5s-20.833 19.833 -32.5 22.5s-26.167 4 -43.5 4h-169v-151zM393.998 615l-157 -0.000976562v-134h157c26 0 45.333 4.83301 58 14.5s19 27.834 19 54.501
c0 25.333 -6.33301 42.5 -19 51.5s-32 13.5 -58 13.5z" />
    <glyph glyph-name="C" unicode="C" horiz-adv-x="743" 
d="M228 390c0 -35.333 2 -65.8311 6 -91.498s11.5 -50.667 22.5 -75s28 -42.833 51 -55.5s51.833 -19 86.5 -19c47.333 0 82 9 104 27s33.333 48.667 34 92l188 -23c-1.33301 -82.667 -29.666 -146.834 -84.999 -192.501s-135.666 -68.5 -240.999 -68.5
c-235.333 0 -353 135.333 -353 406s117.667 406 353 406c105.333 0 185.666 -22.833 240.999 -68.5s83.666 -109.834 84.999 -192.501l-188 -23c-0.666992 43.333 -12 74 -34 92s-56.667 27 -104 27c-34.667 0 -63.5 -6.33301 -86.5 -19s-40 -31.167 -51 -55.5
s-18.5 -49.333 -22.5 -75s-6 -56.167 -6 -91.5z" />
    <glyph glyph-name="D" unicode="D" horiz-adv-x="763" 
d="M345 0l-293 -0.00195312v780h293c127.333 0 222.166 -31.667 284.499 -95s93.5 -161.666 93.5 -294.999s-31.167 -231.666 -93.5 -294.999s-157.166 -95 -284.499 -95zM237 164.998l108 0.00195312c69.333 0 118.5 19.167 147.5 57.5s43.5 94.166 43.5 167.499
s-14.5 129.166 -43.5 167.499s-78.167 57.5 -147.5 57.5h-108v-450z" />
    <glyph glyph-name="E" unicode="E" horiz-adv-x="668" 
d="M52 780h566v-165h-381v-134h327v-165h-327v-151h401v-165h-586v780z" />
    <glyph glyph-name="F" unicode="F" horiz-adv-x="630" 
d="M237 316v-316h-185v780h564v-165h-379v-134h325v-165h-325z" />
    <glyph glyph-name="G" unicode="G" horiz-adv-x="805" 
d="M408 -16c-124 0.666992 -216.167 36.832 -276.5 108.499s-90.5 170.834 -90.5 297.501s30.333 226 91 298s153 108 277 108c106.667 0 189.834 -23 249.501 -69s90.167 -110 91.5 -192l-188 -23c-0.666992 42.667 -14.167 73.167 -40.5 91.5s-63.833 27.5 -112.5 27.5
c-120.667 0 -181 -80.333 -181 -241c0 -158 60.333 -238.333 181 -241c62.667 -1.33301 113 5.66699 151 21v127h-160v150h344v-383c-54 -32 -106.833 -53.5 -158.5 -64.5s-110.834 -16.167 -177.501 -15.5z" />
    <glyph glyph-name="H" unicode="H" horiz-adv-x="748" 
d="M511 780h185v-780h-185v316h-274v-316h-185v780h185v-299h274v299z" />
    <glyph glyph-name="I" unicode="I" horiz-adv-x="311" 
d="M248 780v-780h-185v780h185z" />
    <glyph glyph-name="J" unicode="J" horiz-adv-x="555" 
d="M328 780h185v-561c0 -156.667 -85 -235 -255 -235c-91.333 0 -155.5 20.333 -192.5 61s-56.167 96 -57.5 166l183 22c1.33301 -29.333 6.5 -50.833 15.5 -64.5s26.167 -20.5 51.5 -20.5c26 0 44.167 5.66699 54.5 17s15.5 29 15.5 53v562z" />
    <glyph glyph-name="K" unicode="K" horiz-adv-x="761" 
d="M237 780v-333l101 128l168 205h246l-276 -308l287 -472h-241l-181 325l-104 -121v-204h-185v780h185z" />
    <glyph glyph-name="L" unicode="L" horiz-adv-x="600" 
d="M237 780v-615h355v-165h-540v780h185z" />
    <glyph glyph-name="M" unicode="M" horiz-adv-x="906" 
d="M384 0l-150 454v-454h-182v780h233l129 -385l39 -116l40 118l128 383h233v-780h-182v454l-150 -454h-138z" />
    <glyph glyph-name="N" unicode="N" horiz-adv-x="768" 
d="M545 0l-237 344l-72 109l1 -145v-308h-185v780h171l237 -344l72 -109l-1 145v308h185v-780h-171z" />
    <glyph glyph-name="O" unicode="O" horiz-adv-x="820" 
d="M410 -16c-126 0 -218.833 35.833 -278.5 107.5s-89.5 171.167 -89.5 298.5s29.667 226.833 89 298.5s152.333 107.5 279 107.5c126 0 218.833 -35.833 278.5 -107.5s89.5 -171.167 89.5 -298.5s-29.667 -226.833 -89 -298.5s-152.333 -107.5 -279 -107.5zM410 631
c-35.333 0 -65.333 -6.33301 -90 -19s-43.334 -30.834 -56.001 -54.501s-21.667 -49 -27 -76s-8 -57.5 -8 -91.5s2.66699 -64.5 8 -91.5s14.333 -52.333 27 -76s31.334 -41.834 56.001 -54.501s54.667 -19 90 -19s65.333 6.33301 90 19s43.334 30.834 56.001 54.501
s21.667 49 27 76s8 57.5 8 91.5s-2.66699 64.5 -8 91.5s-14.333 52.333 -27 76s-31.334 41.834 -56.001 54.501s-54.667 19 -90 19z" />
    <glyph glyph-name="P" unicode="P" horiz-adv-x="680" 
d="M237 415h149c58 0 87 33.333 87 100c0 37.333 -8.5 63.333 -25.5 78s-37.5 22 -61.5 22h-149v-200zM237 249l-0.000976562 -249.002h-185v780h320c38.667 0 73.834 -4 105.501 -12s62 -21.167 91 -39.5s51.667 -45.666 68 -81.999s24.5 -80.166 24.5 -131.499
c0 -177.333 -95 -266 -285 -266h-139z" />
    <glyph glyph-name="Q" unicode="Q" horiz-adv-x="820" 
d="M814 -29v-186.999l-566 227c-137.333 53.333 -206 179.666 -206 378.999c0 127.333 29.667 226.833 89 298.5s152.333 107.5 279 107.5c126 0 218.833 -35.833 278.5 -107.5s89.5 -171.167 89.5 -298.5c0 -186 -59.333 -308.333 -178 -367l77 -19zM410 631.001
c-35.333 0 -65.333 -6.33301 -90 -19s-43.334 -30.834 -56.001 -54.501s-21.667 -49 -27 -76s-8 -57.5 -8 -91.5s2.66699 -64.5 8 -91.5s14.333 -52.333 27 -76s31.334 -41.834 56.001 -54.501s54.667 -19 90 -19s65.333 6.33301 90 19s43.334 30.834 56.001 54.501
s21.667 49 27 76s8 57.5 8 91.5s-2.66699 64.5 -8 91.5s-14.333 52.333 -27 76s-31.334 41.834 -56.001 54.501s-54.667 19 -90 19z" />
    <glyph glyph-name="R" unicode="R" horiz-adv-x="725" 
d="M237 269v-268.999h-185v780h345c196 0 294 -85 294 -255c0 -120.667 -46.667 -198.334 -140 -233.001l178 -292h-222l-152 269h-118zM237 435.001h174.002c12 0 22.5 0.833008 31.5 2.5s18.5 5.33398 28.5 11.001s17.833 15 23.5 28s8.5 29.167 8.5 48.5
c0 25.333 -5.33301 45.166 -16 59.499s-21.834 23 -33.501 26s-25.834 4.5 -42.501 4.5h-174v-180z" />
    <glyph glyph-name="S" unicode="S" horiz-adv-x="722" 
d="M367 -16c-121.333 0 -208.17 22.0029 -260.503 66.0029s-79.166 109 -80.499 195l188 23c0.666992 -43.333 13.834 -74.333 39.501 -93s63.5 -27.334 113.5 -26.001c42.667 1.33301 77.5 8.66602 104.5 21.999s40.167 36 39.5 68c-0.666992 26.667 -11.834 46 -33.501 58
s-61.167 19.333 -118.5 22c-36.667 1.33301 -68 3.66602 -94 6.99902s-53.667 9.66602 -83 18.999s-53 21.333 -71 36s-33.167 35 -45.5 61s-18.833 57 -19.5 93c-2 85.333 26.333 150.166 85 194.499s132.334 66.5 221.001 66.5c112 0 196.5 -22.667 253.5 -68
s86.167 -109.666 87.5 -192.999l-188 -23c-0.666992 43.333 -13.667 74.333 -39 93s-63.333 27.334 -114 26.001c-32.667 -0.666992 -61.167 -8.16699 -85.5 -22.5s-36.166 -37.5 -35.499 -69.5c0.666992 -22 9.5 -36.667 26.5 -44s53.5 -12.666 109.5 -15.999
c46.667 -2.66699 85.5 -6.33398 116.5 -11.001s60.667 -12 89 -22s50.666 -23.5 66.999 -40.5s29.333 -38.833 39 -65.5s14.834 -59 15.501 -97c0.666992 -44.667 -8 -84.167 -26 -118.5s-42.833 -61.5 -74.5 -81.5s-66.5 -34.833 -104.5 -44.5s-78.667 -14.5 -122 -14.5z
" />
    <glyph glyph-name="T" unicode="T" horiz-adv-x="647" 
d="M416 615v-615h-185v615h-214v165h613v-165h-214z" />
    <glyph glyph-name="U" unicode="U" horiz-adv-x="746" 
d="M373 -16c-63.333 0 -117.002 7.5 -161.002 22.5s-78.167 36.667 -102.5 65s-41.666 59.833 -51.999 94.5s-15.5 75 -15.5 121v493h185v-489c0 -46.667 9.5 -82.167 28.5 -106.5s58.167 -36.5 117.5 -36.5s98.5 12.167 117.5 36.5s28.5 59.833 28.5 106.5v489h185v-493
c0 -46 -5.16699 -86.333 -15.5 -121s-27.666 -66.167 -51.999 -94.5s-58.5 -50 -102.5 -65s-97.667 -22.5 -161 -22.5z" />
    <glyph glyph-name="V" unicode="V" horiz-adv-x="754" 
d="M204 780l156 -520l17 -65l17 65l156 520h207l-269 -790h-222l-269 790h207z" />
    <glyph glyph-name="W" unicode="W" horiz-adv-x="1020" 
d="M555 373l-45 233l-45 -233l-74 -381h-226l-149 788h200l49 -344l22 -178l32 182l68 340h246l68 -340l32 -182l22 178l49 344h200l-149 -788h-226z" />
    <glyph glyph-name="X" unicode="X" horiz-adv-x="788" 
d="M394 255l-85 -127l-85 -128h-222l223 314l61 86l-59 83l-209 297h219l79 -119l78 -119l79 119l78 119h219l-218 -308l-50 -72l52 -73l232 -327h-222l-85 128z" />
    <glyph glyph-name="Y" unicode="Y" horiz-adv-x="730" 
d="M-30 780h218l125 -219l52 -91l52 92l125 218h218l-302 -485v-295h-186v295z" />
    <glyph glyph-name="Z" unicode="Z" horiz-adv-x="682" 
d="M14 0v123l352 441l44 52l-128 -1h-250v165h629v-123l-352 -441l-44 -52l128 1h268v-165h-647z" />
    <glyph glyph-name="bracketleft" unicode="[" horiz-adv-x="330" 
d="M247 665v-630h54v-165h-239v960h239v-165h-54z" />
    <glyph glyph-name="backslash" unicode="\" horiz-adv-x="436" 
d="M240 -90l-229 960h185l229 -960h-185z" />
    <glyph glyph-name="bracketright" unicode="]" horiz-adv-x="330" 
d="M83 35v630h-54v165h239v-960h-239v165h54z" />
    <glyph glyph-name="asciicircum" unicode="^" horiz-adv-x="609" 
d="M305 596l-46 -98l-47 -98h-194l205 396h163l205 -396h-194z" />
    <glyph glyph-name="underscore" unicode="_" horiz-adv-x="348" 
d="M326 -200h-304v125h304v-125z" />
    <glyph glyph-name="grave" unicode="`" horiz-adv-x="600" 
d="M104 800h196l94 -208h-179z" />
    <glyph glyph-name="a" unicode="a" horiz-adv-x="612" 
d="M20 145c0 56.667 15.8311 96.501 47.498 119.501s79.5 39.167 143.5 48.5l175 25v15c0 32 -25.333 48 -76 48c-30 0 -51 -4.16699 -63 -12.5s-18.667 -20.833 -20 -37.5l-182 22c0 27.333 3.83301 50.833 11.5 70.5s20.834 37.5 39.501 53.5s45.834 28.167 81.501 36.5
s79.834 12.5 132.501 12.5c89.333 0 154.333 -16.833 195 -50.5s61 -86.834 61 -159.501v-182l10 -154h-165l-12 57c-20 -21.333 -47.833 -38.833 -83.5 -52.5s-75.834 -20.5 -120.501 -20.5c-53.333 0 -95.833 15.5 -127.5 46.5s-47.5 69.167 -47.5 114.5zM219.998 170.001
c0 -12 4 -21.835 12 -29.502s19 -11.5 33 -11.5c22 0 44.5 5 67.5 15s40.833 21.333 53.5 34v55l-109 -16c-20 -3.33301 -34.5 -8.66602 -43.5 -15.999s-13.5 -17.666 -13.5 -30.999z" />
    <glyph glyph-name="b" unicode="b" horiz-adv-x="647" 
d="M232 800v-316c40 41.333 91.667 62 155 62c75.333 0 132.833 -23.833 172.5 -71.5s59.5 -117.5 59.5 -209.5s-19.833 -161.833 -59.5 -209.5s-97.167 -71.5 -172.5 -71.5c-66 0 -122 24.333 -168 73l-12 -57h-165l10 154v646h180zM435 265c0 39.333 -9 68.833 -27 88.5
s-41.333 29.5 -70 29.5c-45.333 0 -80.666 -16.667 -105.999 -50v-136c25.333 -33.333 60.666 -50 105.999 -50c28.667 0 52 9.83301 70 29.5s27 49.167 27 88.5z" />
    <glyph glyph-name="c" unicode="c" horiz-adv-x="576" 
d="M210 265c0 -42.667 7 -73.332 21 -91.999s36.333 -28 67 -28c28 0 47.333 4.16699 58 12.5s16.667 21.5 18 39.5l182 -22c-0.666992 -28 -4.83398 -52.833 -12.501 -74.5s-20.834 -41.667 -39.501 -60s-45.167 -32.333 -79.5 -42s-76.5 -14.5 -126.5 -14.5
c-88 0 -155 23.833 -201 71.5s-69 117.5 -69 209.5s23 161.833 69 209.5s113 71.5 201 71.5c50 0 92.167 -4.83301 126.5 -14.5s60.833 -23.667 79.5 -42s31.834 -38.333 39.501 -60s11.834 -46.5 12.501 -74.5l-182 -22c-1.33301 18 -7.33301 31.167 -18 39.5
s-30 12.5 -58 12.5c-30.667 0 -53 -9.33301 -67 -28s-21 -49.334 -21 -92.001z" />
    <glyph glyph-name="d" unicode="d" horiz-adv-x="647" 
d="M415 484v316h180v-646l10 -154h-165l-12 57c-46 -48.667 -102 -73 -168 -73c-75.333 0 -132.833 23.833 -172.5 71.5s-59.5 117.5 -59.5 209.5s19.833 161.833 59.5 209.5s97.167 71.5 172.5 71.5c63.333 0 115 -20.667 155 -62zM212 265c0 -39.333 9 -68.833 27 -88.5
s41.333 -29.5 70 -29.5c45.333 0 80.666 16.667 105.999 50v136c-25.333 33.333 -60.666 50 -105.999 50c-28.667 0 -52 -9.83301 -70 -29.5s-27 -49.167 -27 -88.5z" />
    <glyph glyph-name="e" unicode="e" horiz-adv-x="615" 
d="M312 546c89.333 0 157.833 -24.001 205.5 -72.001s71.5 -117.667 71.5 -209v-51h-376c0 -26.667 9 -47.167 27 -61.5s43.333 -21.5 76 -21.5c54 0 82 11.333 84 34l182 -22c-1.33301 -47.333 -22.833 -85.666 -64.5 -114.999s-106.5 -44 -194.5 -44
c-94 0 -166.667 24.167 -218 72.5s-77 117.833 -77 208.5s25 160.167 75 208.5s119.667 72.5 209 72.5zM313 398.999c-28.667 0 -51.668 -7.33301 -69.001 -22s-26.666 -33.667 -27.999 -57h181c1.33301 25.333 -5.66699 44.833 -21 58.5s-36.333 20.5 -63 20.5z" />
    <glyph glyph-name="f" unicode="f" horiz-adv-x="464" 
d="M15 380v149.999h107v93c0 24.667 3.66699 47.834 11 69.501s19.333 42 36 61s40.5 34.167 71.5 45.5s67.833 17 110.5 17c44 0 81.667 -6.66699 113 -20l-13 -162c-30 19.333 -61.333 27.333 -94 24c-36.667 -4 -55 -24 -55 -60v-68h150v-150h-150v-380h-180v380h-107z
" />
    <glyph glyph-name="g" unicode="g" horiz-adv-x="644" 
d="M305 -69c73.333 0 110 23.668 110 71.001v67c-36.667 -39.333 -88.334 -59 -155.001 -59c-73.333 0 -130.333 22.5 -171 67.5s-61 111.833 -61 200.5s20.333 155.5 61 200.5s97.667 67.5 171 67.5c71.333 0 127.333 -24.333 168 -73l12 57h165l-10 -154v-382
c0 -36.667 -7.83301 -68.834 -23.5 -96.501s-37 -49.5 -64 -65.5s-56.667 -28 -89 -36s-66.833 -12 -103.5 -12c-98.667 0 -170.5 12.833 -215.5 38.5s-67.833 69.5 -68.5 131.5l182 29c0.666992 -18.667 7.83398 -32 21.501 -40s37.167 -12 70.5 -12zM212 278.001
c0 -70 32.333 -105 97 -105c45.333 0 80.666 16.667 105.999 50v110c-25.333 33.333 -60.666 50 -105.999 50c-64.667 0 -97 -35 -97 -105z" />
    <glyph glyph-name="h" unicode="h" horiz-adv-x="639" 
d="M44 0l-0.00195312 800h180v-314c38.667 40 90.334 60 155.001 60c72 0 126.333 -17.5 163 -52.5s55 -91.167 55 -168.5v-325h-180v302c0 29.333 -6.66699 50.333 -20 63s-32.666 18.667 -57.999 18c-26 -0.666992 -49.167 -6 -69.5 -16s-35.5 -21.333 -45.5 -34v-333
h-180z" />
    <glyph glyph-name="i" unicode="i" horiz-adv-x="290" 
d="M237 780v-182h-184v182h184zM55 0v530h180v-530h-180z" />
    <glyph glyph-name="j" unicode="j" horiz-adv-x="290" 
d="M0 -58c36.667 4 55 24.001 55 60.001v528h180v-553c0 -24.667 -3.66699 -47.834 -11 -69.501s-19.333 -42 -36 -61s-40.5 -34.167 -71.5 -45.5s-67.833 -17 -110.5 -17c-44 0 -81.667 6.66699 -113 20l13 162c30 -19.333 61.333 -27.333 94 -24zM237 780.001v-182h-184
v182h184z" />
    <glyph glyph-name="k" unicode="k" horiz-adv-x="640" 
d="M224 0h-180v800h180v-449l48 60l101 119h257l-213 -208l225 -322h-234l-122 202l-62 -59v-143z" />
    <glyph glyph-name="l" unicode="l" horiz-adv-x="290" 
d="M55 0v800h180v-800h-180z" />
    <glyph glyph-name="m" unicode="m" horiz-adv-x="978" 
d="M205 530l12.002 -57c36 48.667 90.333 73 163 73c76.667 0 132.667 -25 168 -75c49.333 50 111 75 185 75c64.667 0 114.667 -17 150 -51s53 -85 53 -153v-342h-180v322c0 40.667 -24 61 -72 61c-40.667 0 -74.334 -16.667 -101.001 -50v-333h-180v322
c0 40.667 -24 61 -72 61c-40.667 0 -74.334 -16.667 -101.001 -50v-333h-180v376l-10 154h165z" />
    <glyph glyph-name="n" unicode="n" horiz-adv-x="645" 
d="M205 530l11.999 -57c42.667 48.667 98.667 73 168 73c72 0 126.333 -17.5 163 -52.5s55 -91.167 55 -168.5v-325h-180v302c0 29.333 -6.66699 50.333 -20 63s-32.666 18.667 -57.999 18c-26 -0.666992 -49.167 -6 -69.5 -16s-35.5 -21.333 -45.5 -34v-333h-180v376
l-10 154h165z" />
    <glyph glyph-name="o" unicode="o" horiz-adv-x="620" 
d="M310 -16c-88.667 0 -157.834 23.833 -207.501 71.5s-74.5 117.5 -74.5 209.5s24.833 161.833 74.5 209.5s118.834 71.5 207.501 71.5s157.834 -23.833 207.501 -71.5s74.5 -117.5 74.5 -209.5s-24.833 -161.833 -74.5 -209.5s-118.834 -71.5 -207.501 -71.5zM310 384
c-32.667 0 -57.5 -8.83301 -74.5 -26.5s-25.5 -48.5 -25.5 -92.5s8.5 -74.833 25.5 -92.5s41.833 -26.5 74.5 -26.5s57.5 8.83301 74.5 26.5s25.5 48.5 25.5 92.5s-8.5 74.833 -25.5 92.5s-41.833 26.5 -74.5 26.5z" />
    <glyph glyph-name="p" unicode="p" horiz-adv-x="645" 
d="M230 46v-246h-180v576l-10 154h165l12 -57c46 48.667 102 73 168 73c75.333 0 132.833 -23.833 172.5 -71.5s59.5 -117.5 59.5 -209.5s-19.833 -161.833 -59.5 -209.5s-97.167 -71.5 -172.5 -71.5c-63.333 0 -115 20.667 -155 62zM433 265c0 39.333 -9 68.833 -27 88.5
s-41.333 29.5 -70 29.5c-45.333 0 -80.666 -16.667 -105.999 -50v-136c25.333 -33.333 60.666 -50 105.999 -50c28.667 0 52 9.83301 70 29.5s27 49.167 27 88.5z" />
    <glyph glyph-name="q" unicode="q" horiz-adv-x="647" 
d="M415 -200v246c-40 -41.333 -91.667 -62 -155 -62c-75.333 0 -132.833 23.833 -172.5 71.5s-59.5 117.5 -59.5 209.5s19.833 161.833 59.5 209.5s97.167 71.5 172.5 71.5c66 0 122 -24.333 168 -73l12 57h165l-10 -154v-576h-180zM212 265c0 -39.333 9 -68.833 27 -88.5
s41.333 -29.5 70 -29.5c45.333 0 80.666 16.667 105.999 50v136c-25.333 33.333 -60.666 50 -105.999 50c-28.667 0 -52 -9.83301 -70 -29.5s-27 -49.167 -27 -88.5z" />
    <glyph glyph-name="r" unicode="r" horiz-adv-x="436" 
d="M352 546c30 0 54.668 -4.33301 74.001 -13l-13 -168c-18.667 5.33301 -35.334 8 -50.001 8c-62.667 0 -107 -16.667 -133 -50v-323h-180v376l-10 154h165l12 -57c14.667 22.667 34.167 40.5 58.5 53.5s49.833 19.5 76.5 19.5z" />
    <glyph glyph-name="s" unicode="s" horiz-adv-x="570" 
d="M279 125c55.333 0 82.999 14.333 82.999 43c0 13.333 -6.66699 22.166 -20 26.499s-37 7.5 -71 9.5c-81.333 6 -135.333 14 -162 24c-50.667 18.667 -77.334 58.334 -80.001 119.001v12c0 33.333 7.83301 62.666 23.5 87.999s36.334 44.833 62.001 58.5
s52.834 23.834 81.501 30.501s58 10 88 10c85.333 0 148.833 -12.833 190.5 -38.5s62.834 -68.167 63.501 -127.5l-182 -22c-0.666992 16 -6 27.833 -16 35.5s-28.667 11.5 -56 11.5c-18 0 -32.667 -3.5 -44 -10.5s-17 -16.167 -17 -27.5c0 -12.667 6 -21.5 18 -26.5
s34.333 -8.5 67 -10.5c4 0 9.33301 -0.333008 16 -1c76 -4.66699 127.667 -13 155 -25c47.333 -22 71 -66 71 -132c0 -34 -7.83301 -63.667 -23.5 -89s-37 -45 -64 -59s-55.833 -24.167 -86.5 -30.5s-63.334 -9.5 -98.001 -9.5c-90.667 0 -156.5 13.333 -197.5 40
s-61.833 71 -62.5 133l182 22c0.666992 -36 27 -54 79 -54z" />
    <glyph glyph-name="t" unicode="t" horiz-adv-x="480" 
d="M15 380v149.999h97v160h180v-160h160v-150h-160v-178c0 -36 18.333 -56 55 -60c32.667 -3.33301 64 4.66699 94 24l13 -162c-31.333 -13.333 -69 -20 -113 -20c-42.667 0 -79.5 5.66699 -110.5 17s-54.833 26.5 -71.5 45.5s-28.667 39.333 -36 61s-11 44.834 -11 69.501
v203h-97z" />
    <glyph glyph-name="u" unicode="u" horiz-adv-x="645" 
d="M440 0l-11.999 57c-42.667 -48.667 -98.667 -73 -168 -73c-72 0 -126.333 17.5 -163 52.5s-55 91.167 -55 168.5v325h180v-302c0 -29.333 6.66699 -50.333 20 -63s32.666 -18.667 57.999 -18c26 0.666992 49.167 6 69.5 16s35.5 21.333 45.5 34v333h180v-376l10 -154
h-165z" />
    <glyph glyph-name="v" unicode="v" horiz-adv-x="612" 
d="M621 530l-221 -530h-188l-221 530h198l59 -173l58 -174l59 174l58 173h198z" />
    <glyph glyph-name="w" unicode="w" horiz-adv-x="850" 
d="M450 193l-25 177l-25 -177l-33 -193h-252l-96 530h187l23 -200l14 -159l30 171l36 188h232l36 -188l30 -171l14 159l23 200h187l-96 -530h-252z" />
    <glyph glyph-name="x" unicode="x" horiz-adv-x="638" 
d="M319 153l-52 -75l-53 -78h-223l170 214l50 61l-50 60l-155 195h220l47 -70l46 -69l47 69l46 70h220l-160 -200l-45 -55l47 -57l173 -218h-223l-52 78z" />
    <glyph glyph-name="y" unicode="y" horiz-adv-x="626" 
d="M635 530l-228 -497l-98 -233h-208l113 242l-223 488h201l61 -163l60 -171l61 171l60 163h201z" />
    <glyph glyph-name="z" unicode="z" horiz-adv-x="566" 
d="M13 0v121l264 250h-246v159h511v-121l-264 -250h275v-159h-540z" />
    <glyph glyph-name="braceleft" unicode="{" horiz-adv-x="359" 
d="M9 432l24 -0.000976562c36.667 0 55 16 55 48v147c0 135.333 72.667 203 218 203h42v-165h-24c-36.667 0 -55 -16 -55 -48v-155c0 -55.333 -23.667 -92.666 -71 -111.999c47.333 -19.333 71 -56.333 71 -111v-156c0 -32 18.333 -48 55 -48h24v-165h-42
c-145.333 0 -218 67.667 -218 203v148c0 32 -18.333 48 -55 48h-24v163z" />
    <glyph glyph-name="bar" unicode="|" horiz-adv-x="331" 
d="M258 830v-960h-185v960h185z" />
    <glyph glyph-name="braceright" unicode="}" horiz-adv-x="359" 
d="M350 268l-24 0.000976562c-36.667 0 -55 -16 -55 -48v-147c0 -135.333 -72.667 -203 -218 -203h-42v165h24c36.667 0 55 16 55 48v155c0 55.333 23.667 92.666 71 111.999c-47.333 19.333 -71 56.333 -71 111v156c0 32 -18.333 48 -55 48h-24v165h42
c145.333 0 218 -67.667 218 -203v-148c0 -32 18.333 -48 55 -48h24v-163z" />
    <glyph glyph-name="asciitilde" unicode="~" horiz-adv-x="500" 
d="M345 383c16.667 0 31.334 3.83301 44.001 11.5s21 14.167 25 19.5l72 -93c-5.33301 -15.333 -21.5 -33.5 -48.5 -54.5s-59.5 -31.5 -97.5 -31.5c-32.667 0 -67.167 8.83301 -103.5 26.5s-63.5 26.5 -81.5 26.5c-16.667 0 -31.334 -3.83301 -44.001 -11.5
s-21 -14.167 -25 -19.5l-72 93c5.33301 15.333 21.5 33.5 48.5 54.5s59.5 31.5 97.5 31.5c32.667 0 67.167 -8.83301 103.5 -26.5s63.5 -26.5 81.5 -26.5z" />
    <glyph glyph-name="nbspace" unicode="&#xa0;" horiz-adv-x="220" 
 />
    <glyph glyph-name="exclamdown" unicode="&#xa1;" horiz-adv-x="300" 
d="M248 -200h-196l26 481h144zM242 530v-182h-184v182h184z" />
    <glyph glyph-name="cent" unicode="&#xa2;" horiz-adv-x="596" 
d="M485 764l-33.001 -121.998c80 -26.667 121.333 -84 124 -172l-182 -22c-1.33301 18 -8.16602 31.167 -20.499 39.5s-34.166 12.5 -65.499 12.5c-65.333 0 -98 -40 -98 -120s32.667 -120 98 -120c31.333 0 53.166 4.16699 65.499 12.5s19.166 21.5 20.499 39.5l182 -22
c-1.33301 -58.667 -21.166 -105 -59.499 -139s-104.5 -51.333 -198.5 -52l-27 -99h-157l34 126c-93.333 41.333 -140 126 -140 254c0 89.333 23.667 158.166 71 206.499s114.333 73.166 201 74.499l28 103h157z" />
    <glyph glyph-name="sterling" unicode="&#xa3;" horiz-adv-x="784" 
d="M36 0v163.999h108v143h-108v164h108v36c0 96.667 25.833 166.334 77.5 209.001s131.834 64 240.501 64c100.667 0 175.167 -18.667 223.5 -56s73.166 -94 74.499 -170l-183 -22c-2.66699 62 -41 92.667 -115 92c-52 -0.666992 -88.167 -10.5 -108.5 -29.5
s-30.5 -50.167 -30.5 -93.5v-30h238v-164h-238v-143h429v-164h-716z" />
    <glyph glyph-name="currency" unicode="&#xa4;" horiz-adv-x="800" 
d="M400 247c42 0 73.667 10.667 95 32s32 55.666 32 102.999s-10.667 81.666 -32 102.999s-53 32 -95 32s-73.667 -10.667 -95 -32s-32 -55.666 -32 -102.999s10.667 -81.666 32 -102.999s53 -32 95 -32zM19 125l104 104c-22.667 44 -34 95 -34 153s11.333 109 34 153
l-104 104l116 116l107 -107c46 21.333 98.667 32 158 32s112 -10.667 158 -32l107 107l116 -116l-104 -104c22.667 -43.333 34 -94.333 34 -153s-11.333 -109.667 -34 -153l104 -104l-116 -116l-107 107c-46 -21.333 -98.667 -32 -158 -32s-112 10.667 -158 32l-107 -107z
" />
    <glyph glyph-name="yen" unicode="&#xa5;" horiz-adv-x="810" 
d="M7 764h208l156 -239l34 -52l34 52l156 239h208l-249 -363h135v-114h-191v-30h191v-114h-191v-143h-186v143h-191v114h191v30h-191v114h135z" />
    <glyph glyph-name="brokenbar" unicode="&#xa6;" horiz-adv-x="331" 
d="M258 295v-425h-185v425h185zM258 830v-425h-185v425h185z" />
    <glyph glyph-name="section" unicode="&#xa7;" horiz-adv-x="710" 
d="M378 515c28 -2.66699 51.667 -5.16699 71 -7.5s40.5 -6 63.5 -11s42.167 -10.833 57.5 -17.5s30.666 -15.334 45.999 -26.001s27.5 -23.167 36.5 -37.5s16.333 -31.5 22 -51.5s8.5 -42.667 8.5 -68c0 -38 -8.83301 -72.167 -26.5 -102.5s-41.167 -54.166 -70.5 -71.499
c28.667 -26.667 43 -65 43 -115s-14.167 -92.333 -42.5 -127s-63.5 -59.334 -105.5 -74.001s-89 -22 -141 -22c-206 0 -310 77 -312 231l188 23c0.666992 -34.667 11.167 -58.834 31.5 -72.501s51.166 -20.5 92.499 -20.5c24.667 0 47.5 5 68.5 15s31.5 26.333 31.5 49
c-0.666992 16 -9.16699 28.5 -25.5 37.5s-43.833 15.167 -82.5 18.5c-28 2.66699 -51.667 5.16699 -71 7.5s-40.5 6 -63.5 11s-42.167 10.833 -57.5 17.5s-30.666 15.334 -45.999 26.001s-27.5 23.167 -36.5 37.5s-16.333 31.5 -22 51.5s-8.5 42.667 -8.5 68
c0 38 8.83301 72.167 26.5 102.5s41.167 54.166 70.5 71.499c-28.667 26.667 -43 65 -43 115s14.167 92.333 42.5 127s63.5 59.334 105.5 74.001s89 22 141 22c206 0 310 -77 312 -231l-188 -23c-0.666992 34.667 -11.167 58.834 -31.5 72.501s-51.166 20.5 -92.499 20.5
c-24.667 0 -47.5 -5 -68.5 -15s-31.5 -26.333 -31.5 -49c0.666992 -16 9.16699 -28.5 25.5 -37.5s43.833 -15.167 82.5 -18.5zM206 287c0 -26.667 11 -45.335 33 -56.002s58 -18 108 -22c23.333 -2 46.5 -0.666992 69.5 4s43.5 13.834 61.5 27.501s27 31.167 27 52.5
c0 26.667 -11 45.334 -33 56.001s-58 18 -108 22c-23.333 2 -46.5 0.833008 -69.5 -3.5s-43.5 -13.333 -61.5 -27s-27 -31.5 -27 -53.5z" />
    <glyph glyph-name="dieresis" unicode="&#xa8;" horiz-adv-x="600" 
d="M272 780v-182h-184v182h184zM512 780v-182h-184v182h184z" />
    <glyph glyph-name="copyright" unicode="&#xa9;" horiz-adv-x="900" 
d="M44 390c0 112 39.667 207.667 119 287s175 119 287 119s207.667 -39.667 287 -119s119 -175 119 -287s-39.667 -207.667 -119 -287s-175 -119 -287 -119s-207.667 39.667 -287 119s-119 175 -119 287zM362 390c0 42.667 7 73.332 21 91.999s36.333 28 67 28
s50.667 -4 60 -12s14.666 -21.333 15.999 -40l182 22c-1.33301 57.333 -22.5 103.5 -63.5 138.5s-105.833 52.5 -194.5 52.5c-80 0 -145 -24.833 -195 -74.5s-75 -118.5 -75 -206.5s25 -156.833 75 -206.5s115 -74.5 195 -74.5c88.667 0 153.5 17.5 194.5 52.5
s62.167 81.167 63.5 138.5l-182 22c-1.33301 -18.667 -6.66602 -32 -15.999 -40s-29.333 -12 -60 -12s-53 9.33301 -67 28s-21 49.334 -21 92.001z" />
    <glyph glyph-name="ordfeminine" unicode="&#xaa;" horiz-adv-x="472" 
d="M20 499c0 42.667 14.166 72.499 42.499 89.499s78.166 30.5 149.499 40.5l78 11v9c0 17.333 -16.333 26 -49 26c-33.333 0.666992 -51.333 -9.66602 -54 -30.999l-148 18c2.66699 89.333 68.334 134 197.001 134c133.333 0 200 -52.333 200 -157v-134l8 -115h-136l-9 36
c-31.333 -34.667 -77.333 -52 -138 -52c-45.333 0 -80.166 11.167 -104.499 33.5s-36.5 52.833 -36.5 91.5zM174.999 517.999c0 -17.333 10.333 -26 31 -26c19.333 0 37 5.5 53 16.5s26.333 22.5 31 34.5v20l-73 -11c-28 -4 -42 -15.333 -42 -34z" />
    <glyph glyph-name="guillemotleft" unicode="&#xab;" horiz-adv-x="520" 
d="M250 261v-142l-208 143v106l208 143v-141l-59 -55zM470 261v-142l-208 143v106l208 143v-141l-59 -55z" />
    <glyph glyph-name="logicalnot" unicode="&#xac;" 
d="M456 208v200h-376v164h540v-364h-164z" />
    <glyph glyph-name="uni00AD" unicode="&#xad;" horiz-adv-x="392" 
d="M348 253h-304v164h304v-164z" />
    <glyph glyph-name="registered" unicode="&#xae;" horiz-adv-x="900" 
d="M44 390c0 112 39.667 207.667 119 287s175 119 287 119s207.667 -39.667 287 -119s119 -175 119 -287s-39.667 -207.667 -119 -287s-175 -119 -287 -119s-207.667 39.667 -287 119s-119 175 -119 287zM434 314l88 -189h173l-108 210c53.333 26 80 76 80 150
c0 113.333 -61.333 170 -184 170h-243v-530h144v189h50zM485 456h-101v58h101c23.333 0 35 -9.66699 35 -29s-11.667 -29 -35 -29z" />
    <glyph glyph-name="macron" unicode="&#xaf;" horiz-adv-x="600" 
d="M134 616v164h332v-164h-332z" />
    <glyph glyph-name="degree" unicode="&#xb0;" horiz-adv-x="472" 
d="M236 536c40.667 0 61 19.333 61 58c0 39.333 -20.333 59 -61 59s-61 -19.667 -61 -59c0 -38.667 20.333 -58 61 -58zM236 408c-58.667 0 -106 15.833 -142 47.5s-54 77.834 -54 138.501s18 106.834 54 138.501s83.333 47.5 142 47.5s106 -15.833 142 -47.5
s54 -77.834 54 -138.501s-18 -106.834 -54 -138.501s-83.333 -47.5 -142 -47.5z" />
    <glyph glyph-name="plusminus" unicode="&#xb1;" 
d="M268 300v123h-188v164h188v123h164v-123h188v-164h-188v-123h-164zM620 70h-540v164h540v-164z" />
    <glyph glyph-name="twosuperior" unicode="&#xb2;" horiz-adv-x="460" 
d="M229 780c60 0 107.163 -11.6689 141.496 -35.002s51.5 -56.666 51.5 -99.999c0 -41.333 -12.5 -70.166 -37.5 -86.499s-68.5 -29.5 -130.5 -39.5c-35.333 -5.33301 -54 -15.333 -56 -30l65 2h167v-137h-399c-1.33301 32 -1 59.5 1 82.5s6.66699 42.833 14 59.5
s15.166 30.334 23.499 41.001s20.833 20 37.5 28s32.5 14.167 47.5 18.5s35.5 9.16602 61.5 14.499c38 8 57 18 57 30c0 16 -12.667 24.333 -38 25c-31.333 1.33301 -47.666 -9.33398 -48.999 -32.001l-151 11c0.666992 29.333 5.83398 53.833 15.501 73.5
s23.834 34.834 42.501 45.501s38.834 18.167 60.501 22.5s46.834 6.5 75.501 6.5z" />
    <glyph glyph-name="threesuperior" unicode="&#xb3;" horiz-adv-x="466" 
d="M436 475c0 -88.667 -69.333 -132.997 -208 -132.997c-133.333 0 -201 52.667 -203 158l151 11c1.33301 -22.667 20.333 -33.334 57 -32.001c36 1.33301 54 10 54 26c0 14 -14 21 -42 21h-86v83h91c16.667 0 25 6.66699 25 20c0 15.333 -12 23.333 -36 24
c-32.667 1.33301 -49.667 -9.33398 -51 -32.001l-151 11c0.666992 56 17.167 94.667 49.5 116s81.833 32 148.5 32c127.333 0 191 -44.333 191 -133c0 -36.667 -12 -63.334 -36 -80.001c30.667 -16 46 -46.667 46 -92z" />
    <glyph glyph-name="acute" unicode="&#xb4;" horiz-adv-x="600" 
d="M300 800h196l-111 -208h-179z" />
    <glyph glyph-name="mu" unicode="&#xb5;" horiz-adv-x="645" 
d="M440 0l-11.998 47.001c-17.333 -18.667 -41.5 -33.834 -72.5 -45.501s-62.833 -17.5 -95.5 -17.5c-14.667 0 -27.334 2 -38.001 6v-190h-180v730h180v-302c0 -29.333 6.66699 -50.333 20 -63s32.666 -18.667 57.999 -18c26 0.666992 49.167 6 69.5 16
s35.5 21.333 45.5 34v333h180v-376l10 -154h-165z" />
    <glyph glyph-name="paragraph" unicode="&#xb6;" horiz-adv-x="681" 
d="M374 615l-0.000976562 -614.998h-70v249c-190 0 -285 88.667 -285 266c0 51.333 8.16699 95.166 24.5 131.499s39 63.666 68 81.999s59.333 31.5 91 39.5s66.834 12 105.501 12h321v-780h-185v615h-70z" />
    <glyph glyph-name="periodcentered" unicode="&#xb7;" horiz-adv-x="300" 
d="M242 427v-182h-184v182h184z" />
    <glyph glyph-name="cedilla" unicode="&#xb8;" horiz-adv-x="600" 
d="M236 12h93.999l-12 -45c36 -7.33301 63.333 -19 82 -35s26.334 -37.333 23.001 -64c-3.33301 -28 -17.333 -49 -42 -63s-55 -21 -91 -21c-50.667 0 -93.667 7.66699 -129 23l25 76c16 -8.66699 32.667 -14.334 50 -17.001c32 -4.66699 48 2.33301 48 21
c0 9.33301 -7 17.333 -21 24s-33 11.334 -57 14.001z" />
    <glyph glyph-name="onesuperior" unicode="&#xb9;" horiz-adv-x="420" 
d="M294 780v-289h96v-137h-351v137h106v101c-32 -19.333 -70.667 -29 -116 -29v139c64.667 10 113.667 36 147 78h118z" />
    <glyph glyph-name="ordmasculine" unicode="&#xba;" horiz-adv-x="493" 
d="M248 374c-68.667 0 -122.5 18.333 -161.5 55s-58.5 88.667 -58.5 156s19.5 119.333 58.5 156s92.833 55 161.5 55c68 0 121.167 -18.333 159.5 -55s57.5 -88.667 57.5 -156s-19.167 -119.333 -57.5 -156s-91.5 -55 -159.5 -55zM248 664c-24.667 0 -43.334 -6 -56.001 -18
s-19 -32.333 -19 -61s6.33301 -49 19 -61s31.334 -18 56.001 -18c50 0 75 26.333 75 79s-25 79 -75 79z" />
    <glyph glyph-name="guillemotright" unicode="&#xbb;" horiz-adv-x="520" 
d="M270 119v142l59 54l-59 55v141l208 -143v-106zM50 119v142l59 54l-59 55v141l208 -143v-106z" />
    <glyph glyph-name="onequarter" unicode="&#xbc;" horiz-adv-x="1082" 
d="M1057 53h-70v-53h-149v53h-207v126l205 247h151v-235h70v-138zM838 191v74l-58 -74h58zM190 0l551 764h196l-551 -764h-196zM294 780v-289h96v-137h-351v137h106v101c-32 -19.333 -70.667 -29 -116 -29v139c64.667 10 113.667 36 147 78h118z" />
    <glyph glyph-name="onehalf" unicode="&#xbd;" horiz-adv-x="1132" 
d="M901 426c60 0 107.163 -11.6689 141.496 -35.002s51.5 -56.666 51.5 -99.999c0 -41.333 -12.5 -70.166 -37.5 -86.499s-68.5 -29.5 -130.5 -39.5c-35.333 -5.33301 -54 -15.333 -56 -30l65 2h167v-137h-399c-1.33301 32 -1 59.5 1 82.5s6.66699 42.833 14 59.5
s15.166 30.334 23.499 41.001s20.833 20 37.5 28s32.5 14.167 47.5 18.5s35.5 9.16602 61.5 14.499c38 8 57 18 57 30c0 16 -12.667 24.333 -38 25c-31.333 1.33301 -47.666 -9.33398 -48.999 -32.001l-151 11c0.666992 29.333 5.83398 53.833 15.501 73.5
s23.834 34.834 42.501 45.501s38.834 18.167 60.501 22.5s46.834 6.5 75.501 6.5zM189.996 -0.00195312l551 764h196l-551 -764h-196zM293.996 779.998v-289h96v-137h-351v137h106v101c-32 -19.333 -70.667 -29 -116 -29v139c64.667 10 113.667 36 147 78h118z" />
    <glyph glyph-name="threequarters" unicode="&#xbe;" horiz-adv-x="1096" 
d="M951 764l-551 -764h-196l551 764h196zM436 475c0 -88.667 -69.333 -132.997 -208 -132.997c-133.333 0 -201 52.667 -203 158l151 11c1.33301 -22.667 20.333 -33.334 57 -32.001c36 1.33301 54 10 54 26c0 14 -14 21 -42 21h-86v83h91c16.667 0 25 6.66699 25 20
c0 15.333 -12 23.333 -36 24c-32.667 1.33301 -49.667 -9.33398 -51 -32.001l-151 11c0.666992 56 17.167 94.667 49.5 116s81.833 32 148.5 32c127.333 0 191 -44.333 191 -133c0 -36.667 -12 -63.334 -36 -80.001c30.667 -16 46 -46.667 46 -92zM1071 53.0029h-70v-53
h-149v53h-207v126l205 247h151v-235h70v-138zM852 191.003v74l-58 -74h58z" />
    <glyph glyph-name="questiondown" unicode="&#xbf;" horiz-adv-x="623" 
d="M266 281l147 -0.00390625c6 -6.66699 12.667 -18.5 20 -35.5s11 -34.167 11 -51.5c0 -14.667 -1.5 -27.5 -4.5 -38.5s-8.83301 -20.833 -17.5 -29.5s-15.834 -15.5 -21.501 -20.5s-16.334 -10.167 -32.001 -15.5s-26.667 -9 -33 -11s-19.166 -5.66699 -38.499 -11
c-54 -14 -81 -34.667 -81 -62c0 -38.667 30.333 -58 91 -58c36 0 63.833 7.33301 83.5 22s29.834 41.334 30.501 80.001l182 -22c-0.666992 -80 -26.167 -140.667 -76.5 -182s-123.5 -62 -219.5 -62c-88 0 -156.5 18.5 -205.5 55.5s-73.5 92.167 -73.5 165.5
c0 33.333 4.66699 61.833 14 85.5s23.833 42.834 43.5 57.501s37 25.334 52 32.001s35.833 14.667 62.5 24c1.33301 0.666992 2.33301 1 3 1s1.66699 0.333008 3 1s2.33301 1 3 1c44.667 14.667 67 26.334 67 35.001c0 4.66699 -3.33301 17.667 -10 39zM241 347.996v182h184
v-182h-184z" />
    <glyph glyph-name="Agrave" unicode="&#xc0;" horiz-adv-x="754" 
d="M174 1030h196l94 -208h-179zM561 0l-41 133h-286l-41 -133h-198l273 790h218l273 -790h-198zM354 520l-74 -237h193l-73 237l-23 79z" />
    <glyph glyph-name="Aacute" unicode="&#xc1;" horiz-adv-x="754" 
d="M384 1030h196l-111 -208h-179zM561 0l-41 133h-286l-41 -133h-198l273 790h218l273 -790h-198zM354 520l-74 -237h193l-73 237l-23 79z" />
    <glyph glyph-name="Acircumflex" unicode="&#xc2;" horiz-adv-x="754" 
d="M324 822h-183l158 208h156l158 -208h-183l-53 59zM561 0l-41 133h-286l-41 -133h-198l273 790h218l273 -790h-198zM354 520l-74 -237h193l-73 237l-23 79z" />
    <glyph glyph-name="Atilde" unicode="&#xc3;" horiz-adv-x="754" 
d="M458 806c-24 0 -46 4 -66 12s-35.167 16.667 -45.5 26s-21.166 18 -32.499 26s-22 12 -32 12c-10.667 0 -19 -4 -25 -12s-9.66699 -16 -11 -24l-1 -11l-124 15c3.33301 34.667 11 66 23 94s31 52 57 72s57.667 30 95 30c24 0 46 -4 66 -12s35.167 -16.667 45.5 -26
s21.166 -18 32.499 -26s22 -12 32 -12c10.667 0 19 4 25 12s9.66699 16 11 24l1 11l124 -15c-3.33301 -34.667 -11 -66 -23 -94s-31 -52 -57 -72s-57.667 -30 -95 -30zM561 0l-41 133h-286l-41 -133h-198l273 790h218l273 -790h-198zM354 520l-74 -237h193l-73 237l-23 79z
" />
    <glyph glyph-name="Adieresis" unicode="&#xc4;" horiz-adv-x="754" 
d="M349 1010v-182h-184v182h184zM589 1010v-182h-184v182h184zM561 0l-41 133h-286l-41 -133h-198l273 790h218l273 -790h-198zM354 520l-74 -237h193l-73 237l-23 79z" />
    <glyph glyph-name="Aring" unicode="&#xc5;" horiz-adv-x="754" 
d="M257 926c0 36 10.667 65 32 87s50.666 33 87.999 33s66.666 -11 87.999 -33s32 -51 32 -87s-10.667 -65 -32 -87s-50.666 -33 -87.999 -33s-66.666 11 -87.999 33s-32 51 -32 87zM561 0l-41 133h-286l-41 -133h-198l273 790h218l273 -790h-198zM354 520l-74 -237h193
l-73 237l-23 79zM405 926c0 18.667 -9.33301 28 -28 28s-28 -9.33301 -28 -28s9.33301 -28 28 -28s28 9.33301 28 28z" />
    <glyph glyph-name="AE" unicode="&#xc6;" horiz-adv-x="1060" 
d="M541 0l-24 166h-253l-81 -166h-204l418 780h613v-165h-381l22 -134h305v-165h-278l25 -151h327v-165h-489zM461 570l-124 -254h159l-29 210z" />
    <glyph glyph-name="Ccedilla" unicode="&#xc7;" horiz-adv-x="743" 
d="M41 390c0 270.667 117.668 406.002 353.001 406.002c105.333 0 185.666 -22.833 240.999 -68.5s83.666 -109.834 84.999 -192.501l-188 -23c-0.666992 43.333 -12 74 -34 92s-56.667 27 -104 27c-34.667 0 -63.5 -6.33301 -86.5 -19s-40 -31.167 -51 -55.5
s-18.5 -49.333 -22.5 -75s-6 -56.167 -6 -91.5s2 -65.833 6 -91.5s11.5 -50.667 22.5 -75s28 -42.833 51 -55.5s51.833 -19 86.5 -19c47.333 0 82 9 104 27s33.333 48.667 34 92l188 -23c-1.33301 -76.667 -25.5 -137.334 -72.5 -182.001s-115.833 -70.334 -206.5 -77.001
l-5 -19c36 -7.33301 63.333 -19 82 -35s26.334 -37.333 23.001 -64c-3.33301 -28 -17.333 -49 -42 -63s-55 -21 -91 -21c-50.667 0 -93.667 7.66699 -129 23l25 76c16 -8.66699 32.667 -14.334 50 -17.001c32 -4.66699 48 2.33301 48 21c0 9.33301 -7 17.333 -21 24
s-33 11.334 -57 14.001l21 61c-202.667 18.667 -304 153.334 -304 404.001z" />
    <glyph glyph-name="Egrave" unicode="&#xc8;" horiz-adv-x="668" 
d="M52 780h566v-165h-381v-134h327v-165h-327v-151h401v-165h-586v780zM154 1030h196l94 -208h-179z" />
    <glyph glyph-name="Eacute" unicode="&#xc9;" horiz-adv-x="668" 
d="M52 780h566v-165h-381v-134h327v-165h-327v-151h401v-165h-586v780zM350 1030h196l-111 -208h-179z" />
    <glyph glyph-name="Ecircumflex" unicode="&#xca;" horiz-adv-x="668" 
d="M52 780h566v-165h-381v-134h327v-165h-327v-151h401v-165h-586v780zM287 822h-183l158 208h156l158 -208h-183l-53 59z" />
    <glyph glyph-name="Edieresis" unicode="&#xcb;" horiz-adv-x="668" 
d="M52 780h566v-165h-381v-134h327v-165h-327v-151h401v-165h-586v780zM312 1010v-182h-184v182h184zM552 1010v-182h-184v182h184z" />
    <glyph glyph-name="Igrave" unicode="&#xcc;" horiz-adv-x="311" 
d="M248 780v-780h-185v780h185zM-48 1030h196l94 -208h-179z" />
    <glyph glyph-name="Iacute" unicode="&#xcd;" horiz-adv-x="311" 
d="M248 780v-780h-185v780h185zM163 1030h196l-111 -208h-179z" />
    <glyph glyph-name="Icircumflex" unicode="&#xce;" horiz-adv-x="311" 
d="M248 780v-780h-185v780h185zM102 822h-183l158 208h156l158 -208h-183l-53 59z" />
    <glyph glyph-name="Idieresis" unicode="&#xcf;" horiz-adv-x="311" 
d="M248 780v-780h-185v780h185zM127 1010v-182h-184v182h184zM367 1010v-182h-184v182h184z" />
    <glyph glyph-name="Eth" unicode="&#xd0;" horiz-adv-x="797" 
d="M395 0l-293 -0.00195312v338h-100v124h100v318h293c127.333 0 222.166 -31.667 284.499 -95s93.5 -161.666 93.5 -294.999s-31.167 -231.666 -93.5 -294.999s-157.166 -95 -284.499 -95zM287 164.998l108 0.00195312c69.333 0 118.5 19.167 147.5 57.5
s43.5 94.166 43.5 167.499s-14.5 129.166 -43.5 167.499s-78.167 57.5 -147.5 57.5h-108v-153h158v-124h-158v-173z" />
    <glyph glyph-name="Ntilde" unicode="&#xd1;" horiz-adv-x="768" 
d="M223 780l237 -344l72 -109l-1 145v308h185v-780h-171l-237 344l-72 109l1 -145v-308h-185v780h171zM465 806c-24 0 -46 4 -66 12s-35.167 16.667 -45.5 26s-21.166 18 -32.499 26s-22 12 -32 12c-10.667 0 -19 -4 -25 -12s-9.33301 -16 -10 -24l-2 -11l-124 15
c6 55.333 23.167 101.833 51.5 139.5s69.5 56.5 123.5 56.5c24 0 46 -4 66 -12s35.167 -16.667 45.5 -26s21.166 -18 32.499 -26s22 -12 32 -12c10.667 0 19 4 25 12s9.33301 16 10 24l2 11l124 -15c-6 -55.333 -23.167 -101.833 -51.5 -139.5s-69.5 -56.5 -123.5 -56.5z
" />
    <glyph glyph-name="Ograve" unicode="&#xd2;" horiz-adv-x="820" 
d="M410 -16c-126 0 -218.833 35.833 -278.5 107.5s-89.5 171.167 -89.5 298.5s29.667 226.833 89 298.5s152.333 107.5 279 107.5c126 0 218.833 -35.833 278.5 -107.5s89.5 -171.167 89.5 -298.5s-29.667 -226.833 -89 -298.5s-152.333 -107.5 -279 -107.5zM410 631
c-35.333 0 -65.333 -6.33301 -90 -19s-43.334 -30.834 -56.001 -54.501s-21.667 -49 -27 -76s-8 -57.5 -8 -91.5s2.66699 -64.5 8 -91.5s14.333 -52.333 27 -76s31.334 -41.834 56.001 -54.501s54.667 -19 90 -19s65.333 6.33301 90 19s43.334 30.834 56.001 54.501
s21.667 49 27 76s8 57.5 8 91.5s-2.66699 64.5 -8 91.5s-14.333 52.333 -27 76s-31.334 41.834 -56.001 54.501s-54.667 19 -90 19zM214 1030h196l94 -208h-179z" />
    <glyph glyph-name="Oacute" unicode="&#xd3;" horiz-adv-x="820" 
d="M410 -16c-126 0 -218.833 35.833 -278.5 107.5s-89.5 171.167 -89.5 298.5s29.667 226.833 89 298.5s152.333 107.5 279 107.5c126 0 218.833 -35.833 278.5 -107.5s89.5 -171.167 89.5 -298.5s-29.667 -226.833 -89 -298.5s-152.333 -107.5 -279 -107.5zM410 631
c-35.333 0 -65.333 -6.33301 -90 -19s-43.334 -30.834 -56.001 -54.501s-21.667 -49 -27 -76s-8 -57.5 -8 -91.5s2.66699 -64.5 8 -91.5s14.333 -52.333 27 -76s31.334 -41.834 56.001 -54.501s54.667 -19 90 -19s65.333 6.33301 90 19s43.334 30.834 56.001 54.501
s21.667 49 27 76s8 57.5 8 91.5s-2.66699 64.5 -8 91.5s-14.333 52.333 -27 76s-31.334 41.834 -56.001 54.501s-54.667 19 -90 19zM410 1030h196l-111 -208h-179z" />
    <glyph glyph-name="Ocircumflex" unicode="&#xd4;" horiz-adv-x="820" 
d="M410 631c-35.333 0 -65.333 -6.33301 -90 -19s-43.334 -30.834 -56.001 -54.501s-21.667 -49 -27 -76s-8 -57.5 -8 -91.5s2.66699 -64.5 8 -91.5s14.333 -52.333 27 -76s31.334 -41.834 56.001 -54.501s54.667 -19 90 -19s65.333 6.33301 90 19
s43.334 30.834 56.001 54.501s21.667 49 27 76s8 57.5 8 91.5s-2.66699 64.5 -8 91.5s-14.333 52.333 -27 76s-31.334 41.834 -56.001 54.501s-54.667 19 -90 19zM410 -16c-126 0 -218.833 35.833 -278.5 107.5s-89.5 171.167 -89.5 298.5s29.667 226.833 89 298.5
s152.333 107.5 279 107.5c126 0 218.833 -35.833 278.5 -107.5s89.5 -171.167 89.5 -298.5s-29.667 -226.833 -89 -298.5s-152.333 -107.5 -279 -107.5zM357 822h-183l158 208h156l158 -208h-183l-53 59z" />
    <glyph glyph-name="Otilde" unicode="&#xd5;" horiz-adv-x="820" 
d="M410 631c-35.333 0 -65.333 -6.33301 -90 -19s-43.334 -30.834 -56.001 -54.501s-21.667 -49 -27 -76s-8 -57.5 -8 -91.5s2.66699 -64.5 8 -91.5s14.333 -52.333 27 -76s31.334 -41.834 56.001 -54.501s54.667 -19 90 -19s65.333 6.33301 90 19
s43.334 30.834 56.001 54.501s21.667 49 27 76s8 57.5 8 91.5s-2.66699 64.5 -8 91.5s-14.333 52.333 -27 76s-31.334 41.834 -56.001 54.501s-54.667 19 -90 19zM410 -16c-126 0 -218.833 35.833 -278.5 107.5s-89.5 171.167 -89.5 298.5s29.667 226.833 89 298.5
s152.333 107.5 279 107.5c126 0 218.833 -35.833 278.5 -107.5s89.5 -171.167 89.5 -298.5s-29.667 -226.833 -89 -298.5s-152.333 -107.5 -279 -107.5zM491 806c-24 0 -46 4 -66 12s-35.167 16.667 -45.5 26s-21.166 18 -32.499 26s-22 12 -32 12c-10.667 0 -19 -4 -25 -12
s-9.33301 -16 -10 -24l-2 -11l-124 15c6 55.333 23.167 101.833 51.5 139.5s69.5 56.5 123.5 56.5c24 0 46 -4 66 -12s35.167 -16.667 45.5 -26s21.166 -18 32.499 -26s22 -12 32 -12c10.667 0 19 4 25 12s9.33301 16 10 24l2 11l124 -15
c-6 -55.333 -23.167 -101.833 -51.5 -139.5s-69.5 -56.5 -123.5 -56.5z" />
    <glyph glyph-name="Odieresis" unicode="&#xd6;" horiz-adv-x="820" 
d="M410 631c-35.333 0 -65.333 -6.33301 -90 -19s-43.334 -30.834 -56.001 -54.501s-21.667 -49 -27 -76s-8 -57.5 -8 -91.5s2.66699 -64.5 8 -91.5s14.333 -52.333 27 -76s31.334 -41.834 56.001 -54.501s54.667 -19 90 -19s65.333 6.33301 90 19
s43.334 30.834 56.001 54.501s21.667 49 27 76s8 57.5 8 91.5s-2.66699 64.5 -8 91.5s-14.333 52.333 -27 76s-31.334 41.834 -56.001 54.501s-54.667 19 -90 19zM410 -16c-126 0 -218.833 35.833 -278.5 107.5s-89.5 171.167 -89.5 298.5s29.667 226.833 89 298.5
s152.333 107.5 279 107.5c126 0 218.833 -35.833 278.5 -107.5s89.5 -171.167 89.5 -298.5s-29.667 -226.833 -89 -298.5s-152.333 -107.5 -279 -107.5zM382 1010v-182h-184v182h184zM622 1010v-182h-184v182h184z" />
    <glyph glyph-name="multiply" unicode="&#xd7;" 
d="M85 241l149 149l-149 149l116 116l149 -149l149 149l116 -116l-149 -149l149 -149l-116 -116l-149 149l-149 -149z" />
    <glyph glyph-name="Oslash" unicode="&#xd8;" horiz-adv-x="820" 
d="M778 390c0 -127.333 -29.667 -226.833 -89 -298.5s-152.333 -107.5 -279 -107.5c-76 0 -141 14 -195 42l-18 -26h-106l53 78c-68 70 -102 174 -102 312c0 127.333 29.667 226.833 89 298.5s152.333 107.5 279 107.5c76 0 141 -14 195 -42l18 26h106l-53 -78
c68 -70 102 -174 102 -312zM410 631c-35.333 0 -65.332 -6.33203 -89.999 -18.999s-43.334 -30.834 -56.001 -54.501s-21.667 -49 -27 -76s-8 -57.5 -8 -91.5c0 -63.333 8.33301 -113.333 25 -150l251 368c-26 15.333 -57.667 23 -95 23zM410.001 149.001
c35.333 0 65.332 6.33203 89.999 18.999s43.334 30.834 56.001 54.501s21.667 49 27 76s8 57.5 8 91.5c0 63.333 -8.33301 113.333 -25 150l-251 -368c26 -15.333 57.667 -23 95 -23z" />
    <glyph glyph-name="Ugrave" unicode="&#xd9;" horiz-adv-x="746" 
d="M373 148c59.333 0 98.498 12.167 117.498 36.5s28.5 59.833 28.5 106.5v489h185v-493c0 -46 -5.16699 -86.333 -15.5 -121s-27.666 -66.167 -51.999 -94.5s-58.5 -50 -102.5 -65s-97.667 -22.5 -161 -22.5s-117 7.5 -161 22.5s-78.167 36.667 -102.5 65
s-41.666 59.833 -51.999 94.5s-15.5 75 -15.5 121v493h185v-489c0 -46.667 9.5 -82.167 28.5 -106.5s58.167 -36.5 117.5 -36.5zM176.998 1030h196l94 -208h-179z" />
    <glyph glyph-name="Uacute" unicode="&#xda;" horiz-adv-x="746" 
d="M373 148c59.333 0 98.498 12.167 117.498 36.5s28.5 59.833 28.5 106.5v489h185v-493c0 -46 -5.16699 -86.333 -15.5 -121s-27.666 -66.167 -51.999 -94.5s-58.5 -50 -102.5 -65s-97.667 -22.5 -161 -22.5s-117 7.5 -161 22.5s-78.167 36.667 -102.5 65
s-41.666 59.833 -51.999 94.5s-15.5 75 -15.5 121v493h185v-489c0 -46.667 9.5 -82.167 28.5 -106.5s58.167 -36.5 117.5 -36.5zM372.998 1030h196l-111 -208h-179z" />
    <glyph glyph-name="Ucircumflex" unicode="&#xdb;" horiz-adv-x="746" 
d="M373 148c59.333 0 98.498 12.167 117.498 36.5s28.5 59.833 28.5 106.5v489h185v-493c0 -46 -5.16699 -86.333 -15.5 -121s-27.666 -66.167 -51.999 -94.5s-58.5 -50 -102.5 -65s-97.667 -22.5 -161 -22.5s-117 7.5 -161 22.5s-78.167 36.667 -102.5 65
s-41.666 59.833 -51.999 94.5s-15.5 75 -15.5 121v493h185v-489c0 -46.667 9.5 -82.167 28.5 -106.5s58.167 -36.5 117.5 -36.5zM319.998 822h-183l158 208h156l158 -208h-183l-53 59z" />
    <glyph glyph-name="Udieresis" unicode="&#xdc;" horiz-adv-x="746" 
d="M373 148c59.333 0 98.498 12.167 117.498 36.5s28.5 59.833 28.5 106.5v489h185v-493c0 -46 -5.16699 -86.333 -15.5 -121s-27.666 -66.167 -51.999 -94.5s-58.5 -50 -102.5 -65s-97.667 -22.5 -161 -22.5s-117 7.5 -161 22.5s-78.167 36.667 -102.5 65
s-41.666 59.833 -51.999 94.5s-15.5 75 -15.5 121v493h185v-489c0 -46.667 9.5 -82.167 28.5 -106.5s58.167 -36.5 117.5 -36.5zM344.998 1010v-182h-184v182h184zM584.998 1010v-182h-184v182h184z" />
    <glyph glyph-name="Yacute" unicode="&#xdd;" horiz-adv-x="730" 
d="M365 1030h196l-111 -208h-179zM-30 780h218l125 -219l52 -91l52 92l125 218h218l-302 -485v-295h-186v295z" />
    <glyph glyph-name="Thorn" unicode="&#xde;" horiz-adv-x="690" 
d="M237 780l-0.000976562 -115.002h135c38.667 0 73.834 -4 105.501 -12s62 -21.167 91 -39.5s51.667 -45.666 68 -81.999s24.5 -80.166 24.5 -131.499c0 -177.333 -95 -266 -285 -266h-139v-134h-185v780h185zM236.999 299.998h149c58 0 87 33.333 87 100
c0 37.333 -8.5 63.333 -25.5 78s-37.5 22 -61.5 22h-149v-200z" />
    <glyph glyph-name="germandbls" unicode="&#xdf;" horiz-adv-x="732" 
d="M369 816c82 0 151.495 -19.6719 208.495 -59.0049s85.5 -91.333 85.5 -156c0 -30.667 -4 -57.334 -12 -80.001s-18.833 -39.834 -32.5 -51.501s-26.167 -20.5 -37.5 -26.5s-23.666 -11.333 -36.999 -16c-3.33301 -0.666992 -5.66602 -1.33398 -6.99902 -2.00098l-21 -6
c-9.33301 -2.66699 -16.666 -5 -21.999 -7s-11 -4.66699 -17 -8s-10.5 -7.16602 -13.5 -11.499s-4.5 -9.5 -4.5 -15.5c0 -9.33301 5.5 -16.166 16.5 -20.499s29 -7.83301 54 -10.5s40.5 -4.66699 46.5 -6c18.667 -3.33301 34.334 -7.33301 47.001 -12
s27.167 -12.667 43.5 -24s28.833 -28 37.5 -50s13 -48.667 13 -80c0 -64 -20.5 -111.667 -61.5 -143s-95.167 -47 -162.5 -47c-88 0 -149.833 15 -185.5 45s-54.167 76 -55.5 138l182 22c2 -32.667 21 -49 57 -49c30.667 0 46 11 46 33c0 13.333 -6.16699 23 -18.5 29
s-35.166 11.667 -68.499 17c-18.667 2.66699 -34.167 5.33398 -46.5 8.00098s-27.166 7.66699 -44.499 15s-31 16 -41 26s-18.833 23.833 -26.5 41.5s-11.5 38.167 -11.5 61.5c0 18 1.66699 34.333 5 49s8.66602 27.334 15.999 38.001s14.166 19.834 20.499 27.501
s15.333 14.667 27 21s20.167 10.833 25.5 13.5s14.5 6.33398 27.5 11.001s20.167 7.33398 21.5 8.00098c22.667 9.33301 37.834 17.333 45.501 24s11.5 17.334 11.5 32.001c0 43.333 -37 65 -111 65c-55.333 0 -93.333 -12.5 -114 -37.5s-31 -60.167 -31 -105.5v-517h-180
v523c0 100.667 25.667 174.667 77 222s134 71 248 71z" />
    <glyph glyph-name="agrave" unicode="&#xe0;" horiz-adv-x="612" 
d="M101 800h196l94 -208h-179zM20 145c0 56.667 15.8311 96.501 47.498 119.501s79.5 39.167 143.5 48.5l175 25v15c0 32 -25.333 48 -76 48c-30 0 -51 -4.16699 -63 -12.5s-18.667 -20.833 -20 -37.5l-182 22c0 27.333 3.83301 50.833 11.5 70.5s20.834 37.5 39.501 53.5
s45.834 28.167 81.501 36.5s79.834 12.5 132.501 12.5c89.333 0 154.333 -16.833 195 -50.5s61 -86.834 61 -159.501v-182l10 -154h-165l-12 57c-20 -21.333 -47.833 -38.833 -83.5 -52.5s-75.834 -20.5 -120.501 -20.5c-53.333 0 -95.833 15.5 -127.5 46.5
s-47.5 69.167 -47.5 114.5zM219.998 170.001c0 -12 4 -21.835 12 -29.502s19 -11.5 33 -11.5c22 0 44.5 5 67.5 15s40.833 21.333 53.5 34v55l-109 -16c-20 -3.33301 -34.5 -8.66602 -43.5 -15.999s-13.5 -17.666 -13.5 -30.999z" />
    <glyph glyph-name="aacute" unicode="&#xe1;" horiz-adv-x="612" 
d="M297 800h196l-111 -208h-179zM20 145c0 56.667 15.8311 96.501 47.498 119.501s79.5 39.167 143.5 48.5l175 25v15c0 32 -25.333 48 -76 48c-30 0 -51 -4.16699 -63 -12.5s-18.667 -20.833 -20 -37.5l-182 22c0 27.333 3.83301 50.833 11.5 70.5s20.834 37.5 39.501 53.5
s45.834 28.167 81.501 36.5s79.834 12.5 132.501 12.5c89.333 0 154.333 -16.833 195 -50.5s61 -86.834 61 -159.501v-182l10 -154h-165l-12 57c-20 -21.333 -47.833 -38.833 -83.5 -52.5s-75.834 -20.5 -120.501 -20.5c-53.333 0 -95.833 15.5 -127.5 46.5
s-47.5 69.167 -47.5 114.5zM219.998 170.001c0 -12 4 -21.835 12 -29.502s19 -11.5 33 -11.5c22 0 44.5 5 67.5 15s40.833 21.333 53.5 34v55l-109 -16c-20 -3.33301 -34.5 -8.66602 -43.5 -15.999s-13.5 -17.666 -13.5 -30.999z" />
    <glyph glyph-name="acircumflex" unicode="&#xe2;" horiz-adv-x="612" 
d="M244 592h-183l158 208h156l158 -208h-183l-53 59zM20 145c0 56.667 15.8311 96.501 47.498 119.501s79.5 39.167 143.5 48.5l175 25v15c0 32 -25.333 48 -76 48c-30 0 -51 -4.16699 -63 -12.5s-18.667 -20.833 -20 -37.5l-182 22c0 27.333 3.83301 50.833 11.5 70.5
s20.834 37.5 39.501 53.5s45.834 28.167 81.501 36.5s79.834 12.5 132.501 12.5c89.333 0 154.333 -16.833 195 -50.5s61 -86.834 61 -159.501v-182l10 -154h-165l-12 57c-20 -21.333 -47.833 -38.833 -83.5 -52.5s-75.834 -20.5 -120.501 -20.5
c-53.333 0 -95.833 15.5 -127.5 46.5s-47.5 69.167 -47.5 114.5zM219.998 170.001c0 -12 4 -21.835 12 -29.502s19 -11.5 33 -11.5c22 0 44.5 5 67.5 15s40.833 21.333 53.5 34v55l-109 -16c-20 -3.33301 -34.5 -8.66602 -43.5 -15.999s-13.5 -17.666 -13.5 -30.999z" />
    <glyph glyph-name="atilde" unicode="&#xe3;" horiz-adv-x="612" 
d="M378 576c-24 0 -46 4 -66 12s-35.167 16.667 -45.5 26s-21.166 18 -32.499 26s-22 12 -32 12c-10.667 0 -19 -4 -25 -12s-9.66699 -16 -11 -24l-1 -11l-124 15c3.33301 34.667 11 66 23 94s31 52 57 72s57.667 30 95 30c24 0 46 -4 66 -12s35.167 -16.667 45.5 -26
s21.166 -18 32.499 -26s22 -12 32 -12c10.667 0 19 4 25 12s9.66699 16 11 24l1 11l124 -15c-3.33301 -34.667 -11 -66 -23 -94s-31 -52 -57 -72s-57.667 -30 -95 -30zM20 145c0 56.667 15.8311 96.501 47.498 119.501s79.5 39.167 143.5 48.5l175 25v15
c0 32 -25.333 48 -76 48c-30 0 -51 -4.16699 -63 -12.5s-18.667 -20.833 -20 -37.5l-182 22c0 27.333 3.83301 50.833 11.5 70.5s20.834 37.5 39.501 53.5s45.834 28.167 81.501 36.5s79.834 12.5 132.501 12.5c89.333 0 154.333 -16.833 195 -50.5s61 -86.834 61 -159.501
v-182l10 -154h-165l-12 57c-20 -21.333 -47.833 -38.833 -83.5 -52.5s-75.834 -20.5 -120.501 -20.5c-53.333 0 -95.833 15.5 -127.5 46.5s-47.5 69.167 -47.5 114.5zM219.998 170.001c0 -12 4 -21.835 12 -29.502s19 -11.5 33 -11.5c22 0 44.5 5 67.5 15
s40.833 21.333 53.5 34v55l-109 -16c-20 -3.33301 -34.5 -8.66602 -43.5 -15.999s-13.5 -17.666 -13.5 -30.999z" />
    <glyph glyph-name="adieresis" unicode="&#xe4;" horiz-adv-x="612" 
d="M269 780v-182h-184v182h184zM509 780v-182h-184v182h184zM20 145c0 56.667 15.8311 96.501 47.498 119.501s79.5 39.167 143.5 48.5l175 25v15c0 32 -25.333 48 -76 48c-30 0 -51 -4.16699 -63 -12.5s-18.667 -20.833 -20 -37.5l-182 22
c0 27.333 3.83301 50.833 11.5 70.5s20.834 37.5 39.501 53.5s45.834 28.167 81.501 36.5s79.834 12.5 132.501 12.5c89.333 0 154.333 -16.833 195 -50.5s61 -86.834 61 -159.501v-182l10 -154h-165l-12 57c-20 -21.333 -47.833 -38.833 -83.5 -52.5
s-75.834 -20.5 -120.501 -20.5c-53.333 0 -95.833 15.5 -127.5 46.5s-47.5 69.167 -47.5 114.5zM219.998 170.001c0 -12 4 -21.835 12 -29.502s19 -11.5 33 -11.5c22 0 44.5 5 67.5 15s40.833 21.333 53.5 34v55l-109 -16c-20 -3.33301 -34.5 -8.66602 -43.5 -15.999
s-13.5 -17.666 -13.5 -30.999z" />
    <glyph glyph-name="aring" unicode="&#xe5;" horiz-adv-x="612" 
d="M177 696c0 36 10.667 65 32 87s50.666 33 87.999 33s66.666 -11 87.999 -33s32 -51 32 -87s-10.667 -65 -32 -87s-50.666 -33 -87.999 -33s-66.666 11 -87.999 33s-32 51 -32 87zM325 696c0 18.667 -9.33301 28 -28 28s-28 -9.33301 -28 -28s9.33301 -28 28 -28
s28 9.33301 28 28zM20 145c0 56.667 15.8311 96.501 47.498 119.501s79.5 39.167 143.5 48.5l175 25v15c0 32 -25.333 48 -76 48c-30 0 -51 -4.16699 -63 -12.5s-18.667 -20.833 -20 -37.5l-182 22c0 27.333 3.83301 50.833 11.5 70.5s20.834 37.5 39.501 53.5
s45.834 28.167 81.501 36.5s79.834 12.5 132.501 12.5c89.333 0 154.333 -16.833 195 -50.5s61 -86.834 61 -159.501v-182l10 -154h-165l-12 57c-20 -21.333 -47.833 -38.833 -83.5 -52.5s-75.834 -20.5 -120.501 -20.5c-53.333 0 -95.833 15.5 -127.5 46.5
s-47.5 69.167 -47.5 114.5zM219.998 170.001c0 -12 4 -21.835 12 -29.502s19 -11.5 33 -11.5c22 0 44.5 5 67.5 15s40.833 21.333 53.5 34v55l-109 -16c-20 -3.33301 -34.5 -8.66602 -43.5 -15.999s-13.5 -17.666 -13.5 -30.999z" />
    <glyph glyph-name="ae" unicode="&#xe6;" horiz-adv-x="966" 
d="M663 546c89.333 0 157.829 -24.001 205.496 -72.001s71.5 -117.667 71.5 -209v-51h-376c0 -26.667 9 -47.167 27 -61.5s43.333 -21.5 76 -21.5c54 0 82 11.333 84 34l182 -22c-1.33301 -47.333 -22.833 -85.666 -64.5 -114.999s-106.5 -44 -194.5 -44
c-90.667 0 -157.667 23.333 -201 70c-60 -46.667 -135.667 -70 -227 -70c-75.333 0 -131.833 15.667 -169.5 47s-56.5 72 -56.5 122c0 111.333 70.333 167 211 167h155v33c0 32 -25.333 48 -76 48c-30 0 -51 -4.16699 -63 -12.5s-18.667 -20.833 -20 -37.5l-182 22
c0 27.333 3.83301 50.833 11.5 70.5s20.834 37.5 39.501 53.5s45.834 28.167 81.501 36.5s79.834 12.5 132.501 12.5c82.667 0 143.334 -19 182.001 -57c43.333 38 100.333 57 171 57zM204.996 166.999c0 -12.667 4.83398 -23 14.501 -31s23.167 -12 40.5 -12
c25.333 0 49.666 3.5 72.999 10.5s41 15.833 53 26.5v53h-118c-42 0 -63 -15.667 -63 -47zM663.997 398.999c-28.667 0 -51.668 -7.33301 -69.001 -22s-26.666 -33.667 -27.999 -57h181c1.33301 25.333 -5.66699 44.833 -21 58.5s-36.333 20.5 -63 20.5z" />
    <glyph glyph-name="ccedilla" unicode="&#xe7;" horiz-adv-x="596" 
d="M210 265c0 -42.667 6.99609 -73.332 20.9961 -91.999s36.333 -28 67 -28c28 0 47.333 4.16699 58 12.5s16.667 21.5 18 39.5l182 -22c-1.33301 -55.333 -18 -99.5 -50 -132.5s-88.333 -52.167 -169 -57.5l-5 -18c36 -7.33301 63.333 -19 82 -35
s26.334 -37.333 23.001 -64c-3.33301 -28 -17.333 -49 -42 -63s-55 -21 -91 -21c-50.667 0 -93.667 7.66699 -129 23l25 76c16 -8.66699 32.667 -14.334 50 -17.001c32 -4.66699 48 2.33301 48 21c0 9.33301 -7 17.333 -21 24s-33 11.334 -57 14.001l21 63
c-69.333 9.33301 -122.166 37.5 -158.499 84.5s-54.5 111.167 -54.5 192.5c0 92 23 161.833 69 209.5s113 71.5 201 71.5c50 0 92.167 -4.83301 126.5 -14.5s60.833 -23.667 79.5 -42s31.834 -38.333 39.501 -60s11.834 -46.5 12.501 -74.5l-182 -22
c-1.33301 18 -7.33301 31.167 -18 39.5s-30 12.5 -58 12.5c-30.667 0 -53 -9.33301 -67 -28s-21 -49.334 -21 -92.001z" />
    <glyph glyph-name="egrave" unicode="&#xe8;" horiz-adv-x="615" 
d="M589 214l-376 -0.000976562c0 -26.667 9 -47.167 27 -61.5s43.333 -21.5 76 -21.5c54 0 82 11.333 84 34l182 -22c-1.33301 -47.333 -22.833 -85.666 -64.5 -114.999s-106.5 -44 -194.5 -44c-94 0 -166.667 24.167 -218 72.5s-77 117.833 -77 208.5s25 160.167 75 208.5
s119.667 72.5 209 72.5s157.833 -24 205.5 -72s71.5 -117.667 71.5 -209v-51zM117 799.999h196l94 -208h-179zM313 398.999c-28.667 0 -51.668 -7.33301 -69.001 -22s-26.666 -33.667 -27.999 -57h181c1.33301 25.333 -5.66699 44.833 -21 58.5s-36.333 20.5 -63 20.5z" />
    <glyph glyph-name="eacute" unicode="&#xe9;" horiz-adv-x="615" 
d="M589 214l-376 -0.000976562c0 -26.667 9 -47.167 27 -61.5s43.333 -21.5 76 -21.5c54 0 82 11.333 84 34l182 -22c-1.33301 -47.333 -22.833 -85.666 -64.5 -114.999s-106.5 -44 -194.5 -44c-94 0 -166.667 24.167 -218 72.5s-77 117.833 -77 208.5s25 160.167 75 208.5
s119.667 72.5 209 72.5s157.833 -24 205.5 -72s71.5 -117.667 71.5 -209v-51zM313 799.999h196l-111 -208h-179zM313 398.999c-28.667 0 -51.668 -7.33301 -69.001 -22s-26.666 -33.667 -27.999 -57h181c1.33301 25.333 -5.66699 44.833 -21 58.5s-36.333 20.5 -63 20.5z
" />
    <glyph glyph-name="ecircumflex" unicode="&#xea;" horiz-adv-x="615" 
d="M589 214l-376 -0.000976562c0 -26.667 9 -47.167 27 -61.5s43.333 -21.5 76 -21.5c54 0 82 11.333 84 34l182 -22c-1.33301 -47.333 -22.833 -85.666 -64.5 -114.999s-106.5 -44 -194.5 -44c-94 0 -166.667 24.167 -218 72.5s-77 117.833 -77 208.5s25 160.167 75 208.5
s119.667 72.5 209 72.5s157.833 -24 205.5 -72s71.5 -117.667 71.5 -209v-51zM313 398.999c-28.667 0 -51.668 -7.33301 -69.001 -22s-26.666 -33.667 -27.999 -57h181c1.33301 25.333 -5.66699 44.833 -21 58.5s-36.333 20.5 -63 20.5zM259.999 591.999h-183l158 208h156
l158 -208h-183l-53 59z" />
    <glyph glyph-name="edieresis" unicode="&#xeb;" horiz-adv-x="615" 
d="M589 214l-376 -0.000976562c0 -26.667 9 -47.167 27 -61.5s43.333 -21.5 76 -21.5c54 0 82 11.333 84 34l182 -22c-1.33301 -47.333 -22.833 -85.666 -64.5 -114.999s-106.5 -44 -194.5 -44c-94 0 -166.667 24.167 -218 72.5s-77 117.833 -77 208.5s25 160.167 75 208.5
s119.667 72.5 209 72.5s157.833 -24 205.5 -72s71.5 -117.667 71.5 -209v-51zM313 398.999c-28.667 0 -51.668 -7.33301 -69.001 -22s-26.666 -33.667 -27.999 -57h181c1.33301 25.333 -5.66699 44.833 -21 58.5s-36.333 20.5 -63 20.5zM284.999 779.999v-182h-184v182h184z
M524.999 779.999v-182h-184v182h184z" />
    <glyph glyph-name="igrave" unicode="&#xec;" horiz-adv-x="290" 
d="M55 0v530h180v-530h-180zM-56 800h196l94 -208h-179z" />
    <glyph glyph-name="iacute" unicode="&#xed;" horiz-adv-x="290" 
d="M55 0v530h180v-530h-180zM150 800h196l-111 -208h-179z" />
    <glyph glyph-name="icircumflex" unicode="&#xee;" horiz-adv-x="290" 
d="M55 0v530h180v-530h-180zM92 592h-183l158 208h156l158 -208h-183l-53 59z" />
    <glyph glyph-name="idieresis" unicode="&#xef;" horiz-adv-x="290" 
d="M55 0v530h180v-530h-180zM117 780v-182h-184v182h184zM357 780v-182h-184v182h184z" />
    <glyph glyph-name="eth" unicode="&#xf0;" horiz-adv-x="620" 
d="M310 -16c-88.667 0 -157.831 23.833 -207.498 71.5s-74.5 117.5 -74.5 209.5c0 50.667 7.66699 95.167 23 133.5s35.666 67.666 60.999 87.999s51.333 35.333 78 45s54 14.5 82 14.5c46 0 77.667 -7 95 -21c-17.333 34 -35.333 62.333 -54 85l-208 -73v112l124 43
c-9.33301 7.33301 -19 14.333 -29 21s-20.833 13.334 -32.5 20.001l-28.5 16c-7.33301 4 -17.833 9.16699 -31.5 15.5s-22.5 10.5 -26.5 12.5s-13.5 6.16699 -28.5 12.5s-22.833 9.83301 -23.5 10.5h278c25.333 -12.667 53 -29.667 83 -51l139 49v-112l-55 -19
c78.667 -99.333 118 -233.333 118 -402c0 -92 -24.833 -161.833 -74.5 -209.5s-118.834 -71.5 -207.501 -71.5zM310.003 146c32.667 0 57.5 8.83301 74.5 26.5s25.5 48.5 25.5 92.5s-8.5 74.833 -25.5 92.5s-41.833 26.5 -74.5 26.5s-57.5 -8.83301 -74.5 -26.5
s-25.5 -48.5 -25.5 -92.5s8.5 -74.833 25.5 -92.5s41.833 -26.5 74.5 -26.5z" />
    <glyph glyph-name="ntilde" unicode="&#xf1;" horiz-adv-x="645" 
d="M413 576c-24 0 -46 4 -66 12s-35.167 16.667 -45.5 26s-21.166 18 -32.499 26s-22 12 -32 12c-10.667 0 -19 -4 -25 -12s-9.33301 -16 -10 -24l-2 -11l-124 15c6 55.333 23.167 101.833 51.5 139.5s69.5 56.5 123.5 56.5c24 0 46 -4 66 -12s35.167 -16.667 45.5 -26
s21.166 -18 32.499 -26s22 -12 32 -12c10.667 0 19 4 25 12s9.33301 16 10 24l2 11l124 -15c-6 -55.333 -23.167 -101.833 -51.5 -139.5s-69.5 -56.5 -123.5 -56.5zM205 530l11.999 -57c42.667 48.667 98.667 73 168 73c72 0 126.333 -17.5 163 -52.5s55 -91.167 55 -168.5
v-325h-180v302c0 29.333 -6.66699 50.333 -20 63s-32.666 18.667 -57.999 18c-26 -0.666992 -49.167 -6 -69.5 -16s-35.5 -21.333 -45.5 -34v-333h-180v376l-10 154h165z" />
    <glyph glyph-name="ograve" unicode="&#xf2;" horiz-adv-x="620" 
d="M310 -16c-88.667 0 -157.834 23.833 -207.501 71.5s-74.5 117.5 -74.5 209.5s24.833 161.833 74.5 209.5s118.834 71.5 207.501 71.5s157.834 -23.833 207.501 -71.5s74.5 -117.5 74.5 -209.5s-24.833 -161.833 -74.5 -209.5s-118.834 -71.5 -207.501 -71.5zM310 146
c32.667 0 57.5 8.83301 74.5 26.5s25.5 48.5 25.5 92.5s-8.5 74.833 -25.5 92.5s-41.833 26.5 -74.5 26.5s-57.5 -8.83301 -74.5 -26.5s-25.5 -48.5 -25.5 -92.5s8.5 -74.833 25.5 -92.5s41.833 -26.5 74.5 -26.5zM114 800h196l94 -208h-179z" />
    <glyph glyph-name="oacute" unicode="&#xf3;" horiz-adv-x="620" 
d="M310 -16c-88.667 0 -157.834 23.833 -207.501 71.5s-74.5 117.5 -74.5 209.5s24.833 161.833 74.5 209.5s118.834 71.5 207.501 71.5s157.834 -23.833 207.501 -71.5s74.5 -117.5 74.5 -209.5s-24.833 -161.833 -74.5 -209.5s-118.834 -71.5 -207.501 -71.5zM310 146
c32.667 0 57.5 8.83301 74.5 26.5s25.5 48.5 25.5 92.5s-8.5 74.833 -25.5 92.5s-41.833 26.5 -74.5 26.5s-57.5 -8.83301 -74.5 -26.5s-25.5 -48.5 -25.5 -92.5s8.5 -74.833 25.5 -92.5s41.833 -26.5 74.5 -26.5zM310 800h196l-111 -208h-179z" />
    <glyph glyph-name="ocircumflex" unicode="&#xf4;" horiz-adv-x="620" 
d="M310 146c32.667 0 57.5 8.83301 74.5 26.5s25.5 48.5 25.5 92.5s-8.5 74.833 -25.5 92.5s-41.833 26.5 -74.5 26.5s-57.5 -8.83301 -74.5 -26.5s-25.5 -48.5 -25.5 -92.5s8.5 -74.833 25.5 -92.5s41.833 -26.5 74.5 -26.5zM310 -16
c-88.667 0 -157.834 23.833 -207.501 71.5s-74.5 117.5 -74.5 209.5s24.833 161.833 74.5 209.5s118.834 71.5 207.501 71.5s157.834 -23.833 207.501 -71.5s74.5 -117.5 74.5 -209.5s-24.833 -161.833 -74.5 -209.5s-118.834 -71.5 -207.501 -71.5zM546 592h-184l-52 59
l-53 -59h-183l158 208h156z" />
    <glyph glyph-name="otilde" unicode="&#xf5;" horiz-adv-x="620" 
d="M310 146c32.667 0 57.5 8.83301 74.5 26.5s25.5 48.5 25.5 92.5s-8.5 74.833 -25.5 92.5s-41.833 26.5 -74.5 26.5s-57.5 -8.83301 -74.5 -26.5s-25.5 -48.5 -25.5 -92.5s8.5 -74.833 25.5 -92.5s41.833 -26.5 74.5 -26.5zM310 -16
c-88.667 0 -157.834 23.833 -207.501 71.5s-74.5 117.5 -74.5 209.5s24.833 161.833 74.5 209.5s118.834 71.5 207.501 71.5s157.834 -23.833 207.501 -71.5s74.5 -117.5 74.5 -209.5s-24.833 -161.833 -74.5 -209.5s-118.834 -71.5 -207.501 -71.5zM391 576
c-24 0 -46 4 -66 12s-35.167 16.667 -45.5 26s-21.166 18 -32.499 26s-22 12 -32 12c-10.667 0 -19 -4 -25 -12s-9.33301 -16 -10 -24l-2 -11l-124 15c6 55.333 23.167 101.833 51.5 139.5s69.5 56.5 123.5 56.5c24 0 46 -4 66 -12s35.167 -16.667 45.5 -26
s21.166 -18 32.499 -26s22 -12 32 -12c10.667 0 19 4 25 12s9.33301 16 10 24l2 11l124 -15c-6 -55.333 -23.167 -101.833 -51.5 -139.5s-69.5 -56.5 -123.5 -56.5z" />
    <glyph glyph-name="odieresis" unicode="&#xf6;" horiz-adv-x="620" 
d="M310 146c32.667 0 57.5 8.83301 74.5 26.5s25.5 48.5 25.5 92.5s-8.5 74.833 -25.5 92.5s-41.833 26.5 -74.5 26.5s-57.5 -8.83301 -74.5 -26.5s-25.5 -48.5 -25.5 -92.5s8.5 -74.833 25.5 -92.5s41.833 -26.5 74.5 -26.5zM310 -16
c-88.667 0 -157.834 23.833 -207.501 71.5s-74.5 117.5 -74.5 209.5s24.833 161.833 74.5 209.5s118.834 71.5 207.501 71.5s157.834 -23.833 207.501 -71.5s74.5 -117.5 74.5 -209.5s-24.833 -161.833 -74.5 -209.5s-118.834 -71.5 -207.501 -71.5zM282 780v-182h-184v182
h184zM522 780v-182h-184v182h184z" />
    <glyph glyph-name="divide" unicode="&#xf7;" 
d="M620 308h-540v164h540v-164zM441 273v-183h-182v183h182zM441 690v-183h-182v183h182z" />
    <glyph glyph-name="oslash" unicode="&#xf8;" horiz-adv-x="620" 
d="M310 -16c-52 0 -98.333 8.66699 -139 26l-7 -10h-88l35 48c-55.333 49.333 -83 121.666 -83 216.999c0 92 24.833 161.833 74.5 209.5s118.834 71.5 207.501 71.5c52 0 98.333 -8.66699 139 -26l7 10h88l-35 -48c55.333 -49.333 83 -121.666 83 -216.999
c0 -92 -24.833 -161.833 -74.5 -209.5s-118.834 -71.5 -207.501 -71.5zM310 384c-32.667 0 -57.5 -8.83203 -74.5 -26.499s-25.5 -48.5 -25.5 -92.5c0 -24.667 3.33301 -46.334 10 -65.001l128 179c-13.333 3.33301 -26 5 -38 5zM410 265.001
c0 24.667 -3.33301 46.333 -10 65l-128 -179c13.333 -3.33301 26 -5 38 -5c32.667 0 57.5 8.83301 74.5 26.5s25.5 48.5 25.5 92.5z" />
    <glyph glyph-name="ugrave" unicode="&#xf9;" horiz-adv-x="645" 
d="M128 800h196l94 -208h-179zM440 0l-11.999 57c-42.667 -48.667 -98.667 -73 -168 -73c-72 0 -126.333 17.5 -163 52.5s-55 91.167 -55 168.5v325h180v-302c0 -29.333 6.66699 -50.333 20 -63s32.666 -18.667 57.999 -18c26 0.666992 49.167 6 69.5 16
s35.5 21.333 45.5 34v333h180v-376l10 -154h-165z" />
    <glyph glyph-name="uacute" unicode="&#xfa;" horiz-adv-x="645" 
d="M324 800h196l-111 -208h-179zM440 0l-11.999 57c-42.667 -48.667 -98.667 -73 -168 -73c-72 0 -126.333 17.5 -163 52.5s-55 91.167 -55 168.5v325h180v-302c0 -29.333 6.66699 -50.333 20 -63s32.666 -18.667 57.999 -18c26 0.666992 49.167 6 69.5 16
s35.5 21.333 45.5 34v333h180v-376l10 -154h-165z" />
    <glyph glyph-name="ucircumflex" unicode="&#xfb;" horiz-adv-x="645" 
d="M271 592h-183l158 208h156l158 -208h-183l-53 59zM440 0l-11.999 57c-42.667 -48.667 -98.667 -73 -168 -73c-72 0 -126.333 17.5 -163 52.5s-55 91.167 -55 168.5v325h180v-302c0 -29.333 6.66699 -50.333 20 -63s32.666 -18.667 57.999 -18
c26 0.666992 49.167 6 69.5 16s35.5 21.333 45.5 34v333h180v-376l10 -154h-165z" />
    <glyph glyph-name="udieresis" unicode="&#xfc;" horiz-adv-x="645" 
d="M291 780v-182h-184v182h184zM531 780v-182h-184v182h184zM440 0l-11.999 57c-42.667 -48.667 -98.667 -73 -168 -73c-72 0 -126.333 17.5 -163 52.5s-55 91.167 -55 168.5v325h180v-302c0 -29.333 6.66699 -50.333 20 -63s32.666 -18.667 57.999 -18
c26 0.666992 49.167 6 69.5 16s35.5 21.333 45.5 34v333h180v-376l10 -154h-165z" />
    <glyph glyph-name="yacute" unicode="&#xfd;" horiz-adv-x="626" 
d="M313 800h196l-111 -208h-179zM635 530l-228 -497l-98 -233h-208l113 242l-223 488h201l61 -163l60 -171l61 171l60 163h201z" />
    <glyph glyph-name="thorn" unicode="&#xfe;" horiz-adv-x="639" 
d="M611 265c0 -92 -19.834 -161.833 -59.501 -209.5s-97.167 -71.5 -172.5 -71.5c-62 0 -113.667 19.667 -155 59v-243h-180v1000h180v-314c42.667 40 94.334 60 155.001 60c75.333 0 132.833 -23.833 172.5 -71.5s59.5 -117.5 59.5 -209.5zM426.999 265
c0 39.333 -9 68.833 -27 88.5s-41.333 29.5 -70 29.5c-45.333 0 -80.666 -16.667 -105.999 -50v-136c25.333 -33.333 60.666 -50 105.999 -50c28.667 0 52 9.83301 70 29.5s27 49.167 27 88.5z" />
    <glyph glyph-name="ydieresis" unicode="&#xff;" horiz-adv-x="626" 
d="M285 780v-182h-184v182h184zM525 780v-182h-184v182h184zM635 530l-228 -497l-98 -233h-208l113 242l-223 488h201l61 -163l60 -171l61 171l60 163h201z" />
    <glyph glyph-name="Amacron" unicode="&#x100;" horiz-adv-x="754" 
d="M543 846h-332v164h332v-164zM561 0l-41 133h-286l-41 -133h-198l273 790h218l273 -790h-198zM354 520l-74 -237h193l-73 237l-23 79z" />
    <glyph glyph-name="amacron" unicode="&#x101;" horiz-adv-x="612" 
d="M463 616h-332v164h332v-164zM20 145c0 56.667 15.8311 96.501 47.498 119.501s79.5 39.167 143.5 48.5l175 25v15c0 32 -25.333 48 -76 48c-30 0 -51 -4.16699 -63 -12.5s-18.667 -20.833 -20 -37.5l-182 22c0 27.333 3.83301 50.833 11.5 70.5s20.834 37.5 39.501 53.5
s45.834 28.167 81.501 36.5s79.834 12.5 132.501 12.5c89.333 0 154.333 -16.833 195 -50.5s61 -86.834 61 -159.501v-182l10 -154h-165l-12 57c-20 -21.333 -47.833 -38.833 -83.5 -52.5s-75.834 -20.5 -120.501 -20.5c-53.333 0 -95.833 15.5 -127.5 46.5
s-47.5 69.167 -47.5 114.5zM219.998 170.001c0 -12 4 -21.835 12 -29.502s19 -11.5 33 -11.5c22 0 44.5 5 67.5 15s40.833 21.333 53.5 34v55l-109 -16c-20 -3.33301 -34.5 -8.66602 -43.5 -15.999s-13.5 -17.666 -13.5 -30.999z" />
    <glyph glyph-name="Abreve" unicode="&#x102;" horiz-adv-x="754" 
d="M377 806c-76.667 0 -131.667 18.833 -165 56.5s-49.333 93.5 -48 167.5h140c-0.666992 -22 4.83301 -37.833 16.5 -47.5s30.5 -14.5 56.5 -14.5s44.833 4.83301 56.5 14.5s17.167 25.5 16.5 47.5h140c1.33301 -74 -14.667 -129.833 -48 -167.5s-88.333 -56.5 -165 -56.5z
M561 0l-41 133h-286l-41 -133h-198l273 790h218l273 -790h-198zM354 520l-74 -237h193l-73 237l-23 79z" />
    <glyph glyph-name="abreve" unicode="&#x103;" horiz-adv-x="612" 
d="M297 576c-76.667 0 -131.667 18.833 -165 56.5s-49.333 93.5 -48 167.5h140c-0.666992 -22 4.83301 -37.833 16.5 -47.5s30.5 -14.5 56.5 -14.5s44.833 4.83301 56.5 14.5s17.167 25.5 16.5 47.5h140c1.33301 -74 -14.667 -129.833 -48 -167.5s-88.333 -56.5 -165 -56.5z
M20 145c0 56.667 15.8311 96.501 47.498 119.501s79.5 39.167 143.5 48.5l175 25v15c0 32 -25.333 48 -76 48c-30 0 -51 -4.16699 -63 -12.5s-18.667 -20.833 -20 -37.5l-182 22c0 27.333 3.83301 50.833 11.5 70.5s20.834 37.5 39.501 53.5s45.834 28.167 81.501 36.5
s79.834 12.5 132.501 12.5c89.333 0 154.333 -16.833 195 -50.5s61 -86.834 61 -159.501v-182l10 -154h-165l-12 57c-20 -21.333 -47.833 -38.833 -83.5 -52.5s-75.834 -20.5 -120.501 -20.5c-53.333 0 -95.833 15.5 -127.5 46.5s-47.5 69.167 -47.5 114.5zM219.998 170.001
c0 -12 4 -21.835 12 -29.502s19 -11.5 33 -11.5c22 0 44.5 5 67.5 15s40.833 21.333 53.5 34v55l-109 -16c-20 -3.33301 -34.5 -8.66602 -43.5 -15.999s-13.5 -17.666 -13.5 -30.999z" />
    <glyph glyph-name="Aogonek" unicode="&#x104;" horiz-adv-x="754" 
d="M486 790l273.001 -790c-31.333 -2.66699 -56.833 -11.667 -76.5 -27s-28.167 -30.666 -25.5 -45.999c3.33301 -18.667 17.666 -25.334 42.999 -20.001c6 1.33301 12 3.33301 18 6s10.667 5 14 7l4 3l34 -114c-26.667 -16.667 -61.667 -25 -105 -25
c-74 0 -118.333 30.333 -133 91c-11.333 42.667 -1 82 31 118l-43 140h-286l-41 -133h-198l273 790h218zM354.001 520l-74 -237h193l-73 237l-23 79z" />
    <glyph glyph-name="aogonek" unicode="&#x105;" horiz-adv-x="612" 
d="M566 154l9.99902 -153.999c-31.333 -2.66699 -56.833 -11.667 -76.5 -27s-28.167 -30.666 -25.5 -45.999c3.33301 -18.667 17.666 -25.334 42.999 -20.001c6 1.33301 12 3.33301 18 6s10.333 5 13 7l5 3l34 -114c-26.667 -16.667 -61.667 -25 -105 -25
c-74 0 -118.333 30.333 -133 91c-13.333 54.667 6 102.667 58 144l-8 38c-20 -21.333 -47.833 -38.833 -83.5 -52.5s-75.834 -20.5 -120.501 -20.5c-53.333 0 -95.833 15.5 -127.5 46.5s-47.5 69.167 -47.5 114.5c0 56.667 15.833 96.5 47.5 119.5s79.5 39.167 143.5 48.5
l175 25v15c0 32 -25.333 48 -76 48c-30 0 -51 -4.16699 -63 -12.5s-18.667 -20.833 -20 -37.5l-182 22c0 27.333 3.83301 50.833 11.5 70.5s20.834 37.5 39.501 53.5s45.834 28.167 81.501 36.5s79.834 12.5 132.501 12.5c89.333 0 154.333 -16.833 195 -50.5
s61 -86.834 61 -159.501v-182zM219.999 170.001c0 -12 4 -21.835 12 -29.502s19 -11.5 33 -11.5c22 0 44.5 5 67.5 15s40.833 21.333 53.5 34v55l-109 -16c-20 -3.33301 -34.5 -8.66602 -43.5 -15.999s-13.5 -17.666 -13.5 -30.999z" />
    <glyph glyph-name="Cacute" unicode="&#x106;" horiz-adv-x="743" 
d="M390 1030h196l-111 -208h-179zM41 390c0 270.667 117.667 406.002 353 406.002c105.333 0 185.666 -22.833 240.999 -68.5s83.666 -109.834 84.999 -192.501l-188 -23c-0.666992 43.333 -12 74 -34 92s-56.667 27 -104 27c-34.667 0 -63.5 -6.33301 -86.5 -19
s-40 -31.167 -51 -55.5s-18.5 -49.333 -22.5 -75s-6 -56.167 -6 -91.5s2 -65.833 6 -91.5s11.5 -50.667 22.5 -75s28 -42.833 51 -55.5s51.833 -19 86.5 -19c47.333 0 82 9 104 27s33.333 48.667 34 92l188 -23c-1.33301 -82.667 -29.666 -146.834 -84.999 -192.501
s-135.666 -68.5 -240.999 -68.5c-235.333 0 -353 135.333 -353 406z" />
    <glyph glyph-name="cacute" unicode="&#x107;" horiz-adv-x="576" 
d="M294 800h196l-111 -208h-179zM210 265c0 -42.667 7 -73.332 21 -91.999s36.333 -28 67 -28c28 0 47.333 4.16699 58 12.5s16.667 21.5 18 39.5l182 -22c-0.666992 -28 -4.83398 -52.833 -12.501 -74.5s-20.834 -41.667 -39.501 -60s-45.167 -32.333 -79.5 -42
s-76.5 -14.5 -126.5 -14.5c-88 0 -155 23.833 -201 71.5s-69 117.5 -69 209.5s23 161.833 69 209.5s113 71.5 201 71.5c50 0 92.167 -4.83301 126.5 -14.5s60.833 -23.667 79.5 -42s31.834 -38.333 39.501 -60s11.834 -46.5 12.501 -74.5l-182 -22
c-1.33301 18 -7.33301 31.167 -18 39.5s-30 12.5 -58 12.5c-30.667 0 -53 -9.33301 -67 -28s-21 -49.334 -21 -92.001z" />
    <glyph glyph-name="Ccircumflex" unicode="&#x108;" horiz-adv-x="743" 
d="M337 822h-183l158 208h156l158 -208h-183l-53 59zM41 390c0 270.667 117.667 406.002 353 406.002c105.333 0 185.666 -22.833 240.999 -68.5s83.666 -109.834 84.999 -192.501l-188 -23c-0.666992 43.333 -12 74 -34 92s-56.667 27 -104 27
c-34.667 0 -63.5 -6.33301 -86.5 -19s-40 -31.167 -51 -55.5s-18.5 -49.333 -22.5 -75s-6 -56.167 -6 -91.5s2 -65.833 6 -91.5s11.5 -50.667 22.5 -75s28 -42.833 51 -55.5s51.833 -19 86.5 -19c47.333 0 82 9 104 27s33.333 48.667 34 92l188 -23
c-1.33301 -82.667 -29.666 -146.834 -84.999 -192.501s-135.666 -68.5 -240.999 -68.5c-235.333 0 -353 135.333 -353 406z" />
    <glyph glyph-name="ccircumflex" unicode="&#x109;" horiz-adv-x="576" 
d="M241 592h-183l158 208h156l158 -208h-183l-53 59zM210 265c0 -42.667 7 -73.332 21 -91.999s36.333 -28 67 -28c28 0 47.333 4.16699 58 12.5s16.667 21.5 18 39.5l182 -22c-0.666992 -28 -4.83398 -52.833 -12.501 -74.5s-20.834 -41.667 -39.501 -60
s-45.167 -32.333 -79.5 -42s-76.5 -14.5 -126.5 -14.5c-88 0 -155 23.833 -201 71.5s-69 117.5 -69 209.5s23 161.833 69 209.5s113 71.5 201 71.5c50 0 92.167 -4.83301 126.5 -14.5s60.833 -23.667 79.5 -42s31.834 -38.333 39.501 -60s11.834 -46.5 12.501 -74.5
l-182 -22c-1.33301 18 -7.33301 31.167 -18 39.5s-30 12.5 -58 12.5c-30.667 0 -53 -9.33301 -67 -28s-21 -49.334 -21 -92.001z" />
    <glyph glyph-name="Cdotaccent" unicode="&#x10a;" horiz-adv-x="743" 
d="M482 1010v-182h-184v182h184zM41 390c0 270.667 117.667 406.002 353 406.002c105.333 0 185.666 -22.833 240.999 -68.5s83.666 -109.834 84.999 -192.501l-188 -23c-0.666992 43.333 -12 74 -34 92s-56.667 27 -104 27c-34.667 0 -63.5 -6.33301 -86.5 -19
s-40 -31.167 -51 -55.5s-18.5 -49.333 -22.5 -75s-6 -56.167 -6 -91.5s2 -65.833 6 -91.5s11.5 -50.667 22.5 -75s28 -42.833 51 -55.5s51.833 -19 86.5 -19c47.333 0 82 9 104 27s33.333 48.667 34 92l188 -23c-1.33301 -82.667 -29.666 -146.834 -84.999 -192.501
s-135.666 -68.5 -240.999 -68.5c-235.333 0 -353 135.333 -353 406z" />
    <glyph glyph-name="cdotaccent" unicode="&#x10b;" horiz-adv-x="576" 
d="M386 780v-182h-184v182h184zM210 265c0 -42.667 7 -73.332 21 -91.999s36.333 -28 67 -28c28 0 47.333 4.16699 58 12.5s16.667 21.5 18 39.5l182 -22c-0.666992 -28 -4.83398 -52.833 -12.501 -74.5s-20.834 -41.667 -39.501 -60s-45.167 -32.333 -79.5 -42
s-76.5 -14.5 -126.5 -14.5c-88 0 -155 23.833 -201 71.5s-69 117.5 -69 209.5s23 161.833 69 209.5s113 71.5 201 71.5c50 0 92.167 -4.83301 126.5 -14.5s60.833 -23.667 79.5 -42s31.834 -38.333 39.501 -60s11.834 -46.5 12.501 -74.5l-182 -22
c-1.33301 18 -7.33301 31.167 -18 39.5s-30 12.5 -58 12.5c-30.667 0 -53 -9.33301 -67 -28s-21 -49.334 -21 -92.001z" />
    <glyph glyph-name="Ccaron" unicode="&#x10c;" horiz-adv-x="743" 
d="M443 1030h183l-158 -208h-156l-158 208h183l53 -59zM41 390c0 270.667 117.667 406.002 353 406.002c105.333 0 185.666 -22.833 240.999 -68.5s83.666 -109.834 84.999 -192.501l-188 -23c-0.666992 43.333 -12 74 -34 92s-56.667 27 -104 27
c-34.667 0 -63.5 -6.33301 -86.5 -19s-40 -31.167 -51 -55.5s-18.5 -49.333 -22.5 -75s-6 -56.167 -6 -91.5s2 -65.833 6 -91.5s11.5 -50.667 22.5 -75s28 -42.833 51 -55.5s51.833 -19 86.5 -19c47.333 0 82 9 104 27s33.333 48.667 34 92l188 -23
c-1.33301 -82.667 -29.666 -146.834 -84.999 -192.501s-135.666 -68.5 -240.999 -68.5c-235.333 0 -353 135.333 -353 406z" />
    <glyph glyph-name="ccaron" unicode="&#x10d;" horiz-adv-x="576" 
d="M347 800h183l-158 -208h-156l-158 208h183l53 -59zM210 265c0 -42.667 7 -73.332 21 -91.999s36.333 -28 67 -28c28 0 47.333 4.16699 58 12.5s16.667 21.5 18 39.5l182 -22c-0.666992 -28 -4.83398 -52.833 -12.501 -74.5s-20.834 -41.667 -39.501 -60
s-45.167 -32.333 -79.5 -42s-76.5 -14.5 -126.5 -14.5c-88 0 -155 23.833 -201 71.5s-69 117.5 -69 209.5s23 161.833 69 209.5s113 71.5 201 71.5c50 0 92.167 -4.83301 126.5 -14.5s60.833 -23.667 79.5 -42s31.834 -38.333 39.501 -60s11.834 -46.5 12.501 -74.5
l-182 -22c-1.33301 18 -7.33301 31.167 -18 39.5s-30 12.5 -58 12.5c-30.667 0 -53 -9.33301 -67 -28s-21 -49.334 -21 -92.001z" />
    <glyph glyph-name="Dcaron" unicode="&#x10e;" horiz-adv-x="763" 
d="M345 0l-293 -0.00195312v780h293c127.333 0 222.166 -31.667 284.499 -95s93.5 -161.666 93.5 -294.999s-31.167 -231.666 -93.5 -294.999s-157.166 -95 -284.499 -95zM237 164.998l108 0.00195312c69.333 0 118.5 19.167 147.5 57.5s43.5 94.166 43.5 167.499
s-14.5 129.166 -43.5 167.499s-78.167 57.5 -147.5 57.5h-108v-450zM442 -40v-160h-184v160h184z" />
    <glyph glyph-name="dcaron" unicode="&#x10f;" horiz-adv-x="647" 
d="M645 800h151l-53 -208h-115zM415 484v316h180v-646l10 -154h-165l-12 57c-46 -48.667 -102 -73 -168 -73c-75.333 0 -132.833 23.833 -172.5 71.5s-59.5 117.5 -59.5 209.5s19.833 161.833 59.5 209.5s97.167 71.5 172.5 71.5c63.333 0 115 -20.667 155 -62zM212 265
c0 -39.333 9 -68.833 27 -88.5s41.333 -29.5 70 -29.5c45.333 0 80.666 16.667 105.999 50v136c-25.333 33.333 -60.666 50 -105.999 50c-28.667 0 -52 -9.83301 -70 -29.5s-27 -49.167 -27 -88.5z" />
    <glyph glyph-name="Dcroat" unicode="&#x110;" horiz-adv-x="833" 
d="M415 0l-293 -0.00195312v338h-100v124h100v318h293c127.333 0 222.166 -31.667 284.499 -95s93.5 -161.666 93.5 -294.999s-31.167 -231.666 -93.5 -294.999s-157.166 -95 -284.499 -95zM307 164.998l108 0.00195312c69.333 0 118.5 19.167 147.5 57.5
s43.5 94.166 43.5 167.499s-14.5 129.166 -43.5 167.499s-78.167 57.5 -147.5 57.5h-108v-153h158v-124h-158v-173z" />
    <glyph glyph-name="dcroat" unicode="&#x111;" horiz-adv-x="662" 
d="M415 484v112h-121v124h121v80h180v-80h80v-124h-80v-442l10 -154h-165l-12 57c-46 -48.667 -102 -73 -168 -73c-75.333 0 -132.833 23.833 -172.5 71.5s-59.5 117.5 -59.5 209.5s19.833 161.833 59.5 209.5s97.167 71.5 172.5 71.5c63.333 0 115 -20.667 155 -62z
M212 265c0 -39.333 9 -68.833 27 -88.5s41.333 -29.5 70 -29.5c45.333 0 80.666 16.667 105.999 50v136c-25.333 33.333 -60.666 50 -105.999 50c-28.667 0 -52 -9.83301 -70 -29.5s-27 -49.167 -27 -88.5z" />
    <glyph glyph-name="Emacron" unicode="&#x112;" horiz-adv-x="668" 
d="M52 780h566v-165h-381v-134h327v-165h-327v-151h401v-165h-586v780zM506 846h-332v164h332v-164z" />
    <glyph glyph-name="emacron" unicode="&#x113;" horiz-adv-x="615" 
d="M589 214l-376 -0.000976562c0 -26.667 9 -47.167 27 -61.5s43.333 -21.5 76 -21.5c54 0 82 11.333 84 34l182 -22c-1.33301 -47.333 -22.833 -85.666 -64.5 -114.999s-106.5 -44 -194.5 -44c-94 0 -166.667 24.167 -218 72.5s-77 117.833 -77 208.5s25 160.167 75 208.5
s119.667 72.5 209 72.5s157.833 -24 205.5 -72s71.5 -117.667 71.5 -209v-51zM479 615.999h-332v164h332v-164zM313 398.999c-28.667 0 -51.668 -7.33301 -69.001 -22s-26.666 -33.667 -27.999 -57h181c1.33301 25.333 -5.66699 44.833 -21 58.5s-36.333 20.5 -63 20.5z" />
    <glyph glyph-name="Ebreve" unicode="&#x114;" horiz-adv-x="668" 
d="M52 780h566v-165h-381v-134h327v-165h-327v-151h401v-165h-586v780zM340 806c-76.667 0 -131.667 18.833 -165 56.5s-49.333 93.5 -48 167.5h140c-0.666992 -22 4.83301 -37.833 16.5 -47.5s30.5 -14.5 56.5 -14.5s44.833 4.83301 56.5 14.5s17.167 25.5 16.5 47.5h140
c1.33301 -74 -14.667 -129.833 -48 -167.5s-88.333 -56.5 -165 -56.5z" />
    <glyph glyph-name="ebreve" unicode="&#x115;" horiz-adv-x="615" 
d="M589 214l-376 -0.000976562c0 -26.667 9 -47.167 27 -61.5s43.333 -21.5 76 -21.5c54 0 82 11.333 84 34l182 -22c-1.33301 -47.333 -22.833 -85.666 -64.5 -114.999s-106.5 -44 -194.5 -44c-94 0 -166.667 24.167 -218 72.5s-77 117.833 -77 208.5s25 160.167 75 208.5
s119.667 72.5 209 72.5s157.833 -24 205.5 -72s71.5 -117.667 71.5 -209v-51zM313 398.999c-28.667 0 -51.668 -7.33301 -69.001 -22s-26.666 -33.667 -27.999 -57h181c1.33301 25.333 -5.66699 44.833 -21 58.5s-36.333 20.5 -63 20.5zM312.999 575.999
c-76.667 0 -131.667 18.833 -165 56.5s-49.333 93.5 -48 167.5h140c-0.666992 -22 4.83301 -37.833 16.5 -47.5s30.5 -14.5 56.5 -14.5s44.833 4.83301 56.5 14.5s17.167 25.5 16.5 47.5h140c1.33301 -74 -14.667 -129.833 -48 -167.5s-88.333 -56.5 -165 -56.5z" />
    <glyph glyph-name="Edotaccent" unicode="&#x116;" horiz-adv-x="668" 
d="M52 780h566v-165h-381v-134h327v-165h-327v-151h401v-165h-586v780zM432 1010v-182h-184v182h184z" />
    <glyph glyph-name="edotaccent" unicode="&#x117;" horiz-adv-x="615" 
d="M589 214l-376 -0.000976562c0 -26.667 9 -47.167 27 -61.5s43.333 -21.5 76 -21.5c54 0 82 11.333 84 34l182 -22c-1.33301 -47.333 -22.833 -85.666 -64.5 -114.999s-106.5 -44 -194.5 -44c-94 0 -166.667 24.167 -218 72.5s-77 117.833 -77 208.5s25 160.167 75 208.5
s119.667 72.5 209 72.5s157.833 -24 205.5 -72s71.5 -117.667 71.5 -209v-51zM405 779.999v-182h-184v182h184zM313 398.999c-28.667 0 -51.668 -7.33301 -69.001 -22s-26.666 -33.667 -27.999 -57h181c1.33301 25.333 -5.66699 44.833 -21 58.5s-36.333 20.5 -63 20.5z" />
    <glyph glyph-name="Eogonek" unicode="&#x118;" horiz-adv-x="668" 
d="M52 780h566.001v-165h-381v-134h327v-165h-327v-151h401v-165c-31.333 -2.66699 -56.833 -11.667 -76.5 -27s-28.167 -30.666 -25.5 -45.999c3.33301 -18.667 17.666 -25.334 42.999 -20.001c6 1.33301 12 3.33301 18 6s10.333 5 13 7l5 3l34 -114
c-26.667 -16.667 -61.667 -25 -105 -25c-74 0 -118.333 30.333 -133 91c-12 45.333 0.666992 87 38 125h-397v780z" />
    <glyph glyph-name="eogonek" unicode="&#x119;" horiz-adv-x="615" 
d="M589 214l-375.999 0.000976562c0 -26.667 9 -47.167 27 -61.5s43.333 -21.5 76 -21.5c54 0 82 11.333 84 34l182 -22c-1.33301 -37.333 -15 -69.166 -41 -95.499s-66 -44.833 -120 -55.5c-26.667 -5.33301 -48.5 -13.833 -65.5 -25.5s-24.5 -24.834 -22.5 -39.501
c3.33301 -18.667 17.666 -25.334 42.999 -20.001c6 1.33301 12 3.33301 18 6s10.667 5 14 7l4 3l34 -114c-26.667 -16.667 -61.667 -25 -105 -25c-72.667 0 -117 30.333 -133 91c-11.333 44 -1.33301 83 30 117c-140 28.667 -210 119.667 -210 273
c0 90.667 25 160.167 75 208.5s119.667 72.5 209 72.5s157.833 -24 205.5 -72s71.5 -117.667 71.5 -209v-51zM313.001 399.001c-28.667 0 -51.668 -7.33301 -69.001 -22s-26.666 -33.667 -27.999 -57h181c1.33301 25.333 -5.66699 44.833 -21 58.5s-36.333 20.5 -63 20.5z
" />
    <glyph glyph-name="Ecaron" unicode="&#x11a;" horiz-adv-x="668" 
d="M52 780h566v-165h-381v-134h327v-165h-327v-151h401v-165h-586v780zM393 1030h183l-158 -208h-156l-158 208h183l53 -59z" />
    <glyph glyph-name="ecaron" unicode="&#x11b;" horiz-adv-x="615" 
d="M589 214l-376 -0.000976562c0 -26.667 9 -47.167 27 -61.5s43.333 -21.5 76 -21.5c54 0 82 11.333 84 34l182 -22c-1.33301 -47.333 -22.833 -85.666 -64.5 -114.999s-106.5 -44 -194.5 -44c-94 0 -166.667 24.167 -218 72.5s-77 117.833 -77 208.5s25 160.167 75 208.5
s119.667 72.5 209 72.5s157.833 -24 205.5 -72s71.5 -117.667 71.5 -209v-51zM313 398.999c-28.667 0 -51.668 -7.33301 -69.001 -22s-26.666 -33.667 -27.999 -57h181c1.33301 25.333 -5.66699 44.833 -21 58.5s-36.333 20.5 -63 20.5zM365.999 799.999h183l-158 -208h-156
l-158 208h183l53 -59z" />
    <glyph glyph-name="Gcircumflex" unicode="&#x11c;" horiz-adv-x="805" 
d="M41 390c0 126.667 30.333 225.998 91 297.998s153 108 277 108c106.667 0 189.834 -23 249.501 -69s90.167 -110 91.5 -192l-188 -23c-0.666992 42.667 -14.167 73.167 -40.5 91.5s-63.833 27.5 -112.5 27.5c-120.667 0 -181 -80.333 -181 -241
c0 -158 60.333 -238.333 181 -241c62.667 -1.33301 113 5.66699 151 21v127h-160v150h344v-383c-54 -32 -106.833 -53.5 -158.5 -64.5s-110.834 -16.167 -177.501 -15.5c-124 0.666992 -216.167 36.834 -276.5 108.501s-90.5 170.834 -90.5 297.501zM352 821.998h-183
l158 208h156l158 -208h-183l-53 59z" />
    <glyph glyph-name="gcircumflex" unicode="&#x11d;" horiz-adv-x="644" 
d="M260 592h-183l158 208h156l158 -208h-183l-53 59zM305 -69c73.333 0 110 23.668 110 71.001v67c-36.667 -39.333 -88.334 -59 -155.001 -59c-73.333 0 -130.333 22.5 -171 67.5s-61 111.833 -61 200.5s20.333 155.5 61 200.5s97.667 67.5 171 67.5
c71.333 0 127.333 -24.333 168 -73l12 57h165l-10 -154v-382c0 -36.667 -7.83301 -68.834 -23.5 -96.501s-37 -49.5 -64 -65.5s-56.667 -28 -89 -36s-66.833 -12 -103.5 -12c-98.667 0 -170.5 12.833 -215.5 38.5s-67.833 69.5 -68.5 131.5l182 29
c0.666992 -18.667 7.83398 -32 21.501 -40s37.167 -12 70.5 -12zM212 278.001c0 -70 32.333 -105 97 -105c45.333 0 80.666 16.667 105.999 50v110c-25.333 33.333 -60.666 50 -105.999 50c-64.667 0 -97 -35 -97 -105z" />
    <glyph glyph-name="Gbreve" unicode="&#x11e;" horiz-adv-x="805" 
d="M41 390c0 126.667 30.333 225.998 91 297.998s153 108 277 108c106.667 0 189.834 -23 249.501 -69s90.167 -110 91.5 -192l-188 -23c-0.666992 42.667 -14.167 73.167 -40.5 91.5s-63.833 27.5 -112.5 27.5c-120.667 0 -181 -80.333 -181 -241
c0 -158 60.333 -238.333 181 -241c62.667 -1.33301 113 5.66699 151 21v127h-160v150h344v-383c-54 -32 -106.833 -53.5 -158.5 -64.5s-110.834 -16.167 -177.501 -15.5c-124 0.666992 -216.167 36.834 -276.5 108.501s-90.5 170.834 -90.5 297.501zM405 805.998
c-76.667 0 -131.667 18.833 -165 56.5s-49.333 93.5 -48 167.5h140c-0.666992 -22 4.83301 -37.833 16.5 -47.5s30.5 -14.5 56.5 -14.5s44.833 4.83301 56.5 14.5s17.167 25.5 16.5 47.5h140c1.33301 -74 -14.667 -129.833 -48 -167.5s-88.333 -56.5 -165 -56.5z" />
    <glyph glyph-name="gbreve" unicode="&#x11f;" horiz-adv-x="644" 
d="M313 576c-76.667 0 -131.667 18.833 -165 56.5s-49.333 93.5 -48 167.5h140c-0.666992 -22 4.83301 -37.833 16.5 -47.5s30.5 -14.5 56.5 -14.5s44.833 4.83301 56.5 14.5s17.167 25.5 16.5 47.5h140c1.33301 -74 -14.667 -129.833 -48 -167.5s-88.333 -56.5 -165 -56.5z
M305 -69c73.333 0 110 23.668 110 71.001v67c-36.667 -39.333 -88.334 -59 -155.001 -59c-73.333 0 -130.333 22.5 -171 67.5s-61 111.833 -61 200.5s20.333 155.5 61 200.5s97.667 67.5 171 67.5c71.333 0 127.333 -24.333 168 -73l12 57h165l-10 -154v-382
c0 -36.667 -7.83301 -68.834 -23.5 -96.501s-37 -49.5 -64 -65.5s-56.667 -28 -89 -36s-66.833 -12 -103.5 -12c-98.667 0 -170.5 12.833 -215.5 38.5s-67.833 69.5 -68.5 131.5l182 29c0.666992 -18.667 7.83398 -32 21.501 -40s37.167 -12 70.5 -12zM212 278.001
c0 -70 32.333 -105 97 -105c45.333 0 80.666 16.667 105.999 50v110c-25.333 33.333 -60.666 50 -105.999 50c-64.667 0 -97 -35 -97 -105z" />
    <glyph glyph-name="Gdotaccent" unicode="&#x120;" horiz-adv-x="805" 
d="M41 390c0 126.667 30.333 225.998 91 297.998s153 108 277 108c106.667 0 189.834 -23 249.501 -69s90.167 -110 91.5 -192l-188 -23c-0.666992 42.667 -14.167 73.167 -40.5 91.5s-63.833 27.5 -112.5 27.5c-120.667 0 -181 -80.333 -181 -241
c0 -158 60.333 -238.333 181 -241c62.667 -1.33301 113 5.66699 151 21v127h-160v150h344v-383c-54 -32 -106.833 -53.5 -158.5 -64.5s-110.834 -16.167 -177.501 -15.5c-124 0.666992 -216.167 36.834 -276.5 108.501s-90.5 170.834 -90.5 297.501zM497 1010v-182h-184v182
h184z" />
    <glyph glyph-name="gdotaccent" unicode="&#x121;" horiz-adv-x="644" 
d="M405 780v-182h-184v182h184zM305 -69c73.333 0 110 23.668 110 71.001v67c-36.667 -39.333 -88.334 -59 -155.001 -59c-73.333 0 -130.333 22.5 -171 67.5s-61 111.833 -61 200.5s20.333 155.5 61 200.5s97.667 67.5 171 67.5c71.333 0 127.333 -24.333 168 -73l12 57
h165l-10 -154v-382c0 -36.667 -7.83301 -68.834 -23.5 -96.501s-37 -49.5 -64 -65.5s-56.667 -28 -89 -36s-66.833 -12 -103.5 -12c-98.667 0 -170.5 12.833 -215.5 38.5s-67.833 69.5 -68.5 131.5l182 29c0.666992 -18.667 7.83398 -32 21.501 -40s37.167 -12 70.5 -12z
M212 278.001c0 -70 32.333 -105 97 -105c45.333 0 80.666 16.667 105.999 50v110c-25.333 33.333 -60.666 50 -105.999 50c-64.667 0 -97 -35 -97 -105z" />
    <glyph glyph-name="Gcommaaccent" unicode="&#x122;" horiz-adv-x="805" 
d="M41 390c0 126.667 30.333 225.998 91 297.998s153 108 277 108c106.667 0 189.834 -23 249.501 -69s90.167 -110 91.5 -192l-188 -23c-0.666992 42.667 -14.167 73.167 -40.5 91.5s-63.833 27.5 -112.5 27.5c-120.667 0 -181 -80.333 -181 -241
c0 -158 60.333 -238.333 181 -241c62.667 -1.33301 113 5.66699 151 21v127h-160v150h344v-383c-54 -32 -106.833 -53.5 -158.5 -64.5s-110.834 -16.167 -177.501 -15.5c-124 0.666992 -216.167 36.834 -276.5 108.501s-90.5 170.834 -90.5 297.501zM310 -62.002h191
l-35 -138h-167z" />
    <glyph glyph-name="gcommaaccent" unicode="&#x123;" horiz-adv-x="644" 
d="M405 592h-191l53 208h155zM305 -69c73.333 0 110 23.668 110 71.001v67c-36.667 -39.333 -88.334 -59 -155.001 -59c-73.333 0 -130.333 22.5 -171 67.5s-61 111.833 -61 200.5s20.333 155.5 61 200.5s97.667 67.5 171 67.5c71.333 0 127.333 -24.333 168 -73l12 57h165
l-10 -154v-382c0 -36.667 -7.83301 -68.834 -23.5 -96.501s-37 -49.5 -64 -65.5s-56.667 -28 -89 -36s-66.833 -12 -103.5 -12c-98.667 0 -170.5 12.833 -215.5 38.5s-67.833 69.5 -68.5 131.5l182 29c0.666992 -18.667 7.83398 -32 21.501 -40s37.167 -12 70.5 -12z
M212 278.001c0 -70 32.333 -105 97 -105c45.333 0 80.666 16.667 105.999 50v110c-25.333 33.333 -60.666 50 -105.999 50c-64.667 0 -97 -35 -97 -105z" />
    <glyph glyph-name="Hcircumflex" unicode="&#x124;" horiz-adv-x="748" 
d="M511 780h185v-780h-185v316h-274v-316h-185v780h185v-299h274v299zM321 822h-183l158 208h156l158 -208h-183l-53 59z" />
    <glyph glyph-name="hcircumflex" unicode="&#x125;" horiz-adv-x="639" 
d="M81 822h-183l158 208h156l158 -208h-183l-53 59zM44 0l-0.00195312 800h180v-314c38.667 40 90.334 60 155.001 60c72 0 126.333 -17.5 163 -52.5s55 -91.167 55 -168.5v-325h-180v302c0 29.333 -6.66699 50.333 -20 63s-32.666 18.667 -57.999 18
c-26 -0.666992 -49.167 -6 -69.5 -16s-35.5 -21.333 -45.5 -34v-333h-180z" />
    <glyph glyph-name="Hbar" unicode="&#x126;" horiz-adv-x="748" 
d="M511 780h185v-780h-185v316h-274v-316h-185v780h185v-103h274v103zM237 481h274v72h-274v-72z" />
    <glyph glyph-name="hbar" unicode="&#x127;" horiz-adv-x="654" 
d="M59 0l-0.00195312 596h-79v124h79v80h180v-80h123v-124h-123v-110c38.667 40 90.334 60 155.001 60c72 0 126.333 -17.5 163 -52.5s55 -91.167 55 -168.5v-325h-180v302c0 29.333 -6.66699 50.333 -20 63s-32.666 18.667 -57.999 18c-26 -0.666992 -49.167 -6 -69.5 -16
s-35.5 -21.333 -45.5 -34v-333h-180z" />
    <glyph glyph-name="Itilde" unicode="&#x128;" horiz-adv-x="311" 
d="M248 780v-780h-185v780h185zM236 806c-24 0 -46 4 -66 12s-35.167 16.667 -45.5 26s-21.166 18 -32.499 26s-22 12 -32 12c-10.667 0 -19 -4 -25 -12s-9.66699 -16 -11 -24l-1 -11l-124 15c3.33301 34.667 11 66 23 94s31 52 57 72s57.667 30 95 30c24 0 46 -4 66 -12
s35.167 -16.667 45.5 -26s21.166 -18 32.499 -26s22 -12 32 -12c10.667 0 19 4 25 12s9.66699 16 11 24l1 11l124 -15c-3.33301 -34.667 -11 -66 -23 -94s-31 -52 -57 -72s-57.667 -30 -95 -30z" />
    <glyph glyph-name="itilde" unicode="&#x129;" horiz-adv-x="290" 
d="M55 0v530h180v-530h-180zM226 576c-24 0 -46 4 -66 12s-35.167 16.667 -45.5 26s-21.166 18 -32.499 26s-22 12 -32 12c-10.667 0 -19 -4 -25 -12s-9.66699 -16 -11 -24l-1 -11l-124 15c6 55.333 23.167 101.833 51.5 139.5s69.5 56.5 123.5 56.5c24 0 46 -4 66 -12
s35.167 -16.667 45.5 -26s21.166 -18 32.499 -26s22 -12 32 -12c10.667 0 19 4 25 12s9.66699 16 11 24l1 11l124 -15c-3.33301 -34.667 -11 -66 -23 -94s-31 -52 -57 -72s-57.667 -30 -95 -30z" />
    <glyph glyph-name="Imacron" unicode="&#x12a;" horiz-adv-x="311" 
d="M248 780v-780h-185v780h185zM321 846h-332v164h332v-164z" />
    <glyph glyph-name="imacron" unicode="&#x12b;" horiz-adv-x="290" 
d="M55 0v530h180v-530h-180zM311 616h-332v164h332v-164z" />
    <glyph glyph-name="Ibreve" unicode="&#x12c;" horiz-adv-x="311" 
d="M248 780v-780h-185v780h185zM155 806c-76.667 0 -131.667 18.833 -165 56.5s-49.333 93.5 -48 167.5h140c-0.666992 -22 4.83301 -37.833 16.5 -47.5s30.5 -14.5 56.5 -14.5s44.833 4.83301 56.5 14.5s17.167 25.5 16.5 47.5h140
c1.33301 -74 -14.667 -129.833 -48 -167.5s-88.333 -56.5 -165 -56.5z" />
    <glyph glyph-name="ibreve" unicode="&#x12d;" horiz-adv-x="290" 
d="M55 0v530h180v-530h-180zM145 576c-76.667 0 -131.667 18.833 -165 56.5s-49.333 93.5 -48 167.5h140c-0.666992 -22 4.83301 -37.833 16.5 -47.5s30.5 -14.5 56.5 -14.5s44.833 4.83301 56.5 14.5s17.167 25.5 16.5 47.5h140c1.33301 -74 -14.667 -129.833 -48 -167.5
s-88.333 -56.5 -165 -56.5z" />
    <glyph glyph-name="Iogonek" unicode="&#x12e;" horiz-adv-x="311" 
d="M248 780l0.00292969 -780c-31.333 -2.66699 -56.833 -11.667 -76.5 -27s-28.167 -30.666 -25.5 -45.999c3.33301 -18.667 17.666 -25.334 42.999 -20.001c10 2 22.167 7.16699 36.5 15.5s25.166 16.5 32.499 24.5l36 -119c-40.667 -29.333 -87.334 -44 -140.001 -44
c-74 0 -118.333 30.333 -133 91c-12 47.333 2 90.333 42 129v776h185z" />
    <glyph glyph-name="iogonek" unicode="&#x12f;" horiz-adv-x="290" 
d="M235 530l0.00195312 -530c-31.333 -2.66699 -56.833 -11.667 -76.5 -27s-28.167 -30.666 -25.5 -45.999c3.33301 -18.667 17.666 -25.334 42.999 -20.001c10 2 22.167 7.16699 36.5 15.5s25.166 16.5 32.499 24.5l36 -119c-40.667 -29.333 -87.334 -44 -140.001 -44
c-74 0 -118.333 30.333 -133 91c-6.66699 27.333 -4.66699 53.5 6 78.5s24.334 43.5 41.001 55.5v521h180zM237.002 780v-182h-184v182h184z" />
    <glyph glyph-name="Idotaccent" unicode="&#x130;" horiz-adv-x="311" 
d="M248 780v-780h-185v780h185zM248 1010v-182h-185v182h185z" />
    <glyph glyph-name="dotlessi" unicode="&#x131;" horiz-adv-x="290" 
d="M55 0v530h180v-530h-180z" />
    <glyph glyph-name="IJ" unicode="&#x132;" horiz-adv-x="696" 
d="M248 780v-780h-185v780h185zM468 206v574h186v-597c0 -25.333 -3.83301 -49.166 -11.5 -71.499s-20 -43.333 -37 -63s-41.5 -35.334 -73.5 -47.001s-70 -17.5 -114 -17.5c-47.333 0 -86.333 7 -117 21l13 167c30 -18 62.333 -25.667 97 -23
c20 1.33301 34.5 6.33301 43.5 15s13.5 22.667 13.5 42z" />
    <glyph glyph-name="ij" unicode="&#x133;" horiz-adv-x="530" 
d="M55 0v530h180v-530h-180zM237 780v-182h-184v182h184zM477 780v-182h-184v182h184zM295 2v528.001h180v-553c0 -24.667 -3.66699 -47.834 -11 -69.501s-19.333 -42 -36 -61s-40.5 -34.167 -71.5 -45.5s-67.833 -17 -110.5 -17c-44 0 -81.667 6.66699 -113 20l13 162
c30 -19.333 61.333 -27.333 94 -24c36.667 4 55 24 55 60z" />
    <glyph glyph-name="Jcircumflex" unicode="&#x134;" horiz-adv-x="555" 
d="M367 822h-183l158 208h156l158 -208h-183l-53 59zM328 780h185v-561c0 -156.667 -85 -235 -255 -235c-91.333 0 -155.5 20.333 -192.5 61s-56.167 96 -57.5 166l183 22c1.33301 -29.333 6.5 -50.833 15.5 -64.5s26.167 -20.5 51.5 -20.5c26 0 44.167 5.66699 54.5 17
s15.5 29 15.5 53v562z" />
    <glyph glyph-name="jcircumflex" unicode="&#x135;" horiz-adv-x="290" 
d="M55 2v528.001h180v-553c0 -24.667 -3.66699 -47.834 -11 -69.501s-19.333 -42 -36 -61s-40.5 -34.167 -71.5 -45.5s-67.833 -17 -110.5 -17c-44 0 -81.667 6.66699 -113 20l13 162c30 -19.333 61.333 -27.333 94 -24c36.667 4 55 24 55 60zM92 592.001h-183l158 208h156
l158 -208h-183l-53 59z" />
    <glyph glyph-name="Kcommaaccent" unicode="&#x136;" horiz-adv-x="761" 
d="M267 -62h191l-35 -138h-167zM237 780v-333l101 128l168 205h246l-276 -308l287 -472h-241l-181 325l-104 -121v-204h-185v780h185z" />
    <glyph glyph-name="kcommaaccent" unicode="&#x137;" horiz-adv-x="640" 
d="M224 -62h191l-35 -138h-167zM224 0h-180v800h180v-449l48 60l101 119h257l-213 -208l225 -322h-234l-122 202l-62 -59v-143z" />
    <glyph glyph-name="kgreenlandic" unicode="&#x138;" horiz-adv-x="640" 
d="M224 0h-180v530h180v-179l48 60l101 119h257l-213 -208l225 -322h-234l-122 202l-62 -59v-143z" />
    <glyph glyph-name="Lacute" unicode="&#x139;" horiz-adv-x="600" 
d="M237 780v-615h355v-165h-540v780h185zM152 1030h196l-111 -208h-179z" />
    <glyph glyph-name="lacute" unicode="&#x13a;" horiz-adv-x="290" 
d="M55 0v800h180v-800h-180zM150 1030h196l-111 -208h-179z" />
    <glyph glyph-name="Lcommaaccent" unicode="&#x13b;" horiz-adv-x="600" 
d="M237 780v-615h355v-165h-540v780h185zM227 -62h191l-35 -138h-167z" />
    <glyph glyph-name="lcommaaccent" unicode="&#x13c;" horiz-adv-x="290" 
d="M55 0v800h180v-800h-180zM50 -62h191l-35 -138h-167z" />
    <glyph glyph-name="Lcaron" unicode="&#x13d;" horiz-adv-x="600" 
d="M237 780v-615h355v-165h-540v780h185zM340 800h151l-53 -208h-115z" />
    <glyph glyph-name="lcaron" unicode="&#x13e;" horiz-adv-x="290" 
d="M55 0v800h180v-800h-180zM285 800h151l-53 -208h-115z" />
    <glyph glyph-name="Ldot" unicode="&#x13f;" horiz-adv-x="600" 
d="M237 780v-615h355v-165h-540v780h185zM542 490v-182h-184v182h184z" />
    <glyph glyph-name="ldot" unicode="&#x140;" horiz-adv-x="444" 
d="M55 0v800h180v-800h-180zM459 481v-182h-184v182h184z" />
    <glyph glyph-name="Lslash" unicode="&#x141;" horiz-adv-x="630" 
d="M483 416l-216 -108v-143h355v-165h-540v216l-53 -26v134l53 26v430h185v-338l216 108v-134z" />
    <glyph glyph-name="lslash" unicode="&#x142;" horiz-adv-x="335" 
d="M322 416l-72 -46v-370h-180v257l-52 -33v134l52 33v409h180v-296l72 46v-134z" />
    <glyph glyph-name="Nacute" unicode="&#x143;" horiz-adv-x="768" 
d="M223 780l237 -344l72 -109l-1 145v308h185v-780h-171l-237 344l-72 109l1 -145v-308h-185v780h171zM384 1030h196l-111 -208h-179z" />
    <glyph glyph-name="nacute" unicode="&#x144;" horiz-adv-x="645" 
d="M329 800h196l-111 -208h-179zM205 530l11.999 -57c42.667 48.667 98.667 73 168 73c72 0 126.333 -17.5 163 -52.5s55 -91.167 55 -168.5v-325h-180v302c0 29.333 -6.66699 50.333 -20 63s-32.666 18.667 -57.999 18c-26 -0.666992 -49.167 -6 -69.5 -16
s-35.5 -21.333 -45.5 -34v-333h-180v376l-10 154h165z" />
    <glyph glyph-name="Ncommaaccent" unicode="&#x145;" horiz-adv-x="768" 
d="M223 780l237 -344l72 -109l-1 145v308h185v-780h-171l-237 344l-72 109l1 -145v-308h-185v780h171zM299 -62h191l-35 -138h-167z" />
    <glyph glyph-name="ncommaaccent" unicode="&#x146;" horiz-adv-x="645" 
d="M242 -62h191l-35 -138h-167zM205 530l11.999 -57c42.667 48.667 98.667 73 168 73c72 0 126.333 -17.5 163 -52.5s55 -91.167 55 -168.5v-325h-180v302c0 29.333 -6.66699 50.333 -20 63s-32.666 18.667 -57.999 18c-26 -0.666992 -49.167 -6 -69.5 -16
s-35.5 -21.333 -45.5 -34v-333h-180v376l-10 154h165z" />
    <glyph glyph-name="Ncaron" unicode="&#x147;" horiz-adv-x="768" 
d="M223 780l237 -344l72 -109l-1 145v308h185v-780h-171l-237 344l-72 109l1 -145v-308h-185v780h171zM437 1030h183l-158 -208h-156l-158 208h183l53 -59z" />
    <glyph glyph-name="ncaron" unicode="&#x148;" horiz-adv-x="645" 
d="M382 800h183l-158 -208h-156l-158 208h183l53 -59zM205 530l11.999 -57c42.667 48.667 98.667 73 168 73c72 0 126.333 -17.5 163 -52.5s55 -91.167 55 -168.5v-325h-180v302c0 29.333 -6.66699 50.333 -20 63s-32.666 18.667 -57.999 18
c-26 -0.666992 -49.167 -6 -69.5 -16s-35.5 -21.333 -45.5 -34v-333h-180v376l-10 154h165z" />
    <glyph glyph-name="Eng" unicode="&#x14a;" horiz-adv-x="768" 
d="M478 -58c18 2 31.333 7.50098 40 16.501s13 23.5 13 43.5v18l-223 324l-72 109l1 -145v-308h-185v780h171l237 -344l72 -109l-1 145v308h185v-803c0 -24.667 -3.66699 -47.834 -11 -69.501s-19.333 -42 -36 -61s-40.5 -34.167 -71.5 -45.5s-67.833 -17 -110.5 -17
c-44 0 -81.667 6.66699 -113 20l13 162c30 -19.333 60.333 -27.333 91 -24z" />
    <glyph glyph-name="eng" unicode="&#x14b;" horiz-adv-x="645" 
d="M603 325l-0.000976562 -347.999c0 -24.667 -3.66699 -47.834 -11 -69.501s-19.333 -42 -36 -61s-40.5 -34.167 -71.5 -45.5s-67.833 -17 -110.5 -17c-44 0 -81.667 6.66699 -113 20l13 162c30 -19.333 61.333 -27.333 94 -24c36.667 4 55 24 55 60v300
c0 29.333 -6.66699 50.333 -20 63s-32.666 18.667 -57.999 18c-26 -0.666992 -49.167 -6 -69.5 -16s-35.5 -21.333 -45.5 -34v-333h-180v376l-10 154h165l12 -57c42.667 48.667 98.667 73 168 73c72 0 126.333 -17.5 163 -52.5s55 -91.167 55 -168.5z" />
    <glyph glyph-name="Omacron" unicode="&#x14c;" horiz-adv-x="820" 
d="M410 -16c-126 0 -218.833 35.833 -278.5 107.5s-89.5 171.167 -89.5 298.5s29.667 226.833 89 298.5s152.333 107.5 279 107.5c126 0 218.833 -35.833 278.5 -107.5s89.5 -171.167 89.5 -298.5s-29.667 -226.833 -89 -298.5s-152.333 -107.5 -279 -107.5zM410 631
c-35.333 0 -65.333 -6.33301 -90 -19s-43.334 -30.834 -56.001 -54.501s-21.667 -49 -27 -76s-8 -57.5 -8 -91.5s2.66699 -64.5 8 -91.5s14.333 -52.333 27 -76s31.334 -41.834 56.001 -54.501s54.667 -19 90 -19s65.333 6.33301 90 19s43.334 30.834 56.001 54.501
s21.667 49 27 76s8 57.5 8 91.5s-2.66699 64.5 -8 91.5s-14.333 52.333 -27 76s-31.334 41.834 -56.001 54.501s-54.667 19 -90 19zM576 846h-332v164h332v-164z" />
    <glyph glyph-name="omacron" unicode="&#x14d;" horiz-adv-x="620" 
d="M476 616h-332v164h332v-164zM310 146c32.667 0 57.5 8.83301 74.5 26.5s25.5 48.5 25.5 92.5s-8.5 74.833 -25.5 92.5s-41.833 26.5 -74.5 26.5s-57.5 -8.83301 -74.5 -26.5s-25.5 -48.5 -25.5 -92.5s8.5 -74.833 25.5 -92.5s41.833 -26.5 74.5 -26.5zM310 -16
c-88.667 0 -157.834 23.833 -207.501 71.5s-74.5 117.5 -74.5 209.5s24.833 161.833 74.5 209.5s118.834 71.5 207.501 71.5s157.834 -23.833 207.501 -71.5s74.5 -117.5 74.5 -209.5s-24.833 -161.833 -74.5 -209.5s-118.834 -71.5 -207.501 -71.5z" />
    <glyph glyph-name="Obreve" unicode="&#x14e;" horiz-adv-x="820" 
d="M410 631c-35.333 0 -65.333 -6.33301 -90 -19s-43.334 -30.834 -56.001 -54.501s-21.667 -49 -27 -76s-8 -57.5 -8 -91.5s2.66699 -64.5 8 -91.5s14.333 -52.333 27 -76s31.334 -41.834 56.001 -54.501s54.667 -19 90 -19s65.333 6.33301 90 19
s43.334 30.834 56.001 54.501s21.667 49 27 76s8 57.5 8 91.5s-2.66699 64.5 -8 91.5s-14.333 52.333 -27 76s-31.334 41.834 -56.001 54.501s-54.667 19 -90 19zM410 -16c-126 0 -218.833 35.833 -278.5 107.5s-89.5 171.167 -89.5 298.5s29.667 226.833 89 298.5
s152.333 107.5 279 107.5c126 0 218.833 -35.833 278.5 -107.5s89.5 -171.167 89.5 -298.5s-29.667 -226.833 -89 -298.5s-152.333 -107.5 -279 -107.5zM410 806c-76.667 0 -131.667 18.833 -165 56.5s-49.333 93.5 -48 167.5h140c-0.666992 -22 4.83301 -37.833 16.5 -47.5
s30.5 -14.5 56.5 -14.5s44.833 4.83301 56.5 14.5s17.167 25.5 16.5 47.5h140c1.33301 -74 -14.667 -129.833 -48 -167.5s-88.333 -56.5 -165 -56.5z" />
    <glyph glyph-name="obreve" unicode="&#x14f;" horiz-adv-x="620" 
d="M310 576c-76.667 0 -131.667 18.833 -165 56.5s-49.333 93.5 -48 167.5h140c-0.666992 -22 4.83301 -37.833 16.5 -47.5s30.5 -14.5 56.5 -14.5s44.833 4.83301 56.5 14.5s17.167 25.5 16.5 47.5h140c1.33301 -74 -14.667 -129.833 -48 -167.5s-88.333 -56.5 -165 -56.5z
M310 146c32.667 0 57.5 8.83301 74.5 26.5s25.5 48.5 25.5 92.5s-8.5 74.833 -25.5 92.5s-41.833 26.5 -74.5 26.5s-57.5 -8.83301 -74.5 -26.5s-25.5 -48.5 -25.5 -92.5s8.5 -74.833 25.5 -92.5s41.833 -26.5 74.5 -26.5zM310 -16c-88.667 0 -157.834 23.833 -207.501 71.5
s-74.5 117.5 -74.5 209.5s24.833 161.833 74.5 209.5s118.834 71.5 207.501 71.5s157.834 -23.833 207.501 -71.5s74.5 -117.5 74.5 -209.5s-24.833 -161.833 -74.5 -209.5s-118.834 -71.5 -207.501 -71.5z" />
    <glyph glyph-name="Ohungarumlaut" unicode="&#x150;" horiz-adv-x="820" 
d="M410 -16c-126 0 -218.833 35.833 -278.5 107.5s-89.5 171.167 -89.5 298.5s29.667 226.833 89 298.5s152.333 107.5 279 107.5c126 0 218.833 -35.833 278.5 -107.5s89.5 -171.167 89.5 -298.5s-29.667 -226.833 -89 -298.5s-152.333 -107.5 -279 -107.5zM410 631
c-35.333 0 -65.333 -6.33301 -90 -19s-43.334 -30.834 -56.001 -54.501s-21.667 -49 -27 -76s-8 -57.5 -8 -91.5s2.66699 -64.5 8 -91.5s14.333 -52.333 27 -76s31.334 -41.834 56.001 -54.501s54.667 -19 90 -19s65.333 6.33301 90 19s43.334 30.834 56.001 54.501
s21.667 49 27 76s8 57.5 8 91.5s-2.66699 64.5 -8 91.5s-14.333 52.333 -27 76s-31.334 41.834 -56.001 54.501s-54.667 19 -90 19zM308 1030h196l-111 -208h-179zM524 1030h196l-111 -208h-179z" />
    <glyph glyph-name="ohungarumlaut" unicode="&#x151;" horiz-adv-x="620" 
d="M310 -16c-88.667 0 -157.834 23.833 -207.501 71.5s-74.5 117.5 -74.5 209.5s24.833 161.833 74.5 209.5s118.834 71.5 207.501 71.5s157.834 -23.833 207.501 -71.5s74.5 -117.5 74.5 -209.5s-24.833 -161.833 -74.5 -209.5s-118.834 -71.5 -207.501 -71.5zM310 146
c32.667 0 57.5 8.83301 74.5 26.5s25.5 48.5 25.5 92.5s-8.5 74.833 -25.5 92.5s-41.833 26.5 -74.5 26.5s-57.5 -8.83301 -74.5 -26.5s-25.5 -48.5 -25.5 -92.5s8.5 -74.833 25.5 -92.5s41.833 -26.5 74.5 -26.5zM198 800h196l-111 -208h-179zM414 800h196l-111 -208h-179z
" />
    <glyph glyph-name="OE" unicode="&#x152;" horiz-adv-x="1102" 
d="M418 780l634 0.00195312v-165h-371v-134h317v-165h-317v-151h391v-165h-654c-127.333 0 -222.166 31.667 -284.499 95s-93.5 161.666 -93.5 294.999s31.167 231.666 93.5 294.999s157.166 95 284.499 95zM496 615.002l-78 -0.00195312
c-69.333 0 -118.5 -19.167 -147.5 -57.5s-43.5 -94.166 -43.5 -167.499s14.5 -129.166 43.5 -167.499s78.167 -57.5 147.5 -57.5h78v450z" />
    <glyph glyph-name="oe" unicode="&#x153;" horiz-adv-x="997" 
d="M310 146c32.667 0 57.5 8.83301 74.5 26.5s25.5 48.5 25.5 92.5s-8.5 74.833 -25.5 92.5s-41.833 26.5 -74.5 26.5s-57.5 -8.83301 -74.5 -26.5s-25.5 -48.5 -25.5 -92.5s8.5 -74.833 25.5 -92.5s41.833 -26.5 74.5 -26.5zM695 399
c-28.667 0 -51.668 -7.33301 -69.001 -22s-26.666 -33.667 -27.999 -57h181c1.33301 25.333 -5.66699 44.833 -21 58.5s-36.333 20.5 -63 20.5zM970.999 214l-376.001 -0.000976562c0 -26.667 9 -47.167 27 -61.5s43.333 -21.5 76 -21.5c54 0 82 11.333 84 34l182 -22
c-1.33301 -47.333 -22.833 -85.666 -64.5 -114.999s-106.5 -44 -194.5 -44c-81.333 0 -148.666 20.667 -201.999 62c-50.667 -41.333 -115 -62 -193 -62c-88.667 0 -157.834 23.833 -207.501 71.5s-74.5 117.5 -74.5 209.5s24.833 161.833 74.5 209.5
s118.834 71.5 207.501 71.5c76 0 140 -20.667 192 -62c52 41.333 116 62 192 62c89.333 0 157.833 -24 205.5 -72s71.5 -117.667 71.5 -209v-51z" />
    <glyph glyph-name="Racute" unicode="&#x154;" horiz-adv-x="725" 
d="M237 269v-268.999h-185v780h345c196 0 294 -85 294 -255c0 -120.667 -46.667 -198.334 -140 -233.001l178 -292h-222l-152 269h-118zM237 435.001h174.002c12 0 22.5 0.833008 31.5 2.5s18.5 5.33398 28.5 11.001s17.833 15 23.5 28s8.5 29.167 8.5 48.5
c0 25.333 -5.33301 45.166 -16 59.499s-21.834 23 -33.501 26s-25.834 4.5 -42.501 4.5h-174v-180zM346.002 1030h196l-111 -208h-179z" />
    <glyph glyph-name="racute" unicode="&#x155;" horiz-adv-x="436" 
d="M225 800h196l-111 -208h-179zM352 546c30 0 54.668 -4.33301 74.001 -13l-13 -168c-18.667 5.33301 -35.334 8 -50.001 8c-62.667 0 -107 -16.667 -133 -50v-323h-180v376l-10 154h165l12 -57c14.667 22.667 34.167 40.5 58.5 53.5s49.833 19.5 76.5 19.5z" />
    <glyph glyph-name="Rcommaaccent" unicode="&#x156;" horiz-adv-x="725" 
d="M237 269v-268.999h-185v780h345c196 0 294 -85 294 -255c0 -120.667 -46.667 -198.334 -140 -233.001l178 -292h-222l-152 269h-118zM237 435.001h174.002c12 0 22.5 0.833008 31.5 2.5s18.5 5.33398 28.5 11.001s17.833 15 23.5 28s8.5 29.167 8.5 48.5
c0 25.333 -5.33301 45.166 -16 59.499s-21.834 23 -33.501 26s-25.834 4.5 -42.501 4.5h-174v-180zM271.002 -61.999h191l-35 -138h-167z" />
    <glyph glyph-name="rcommaaccent" unicode="&#x157;" horiz-adv-x="436" 
d="M45 -62h191l-35 -138h-167zM352 546c30 0 54.668 -4.33301 74.001 -13l-13 -168c-18.667 5.33301 -35.334 8 -50.001 8c-62.667 0 -107 -16.667 -133 -50v-323h-180v376l-10 154h165l12 -57c14.667 22.667 34.167 40.5 58.5 53.5s49.833 19.5 76.5 19.5z" />
    <glyph glyph-name="Rcaron" unicode="&#x158;" horiz-adv-x="725" 
d="M237 269v-268.999h-185v780h345c196 0 294 -85 294 -255c0 -120.667 -46.667 -198.334 -140 -233.001l178 -292h-222l-152 269h-118zM237 435.001h174.002c12 0 22.5 0.833008 31.5 2.5s18.5 5.33398 28.5 11.001s17.833 15 23.5 28s8.5 29.167 8.5 48.5
c0 25.333 -5.33301 45.166 -16 59.499s-21.834 23 -33.501 26s-25.834 4.5 -42.501 4.5h-174v-180zM399.002 1030h183l-158 -208h-156l-158 208h183l53 -59z" />
    <glyph glyph-name="rcaron" unicode="&#x159;" horiz-adv-x="436" 
d="M278 800h183l-158 -208h-156l-158 208h183l53 -59zM352 546c30 0 54.668 -4.33301 74.001 -13l-13 -168c-18.667 5.33301 -35.334 8 -50.001 8c-62.667 0 -107 -16.667 -133 -50v-323h-180v376l-10 154h165l12 -57c14.667 22.667 34.167 40.5 58.5 53.5
s49.833 19.5 76.5 19.5z" />
    <glyph glyph-name="Sacute" unicode="&#x15a;" horiz-adv-x="722" 
d="M367 149c42.667 1.33301 77.4961 8.66895 104.496 22.002s40.167 36 39.5 68c-0.666992 26.667 -11.834 46 -33.501 58s-61.167 19.333 -118.5 22c-36.667 1.33301 -68 3.66602 -94 6.99902s-53.667 9.66602 -83 18.999s-53 21.333 -71 36s-33.167 35 -45.5 61
s-18.833 57 -19.5 93c-2 85.333 26.333 150.166 85 194.499s132.334 66.5 221.001 66.5c112 0 196.5 -22.667 253.5 -68s86.167 -109.666 87.5 -192.999l-188 -23c-0.666992 43.333 -13.667 74.333 -39 93s-63.333 27.334 -114 26.001
c-32.667 -0.666992 -61.167 -8.16699 -85.5 -22.5s-36.166 -37.5 -35.499 -69.5c0.666992 -22 9.5 -36.667 26.5 -44s53.5 -12.666 109.5 -15.999c46.667 -2.66699 85.5 -6.33398 116.5 -11.001s60.667 -12 89 -22s50.666 -23.5 66.999 -40.5s29.333 -38.833 39 -65.5
s14.834 -59 15.501 -97c0.666992 -44.667 -8 -84.167 -26 -118.5s-42.833 -61.5 -74.5 -81.5s-66.5 -34.833 -104.5 -44.5s-78.667 -14.5 -122 -14.5c-121.333 0 -208.166 22 -260.499 66s-79.166 109 -80.499 195l188 23c0.666992 -43.333 13.834 -74.333 39.501 -93
s63.5 -27.334 113.5 -26.001zM346.996 1030h196l-111 -208h-179z" />
    <glyph glyph-name="sacute" unicode="&#x15b;" horiz-adv-x="570" 
d="M279 125c55.333 0 82.999 14.333 82.999 43c0 13.333 -6.66699 22.166 -20 26.499s-37 7.5 -71 9.5c-81.333 6 -135.333 14 -162 24c-50.667 18.667 -77.334 58.334 -80.001 119.001v12c0 33.333 7.83301 62.666 23.5 87.999s36.334 44.833 62.001 58.5
s52.834 23.834 81.501 30.501s58 10 88 10c85.333 0 148.833 -12.833 190.5 -38.5s62.834 -68.167 63.501 -127.5l-182 -22c-0.666992 16 -6 27.833 -16 35.5s-28.667 11.5 -56 11.5c-18 0 -32.667 -3.5 -44 -10.5s-17 -16.167 -17 -27.5c0 -12.667 6 -21.5 18 -26.5
s34.333 -8.5 67 -10.5c4 0 9.33301 -0.333008 16 -1c76 -4.66699 127.667 -13 155 -25c47.333 -22 71 -66 71 -132c0 -34 -7.83301 -63.667 -23.5 -89s-37 -45 -64 -59s-55.833 -24.167 -86.5 -30.5s-63.334 -9.5 -98.001 -9.5c-90.667 0 -156.5 13.333 -197.5 40
s-61.833 71 -62.5 133l182 22c0.666992 -36 27 -54 79 -54zM279.999 800h196l-111 -208h-179z" />
    <glyph glyph-name="Scircumflex" unicode="&#x15c;" horiz-adv-x="722" 
d="M367 149c42.667 1.33301 77.4961 8.66895 104.496 22.002s40.167 36 39.5 68c-0.666992 26.667 -11.834 46 -33.501 58s-61.167 19.333 -118.5 22c-36.667 1.33301 -68 3.66602 -94 6.99902s-53.667 9.66602 -83 18.999s-53 21.333 -71 36s-33.167 35 -45.5 61
s-18.833 57 -19.5 93c-2 85.333 26.333 150.166 85 194.499s132.334 66.5 221.001 66.5c112 0 196.5 -22.667 253.5 -68s86.167 -109.666 87.5 -192.999l-188 -23c-0.666992 43.333 -13.667 74.333 -39 93s-63.333 27.334 -114 26.001
c-32.667 -0.666992 -61.167 -8.16699 -85.5 -22.5s-36.166 -37.5 -35.499 -69.5c0.666992 -22 9.5 -36.667 26.5 -44s53.5 -12.666 109.5 -15.999c46.667 -2.66699 85.5 -6.33398 116.5 -11.001s60.667 -12 89 -22s50.666 -23.5 66.999 -40.5s29.333 -38.833 39 -65.5
s14.834 -59 15.501 -97c0.666992 -44.667 -8 -84.167 -26 -118.5s-42.833 -61.5 -74.5 -81.5s-66.5 -34.833 -104.5 -44.5s-78.667 -14.5 -122 -14.5c-121.333 0 -208.166 22 -260.499 66s-79.166 109 -80.499 195l188 23c0.666992 -43.333 13.834 -74.333 39.501 -93
s63.5 -27.334 113.5 -26.001zM303.996 822.003h-183l158 208h156l158 -208h-183l-53 59z" />
    <glyph glyph-name="scircumflex" unicode="&#x15d;" horiz-adv-x="570" 
d="M279 125c55.333 0 82.999 14.333 82.999 43c0 13.333 -6.66699 22.166 -20 26.499s-37 7.5 -71 9.5c-81.333 6 -135.333 14 -162 24c-50.667 18.667 -77.334 58.334 -80.001 119.001v12c0 33.333 7.83301 62.666 23.5 87.999s36.334 44.833 62.001 58.5
s52.834 23.834 81.501 30.501s58 10 88 10c85.333 0 148.833 -12.833 190.5 -38.5s62.834 -68.167 63.501 -127.5l-182 -22c-0.666992 16 -6 27.833 -16 35.5s-28.667 11.5 -56 11.5c-18 0 -32.667 -3.5 -44 -10.5s-17 -16.167 -17 -27.5c0 -12.667 6 -21.5 18 -26.5
s34.333 -8.5 67 -10.5c4 0 9.33301 -0.333008 16 -1c76 -4.66699 127.667 -13 155 -25c47.333 -22 71 -66 71 -132c0 -34 -7.83301 -63.667 -23.5 -89s-37 -45 -64 -59s-55.833 -24.167 -86.5 -30.5s-63.334 -9.5 -98.001 -9.5c-90.667 0 -156.5 13.333 -197.5 40
s-61.833 71 -62.5 133l182 22c0.666992 -36 27 -54 79 -54zM226.999 592h-183l158 208h156l158 -208h-183l-53 59z" />
    <glyph glyph-name="Scedilla" unicode="&#x15e;" horiz-adv-x="722" 
d="M367 149c42.667 1.33301 77.4961 8.66895 104.496 22.002s40.167 36 39.5 68c-0.666992 26.667 -11.834 46 -33.501 58s-61.167 19.333 -118.5 22c-36.667 1.33301 -68 3.66602 -94 6.99902s-53.667 9.66602 -83 18.999s-53 21.333 -71 36s-33.167 35 -45.5 61
s-18.833 57 -19.5 93c-2 85.333 26.333 150.166 85 194.499s132.334 66.5 221.001 66.5c112 0 196.5 -22.667 253.5 -68s86.167 -109.666 87.5 -192.999l-188 -23c-0.666992 43.333 -13.667 74.333 -39 93s-63.333 27.334 -114 26.001
c-32.667 -0.666992 -61.167 -8.16699 -85.5 -22.5s-36.166 -37.5 -35.499 -69.5c0.666992 -22 9.5 -36.667 26.5 -44s53.5 -12.666 109.5 -15.999c46.667 -2.66699 85.5 -6.33398 116.5 -11.001s60.667 -12 89 -22s50.666 -23.5 66.999 -40.5s29.333 -38.833 39 -65.5
s14.834 -59 15.501 -97c0.666992 -42 -6.83301 -79.333 -22.5 -112s-37.5 -59 -65.5 -79s-59 -35.5 -93 -46.5s-71 -17.833 -111 -20.5l-5 -18c36 -7.33301 63.333 -19 82 -35s26.334 -37.333 23.001 -64c-3.33301 -28 -17.333 -49 -42 -63s-55 -21 -91 -21
c-50.667 0 -93.667 7.66699 -129 23l25 76c16 -8.66699 32.667 -14.334 50 -17.001c32 -4.66699 48 2.33301 48 21c0 9.33301 -7 17.333 -21 24s-33 11.334 -57 14.001l21 61c-98.667 7.33301 -169.667 32.833 -213 76.5s-65.666 104.5 -66.999 182.5l188 23
c0.666992 -43.333 13.834 -74.333 39.501 -93s63.5 -27.334 113.5 -26.001z" />
    <glyph glyph-name="scedilla" unicode="&#x15f;" horiz-adv-x="570" 
d="M279 125c55.333 0 82.998 14.332 82.998 42.999c0 13.333 -6.66699 22.166 -20 26.499s-37 7.5 -71 9.5c-81.333 6 -135.333 14 -162 24c-50.667 18.667 -77.334 58.334 -80.001 119.001v12c0 33.333 7.83301 62.666 23.5 87.999s36.334 44.833 62.001 58.5
s52.834 23.834 81.501 30.501s58 10 88 10c85.333 0 148.833 -12.833 190.5 -38.5s62.834 -68.167 63.501 -127.5l-182 -22c-0.666992 16 -6 27.833 -16 35.5s-28.667 11.5 -56 11.5c-18 0 -32.667 -3.5 -44 -10.5s-17 -16.167 -17 -27.5c0 -12.667 6 -21.5 18 -26.5
s34.333 -8.5 67 -10.5c4 0 9.33301 -0.333008 16 -1c76 -4.66699 127.667 -13 155 -25c47.333 -22 71 -66 71 -132c0 -40 -11 -73.833 -33 -101.5s-48.833 -47.667 -80.5 -60s-68.167 -20.5 -109.5 -24.5l-5 -19c36 -7.33301 63.333 -19 82 -35s26.334 -37.333 23.001 -64
c-3.33301 -28 -17.333 -49 -42 -63s-55 -21 -91 -21c-50.667 0 -93.667 7.66699 -129 23l25 76c16 -8.66699 32.667 -14.334 50 -17.001c32 -4.66699 48 2.33301 48 21c0 9.33301 -7 17.333 -21 24s-33 11.334 -57 14.001l21 61c-74 4 -127.833 19.333 -161.5 46
s-50.834 68.334 -51.501 125.001l182 22c0.666992 -36 27 -54 79 -54z" />
    <glyph glyph-name="Scaron" unicode="&#x160;" horiz-adv-x="722" 
d="M367 149c42.667 1.33301 77.4961 8.66895 104.496 22.002s40.167 36 39.5 68c-0.666992 26.667 -11.834 46 -33.501 58s-61.167 19.333 -118.5 22c-36.667 1.33301 -68 3.66602 -94 6.99902s-53.667 9.66602 -83 18.999s-53 21.333 -71 36s-33.167 35 -45.5 61
s-18.833 57 -19.5 93c-2 85.333 26.333 150.166 85 194.499s132.334 66.5 221.001 66.5c112 0 196.5 -22.667 253.5 -68s86.167 -109.666 87.5 -192.999l-188 -23c-0.666992 43.333 -13.667 74.333 -39 93s-63.333 27.334 -114 26.001
c-32.667 -0.666992 -61.167 -8.16699 -85.5 -22.5s-36.166 -37.5 -35.499 -69.5c0.666992 -22 9.5 -36.667 26.5 -44s53.5 -12.666 109.5 -15.999c46.667 -2.66699 85.5 -6.33398 116.5 -11.001s60.667 -12 89 -22s50.666 -23.5 66.999 -40.5s29.333 -38.833 39 -65.5
s14.834 -59 15.501 -97c0.666992 -44.667 -8 -84.167 -26 -118.5s-42.833 -61.5 -74.5 -81.5s-66.5 -34.833 -104.5 -44.5s-78.667 -14.5 -122 -14.5c-121.333 0 -208.166 22 -260.499 66s-79.166 109 -80.499 195l188 23c0.666992 -43.333 13.834 -74.333 39.501 -93
s63.5 -27.334 113.5 -26.001zM409.996 1030h183l-158 -208h-156l-158 208h183l53 -59z" />
    <glyph glyph-name="scaron" unicode="&#x161;" horiz-adv-x="570" 
d="M279 125c55.333 0 82.999 14.333 82.999 43c0 13.333 -6.66699 22.166 -20 26.499s-37 7.5 -71 9.5c-81.333 6 -135.333 14 -162 24c-50.667 18.667 -77.334 58.334 -80.001 119.001v12c0 33.333 7.83301 62.666 23.5 87.999s36.334 44.833 62.001 58.5
s52.834 23.834 81.501 30.501s58 10 88 10c85.333 0 148.833 -12.833 190.5 -38.5s62.834 -68.167 63.501 -127.5l-182 -22c-0.666992 16 -6 27.833 -16 35.5s-28.667 11.5 -56 11.5c-18 0 -32.667 -3.5 -44 -10.5s-17 -16.167 -17 -27.5c0 -12.667 6 -21.5 18 -26.5
s34.333 -8.5 67 -10.5c4 0 9.33301 -0.333008 16 -1c76 -4.66699 127.667 -13 155 -25c47.333 -22 71 -66 71 -132c0 -34 -7.83301 -63.667 -23.5 -89s-37 -45 -64 -59s-55.833 -24.167 -86.5 -30.5s-63.334 -9.5 -98.001 -9.5c-90.667 0 -156.5 13.333 -197.5 40
s-61.833 71 -62.5 133l182 22c0.666992 -36 27 -54 79 -54zM332.999 800h183l-158 -208h-156l-158 208h183l53 -59z" />
    <glyph glyph-name="Tcommaaccent" unicode="&#x162;" horiz-adv-x="647" 
d="M416 615v-615h-185v615h-214v165h613v-165h-214zM228 -62h191l-35 -138h-167z" />
    <glyph glyph-name="tcommaaccent" unicode="&#x163;" horiz-adv-x="480" 
d="M15 380v149.999h97v160h180v-160h160v-150h-160v-178c0 -36 18.333 -56 55 -60c32.667 -3.33301 64 4.66699 94 24l13 -162c-31.333 -13.333 -69 -20 -113 -20c-42.667 0 -79.5 5.66699 -110.5 17s-54.833 26.5 -71.5 45.5s-28.667 39.333 -36 61s-11 44.834 -11 69.501
v203h-97zM161 -62.001h191l-35 -138h-167z" />
    <glyph glyph-name="Tcaron" unicode="&#x164;" horiz-adv-x="647" 
d="M416 615v-615h-185v615h-214v165h613v-165h-214zM376 1050h183l-158 -208h-156l-158 208h183l53 -59z" />
    <glyph glyph-name="tcaron" unicode="&#x165;" horiz-adv-x="480" 
d="M15 380v149.999h97v160h180v-160h160v-150h-160v-178c0 -36 18.333 -56 55 -60c32.667 -3.33301 64 4.66699 94 24l13 -162c-31.333 -13.333 -69 -20 -113 -20c-42.667 0 -79.5 5.66699 -110.5 17s-54.833 26.5 -71.5 45.5s-28.667 39.333 -36 61s-11 44.834 -11 69.501
v203h-97zM363 799.999h151l-53 -208h-115z" />
    <glyph glyph-name="Tbar" unicode="&#x166;" horiz-adv-x="647" 
d="M416 615v-153h100v-124h-100v-338h-185v338h-100v124h100v153h-214v165h613v-165h-214z" />
    <glyph glyph-name="tbar" unicode="&#x167;" horiz-adv-x="480" 
d="M15 380v149.999h97v160h180v-160h160v-150h-160v-49h139v-124h-139v-5c0 -36 18.333 -56 55 -60c32.667 -3.33301 64 4.66699 94 24l13 -162c-31.333 -13.333 -69 -20 -113 -20c-42.667 0 -79.5 5.66699 -110.5 17s-54.833 26.5 -71.5 45.5s-28.667 39.333 -36 61
s-11 44.834 -11 69.501v30h-86v124h86v49h-97z" />
    <glyph glyph-name="Utilde" unicode="&#x168;" horiz-adv-x="746" 
d="M373 148c59.333 0 98.498 12.167 117.498 36.5s28.5 59.833 28.5 106.5v489h185v-493c0 -46 -5.16699 -86.333 -15.5 -121s-27.666 -66.167 -51.999 -94.5s-58.5 -50 -102.5 -65s-97.667 -22.5 -161 -22.5s-117 7.5 -161 22.5s-78.167 36.667 -102.5 65
s-41.666 59.833 -51.999 94.5s-15.5 75 -15.5 121v493h185v-489c0 -46.667 9.5 -82.167 28.5 -106.5s58.167 -36.5 117.5 -36.5zM453.998 806c-24 0 -46 4 -66 12s-35.167 16.667 -45.5 26s-21.166 18 -32.499 26s-22 12 -32 12c-10.667 0 -19 -4 -25 -12
s-9.66699 -16 -11 -24l-1 -11l-124 15c3.33301 34.667 11 66 23 94s31 52 57 72s57.667 30 95 30c24 0 46 -4 66 -12s35.167 -16.667 45.5 -26s21.166 -18 32.499 -26s22 -12 32 -12c10.667 0 19 4 25 12s9.66699 16 11 24l1 11l124 -15c-3.33301 -34.667 -11 -66 -23 -94
s-31 -52 -57 -72s-57.667 -30 -95 -30z" />
    <glyph glyph-name="utilde" unicode="&#x169;" horiz-adv-x="645" 
d="M405 576c-24 0 -46 4 -66 12s-35.167 16.667 -45.5 26s-21.166 18 -32.499 26s-22 12 -32 12c-10.667 0 -19 -4 -25 -12s-9.33301 -16 -10 -24l-2 -11l-124 15c6 55.333 23.167 101.833 51.5 139.5s69.5 56.5 123.5 56.5c24 0 46 -4 66 -12s35.167 -16.667 45.5 -26
s21.166 -18 32.499 -26s22 -12 32 -12c10.667 0 19 4 25 12s9.33301 16 10 24l2 11l124 -15c-6 -55.333 -23.167 -101.833 -51.5 -139.5s-69.5 -56.5 -123.5 -56.5zM440 0l-11.999 57c-42.667 -48.667 -98.667 -73 -168 -73c-72 0 -126.333 17.5 -163 52.5
s-55 91.167 -55 168.5v325h180v-302c0 -29.333 6.66699 -50.333 20 -63s32.666 -18.667 57.999 -18c26 0.666992 49.167 6 69.5 16s35.5 21.333 45.5 34v333h180v-376l10 -154h-165z" />
    <glyph glyph-name="Umacron" unicode="&#x16a;" horiz-adv-x="746" 
d="M373 148c59.333 0 98.498 12.167 117.498 36.5s28.5 59.833 28.5 106.5v489h185v-493c0 -46 -5.16699 -86.333 -15.5 -121s-27.666 -66.167 -51.999 -94.5s-58.5 -50 -102.5 -65s-97.667 -22.5 -161 -22.5s-117 7.5 -161 22.5s-78.167 36.667 -102.5 65
s-41.666 59.833 -51.999 94.5s-15.5 75 -15.5 121v493h185v-489c0 -46.667 9.5 -82.167 28.5 -106.5s58.167 -36.5 117.5 -36.5zM538.998 846h-332v164h332v-164z" />
    <glyph glyph-name="umacron" unicode="&#x16b;" horiz-adv-x="645" 
d="M490 616h-332v164h332v-164zM440 0l-11.999 57c-42.667 -48.667 -98.667 -73 -168 -73c-72 0 -126.333 17.5 -163 52.5s-55 91.167 -55 168.5v325h180v-302c0 -29.333 6.66699 -50.333 20 -63s32.666 -18.667 57.999 -18c26 0.666992 49.167 6 69.5 16
s35.5 21.333 45.5 34v333h180v-376l10 -154h-165z" />
    <glyph glyph-name="Ubreve" unicode="&#x16c;" horiz-adv-x="746" 
d="M373 148c59.333 0 98.498 12.167 117.498 36.5s28.5 59.833 28.5 106.5v489h185v-493c0 -46 -5.16699 -86.333 -15.5 -121s-27.666 -66.167 -51.999 -94.5s-58.5 -50 -102.5 -65s-97.667 -22.5 -161 -22.5s-117 7.5 -161 22.5s-78.167 36.667 -102.5 65
s-41.666 59.833 -51.999 94.5s-15.5 75 -15.5 121v493h185v-489c0 -46.667 9.5 -82.167 28.5 -106.5s58.167 -36.5 117.5 -36.5zM372.998 806c-76.667 0 -131.667 18.833 -165 56.5s-49.333 93.5 -48 167.5h140c-0.666992 -22 4.83301 -37.833 16.5 -47.5
s30.5 -14.5 56.5 -14.5s44.833 4.83301 56.5 14.5s17.167 25.5 16.5 47.5h140c1.33301 -74 -14.667 -129.833 -48 -167.5s-88.333 -56.5 -165 -56.5z" />
    <glyph glyph-name="ubreve" unicode="&#x16d;" horiz-adv-x="645" 
d="M324 576c-76.667 0 -131.667 18.833 -165 56.5s-49.333 93.5 -48 167.5h140c-0.666992 -22 4.83301 -37.833 16.5 -47.5s30.5 -14.5 56.5 -14.5s44.833 4.83301 56.5 14.5s17.167 25.5 16.5 47.5h140c1.33301 -74 -14.667 -129.833 -48 -167.5s-88.333 -56.5 -165 -56.5z
M440 0l-11.999 57c-42.667 -48.667 -98.667 -73 -168 -73c-72 0 -126.333 17.5 -163 52.5s-55 91.167 -55 168.5v325h180v-302c0 -29.333 6.66699 -50.333 20 -63s32.666 -18.667 57.999 -18c26 0.666992 49.167 6 69.5 16s35.5 21.333 45.5 34v333h180v-376l10 -154h-165z
" />
    <glyph glyph-name="Uring" unicode="&#x16e;" horiz-adv-x="746" 
d="M373 148c59.333 0 98.498 12.167 117.498 36.5s28.5 59.833 28.5 106.5v489h185v-493c0 -46 -5.16699 -86.333 -15.5 -121s-27.666 -66.167 -51.999 -94.5s-58.5 -50 -102.5 -65s-97.667 -22.5 -161 -22.5s-117 7.5 -161 22.5s-78.167 36.667 -102.5 65
s-41.666 59.833 -51.999 94.5s-15.5 75 -15.5 121v493h185v-489c0 -46.667 9.5 -82.167 28.5 -106.5s58.167 -36.5 117.5 -36.5zM252.998 926c0 36 10.667 65 32 87s50.666 33 87.999 33s66.666 -11 87.999 -33s32 -51 32 -87s-10.667 -65 -32 -87s-50.666 -33 -87.999 -33
s-66.666 11 -87.999 33s-32 51 -32 87zM400.998 926c0 18.667 -9.33301 28 -28 28s-28 -9.33301 -28 -28s9.33301 -28 28 -28s28 9.33301 28 28z" />
    <glyph glyph-name="uring" unicode="&#x16f;" horiz-adv-x="645" 
d="M204 696c0 36 10.667 65 32 87s50.666 33 87.999 33s66.666 -11 87.999 -33s32 -51 32 -87s-10.667 -65 -32 -87s-50.666 -33 -87.999 -33s-66.666 11 -87.999 33s-32 51 -32 87zM352 696c0 18.667 -9.33301 28 -28 28s-28 -9.33301 -28 -28s9.33301 -28 28 -28
s28 9.33301 28 28zM440 0l-11.999 57c-42.667 -48.667 -98.667 -73 -168 -73c-72 0 -126.333 17.5 -163 52.5s-55 91.167 -55 168.5v325h180v-302c0 -29.333 6.66699 -50.333 20 -63s32.666 -18.667 57.999 -18c26 0.666992 49.167 6 69.5 16s35.5 21.333 45.5 34v333h180
v-376l10 -154h-165z" />
    <glyph glyph-name="Uhungarumlaut" unicode="&#x170;" horiz-adv-x="746" 
d="M373 148c59.333 0 98.498 12.167 117.498 36.5s28.5 59.833 28.5 106.5v489h185v-493c0 -46 -5.16699 -86.333 -15.5 -121s-27.666 -66.167 -51.999 -94.5s-58.5 -50 -102.5 -65s-97.667 -22.5 -161 -22.5s-117 7.5 -161 22.5s-78.167 36.667 -102.5 65
s-41.666 59.833 -51.999 94.5s-15.5 75 -15.5 121v493h185v-489c0 -46.667 9.5 -82.167 28.5 -106.5s58.167 -36.5 117.5 -36.5zM486.998 1030h196l-111 -208h-179zM270.998 1030h196l-111 -208h-179z" />
    <glyph glyph-name="uhungarumlaut" unicode="&#x171;" horiz-adv-x="645" 
d="M428 800h196l-111 -208h-179zM212 800h196l-111 -208h-179zM440 0l-11.999 57c-42.667 -48.667 -98.667 -73 -168 -73c-72 0 -126.333 17.5 -163 52.5s-55 91.167 -55 168.5v325h180v-302c0 -29.333 6.66699 -50.333 20 -63s32.666 -18.667 57.999 -18
c26 0.666992 49.167 6 69.5 16s35.5 21.333 45.5 34v333h180v-376l10 -154h-165z" />
    <glyph glyph-name="Uogonek" unicode="&#x172;" horiz-adv-x="746" 
d="M373 148c59.333 0 98.498 12.167 117.498 36.5s28.5 59.833 28.5 106.5v489h185v-493c0 -76 -15.167 -138.667 -45.5 -188s-82.166 -83 -155.499 -101c-25.333 -6 -46.166 -16.167 -62.499 -30.5s-23.5 -27.833 -21.5 -40.5
c3.33301 -18.667 17.666 -25.334 42.999 -20.001c6 1.33301 12 3.33301 18 6s10.667 5 14 7l4 3l34 -114c-26.667 -16.667 -61.667 -25 -105 -25c-74.667 0 -119 30.333 -133 91c-9.33301 40.667 -5.66602 78.334 11.001 113.001c-96 9.33301 -163.833 40 -203.5 92
s-59.5 121 -59.5 207v493h185v-489c0 -46.667 9.5 -82.167 28.5 -106.5s58.167 -36.5 117.5 -36.5z" />
    <glyph glyph-name="uogonek" unicode="&#x173;" horiz-adv-x="645" 
d="M595 154l10.002 -154c-31.333 -2.66699 -56.833 -11.667 -76.5 -27s-28.167 -30.666 -25.5 -45.999c3.33301 -18.667 17.666 -25.334 42.999 -20.001c6 1.33301 12 3.33301 18 6s10.667 5 14 7l4 3l34 -114c-26.667 -16.667 -61.667 -25 -105 -25
c-74 0 -118.333 30.333 -133 91c-6.66699 28 -4.5 54.667 6.5 80s28.167 46.333 51.5 63l-8 39c-42.667 -48.667 -98.667 -73 -168 -73c-72 0 -126.333 17.5 -163 52.5s-55 91.167 -55 168.5v325h180v-302c0 -29.333 6.66699 -50.333 20 -63s32.666 -18.667 57.999 -18
c26 0.666992 49.167 6 69.5 16s35.5 21.333 45.5 34v333h180v-376z" />
    <glyph glyph-name="Wcircumflex" unicode="&#x174;" horiz-adv-x="1020" 
d="M457 822h-183l158 208h156l158 -208h-183l-53 59zM555 373l-45 233l-45 -233l-74 -381h-226l-149 788h200l49 -344l22 -178l32 182l68 340h246l68 -340l32 -182l22 178l49 344h200l-149 -788h-226z" />
    <glyph glyph-name="wcircumflex" unicode="&#x175;" horiz-adv-x="850" 
d="M450 193l-25 177l-25 -177l-33 -193h-252l-96 530h187l23 -200l14 -159l30 171l36 188h232l36 -188l30 -171l14 159l23 200h187l-96 -530h-252zM372 592h-183l158 208h156l158 -208h-183l-53 59z" />
    <glyph glyph-name="Ycircumflex" unicode="&#x176;" horiz-adv-x="730" 
d="M312 822h-183l158 208h156l158 -208h-183l-53 59zM-30 780h218l125 -219l52 -91l52 92l125 218h218l-302 -485v-295h-186v295z" />
    <glyph glyph-name="ycircumflex" unicode="&#x177;" horiz-adv-x="626" 
d="M260 592h-183l158 208h156l158 -208h-183l-53 59zM635 530l-228 -497l-98 -233h-208l113 242l-223 488h201l61 -163l60 -171l61 171l60 163h201z" />
    <glyph glyph-name="Ydieresis" unicode="&#x178;" horiz-adv-x="730" 
d="M337 1010v-182h-184v182h184zM577 1010v-182h-184v182h184zM-30 780h218l125 -219l52 -91l52 92l125 218h218l-302 -485v-295h-186v295z" />
    <glyph glyph-name="Zacute" unicode="&#x179;" horiz-adv-x="682" 
d="M14 0v123l352 441l44 52l-128 -1h-250v165h629v-123l-352 -441l-44 -52l128 1h268v-165h-647zM338 1030h196l-111 -208h-179z" />
    <glyph glyph-name="zacute" unicode="&#x17a;" horiz-adv-x="566" 
d="M13 0v121l264 250h-246v159h511v-121l-264 -250h275v-159h-540zM282 800h196l-111 -208h-179z" />
    <glyph glyph-name="Zdotaccent" unicode="&#x17b;" horiz-adv-x="682" 
d="M14 0v123l352 441l44 52l-128 -1h-250v165h629v-123l-352 -441l-44 -52l128 1h268v-165h-647zM430 1010v-182h-184v182h184z" />
    <glyph glyph-name="zdotaccent" unicode="&#x17c;" horiz-adv-x="566" 
d="M13 0v121l264 250h-246v159h511v-121l-264 -250h275v-159h-540zM374 780v-182h-184v182h184z" />
    <glyph glyph-name="Zcaron" unicode="&#x17d;" horiz-adv-x="682" 
d="M14 0v123l352 441l44 52l-128 -1h-250v165h629v-123l-352 -441l-44 -52l128 1h268v-165h-647zM391 1030h183l-158 -208h-156l-158 208h183l53 -59z" />
    <glyph glyph-name="zcaron" unicode="&#x17e;" horiz-adv-x="566" 
d="M13 0v121l264 250h-246v159h511v-121l-264 -250h275v-159h-540zM335 800h183l-158 -208h-156l-158 208h183l53 -59z" />
    <glyph glyph-name="Schwa" unicode="&#x18f;" horiz-adv-x="743" 
d="M21 390l0.000976562 71.001h509c-5.33301 53.333 -20.333 95 -45 125s-64 45 -118 45c-52 0 -89.5 -8.83301 -112.5 -26.5s-34.833 -48.5 -35.5 -92.5l-188 23c1.33301 83.333 30.166 147.666 86.499 192.999s139.5 68 249.5 68c235.333 0 353 -135.333 353 -406
s-117.667 -406 -353 -406c-122.667 0 -211 35.333 -265 106s-81 170.667 -81 300zM367.001 149.001c52 0 90.168 13.833 114.501 41.5s39.833 66.167 46.5 115.5h-317c5.33301 -49.333 19.666 -87.833 42.999 -115.5s61 -41.5 113 -41.5z" />
    <glyph glyph-name="florin" unicode="&#x192;" horiz-adv-x="464" 
d="M119 2v312h-107v150h107v123c0 24.667 3.66699 47.834 11 69.501s19.333 42 36 61s40.5 34.167 71.5 45.5s67.833 17 110.5 17c44 0 81.667 -6.66699 113 -20l-13 -162c-30 19.333 -61.333 27.333 -94 24c-36.667 -4 -55 -24 -55 -60v-98h145v-150h-145v-337
c0 -24.667 -3.66699 -47.834 -11 -69.501s-19.333 -42 -36 -61s-40.5 -34.167 -71.5 -45.5s-67.833 -17 -110.5 -17c-44 0 -81.667 6.66699 -113 20l13 162c30 -19.333 61.333 -27.333 94 -24c36.667 4 55 24 55 60z" />
    <glyph glyph-name="Khook" unicode="&#x198;" horiz-adv-x="761" 
d="M237 780l0.999023 -344.002c28 10 52.333 24.333 73 43s37 38.834 49 60.501s23.333 44.5 34 68.5s22.167 47 34.5 69s27 42 44 60s40.167 32.333 69.5 43s64.333 16 105 16c46.667 0 78.334 -5.33301 95.001 -16l-19 -164c-13.333 8 -31 12 -53 12
c-24.667 0 -45.5 -8.66699 -62.5 -26s-29.5 -37.166 -37.5 -59.499s-18.5 -47.5 -31.5 -75.5s-27.167 -49 -42.5 -63l268 -404h-246l-171 281c-8.66699 -8 -22.167 -16.5 -40.5 -25.5s-34.5 -15.833 -48.5 -20.5l-21 -7l1 -228h-185l-1 780h185z" />
    <glyph glyph-name="khook" unicode="&#x199;" horiz-adv-x="640" 
d="M44 0v622.999c0 24.667 3.66699 47.834 11 69.501s19.333 42 36 61s40.5 34.167 71.5 45.5s67.833 17 110.5 17c44 0 81.667 -6.66699 113 -20l-13 -162c-30 19.333 -61.333 27.333 -94 24c-36.667 -4 -55 -24 -55 -60v-247l48 60l101 119h257l-213 -208l225 -322h-234
l-122 202l-62 -59v-143h-180z" />
    <glyph glyph-name="Ezh" unicode="&#x1b7;" horiz-adv-x="750" 
d="M177 322l193.999 241.998l44 52l-128 -1h-220v165h599v-123l-160 -200l-35 -41c76.667 -13.333 136.834 -46.166 180.501 -98.499s65.5 -124.5 65.5 -216.5c0 -56 -9.66699 -105 -29 -147s-45.666 -75 -78.999 -99s-70 -41.833 -110 -53.5s-83 -17.5 -129 -17.5
c-113.333 0 -198.333 23.833 -255 71.5s-85.667 113.834 -87 198.501l188 23c2 -85.333 53.333 -128 154 -128c51.333 0 91.666 12.333 120.999 37s44 63 44 115c0 54.667 -13.333 96 -40 124s-65 42 -115 42c-43.333 0 -79 -18 -107 -54z" />
    <glyph glyph-name="Acaron" unicode="&#x1cd;" horiz-adv-x="754" 
d="M430 1030h183l-158 -208h-156l-158 208h183l53 -59zM561 0l-41 133h-286l-41 -133h-198l273 790h218l273 -790h-198zM354 520l-74 -237h193l-73 237l-23 79z" />
    <glyph glyph-name="acaron" unicode="&#x1ce;" horiz-adv-x="612" 
d="M350 800h183l-158 -208h-156l-158 208h183l53 -59zM20 145c0 56.667 15.8311 96.501 47.498 119.501s79.5 39.167 143.5 48.5l175 25v15c0 32 -25.333 48 -76 48c-30 0 -51 -4.16699 -63 -12.5s-18.667 -20.833 -20 -37.5l-182 22c0 27.333 3.83301 50.833 11.5 70.5
s20.834 37.5 39.501 53.5s45.834 28.167 81.501 36.5s79.834 12.5 132.501 12.5c89.333 0 154.333 -16.833 195 -50.5s61 -86.834 61 -159.501v-182l10 -154h-165l-12 57c-20 -21.333 -47.833 -38.833 -83.5 -52.5s-75.834 -20.5 -120.501 -20.5
c-53.333 0 -95.833 15.5 -127.5 46.5s-47.5 69.167 -47.5 114.5zM219.998 170.001c0 -12 4 -21.835 12 -29.502s19 -11.5 33 -11.5c22 0 44.5 5 67.5 15s40.833 21.333 53.5 34v55l-109 -16c-20 -3.33301 -34.5 -8.66602 -43.5 -15.999s-13.5 -17.666 -13.5 -30.999z" />
    <glyph glyph-name="Icaron" unicode="&#x1cf;" horiz-adv-x="311" 
d="M248 780v-780h-185v780h185zM208 1030h183l-158 -208h-156l-158 208h183l53 -59z" />
    <glyph glyph-name="icaron" unicode="&#x1d0;" horiz-adv-x="290" 
d="M55 0v530h180v-530h-180zM198 800h183l-158 -208h-156l-158 208h183l53 -59z" />
    <glyph glyph-name="Ocaron" unicode="&#x1d1;" horiz-adv-x="820" 
d="M410 631c-35.333 0 -65.333 -6.33301 -90 -19s-43.334 -30.834 -56.001 -54.501s-21.667 -49 -27 -76s-8 -57.5 -8 -91.5s2.66699 -64.5 8 -91.5s14.333 -52.333 27 -76s31.334 -41.834 56.001 -54.501s54.667 -19 90 -19s65.333 6.33301 90 19
s43.334 30.834 56.001 54.501s21.667 49 27 76s8 57.5 8 91.5s-2.66699 64.5 -8 91.5s-14.333 52.333 -27 76s-31.334 41.834 -56.001 54.501s-54.667 19 -90 19zM410 -16c-126 0 -218.833 35.833 -278.5 107.5s-89.5 171.167 -89.5 298.5s29.667 226.833 89 298.5
s152.333 107.5 279 107.5c126 0 218.833 -35.833 278.5 -107.5s89.5 -171.167 89.5 -298.5s-29.667 -226.833 -89 -298.5s-152.333 -107.5 -279 -107.5zM463 1030h183l-158 -208h-156l-158 208h183l53 -59z" />
    <glyph glyph-name="ocaron" unicode="&#x1d2;" horiz-adv-x="620" 
d="M310 146c32.667 0 57.5 8.83301 74.5 26.5s25.5 48.5 25.5 92.5s-8.5 74.833 -25.5 92.5s-41.833 26.5 -74.5 26.5s-57.5 -8.83301 -74.5 -26.5s-25.5 -48.5 -25.5 -92.5s8.5 -74.833 25.5 -92.5s41.833 -26.5 74.5 -26.5zM310 -16
c-88.667 0 -157.834 23.833 -207.501 71.5s-74.5 117.5 -74.5 209.5s24.833 161.833 74.5 209.5s118.834 71.5 207.501 71.5s157.834 -23.833 207.501 -71.5s74.5 -117.5 74.5 -209.5s-24.833 -161.833 -74.5 -209.5s-118.834 -71.5 -207.501 -71.5zM74 800h184l52 -59
l53 59h183l-158 -208h-156z" />
    <glyph glyph-name="Ucaron" unicode="&#x1d3;" horiz-adv-x="746" 
d="M373 148c59.333 0 98.498 12.167 117.498 36.5s28.5 59.833 28.5 106.5v489h185v-493c0 -46 -5.16699 -86.333 -15.5 -121s-27.666 -66.167 -51.999 -94.5s-58.5 -50 -102.5 -65s-97.667 -22.5 -161 -22.5s-117 7.5 -161 22.5s-78.167 36.667 -102.5 65
s-41.666 59.833 -51.999 94.5s-15.5 75 -15.5 121v493h185v-489c0 -46.667 9.5 -82.167 28.5 -106.5s58.167 -36.5 117.5 -36.5zM425.998 1030h183l-158 -208h-156l-158 208h183l53 -59z" />
    <glyph glyph-name="ucaron" unicode="&#x1d4;" horiz-adv-x="645" 
d="M377 800h183l-158 -208h-156l-158 208h183l53 -59zM440 0l-11.999 57c-42.667 -48.667 -98.667 -73 -168 -73c-72 0 -126.333 17.5 -163 52.5s-55 91.167 -55 168.5v325h180v-302c0 -29.333 6.66699 -50.333 20 -63s32.666 -18.667 57.999 -18
c26 0.666992 49.167 6 69.5 16s35.5 21.333 45.5 34v333h180v-376l10 -154h-165z" />
    <glyph glyph-name="Adieresismacron" unicode="&#x1de;" horiz-adv-x="754" 
d="M561 0l-41 133h-286l-41 -133h-198l273 790h218l273 -790h-198zM354 520l-74 -237h193l-73 237l-23 79zM349 1010v-182h-184v182h184zM589 1010v-182h-184v182h184zM543 1036h-332v164h332v-164z" />
    <glyph glyph-name="adieresismacron" unicode="&#x1df;" horiz-adv-x="612" 
d="M269 760v-182h-184v182h184zM509 760v-182h-184v182h184zM463 786h-332v164h332v-164zM20 145c0 56.667 15.8311 96.501 47.498 119.501s79.5 39.167 143.5 48.5l175 25v15c0 32 -25.333 48 -76 48c-30 0 -51 -4.16699 -63 -12.5s-18.667 -20.833 -20 -37.5l-182 22
c0 27.333 3.83301 50.833 11.5 70.5s20.834 37.5 39.501 53.5s45.834 28.167 81.501 36.5s79.834 12.5 132.501 12.5c89.333 0 154.333 -16.833 195 -50.5s61 -86.834 61 -159.501v-182l10 -154h-165l-12 57c-20 -21.333 -47.833 -38.833 -83.5 -52.5
s-75.834 -20.5 -120.501 -20.5c-53.333 0 -95.833 15.5 -127.5 46.5s-47.5 69.167 -47.5 114.5zM219.998 170.001c0 -12 4 -21.835 12 -29.502s19 -11.5 33 -11.5c22 0 44.5 5 67.5 15s40.833 21.333 53.5 34v55l-109 -16c-20 -3.33301 -34.5 -8.66602 -43.5 -15.999
s-13.5 -17.666 -13.5 -30.999z" />
    <glyph glyph-name="AEmacron" unicode="&#x1e2;" horiz-adv-x="1060" 
d="M696 846h-332v164h332v-164zM541 0l-24 166h-253l-81 -166h-204l418 780h613v-165h-381l22 -134h305v-165h-278l25 -151h327v-165h-489zM461 570l-124 -254h159l-29 210z" />
    <glyph glyph-name="aemacron" unicode="&#x1e3;" horiz-adv-x="966" 
d="M663 546c89.333 0 157.829 -24.001 205.496 -72.001s71.5 -117.667 71.5 -209v-51h-376c0 -26.667 9 -47.167 27 -61.5s43.333 -21.5 76 -21.5c54 0 82 11.333 84 34l182 -22c-1.33301 -47.333 -22.833 -85.666 -64.5 -114.999s-106.5 -44 -194.5 -44
c-90.667 0 -157.667 23.333 -201 70c-60 -46.667 -135.667 -70 -227 -70c-75.333 0 -131.833 15.667 -169.5 47s-56.5 72 -56.5 122c0 111.333 70.333 167 211 167h155v33c0 32 -25.333 48 -76 48c-30 0 -51 -4.16699 -63 -12.5s-18.667 -20.833 -20 -37.5l-182 22
c0 27.333 3.83301 50.833 11.5 70.5s20.834 37.5 39.501 53.5s45.834 28.167 81.501 36.5s79.834 12.5 132.501 12.5c82.667 0 143.334 -19 182.001 -57c43.333 38 100.333 57 171 57zM643.996 615.999h-332v164h332v-164zM204.996 166.999
c0 -12.667 4.83398 -23 14.501 -31s23.167 -12 40.5 -12c25.333 0 49.666 3.5 72.999 10.5s41 15.833 53 26.5v53h-118c-42 0 -63 -15.667 -63 -47zM663.997 398.999c-28.667 0 -51.668 -7.33301 -69.001 -22s-26.666 -33.667 -27.999 -57h181
c1.33301 25.333 -5.66699 44.833 -21 58.5s-36.333 20.5 -63 20.5z" />
    <glyph glyph-name="Gstroke" unicode="&#x1e4;" horiz-adv-x="866" 
d="M41 390c0 126.667 30.333 225.998 91 297.998s153 108 277 108c106.667 0 189.834 -23 249.501 -69s90.167 -110 91.5 -192l-188 -23c-0.666992 42.667 -14.167 73.167 -40.5 91.5s-63.833 27.5 -112.5 27.5c-120.667 0 -181 -80.333 -181 -241
c0 -158 60.333 -238.333 181 -241c62.667 -1.33301 113 5.66699 151 21v22h-151v66h151v39h-160v150h344v-189h100v-66h-100v-128c-54 -32 -106.833 -53.5 -158.5 -64.5s-110.834 -16.167 -177.501 -15.5c-124 0.666992 -216.167 36.834 -276.5 108.501
s-90.5 170.834 -90.5 297.501z" />
    <glyph glyph-name="gstroke" unicode="&#x1e5;" horiz-adv-x="644" 
d="M305 -69c38.667 0 67.333 6.66699 86 20h-55v62h79v56c-36.667 -39.333 -88.334 -59 -155.001 -59c-73.333 0 -130.333 22.5 -171 67.5s-61 111.833 -61 200.5s20.333 155.5 61 200.5s97.667 67.5 171 67.5c71.333 0 127.333 -24.333 168 -73l12 57h165l-10 -154v-363h55
v-62h-59c-11.333 -56 -42.833 -97.833 -94.5 -125.5s-112.167 -41.5 -181.5 -41.5c-98.667 0 -170.5 12.833 -215.5 38.5s-67.833 69.5 -68.5 131.5l182 29c0.666992 -18.667 7.83398 -32 21.501 -40s37.167 -12 70.5 -12zM211.999 278c0 -70 32.333 -105 97 -105
c45.333 0 80.666 16.667 105.999 50v110c-25.333 33.333 -60.666 50 -105.999 50c-64.667 0 -97 -35 -97 -105z" />
    <glyph glyph-name="Gcaron" unicode="&#x1e6;" horiz-adv-x="805" 
d="M41 390c0 126.667 30.333 225.998 91 297.998s153 108 277 108c106.667 0 189.834 -23 249.501 -69s90.167 -110 91.5 -192l-188 -23c-0.666992 42.667 -14.167 73.167 -40.5 91.5s-63.833 27.5 -112.5 27.5c-120.667 0 -181 -80.333 -181 -241
c0 -158 60.333 -238.333 181 -241c62.667 -1.33301 113 5.66699 151 21v127h-160v150h344v-383c-54 -32 -106.833 -53.5 -158.5 -64.5s-110.834 -16.167 -177.501 -15.5c-124 0.666992 -216.167 36.834 -276.5 108.501s-90.5 170.834 -90.5 297.501zM458 1030h183l-158 -208
h-156l-158 208h183l53 -59z" />
    <glyph glyph-name="gcaron" unicode="&#x1e7;" horiz-adv-x="644" 
d="M366 800h183l-158 -208h-156l-158 208h183l53 -59zM305 -69c73.333 0 110 23.668 110 71.001v67c-36.667 -39.333 -88.334 -59 -155.001 -59c-73.333 0 -130.333 22.5 -171 67.5s-61 111.833 -61 200.5s20.333 155.5 61 200.5s97.667 67.5 171 67.5
c71.333 0 127.333 -24.333 168 -73l12 57h165l-10 -154v-382c0 -36.667 -7.83301 -68.834 -23.5 -96.501s-37 -49.5 -64 -65.5s-56.667 -28 -89 -36s-66.833 -12 -103.5 -12c-98.667 0 -170.5 12.833 -215.5 38.5s-67.833 69.5 -68.5 131.5l182 29
c0.666992 -18.667 7.83398 -32 21.501 -40s37.167 -12 70.5 -12zM212 278.001c0 -70 32.333 -105 97 -105c45.333 0 80.666 16.667 105.999 50v110c-25.333 33.333 -60.666 50 -105.999 50c-64.667 0 -97 -35 -97 -105z" />
    <glyph glyph-name="Kcaron" unicode="&#x1e8;" horiz-adv-x="761" 
d="M418 1030h183l-158 -208h-156l-158 208h183l53 -59zM237 780v-333l101 128l168 205h246l-276 -308l287 -472h-241l-181 325l-104 -121v-204h-185v780h185z" />
    <glyph glyph-name="kcaron" unicode="&#x1e9;" horiz-adv-x="640" 
d="M187 1030h183l-158 -208h-156l-158 208h183l53 -59zM224 0h-180v800h180v-449l48 60l101 119h257l-213 -208l225 -322h-234l-122 202l-62 -59v-143z" />
    <glyph glyph-name="Oogonek" unicode="&#x1ea;" horiz-adv-x="820" 
d="M778 390c0 -227.333 -87.666 -359.333 -262.999 -396c-24 -6 -42.833 -15.5 -56.5 -28.5s-19.5 -25.833 -17.5 -38.5c3.33301 -18.667 17.666 -25.334 42.999 -20.001c6 1.33301 12 3.33301 18 6s10.667 5 14 7l4 3l34 -114c-26.667 -16.667 -61.667 -25 -105 -25
c-74 0 -118.333 30.333 -133 91c-10 40.667 -1 78.334 27 113.001c-102.667 12.667 -178.5 54 -227.5 124s-73.5 162.667 -73.5 278c0 127.333 29.667 226.833 89 298.5s152.333 107.5 279 107.5c126 0 218.833 -35.833 278.5 -107.5s89.5 -171.167 89.5 -298.5z
M410.001 631c-35.333 0 -65.333 -6.33301 -90 -19s-43.334 -30.834 -56.001 -54.501s-21.667 -49 -27 -76s-8 -57.5 -8 -91.5s2.66699 -64.5 8 -91.5s14.333 -52.333 27 -76s31.334 -41.834 56.001 -54.501s54.667 -19 90 -19s65.333 6.33301 90 19
s43.334 30.834 56.001 54.501s21.667 49 27 76s8 57.5 8 91.5s-2.66699 64.5 -8 91.5s-14.333 52.333 -27 76s-31.334 41.834 -56.001 54.501s-54.667 19 -90 19z" />
    <glyph glyph-name="oogonek" unicode="&#x1eb;" horiz-adv-x="620" 
d="M592 265c0 -72 -15.332 -130.498 -45.999 -175.498s-74.334 -75.5 -131.001 -91.5c-1.33301 0 -2.33301 -0.333008 -3 -1c-24.667 -6 -44.334 -15.833 -59.001 -29.5s-21 -27.167 -19 -40.5c3.33301 -18.667 17.666 -25.334 42.999 -20.001c6 1.33301 12 3.33301 18 6
s10.333 5 13 7l5 3l34 -114c-26.667 -16.667 -61.667 -25 -105 -25c-74 0 -118.333 30.333 -133 91c-10.667 41.333 -0.666992 79.666 30 114.999c-67.333 12 -119.333 41.167 -156 87.5s-55 108.833 -55 187.5c0 92 24.833 161.833 74.5 209.5s118.834 71.5 207.501 71.5
s157.834 -23.833 207.501 -71.5s74.5 -117.5 74.5 -209.5zM310.001 146.002c32.667 0 57.5 8.83301 74.5 26.5s25.5 48.5 25.5 92.5s-8.5 74.833 -25.5 92.5s-41.833 26.5 -74.5 26.5s-57.5 -8.83301 -74.5 -26.5s-25.5 -48.5 -25.5 -92.5s8.5 -74.833 25.5 -92.5
s41.833 -26.5 74.5 -26.5z" />
    <glyph glyph-name="uni004F02DB00AF" unicode="&#x1ec;" horiz-adv-x="820" 
d="M778 390c0 -227.333 -87.666 -359.333 -262.999 -396c-24 -6 -42.833 -15.5 -56.5 -28.5s-19.5 -25.833 -17.5 -38.5c3.33301 -18.667 17.666 -25.334 42.999 -20.001c6 1.33301 12 3.33301 18 6s10.667 5 14 7l4 3l34 -114c-26.667 -16.667 -61.667 -25 -105 -25
c-74 0 -118.333 30.333 -133 91c-10 40.667 -1 78.334 27 113.001c-102.667 12.667 -178.5 54 -227.5 124s-73.5 162.667 -73.5 278c0 127.333 29.667 226.833 89 298.5s152.333 107.5 279 107.5c126 0 218.833 -35.833 278.5 -107.5s89.5 -171.167 89.5 -298.5z
M410.001 631c-35.333 0 -65.333 -6.33301 -90 -19s-43.334 -30.834 -56.001 -54.501s-21.667 -49 -27 -76s-8 -57.5 -8 -91.5s2.66699 -64.5 8 -91.5s14.333 -52.333 27 -76s31.334 -41.834 56.001 -54.501s54.667 -19 90 -19s65.333 6.33301 90 19
s43.334 30.834 56.001 54.501s21.667 49 27 76s8 57.5 8 91.5s-2.66699 64.5 -8 91.5s-14.333 52.333 -27 76s-31.334 41.834 -56.001 54.501s-54.667 19 -90 19zM576.001 846h-332v164h332v-164z" />
    <glyph glyph-name="oogonekmacron" unicode="&#x1ed;" horiz-adv-x="620" 
d="M592 265c0 -72 -15.332 -130.498 -45.999 -175.498s-74.334 -75.5 -131.001 -91.5c-1.33301 0 -2.33301 -0.333008 -3 -1c-24.667 -6 -44.334 -15.833 -59.001 -29.5s-21 -27.167 -19 -40.5c3.33301 -18.667 17.666 -25.334 42.999 -20.001c6 1.33301 12 3.33301 18 6
s10.333 5 13 7l5 3l34 -114c-26.667 -16.667 -61.667 -25 -105 -25c-74 0 -118.333 30.333 -133 91c-10.667 41.333 -0.666992 79.666 30 114.999c-67.333 12 -119.333 41.167 -156 87.5s-55 108.833 -55 187.5c0 92 24.833 161.833 74.5 209.5s118.834 71.5 207.501 71.5
s157.834 -23.833 207.501 -71.5s74.5 -117.5 74.5 -209.5zM476.001 616.002h-332v164h332v-164zM310.001 146.002c32.667 0 57.5 8.83301 74.5 26.5s25.5 48.5 25.5 92.5s-8.5 74.833 -25.5 92.5s-41.833 26.5 -74.5 26.5s-57.5 -8.83301 -74.5 -26.5
s-25.5 -48.5 -25.5 -92.5s8.5 -74.833 25.5 -92.5s41.833 -26.5 74.5 -26.5z" />
    <glyph glyph-name="Ezhcaron" unicode="&#x1ee;" horiz-adv-x="750" 
d="M177 322l193.999 241.998l44 52l-128 -1h-220v165h599v-123l-160 -200l-35 -41c76.667 -13.333 136.834 -46.166 180.501 -98.499s65.5 -124.5 65.5 -216.5c0 -56 -9.66699 -105 -29 -147s-45.666 -75 -78.999 -99s-70 -41.833 -110 -53.5s-83 -17.5 -129 -17.5
c-113.333 0 -198.333 23.833 -255 71.5s-85.667 113.834 -87 198.501l188 23c2 -85.333 53.333 -128 154 -128c51.333 0 91.666 12.333 120.999 37s44 63 44 115c0 54.667 -13.333 96 -40 124s-65 42 -115 42c-43.333 0 -79 -18 -107 -54zM410.999 1030h183l-158 -208h-156
l-158 208h183l53 -59z" />
    <glyph glyph-name="ezhcaron" unicode="&#x1ef;" horiz-adv-x="645" 
d="M310 -58c49.333 0 84.833 7.49902 106.5 22.499s32.5 39.5 32.5 73.5c0 59.333 -40.667 91 -122 95c-40.667 2 -79 -10.333 -115 -37l-81 90l199 185h-286v159h551v-121l-152 -139c126 -23.333 189 -101.666 189 -234.999c0 -84 -28.5 -146.833 -85.5 -188.5
s-134.833 -62.5 -233.5 -62.5c-208.667 0 -314 73 -316 219l191 22c1.33301 -26 12 -46.333 32 -61s50 -22 90 -22zM368 799.999h183l-158 -208h-156l-158 208h183l53 -59z" />
    <glyph glyph-name="jcaron" unicode="&#x1f0;" horiz-adv-x="290" 
d="M198 800h183l-158 -208h-156l-158 208h183l53 -59zM55 2v528.001h180v-553c0 -24.667 -3.66699 -47.834 -11 -69.501s-19.333 -42 -36 -61s-40.5 -34.167 -71.5 -45.5s-67.833 -17 -110.5 -17c-44 0 -81.667 6.66699 -113 20l13 162c30 -19.333 61.333 -27.333 94 -24
c36.667 4 55 24 55 60z" />
    <glyph glyph-name="jcaron" unicode="&#xe10c;" horiz-adv-x="290" 
d="M198 800h183l-158 -208h-156l-158 208h183l53 -59zM55 2v528.001h180v-553c0 -24.667 -3.66699 -47.834 -11 -69.501s-19.333 -42 -36 -61s-40.5 -34.167 -71.5 -45.5s-67.833 -17 -110.5 -17c-44 0 -81.667 6.66699 -113 20l13 162c30 -19.333 61.333 -27.333 94 -24
c36.667 4 55 24 55 60z" />
    <glyph glyph-name="Gacute" unicode="&#x1f4;" horiz-adv-x="805" 
d="M41 390c0 126.667 30.333 225.998 91 297.998s153 108 277 108c106.667 0 189.834 -23 249.501 -69s90.167 -110 91.5 -192l-188 -23c-0.666992 42.667 -14.167 73.167 -40.5 91.5s-63.833 27.5 -112.5 27.5c-120.667 0 -181 -80.333 -181 -241
c0 -158 60.333 -238.333 181 -241c62.667 -1.33301 113 5.66699 151 21v127h-160v150h344v-383c-54 -32 -106.833 -53.5 -158.5 -64.5s-110.834 -16.167 -177.501 -15.5c-124 0.666992 -216.167 36.834 -276.5 108.501s-90.5 170.834 -90.5 297.501zM405 1030h196l-111 -208
h-179z" />
    <glyph glyph-name="gacute" unicode="&#x1f5;" horiz-adv-x="644" 
d="M313 800h196l-111 -208h-179zM305 -69c73.333 0 110 23.668 110 71.001v67c-36.667 -39.333 -88.334 -59 -155.001 -59c-73.333 0 -130.333 22.5 -171 67.5s-61 111.833 -61 200.5s20.333 155.5 61 200.5s97.667 67.5 171 67.5c71.333 0 127.333 -24.333 168 -73l12 57
h165l-10 -154v-382c0 -36.667 -7.83301 -68.834 -23.5 -96.501s-37 -49.5 -64 -65.5s-56.667 -28 -89 -36s-66.833 -12 -103.5 -12c-98.667 0 -170.5 12.833 -215.5 38.5s-67.833 69.5 -68.5 131.5l182 29c0.666992 -18.667 7.83398 -32 21.501 -40s37.167 -12 70.5 -12z
M212 278.001c0 -70 32.333 -105 97 -105c45.333 0 80.666 16.667 105.999 50v110c-25.333 33.333 -60.666 50 -105.999 50c-64.667 0 -97 -35 -97 -105z" />
    <glyph glyph-name="Ngrave" unicode="&#x1f8;" horiz-adv-x="768" 
d="M223 780l237 -344l72 -109l-1 145v308h185v-780h-171l-237 344l-72 109l1 -145v-308h-185v780h171zM188 1030h196l94 -208h-179z" />
    <glyph glyph-name="ngrave" unicode="&#x1f9;" horiz-adv-x="645" 
d="M133 800h196l94 -208h-179zM205 530l11.999 -57c42.667 48.667 98.667 73 168 73c72 0 126.333 -17.5 163 -52.5s55 -91.167 55 -168.5v-325h-180v302c0 29.333 -6.66699 50.333 -20 63s-32.666 18.667 -57.999 18c-26 -0.666992 -49.167 -6 -69.5 -16
s-35.5 -21.333 -45.5 -34v-333h-180v376l-10 154h165z" />
    <glyph glyph-name="Aringacute" unicode="&#x1fa;" horiz-adv-x="754" 
d="M314 1134h147.998l-53 -92c28 -6 49.667 -19.333 65 -40s23 -46 23 -76c0 -36 -10.667 -65 -32 -87s-50.666 -33 -87.999 -33s-66.666 11 -87.999 33s-32 51 -32 87c0 19.333 2.66699 35.333 8 48zM560.998 0l-41 133h-286l-41 -133h-198l273 790h218l273 -790h-198z
M353.998 520l-74 -237h193l-73 237l-23 79zM404.998 926c0 18.667 -9.33301 28 -28 28s-28 -9.33301 -28 -28s9.33301 -28 28 -28s28 9.33301 28 28z" />
    <glyph glyph-name="aringacute" unicode="&#x1fb;" horiz-adv-x="612" 
d="M234 904h147.998l-53 -92c28 -6 49.667 -19.333 65 -40s23 -46 23 -76c0 -36 -10.667 -65 -32 -87s-50.666 -33 -87.999 -33s-66.666 11 -87.999 33s-32 51 -32 87c0 14.667 2 28.667 6 42zM324.998 696c0 18.667 -9.33301 28 -28 28s-28 -9.33301 -28 -28
s9.33301 -28 28 -28s28 9.33301 28 28zM19.998 145c0 56.667 15.8311 96.501 47.498 119.501s79.5 39.167 143.5 48.5l175 25v15c0 32 -25.333 48 -76 48c-30 0 -51 -4.16699 -63 -12.5s-18.667 -20.833 -20 -37.5l-182 22c0 27.333 3.83301 50.833 11.5 70.5
s20.834 37.5 39.501 53.5s45.834 28.167 81.501 36.5s79.834 12.5 132.501 12.5c89.333 0 154.333 -16.833 195 -50.5s61 -86.834 61 -159.501v-182l10 -154h-165l-12 57c-20 -21.333 -47.833 -38.833 -83.5 -52.5s-75.834 -20.5 -120.501 -20.5
c-53.333 0 -95.833 15.5 -127.5 46.5s-47.5 69.167 -47.5 114.5zM219.996 170.001c0 -12 4 -21.835 12 -29.502s19 -11.5 33 -11.5c22 0 44.5 5 67.5 15s40.833 21.333 53.5 34v55l-109 -16c-20 -3.33301 -34.5 -8.66602 -43.5 -15.999s-13.5 -17.666 -13.5 -30.999z" />
    <glyph glyph-name="AEacute" unicode="&#x1fc;" horiz-adv-x="1060" 
d="M540 1030h196l-111 -208h-179zM541 0l-24 166h-253l-81 -166h-204l418 780h613v-165h-381l22 -134h305v-165h-278l25 -151h327v-165h-489zM461 570l-124 -254h159l-29 210z" />
    <glyph glyph-name="aeacute" unicode="&#x1fd;" horiz-adv-x="966" 
d="M663 546c89.333 0 157.829 -24.001 205.496 -72.001s71.5 -117.667 71.5 -209v-51h-376c0 -26.667 9 -47.167 27 -61.5s43.333 -21.5 76 -21.5c54 0 82 11.333 84 34l182 -22c-1.33301 -47.333 -22.833 -85.666 -64.5 -114.999s-106.5 -44 -194.5 -44
c-90.667 0 -157.667 23.333 -201 70c-60 -46.667 -135.667 -70 -227 -70c-75.333 0 -131.833 15.667 -169.5 47s-56.5 72 -56.5 122c0 111.333 70.333 167 211 167h155v33c0 32 -25.333 48 -76 48c-30 0 -51 -4.16699 -63 -12.5s-18.667 -20.833 -20 -37.5l-182 22
c0 27.333 3.83301 50.833 11.5 70.5s20.834 37.5 39.501 53.5s45.834 28.167 81.501 36.5s79.834 12.5 132.501 12.5c82.667 0 143.334 -19 182.001 -57c43.333 38 100.333 57 171 57zM477.996 799.999h196l-111 -208h-179zM204.996 166.999
c0 -12.667 4.83398 -23 14.501 -31s23.167 -12 40.5 -12c25.333 0 49.666 3.5 72.999 10.5s41 15.833 53 26.5v53h-118c-42 0 -63 -15.667 -63 -47zM663.997 398.999c-28.667 0 -51.668 -7.33301 -69.001 -22s-26.666 -33.667 -27.999 -57h181
c1.33301 25.333 -5.66699 44.833 -21 58.5s-36.333 20.5 -63 20.5z" />
    <glyph glyph-name="Oslashacute" unicode="&#x1fe;" horiz-adv-x="820" 
d="M778 390c0 -127.333 -29.667 -226.833 -89 -298.5s-152.333 -107.5 -279 -107.5c-76 0 -141 14 -195 42l-18 -26h-106l53 78c-68 70 -102 174 -102 312c0 127.333 29.667 226.833 89 298.5s152.333 107.5 279 107.5c76 0 141 -14 195 -42l18 26h106l-53 -78
c68 -70 102 -174 102 -312zM410 631c-35.333 0 -65.332 -6.33203 -89.999 -18.999s-43.334 -30.834 -56.001 -54.501s-21.667 -49 -27 -76s-8 -57.5 -8 -91.5c0 -63.333 8.33301 -113.333 25 -150l251 368c-26 15.333 -57.667 23 -95 23zM410.001 149.001
c35.333 0 65.332 6.33203 89.999 18.999s43.334 30.834 56.001 54.501s21.667 49 27 76s8 57.5 8 91.5c0 63.333 -8.33301 113.333 -25 150l-251 -368c26 -15.333 57.667 -23 95 -23zM410 1030h196l-111 -208h-179z" />
    <glyph glyph-name="oslashacute" unicode="&#x1ff;" horiz-adv-x="620" 
d="M28 265c0 92 24.833 161.833 74.5 209.5s118.834 71.5 207.501 71.5c52 0 98.333 -8.66699 139 -26l7 10h88l-35 -48c55.333 -49.333 83 -121.666 83 -216.999c0 -92 -24.833 -161.833 -74.5 -209.5s-118.834 -71.5 -207.501 -71.5c-52 0 -98.333 8.66699 -139 26l-7 -10
h-88l35 48c-55.333 49.333 -83 121.666 -83 216.999zM310 800h196l-111 -208h-179zM220 200l128 179.001c-13.333 3.33301 -26 5 -38 5c-32.667 0 -57.5 -8.83301 -74.5 -26.5s-25.5 -48.5 -25.5 -92.5c0 -24.667 3.33301 -46.334 10 -65.001zM400 330.001l-128 -179.001
c13.333 -3.33301 26 -5 38 -5c32.667 0 57.5 8.83301 74.5 26.5s25.5 48.5 25.5 92.5c0 24.667 -3.33301 46.334 -10 65.001z" />
    <glyph glyph-name="Adoublegrave" unicode="&#x200;" horiz-adv-x="754" 
d="M283 1030h196l94 -208h-179zM67 1030h196l94 -208h-179zM561 0l-41 133h-286l-41 -133h-198l273 790h218l273 -790h-198zM354 520l-74 -237h193l-73 237l-23 79z" />
    <glyph glyph-name="edoublegrave" unicode="&#x201;" horiz-adv-x="615" 
d="M589 214l-376 -0.000976562c0 -26.667 9 -47.167 27 -61.5s43.333 -21.5 76 -21.5c54 0 82 11.333 84 34l182 -22c-1.33301 -47.333 -22.833 -85.666 -64.5 -114.999s-106.5 -44 -194.5 -44c-94 0 -166.667 24.167 -218 72.5s-77 117.833 -77 208.5s25 160.167 75 208.5
s119.667 72.5 209 72.5s157.833 -24 205.5 -72s71.5 -117.667 71.5 -209v-51zM313 398.999c-28.667 0 -51.668 -7.33301 -69.001 -22s-26.666 -33.667 -27.999 -57h181c1.33301 25.333 -5.66699 44.833 -21 58.5s-36.333 20.5 -63 20.5zM227.999 799.999h196l94 -208h-179z
M11.999 799.999h196l94 -208h-179z" />
    <glyph glyph-name="edoublegrave" unicode="&#x205;" horiz-adv-x="615" 
d="M589 214l-376 -0.000976562c0 -26.667 9 -47.167 27 -61.5s43.333 -21.5 76 -21.5c54 0 82 11.333 84 34l182 -22c-1.33301 -47.333 -22.833 -85.666 -64.5 -114.999s-106.5 -44 -194.5 -44c-94 0 -166.667 24.167 -218 72.5s-77 117.833 -77 208.5s25 160.167 75 208.5
s119.667 72.5 209 72.5s157.833 -24 205.5 -72s71.5 -117.667 71.5 -209v-51zM313 398.999c-28.667 0 -51.668 -7.33301 -69.001 -22s-26.666 -33.667 -27.999 -57h181c1.33301 25.333 -5.66699 44.833 -21 58.5s-36.333 20.5 -63 20.5zM227.999 799.999h196l94 -208h-179z
M11.999 799.999h196l94 -208h-179z" />
    <glyph glyph-name="Ainvertedbreve" unicode="&#x202;" horiz-adv-x="754" 
d="M377 1046c76.667 0 131.667 -18.833 165 -56.5s49.333 -93.5 48 -167.5h-140c0.666992 22 -4.83301 37.833 -16.5 47.5s-30.5 14.5 -56.5 14.5s-44.833 -4.83301 -56.5 -14.5s-17.167 -25.5 -16.5 -47.5h-140c-1.33301 74 14.667 129.833 48 167.5s88.333 56.5 165 56.5z
M561 0l-41 133h-286l-41 -133h-198l273 790h218l273 -790h-198zM354 520l-74 -237h193l-73 237l-23 79z" />
    <glyph glyph-name="ainvertedbreve" unicode="&#x203;" horiz-adv-x="612" 
d="M297 816c76.667 0 131.667 -18.833 165 -56.5s49.333 -93.5 48 -167.5h-140c0.666992 22 -4.83301 37.833 -16.5 47.5s-30.5 14.5 -56.5 14.5s-44.833 -4.83301 -56.5 -14.5s-17.167 -25.5 -16.5 -47.5h-140c-1.33301 74 14.667 129.833 48 167.5s88.333 56.5 165 56.5z
M20 145c0 56.667 15.8311 96.501 47.498 119.501s79.5 39.167 143.5 48.5l175 25v15c0 32 -25.333 48 -76 48c-30 0 -51 -4.16699 -63 -12.5s-18.667 -20.833 -20 -37.5l-182 22c0 27.333 3.83301 50.833 11.5 70.5s20.834 37.5 39.501 53.5s45.834 28.167 81.501 36.5
s79.834 12.5 132.501 12.5c89.333 0 154.333 -16.833 195 -50.5s61 -86.834 61 -159.501v-182l10 -154h-165l-12 57c-20 -21.333 -47.833 -38.833 -83.5 -52.5s-75.834 -20.5 -120.501 -20.5c-53.333 0 -95.833 15.5 -127.5 46.5s-47.5 69.167 -47.5 114.5zM219.998 170.001
c0 -12 4 -21.835 12 -29.502s19 -11.5 33 -11.5c22 0 44.5 5 67.5 15s40.833 21.333 53.5 34v55l-109 -16c-20 -3.33301 -34.5 -8.66602 -43.5 -15.999s-13.5 -17.666 -13.5 -30.999z" />
    <glyph glyph-name="Edoublegrave" unicode="&#x204;" horiz-adv-x="668" 
d="M52 780h566v-165h-381v-134h327v-165h-327v-151h401v-165h-586v780zM246 1030h196l94 -208h-179zM30 1030h196l94 -208h-179z" />
    <glyph glyph-name="Einvertedbreve" unicode="&#x206;" horiz-adv-x="668" 
d="M52 780h566v-165h-381v-134h327v-165h-327v-151h401v-165h-586v780zM340 1046c76.667 0 131.667 -18.833 165 -56.5s49.333 -93.5 48 -167.5h-140c0.666992 22 -4.83301 37.833 -16.5 47.5s-30.5 14.5 -56.5 14.5s-44.833 -4.83301 -56.5 -14.5
s-17.167 -25.5 -16.5 -47.5h-140c-1.33301 74 14.667 129.833 48 167.5s88.333 56.5 165 56.5z" />
    <glyph glyph-name="einvertedbreve" unicode="&#x207;" horiz-adv-x="615" 
d="M589 214l-376 -0.000976562c0 -26.667 9 -47.167 27 -61.5s43.333 -21.5 76 -21.5c54 0 82 11.333 84 34l182 -22c-1.33301 -47.333 -22.833 -85.666 -64.5 -114.999s-106.5 -44 -194.5 -44c-94 0 -166.667 24.167 -218 72.5s-77 117.833 -77 208.5s25 160.167 75 208.5
s119.667 72.5 209 72.5s157.833 -24 205.5 -72s71.5 -117.667 71.5 -209v-51zM313 398.999c-28.667 0 -51.668 -7.33301 -69.001 -22s-26.666 -33.667 -27.999 -57h181c1.33301 25.333 -5.66699 44.833 -21 58.5s-36.333 20.5 -63 20.5zM311.999 815.999
c76.667 0 131.667 -18.833 165 -56.5s49.333 -93.5 48 -167.5h-140c0.666992 22 -4.83301 37.833 -16.5 47.5s-30.5 14.5 -56.5 14.5s-44.833 -4.83301 -56.5 -14.5s-17.167 -25.5 -16.5 -47.5h-140c-1.33301 74 14.667 129.833 48 167.5s88.333 56.5 165 56.5z" />
    <glyph glyph-name="Idoublegrave" unicode="&#x208;" horiz-adv-x="311" 
d="M248 780v-780h-185v780h185zM61 1030h196l94 -208h-179zM-155 1030h196l94 -208h-179z" />
    <glyph glyph-name="idoublegrave" unicode="&#x209;" horiz-adv-x="290" 
d="M55 0v530h180v-530h-180zM61 800h196l94 -208h-179zM-155 800h196l94 -208h-179z" />
    <glyph glyph-name="Iinvertedbreve" unicode="&#x20a;" horiz-adv-x="311" 
d="M248 780v-780h-185v780h185zM155 1046c76.667 0 131.667 -18.833 165 -56.5s49.333 -93.5 48 -167.5h-140c0.666992 22 -4.83301 37.833 -16.5 47.5s-30.5 14.5 -56.5 14.5s-44.833 -4.83301 -56.5 -14.5s-17.167 -25.5 -16.5 -47.5h-140
c-1.33301 74 14.667 129.833 48 167.5s88.333 56.5 165 56.5z" />
    <glyph glyph-name="iinvertedbreve" unicode="&#x20b;" horiz-adv-x="290" 
d="M55 0v530h180v-530h-180zM145 816c76.667 0 131.667 -18.833 165 -56.5s49.333 -93.5 48 -167.5h-140c0.666992 22 -4.83301 37.833 -16.5 47.5s-30.5 14.5 -56.5 14.5s-44.833 -4.83301 -56.5 -14.5s-17.167 -25.5 -16.5 -47.5h-140
c-1.33301 74 14.667 129.833 48 167.5s88.333 56.5 165 56.5z" />
    <glyph glyph-name="Odoublegrave" unicode="&#x20c;" horiz-adv-x="820" 
d="M410 -16c-126 0 -218.833 35.833 -278.5 107.5s-89.5 171.167 -89.5 298.5s29.667 226.833 89 298.5s152.333 107.5 279 107.5c126 0 218.833 -35.833 278.5 -107.5s89.5 -171.167 89.5 -298.5s-29.667 -226.833 -89 -298.5s-152.333 -107.5 -279 -107.5zM410 631
c-35.333 0 -65.333 -6.33301 -90 -19s-43.334 -30.834 -56.001 -54.501s-21.667 -49 -27 -76s-8 -57.5 -8 -91.5s2.66699 -64.5 8 -91.5s14.333 -52.333 27 -76s31.334 -41.834 56.001 -54.501s54.667 -19 90 -19s65.333 6.33301 90 19s43.334 30.834 56.001 54.501
s21.667 49 27 76s8 57.5 8 91.5s-2.66699 64.5 -8 91.5s-14.333 52.333 -27 76s-31.334 41.834 -56.001 54.501s-54.667 19 -90 19zM316 1030h196l94 -208h-179zM100 1030h196l94 -208h-179z" />
    <glyph glyph-name="odoublegrave" unicode="&#x20d;" horiz-adv-x="620" 
d="M310 -16c-88.667 0 -157.834 23.833 -207.501 71.5s-74.5 117.5 -74.5 209.5s24.833 161.833 74.5 209.5s118.834 71.5 207.501 71.5s157.834 -23.833 207.501 -71.5s74.5 -117.5 74.5 -209.5s-24.833 -161.833 -74.5 -209.5s-118.834 -71.5 -207.501 -71.5zM310 146
c32.667 0 57.5 8.83301 74.5 26.5s25.5 48.5 25.5 92.5s-8.5 74.833 -25.5 92.5s-41.833 26.5 -74.5 26.5s-57.5 -8.83301 -74.5 -26.5s-25.5 -48.5 -25.5 -92.5s8.5 -74.833 25.5 -92.5s41.833 -26.5 74.5 -26.5zM226 800h196l94 -208h-179zM10 800h196l94 -208h-179z" />
    <glyph glyph-name="Oinvertedbreve" unicode="&#x20e;" horiz-adv-x="820" 
d="M410 631c-35.333 0 -65.333 -6.33301 -90 -19s-43.334 -30.834 -56.001 -54.501s-21.667 -49 -27 -76s-8 -57.5 -8 -91.5s2.66699 -64.5 8 -91.5s14.333 -52.333 27 -76s31.334 -41.834 56.001 -54.501s54.667 -19 90 -19s65.333 6.33301 90 19
s43.334 30.834 56.001 54.501s21.667 49 27 76s8 57.5 8 91.5s-2.66699 64.5 -8 91.5s-14.333 52.333 -27 76s-31.334 41.834 -56.001 54.501s-54.667 19 -90 19zM410 -16c-126 0 -218.833 35.833 -278.5 107.5s-89.5 171.167 -89.5 298.5s29.667 226.833 89 298.5
s152.333 107.5 279 107.5c126 0 218.833 -35.833 278.5 -107.5s89.5 -171.167 89.5 -298.5s-29.667 -226.833 -89 -298.5s-152.333 -107.5 -279 -107.5zM410 1046c76.667 0 131.667 -18.833 165 -56.5s49.333 -93.5 48 -167.5h-140c0.666992 22 -4.83301 37.833 -16.5 47.5
s-30.5 14.5 -56.5 14.5s-44.833 -4.83301 -56.5 -14.5s-17.167 -25.5 -16.5 -47.5h-140c-1.33301 74 14.667 129.833 48 167.5s88.333 56.5 165 56.5z" />
    <glyph glyph-name="oinvertedbreve" unicode="&#x20f;" horiz-adv-x="620" 
d="M310 146c32.667 0 57.5 8.83301 74.5 26.5s25.5 48.5 25.5 92.5s-8.5 74.833 -25.5 92.5s-41.833 26.5 -74.5 26.5s-57.5 -8.83301 -74.5 -26.5s-25.5 -48.5 -25.5 -92.5s8.5 -74.833 25.5 -92.5s41.833 -26.5 74.5 -26.5zM310 -16
c-88.667 0 -157.834 23.833 -207.501 71.5s-74.5 117.5 -74.5 209.5s24.833 161.833 74.5 209.5s118.834 71.5 207.501 71.5s157.834 -23.833 207.501 -71.5s74.5 -117.5 74.5 -209.5s-24.833 -161.833 -74.5 -209.5s-118.834 -71.5 -207.501 -71.5zM310 816
c76.667 0 131.667 -18.833 165 -56.5s49.333 -93.5 48 -167.5h-140c0.666992 22 -4.83301 37.833 -16.5 47.5s-30.5 14.5 -56.5 14.5s-44.833 -4.83301 -56.5 -14.5s-17.167 -25.5 -16.5 -47.5h-140c-1.33301 74 14.667 129.833 48 167.5s88.333 56.5 165 56.5z" />
    <glyph glyph-name="Rinvertedbreve" unicode="&#x212;" horiz-adv-x="725" 
d="M237 269v-268.999h-185v780h345c196 0 294 -85 294 -255c0 -120.667 -46.667 -198.334 -140 -233.001l178 -292h-222l-152 269h-118zM237 435.001h174.002c12 0 22.5 0.833008 31.5 2.5s18.5 5.33398 28.5 11.001s17.833 15 23.5 28s8.5 29.167 8.5 48.5
c0 25.333 -5.33301 45.166 -16 59.499s-21.834 23 -33.501 26s-25.834 4.5 -42.501 4.5h-174v-180zM346.002 1046c76.667 0 131.667 -18.833 165 -56.5s49.333 -93.5 48 -167.5h-140c0.666992 22 -4.83301 37.833 -16.5 47.5s-30.5 14.5 -56.5 14.5
s-44.833 -4.83301 -56.5 -14.5s-17.167 -25.5 -16.5 -47.5h-140c-1.33301 74 14.667 129.833 48 167.5s88.333 56.5 165 56.5z" />
    <glyph glyph-name="rinvertedbreve" unicode="&#x213;" horiz-adv-x="436" 
d="M225 816c76.667 0 131.667 -18.833 165 -56.5s49.333 -93.5 48 -167.5h-140c0.666992 22 -4.83301 37.833 -16.5 47.5s-30.5 14.5 -56.5 14.5s-44.833 -4.83301 -56.5 -14.5s-17.167 -25.5 -16.5 -47.5h-140c-1.33301 74 14.667 129.833 48 167.5s88.333 56.5 165 56.5z
M352 546c30 0 54.668 -4.33301 74.001 -13l-13 -168c-18.667 5.33301 -35.334 8 -50.001 8c-62.667 0 -107 -16.667 -133 -50v-323h-180v376l-10 154h165l12 -57c14.667 22.667 34.167 40.5 58.5 53.5s49.833 19.5 76.5 19.5z" />
    <glyph glyph-name="Udoublegrave" unicode="&#x214;" horiz-adv-x="746" 
d="M373 148c59.333 0 98.498 12.167 117.498 36.5s28.5 59.833 28.5 106.5v489h185v-493c0 -46 -5.16699 -86.333 -15.5 -121s-27.666 -66.167 -51.999 -94.5s-58.5 -50 -102.5 -65s-97.667 -22.5 -161 -22.5s-117 7.5 -161 22.5s-78.167 36.667 -102.5 65
s-41.666 59.833 -51.999 94.5s-15.5 75 -15.5 121v493h185v-489c0 -46.667 9.5 -82.167 28.5 -106.5s58.167 -36.5 117.5 -36.5zM62.998 1030h196l94 -208h-179zM278.998 1030h196l94 -208h-179z" />
    <glyph glyph-name="udoublegrave" unicode="&#x215;" horiz-adv-x="645" 
d="M18 800h196l94 -208h-179zM234 800h196l94 -208h-179zM440 0l-11.999 57c-42.667 -48.667 -98.667 -73 -168 -73c-72 0 -126.333 17.5 -163 52.5s-55 91.167 -55 168.5v325h180v-302c0 -29.333 6.66699 -50.333 20 -63s32.666 -18.667 57.999 -18
c26 0.666992 49.167 6 69.5 16s35.5 21.333 45.5 34v333h180v-376l10 -154h-165z" />
    <glyph glyph-name="Uinvertedbreve" unicode="&#x216;" horiz-adv-x="746" 
d="M373 148c59.333 0 98.498 12.167 117.498 36.5s28.5 59.833 28.5 106.5v489h185v-493c0 -46 -5.16699 -86.333 -15.5 -121s-27.666 -66.167 -51.999 -94.5s-58.5 -50 -102.5 -65s-97.667 -22.5 -161 -22.5s-117 7.5 -161 22.5s-78.167 36.667 -102.5 65
s-41.666 59.833 -51.999 94.5s-15.5 75 -15.5 121v493h185v-489c0 -46.667 9.5 -82.167 28.5 -106.5s58.167 -36.5 117.5 -36.5zM372.998 1046c76.667 0 131.667 -18.833 165 -56.5s49.333 -93.5 48 -167.5h-140c0.666992 22 -4.83301 37.833 -16.5 47.5
s-30.5 14.5 -56.5 14.5s-44.833 -4.83301 -56.5 -14.5s-17.167 -25.5 -16.5 -47.5h-140c-1.33301 74 14.667 129.833 48 167.5s88.333 56.5 165 56.5z" />
    <glyph glyph-name="uinvertedbreve" unicode="&#x217;" horiz-adv-x="645" 
d="M324 816c76.667 0 131.667 -18.833 165 -56.5s49.333 -93.5 48 -167.5h-140c0.666992 22 -4.83301 37.833 -16.5 47.5s-30.5 14.5 -56.5 14.5s-44.833 -4.83301 -56.5 -14.5s-17.167 -25.5 -16.5 -47.5h-140c-1.33301 74 14.667 129.833 48 167.5s88.333 56.5 165 56.5z
M440 0l-11.999 57c-42.667 -48.667 -98.667 -73 -168 -73c-72 0 -126.333 17.5 -163 52.5s-55 91.167 -55 168.5v325h180v-302c0 -29.333 6.66699 -50.333 20 -63s32.666 -18.667 57.999 -18c26 0.666992 49.167 6 69.5 16s35.5 21.333 45.5 34v333h180v-376l10 -154h-165z
" />
    <glyph glyph-name="Scommaaccent" unicode="&#x218;" horiz-adv-x="722" 
d="M367 149c42.667 1.33301 77.4961 8.66895 104.496 22.002s40.167 36 39.5 68c-0.666992 26.667 -11.834 46 -33.501 58s-61.167 19.333 -118.5 22c-36.667 1.33301 -68 3.66602 -94 6.99902s-53.667 9.66602 -83 18.999s-53 21.333 -71 36s-33.167 35 -45.5 61
s-18.833 57 -19.5 93c-2 85.333 26.333 150.166 85 194.499s132.334 66.5 221.001 66.5c112 0 196.5 -22.667 253.5 -68s86.167 -109.666 87.5 -192.999l-188 -23c-0.666992 43.333 -13.667 74.333 -39 93s-63.333 27.334 -114 26.001
c-32.667 -0.666992 -61.167 -8.16699 -85.5 -22.5s-36.166 -37.5 -35.499 -69.5c0.666992 -22 9.5 -36.667 26.5 -44s53.5 -12.666 109.5 -15.999c46.667 -2.66699 85.5 -6.33398 116.5 -11.001s60.667 -12 89 -22s50.666 -23.5 66.999 -40.5s29.333 -38.833 39 -65.5
s14.834 -59 15.501 -97c0.666992 -44.667 -8 -84.167 -26 -118.5s-42.833 -61.5 -74.5 -81.5s-66.5 -34.833 -104.5 -44.5s-78.667 -14.5 -122 -14.5c-121.333 0 -208.166 22 -260.499 66s-79.166 109 -80.499 195l188 23c0.666992 -43.333 13.834 -74.333 39.501 -93
s63.5 -27.334 113.5 -26.001zM261.996 -61.9971h191l-35 -138h-167z" />
    <glyph glyph-name="scommaaccent" unicode="&#x219;" horiz-adv-x="570" 
d="M279 125c55.333 0 82.999 14.333 82.999 43c0 13.333 -6.66699 22.166 -20 26.499s-37 7.5 -71 9.5c-81.333 6 -135.333 14 -162 24c-50.667 18.667 -77.334 58.334 -80.001 119.001v12c0 33.333 7.83301 62.666 23.5 87.999s36.334 44.833 62.001 58.5
s52.834 23.834 81.501 30.501s58 10 88 10c85.333 0 148.833 -12.833 190.5 -38.5s62.834 -68.167 63.501 -127.5l-182 -22c-0.666992 16 -6 27.833 -16 35.5s-28.667 11.5 -56 11.5c-18 0 -32.667 -3.5 -44 -10.5s-17 -16.167 -17 -27.5c0 -12.667 6 -21.5 18 -26.5
s34.333 -8.5 67 -10.5c4 0 9.33301 -0.333008 16 -1c76 -4.66699 127.667 -13 155 -25c47.333 -22 71 -66 71 -132c0 -34 -7.83301 -63.667 -23.5 -89s-37 -45 -64 -59s-55.833 -24.167 -86.5 -30.5s-63.334 -9.5 -98.001 -9.5c-90.667 0 -156.5 13.333 -197.5 40
s-61.833 71 -62.5 133l182 22c0.666992 -36 27 -54 79 -54zM184.999 -62h191l-35 -138h-167z" />
    <glyph glyph-name="Hcaron" unicode="&#x21e;" horiz-adv-x="748" 
d="M511 780h185v-780h-185v316h-274v-316h-185v780h185v-299h274v299zM427 1030h183l-158 -208h-156l-158 208h183l53 -59z" />
    <glyph glyph-name="hcaron" unicode="&#x21f;" horiz-adv-x="639" 
d="M187 1030h183l-158 -208h-156l-158 208h183l53 -59zM44 0l-0.00195312 800h180v-314c38.667 40 90.334 60 155.001 60c72 0 126.333 -17.5 163 -52.5s55 -91.167 55 -168.5v-325h-180v302c0 29.333 -6.66699 50.333 -20 63s-32.666 18.667 -57.999 18
c-26 -0.666992 -49.167 -6 -69.5 -16s-35.5 -21.333 -45.5 -34v-333h-180z" />
    <glyph glyph-name="Adotabove" unicode="&#x226;" horiz-adv-x="754" 
d="M469 1010v-182h-184v182h184zM561 0l-41 133h-286l-41 -133h-198l273 790h218l273 -790h-198zM354 520l-74 -237h193l-73 237l-23 79z" />
    <glyph glyph-name="adotabove" unicode="&#x227;" horiz-adv-x="612" 
d="M388 780v-182h-184v182h184zM20 145c0 56.667 15.8311 96.501 47.498 119.501s79.5 39.167 143.5 48.5l175 25v15c0 32 -25.333 48 -76 48c-30 0 -51 -4.16699 -63 -12.5s-18.667 -20.833 -20 -37.5l-182 22c0 27.333 3.83301 50.833 11.5 70.5s20.834 37.5 39.501 53.5
s45.834 28.167 81.501 36.5s79.834 12.5 132.501 12.5c89.333 0 154.333 -16.833 195 -50.5s61 -86.834 61 -159.501v-182l10 -154h-165l-12 57c-20 -21.333 -47.833 -38.833 -83.5 -52.5s-75.834 -20.5 -120.501 -20.5c-53.333 0 -95.833 15.5 -127.5 46.5
s-47.5 69.167 -47.5 114.5zM219.998 170.001c0 -12 4 -21.835 12 -29.502s19 -11.5 33 -11.5c22 0 44.5 5 67.5 15s40.833 21.333 53.5 34v55l-109 -16c-20 -3.33301 -34.5 -8.66602 -43.5 -15.999s-13.5 -17.666 -13.5 -30.999z" />
    <glyph glyph-name="Otildemacron" unicode="&#x22c;" horiz-adv-x="820" 
d="M410 -16c-126 0 -218.833 35.833 -278.5 107.5s-89.5 171.167 -89.5 298.5s29.667 226.833 89 298.5s152.333 107.5 279 107.5c126 0 218.833 -35.833 278.5 -107.5s89.5 -171.167 89.5 -298.5s-29.667 -226.833 -89 -298.5s-152.333 -107.5 -279 -107.5zM410 631
c-35.333 0 -65.333 -6.33301 -90 -19s-43.334 -30.834 -56.001 -54.501s-21.667 -49 -27 -76s-8 -57.5 -8 -91.5s2.66699 -64.5 8 -91.5s14.333 -52.333 27 -76s31.334 -41.834 56.001 -54.501s54.667 -19 90 -19s65.333 6.33301 90 19s43.334 30.834 56.001 54.501
s21.667 49 27 76s8 57.5 8 91.5s-2.66699 64.5 -8 91.5s-14.333 52.333 -27 76s-31.334 41.834 -56.001 54.501s-54.667 19 -90 19zM491 806c-24 0 -46 4 -66 12s-35.167 16.667 -45.5 26s-21.166 18 -32.499 26s-22 12 -32 12c-10.667 0 -19 -4 -25 -12
s-9.33301 -16 -10 -24l-2 -11l-124 15c6 55.333 23.167 101.833 51.5 139.5s69.5 56.5 123.5 56.5c24 0 46 -4 66 -12s35.167 -16.667 45.5 -26s21.166 -18 32.499 -26s22 -12 32 -12c10.667 0 19 4 25 12s9.33301 16 10 24l2 11l124 -15
c-6 -55.333 -23.167 -101.833 -51.5 -139.5s-69.5 -56.5 -123.5 -56.5zM576 1066h-332v164h332v-164z" />
    <glyph glyph-name="otildemacron" unicode="&#x22d;" horiz-adv-x="620" 
d="M310 146c32.667 0 57.5 8.83301 74.5 26.5s25.5 48.5 25.5 92.5s-8.5 74.833 -25.5 92.5s-41.833 26.5 -74.5 26.5s-57.5 -8.83301 -74.5 -26.5s-25.5 -48.5 -25.5 -92.5s8.5 -74.833 25.5 -92.5s41.833 -26.5 74.5 -26.5zM310 -16
c-88.667 0 -157.834 23.833 -207.501 71.5s-74.5 117.5 -74.5 209.5s24.833 161.833 74.5 209.5s118.834 71.5 207.501 71.5s157.834 -23.833 207.501 -71.5s74.5 -117.5 74.5 -209.5s-24.833 -161.833 -74.5 -209.5s-118.834 -71.5 -207.501 -71.5zM391 556
c-24 0 -46 4 -66 12s-35.167 16.667 -45.5 26s-21.166 18 -32.499 26s-22 12 -32 12c-10.667 0 -19 -4 -25 -12s-9.33301 -16 -10 -24l-2 -11l-124 15c6 55.333 23.167 101.833 51.5 139.5s69.5 56.5 123.5 56.5c24 0 46 -4 66 -12s35.167 -16.667 45.5 -26
s21.166 -18 32.499 -26s22 -12 32 -12c10.667 0 19 4 25 12s9.33301 16 10 24l2 11l124 -15c-6 -55.333 -23.167 -101.833 -51.5 -139.5s-69.5 -56.5 -123.5 -56.5zM476 816h-332v164h332v-164z" />
    <glyph glyph-name="Odotabove" unicode="&#x22e;" horiz-adv-x="820" 
d="M410 631c-35.333 0 -65.333 -6.33301 -90 -19s-43.334 -30.834 -56.001 -54.501s-21.667 -49 -27 -76s-8 -57.5 -8 -91.5s2.66699 -64.5 8 -91.5s14.333 -52.333 27 -76s31.334 -41.834 56.001 -54.501s54.667 -19 90 -19s65.333 6.33301 90 19
s43.334 30.834 56.001 54.501s21.667 49 27 76s8 57.5 8 91.5s-2.66699 64.5 -8 91.5s-14.333 52.333 -27 76s-31.334 41.834 -56.001 54.501s-54.667 19 -90 19zM410 -16c-126 0 -218.833 35.833 -278.5 107.5s-89.5 171.167 -89.5 298.5s29.667 226.833 89 298.5
s152.333 107.5 279 107.5c126 0 218.833 -35.833 278.5 -107.5s89.5 -171.167 89.5 -298.5s-29.667 -226.833 -89 -298.5s-152.333 -107.5 -279 -107.5zM502 1010v-182h-184v182h184z" />
    <glyph glyph-name="odotabove" unicode="&#x22f;" horiz-adv-x="620" 
d="M310 146c32.667 0 57.5 8.83301 74.5 26.5s25.5 48.5 25.5 92.5s-8.5 74.833 -25.5 92.5s-41.833 26.5 -74.5 26.5s-57.5 -8.83301 -74.5 -26.5s-25.5 -48.5 -25.5 -92.5s8.5 -74.833 25.5 -92.5s41.833 -26.5 74.5 -26.5zM310 -16
c-88.667 0 -157.834 23.833 -207.501 71.5s-74.5 117.5 -74.5 209.5s24.833 161.833 74.5 209.5s118.834 71.5 207.501 71.5s157.834 -23.833 207.501 -71.5s74.5 -117.5 74.5 -209.5s-24.833 -161.833 -74.5 -209.5s-118.834 -71.5 -207.501 -71.5zM402 780v-182h-184v182
h184z" />
    <glyph glyph-name="odotabovemacron" unicode="&#x231;" horiz-adv-x="620" 
d="M310 146c32.667 0 57.5 8.83301 74.5 26.5s25.5 48.5 25.5 92.5s-8.5 74.833 -25.5 92.5s-41.833 26.5 -74.5 26.5s-57.5 -8.83301 -74.5 -26.5s-25.5 -48.5 -25.5 -92.5s8.5 -74.833 25.5 -92.5s41.833 -26.5 74.5 -26.5zM310 -16
c-88.667 0 -157.834 23.833 -207.501 71.5s-74.5 117.5 -74.5 209.5s24.833 161.833 74.5 209.5s118.834 71.5 207.501 71.5s157.834 -23.833 207.501 -71.5s74.5 -117.5 74.5 -209.5s-24.833 -161.833 -74.5 -209.5s-118.834 -71.5 -207.501 -71.5zM402 760v-182h-184v182
h184zM476 786h-332v164h332v-164z" />
    <glyph glyph-name="odotabovemacron" unicode="&#xe11e;" horiz-adv-x="620" 
d="M310 146c32.667 0 57.5 8.83301 74.5 26.5s25.5 48.5 25.5 92.5s-8.5 74.833 -25.5 92.5s-41.833 26.5 -74.5 26.5s-57.5 -8.83301 -74.5 -26.5s-25.5 -48.5 -25.5 -92.5s8.5 -74.833 25.5 -92.5s41.833 -26.5 74.5 -26.5zM310 -16
c-88.667 0 -157.834 23.833 -207.501 71.5s-74.5 117.5 -74.5 209.5s24.833 161.833 74.5 209.5s118.834 71.5 207.501 71.5s157.834 -23.833 207.501 -71.5s74.5 -117.5 74.5 -209.5s-24.833 -161.833 -74.5 -209.5s-118.834 -71.5 -207.501 -71.5zM402 760v-182h-184v182
h184zM476 786h-332v164h332v-164z" />
    <glyph glyph-name="Ymacron" unicode="&#x232;" horiz-adv-x="730" 
d="M531 846h-332v164h332v-164zM-30 780h218l125 -219l52 -91l52 92l125 218h218l-302 -485v-295h-186v295z" />
    <glyph glyph-name="ymacron" unicode="&#x233;" horiz-adv-x="626" 
d="M479 616h-332v164h332v-164zM635 530l-228 -497l-98 -233h-208l113 242l-223 488h201l61 -163l60 -171l61 171l60 163h201z" />
    <glyph glyph-name="dotlessj" unicode="&#x237;" horiz-adv-x="290" 
d="M55 2v528.001h180v-553c0 -24.667 -3.66699 -47.834 -11 -69.501s-19.333 -42 -36 -61s-40.5 -34.167 -71.5 -45.5s-67.833 -17 -110.5 -17c-44 0 -81.667 6.66699 -113 20l13 162c30 -19.333 61.333 -27.333 94 -24c36.667 4 55 24 55 60z" />
    <glyph glyph-name="schwa" unicode="&#x259;" horiz-adv-x="615" 
d="M303 -16c-89.333 0 -157.833 24.001 -205.5 72.001s-71.5 117.667 -71.5 209v51h376c0 26.667 -9 47.167 -27 61.5s-43.333 21.5 -76 21.5c-54 0 -82 -11.333 -84 -34l-182 22c1.33301 47.333 22.833 85.666 64.5 114.999s106.5 44 194.5 44
c94 0 166.667 -24.167 218 -72.5s77 -117.833 77 -208.5s-25 -160.167 -75 -208.5s-119.667 -72.5 -209 -72.5zM302 131.001c28.667 0 51.668 7.33301 69.001 22s26.666 33.667 27.999 57h-181c-1.33301 -25.333 5.66699 -44.833 21 -58.5s36.333 -20.5 63 -20.5z" />
    <glyph glyph-name="ezh" unicode="&#x292;" horiz-adv-x="645" 
d="M313 -216c-208.667 0 -314 72.999 -316 218.999l191 22c1.33301 -26 12 -46.333 32 -61s50 -22 90 -22c49.333 0 84.833 7.5 106.5 22.5s32.5 39.5 32.5 73.5c0 59.333 -40.667 91 -122 95c-40.667 2 -79 -10.333 -115 -37l-81 90l100 93l99 92h-286v159h551v-121
l-152 -139c126 -23.333 189 -101.666 189 -234.999c0 -84 -28.5 -146.833 -85.5 -188.5s-134.833 -62.5 -233.5 -62.5z" />
    <glyph glyph-name="circumflex" unicode="&#x2c6;" horiz-adv-x="600" 
d="M247 592h-183l158 208h156l158 -208h-183l-53 59z" />
    <glyph glyph-name="caron" unicode="&#x2c7;" horiz-adv-x="600" 
d="M353 800h183l-158 -208h-156l-158 208h183l53 -59z" />
    <glyph glyph-name="breve" unicode="&#x2d8;" horiz-adv-x="600" 
d="M300 576c-76.667 0 -131.667 18.833 -165 56.5s-49.333 93.5 -48 167.5h140c-0.666992 -22 4.83301 -37.833 16.5 -47.5s30.5 -14.5 56.5 -14.5s44.833 4.83301 56.5 14.5s17.167 25.5 16.5 47.5h140c1.33301 -74 -14.667 -129.833 -48 -167.5s-88.333 -56.5 -165 -56.5z
" />
    <glyph glyph-name="dotaccent" unicode="&#x2d9;" horiz-adv-x="600" 
d="M392 780v-182h-184v182h184z" />
    <glyph glyph-name="ring" unicode="&#x2da;" horiz-adv-x="600" 
d="M180 696c0 36 10.667 65 32 87s50.666 33 87.999 33s66.666 -11 87.999 -33s32 -51 32 -87s-10.667 -65 -32 -87s-50.666 -33 -87.999 -33s-66.666 11 -87.999 33s-32 51 -32 87zM321 696c0 14 -7 21 -21 21s-21 -7 -21 -21s7 -21 21 -21s21 7 21 21z" />
    <glyph glyph-name="ogonek" unicode="&#x2db;" horiz-adv-x="600" 
d="M456 77l50 -76.999c-31.333 -2.66699 -56.833 -11.667 -76.5 -27s-28.167 -30.666 -25.5 -45.999c3.33301 -18.667 17.666 -25.334 42.999 -20.001c6 1.33301 12 3.33301 18 6s10.333 5 13 7l5 3l34 -114c-26.667 -16.667 -61.667 -25 -105 -25
c-74 0 -118.333 30.333 -133 91c-12 48.667 1.33301 91.167 40 127.5s84.334 61.166 137.001 74.499z" />
    <glyph glyph-name="tilde" unicode="&#x2dc;" horiz-adv-x="600" 
d="M381 576c-24 0 -46 4 -66 12s-35.167 16.667 -45.5 26s-21.166 18 -32.499 26s-22 12 -32 12c-10.667 0 -19 -4 -25 -12s-9.33301 -16 -10 -24l-2 -11l-124 15c6 55.333 23.167 101.833 51.5 139.5s69.5 56.5 123.5 56.5c24 0 46 -4 66 -12s35.167 -16.667 45.5 -26
s21.166 -18 32.499 -26s22 -12 32 -12c10.667 0 19 4 25 12s9.33301 16 10 24l2 11l124 -15c-6 -55.333 -23.167 -101.833 -51.5 -139.5s-69.5 -56.5 -123.5 -56.5z" />
    <glyph glyph-name="hungarumlaut" unicode="&#x2dd;" horiz-adv-x="600" 
d="M198 800h196l-111 -208h-179zM414 800h196l-111 -208h-179z" />
    <glyph glyph-name="uni0312" unicode="&#x312;" horiz-adv-x="600" 
d="M392 592h-191l53 208h155z" />
    <glyph glyph-name="uni0323" unicode="&#x323;" horiz-adv-x="600" 
d="M392 -40v-160h-184v160h184z" />
    <glyph glyph-name="uni0329" unicode="&#x329;" horiz-adv-x="600" 
d="M350 -200h-100v160h100v-160z" />
    <glyph glyph-name="pi" unicode="&#x3c0;" horiz-adv-x="786" 
d="M751 370l-149 -0.000976562v-168c0 -36 18.333 -56 55 -60c32.667 -3.33301 64 4.66699 94 24l13 -162c-31.333 -13.333 -69 -20 -113 -20c-42.667 0 -79.5 5.66699 -110.5 17s-54.833 26.5 -71.5 45.5s-28.667 39.333 -36 61s-11 44.834 -11 69.501v193h-97v-272
l-25 -98h-165l10 154v216h-117v160h723v-160z" />
    <glyph glyph-name="afii10023" unicode="&#x401;" horiz-adv-x="668" 
d="M52 780h566v-165h-381v-134h327v-165h-327v-151h401v-165h-586v780zM312 1010v-182h-184v182h184zM552 1010v-182h-184v182h184z" />
    <glyph glyph-name="afii10051" unicode="&#x402;" horiz-adv-x="821" 
d="M508 147c27.333 0 49.666 8.16602 66.999 24.499s26 39.5 26 69.5c0 30.667 -9.33301 53.834 -28 69.501s-45 23.5 -79 23.5c-23.333 0 -47.666 -5.33301 -72.999 -16s-40.333 -24 -45 -40v-278h-185v615h-174v165h533v-165h-174v-174c36.667 37.333 94 56 172 56
c158 0 237 -85.333 237 -256c0 -171.333 -79 -257 -237 -257c-46.667 0 -85.667 6.66699 -117 20l13 155c20.667 -8 42 -12 64 -12z" />
    <glyph glyph-name="afii10052" unicode="&#x403;" horiz-adv-x="600" 
d="M237 615v-615h-185v780h540v-165h-355zM337 1030h196l-111 -208h-179z" />
    <glyph glyph-name="afii10053" unicode="&#x404;" horiz-adv-x="743" 
d="M41 390c0 270.667 117.667 406.002 353 406.002c105.333 0 185.666 -22.833 240.999 -68.5s83.666 -109.834 84.999 -192.501l-188 -23c-0.666992 43.333 -12 74 -34 92s-56.667 27 -104 27c-92 0 -145.667 -50 -161 -150h271v-165h-273
c6 -52.667 21.333 -93.667 46 -123s63.667 -44 117 -44c47.333 0 82 9 104 27s33.333 48.667 34 92l188 -23c-1.33301 -82.667 -29.666 -146.834 -84.999 -192.501s-135.666 -68.5 -240.999 -68.5c-235.333 0 -353 135.333 -353 406z" />
    <glyph glyph-name="afii10054" unicode="&#x405;" horiz-adv-x="722" 
d="M367 -16c-121.333 0 -208.17 22.0029 -260.503 66.0029s-79.166 109 -80.499 195l188 23c0.666992 -43.333 13.834 -74.333 39.501 -93s63.5 -27.334 113.5 -26.001c42.667 1.33301 77.5 8.66602 104.5 21.999s40.167 36 39.5 68c-0.666992 26.667 -11.834 46 -33.501 58
s-61.167 19.333 -118.5 22c-36.667 1.33301 -68 3.66602 -94 6.99902s-53.667 9.66602 -83 18.999s-53 21.333 -71 36s-33.167 35 -45.5 61s-18.833 57 -19.5 93c-2 85.333 26.333 150.166 85 194.499s132.334 66.5 221.001 66.5c112 0 196.5 -22.667 253.5 -68
s86.167 -109.666 87.5 -192.999l-188 -23c-0.666992 43.333 -13.667 74.333 -39 93s-63.333 27.334 -114 26.001c-32.667 -0.666992 -61.167 -8.16699 -85.5 -22.5s-36.166 -37.5 -35.499 -69.5c0.666992 -22 9.5 -36.667 26.5 -44s53.5 -12.666 109.5 -15.999
c46.667 -2.66699 85.5 -6.33398 116.5 -11.001s60.667 -12 89 -22s50.666 -23.5 66.999 -40.5s29.333 -38.833 39 -65.5s14.834 -59 15.501 -97c0.666992 -44.667 -8 -84.167 -26 -118.5s-42.833 -61.5 -74.5 -81.5s-66.5 -34.833 -104.5 -44.5s-78.667 -14.5 -122 -14.5z
" />
    <glyph glyph-name="afii10055" unicode="&#x406;" horiz-adv-x="311" 
d="M248 780v-780h-185v780h185z" />
    <glyph glyph-name="afii10056" unicode="&#x407;" horiz-adv-x="311" 
d="M248 780v-780h-185v780h185zM127 1010v-182h-184v182h184zM367 1010v-182h-184v182h184z" />
    <glyph glyph-name="afii10057" unicode="&#x408;" horiz-adv-x="555" 
d="M328 780h185v-561c0 -156.667 -85 -235 -255 -235c-91.333 0 -155.5 20.333 -192.5 61s-56.167 96 -57.5 166l183 22c1.33301 -29.333 6.5 -50.833 15.5 -64.5s26.167 -20.5 51.5 -20.5c26 0 44.167 5.66699 54.5 17s15.5 29 15.5 53v562z" />
    <glyph glyph-name="afii10058" unicode="&#x409;" horiz-adv-x="1135" 
d="M672 780v-304h173c39.333 0 74 -3.16699 104 -9.5s58.667 -17.5 86 -33.5s48.333 -40.5 63 -73.5s22 -73.5 22 -121.5s-7.33301 -88.5 -22 -121.5s-35.667 -57.5 -63 -73.5s-56 -27.167 -86 -33.5s-64.667 -9.5 -104 -9.5h-358v615h-116l-30 -245
c-21.333 -147.333 -51.833 -245.833 -91.5 -295.5s-109.5 -74.5 -209.5 -74.5h-22v165h12c21.333 0 38.833 5.5 52.5 16.5s26.5 35.167 38.5 72.5s22.667 91 32 161l44 365h475zM672 311v-146h175c27.333 0 48.333 5 63 15s22 29.333 22 58s-7.33301 48 -22 58
s-35.667 15 -63 15h-175z" />
    <glyph glyph-name="afii10059" unicode="&#x40a;" horiz-adv-x="1159" 
d="M696 780v-304h173c39.333 0 74 -3.16699 104 -9.5s58.667 -17.5 86 -33.5s48.333 -40.5 63 -73.5s22 -73.5 22 -121.5s-7.33301 -88.5 -22 -121.5s-35.667 -57.5 -63 -73.5s-56 -27.167 -86 -33.5s-64.667 -9.5 -104 -9.5h-358v311h-274v-311h-185v780h185v-304h274v304
h185zM696 311v-146h175c27.333 0 48.333 5 63 15s22 29.333 22 58s-7.33301 48 -22 58s-35.667 15 -63 15h-175z" />
    <glyph glyph-name="afii10060" unicode="&#x40b;" horiz-adv-x="771" 
d="M376 615v-193.001c28.667 28.667 57 48.334 85 59.001s61.667 16 101 16c47.333 0 87 -13 119 -39s48 -64.667 48 -116v-342h-185v269c0 40.667 -22 61 -66 61c-27.333 0 -51 -7 -71 -21s-30.333 -33.667 -31 -59v-250h-185v615h-174v165h533v-165h-174z" />
    <glyph glyph-name="afii10061" unicode="&#x40c;" horiz-adv-x="761" 
d="M742 780l-187.001 -304.001c-21.333 -35.333 -45.666 -60.666 -72.999 -75.999c30 -16.667 56 -43 78 -79l197 -321h-218l-156 277c-14.667 26 -37 39 -67 39h-79v-316h-185v780h185v-299h74c30 0 52.333 13 67 39l146 260h218zM365.999 1030h196l-111 -208h-179z" />
    <glyph glyph-name="afii10062" unicode="&#x40e;" horiz-adv-x="791" 
d="M236 780l179.001 -401.001l170 401h196l-250 -561c-20.667 -46 -38.334 -81.833 -53.001 -107.5s-33.167 -49.167 -55.5 -70.5s-47.833 -36.166 -76.5 -44.499s-64 -12.5 -106 -12.5c-60.667 0 -111.667 11.333 -153 34l20 166c38 -24 82.333 -36 133 -36
c38 0 66 10.667 84 32l-284 600h196zM410.001 805.999c-76.667 0 -131.667 18.833 -165 56.5s-49.333 93.5 -48 167.5h140c-0.666992 -22 4.83301 -37.833 16.5 -47.5s30.5 -14.5 56.5 -14.5s44.833 4.83301 56.5 14.5s17.167 25.5 16.5 47.5h140
c1.33301 -74 -14.667 -129.833 -48 -167.5s-88.333 -56.5 -165 -56.5z" />
    <glyph glyph-name="afii10145" unicode="&#x40f;" horiz-adv-x="748" 
d="M237 780v-615h274v615h185v-780h-232v-160h-180v160h-232v780h185z" />
    <glyph glyph-name="afii10017" unicode="&#x410;" horiz-adv-x="754" 
d="M561 0l-41 133h-286l-41 -133h-198l273 790h218l273 -790h-198zM354 520l-74 -237h193l-73 237l-23 79z" />
    <glyph glyph-name="afii10018" unicode="&#x411;" 
d="M237 615v-139h173c39.333 0 74 -3.16699 104 -9.5s58.667 -17.5 86 -33.5s48.333 -40.5 63 -73.5s22 -73.5 22 -121.5s-7.33301 -88.5 -22 -121.5s-35.667 -57.5 -63 -73.5s-56 -27.167 -86 -33.5s-64.667 -9.5 -104 -9.5h-358v780h540v-165h-355zM237 311v-146h175
c27.333 0 48.333 5 63 15s22 29.333 22 58s-7.33301 48 -22 58s-35.667 15 -63 15h-175z" />
    <glyph glyph-name="afii10019" unicode="&#x412;" horiz-adv-x="710" 
d="M410 0h-358v780h352c170 0 255 -72 255 -216c0 -73.333 -22.333 -124.333 -67 -153c30 -9.33301 53 -30.333 69 -63s24 -70.667 24 -114c0 -47.333 -7.33301 -87 -22 -119s-35.667 -56 -63 -72s-56 -27.167 -86 -33.5s-64.667 -9.5 -104 -9.5zM237 165h164.998
c16.667 0 30.834 1 42.501 3s23.334 8.83301 35.001 20.5s17.5 28.167 17.5 49.5c0 22 -5 39.167 -15 51.5s-20.833 19.833 -32.5 22.5s-26.167 4 -43.5 4h-169v-151zM393.998 615l-157 -0.000976562v-134h157c26 0 45.333 4.83301 58 14.5s19 27.834 19 54.501
c0 25.333 -6.33301 42.5 -19 51.5s-32 13.5 -58 13.5z" />
    <glyph glyph-name="afii10020" unicode="&#x413;" horiz-adv-x="600" 
d="M237 615v-615h-185v780h540v-165h-355z" />
    <glyph glyph-name="afii10021" unicode="&#x414;" horiz-adv-x="834" 
d="M20 -160v325h36c31.333 0 56 17 74 51s33 100.333 45 199l44 365h475v-615h130v-325h-180v160h-444v-160h-180zM393 615l-30 -245c-10.667 -88.667 -30 -157 -58 -205h204v450h-116z" />
    <glyph glyph-name="afii10022" unicode="&#x415;" horiz-adv-x="668" 
d="M52 780h566v-165h-381v-134h327v-165h-327v-151h401v-165h-586v780z" />
    <glyph glyph-name="afii10024" unicode="&#x416;" horiz-adv-x="1073" 
d="M233 0h-219l157 321c18.667 37.333 42 63.666 70 78.999c-26.667 18.667 -47.667 44 -63 76l-149 304h219l114 -260c11.333 -26 32 -39 62 -39h20v299h185v-299h20c30 0 50.667 13 62 39l114 260h219l-149 -304c-15.333 -32 -36.333 -57.333 -63 -76
c28 -15.333 51.333 -41.666 70 -78.999l157 -321h-219l-122 277c-11.333 26 -32 39 -62 39h-27v-316h-185v316h-27c-30 0 -50.667 -13 -62 -39z" />
    <glyph glyph-name="afii10025" unicode="&#x417;" 
d="M680 233c0 -79.333 -28.835 -140.666 -86.502 -183.999s-143.5 -65 -257.5 -65c-105.333 0 -184.833 22.667 -238.5 68s-81.167 109.666 -82.5 192.999l188 23c0.666992 -44 11.334 -74.833 32.001 -92.5s54.334 -26.5 101.001 -26.5c54 0 94.333 6.5 121 19.5
s40 34.5 40 64.5c0 33.333 -9.66699 54.5 -29 63.5s-50.666 13.5 -93.999 13.5h-127v162h127c18 0 31.167 0.5 39.5 1.5s17.5 3.5 27.5 7.5s16.833 10.833 20.5 20.5s5.5 22.5 5.5 38.5c0 27.333 -11.833 46.833 -35.5 58.5s-52.834 17.167 -87.501 16.5
c-48 0 -82 -7.5 -102 -22.5s-30.333 -43.833 -31 -86.5l-188 23c2 167.333 109 251 321 251c42.667 0 81.667 -4.16699 117 -12.5s67.5 -21.5 96.5 -39.5s51.667 -43 68 -75s24.5 -69.667 24.5 -113c0 -65.333 -23.333 -113 -70 -143c28 -12.667 51.667 -33.667 71 -63
s29 -63 29 -101z" />
    <glyph glyph-name="afii10026" unicode="&#x418;" horiz-adv-x="768" 
d="M532 468l-72 -114l-224 -354h-184v780h185v-318l-1 -150l72 114l224 354h184v-780h-185v318z" />
    <glyph glyph-name="afii10027" unicode="&#x419;" horiz-adv-x="768" 
d="M532 468l-72 -114l-224 -354h-184v780h185v-318l-1 -150l72 114l224 354h184v-780h-185v318zM457 1030h140c1.33301 -74 -14.667 -129.833 -48 -167.5s-88.333 -56.5 -165 -56.5s-131.667 18.833 -165 56.5s-49.333 93.5 -48 167.5h140
c-0.666992 -22 4.83301 -37.833 16.5 -47.5s30.5 -14.5 56.5 -14.5s44.833 4.83301 56.5 14.5s17.167 25.5 16.5 47.5z" />
    <glyph glyph-name="afii10028" unicode="&#x41a;" horiz-adv-x="761" 
d="M742 780l-187.001 -304.001c-21.333 -35.333 -45.666 -60.666 -72.999 -75.999c30 -16.667 56 -43 78 -79l197 -321h-218l-156 277c-14.667 26 -37 39 -67 39h-79v-316h-185v780h185v-299h74c30 0 52.333 13 67 39l146 260h218z" />
    <glyph glyph-name="afii10029" unicode="&#x41b;" horiz-adv-x="724" 
d="M672 780l-0.000976562 -780h-185v615h-116l-30 -245c-9.33301 -75.333 -20.5 -136 -33.5 -182s-31.5 -83.5 -55.5 -112.5s-52.333 -48.833 -85 -59.5s-75 -16 -127 -16h-22v165h12c16 0 29.5 3 40.5 9s22 17.5 33 34.5s20.333 42.5 28 76.5s14.834 77.333 21.501 130
l44 365h475z" />
    <glyph glyph-name="afii10030" unicode="&#x41c;" horiz-adv-x="906" 
d="M384 0l-150 454v-454h-182v780h233l129 -385l39 -116l40 118l128 383h233v-780h-182v454l-150 -454h-138z" />
    <glyph glyph-name="afii10031" unicode="&#x41d;" horiz-adv-x="748" 
d="M511 780h185v-780h-185v316h-274v-316h-185v780h185v-299h274v299z" />
    <glyph glyph-name="afii10032" unicode="&#x41e;" horiz-adv-x="820" 
d="M410 -16c-126 0 -218.833 35.833 -278.5 107.5s-89.5 171.167 -89.5 298.5s29.667 226.833 89 298.5s152.333 107.5 279 107.5c126 0 218.833 -35.833 278.5 -107.5s89.5 -171.167 89.5 -298.5s-29.667 -226.833 -89 -298.5s-152.333 -107.5 -279 -107.5zM410 631
c-35.333 0 -65.333 -6.33301 -90 -19s-43.334 -30.834 -56.001 -54.501s-21.667 -49 -27 -76s-8 -57.5 -8 -91.5s2.66699 -64.5 8 -91.5s14.333 -52.333 27 -76s31.334 -41.834 56.001 -54.501s54.667 -19 90 -19s65.333 6.33301 90 19s43.334 30.834 56.001 54.501
s21.667 49 27 76s8 57.5 8 91.5s-2.66699 64.5 -8 91.5s-14.333 52.333 -27 76s-31.334 41.834 -56.001 54.501s-54.667 19 -90 19z" />
    <glyph glyph-name="afii10033" unicode="&#x41f;" horiz-adv-x="748" 
d="M696 780v-780h-185v615h-274v-615h-185v780h644z" />
    <glyph glyph-name="afii10034" unicode="&#x420;" horiz-adv-x="680" 
d="M237 415h149c58 0 87 33.333 87 100c0 37.333 -8.5 63.333 -25.5 78s-37.5 22 -61.5 22h-149v-200zM237 249l-0.000976562 -249.002h-185v780h320c38.667 0 73.834 -4 105.501 -12s62 -21.167 91 -39.5s51.667 -45.666 68 -81.999s24.5 -80.166 24.5 -131.499
c0 -177.333 -95 -266 -285 -266h-139z" />
    <glyph glyph-name="afii10035" unicode="&#x421;" horiz-adv-x="743" 
d="M228 390c0 -35.333 2 -65.8311 6 -91.498s11.5 -50.667 22.5 -75s28 -42.833 51 -55.5s51.833 -19 86.5 -19c47.333 0 82 9 104 27s33.333 48.667 34 92l188 -23c-1.33301 -82.667 -29.666 -146.834 -84.999 -192.501s-135.666 -68.5 -240.999 -68.5
c-235.333 0 -353 135.333 -353 406s117.667 406 353 406c105.333 0 185.666 -22.833 240.999 -68.5s83.666 -109.834 84.999 -192.501l-188 -23c-0.666992 43.333 -12 74 -34 92s-56.667 27 -104 27c-34.667 0 -63.5 -6.33301 -86.5 -19s-40 -31.167 -51 -55.5
s-18.5 -49.333 -22.5 -75s-6 -56.167 -6 -91.5z" />
    <glyph glyph-name="afii10036" unicode="&#x422;" horiz-adv-x="647" 
d="M416 615v-615h-185v615h-214v165h613v-165h-214z" />
    <glyph glyph-name="afii10037" unicode="&#x423;" horiz-adv-x="791" 
d="M236 780l179.001 -401.001l170 401h196l-250 -561c-20.667 -46 -38.334 -81.833 -53.001 -107.5s-33.167 -49.167 -55.5 -70.5s-47.833 -36.166 -76.5 -44.499s-64 -12.5 -106 -12.5c-60.667 0 -111.667 11.333 -153 34l20 166c38 -24 82.333 -36 133 -36
c38 0 66 10.667 84 32l-284 600h196z" />
    <glyph glyph-name="afii10038" unicode="&#x424;" horiz-adv-x="847" 
d="M15 390c0 90.667 27.833 160.167 83.5 208.5s133.167 72.5 232.5 72.5v109h185v-109c99.333 0 176.833 -24.167 232.5 -72.5s83.5 -117.833 83.5 -208.5s-27.833 -160.167 -83.5 -208.5s-133.167 -72.5 -232.5 -72.5v-109h-185v109
c-99.333 0 -176.833 24.167 -232.5 72.5s-83.5 117.833 -83.5 208.5zM203 390c0 -40.667 11.667 -70.832 35 -90.499s54.333 -29.5 93 -29.5v240c-38.667 0 -69.667 -9.83301 -93 -29.5s-35 -49.834 -35 -90.501zM644 390.002c0 40.667 -11.667 70.832 -35 90.499
s-54.333 29.5 -93 29.5v-240c38.667 0 69.667 9.83301 93 29.5s35 49.834 35 90.501z" />
    <glyph glyph-name="afii10039" unicode="&#x425;" horiz-adv-x="788" 
d="M394 255l-85 -127l-85 -128h-222l223 314l61 86l-59 83l-209 297h219l79 -119l78 -119l79 119l78 119h219l-218 -308l-50 -72l52 -73l232 -327h-222l-85 128z" />
    <glyph glyph-name="afii10040" unicode="&#x426;" horiz-adv-x="836" 
d="M646 0h-594v780h185v-615h274v615h185v-615h130v-325h-180v160z" />
    <glyph glyph-name="afii10041" unicode="&#x427;" horiz-adv-x="728" 
d="M676 780l-0.000976562 -780.001h-185v318c-43.333 -36.667 -106.666 -55 -189.999 -55c-74 0 -134.667 17.833 -182 53.5s-71 91.834 -71 168.501v295h185v-254c0 -57.333 35 -86 105 -86c70.667 0 121.667 19.667 153 59v281h185z" />
    <glyph glyph-name="afii10042" unicode="&#x428;" horiz-adv-x="997" 
d="M945 0h-893v780h185v-615h169v615h185v-615h169v615h185v-780z" />
    <glyph glyph-name="afii10043" unicode="&#x429;" horiz-adv-x="1085" 
d="M895 0h-843v780h185v-615h169v615h185v-615h169v615h185v-615h130v-325h-180v160z" />
    <glyph glyph-name="afii10044" unicode="&#x42a;" horiz-adv-x="831" 
d="M368 780v-304h173c39.333 0 74 -3.16699 104 -9.5s58.667 -17.5 86 -33.5s48.333 -40.5 63 -73.5s22 -73.5 22 -121.5s-7.33301 -88.5 -22 -121.5s-35.667 -57.5 -63 -73.5s-56 -27.167 -86 -33.5s-64.667 -9.5 -104 -9.5h-358v615h-175v165h360zM368 311v-146h175
c27.333 0 48.333 5 63 15s22 29.333 22 58s-7.33301 48 -22 58s-35.667 15 -63 15h-175z" />
    <glyph glyph-name="afii10045" unicode="&#x42b;" horiz-adv-x="980" 
d="M52 780h185v-304h173c39.333 0 74 -3.16699 104 -9.5s58.667 -17.5 86 -33.5s48.333 -40.5 63 -73.5s22 -73.5 22 -121.5s-7.33301 -88.5 -22 -121.5s-35.667 -57.5 -63 -73.5s-56 -27.167 -86 -33.5s-64.667 -9.5 -104 -9.5h-358v780zM412 311h-175v-146h175
c27.333 0 48.333 5 63 15s22 29.333 22 58s-7.33301 48 -22 58s-35.667 15 -63 15zM917 780v-780h-185v780h185z" />
    <glyph glyph-name="afii10046" unicode="&#x42c;" 
d="M52 780h185v-304h173c39.333 0 74 -3.16699 104 -9.5s58.667 -17.5 86 -33.5s48.333 -40.5 63 -73.5s22 -73.5 22 -121.5s-7.33301 -88.5 -22 -121.5s-35.667 -57.5 -63 -73.5s-56 -27.167 -86 -33.5s-64.667 -9.5 -104 -9.5h-358v780zM412 311h-175v-146h175
c27.333 0 48.333 5 63 15s22 29.333 22 58s-7.33301 48 -22 58s-35.667 15 -63 15z" />
    <glyph glyph-name="afii10047" unicode="&#x42d;" horiz-adv-x="743" 
d="M702 390c0 -270.667 -117.668 -406.001 -353.001 -406.001c-105.333 0 -185.666 22.833 -240.999 68.5s-83.666 109.834 -84.999 192.501l188 23c0.666992 -43.333 12 -74 34 -92s56.667 -27 104 -27c53.333 0 92.333 14.667 117 44s39.667 70.333 45 123h-272v165h270
c-7.33301 47.333 -23.166 84.166 -47.499 110.499s-61.833 39.5 -112.5 39.5c-47.333 0 -82 -9 -104 -27s-33.333 -48.667 -34 -92l-188 23c1.33301 82.667 29.666 146.834 84.999 192.501s135.666 68.5 240.999 68.5c235.333 0 353 -135.333 353 -406z" />
    </font>
</defs>
</svg>
