<?xml version="1.0" standalone="no"?>
<!DOCTYPE svg PUBLIC "-//W3C//DTD SVG 20010904//EN"
 "http://www.w3.org/TR/2001/REC-SVG-20010904/DTD/svg10.dtd">
<svg version="1.0" xmlns="http://www.w3.org/2000/svg"
 width="260.000000pt" height="260.000000pt" viewBox="0 0 260.000000 260.000000"
 preserveAspectRatio="xMidYMid meet">
<metadata>
Created by potrace 1.11, written by Peter Selinger 2001-2013
</metadata>
<g transform="translate(0.000000,260.000000) scale(0.100000,-0.100000)"
fill="#000000" stroke="none">
<path d="M1060 2540 c-230 -53 -434 -153 -571 -278 -31 -29 -62 -52 -67 -52
-6 0 -25 -20 -42 -45 -17 -24 -36 -48 -43 -52 -18 -11 -88 -108 -118 -163 -13
-25 -26 -47 -29 -50 -3 -3 -23 -41 -44 -85 -38 -81 -81 -220 -94 -310 -11 -76
-6 -361 7 -439 24 -138 112 -346 199 -469 39 -55 166 -197 177 -197 3 0 21
-17 40 -39 69 -76 240 -179 391 -236 150 -57 226 -69 419 -69 161 -1 254 6
277 21 5 2 21 7 36 9 84 15 141 37 287 111 87 44 226 137 234 156 2 5 30 34
63 65 71 67 178 198 178 217 0 7 4 15 8 17 8 3 105 174 102 180 -1 2 3 15 9
30 11 29 56 194 67 243 3 17 7 99 9 183 2 162 -7 228 -60 412 -27 93 -113 259
-179 345 -50 66 -224 235 -295 288 -114 85 -342 184 -463 202 -23 4 -47 9 -53
13 -5 3 -91 7 -190 8 -139 1 -197 -3 -255 -16z"/>
</g>
</svg>
